<svg width="57" height="56" viewBox="0 0 57 56" fill="none" xmlns="http://www.w3.org/2000/svg">
<rect x="0.333252" width="56" height="56" rx="28" fill="#5CADF8"/>
<path d="M29.8628 24.3519C29.2904 24.76 28.5899 25 27.8333 25C25.9003 25 24.3333 23.433 24.3333 21.5C24.3333 19.567 25.9003 18 27.8333 18C29.0863 18 30.1855 18.6584 30.8038 19.6481M22.3333 36.0872H24.9435C25.2839 36.0872 25.6221 36.1277 25.9521 36.2086L28.7102 36.8789C29.3086 37.0247 29.9321 37.0388 30.5368 36.9214L33.5863 36.3281C34.3918 36.1712 35.1329 35.7854 35.7136 35.2205L37.8712 33.1217C38.4873 32.5234 38.4873 31.5524 37.8712 30.9531C37.3165 30.4134 36.438 30.3527 35.8104 30.8103L33.2959 32.6449C32.9358 32.9081 32.4976 33.0498 32.047 33.0498H29.6188H31.1644C32.0355 33.0498 32.7412 32.3633 32.7412 31.5159V31.2091C32.7412 30.5055 32.2489 29.892 31.5474 29.7219L29.1619 29.1417C28.7737 29.0476 28.3761 29 27.9764 29C27.0116 29 25.2651 29.7988 25.2651 29.7988L22.3333 31.0249M36.3333 22.5C36.3333 24.433 34.7663 26 32.8333 26C30.9003 26 29.3333 24.433 29.3333 22.5C29.3333 20.567 30.9003 19 32.8333 19C34.7663 19 36.3333 20.567 36.3333 22.5ZM18.3333 30.6V36.4C18.3333 36.9601 18.3333 37.2401 18.4422 37.454C18.5381 37.6422 18.6911 37.7951 18.8793 37.891C19.0932 38 19.3732 38 19.9333 38H20.7333C21.2933 38 21.5733 38 21.7872 37.891C21.9754 37.7951 22.1284 37.6422 22.2243 37.454C22.3333 37.2401 22.3333 36.9601 22.3333 36.4V30.6C22.3333 30.0399 22.3333 29.7599 22.2243 29.546C22.1284 29.3578 21.9754 29.2049 21.7872 29.109C21.5733 29 21.2933 29 20.7333 29H19.9333C19.3732 29 19.0932 29 18.8793 29.109C18.6911 29.2049 18.5381 29.3578 18.4422 29.546C18.3333 29.7599 18.3333 30.0399 18.3333 30.6Z" stroke="white" stroke-width="2" stroke-linecap="round" stroke-linejoin="round"/>
</svg>
