<svg width="57" height="56" viewBox="0 0 57 56" fill="none" xmlns="http://www.w3.org/2000/svg">
<rect x="0.666626" width="56" height="56" rx="28" fill="#5CADF8"/>
<path d="M34.1666 22.5L23.1666 33.5M25.1666 26.5V22.5M23.1666 24.5H27.1666M30.1666 31.5H34.1666M24.4666 37H32.8666C34.5468 37 35.3868 37 36.0286 36.673C36.5931 36.3854 37.052 35.9265 37.3396 35.362C37.6666 34.7202 37.6666 33.8802 37.6666 32.2V23.8C37.6666 22.1198 37.6666 21.2798 37.3396 20.638C37.052 20.0735 36.5931 19.6146 36.0286 19.327C35.3868 19 34.5468 19 32.8666 19H24.4666C22.7865 19 21.9464 19 21.3047 19.327C20.7402 19.6146 20.2812 20.0735 19.9936 20.638C19.6666 21.2798 19.6666 22.1198 19.6666 23.8V32.2C19.6666 33.8802 19.6666 34.7202 19.9936 35.362C20.2812 35.9265 20.7402 36.3854 21.3047 36.673C21.9464 37 22.7865 37 24.4666 37Z" stroke="white" stroke-width="2" stroke-linecap="round" stroke-linejoin="round"/>
</svg>
