<svg width="57" height="56" viewBox="0 0 57 56" fill="none" xmlns="http://www.w3.org/2000/svg">
<rect x="0.333008" width="56" height="56" rx="28" fill="#5CADF8"/>
<path d="M25.423 25C25.6581 24.3317 26.1222 23.7681 26.733 23.4091C27.3438 23.0502 28.0619 22.9189 28.7602 23.0387C29.4585 23.1585 30.0918 23.5215 30.5481 24.0635C31.0043 24.6055 31.2541 25.2915 31.253 26C31.253 28 28.253 29 28.253 29M28.333 33H28.343M38.333 28C38.333 33.5228 33.8558 38 28.333 38C22.8102 38 18.333 33.5228 18.333 28C18.333 22.4771 22.8102 18 28.333 18C33.8558 18 38.333 22.4771 38.333 28Z" stroke="white" stroke-width="2" stroke-linecap="round" stroke-linejoin="round"/>
</svg>
