<svg width="57" height="56" viewBox="0 0 57 56" fill="none" xmlns="http://www.w3.org/2000/svg">
<rect x="0.666016" width="56" height="56" rx="28" fill="#5CADF8"/>
<path d="M38.666 37V35C38.666 33.1362 37.3912 31.5701 35.666 31.126M32.166 19.2908C33.6319 19.8842 34.666 21.3213 34.666 23C34.666 24.6787 33.6319 26.1159 32.166 26.7092M33.666 37C33.666 35.1362 33.666 34.2044 33.3615 33.4693C32.9555 32.4892 32.1768 31.7105 31.1967 31.3045C30.4616 31 29.5298 31 27.666 31H24.666C22.8022 31 21.8704 31 21.1353 31.3045C20.1552 31.7105 19.3765 32.4892 18.9705 33.4693C18.666 34.2044 18.666 35.1362 18.666 37M30.166 23C30.166 25.2091 28.3751 27 26.166 27C23.9569 27 22.166 25.2091 22.166 23C22.166 20.7909 23.9569 19 26.166 19C28.3751 19 30.166 20.7909 30.166 23Z" stroke="white" stroke-width="2" stroke-linecap="round" stroke-linejoin="round"/>
</svg>
