<svg width="57" height="56" viewBox="0 0 57 56" fill="none" xmlns="http://www.w3.org/2000/svg">
<rect x="0.333252" width="56" height="56" rx="28" fill="#5CADF8"/>
<path d="M32.8333 30H32.8433M19.3333 21V35C19.3333 36.1046 20.2287 37 21.3333 37H35.3333C36.4379 37 37.3333 36.1046 37.3333 35V25C37.3333 23.8954 36.4379 23 35.3333 23H21.3333C20.2287 23 19.3333 22.1046 19.3333 21ZM19.3333 21C19.3333 19.8954 20.2287 19 21.3333 19H33.3333M33.3333 30C33.3333 30.2761 33.1094 30.5 32.8333 30.5C32.5572 30.5 32.3333 30.2761 32.3333 30C32.3333 29.7239 32.5572 29.5 32.8333 29.5C33.1094 29.5 33.3333 29.7239 33.3333 30Z" stroke="white" stroke-width="2" stroke-linecap="round" stroke-linejoin="round"/>
</svg>
