<svg width="56" height="56" viewBox="0 0 56 56" fill="none" xmlns="http://www.w3.org/2000/svg">
<rect width="56" height="56" rx="28" fill="#5CADF8"/>
<path d="M28 38C33.5228 38 38 33.5228 38 28C38 22.4771 33.5228 18 28 18C22.4771 18 18 22.4771 18 28C18 33.5228 22.4771 38 28 38Z" stroke="white" stroke-width="2" stroke-linecap="round" stroke-linejoin="round"/>
<path d="M27.9966 25.0679C26.9969 23.8992 25.3299 23.5848 24.0774 24.655C22.8248 25.7252 22.6485 27.5145 23.6321 28.7802C24.2621 29.5909 25.8756 31.0942 26.9542 32.0704C27.3127 32.3947 27.4919 32.5569 27.7066 32.622C27.8911 32.6779 28.102 32.6779 28.2866 32.622C28.5012 32.5569 28.6805 32.3947 29.0389 32.0704C30.1176 31.0942 31.731 29.5909 32.3611 28.7802C33.3447 27.5145 33.1899 25.7139 31.9158 24.655C30.6417 23.5961 28.9963 23.8992 27.9966 25.0679Z" stroke="white" stroke-width="2" stroke-linecap="round" stroke-linejoin="round"/>
</svg>
