<svg width="64" height="64" viewBox="0 0 64 64" fill="none" xmlns="http://www.w3.org/2000/svg">
<rect x="12" y="12" width="40" height="40" rx="20" fill="#5CADF8"/>
<path d="M29 35L34.6569 29.3431M42 32C42 37.5228 37.5228 42 32 42C26.4772 42 22 37.5228 22 32C22 26.4772 26.4772 22 32 22C37.5228 22 42 26.4772 42 32Z" stroke="#FAFAFA" stroke-width="2" stroke-linecap="round"/>
<path d="M28 29C28 29.5523 28.4477 30 29 30C29.5523 30 30 29.5523 30 29C30 28.4477 29.5523 28 29 28C28.4477 28 28 28.4477 28 29Z" fill="#FAFAFA"/>
<path d="M34 35C34 35.5523 34.4477 36 35 36C35.5523 36 36 35.5523 36 35C36 34.4477 35.5523 34 35 34C34.4477 34 34 34.4477 34 35Z" fill="#FAFAFA"/>
<rect x="6" y="6" width="52" height="52" rx="26" stroke="#5CADF8" stroke-opacity="0.3" stroke-width="12"/>
</svg>
