<svg width="64" height="64" viewBox="0 0 64 64" fill="none" xmlns="http://www.w3.org/2000/svg">
<rect x="12" y="12" width="40" height="40" rx="20" fill="#5CADF8"/>
<path d="M32 42C37.5228 42 42 37.5228 42 32C42 26.4771 37.5228 22 32 22C26.4771 22 22 26.4771 22 32C22 37.5228 26.4771 42 32 42Z" stroke="white" stroke-width="2" stroke-linecap="round" stroke-linejoin="round"/>
<path d="M31.9966 29.0679C30.9969 27.8992 29.3299 27.5848 28.0774 28.655C26.8248 29.7252 26.6485 31.5145 27.6321 32.7802C28.2621 33.5909 29.8756 35.0942 30.9542 36.0704C31.3127 36.3947 31.4919 36.5569 31.7066 36.622C31.8911 36.6779 32.102 36.6779 32.2866 36.622C32.5012 36.5569 32.6805 36.3947 33.0389 36.0704C34.1176 35.0942 35.731 33.5909 36.3611 32.7802C37.3447 31.5145 37.1899 29.7139 35.9158 28.655C34.6417 27.5961 32.9963 27.8992 31.9966 29.0679Z" stroke="white" stroke-width="2" stroke-linecap="round" stroke-linejoin="round"/>
<rect x="6" y="6" width="52" height="52" rx="26" stroke="#5CADF8" stroke-opacity="0.3" stroke-width="12"/>
</svg>
