<svg width="64" height="64" viewBox="0 0 64 64" fill="none" xmlns="http://www.w3.org/2000/svg">
<rect x="12" y="12" width="40" height="40" rx="20" fill="#5CADF8"/>
<path d="M25 28.999V36.999M29.5 28.999V36.999M34.5 28.999V36.999M39 28.999V36.999M23 38.599L23 39.399C23 39.9591 23 40.2391 23.109 40.453C23.2049 40.6412 23.3578 40.7942 23.546 40.89C23.7599 40.999 24.0399 40.999 24.6 40.999H39.4C39.9601 40.999 40.2401 40.999 40.454 40.8901C40.6422 40.7942 40.7951 40.6412 40.891 40.453C41 40.2391 41 39.9591 41 39.399V38.599C41 38.039 41 37.759 40.891 37.5451C40.7951 37.3569 40.6422 37.2039 40.454 37.108C40.2401 36.999 39.9601 36.999 39.4 36.999H24.6C24.0399 36.999 23.7599 36.999 23.546 37.108C23.3578 37.2039 23.2049 37.3569 23.109 37.5451C23 37.759 23 38.039 23 38.599ZM31.6529 23.0762L24.2529 24.7206C23.8059 24.82 23.5823 24.8696 23.4155 24.9898C23.2683 25.0959 23.1527 25.2399 23.0811 25.4066C23 25.5956 23 25.8246 23 26.2825L23 27.399C23 27.9591 23 28.2391 23.109 28.453C23.2049 28.6412 23.3578 28.7942 23.546 28.89C23.7599 28.999 24.0399 28.999 24.6 28.999H39.4C39.9601 28.999 40.2401 28.999 40.454 28.89C40.6422 28.7942 40.7951 28.6412 40.891 28.453C41 28.2391 41 27.9591 41 27.399V26.2825C41 25.8246 41 25.5956 40.9188 25.4066C40.8473 25.2399 40.7317 25.0959 40.5845 24.9898C40.4177 24.8696 40.1942 24.82 39.7471 24.7206L32.3471 23.0762C32.2176 23.0474 32.1528 23.033 32.0874 23.0273C32.0292 23.0222 31.9708 23.0222 31.9126 23.0273C31.8472 23.033 31.7824 23.0474 31.6529 23.0762Z" stroke="white" stroke-width="2" stroke-linecap="round" stroke-linejoin="round"/>
<rect x="6" y="6" width="52" height="52" rx="26" stroke="#5CADF8" stroke-opacity="0.3" stroke-width="12"/>
</svg>
