<svg width="64" height="64" viewBox="0 0 64 64" fill="none" xmlns="http://www.w3.org/2000/svg">
<rect x="12" y="12" width="40" height="40" rx="20" fill="#5CADF8"/>
<path d="M29.213 34.5003C29.5252 35.0948 30.1486 35.5003 30.8667 35.5003H33C34.1046 35.5003 35 34.6049 35 33.5003C35 32.3957 34.1046 31.5003 33 31.5003H31C29.8954 31.5003 29 30.6049 29 29.5004C29 28.3958 29.8954 27.5004 31 27.5004H33.1333C33.8514 27.5004 34.4748 27.9059 34.787 28.5004M32 26.0004V27.5004M32 35.5003V37.0003M40 32.0003C40 36.9088 34.646 40.4787 32.698 41.6152C32.4766 41.7444 32.3659 41.8089 32.2097 41.8424C32.0884 41.8684 31.9116 41.8684 31.7903 41.8424C31.6341 41.8089 31.5234 41.7444 31.302 41.6152C29.354 40.4787 24 36.9088 24 32.0003V27.218C24 26.4184 24 26.0187 24.1308 25.6751C24.2463 25.3715 24.434 25.1006 24.6777 24.8859C24.9535 24.6428 25.3278 24.5024 26.0764 24.2217L31.4382 22.211C31.6461 22.1331 31.75 22.0941 31.857 22.0786C31.9518 22.0649 32.0482 22.0649 32.143 22.0786C32.25 22.0941 32.3539 22.1331 32.5618 22.211L37.9236 24.2217C38.6722 24.5024 39.0465 24.6428 39.3223 24.8859C39.566 25.1006 39.7537 25.3715 39.8692 25.6751C40 26.0187 40 26.4184 40 27.218V32.0003Z" stroke="white" stroke-width="2" stroke-linecap="round" stroke-linejoin="round"/>
<rect x="6" y="6" width="52" height="52" rx="26" stroke="#5CADF8" stroke-opacity="0.3" stroke-width="12"/>
</svg>
