<svg width="64" height="64" viewBox="0 0 64 64" fill="none" xmlns="http://www.w3.org/2000/svg">
<rect x="12" y="12" width="40" height="40" rx="20" fill="#5CADF8"/>
<path d="M33.5295 28.3519C32.9571 28.76 32.2566 29 31.5 29C29.567 29 28 27.433 28 25.5C28 23.567 29.567 22 31.5 22C32.753 22 33.8522 22.6584 34.4705 23.6481M26 40.0872H28.6103C28.9506 40.0872 29.2889 40.1277 29.6188 40.2086L32.3769 40.8789C32.9753 41.0247 33.5988 41.0388 34.2035 40.9214L37.253 40.3281C38.0585 40.1712 38.7996 39.7854 39.3803 39.2205L41.5379 37.1217C42.154 36.5234 42.154 35.5524 41.5379 34.9531C40.9832 34.4134 40.1047 34.3527 39.4771 34.8103L36.9626 36.6449C36.6025 36.9081 36.1643 37.0498 35.7137 37.0498H33.2855H34.8311C35.7022 37.0498 36.4079 36.3633 36.4079 35.5159V35.2091C36.4079 34.5055 35.9156 33.892 35.2141 33.7219L32.8286 33.1417C32.4404 33.0476 32.0428 33 31.6431 33C30.6783 33 28.9319 33.7988 28.9319 33.7988L26 35.0249M40 26.5C40 28.433 38.433 30 36.5 30C34.567 30 33 28.433 33 26.5C33 24.567 34.567 23 36.5 23C38.433 23 40 24.567 40 26.5ZM22 34.6V40.4C22 40.9601 22 41.2401 22.109 41.454C22.2049 41.6422 22.3579 41.7951 22.546 41.891C22.7599 42 23.0399 42 23.6 42H24.4C24.9601 42 25.2401 42 25.454 41.891C25.6421 41.7951 25.7951 41.6422 25.891 41.454C26 41.2401 26 40.9601 26 40.4V34.6C26 34.0399 26 33.7599 25.891 33.546C25.7951 33.3578 25.6421 33.2049 25.454 33.109C25.2401 33 24.9601 33 24.4 33H23.6C23.0399 33 22.7599 33 22.546 33.109C22.3579 33.2049 22.2049 33.3578 22.109 33.546C22 33.7599 22 34.0399 22 34.6Z" stroke="white" stroke-width="2" stroke-linecap="round" stroke-linejoin="round"/>
<rect x="6" y="6" width="52" height="52" rx="26" stroke="#5CADF8" stroke-opacity="0.3" stroke-width="12"/>
</svg>
