<svg width="64" height="64" viewBox="0 0 64 64" fill="none" xmlns="http://www.w3.org/2000/svg">
<rect x="12" y="12" width="40" height="40" rx="20" fill="#5CADF8"/>
<path d="M37.5 26.5L26.5 37.5M28.5 30.5V26.5M26.5 28.5H30.5M33.5 35.5H37.5M27.8 41H36.2C37.8802 41 38.7202 41 39.362 40.673C39.9265 40.3854 40.3854 39.9265 40.673 39.362C41 38.7202 41 37.8802 41 36.2V27.8C41 26.1198 41 25.2798 40.673 24.638C40.3854 24.0735 39.9265 23.6146 39.362 23.327C38.7202 23 37.8802 23 36.2 23H27.8C26.1198 23 25.2798 23 24.638 23.327C24.0735 23.6146 23.6146 24.0735 23.327 24.638C23 25.2798 23 26.1198 23 27.8V36.2C23 37.8802 23 38.7202 23.327 39.362C23.6146 39.9265 24.0735 40.3854 24.638 40.673C25.2798 41 26.1198 41 27.8 41Z" stroke="white" stroke-width="2" stroke-linecap="round" stroke-linejoin="round"/>
<rect x="6" y="6" width="52" height="52" rx="26" stroke="#5CADF8" stroke-opacity="0.3" stroke-width="12"/>
</svg>
