<svg width="64" height="64" viewBox="0 0 64 64" fill="none" xmlns="http://www.w3.org/2000/svg">
<rect x="12" y="12" width="40" height="40" rx="20" fill="#5CADF8"/>
<path d="M36.5 34H36.51M23 25V39C23 40.1046 23.8954 41 25 41H39C40.1046 41 41 40.1046 41 39V29C41 27.8954 40.1046 27 39 27H25C23.8954 27 23 26.1046 23 25ZM23 25C23 23.8954 23.8954 23 25 23H37M37 34C37 34.2761 36.7761 34.5 36.5 34.5C36.2239 34.5 36 34.2761 36 34C36 33.7239 36.2239 33.5 36.5 33.5C36.7761 33.5 37 33.7239 37 34Z" stroke="white" stroke-width="2" stroke-linecap="round" stroke-linejoin="round"/>
<rect x="6" y="6" width="52" height="52" rx="26" stroke="#5CADF8" stroke-opacity="0.3" stroke-width="12"/>
</svg>
