<svg width="60" height="60" viewBox="0 0 60 60" fill="none" xmlns="http://www.w3.org/2000/svg">
<rect x="10" y="10" width="40" height="40" rx="20" fill="#31974E" fill-opacity="0.14"/>
<path d="M22 30H38M32 24C32 25.1046 31.1046 26 30 26C28.8954 26 28 25.1046 28 24C28 22.8954 28.8954 22 30 22C31.1046 22 32 22.8954 32 24ZM32 36C32 37.1046 31.1046 38 30 38C28.8954 38 28 37.1046 28 36C28 34.8954 28.8954 34 30 34C31.1046 34 32 34.8954 32 36Z" stroke="#288041" stroke-width="2" stroke-linecap="round" stroke-linejoin="round"/>
<rect x="5" y="5" width="50" height="50" rx="25" stroke="#31974E" stroke-opacity="0.1" stroke-width="10"/>
</svg>
