<svg width="375" height="258" viewBox="0 0 375 258" fill="none" xmlns="http://www.w3.org/2000/svg">
<g clip-path="url(#clip0_1_9066)">
<rect width="375" height="258" fill="white"/>
<rect x="-6.48926" y="-17" width="48.5103" height="48.5103" stroke="#D5F2E4" stroke-opacity="0.2" stroke-width="0.673755"/>
<rect x="42.0205" y="-17" width="48.5103" height="48.5103" stroke="#D5F2E4" stroke-opacity="0.2" stroke-width="0.673755"/>
<rect x="90.5312" y="-17" width="48.5103" height="48.5103" stroke="#D5F2E4" stroke-opacity="0.2" stroke-width="0.673755"/>
<rect x="139.041" y="-17" width="48.5103" height="48.5103" stroke="#D5F2E4" stroke-opacity="0.2" stroke-width="0.673755"/>
<rect x="187.551" y="-17" width="48.5103" height="48.5103" stroke="#D5F2E4" stroke-opacity="0.2" stroke-width="0.673755"/>
<rect x="236.062" y="-17" width="48.5103" height="48.5103" stroke="#D5F2E4" stroke-opacity="0.2" stroke-width="0.673755"/>
<rect x="284.572" y="-17" width="48.5103" height="48.5103" stroke="#D5F2E4" stroke-opacity="0.2" stroke-width="0.673755"/>
<rect x="333.082" y="-17" width="48.5103" height="48.5103" stroke="#D5F2E4" stroke-opacity="0.2" stroke-width="0.673755"/>
<rect x="-6.48926" y="31.5098" width="48.5103" height="48.5103" stroke="#D5F2E4" stroke-opacity="0.2" stroke-width="0.673755"/>
<rect x="42.0205" y="31.5098" width="48.5103" height="48.5103" stroke="#D5F2E4" stroke-opacity="0.2" stroke-width="0.673755"/>
<rect x="90.5312" y="31.5098" width="48.5103" height="48.5103" stroke="#D5F2E4" stroke-opacity="0.2" stroke-width="0.673755"/>
<rect x="139.041" y="31.5098" width="48.5103" height="48.5103" stroke="#D5F2E4" stroke-opacity="0.2" stroke-width="0.673755"/>
<rect x="187.551" y="31.5098" width="48.5103" height="48.5103" stroke="#D5F2E4" stroke-opacity="0.2" stroke-width="0.673755"/>
<rect x="236.062" y="31.5098" width="48.5103" height="48.5103" stroke="#D5F2E4" stroke-opacity="0.2" stroke-width="0.673755"/>
<rect x="284.572" y="31.5098" width="48.5103" height="48.5103" stroke="#D5F2E4" stroke-opacity="0.2" stroke-width="0.673755"/>
<rect x="333.082" y="31.5098" width="48.5103" height="48.5103" stroke="#D5F2E4" stroke-opacity="0.2" stroke-width="0.673755"/>
<rect x="-6.48926" y="80.0215" width="48.5103" height="48.5103" stroke="#D5F2E4" stroke-opacity="0.2" stroke-width="0.673755"/>
<rect x="42.0205" y="80.0215" width="48.5103" height="48.5103" stroke="#D5F2E4" stroke-opacity="0.2" stroke-width="0.673755"/>
<rect x="90.5312" y="80.0215" width="48.5103" height="48.5103" stroke="#D5F2E4" stroke-opacity="0.2" stroke-width="0.673755"/>
<rect x="139.041" y="80.0215" width="48.5103" height="48.5103" stroke="#D5F2E4" stroke-opacity="0.2" stroke-width="0.673755"/>
<rect x="187.551" y="80.0215" width="48.5103" height="48.5103" stroke="#D5F2E4" stroke-opacity="0.2" stroke-width="0.673755"/>
<rect x="236.062" y="80.0215" width="48.5103" height="48.5103" stroke="#D5F2E4" stroke-opacity="0.2" stroke-width="0.673755"/>
<rect x="284.572" y="80.0215" width="48.5103" height="48.5103" stroke="#D5F2E4" stroke-opacity="0.2" stroke-width="0.673755"/>
<rect x="333.082" y="80.0215" width="48.5103" height="48.5103" stroke="#D5F2E4" stroke-opacity="0.2" stroke-width="0.673755"/>
<rect x="-6.48926" y="128.531" width="48.5103" height="48.5103" stroke="#D5F2E4" stroke-opacity="0.2" stroke-width="0.673755"/>
<rect x="42.0205" y="128.531" width="48.5103" height="48.5103" stroke="#D5F2E4" stroke-opacity="0.2" stroke-width="0.673755"/>
<rect x="90.5312" y="128.531" width="48.5103" height="48.5103" stroke="#D5F2E4" stroke-opacity="0.2" stroke-width="0.673755"/>
<rect x="139.041" y="128.531" width="48.5103" height="48.5103" stroke="#D5F2E4" stroke-opacity="0.2" stroke-width="0.673755"/>
<rect x="187.551" y="128.531" width="48.5103" height="48.5103" stroke="#D5F2E4" stroke-opacity="0.2" stroke-width="0.673755"/>
<rect x="236.062" y="128.531" width="48.5103" height="48.5103" stroke="#D5F2E4" stroke-opacity="0.2" stroke-width="0.673755"/>
<rect x="284.572" y="128.531" width="48.5103" height="48.5103" stroke="#D5F2E4" stroke-opacity="0.2" stroke-width="0.673755"/>
<rect x="333.082" y="128.531" width="48.5103" height="48.5103" stroke="#D5F2E4" stroke-opacity="0.2" stroke-width="0.673755"/>
<rect x="-6.48926" y="177.041" width="48.5103" height="48.5103" stroke="#D5F2E4" stroke-opacity="0.2" stroke-width="0.673755"/>
<rect x="42.0205" y="177.041" width="48.5103" height="48.5103" stroke="#D5F2E4" stroke-opacity="0.2" stroke-width="0.673755"/>
<rect x="90.5312" y="177.041" width="48.5103" height="48.5103" stroke="#D5F2E4" stroke-opacity="0.2" stroke-width="0.673755"/>
<rect x="139.041" y="177.041" width="48.5103" height="48.5103" stroke="#D5F2E4" stroke-opacity="0.2" stroke-width="0.673755"/>
<rect x="187.551" y="177.041" width="48.5103" height="48.5103" stroke="#D5F2E4" stroke-opacity="0.2" stroke-width="0.673755"/>
<rect x="236.062" y="177.041" width="48.5103" height="48.5103" stroke="#D5F2E4" stroke-opacity="0.2" stroke-width="0.673755"/>
<rect x="284.572" y="177.041" width="48.5103" height="48.5103" stroke="#D5F2E4" stroke-opacity="0.2" stroke-width="0.673755"/>
<rect x="333.082" y="177.041" width="48.5103" height="48.5103" stroke="#D5F2E4" stroke-opacity="0.2" stroke-width="0.673755"/>
<rect x="-6.48926" y="225.551" width="48.5103" height="48.5103" stroke="#D5F2E4" stroke-opacity="0.2" stroke-width="0.673755"/>
<rect x="42.0205" y="225.551" width="48.5103" height="48.5103" stroke="#D5F2E4" stroke-opacity="0.2" stroke-width="0.673755"/>
<rect x="90.5312" y="225.551" width="48.5103" height="48.5103" stroke="#D5F2E4" stroke-opacity="0.2" stroke-width="0.673755"/>
<rect x="139.041" y="225.551" width="48.5103" height="48.5103" stroke="#D5F2E4" stroke-opacity="0.2" stroke-width="0.673755"/>
<rect x="187.551" y="225.551" width="48.5103" height="48.5103" stroke="#D5F2E4" stroke-opacity="0.2" stroke-width="0.673755"/>
<rect x="236.062" y="225.551" width="48.5103" height="48.5103" stroke="#D5F2E4" stroke-opacity="0.2" stroke-width="0.673755"/>
<rect x="284.572" y="225.551" width="48.5103" height="48.5103" stroke="#D5F2E4" stroke-opacity="0.2" stroke-width="0.673755"/>
<rect x="333.082" y="225.551" width="48.5103" height="48.5103" stroke="#D5F2E4" stroke-opacity="0.2" stroke-width="0.673755"/>
<rect x="0.186756" y="0.166251" width="51.2989" height="19.976" rx="9.98802" transform="matrix(0.999272 -0.0381531 0.0778022 0.996969 16.6093 54.0428)" fill="#132043" fill-opacity="0.8"/>
<path d="M25.9225 61.957L25.8658 61.2301L30.2074 61.0643L30.2641 61.7912L28.5138 61.8581L28.8938 66.728L28.0502 66.7602L27.6701 61.8903L25.9225 61.957ZM32.7476 66.6658C32.333 66.6817 31.9691 66.6069 31.6559 66.4416C31.3443 66.2745 31.0946 66.0327 30.907 65.7165C30.721 65.3983 30.611 65.0215 30.577 64.5861C30.5434 64.1561 30.5942 63.7741 30.7293 63.44C30.8662 63.1059 31.0727 62.8412 31.3487 62.6461C31.6265 62.451 31.9608 62.3459 32.3516 62.331C32.589 62.3219 32.8221 62.3523 33.051 62.4222C33.2799 62.492 33.4895 62.6073 33.6797 62.7682C33.8699 62.929 34.0266 63.1414 34.1498 63.4053C34.2728 63.6674 34.3492 63.9889 34.3789 64.3696L34.4015 64.6593L31.057 64.787L31.0092 64.1749L33.5511 64.0778C33.5344 63.8628 33.4757 63.6741 33.3751 63.5117C33.2743 63.3474 33.1408 63.22 32.9744 63.1295C32.8098 63.039 32.6216 62.9977 32.4098 63.0058C32.1797 63.0146 31.9832 63.0787 31.8204 63.1983C31.6592 63.3159 31.5391 63.4666 31.46 63.6506C31.3827 63.8326 31.3522 64.0284 31.3685 64.2379L31.4058 64.7161C31.4277 64.9967 31.4957 65.2335 31.6096 65.4265C31.7254 65.6194 31.8768 65.7644 32.0639 65.8614C32.2508 65.9566 32.4639 65.9996 32.7031 65.9905C32.8583 65.9846 32.9982 65.9573 33.1226 65.9087C33.2468 65.8583 33.3521 65.7867 33.4382 65.6938C33.5244 65.601 33.587 65.488 33.6261 65.355L34.4121 65.4648C34.3678 65.6949 34.272 65.8986 34.1247 66.076C33.979 66.2515 33.7894 66.3912 33.5557 66.4952C33.3237 66.5972 33.0544 66.6541 32.7476 66.6658ZM35.4548 66.4775L35.1272 62.2798L35.9188 62.2496L35.9709 62.9164L36.0147 62.9148C36.0738 62.6859 36.195 62.5031 36.3785 62.3664C36.5637 62.2277 36.7795 62.1537 37.026 62.1443C37.0771 62.1424 37.1375 62.1419 37.2072 62.1429C37.2787 62.1438 37.3348 62.1462 37.3754 62.1502L37.4364 62.9317C37.4028 62.9239 37.3436 62.9161 37.2587 62.9084C37.1737 62.8988 37.0892 62.8957 37.0052 62.8989C36.8117 62.9063 36.6423 62.9538 36.4971 63.0416C36.3536 63.1275 36.2437 63.2441 36.1673 63.3914C36.0907 63.5368 36.0595 63.7006 36.0737 63.8828L36.2738 66.4462L35.4548 66.4775ZM38.4151 66.3645L38.0876 62.1668L38.8737 62.1368L38.927 62.82L38.9791 62.818C39.0486 62.5833 39.1779 62.3975 39.3669 62.2605C39.5557 62.1217 39.7889 62.047 40.0664 62.0364C40.3477 62.0257 40.5883 62.0823 40.7885 62.2062C40.9905 62.3301 41.1461 62.505 41.2553 62.7311L41.2991 62.7294C41.3821 62.5015 41.5279 62.3169 41.7367 62.1755C41.9453 62.0323 42.2012 61.9549 42.5043 61.9434C42.8859 61.9288 43.2066 62.0362 43.4663 62.2657C43.7278 62.4951 43.8773 62.8503 43.9148 63.3313L44.1345 66.1461L43.3155 66.1774L43.1018 63.4391C43.0796 63.1548 42.9859 62.9519 42.8208 62.8303C42.6556 62.7087 42.4653 62.652 42.2498 62.6603C41.9832 62.6704 41.7823 62.7603 41.6472 62.93C41.5119 63.0977 41.4543 63.3092 41.4742 63.5642L41.6829 66.2397L40.8667 66.2709L40.6489 63.4806C40.6312 63.2529 40.5457 63.0725 40.3924 62.9395C40.2392 62.8065 40.0484 62.7443 39.8202 62.753C39.6649 62.7589 39.5248 62.8054 39.3997 62.8924C39.2763 62.9775 39.18 63.0936 39.1109 63.2406C39.0436 63.3875 39.0174 63.5557 39.0322 63.7452L39.2341 66.3332L38.4151 66.3645ZM47.3393 66.0237L46.9025 60.4269L47.7489 60.3946L48.129 65.2645L50.6709 65.1674L50.7276 65.8944L47.3393 66.0237ZM51.6275 65.86L51.2999 61.6624L52.1189 61.6311L52.4465 65.8287L51.6275 65.86ZM51.6629 60.9989C51.5205 61.0043 51.3945 60.9616 51.2848 60.8708C51.1768 60.7781 51.1177 60.6652 51.1073 60.5322C51.0968 60.3974 51.138 60.2807 51.2311 60.1821C51.3258 60.0816 51.4444 60.0287 51.5868 60.0233C51.7292 60.0178 51.8545 60.0615 51.9624 60.1542C52.0721 60.245 52.1322 60.3578 52.1427 60.4927C52.1531 60.6257 52.1109 60.7424 52.0162 60.8429C51.9231 60.9414 51.8054 60.9934 51.6629 60.9989ZM55.223 61.5126L55.2742 62.1685L52.8966 62.2592L52.8455 61.6033L55.223 61.5126ZM53.825 65.7761L53.4594 61.092C53.4389 60.8297 53.4795 60.6097 53.581 60.4323C53.6824 60.253 53.8247 60.1169 54.0079 60.024C54.191 59.9293 54.394 59.8777 54.6168 59.8692C54.7811 59.8629 54.9228 59.8712 55.0418 59.8941C55.1607 59.9151 55.2492 59.9355 55.3076 59.9552L55.1674 60.6239C55.1282 60.6144 55.0779 60.6035 55.0165 60.5913C54.955 60.5772 54.8813 60.5718 54.7955 60.575C54.5964 60.5826 54.4578 60.6373 54.3797 60.7389C54.3034 60.8405 54.2724 60.9842 54.2869 61.1701L54.644 65.7448L53.825 65.7761ZM58.0499 65.6998C57.6353 65.7156 57.2714 65.6409 56.9582 65.4756C56.6466 65.3084 56.3969 65.0667 56.2093 64.7504C56.0232 64.4322 55.9133 64.0554 55.8793 63.62C55.8457 63.19 55.8965 62.808 56.0316 62.4739C56.1685 62.1398 56.375 61.8752 56.651 61.6801C56.9288 61.4849 57.2631 61.3799 57.6539 61.3649C57.8913 61.3559 58.1244 61.3863 58.3533 61.4561C58.5822 61.5259 58.7918 61.6413 58.982 61.8021C59.1722 61.963 59.3289 62.1754 59.4521 62.4393C59.5751 62.7014 59.6514 63.0228 59.6812 63.4036L59.7038 63.6933L56.3593 63.821L56.3115 63.2088L58.8534 63.1117C58.8366 62.8968 58.778 62.708 58.6774 62.5456C58.5766 62.3813 58.4431 62.254 58.2767 62.1635C58.1121 62.0729 57.9239 62.0317 57.712 62.0397C57.482 62.0485 57.2855 62.1127 57.1227 62.2322C56.9615 62.3498 56.8414 62.5006 56.7623 62.6845C56.685 62.8665 56.6545 63.0623 56.6708 63.2718L56.7081 63.7501C56.73 64.0306 56.798 64.2674 56.9119 64.4604C57.0277 64.6534 57.1791 64.7983 57.3662 64.8954C57.5531 64.9905 57.7662 65.0336 58.0054 65.0244C58.1606 65.0185 58.3004 64.9912 58.4249 64.9426C58.5491 64.8922 58.6544 64.8206 58.7405 64.7278C58.8267 64.6349 58.8893 64.522 58.9284 64.3889L59.7144 64.4987C59.6701 64.7288 59.5743 64.9326 59.427 65.11C59.2813 65.2855 59.0917 65.4252 58.858 65.5291C58.626 65.6312 58.3567 65.6881 58.0499 65.6998Z" fill="#D5F2E4"/>
<rect x="0.186756" y="0.166251" width="51.2989" height="19.976" rx="9.98802" transform="matrix(0.999272 -0.0381531 0.0778022 0.996969 16.6093 54.0428)" stroke="white" stroke-width="0.346785"/>
<rect x="0.154771" y="0.181531" width="31.3045" height="17.9788" rx="8.98939" transform="matrix(0.998634 0.0522493 -0.106333 0.994331 271.268 205.725)" fill="#132043" fill-opacity="0.8"/>
<path d="M279.256 217.313L278.53 217.275L280.645 212.845L281.435 212.886L282.584 217.487L281.858 217.449L280.971 213.687L280.936 213.685L279.256 217.313ZM279.567 215.551L281.923 215.674L281.862 216.248L279.506 216.124L279.567 215.551ZM285.491 216.227L285.703 214.245L286.367 214.28L286.005 217.666L285.354 217.632L285.417 217.046L285.381 217.044C285.284 217.22 285.142 217.365 284.957 217.476C284.773 217.586 284.553 217.635 284.297 217.621C284.079 217.61 283.891 217.552 283.733 217.448C283.576 217.342 283.46 217.192 283.384 216.997C283.31 216.802 283.288 216.565 283.318 216.286L283.548 214.132L284.21 214.167L283.989 216.241C283.964 216.472 284.008 216.659 284.122 216.803C284.236 216.946 284.396 217.023 284.601 217.034C284.725 217.04 284.851 217.016 284.98 216.961C285.111 216.905 285.224 216.817 285.318 216.697C285.414 216.576 285.472 216.42 285.491 216.227ZM288.845 214.409L288.788 214.938L286.93 214.841L286.987 214.312L288.845 214.409ZM287.572 213.527L288.234 213.561L287.891 216.765C287.878 216.893 287.886 216.99 287.918 217.057C287.95 217.122 287.994 217.168 288.052 217.195C288.112 217.22 288.178 217.234 288.25 217.238C288.303 217.241 288.35 217.24 288.391 217.234C288.432 217.229 288.463 217.225 288.486 217.222L288.547 217.773C288.507 217.785 288.451 217.797 288.379 217.808C288.306 217.821 288.217 217.825 288.11 217.821C287.936 217.814 287.776 217.775 287.633 217.703C287.489 217.63 287.378 217.524 287.3 217.384C287.221 217.243 287.193 217.071 287.214 216.867L287.572 213.527ZM290.604 217.976C290.285 217.959 290.014 217.872 289.792 217.714C289.57 217.556 289.407 217.342 289.304 217.074C289.201 216.805 289.168 216.496 289.205 216.146C289.242 215.795 289.341 215.491 289.501 215.235C289.66 214.979 289.866 214.784 290.12 214.651C290.373 214.518 290.659 214.46 290.978 214.476C291.297 214.493 291.567 214.58 291.789 214.738C292.011 214.896 292.174 215.11 292.277 215.38C292.381 215.65 292.413 215.961 292.376 216.312C292.339 216.662 292.24 216.964 292.081 217.219C291.921 217.474 291.715 217.668 291.462 217.801C291.209 217.934 290.923 217.992 290.604 217.976ZM290.665 217.422C290.872 217.433 291.049 217.388 291.196 217.286C291.344 217.184 291.46 217.045 291.544 216.867C291.63 216.69 291.684 216.493 291.707 216.275C291.731 216.059 291.719 215.859 291.671 215.675C291.626 215.489 291.541 215.337 291.417 215.22C291.293 215.103 291.128 215.039 290.921 215.028C290.713 215.017 290.534 215.063 290.385 215.166C290.238 215.269 290.121 215.41 290.035 215.589C289.951 215.766 289.897 215.963 289.874 216.179C289.851 216.397 289.862 216.598 289.907 216.782C289.955 216.966 290.04 217.116 290.164 217.232C290.29 217.348 290.457 217.411 290.665 217.422Z" fill="white"/>
<rect x="0.154771" y="0.181531" width="31.3045" height="17.9788" rx="8.98939" transform="matrix(0.998634 0.0522493 -0.106333 0.994331 271.268 205.725)" stroke="white" stroke-width="0.346903"/>
<rect x="0.177771" y="0.199634" width="64.1304" height="19.8723" rx="9.93616" transform="matrix(0.999276 0.0380496 -0.0775921 0.996985 289.77 63.0505)" fill="#5CADF8"/>
<path d="M298.58 76.0204L298.972 70.9858L302.101 71.1049L302.05 71.7589L299.682 71.6687L299.563 73.2027L301.707 73.2843L301.656 73.9358L299.512 73.8541L299.342 76.0494L298.58 76.0204ZM302.587 76.173L302.88 72.397L303.617 72.4251L303.323 76.201L302.587 76.173ZM303.298 71.8285C303.17 71.8237 303.063 71.7769 302.978 71.6881C302.894 71.5978 302.857 71.4929 302.866 71.3732C302.876 71.252 302.929 71.1504 303.026 71.0686C303.125 70.9853 303.238 70.946 303.366 70.9509C303.494 70.9558 303.6 71.0034 303.684 71.0937C303.769 71.1824 303.807 71.2874 303.798 71.4087C303.788 71.5283 303.734 71.6298 303.635 71.7132C303.539 71.795 303.426 71.8334 303.298 71.8285ZM305.226 74.0248L305.051 76.2668L304.314 76.2388L304.608 72.4628L305.315 72.4897L305.268 73.1043L305.314 73.1061C305.417 72.9095 305.566 72.754 305.761 72.6398C305.958 72.5257 306.198 72.474 306.482 72.4848C306.74 72.4947 306.962 72.5573 307.147 72.6729C307.333 72.7868 307.471 72.9515 307.561 73.167C307.651 73.3825 307.684 73.6459 307.66 73.9573L307.473 76.3591L306.736 76.331L306.917 74.0177C306.938 73.744 306.883 73.5274 306.752 73.3679C306.621 73.2068 306.431 73.1215 306.181 73.112C306.011 73.1055 305.856 73.1366 305.717 73.2052C305.58 73.274 305.467 73.3782 305.379 73.5178C305.292 73.6559 305.241 73.8249 305.226 74.0248ZM309.556 76.5222C309.316 76.5131 309.103 76.4606 308.916 76.3647C308.729 76.2672 308.586 76.131 308.486 75.9563C308.387 75.7816 308.348 75.5705 308.367 75.323C308.383 75.11 308.438 74.9362 308.531 74.8016C308.624 74.6671 308.743 74.5623 308.889 74.4873C309.035 74.4123 309.196 74.3576 309.371 74.3232C309.547 74.2888 309.725 74.2644 309.906 74.2499C310.135 74.2323 310.32 74.218 310.463 74.207C310.606 74.1944 310.71 74.1696 310.778 74.1327C310.845 74.0958 310.882 74.0331 310.889 73.9446L310.89 73.9274C310.907 73.7127 310.859 73.544 310.746 73.4214C310.636 73.2988 310.461 73.233 310.223 73.224C309.975 73.2145 309.775 73.262 309.624 73.3663C309.474 73.4691 309.367 73.5859 309.302 73.7165L308.622 73.5328C308.722 73.3065 308.857 73.1259 309.025 72.991C309.196 72.8544 309.387 72.7582 309.599 72.7021C309.811 72.6445 310.031 72.62 310.26 72.6287C310.411 72.6344 310.569 72.6585 310.736 72.701C310.904 72.742 311.058 72.8119 311.199 72.911C311.341 73.0101 311.453 73.1483 311.535 73.3257C311.617 73.5014 311.647 73.7269 311.625 74.0022L311.43 76.5097L310.711 76.4823L310.751 75.9661L310.721 75.965C310.666 76.0582 310.588 76.1489 310.485 76.237C310.383 76.3252 310.255 76.3967 310.1 76.4517C309.946 76.5066 309.765 76.5301 309.556 76.5222ZM309.762 75.9383C309.966 75.9461 310.143 75.9125 310.294 75.8377C310.446 75.763 310.565 75.6623 310.651 75.5357C310.738 75.4076 310.788 75.2689 310.8 75.1198L310.837 74.633C310.809 74.6582 310.756 74.6809 310.679 74.701C310.603 74.7194 310.517 74.7351 310.421 74.7478C310.324 74.759 310.23 74.7693 310.139 74.779C310.048 74.7871 309.972 74.794 309.91 74.7999C309.766 74.8125 309.633 74.8378 309.511 74.8759C309.391 74.9141 309.293 74.972 309.216 75.0496C309.141 75.1256 309.098 75.2292 309.088 75.3603C309.074 75.5422 309.131 75.6825 309.258 75.781C309.386 75.8779 309.554 75.9304 309.762 75.9383ZM313.54 71.5405L313.148 76.5751L312.412 76.5471L312.803 71.5125L313.54 71.5405ZM316.035 76.6851L316.427 71.6504L319.59 71.7709L319.54 72.4248L317.137 72.3333L317.018 73.8673L319.255 73.9525L319.204 74.604L316.967 74.5188L316.847 76.0601L319.279 76.1527L319.228 76.8066L316.035 76.6851ZM321.032 73.0882L321.753 74.59L322.71 73.1521L323.516 73.1827L322.188 75.0258L323.232 76.9591L322.426 76.9284L321.683 75.4849L320.723 76.8636L319.915 76.8328L321.24 74.9897L320.224 73.0574L321.032 73.0882ZM323.868 78.4035L324.272 73.2115L324.991 73.2389L324.944 73.8511L325.005 73.8534C325.054 73.7764 325.123 73.6877 325.211 73.5876C325.3 73.4874 325.419 73.4015 325.568 73.3299C325.717 73.2567 325.909 73.2245 326.143 73.2335C326.449 73.2451 326.716 73.3325 326.944 73.4957C327.171 73.6589 327.342 73.8881 327.456 74.1834C327.571 74.4787 327.613 74.8304 327.581 75.2385C327.55 75.6466 327.454 75.9939 327.295 76.2804C327.136 76.5653 326.932 76.7819 326.681 76.9302C326.431 77.0768 326.153 77.1443 325.847 77.1327C325.617 77.1239 325.432 77.0782 325.292 76.9956C325.154 76.9131 325.047 76.8186 324.973 76.7123C324.899 76.6059 324.843 76.5117 324.805 76.4297L324.761 76.428L324.605 78.4316L323.868 78.4035ZM324.847 75.127C324.826 75.3925 324.847 75.6267 324.908 75.8296C324.97 76.0325 325.07 76.1932 325.207 76.3119C325.345 76.4289 325.519 76.4914 325.731 76.4995C325.951 76.5079 326.14 76.4567 326.297 76.346C326.454 76.2336 326.578 76.0781 326.669 75.8794C326.762 75.6807 326.818 75.4552 326.838 75.2028C326.857 74.9537 326.837 74.7286 326.777 74.5274C326.718 74.3263 326.619 74.1655 326.478 74.0451C326.339 73.9247 326.159 73.8603 325.937 73.8519C325.724 73.8438 325.539 73.8918 325.382 73.996C325.228 74.1002 325.105 74.2492 325.014 74.443C324.923 74.6368 324.867 74.8648 324.847 75.127ZM329.886 77.2889C329.513 77.2747 329.198 77.183 328.941 77.0137C328.686 76.8429 328.496 76.6097 328.373 76.3141C328.251 76.0168 328.205 75.6724 328.235 75.2807C328.266 74.8939 328.364 74.5558 328.532 74.2663C328.701 73.9769 328.923 73.7543 329.197 73.5988C329.472 73.4432 329.786 73.3722 330.138 73.3856C330.351 73.3937 330.555 73.4368 330.75 73.5149C330.945 73.593 331.116 73.7105 331.264 73.8673C331.412 74.0242 331.522 74.2248 331.595 74.4692C331.669 74.712 331.692 75.0047 331.665 75.3472L331.645 75.6078L328.637 75.4932L328.679 74.9426L330.966 75.0296C330.981 74.8362 330.955 74.6635 330.888 74.5113C330.821 74.3575 330.719 74.2345 330.583 74.1422C330.448 74.05 330.286 74.0002 330.095 73.993C329.888 73.9851 329.704 74.029 329.541 74.1247C329.381 74.2189 329.252 74.3455 329.156 74.5046C329.061 74.662 329.007 74.835 328.992 75.0235L328.958 75.4537C328.939 75.7061 328.966 75.9225 329.041 76.1028C329.118 76.2833 329.233 76.4233 329.387 76.5228C329.541 76.6207 329.725 76.6738 329.94 76.682C330.08 76.6873 330.209 76.6725 330.327 76.6375C330.445 76.6009 330.549 76.5441 330.639 76.4669C330.729 76.3898 330.801 76.2931 330.854 76.1768L331.542 76.3287C331.47 76.5315 331.356 76.7071 331.2 76.8557C331.045 77.0026 330.856 77.1146 330.632 77.1916C330.41 77.267 330.162 77.2994 329.886 77.2889ZM333.244 75.0917L333.07 77.3337L332.333 77.3056L332.627 73.5297L333.334 73.5566L333.286 74.1712L333.333 74.1729C333.435 73.9763 333.584 73.8209 333.779 73.7067C333.976 73.5925 334.216 73.5409 334.501 73.5517C334.759 73.5615 334.98 73.6242 335.166 73.7397C335.351 73.8537 335.489 74.0184 335.579 74.2338C335.67 74.4493 335.703 74.7127 335.679 75.0241L335.492 77.4259L334.755 77.3979L334.935 75.0846C334.956 74.8109 334.901 74.5943 334.77 74.4348C334.64 74.2737 334.449 74.1883 334.2 74.1788C334.029 74.1723 333.874 74.2034 333.735 74.2721C333.598 74.3408 333.485 74.445 333.397 74.5847C333.311 74.7228 333.26 74.8918 333.244 75.0917ZM339.538 74.7174L338.861 74.81C338.84 74.7237 338.802 74.6409 338.747 74.5615C338.694 74.4823 338.618 74.4161 338.52 74.3631C338.422 74.31 338.297 74.2806 338.144 74.2748C337.935 74.2668 337.757 74.3069 337.611 74.395C337.464 74.4815 337.385 74.5976 337.373 74.7435C337.364 74.8697 337.403 74.9731 337.49 75.0537C337.578 75.1343 337.724 75.2031 337.929 75.2602L338.519 75.4208C338.861 75.5143 339.111 75.648 339.269 75.8216C339.427 75.9953 339.495 76.2157 339.475 76.4828C339.457 76.709 339.376 76.9081 339.23 77.0801C339.087 77.2505 338.895 77.3813 338.654 77.4723C338.414 77.5635 338.142 77.6033 337.836 77.5916C337.412 77.5755 337.074 77.4722 336.82 77.2817C336.566 77.0896 336.422 76.8252 336.387 76.4886L337.108 76.4075C337.138 76.5944 337.218 76.738 337.349 76.8383C337.479 76.937 337.656 76.9905 337.877 76.999C338.119 77.0082 338.316 76.9655 338.468 76.8711C338.621 76.775 338.703 76.654 338.714 76.5081C338.723 76.3901 338.686 76.2893 338.604 76.2056C338.523 76.122 338.394 76.0562 338.217 76.0084L337.587 75.8439C337.24 75.7501 336.989 75.6123 336.833 75.4305C336.679 75.2488 336.613 75.0235 336.634 74.7548C336.651 74.5319 336.729 74.3392 336.866 74.1768C337.004 74.0144 337.187 73.8907 337.414 73.8056C337.642 73.719 337.898 73.681 338.182 73.6919C338.591 73.7074 338.906 73.8082 339.127 73.9941C339.348 74.1784 339.485 74.4195 339.538 74.7174ZM341.825 77.7435C341.452 77.7293 341.137 77.6376 340.88 77.4684C340.625 77.2976 340.435 77.0643 340.312 76.7687C340.19 76.4715 340.144 76.127 340.175 75.7353C340.205 75.3485 340.304 75.0104 340.471 74.7209C340.64 74.4315 340.862 74.209 341.136 74.0534C341.412 73.8979 341.725 73.8268 342.077 73.8402C342.29 73.8483 342.495 73.8914 342.689 73.9695C342.884 74.0476 343.056 74.1651 343.203 74.3219C343.351 74.4788 343.461 74.6794 343.534 74.9238C343.608 75.1666 343.631 75.4593 343.605 75.8018L343.584 76.0624L340.576 75.9478L340.619 75.3972L342.905 75.4842C342.92 75.2908 342.894 75.1181 342.827 74.9659C342.76 74.8122 342.658 74.6891 342.522 74.5968C342.387 74.5046 342.225 74.4548 342.034 74.4476C341.827 74.4397 341.643 74.4836 341.48 74.5793C341.32 74.6735 341.191 74.8001 341.095 74.9592C341 75.1166 340.946 75.2896 340.931 75.4781L340.898 75.9083C340.878 76.1607 340.906 76.3771 340.981 76.5574C341.057 76.7379 341.172 76.8779 341.326 76.9774C341.48 77.0753 341.664 77.1284 341.879 77.1366C342.019 77.1419 342.148 77.1271 342.266 77.0921C342.384 77.0555 342.488 76.9987 342.578 76.9216C342.668 76.8444 342.74 76.7477 342.794 76.6314L343.481 76.7833C343.409 76.9861 343.295 77.1617 343.139 77.3103C342.984 77.4572 342.795 77.5692 342.571 77.6462C342.35 77.7216 342.101 77.754 341.825 77.7435Z" fill="white"/>
<rect x="0.177771" y="0.199634" width="64.1304" height="19.8723" rx="9.93616" transform="matrix(0.999276 0.0380496 -0.0775921 0.996985 289.77 63.0505)" stroke="#F2F4F7" stroke-width="0.385753"/>
<rect x="0.123245" y="0.159299" width="71.0038" height="15.8529" rx="7.92647" transform="matrix(0.996491 0.0837048 -0.169213 0.98558 307.57 164.943)" fill="#5CADF8" fill-opacity="0.3"/>
<path d="M314.136 171.179L314.848 171.239L315.572 174.331L315.618 174.335L317.368 171.451L318.08 171.511L317.42 175.355L316.862 175.308L317.34 172.526L317.304 172.523L315.681 175.203L315.217 175.164L314.548 172.29L314.512 172.287L314.034 175.07L313.476 175.024L314.136 171.179ZM319.473 175.586C319.186 175.562 318.949 175.481 318.763 175.342C318.577 175.202 318.448 175.017 318.373 174.786C318.3 174.553 318.289 174.288 318.34 173.989C318.391 173.693 318.491 173.438 318.641 173.222C318.793 173.006 318.98 172.844 319.203 172.734C319.427 172.625 319.674 172.581 319.945 172.604C320.109 172.618 320.264 172.658 320.409 172.725C320.554 172.792 320.679 172.888 320.781 173.013C320.884 173.139 320.956 173.296 320.995 173.486C321.034 173.675 321.032 173.9 320.987 174.162L320.953 174.361L318.635 174.166L318.707 173.745L320.469 173.893C320.494 173.746 320.486 173.612 320.445 173.493C320.404 173.373 320.334 173.275 320.235 173.2C320.138 173.124 320.016 173.08 319.869 173.068C319.71 173.055 319.564 173.082 319.432 173.149C319.301 173.216 319.193 173.308 319.107 173.427C319.022 173.544 318.968 173.675 318.943 173.819L318.887 174.147C318.854 174.34 318.86 174.507 318.905 174.647C318.951 174.788 319.03 174.9 319.142 174.982C319.254 175.062 319.393 175.109 319.559 175.123C319.666 175.132 319.767 175.125 319.861 175.103C319.954 175.079 320.039 175.039 320.114 174.983C320.189 174.927 320.251 174.856 320.301 174.769L320.822 174.909C320.752 175.062 320.651 175.193 320.52 175.301C320.39 175.408 320.235 175.487 320.057 175.538C319.881 175.588 319.686 175.604 319.473 175.586ZM322.445 175.834C322.21 175.814 322.01 175.737 321.846 175.603C321.683 175.467 321.568 175.284 321.501 175.054C321.436 174.823 321.43 174.551 321.483 174.239C321.537 173.928 321.635 173.666 321.778 173.453C321.922 173.241 322.097 173.083 322.302 172.981C322.507 172.879 322.726 172.838 322.96 172.857C323.141 172.873 323.281 172.915 323.381 172.984C323.482 173.052 323.557 173.128 323.604 173.212C323.652 173.296 323.688 173.37 323.712 173.433L323.746 173.436L323.992 172.007L324.559 172.055L323.899 175.899L323.345 175.853L323.422 175.404L323.375 175.4C323.33 175.458 323.269 175.524 323.19 175.598C323.114 175.671 323.015 175.733 322.893 175.782C322.772 175.832 322.622 175.849 322.445 175.834ZM322.653 175.366C322.816 175.38 322.961 175.349 323.088 175.273C323.217 175.196 323.324 175.084 323.408 174.936C323.494 174.789 323.554 174.613 323.589 174.411C323.623 174.21 323.624 174.033 323.592 173.878C323.559 173.723 323.494 173.598 323.396 173.505C323.297 173.412 323.166 173.358 323 173.344C322.829 173.33 322.679 173.362 322.55 173.44C322.421 173.518 322.315 173.63 322.231 173.777C322.148 173.923 322.09 174.092 322.057 174.282C322.024 174.475 322.023 174.65 322.055 174.809C322.087 174.968 322.152 175.097 322.25 175.197C322.35 175.295 322.484 175.352 322.653 175.366ZM324.709 175.967L325.204 173.084L325.772 173.132L325.277 176.015L324.709 175.967ZM325.567 172.663C325.468 172.655 325.389 172.615 325.329 172.544C325.271 172.472 325.25 172.39 325.266 172.299C325.282 172.206 325.33 172.13 325.411 172.071C325.493 172.011 325.583 171.985 325.682 171.993C325.781 172.001 325.859 172.042 325.917 172.114C325.977 172.185 325.999 172.267 325.983 172.359C325.967 172.451 325.918 172.526 325.836 172.587C325.755 172.646 325.666 172.671 325.567 172.663ZM327.258 176.24C326.976 176.217 326.744 176.133 326.562 175.989C326.381 175.845 326.256 175.656 326.185 175.423C326.115 175.19 326.105 174.929 326.154 174.639C326.205 174.347 326.305 174.093 326.454 173.878C326.604 173.662 326.791 173.5 327.016 173.39C327.24 173.281 327.489 173.238 327.764 173.261C327.985 173.279 328.175 173.337 328.335 173.433C328.494 173.527 328.615 173.652 328.696 173.806C328.779 173.96 328.814 174.135 328.801 174.331L328.248 174.284C328.241 174.146 328.192 174.024 328.099 173.917C328.009 173.811 327.873 173.75 327.692 173.735C327.534 173.721 327.388 173.751 327.255 173.824C327.123 173.895 327.012 174.004 326.92 174.15C326.828 174.294 326.765 174.469 326.73 174.674C326.694 174.885 326.695 175.069 326.733 175.227C326.771 175.385 326.842 175.511 326.945 175.605C327.05 175.699 327.183 175.752 327.343 175.766C327.451 175.775 327.551 175.763 327.645 175.732C327.741 175.699 327.825 175.649 327.897 175.58C327.97 175.511 328.028 175.426 328.07 175.324L328.622 175.37C328.57 175.555 328.48 175.716 328.352 175.854C328.225 175.992 328.068 176.096 327.881 176.165C327.696 176.235 327.488 176.26 327.258 176.24ZM329.91 176.469C329.725 176.453 329.564 176.405 329.426 176.325C329.289 176.244 329.187 176.134 329.122 175.997C329.059 175.86 329.043 175.696 329.075 175.508C329.103 175.345 329.158 175.214 329.239 175.114C329.321 175.014 329.42 174.938 329.538 174.886C329.656 174.833 329.785 174.797 329.923 174.777C330.061 174.757 330.201 174.745 330.341 174.74C330.519 174.734 330.664 174.73 330.775 174.727C330.886 174.722 330.969 174.707 331.023 174.681C331.078 174.655 331.111 174.608 331.122 174.541L331.125 174.528C331.153 174.364 331.128 174.233 331.05 174.135C330.973 174.037 330.843 173.98 330.659 173.965C330.468 173.949 330.31 173.978 330.186 174.053C330.063 174.126 329.972 174.212 329.913 174.31L329.4 174.145C329.493 173.975 329.61 173.841 329.75 173.744C329.891 173.645 330.046 173.578 330.214 173.543C330.382 173.506 330.554 173.495 330.729 173.51C330.846 173.52 330.967 173.544 331.092 173.582C331.22 173.62 331.334 173.679 331.436 173.76C331.538 173.841 331.615 173.951 331.666 174.089C331.717 174.227 331.724 174.401 331.688 174.611L331.359 176.526L330.805 176.479L330.873 176.085L330.85 176.083C330.801 176.153 330.733 176.219 330.648 176.283C330.563 176.347 330.458 176.397 330.335 176.434C330.212 176.471 330.07 176.482 329.91 176.469ZM330.11 176.029C330.267 176.042 330.407 176.022 330.528 175.97C330.652 175.919 330.751 175.846 330.826 175.752C330.903 175.657 330.951 175.552 330.97 175.438L331.034 175.067C331.01 175.085 330.968 175.1 330.907 175.113C330.847 175.124 330.779 175.133 330.704 175.14C330.628 175.145 330.555 175.149 330.484 175.154C330.413 175.156 330.353 175.159 330.305 175.161C330.193 175.166 330.088 175.181 329.992 175.206C329.896 175.231 329.816 175.271 329.751 175.328C329.688 175.384 329.647 175.462 329.63 175.562C329.606 175.701 329.64 175.81 329.732 175.89C329.823 175.969 329.95 176.015 330.11 176.029ZM332.115 176.589L332.61 173.706L333.158 173.752L333.08 174.21L333.11 174.213C333.19 174.062 333.305 173.948 333.454 173.87C333.605 173.792 333.766 173.759 333.936 173.774C333.972 173.777 334.013 173.781 334.061 173.788C334.11 173.795 334.148 173.801 334.175 173.807L334.083 174.344C334.061 174.336 334.022 174.325 333.965 174.313C333.908 174.299 333.851 174.29 333.793 174.285C333.659 174.274 333.534 174.292 333.42 174.34C333.306 174.386 333.211 174.456 333.133 174.55C333.056 174.642 333.006 174.751 332.985 174.876L332.682 176.637L332.115 176.589ZM335.308 176.916C335.021 176.892 334.784 176.811 334.597 176.672C334.412 176.532 334.282 176.347 334.208 176.116C334.135 175.884 334.124 175.618 334.175 175.319C334.226 175.024 334.326 174.768 334.476 174.552C334.627 174.336 334.814 174.174 335.037 174.064C335.261 173.955 335.509 173.911 335.78 173.934C335.944 173.948 336.099 173.988 336.244 174.055C336.389 174.122 336.513 174.218 336.616 174.343C336.719 174.469 336.79 174.627 336.83 174.816C336.869 175.005 336.866 175.23 336.821 175.492L336.787 175.691L334.47 175.496L334.542 175.076L336.303 175.224C336.329 175.076 336.321 174.943 336.28 174.824C336.239 174.703 336.169 174.605 336.07 174.53C335.973 174.454 335.851 174.41 335.704 174.398C335.544 174.385 335.399 174.412 335.266 174.479C335.136 174.546 335.027 174.638 334.941 174.757C334.857 174.874 334.803 175.005 334.778 175.149L334.722 175.477C334.688 175.67 334.694 175.837 334.74 175.978C334.786 176.119 334.865 176.23 334.977 176.312C335.089 176.392 335.228 176.439 335.393 176.453C335.501 176.462 335.602 176.456 335.695 176.433C335.789 176.409 335.874 176.369 335.949 176.313C336.024 176.257 336.086 176.186 336.136 176.099L336.656 176.24C336.587 176.392 336.486 176.523 336.354 176.631C336.224 176.738 336.07 176.817 335.892 176.868C335.715 176.918 335.521 176.934 335.308 176.916ZM341.265 174.483C341.275 174.303 341.215 174.158 341.085 174.049C340.955 173.937 340.779 173.872 340.556 173.854C340.397 173.84 340.255 173.854 340.13 173.894C340.005 173.933 339.903 173.993 339.824 174.074C339.746 174.154 339.697 174.248 339.679 174.357C339.663 174.448 339.671 174.529 339.703 174.599C339.736 174.669 339.784 174.729 339.847 174.78C339.911 174.83 339.982 174.874 340.059 174.911C340.137 174.946 340.212 174.977 340.284 175.002L340.647 175.131C340.766 175.172 340.886 175.223 341.008 175.285C341.129 175.348 341.238 175.425 341.335 175.519C341.432 175.612 341.504 175.723 341.551 175.853C341.6 175.983 341.609 176.134 341.579 176.306C341.542 176.524 341.452 176.713 341.309 176.872C341.167 177.032 340.981 177.151 340.749 177.231C340.518 177.31 340.251 177.337 339.947 177.312C339.656 177.287 339.412 177.221 339.216 177.111C339.019 177.002 338.875 176.859 338.783 176.681C338.692 176.502 338.66 176.296 338.687 176.064L339.275 176.113C339.263 176.253 339.288 176.372 339.352 176.472C339.418 176.57 339.509 176.647 339.627 176.702C339.746 176.757 339.88 176.79 340.031 176.803C340.197 176.817 340.348 176.804 340.486 176.763C340.626 176.721 340.741 176.657 340.831 176.571C340.922 176.484 340.978 176.377 340.999 176.252C341.019 176.138 341.002 176.042 340.949 175.964C340.897 175.886 340.819 175.819 340.716 175.762C340.614 175.705 340.497 175.653 340.364 175.605L339.926 175.442C339.629 175.332 339.403 175.188 339.249 175.01C339.096 174.832 339.042 174.609 339.088 174.342C339.126 174.12 339.22 173.932 339.37 173.777C339.52 173.622 339.707 173.507 339.93 173.434C340.153 173.358 340.395 173.332 340.656 173.354C340.919 173.376 341.143 173.441 341.329 173.549C341.516 173.658 341.653 173.797 341.742 173.967C341.831 174.135 341.861 174.323 341.83 174.53L341.265 174.483ZM344.104 176.383L344.394 174.696L344.963 174.744L344.468 177.627L343.91 177.58L343.996 177.081L343.965 177.078C343.872 177.226 343.742 177.346 343.577 177.436C343.413 177.525 343.221 177.56 343.002 177.542C342.815 177.526 342.656 177.471 342.526 177.378C342.397 177.283 342.305 177.152 342.251 176.984C342.198 176.815 342.191 176.612 342.232 176.375L342.547 174.541L343.115 174.588L342.811 176.355C342.778 176.551 342.806 176.712 342.896 176.838C342.986 176.964 343.119 177.034 343.295 177.048C343.401 177.057 343.511 177.04 343.625 176.996C343.741 176.953 343.842 176.881 343.93 176.78C344.019 176.68 344.077 176.547 344.104 176.383ZM345.045 178.772L345.726 174.808L346.28 174.854L346.199 175.322L346.247 175.326C346.29 175.268 346.349 175.203 346.425 175.129C346.501 175.056 346.598 174.994 346.719 174.944C346.839 174.894 346.99 174.876 347.171 174.891C347.406 174.911 347.606 174.987 347.77 175.12C347.935 175.254 348.051 175.435 348.118 175.666C348.186 175.896 348.193 176.167 348.14 176.479C348.086 176.79 347.988 177.053 347.845 177.267C347.702 177.48 347.528 177.638 347.324 177.743C347.12 177.846 346.9 177.888 346.665 177.869C346.488 177.854 346.348 177.812 346.246 177.744C346.144 177.676 346.069 177.599 346.019 177.515C345.969 177.431 345.933 177.357 345.909 177.293L345.875 177.29L345.612 178.82L345.045 178.772ZM346.034 176.296C345.999 176.499 345.999 176.679 346.032 176.837C346.065 176.994 346.131 177.121 346.228 177.217C346.326 177.311 346.457 177.366 346.62 177.379C346.79 177.393 346.939 177.361 347.068 177.282C347.197 177.201 347.304 177.086 347.389 176.937C347.475 176.788 347.534 176.618 347.568 176.425C347.6 176.235 347.6 176.061 347.568 175.905C347.537 175.749 347.472 175.622 347.372 175.525C347.273 175.428 347.138 175.372 346.967 175.358C346.803 175.344 346.656 175.374 346.528 175.448C346.401 175.523 346.296 175.633 346.212 175.778C346.128 175.923 346.068 176.096 346.034 176.296ZM348.343 179.049L349.024 175.085L349.578 175.131L349.498 175.599L349.545 175.603C349.589 175.545 349.648 175.48 349.723 175.406C349.799 175.333 349.897 175.271 350.017 175.222C350.137 175.171 350.288 175.153 350.469 175.168C350.704 175.188 350.904 175.264 351.069 175.397C351.233 175.531 351.349 175.712 351.416 175.943C351.484 176.173 351.492 176.444 351.438 176.756C351.385 177.067 351.286 177.33 351.143 177.544C351 177.757 350.826 177.915 350.622 178.02C350.419 178.124 350.199 178.165 349.964 178.146C349.786 178.131 349.647 178.089 349.544 178.021C349.443 177.953 349.367 177.877 349.318 177.792C349.268 177.708 349.231 177.634 349.208 177.57L349.173 177.567L348.911 179.097L348.343 179.049ZM349.333 176.573C349.298 176.776 349.297 176.956 349.33 177.114C349.363 177.271 349.429 177.398 349.527 177.494C349.625 177.588 349.755 177.643 349.919 177.656C350.088 177.671 350.237 177.638 350.367 177.559C350.496 177.478 350.603 177.363 350.688 177.214C350.773 177.065 350.833 176.895 350.866 176.702C350.899 176.512 350.899 176.338 350.867 176.182C350.836 176.026 350.77 175.899 350.67 175.802C350.571 175.705 350.436 175.649 350.266 175.635C350.101 175.621 349.955 175.651 349.827 175.725C349.7 175.8 349.594 175.91 349.51 176.055C349.426 176.2 349.367 176.373 349.333 176.573ZM353.055 174.448L352.395 178.293L351.827 178.245L352.487 174.401L353.055 174.448ZM354.405 178.521C354.117 178.496 353.881 178.415 353.694 178.276C353.509 178.136 353.379 177.951 353.304 177.72C353.231 177.488 353.22 177.222 353.272 176.923C353.322 176.628 353.423 176.372 353.573 176.156C353.724 175.94 353.911 175.778 354.134 175.668C354.358 175.559 354.606 175.516 354.876 175.538C355.041 175.552 355.196 175.592 355.341 175.659C355.486 175.726 355.61 175.822 355.713 175.948C355.816 176.073 355.887 176.231 355.926 176.421C355.966 176.609 355.963 176.834 355.918 177.096L355.884 177.295L353.567 177.1L353.639 176.68L355.4 176.828C355.425 176.68 355.417 176.547 355.376 176.428C355.335 176.307 355.265 176.21 355.167 176.134C355.069 176.058 354.947 176.015 354.8 176.002C354.641 175.989 354.495 176.016 354.363 176.084C354.232 176.15 354.124 176.242 354.038 176.361C353.954 176.478 353.899 176.609 353.875 176.753L353.818 177.081C353.785 177.274 353.791 177.441 353.836 177.582C353.883 177.723 353.962 177.834 354.073 177.916C354.185 177.996 354.324 178.043 354.49 178.057C354.598 178.066 354.698 178.06 354.792 178.037C354.886 178.013 354.97 177.973 355.045 177.917C355.12 177.862 355.183 177.79 355.232 177.703L355.753 177.844C355.683 177.996 355.582 178.127 355.451 178.235C355.321 178.342 355.167 178.421 354.989 178.473C354.812 178.522 354.617 178.538 354.405 178.521ZM356.295 178.62L356.79 175.737L357.335 175.783L357.254 176.252L357.29 176.255C357.378 176.101 357.499 175.986 357.652 175.909C357.805 175.83 357.978 175.799 358.17 175.815C358.365 175.831 358.521 175.89 358.637 175.991C358.754 176.093 358.831 176.225 358.867 176.388L358.898 176.39C358.994 176.242 359.125 176.129 359.293 176.05C359.461 175.97 359.65 175.939 359.86 175.957C360.124 175.979 360.326 176.079 360.464 176.257C360.605 176.435 360.646 176.689 360.59 177.02L360.258 178.953L359.69 178.906L360.013 177.025C360.047 176.829 360.017 176.684 359.925 176.587C359.832 176.49 359.711 176.436 359.562 176.423C359.377 176.408 359.224 176.452 359.102 176.556C358.981 176.659 358.905 176.798 358.875 176.973L358.559 178.811L357.994 178.763L358.323 176.847C358.349 176.69 358.322 176.56 358.239 176.457C358.157 176.353 358.037 176.295 357.879 176.282C357.771 176.273 357.667 176.293 357.566 176.341C357.467 176.389 357.381 176.46 357.308 176.554C357.237 176.648 357.19 176.76 357.168 176.89L356.862 178.668L356.295 178.62ZM362.265 179.181C361.977 179.157 361.74 179.075 361.554 178.936C361.369 178.796 361.239 178.611 361.164 178.38C361.091 178.148 361.08 177.882 361.132 177.583C361.182 177.288 361.283 177.032 361.433 176.816C361.584 176.601 361.771 176.438 361.994 176.329C362.218 176.219 362.465 176.176 362.736 176.199C362.901 176.212 363.055 176.253 363.201 176.319C363.346 176.386 363.47 176.482 363.573 176.608C363.676 176.733 363.747 176.891 363.786 177.081C363.826 177.269 363.823 177.495 363.778 177.756L363.744 177.955L361.427 177.76L361.499 177.34L363.26 177.488C363.285 177.34 363.277 177.207 363.236 177.088C363.195 176.968 363.125 176.87 363.027 176.794C362.929 176.719 362.807 176.675 362.66 176.663C362.501 176.649 362.355 176.676 362.223 176.744C362.092 176.81 361.984 176.903 361.898 177.021C361.814 177.139 361.759 177.269 361.735 177.413L361.678 177.742C361.645 177.934 361.651 178.101 361.696 178.242C361.743 178.383 361.822 178.494 361.933 178.576C362.045 178.657 362.184 178.704 362.35 178.718C362.457 178.727 362.558 178.72 362.652 178.697C362.746 178.673 362.83 178.634 362.905 178.578C362.98 178.522 363.043 178.45 363.092 178.363L363.613 178.504C363.543 178.657 363.442 178.787 363.311 178.895C363.181 179.003 363.027 179.082 362.849 179.133C362.672 179.183 362.477 179.199 362.265 179.181ZM365.016 177.616L364.722 179.328L364.155 179.281L364.65 176.397L365.195 176.443L365.114 176.912L365.15 176.915C365.243 176.768 365.369 176.655 365.528 176.574C365.688 176.494 365.878 176.462 366.097 176.481C366.295 176.498 366.462 176.553 366.597 176.649C366.733 176.742 366.828 176.874 366.882 177.042C366.937 177.21 366.944 177.413 366.903 177.651L366.588 179.485L366.02 179.437L366.324 177.671C366.36 177.462 366.333 177.294 366.243 177.167C366.153 177.039 366.012 176.967 365.82 176.951C365.688 176.94 365.566 176.958 365.454 177.006C365.343 177.054 365.249 177.129 365.171 177.233C365.094 177.336 365.042 177.464 365.016 177.616ZM369.205 176.78L369.127 177.23L367.535 177.097L367.612 176.646L369.205 176.78ZM368.158 175.991L368.726 176.039L368.257 178.766C368.239 178.875 368.241 178.959 368.264 179.016C368.288 179.073 368.324 179.113 368.373 179.138C368.422 179.161 368.478 179.175 368.54 179.181C368.586 179.184 368.626 179.185 368.662 179.181C368.697 179.178 368.724 179.175 368.744 179.173L368.767 179.645C368.732 179.655 368.683 179.663 368.62 179.671C368.557 179.68 368.48 179.681 368.388 179.674C368.239 179.664 368.104 179.626 367.984 179.56C367.865 179.494 367.775 179.401 367.715 179.279C367.655 179.157 367.64 179.009 367.67 178.835L368.158 175.991Z" fill="white"/>
<rect x="0.123245" y="0.159299" width="71.0038" height="15.8529" rx="7.92647" transform="matrix(0.996491 0.0837048 -0.169213 0.98558 307.57 164.943)" stroke="#F2F4F7" stroke-width="0.297953"/>
<rect x="0.223201" y="0.203068" width="53.7405" height="21.6602" rx="10.8301" transform="matrix(0.999519 -0.0310273 0.0633205 0.997993 59.0244 203.564)" fill="#5CADF8"/>
<path d="M70.2571 211.749L71.2634 211.718L73.2837 215.929L73.3481 215.927L74.827 211.607L75.8333 211.576L76.1815 217.064L75.3925 217.088L75.1406 213.117L75.0896 213.119L73.7202 217.132L73.0655 217.152L71.1931 213.237L71.1421 213.239L71.3942 217.212L70.6053 217.237L70.2571 211.749ZM79.1043 217.056C78.6982 217.069 78.343 216.993 78.0386 216.829C77.7359 216.663 77.4949 216.424 77.3156 216.113C77.138 215.8 77.0357 215.43 77.0086 215.003C76.9818 214.581 77.037 214.207 77.174 213.881C77.3128 213.555 77.5187 213.297 77.7917 213.107C78.0665 212.918 78.3953 212.818 78.7782 212.806C79.0107 212.798 79.2386 212.83 79.4617 212.9C79.6848 212.97 79.8884 213.084 80.0723 213.243C80.2563 213.402 80.4067 213.612 80.5235 213.871C80.6402 214.129 80.7104 214.444 80.7341 214.817L80.7521 215.101L77.4757 215.203L77.4376 214.603L79.9278 214.526C79.9144 214.315 79.8597 214.13 79.7635 213.97C79.6672 213.808 79.5382 213.682 79.3766 213.592C79.2167 213.503 79.033 213.461 78.8255 213.467C78.6001 213.474 78.4068 213.536 78.2457 213.652C78.0862 213.766 77.9665 213.913 77.8865 214.092C77.8081 214.27 77.7755 214.462 77.7885 214.667L77.8183 215.136C77.8357 215.411 77.8989 215.644 78.0077 215.834C78.1183 216.024 78.2645 216.167 78.4463 216.263C78.628 216.358 78.836 216.401 79.0704 216.394C79.2224 216.389 79.3597 216.364 79.4822 216.317C79.6046 216.268 79.7086 216.199 79.7943 216.108C79.88 216.018 79.9429 215.908 79.9831 215.778L80.7511 215.891C80.7045 216.116 80.6078 216.315 80.461 216.488C80.3159 216.659 80.1282 216.794 79.898 216.894C79.6694 216.993 79.4048 217.047 79.1043 217.056ZM83.3057 216.923C82.973 216.933 82.6706 216.858 82.3987 216.696C82.1284 216.533 81.909 216.295 81.7404 215.984C81.5736 215.67 81.476 215.291 81.4478 214.846C81.4196 214.402 81.4697 214.019 81.5981 213.698C81.7283 213.377 81.9187 213.129 82.1692 212.953C82.4197 212.777 82.7105 212.684 83.0415 212.673C83.2973 212.665 83.5057 212.702 83.6668 212.783C83.8296 212.862 83.9574 212.956 84.0504 213.066C84.1452 213.176 84.2195 213.273 84.2733 213.357L84.3216 213.356L84.1922 211.317L84.9945 211.292L85.3427 216.779L84.5591 216.803L84.5185 216.163L84.4514 216.165C84.4087 216.254 84.3452 216.356 84.2611 216.472C84.1788 216.587 84.0616 216.689 83.9095 216.778C83.7574 216.867 83.5562 216.915 83.3057 216.923ZM83.4395 216.234C83.6702 216.227 83.8614 216.16 84.0129 216.034C84.1661 215.906 84.2769 215.731 84.3454 215.511C84.4156 215.29 84.4416 215.035 84.4232 214.746C84.4051 214.46 84.3481 214.211 84.2522 214C84.1563 213.788 84.0249 213.624 83.8581 213.51C83.6913 213.395 83.4907 213.341 83.2564 213.349C83.0149 213.356 82.8176 213.425 82.6645 213.555C82.5114 213.685 82.4006 213.859 82.332 214.078C82.2652 214.297 82.2404 214.542 82.2577 214.813C82.2751 215.088 82.332 215.334 82.4282 215.551C82.5244 215.769 82.6571 215.939 82.8263 216.063C82.9971 216.184 83.2015 216.242 83.4395 216.234ZM86.4878 216.744L86.2267 212.628L87.0291 212.603L87.2902 216.719L86.4878 216.744ZM86.5916 211.981C86.4521 211.985 86.3293 211.942 86.2232 211.852C86.1188 211.761 86.0625 211.65 86.0542 211.519C86.0458 211.387 86.0879 211.273 86.1804 211.177C86.2746 211.079 86.3914 211.028 86.5309 211.024C86.6705 211.02 86.7925 211.063 86.8969 211.155C87.0029 211.245 87.0602 211.356 87.0685 211.488C87.0768 211.618 87.0339 211.732 86.9397 211.83C86.8472 211.926 86.7312 211.976 86.5916 211.981ZM90.111 216.714C89.7121 216.727 89.3629 216.647 89.0634 216.476C88.7656 216.302 88.5297 216.058 88.3555 215.743C88.1814 215.428 88.0813 215.065 88.0551 214.652C88.0286 214.234 88.0839 213.863 88.221 213.538C88.358 213.212 88.5639 212.954 88.8387 212.765C89.1135 212.575 89.445 212.475 89.8332 212.463C90.1463 212.453 90.429 212.502 90.6815 212.611C90.9338 212.717 91.1417 212.872 91.3051 213.075C91.4703 213.277 91.576 213.516 91.6222 213.792L90.8413 213.816C90.7862 213.625 90.6772 213.462 90.5145 213.327C90.3536 213.193 90.1453 213.129 89.8895 213.137C89.6658 213.144 89.4737 213.209 89.313 213.332C89.154 213.454 89.0348 213.624 88.9555 213.843C88.8761 214.06 88.8457 214.315 88.8643 214.608C88.8833 214.908 88.9454 215.166 89.0504 215.381C89.1555 215.596 89.295 215.761 89.469 215.875C89.6447 215.99 89.8462 216.043 90.0734 216.036C90.2255 216.032 90.3615 216 90.4814 215.94C90.603 215.879 90.7025 215.795 90.7799 215.687C90.8591 215.579 90.9109 215.45 90.9355 215.301L91.7164 215.277C91.7047 215.544 91.633 215.784 91.5013 215.997C91.3697 216.211 91.186 216.381 90.9503 216.508C90.7164 216.636 90.4366 216.704 90.111 216.714ZM93.8623 216.606C93.6011 216.614 93.3619 216.573 93.1447 216.483C92.9274 216.392 92.7511 216.255 92.6159 216.073C92.4824 215.891 92.4072 215.665 92.3901 215.395C92.3753 215.163 92.4079 214.971 92.4879 214.818C92.5678 214.665 92.681 214.542 92.8275 214.45C92.974 214.358 93.1398 214.287 93.3248 214.236C93.5098 214.186 93.699 214.146 93.8926 214.116C94.1376 214.08 94.3365 214.051 94.4892 214.028C94.6418 214.004 94.7517 213.969 94.8187 213.924C94.8858 213.879 94.9162 213.808 94.9101 213.712L94.9089 213.693C94.8941 213.459 94.8164 213.28 94.6758 213.155C94.5371 213.031 94.338 212.972 94.0786 212.98C93.8085 212.989 93.5994 213.055 93.4513 213.18C93.305 213.302 93.2069 213.437 93.157 213.584L92.3921 213.435C92.4657 213.183 92.5835 212.977 92.7454 212.818C92.9091 212.657 93.1014 212.538 93.3224 212.462C93.5433 212.383 93.7781 212.34 94.0267 212.332C94.1913 212.327 94.367 212.341 94.5537 212.375C94.7422 212.407 94.9201 212.471 95.0876 212.568C95.2568 212.665 95.3994 212.806 95.5151 212.992C95.6308 213.177 95.6981 213.419 95.7172 213.719L95.8906 216.452L95.107 216.476L95.0713 215.913L95.0391 215.914C94.9938 216.02 94.9225 216.124 94.825 216.227C94.7276 216.33 94.5996 216.418 94.441 216.489C94.2824 216.56 94.0895 216.599 93.8623 216.606ZM93.9959 215.958C94.2178 215.951 94.4046 215.901 94.5565 215.809C94.7102 215.716 94.8237 215.598 94.897 215.454C94.972 215.309 95.0044 215.155 94.9941 214.992L94.9604 214.462C94.9336 214.491 94.8798 214.52 94.7991 214.547C94.7201 214.573 94.6293 214.596 94.5266 214.618C94.4239 214.637 94.3238 214.655 94.2263 214.672C94.1287 214.688 94.0471 214.701 93.9815 214.712C93.8271 214.737 93.6869 214.774 93.5611 214.825C93.437 214.875 93.3393 214.945 93.2679 215.035C93.1982 215.123 93.1679 215.239 93.177 215.382C93.1896 215.58 93.2724 215.728 93.4256 215.825C93.5786 215.92 93.7687 215.965 93.9959 215.958ZM96.9593 216.419L96.6981 212.303L97.4737 212.279L97.5151 212.933L97.5581 212.931C97.6191 212.708 97.7405 212.529 97.9221 212.397C98.1053 212.262 98.3177 212.191 98.5592 212.184C98.6093 212.182 98.6685 212.182 98.7367 212.183C98.8067 212.185 98.8615 212.188 98.9012 212.192L98.9498 212.958C98.917 212.95 98.8592 212.942 98.7762 212.934C98.6931 212.924 98.6104 212.92 98.5281 212.923C98.3385 212.929 98.172 212.974 98.0286 213.059C97.8869 213.142 97.7776 213.256 97.7007 213.4C97.6237 213.541 97.5908 213.702 97.6021 213.88L97.7616 216.394L96.9593 216.419ZM101.493 216.361C101.087 216.374 100.732 216.298 100.428 216.134C100.125 215.968 99.8841 215.729 99.7048 215.418C99.5272 215.105 99.4249 214.735 99.3978 214.308C99.371 213.886 99.4262 213.512 99.5632 213.186C99.702 212.86 99.9079 212.602 100.181 212.412C100.456 212.223 100.785 212.123 101.167 212.111C101.4 212.103 101.628 212.135 101.851 212.205C102.074 212.275 102.278 212.389 102.461 212.548C102.645 212.707 102.796 212.917 102.913 213.176C103.029 213.434 103.1 213.749 103.123 214.122L103.141 214.406L99.8649 214.508L99.8268 213.908L102.317 213.831C102.304 213.62 102.249 213.435 102.153 213.275C102.056 213.113 101.927 212.987 101.766 212.897C101.606 212.808 101.422 212.766 101.215 212.772C100.989 212.779 100.796 212.841 100.635 212.957C100.475 213.071 100.356 213.218 100.276 213.397C100.197 213.575 100.165 213.767 100.178 213.972L100.207 214.441C100.225 214.716 100.288 214.949 100.397 215.139C100.508 215.329 100.654 215.472 100.836 215.568C101.017 215.663 101.225 215.706 101.46 215.699C101.612 215.694 101.749 215.669 101.871 215.622C101.994 215.573 102.098 215.504 102.184 215.413C102.269 215.323 102.332 215.213 102.372 215.083L103.14 215.196C103.094 215.421 102.997 215.62 102.85 215.793C102.705 215.964 102.517 216.099 102.287 216.199C102.059 216.298 101.794 216.352 101.493 216.361Z" fill="#F2F7FA"/>
<rect x="0.223201" y="0.203068" width="53.7405" height="21.6602" rx="10.8301" transform="matrix(0.999519 -0.0310273 0.0633205 0.997993 59.0244 203.564)" stroke="white" stroke-width="0.42001"/>
<rect x="0.176592" y="0.198114" width="53" height="19.8085" rx="9.90427" transform="matrix(0.999294 0.0375672 -0.0770935 0.997024 4.96364 145.209)" fill="#5CADF8" fill-opacity="0.3"/>
<path d="M14.6939 158.176L13.6909 153.125L14.486 153.155L15.1627 157.063L15.2092 157.065L16.5238 153.232L17.3115 153.262L18.0272 157.173L18.0736 157.175L19.3468 153.338L20.1443 153.368L18.3658 158.314L17.605 158.286L16.8402 154.502L16.801 154.501L15.4572 158.205L14.6939 158.176ZM21.2919 156.192L21.1197 158.418L20.3883 158.39L20.7748 153.392L21.4965 153.419L21.3527 155.279L21.3991 155.281C21.5028 155.082 21.6497 154.927 21.8399 154.815C22.0302 154.703 22.2712 154.652 22.5632 154.663C22.8208 154.673 23.0418 154.734 23.2261 154.847C23.412 154.96 23.5498 155.124 23.6396 155.338C23.7311 155.55 23.7648 155.812 23.7406 156.125L23.5562 158.51L22.8248 158.482L23.0024 156.185C23.0237 155.91 22.9692 155.694 22.839 155.538C22.709 155.38 22.5175 155.296 22.2647 155.286C22.0919 155.28 21.9341 155.31 21.7915 155.378C21.6504 155.447 21.5353 155.55 21.4461 155.689C21.3586 155.826 21.3072 155.993 21.2919 156.192ZM26.1092 158.681C25.757 158.668 25.4558 158.576 25.2056 158.405C24.9555 158.234 24.7691 158.001 24.6464 157.706C24.5236 157.411 24.4772 157.07 24.5071 156.682C24.5372 156.294 24.6361 155.956 24.8037 155.67C24.9714 155.385 25.1928 155.166 25.4678 155.015C25.7428 154.864 26.0565 154.795 26.4087 154.808C26.761 154.821 27.0622 154.913 27.3123 155.084C27.5624 155.255 27.7488 155.489 27.8714 155.786C27.994 156.082 28.0403 156.425 28.0102 156.814C27.9803 157.201 27.8815 157.537 27.714 157.821C27.5465 158.105 27.3252 158.323 27.0502 158.474C26.7751 158.626 26.4615 158.695 26.1092 158.681ZM26.159 158.069C26.3874 158.077 26.5812 158.024 26.7405 157.91C26.8999 157.795 27.0232 157.639 27.1104 157.441C27.1993 157.244 27.253 157.025 27.2716 156.784C27.2901 156.545 27.2704 156.324 27.2125 156.121C27.1564 155.916 27.058 155.75 26.9174 155.623C26.7768 155.495 26.5923 155.427 26.364 155.418C26.134 155.41 25.9385 155.463 25.7774 155.58C25.6179 155.696 25.4937 155.854 25.4047 156.053C25.3175 156.25 25.2646 156.469 25.2461 156.708C25.2275 156.949 25.2463 157.17 25.3026 157.373C25.3605 157.576 25.4598 157.741 25.6006 157.867C25.7429 157.993 25.9291 158.06 26.159 158.069ZM29.801 153.731L29.4145 158.73L28.6831 158.702L29.0696 153.704L29.801 153.731ZM32.0121 158.903C31.6419 158.889 31.3292 158.798 31.0739 158.631C30.8204 158.461 30.6322 158.23 30.5094 157.936C30.3882 157.641 30.3427 157.299 30.3728 156.91C30.4025 156.526 30.5004 156.191 30.6666 155.903C30.8344 155.616 31.0543 155.395 31.3263 155.24C31.5999 155.085 31.9113 155.015 32.2603 155.028C32.4723 155.036 32.6751 155.079 32.8686 155.156C33.0622 155.233 33.2323 155.35 33.3789 155.506C33.5255 155.661 33.6352 155.86 33.7081 156.103C33.781 156.344 33.8043 156.635 33.778 156.975L33.758 157.233L30.7711 157.121L30.8134 156.574L33.0836 156.66C33.0984 156.468 33.0724 156.296 33.0056 156.145C32.9389 155.993 32.8379 155.87 32.7027 155.779C32.5691 155.687 32.4077 155.638 32.2185 155.631C32.0131 155.623 31.8298 155.667 31.6687 155.762C31.5093 155.856 31.3818 155.981 31.2862 156.139C31.1923 156.296 31.1381 156.467 31.1237 156.655L31.0907 157.082C31.0713 157.332 31.0988 157.547 31.1733 157.726C31.2494 157.905 31.3638 158.044 31.5164 158.143C31.6692 158.24 31.8524 158.293 32.0661 158.301C32.2047 158.306 32.3326 158.291 32.4498 158.256C32.5671 158.22 32.6704 158.163 32.7598 158.087C32.8491 158.01 32.9203 157.914 32.9734 157.799L33.6561 157.949C33.5849 158.151 33.4716 158.325 33.3163 158.473C33.1627 158.619 32.975 158.73 32.7532 158.806C32.5331 158.881 32.2861 158.914 32.0121 158.903ZM36.3235 158.989L36.71 153.991L37.4659 154.019L37.1296 158.369L39.3997 158.454L39.3495 159.103L36.3235 158.989ZM40.1531 159.133L40.443 155.384L41.1745 155.412L40.8846 159.161L40.1531 159.133ZM40.8571 154.82C40.7299 154.815 40.6239 154.769 40.5391 154.681C40.4561 154.591 40.4192 154.487 40.4284 154.368C40.4377 154.248 40.4905 154.147 40.5867 154.066C40.6847 153.983 40.7973 153.944 40.9245 153.949C41.0517 153.953 41.1568 154.001 41.2399 154.09C41.3246 154.178 41.3624 154.282 41.3531 154.403C41.3439 154.522 41.2903 154.622 41.1923 154.705C41.0961 154.786 40.9843 154.825 40.8571 154.82ZM43.9467 155.516L43.9014 156.102L41.778 156.022L41.8233 155.436L43.9467 155.516ZM42.1157 159.207L42.4391 155.024C42.4573 154.789 42.5237 154.597 42.6384 154.446C42.7532 154.294 42.8984 154.183 43.0739 154.113C43.2495 154.041 43.4368 154.009 43.6358 154.016C43.7826 154.022 43.9072 154.039 44.0097 154.067C44.1123 154.094 44.1882 154.118 44.2372 154.139L44.0203 154.723C43.9868 154.712 43.9436 154.699 43.8908 154.684C43.8381 154.668 43.7735 154.658 43.6968 154.655C43.5191 154.648 43.3885 154.687 43.305 154.772C43.2232 154.857 43.1759 154.983 43.163 155.149L42.8471 159.235L42.1157 159.207ZM45.8771 159.425C45.5069 159.411 45.1942 159.32 44.9389 159.152C44.6854 158.982 44.4972 158.751 44.3744 158.457C44.2532 158.162 44.2077 157.82 44.2378 157.432C44.2675 157.048 44.3654 156.712 44.5316 156.424C44.6994 156.137 44.9193 155.916 45.1913 155.761C45.4649 155.607 45.7762 155.536 46.1252 155.549C46.3373 155.557 46.54 155.6 46.7336 155.677C46.9272 155.755 47.0972 155.871 47.2439 156.027C47.3905 156.183 47.5002 156.382 47.573 156.624C47.646 156.865 47.6693 157.156 47.643 157.496L47.623 157.755L44.6361 157.642L44.6784 157.096L46.9485 157.181C46.9634 156.989 46.9374 156.817 46.8706 156.666C46.8039 156.514 46.7029 156.392 46.5677 156.3C46.4341 156.209 46.2727 156.159 46.0835 156.152C45.878 156.144 45.6947 156.188 45.5336 156.283C45.3743 156.377 45.2468 156.503 45.1512 156.661C45.0573 156.817 45.0031 156.989 44.9887 157.176L44.9556 157.603C44.9363 157.854 44.9638 158.068 45.0383 158.247C45.1144 158.426 45.2288 158.565 45.3814 158.664C45.5342 158.761 45.7174 158.814 45.9311 158.822C46.0697 158.827 46.1976 158.812 46.3148 158.778C46.4321 158.741 46.5354 158.685 46.6247 158.608C46.7141 158.532 46.7853 158.435 46.8384 158.32L47.5211 158.47C47.4499 158.672 47.3366 158.846 47.1813 158.994C47.0277 159.14 46.84 159.251 46.6182 159.328C46.3981 159.402 46.1511 159.435 45.8771 159.425Z" fill="white"/>
<rect x="0.176592" y="0.198114" width="53" height="19.8085" rx="9.90427" transform="matrix(0.999294 0.0375672 -0.0770935 0.997024 4.96364 145.209)" stroke="#F2F4F7" stroke-width="0.38298"/>
</g>
<defs>
<clipPath id="clip0_1_9066">
<rect width="375" height="258" fill="white"/>
</clipPath>
</defs>
</svg>
