<svg width="1440" height="760" viewBox="0 0 1440 760" fill="none" xmlns="http://www.w3.org/2000/svg">
<rect width="144" height="144" stroke="#5CADF8" stroke-opacity="0.05" stroke-width="2"/>
<rect x="144" width="144" height="144" stroke="#5CADF8" stroke-opacity="0.05" stroke-width="2"/>
<rect x="288" width="144" height="144" stroke="#5CADF8" stroke-opacity="0.05" stroke-width="2"/>
<rect x="432" width="144" height="144" stroke="#5CADF8" stroke-opacity="0.05" stroke-width="2"/>
<rect x="576" width="144" height="144" stroke="#5CADF8" stroke-opacity="0.05" stroke-width="2"/>
<rect x="720" width="144" height="144" stroke="#5CADF8" stroke-opacity="0.05" stroke-width="2"/>
<rect x="864" width="144" height="144" stroke="#5CADF8" stroke-opacity="0.05" stroke-width="2"/>
<rect x="1008" width="144" height="144" stroke="#5CADF8" stroke-opacity="0.05" stroke-width="2"/>
<rect x="1152" width="144" height="144" stroke="#5CADF8" stroke-opacity="0.05" stroke-width="2"/>
<rect x="1296" width="144" height="144" stroke="#5CADF8" stroke-opacity="0.05" stroke-width="2"/>
<rect y="144" width="144" height="144" stroke="#5CADF8" stroke-opacity="0.05" stroke-width="2"/>
<rect x="144" y="144" width="144" height="144" stroke="#5CADF8" stroke-opacity="0.05" stroke-width="2"/>
<rect x="288" y="144" width="144" height="144" stroke="#5CADF8" stroke-opacity="0.05" stroke-width="2"/>
<rect x="432" y="144" width="144" height="144" stroke="#5CADF8" stroke-opacity="0.05" stroke-width="2"/>
<rect x="576" y="144" width="144" height="144" stroke="#5CADF8" stroke-opacity="0.05" stroke-width="2"/>
<rect x="720" y="144" width="144" height="144" stroke="#5CADF8" stroke-opacity="0.05" stroke-width="2"/>
<rect x="864" y="144" width="144" height="144" stroke="#5CADF8" stroke-opacity="0.05" stroke-width="2"/>
<rect x="1008" y="144" width="144" height="144" stroke="#5CADF8" stroke-opacity="0.05" stroke-width="2"/>
<rect x="1152" y="144" width="144" height="144" stroke="#5CADF8" stroke-opacity="0.05" stroke-width="2"/>
<rect x="1296" y="144" width="144" height="144" stroke="#5CADF8" stroke-opacity="0.05" stroke-width="2"/>
<rect x="1255.21" y="208.437" width="68.9052" height="40.06" rx="20.03" transform="rotate(6.84789 1255.21 208.437)" fill="#132043" fill-opacity="0.8"/>
<path d="M1272.53 235.726L1270.9 235.529L1275.8 225.765L1277.58 225.978L1280.02 236.625L1278.39 236.429L1276.51 227.73L1276.43 227.721L1272.53 235.726ZM1273.29 231.762L1278.59 232.399L1278.43 233.694L1273.13 233.058L1273.29 231.762ZM1286.61 234.196L1287.14 229.716L1288.64 229.895L1287.72 237.55L1286.26 237.374L1286.41 236.048L1286.33 236.038C1286.11 236.426 1285.79 236.733 1285.37 236.958C1284.95 237.181 1284.45 237.258 1283.88 237.189C1283.38 237.13 1282.96 236.97 1282.61 236.708C1282.26 236.444 1282 236.085 1281.84 235.63C1281.68 235.176 1281.64 234.633 1281.71 234.002L1282.3 229.133L1283.79 229.312L1283.22 234.002C1283.16 234.523 1283.25 234.956 1283.51 235.299C1283.76 235.643 1284.12 235.843 1284.58 235.898C1284.86 235.932 1285.14 235.895 1285.43 235.789C1285.73 235.683 1285.99 235.5 1286.2 235.239C1286.42 234.979 1286.56 234.631 1286.61 234.196ZM1294.21 230.565L1294.07 231.761L1289.89 231.259L1290.03 230.063L1294.21 230.565ZM1291.38 228.363L1292.87 228.542L1292 235.783C1291.96 236.072 1291.98 236.295 1292.05 236.451C1292.12 236.605 1292.22 236.716 1292.35 236.786C1292.48 236.852 1292.63 236.895 1292.79 236.915C1292.91 236.929 1293.02 236.933 1293.11 236.928C1293.2 236.922 1293.27 236.917 1293.32 236.913L1293.44 238.176C1293.35 238.199 1293.23 238.217 1293.06 238.231C1292.9 238.249 1292.7 238.245 1292.46 238.219C1292.06 238.179 1291.71 238.065 1291.39 237.878C1291.06 237.692 1290.82 237.433 1290.64 237.102C1290.47 236.771 1290.41 236.375 1290.47 235.913L1291.38 228.363ZM1298.07 238.949C1297.35 238.863 1296.74 238.623 1296.25 238.23C1295.75 237.837 1295.39 237.327 1295.17 236.7C1294.94 236.073 1294.88 235.364 1294.97 234.574C1295.07 233.779 1295.3 233.103 1295.67 232.544C1296.03 231.985 1296.5 231.573 1297.08 231.308C1297.65 231.043 1298.3 230.954 1299.02 231.04C1299.73 231.126 1300.34 231.366 1300.84 231.759C1301.33 232.152 1301.69 232.664 1301.92 233.294C1302.14 233.924 1302.2 234.636 1302.11 235.43C1302.01 236.221 1301.78 236.894 1301.42 237.45C1301.05 238.006 1300.58 238.416 1300.01 238.681C1299.43 238.946 1298.78 239.035 1298.07 238.949ZM1298.22 237.699C1298.69 237.754 1299.09 237.678 1299.42 237.469C1299.76 237.26 1300.02 236.959 1300.22 236.568C1300.42 236.178 1300.55 235.736 1300.61 235.245C1300.66 234.756 1300.64 234.299 1300.54 233.872C1300.45 233.443 1300.26 233.085 1299.98 232.799C1299.71 232.513 1299.34 232.343 1298.87 232.287C1298.4 232.23 1298 232.308 1297.66 232.52C1297.33 232.733 1297.06 233.036 1296.86 233.43C1296.66 233.821 1296.54 234.261 1296.48 234.749C1296.42 235.241 1296.44 235.7 1296.54 236.126C1296.64 236.553 1296.82 236.907 1297.1 237.19C1297.38 237.473 1297.75 237.642 1298.22 237.699Z" fill="white"/>
<rect x="1255.21" y="208.437" width="68.9052" height="40.06" rx="20.03" transform="rotate(6.84789 1255.21 208.437)" stroke="#F2F4F7" stroke-width="0.785216"/>
<rect y="288" width="144" height="144" stroke="#5CADF8" stroke-opacity="0.05" stroke-width="2"/>
<rect x="144" y="288" width="144" height="144" stroke="#5CADF8" stroke-opacity="0.05" stroke-width="2"/>
<rect x="288" y="288" width="144" height="144" stroke="#5CADF8" stroke-opacity="0.05" stroke-width="2"/>
<rect x="432" y="288" width="144" height="144" stroke="#5CADF8" stroke-opacity="0.05" stroke-width="2"/>
<rect x="576" y="288" width="144" height="144" stroke="#5CADF8" stroke-opacity="0.05" stroke-width="2"/>
<rect x="720" y="288" width="144" height="144" stroke="#5CADF8" stroke-opacity="0.05" stroke-width="2"/>
<rect x="864" y="288" width="144" height="144" stroke="#5CADF8" stroke-opacity="0.05" stroke-width="2"/>
<rect x="1008" y="288" width="144" height="144" stroke="#5CADF8" stroke-opacity="0.05" stroke-width="2"/>
<rect x="1152" y="288" width="144" height="144" stroke="#5CADF8" stroke-opacity="0.05" stroke-width="2"/>
<rect x="1296" y="288" width="144" height="144" stroke="#5CADF8" stroke-opacity="0.05" stroke-width="2"/>
<rect x="54.2722" y="308.526" width="236" height="51" rx="25.5" transform="rotate(3.08614 54.2722 308.526)" fill="#5CADF8" fill-opacity="0.3"/>
<path d="M78.1295 329.25L80.523 329.379L84.1367 339.765L84.2899 339.773L88.9993 329.836L91.3929 329.966L90.6881 343.037L88.8116 342.936L89.3216 333.477L89.2003 333.47L84.8361 342.703L83.2787 342.619L79.9328 332.964L79.8116 332.958L79.3012 342.424L77.4247 342.322L78.1295 329.25ZM97.6171 343.609C96.6512 343.557 95.8304 343.306 95.1548 342.856C94.4837 342.401 93.9791 341.787 93.641 341.014C93.3074 340.236 93.168 339.339 93.2228 338.322C93.2769 337.318 93.5119 336.443 93.9276 335.697C94.3477 334.951 94.9075 334.382 95.6073 333.989C96.3113 333.596 97.1186 333.424 98.0292 333.473C98.5824 333.503 99.1136 333.623 99.6229 333.834C100.132 334.045 100.583 334.357 100.974 334.771C101.366 335.185 101.664 335.711 101.869 336.349C102.073 336.983 102.152 337.745 102.104 338.634L102.067 339.311L94.274 338.891L94.351 337.461L100.274 337.78C100.301 337.278 100.223 336.828 100.04 336.43C99.8567 336.027 99.5861 335.703 99.228 335.458C98.8742 335.213 98.4506 335.077 97.957 335.05C97.4208 335.021 96.9456 335.128 96.5314 335.37C96.1217 335.608 95.797 335.932 95.5572 336.342C95.322 336.747 95.1912 337.195 95.1648 337.684L95.1046 338.801C95.0692 339.456 95.1541 340.02 95.3591 340.492C95.5683 340.964 95.8749 341.333 96.2789 341.598C96.683 341.859 97.1638 342.004 97.7212 342.034C98.0829 342.053 98.4155 342.02 98.7188 341.934C99.0224 341.844 99.2884 341.7 99.5166 341.503C99.7449 341.307 99.9247 341.058 100.056 340.758L101.845 341.181C101.672 341.705 101.387 342.157 100.991 342.537C100.599 342.912 100.117 343.196 99.5431 343.387C98.974 343.574 98.332 343.648 97.6171 343.609ZM107.611 344.142C106.82 344.099 106.124 343.859 105.525 343.421C104.93 342.98 104.476 342.373 104.164 341.6C103.855 340.824 103.73 339.906 103.787 338.847C103.844 337.787 104.07 336.89 104.463 336.156C104.862 335.422 105.382 334.872 106.025 334.506C106.668 334.139 107.383 333.977 108.17 334.02C108.778 334.052 109.262 334.181 109.621 334.405C109.985 334.625 110.262 334.875 110.452 335.154C110.646 335.433 110.795 335.678 110.898 335.889L111.013 335.895L111.275 331.038L113.184 331.14L112.479 344.212L110.615 344.112L110.697 342.586L110.538 342.578C110.412 342.78 110.233 343.009 110.001 343.266C109.774 343.522 109.468 343.741 109.083 343.92C108.697 344.1 108.207 344.174 107.611 344.142ZM108.12 342.537C108.669 342.567 109.141 342.447 109.535 342.178C109.934 341.905 110.245 341.514 110.469 341.006C110.697 340.497 110.829 339.899 110.867 339.209C110.903 338.528 110.838 337.927 110.669 337.406C110.501 336.885 110.235 336.472 109.872 336.166C109.509 335.861 109.048 335.693 108.491 335.663C107.916 335.632 107.43 335.755 107.031 336.032C106.632 336.309 106.32 336.7 106.097 337.204C105.878 337.709 105.751 338.285 105.716 338.931C105.68 339.587 105.747 340.181 105.914 340.715C106.082 341.249 106.349 341.68 106.715 342.007C107.086 342.33 107.554 342.507 108.12 342.537ZM115.203 344.359L115.731 334.555L117.64 334.658L117.111 344.462L115.203 344.359ZM116.777 333.094C116.445 333.077 116.166 332.951 115.939 332.716C115.717 332.478 115.615 332.204 115.632 331.893C115.649 331.578 115.78 331.317 116.026 331.108C116.276 330.895 116.568 330.798 116.9 330.816C117.231 330.834 117.508 330.962 117.73 331.2C117.957 331.434 118.061 331.709 118.044 332.023C118.028 332.334 117.894 332.596 117.643 332.808C117.398 333.017 117.109 333.112 116.777 333.094ZM123.798 345.021C122.849 344.97 122.043 344.711 121.381 344.244C120.724 343.773 120.233 343.147 119.908 342.366C119.583 341.585 119.447 340.702 119.5 339.719C119.554 338.724 119.788 337.855 120.204 337.114C120.62 336.368 121.18 335.799 121.884 335.405C122.588 335.012 123.401 334.841 124.325 334.891C125.069 334.931 125.726 335.105 126.294 335.413C126.862 335.717 127.312 336.125 127.642 336.638C127.977 337.151 128.161 337.739 128.194 338.402L126.336 338.302C126.259 337.837 126.046 337.429 125.698 337.077C125.354 336.726 124.878 336.534 124.27 336.501C123.738 336.472 123.264 336.587 122.849 336.847C122.439 337.102 122.109 337.481 121.86 337.984C121.611 338.483 121.468 339.081 121.43 339.779C121.392 340.494 121.467 341.116 121.656 341.647C121.845 342.178 122.13 342.597 122.51 342.903C122.895 343.21 123.357 343.378 123.897 343.407C124.259 343.426 124.59 343.378 124.891 343.262C125.196 343.142 125.456 342.962 125.669 342.721C125.887 342.481 126.046 342.187 126.146 341.838L128.003 341.938C127.901 342.569 127.664 343.123 127.292 343.603C126.921 344.082 126.438 344.449 125.844 344.702C125.254 344.957 124.572 345.063 123.798 345.021ZM132.718 345.521C132.097 345.488 131.541 345.343 131.052 345.086C130.562 344.825 130.183 344.465 129.913 344.006C129.647 343.548 129.532 342.998 129.567 342.355C129.596 341.802 129.727 341.353 129.959 341.007C130.191 340.661 130.494 340.393 130.867 340.204C131.24 340.015 131.652 339.88 132.105 339.797C132.557 339.715 133.017 339.659 133.484 339.628C134.075 339.592 134.554 339.562 134.923 339.54C135.291 339.512 135.561 339.452 135.733 339.359C135.904 339.266 135.996 339.105 136.008 338.875L136.011 338.83C136.041 338.273 135.907 337.832 135.608 337.509C135.314 337.186 134.859 337.008 134.242 336.974C133.599 336.94 133.085 337.055 132.699 337.32C132.318 337.581 132.048 337.88 131.889 338.217L130.118 337.712C130.363 337.128 130.699 336.664 131.127 336.32C131.56 335.972 132.049 335.729 132.594 335.592C133.139 335.451 133.708 335.396 134.299 335.428C134.691 335.449 135.103 335.519 135.536 335.636C135.974 335.749 136.378 335.937 136.748 336.2C137.122 336.464 137.42 336.828 137.643 337.292C137.865 337.752 137.958 338.34 137.919 339.055L137.568 345.565L135.704 345.465L135.776 344.124L135.7 344.12C135.563 344.36 135.365 344.593 135.105 344.818C134.846 345.043 134.518 345.223 134.122 345.36C133.727 345.497 133.259 345.55 132.718 345.521ZM133.216 344.012C133.743 344.04 134.2 343.96 134.586 343.772C134.976 343.584 135.277 343.327 135.491 343.001C135.71 342.672 135.829 342.313 135.85 341.926L135.918 340.662C135.847 340.727 135.711 340.783 135.512 340.832C135.318 340.877 135.096 340.915 134.847 340.944C134.598 340.969 134.356 340.992 134.12 341.013C133.884 341.031 133.687 341.046 133.528 341.058C133.156 341.085 132.813 341.146 132.501 341.24C132.193 341.334 131.942 341.481 131.747 341.679C131.558 341.874 131.454 342.141 131.435 342.482C131.41 342.954 131.565 343.321 131.901 343.582C132.237 343.839 132.675 343.983 133.216 344.012ZM140.11 345.702L140.638 335.898L142.483 335.998L142.399 337.555L142.501 337.56C142.708 337.042 143.046 336.645 143.513 336.367C143.985 336.085 144.508 335.96 145.082 335.99C145.202 335.997 145.342 336.009 145.503 336.026C145.669 336.043 145.798 336.061 145.891 336.079L145.792 337.904C145.717 337.879 145.582 337.848 145.388 337.812C145.193 337.772 144.998 337.746 144.803 337.736C144.352 337.711 143.944 337.786 143.581 337.958C143.222 338.126 142.931 338.373 142.709 338.698C142.487 339.019 142.364 339.392 142.341 339.818L142.018 345.805L140.11 345.702ZM150.872 346.481C149.906 346.429 149.085 346.177 148.409 345.727C147.738 345.273 147.234 344.659 146.896 343.885C146.562 343.107 146.423 342.21 146.477 341.193C146.532 340.189 146.767 339.314 147.182 338.568C147.602 337.823 148.162 337.253 148.862 336.86C149.566 336.467 150.373 336.295 151.284 336.344C151.837 336.374 152.368 336.494 152.878 336.705C153.387 336.916 153.837 337.229 154.229 337.642C154.621 338.056 154.919 338.582 155.123 339.22C155.328 339.855 155.406 340.616 155.358 341.506L155.322 342.182L147.529 341.762L147.606 340.332L153.529 340.652C153.556 340.149 153.478 339.699 153.294 339.301C153.111 338.899 152.841 338.575 152.483 338.329C152.129 338.084 151.705 337.948 151.212 337.921C150.675 337.892 150.2 337.999 149.786 338.241C149.376 338.48 149.052 338.803 148.812 339.213C148.577 339.619 148.446 340.066 148.419 340.555L148.359 341.672C148.324 342.328 148.409 342.891 148.614 343.363C148.823 343.835 149.13 344.204 149.534 344.469C149.938 344.73 150.418 344.875 150.976 344.905C151.338 344.925 151.67 344.891 151.974 344.805C152.277 344.715 152.543 344.572 152.771 344.375C153 344.178 153.179 343.929 153.311 343.629L155.1 344.052C154.926 344.576 154.642 345.028 154.246 345.408C153.854 345.784 153.371 346.067 152.798 346.258C152.229 346.445 151.587 346.519 150.872 346.481ZM169.765 337.635C169.73 337.027 169.474 336.544 168.999 336.185C168.523 335.823 167.911 335.621 167.162 335.581C166.626 335.552 166.157 335.612 165.757 335.761C165.356 335.906 165.04 336.119 164.807 336.401C164.578 336.679 164.454 337.003 164.434 337.373C164.418 337.684 164.475 337.956 164.608 338.189C164.745 338.423 164.928 338.622 165.158 338.788C165.393 338.95 165.646 339.09 165.917 339.207C166.188 339.32 166.449 339.415 166.701 339.493L167.96 339.893C168.372 340.018 168.792 340.179 169.221 340.377C169.649 340.575 170.043 340.827 170.403 341.132C170.762 341.438 171.045 341.807 171.252 342.241C171.463 342.675 171.553 343.185 171.521 343.772C171.481 344.513 171.254 345.16 170.84 345.714C170.431 346.268 169.855 346.691 169.114 346.984C168.377 347.277 167.498 347.396 166.477 347.341C165.498 347.289 164.66 347.088 163.961 346.738C163.263 346.389 162.727 345.919 162.354 345.327C161.981 344.73 161.794 344.038 161.794 343.248L163.773 343.355C163.785 343.829 163.917 344.231 164.168 344.56C164.424 344.886 164.758 345.136 165.171 345.312C165.589 345.484 166.051 345.584 166.557 345.611C167.115 345.641 167.615 345.58 168.058 345.429C168.506 345.274 168.864 345.046 169.132 344.745C169.401 344.439 169.546 344.074 169.569 343.648C169.59 343.261 169.496 342.938 169.289 342.679C169.085 342.421 168.8 342.2 168.434 342.019C168.073 341.837 167.661 341.672 167.2 341.523L165.678 341.019C164.647 340.677 163.84 340.213 163.257 339.627C162.678 339.041 162.413 338.293 162.462 337.382C162.503 336.629 162.743 335.982 163.181 335.443C163.62 334.903 164.197 334.497 164.911 334.224C165.626 333.947 166.422 333.832 167.298 333.879C168.184 333.927 168.956 334.124 169.616 334.471C170.28 334.818 170.793 335.275 171.155 335.841C171.517 336.402 171.688 337.034 171.667 337.738L169.765 337.635ZM179.96 343.773L180.269 338.035L182.184 338.138L181.655 347.942L179.779 347.841L179.87 346.143L179.768 346.138C179.515 346.649 179.129 347.065 178.613 347.387C178.1 347.706 177.476 347.845 176.74 347.805C176.11 347.771 175.56 347.603 175.09 347.3C174.625 346.993 174.268 346.558 174.021 345.994C173.778 345.43 173.679 344.744 173.722 343.936L174.059 337.7L175.967 337.803L175.643 343.809C175.607 344.477 175.764 345.019 176.113 345.435C176.461 345.85 176.932 346.074 177.523 346.106C177.881 346.125 178.241 346.055 178.603 345.895C178.971 345.736 179.281 345.482 179.534 345.133C179.792 344.784 179.934 344.331 179.96 343.773ZM184.021 351.757L184.748 338.276L186.612 338.377L186.526 339.966L186.686 339.975C186.808 339.776 186.98 339.549 187.203 339.292C187.426 339.035 187.728 338.817 188.109 338.637C188.49 338.452 188.985 338.377 189.593 338.41C190.385 338.452 191.08 338.69 191.68 339.124C192.28 339.557 192.736 340.16 193.048 340.932C193.365 341.705 193.495 342.621 193.438 343.68C193.381 344.74 193.155 345.639 192.761 346.377C192.367 347.111 191.851 347.666 191.212 348.041C190.573 348.412 189.858 348.576 189.067 348.534C188.471 348.502 187.989 348.375 187.621 348.155C187.257 347.935 186.977 347.685 186.778 347.405C186.58 347.126 186.429 346.879 186.325 346.664L186.21 346.658L185.93 351.86L184.021 351.757ZM186.354 343.279C186.317 343.968 186.384 344.578 186.556 345.108C186.728 345.638 186.996 346.06 187.359 346.374C187.722 346.684 188.178 346.853 188.727 346.883C189.297 346.914 189.782 346.788 190.181 346.507C190.58 346.221 190.892 345.822 191.116 345.309C191.344 344.796 191.476 344.212 191.511 343.557C191.546 342.91 191.48 342.324 191.312 341.799C191.148 341.274 190.881 340.852 190.509 340.533C190.143 340.214 189.672 340.04 189.097 340.009C188.544 339.979 188.068 340.096 187.67 340.361C187.276 340.625 186.967 341.008 186.744 341.508C186.521 342.008 186.391 342.598 186.354 343.279ZM195.115 352.355L195.842 338.874L197.705 338.975L197.62 340.564L197.779 340.573C197.901 340.375 198.073 340.147 198.296 339.89C198.519 339.633 198.821 339.415 199.202 339.235C199.583 339.051 200.078 338.975 200.687 339.008C201.478 339.05 202.174 339.288 202.773 339.722C203.373 340.155 203.829 340.758 204.142 341.53C204.459 342.303 204.588 343.219 204.531 344.278C204.474 345.338 204.249 346.237 203.855 346.975C203.461 347.709 202.944 348.264 202.305 348.639C201.667 349.01 200.951 349.174 200.16 349.132C199.564 349.1 199.082 348.973 198.714 348.753C198.351 348.533 198.07 348.283 197.871 348.003C197.673 347.724 197.522 347.477 197.419 347.262L197.304 347.256L197.023 352.458L195.115 352.355ZM197.447 343.877C197.41 344.567 197.478 345.176 197.65 345.706C197.822 346.236 198.089 346.658 198.452 346.972C198.815 347.282 199.271 347.451 199.82 347.481C200.39 347.512 200.875 347.386 201.274 347.105C201.674 346.819 201.985 346.42 202.209 345.907C202.438 345.395 202.569 344.811 202.605 344.155C202.64 343.509 202.573 342.922 202.405 342.397C202.241 341.872 201.974 341.45 201.603 341.131C201.236 340.813 200.765 340.638 200.191 340.607C199.637 340.577 199.162 340.694 198.763 340.959C198.369 341.223 198.061 341.606 197.837 342.106C197.614 342.606 197.484 343.196 197.447 343.877ZM209.019 336.307L208.315 349.379L206.406 349.276L207.111 336.205L209.019 336.307ZM215.097 349.943C214.131 349.891 213.31 349.64 212.635 349.19C211.963 348.735 211.459 348.121 211.121 347.348C210.787 346.57 210.648 345.673 210.703 344.656C210.757 343.652 210.992 342.777 211.407 342.031C211.827 341.285 212.387 340.716 213.087 340.323C213.791 339.93 214.598 339.758 215.509 339.807C216.062 339.837 216.593 339.957 217.103 340.168C217.612 340.379 218.062 340.691 218.454 341.105C218.846 341.519 219.144 342.045 219.348 342.683C219.553 343.317 219.632 344.079 219.584 344.968L219.547 345.645L211.754 345.225L211.831 343.795L217.754 344.114C217.781 343.612 217.703 343.162 217.52 342.764C217.336 342.361 217.066 342.037 216.708 341.792C216.354 341.547 215.93 341.411 215.437 341.384C214.901 341.355 214.425 341.462 214.011 341.704C213.601 341.942 213.277 342.266 213.037 342.676C212.802 343.081 212.671 343.529 212.645 344.018L212.584 345.135C212.549 345.79 212.634 346.354 212.839 346.826C213.048 347.298 213.355 347.667 213.759 347.932C214.163 348.192 214.644 348.338 215.201 348.368C215.563 348.387 215.895 348.354 216.199 348.268C216.502 348.178 216.768 348.034 216.996 347.837C217.225 347.641 217.404 347.392 217.536 347.092L219.325 347.515C219.151 348.039 218.867 348.491 218.471 348.871C218.079 349.246 217.596 349.53 217.023 349.721C216.454 349.908 215.812 349.982 215.097 349.943ZM221.431 350.087L221.96 340.283L223.792 340.381L223.706 341.977L223.827 341.984C224.06 341.454 224.417 341.051 224.897 340.774C225.378 340.492 225.941 340.369 226.588 340.404C227.243 340.439 227.784 340.622 228.21 340.952C228.64 341.283 228.947 341.722 229.131 342.27L229.233 342.275C229.495 341.764 229.89 341.367 230.418 341.084C230.945 340.797 231.562 340.672 232.269 340.71C233.158 340.758 233.868 341.076 234.4 341.664C234.936 342.252 235.174 343.107 235.113 344.231L234.758 350.805L232.85 350.702L233.195 344.307C233.231 343.643 233.076 343.152 232.73 342.835C232.384 342.518 231.961 342.345 231.458 342.318C230.837 342.285 230.344 342.45 229.979 342.815C229.614 343.175 229.415 343.653 229.383 344.248L229.046 350.497L227.144 350.395L227.495 343.878C227.524 343.346 227.381 342.909 227.067 342.568C226.752 342.227 226.329 342.042 225.797 342.013C225.435 341.994 225.096 342.071 224.779 342.246C224.467 342.417 224.208 342.666 224.003 342.992C223.802 343.318 223.689 343.702 223.666 344.145L223.34 350.189L221.431 350.087ZM241.531 351.369C240.565 351.317 239.744 351.065 239.069 350.615C238.398 350.161 237.893 349.547 237.555 348.773C237.221 347.995 237.082 347.098 237.137 346.081C237.191 345.077 237.426 344.202 237.842 343.456C238.262 342.711 238.822 342.141 239.521 341.748C240.225 341.355 241.033 341.183 241.943 341.232C242.496 341.262 243.028 341.382 243.537 341.593C244.046 341.804 244.497 342.116 244.888 342.53C245.28 342.944 245.578 343.47 245.783 344.108C245.987 344.742 246.066 345.504 246.018 346.394L245.981 347.07L238.188 346.65L238.265 345.22L244.188 345.54C244.215 345.037 244.137 344.587 243.954 344.189C243.771 343.787 243.5 343.463 243.142 343.217C242.788 342.972 242.365 342.836 241.871 342.809C241.335 342.78 240.86 342.887 240.445 343.129C240.036 343.367 239.711 343.691 239.471 344.101C239.236 344.506 239.105 344.954 239.079 345.443L239.019 346.56C238.983 347.216 239.068 347.779 239.273 348.251C239.482 348.723 239.789 349.092 240.193 349.357C240.597 349.618 241.078 349.763 241.635 349.793C241.997 349.813 242.329 349.779 242.633 349.693C242.936 349.603 243.202 349.459 243.431 349.263C243.659 349.066 243.839 348.817 243.97 348.517L245.759 348.94C245.586 349.464 245.301 349.916 244.905 350.296C244.513 350.672 244.031 350.955 243.457 351.146C242.888 351.333 242.246 351.407 241.531 351.369ZM250.088 345.794L249.774 351.615L247.866 351.512L248.394 341.708L250.226 341.807L250.14 343.402L250.261 343.409C250.515 342.902 250.89 342.504 251.388 342.215C251.89 341.926 252.509 341.802 253.246 341.841C253.914 341.877 254.491 342.049 254.978 342.357C255.465 342.661 255.832 343.095 256.079 343.659C256.326 344.222 256.428 344.908 256.384 345.717L256.048 351.953L254.14 351.85L254.464 345.844C254.502 345.133 254.347 344.568 253.998 344.148C253.65 343.724 253.152 343.494 252.505 343.459C252.063 343.436 251.664 343.51 251.309 343.683C250.958 343.856 250.673 344.122 250.453 344.482C250.238 344.837 250.116 345.274 250.088 345.794ZM263.713 342.534L263.63 344.066L258.275 343.777L258.358 342.245L263.713 342.534ZM259.92 339.974L261.829 340.076L261.329 349.351C261.309 349.721 261.349 350.003 261.45 350.196C261.55 350.385 261.686 350.518 261.857 350.595C262.032 350.669 262.224 350.711 262.433 350.722C262.586 350.731 262.72 350.727 262.837 350.712C262.953 350.697 263.043 350.685 263.107 350.676L263.367 352.271C263.254 352.307 263.094 352.341 262.888 352.373C262.681 352.409 262.424 352.42 262.118 352.408C261.615 352.39 261.152 352.275 260.728 352.064C260.304 351.854 259.969 351.546 259.722 351.14C259.475 350.734 259.367 350.235 259.399 349.643L259.92 339.974Z" fill="white"/>
<rect x="54.2722" y="308.526" width="236" height="51" rx="25.5" transform="rotate(3.08614 54.2722 308.526)" stroke="#F2F4F7"/>
<rect y="432" width="144" height="144" stroke="#5CADF8" stroke-opacity="0.05" stroke-width="2"/>
<rect x="144" y="432" width="144" height="144" stroke="#5CADF8" stroke-opacity="0.05" stroke-width="2"/>
<rect x="288" y="432" width="144" height="144" stroke="#5CADF8" stroke-opacity="0.05" stroke-width="2"/>
<rect x="432" y="432" width="144" height="144" stroke="#5CADF8" stroke-opacity="0.05" stroke-width="2"/>
<rect x="576" y="432" width="144" height="144" stroke="#5CADF8" stroke-opacity="0.05" stroke-width="2"/>
<rect x="720" y="432" width="144" height="144" stroke="#5CADF8" stroke-opacity="0.05" stroke-width="2"/>
<rect x="864" y="432" width="144" height="144" stroke="#5CADF8" stroke-opacity="0.05" stroke-width="2"/>
<rect x="1008" y="432" width="144" height="144" stroke="#5CADF8" stroke-opacity="0.05" stroke-width="2"/>
<rect x="1152" y="432" width="144" height="144" stroke="#5CADF8" stroke-opacity="0.05" stroke-width="2"/>
<rect x="1296" y="432" width="144" height="144" stroke="#5CADF8" stroke-opacity="0.05" stroke-width="2"/>
<rect x="1130" y="432.49" width="126.017" height="47.0506" rx="23.5253" transform="rotate(4.2778 1130 432.49)" fill="#5CADF8" fill-opacity="0.5"/>
<path d="M1152.9 463.812L1150.48 451.616L1152.37 451.758L1154.01 461.185L1154.12 461.193L1157.23 452.121L1159.11 452.262L1160.84 461.702L1160.95 461.71L1163.97 452.625L1165.87 452.767L1161.66 464.467L1159.84 464.331L1158 455.194L1157.9 455.187L1154.72 463.948L1152.9 463.812ZM1168.62 459.638L1168.22 464.958L1166.48 464.828L1167.37 452.88L1169.09 453.009L1168.76 457.454L1168.87 457.462C1169.12 456.996 1169.47 456.637 1169.92 456.385C1170.37 456.133 1170.95 456.034 1171.64 456.086C1172.26 456.132 1172.79 456.298 1173.23 456.585C1173.67 456.873 1174 457.277 1174.21 457.797C1174.43 458.315 1174.52 458.946 1174.46 459.693L1174.03 465.393L1172.29 465.262L1172.7 459.773C1172.75 459.115 1172.62 458.593 1172.31 458.206C1172 457.815 1171.54 457.597 1170.94 457.552C1170.52 457.521 1170.15 457.581 1169.81 457.732C1169.47 457.883 1169.2 458.12 1168.99 458.445C1168.78 458.766 1168.66 459.163 1168.62 459.638ZM1180.12 466.03C1179.28 465.967 1178.56 465.72 1177.97 465.288C1177.37 464.856 1176.92 464.281 1176.63 463.563C1176.33 462.845 1176.22 462.023 1176.29 461.097C1176.36 460.168 1176.59 459.368 1176.99 458.698C1177.39 458.027 1177.92 457.523 1178.57 457.185C1179.23 456.847 1179.98 456.709 1180.82 456.772C1181.66 456.835 1182.37 457.082 1182.97 457.514C1183.57 457.946 1184.01 458.523 1184.31 459.245C1184.6 459.967 1184.72 460.793 1184.65 461.722C1184.58 462.648 1184.34 463.444 1183.94 464.11C1183.55 464.777 1183.02 465.279 1182.37 465.617C1181.71 465.955 1180.96 466.093 1180.12 466.03ZM1180.24 464.566C1180.78 464.607 1181.24 464.497 1181.62 464.236C1182 463.975 1182.3 463.612 1182.5 463.146C1182.71 462.681 1182.84 462.16 1182.88 461.585C1182.93 461.013 1182.88 460.481 1182.74 459.99C1182.6 459.495 1182.37 459.088 1182.03 458.769C1181.7 458.451 1181.26 458.271 1180.71 458.231C1180.16 458.19 1179.7 458.301 1179.31 458.566C1178.93 458.831 1178.64 459.198 1178.43 459.667C1178.22 460.133 1178.1 460.652 1178.05 461.223C1178.01 461.799 1178.06 462.332 1178.19 462.823C1178.33 463.315 1178.57 463.718 1178.91 464.033C1179.25 464.347 1179.69 464.525 1180.24 464.566ZM1188.9 454.49L1188 466.438L1186.26 466.308L1187.15 454.36L1188.9 454.49ZM1194.2 467.083C1193.32 467.017 1192.57 466.772 1191.96 466.347C1191.36 465.918 1190.91 465.347 1190.61 464.632C1190.32 463.915 1190.21 463.091 1190.28 462.161C1190.35 461.243 1190.58 460.447 1190.97 459.773C1191.37 459.099 1191.9 458.588 1192.54 458.242C1193.2 457.895 1193.94 457.753 1194.77 457.816C1195.28 457.853 1195.76 457.974 1196.22 458.176C1196.68 458.379 1197.09 458.674 1197.44 459.06C1197.79 459.446 1198.05 459.933 1198.23 460.521C1198.4 461.105 1198.46 461.803 1198.4 462.616L1198.35 463.235L1191.23 462.702L1191.33 461.395L1196.74 461.8C1196.78 461.341 1196.71 460.928 1196.55 460.56C1196.39 460.188 1196.15 459.886 1195.83 459.655C1195.51 459.424 1195.13 459.291 1194.67 459.257C1194.18 459.221 1193.75 459.309 1193.36 459.523C1192.98 459.733 1192.68 460.024 1192.45 460.394C1192.23 460.76 1192.1 461.167 1192.07 461.615L1191.99 462.636C1191.95 463.234 1192.01 463.752 1192.19 464.188C1192.38 464.624 1192.65 464.967 1193.01 465.217C1193.38 465.463 1193.82 465.605 1194.33 465.644C1194.66 465.668 1194.96 465.644 1195.24 465.571C1195.52 465.494 1195.77 465.368 1195.98 465.192C1196.19 465.017 1196.36 464.793 1196.49 464.52L1198.12 464.941C1197.95 465.418 1197.68 465.826 1197.31 466.166C1196.94 466.502 1196.5 466.752 1195.97 466.916C1195.44 467.076 1194.85 467.132 1194.2 467.083ZM1204.48 467.67L1205.38 455.722L1207.18 455.857L1206.4 466.253L1211.81 466.658L1211.7 468.21L1204.48 467.67ZM1213.61 468.354L1214.28 459.393L1216.03 459.523L1215.36 468.484L1213.61 468.354ZM1215.27 458.076C1214.97 458.053 1214.71 457.933 1214.51 457.714C1214.31 457.492 1214.22 457.239 1214.24 456.955C1214.27 456.667 1214.39 456.43 1214.62 456.244C1214.85 456.054 1215.12 455.97 1215.43 455.993C1215.73 456.016 1215.98 456.138 1216.18 456.36C1216.38 456.579 1216.47 456.832 1216.45 457.12C1216.43 457.404 1216.3 457.641 1216.07 457.831C1215.84 458.017 1215.57 458.099 1215.27 458.076ZM1222.64 460.018L1222.54 461.418L1217.47 461.039L1217.58 459.639L1222.64 460.018ZM1218.3 468.704L1219.04 458.704C1219.08 458.144 1219.24 457.689 1219.51 457.337C1219.79 456.982 1220.13 456.729 1220.55 456.576C1220.97 456.42 1221.42 456.359 1221.89 456.395C1222.24 456.421 1222.54 456.472 1222.78 456.549C1223.03 456.622 1223.21 456.687 1223.33 456.742L1222.81 458.124C1222.73 458.094 1222.63 458.059 1222.5 458.019C1222.38 457.974 1222.22 457.945 1222.04 457.931C1221.62 457.899 1221.3 457.982 1221.11 458.178C1220.91 458.375 1220.8 458.671 1220.77 459.068L1220.04 468.834L1218.3 468.704ZM1227.27 469.557C1226.38 469.491 1225.64 469.245 1225.03 468.82C1224.42 468.392 1223.97 467.82 1223.68 467.106C1223.39 466.388 1223.28 465.564 1223.35 464.635C1223.41 463.717 1223.65 462.921 1224.04 462.246C1224.44 461.572 1224.96 461.061 1225.61 460.715C1226.26 460.369 1227 460.227 1227.84 460.289C1228.34 460.327 1228.83 460.447 1229.29 460.65C1229.75 460.852 1230.16 461.147 1230.51 461.533C1230.86 461.919 1231.12 462.406 1231.29 462.994C1231.47 463.578 1231.53 464.277 1231.47 465.089L1231.42 465.708L1224.3 465.175L1224.39 463.868L1229.81 464.273C1229.84 463.814 1229.78 463.401 1229.62 463.033C1229.46 462.661 1229.22 462.36 1228.9 462.128C1228.58 461.897 1228.19 461.765 1227.74 461.731C1227.25 461.694 1226.81 461.783 1226.43 461.996C1226.05 462.207 1225.75 462.497 1225.52 462.867C1225.3 463.234 1225.17 463.641 1225.13 464.088L1225.06 465.109C1225.01 465.708 1225.08 466.225 1225.26 466.661C1225.44 467.097 1225.72 467.44 1226.08 467.69C1226.44 467.937 1226.88 468.079 1227.39 468.117C1227.72 468.142 1228.03 468.118 1228.31 468.045C1228.59 467.968 1228.83 467.841 1229.04 467.666C1229.26 467.49 1229.43 467.266 1229.55 466.994L1231.18 467.415C1231.01 467.891 1230.74 468.299 1230.37 468.639C1230.01 468.976 1229.56 469.226 1229.03 469.39C1228.51 469.55 1227.92 469.605 1227.27 469.557Z" fill="white"/>
<rect x="1130" y="432.49" width="126.017" height="47.0506" rx="23.5253" transform="rotate(4.2778 1130 432.49)" stroke="#F2F4F7" stroke-width="0.915245"/>
<rect y="576" width="144" height="144" stroke="#5CADF8" stroke-opacity="0.05" stroke-width="2"/>
<rect x="144" y="576" width="144" height="144" stroke="#5CADF8" stroke-opacity="0.05" stroke-width="2"/>
<rect x="288" y="576" width="144" height="144" stroke="#5CADF8" stroke-opacity="0.05" stroke-width="2"/>
<rect x="432" y="576" width="144" height="144" stroke="#5CADF8" stroke-opacity="0.05" stroke-width="2"/>
<rect x="576" y="576" width="144" height="144" stroke="#5CADF8" stroke-opacity="0.05" stroke-width="2"/>
<rect x="720" y="576" width="144" height="144" stroke="#5CADF8" stroke-opacity="0.05" stroke-width="2"/>
<rect x="864" y="576" width="144" height="144" stroke="#5CADF8" stroke-opacity="0.05" stroke-width="2"/>
<rect x="1008" y="576" width="144" height="144" stroke="#5CADF8" stroke-opacity="0.05" stroke-width="2"/>
<rect x="1152" y="576" width="144" height="144" stroke="#5CADF8" stroke-opacity="0.05" stroke-width="2"/>
<rect x="1296" y="576" width="144" height="144" stroke="#5CADF8" stroke-opacity="0.05" stroke-width="2"/>
<rect y="720" width="144" height="144" stroke="#5CADF8" stroke-opacity="0.05" stroke-width="2"/>
<rect x="144" y="720" width="144" height="144" stroke="#5CADF8" stroke-opacity="0.05" stroke-width="2"/>
<rect x="288" y="720" width="144" height="144" stroke="#5CADF8" stroke-opacity="0.05" stroke-width="2"/>
<rect x="432" y="720" width="144" height="144" stroke="#5CADF8" stroke-opacity="0.05" stroke-width="2"/>
<rect x="576" y="720" width="144" height="144" stroke="#5CADF8" stroke-opacity="0.05" stroke-width="2"/>
<rect x="720" y="720" width="144" height="144" stroke="#5CADF8" stroke-opacity="0.05" stroke-width="2"/>
<rect x="864" y="720" width="144" height="144" stroke="#5CADF8" stroke-opacity="0.05" stroke-width="2"/>
<rect x="1008" y="720" width="144" height="144" stroke="#5CADF8" stroke-opacity="0.05" stroke-width="2"/>
<rect x="1152" y="720" width="144" height="144" stroke="#5CADF8" stroke-opacity="0.05" stroke-width="2"/>
<rect x="1296" y="720" width="144" height="144" stroke="#5CADF8" stroke-opacity="0.05" stroke-width="2"/>
<rect x="1440" y="864" width="1440" height="613" transform="rotate(-180 1440 864)" fill="url(#paint0_linear_1_3727)"/>
<rect x="291" y="79.3535" width="134.932" height="53.9659" rx="26.9829" transform="rotate(-3.12443 291 79.3535)" fill="#132043" fill-opacity="0.8"/>
<path d="M314.979 99.1672L314.874 97.2456L326.324 96.6207L326.429 98.5422L321.813 98.7941L322.515 111.667L320.29 111.788L319.588 98.9156L314.979 99.1672ZM332.673 111.337C331.58 111.397 330.626 111.215 329.811 110.791C329 110.361 328.357 109.732 327.882 108.903C327.411 108.069 327.144 107.077 327.082 105.926C327.02 104.789 327.177 103.776 327.553 102.886C327.935 101.996 328.495 101.286 329.234 100.758C329.978 100.23 330.865 99.9374 331.896 99.8812C332.522 99.847 333.134 99.9174 333.733 100.092C334.332 100.267 334.877 100.564 335.368 100.981C335.86 101.399 336.26 101.954 336.568 102.647C336.876 103.336 337.057 104.183 337.112 105.19L337.154 105.956L328.334 106.437L328.246 104.819L334.949 104.453C334.918 103.885 334.775 103.388 334.52 102.962C334.265 102.532 333.921 102.2 333.488 101.968C333.06 101.735 332.566 101.634 332.008 101.665C331.401 101.698 330.879 101.876 330.443 102.199C330.011 102.518 329.685 102.922 329.466 103.412C329.251 103.897 329.158 104.416 329.189 104.97L329.258 106.234C329.298 106.976 329.463 107.6 329.751 108.106C330.044 108.611 330.434 108.989 330.921 109.237C331.408 109.481 331.967 109.586 332.598 109.552C333.007 109.529 333.377 109.451 333.708 109.317C334.038 109.178 334.32 108.984 334.553 108.735C334.785 108.485 334.957 108.184 335.068 107.83L337.133 108.087C337.002 108.698 336.737 109.241 336.338 109.717C335.943 110.188 335.435 110.566 334.813 110.851C334.196 111.131 333.482 111.293 332.673 111.337ZM339.818 110.722L339.212 99.6267L341.3 99.5128L341.396 101.275L341.512 101.269C341.682 100.661 342.012 100.172 342.504 99.8021C343 99.4272 343.574 99.222 344.224 99.1865C344.359 99.1792 344.518 99.1753 344.701 99.1749C344.89 99.1743 345.037 99.1783 345.144 99.187L345.257 101.253C345.169 101.234 345.013 101.216 344.79 101.199C344.567 101.177 344.344 101.172 344.123 101.184C343.612 101.212 343.163 101.346 342.775 101.584C342.392 101.818 342.095 102.131 341.885 102.524C341.674 102.912 341.582 103.347 341.608 103.829L341.978 110.605L339.818 110.722ZM347.625 110.296L347.02 99.2006L349.093 99.0874L349.191 100.893L349.329 100.886C349.526 100.262 349.878 99.7642 350.385 99.3936C350.891 99.0182 351.51 98.8106 352.242 98.7706C352.983 98.7301 353.614 98.8696 354.134 99.189C354.658 99.5081 355.058 99.9645 355.332 100.558L355.447 100.552C355.68 99.9451 356.075 99.4501 356.634 99.067C357.192 98.6791 357.871 98.4633 358.671 98.4197C359.677 98.3647 360.516 98.6353 361.186 99.2315C361.861 99.8274 362.233 100.761 362.302 102.032L362.708 109.473L360.549 109.591L360.153 102.353C360.112 101.601 359.878 101.068 359.45 100.754C359.023 100.439 358.525 100.297 357.956 100.328C357.253 100.366 356.718 100.613 356.352 101.068C355.985 101.518 355.82 102.08 355.857 102.754L356.243 109.826L354.09 109.943L353.688 102.568C353.655 101.966 353.441 101.492 353.045 101.147C352.65 100.801 352.151 100.645 351.549 100.678C351.139 100.7 350.767 100.829 350.432 101.065C350.102 101.295 349.841 101.607 349.65 101.999C349.464 102.39 349.384 102.837 349.412 103.337L349.785 110.178L347.625 110.296ZM371.16 109.012L370.353 94.2173L372.585 94.0955L373.288 106.968L379.991 106.602L380.096 108.524L371.16 109.012ZM382.469 108.394L381.863 97.2986L384.023 97.1807L384.629 108.276L382.469 108.394ZM382.861 95.527C382.485 95.5475 382.156 95.4399 381.872 95.2042C381.593 94.9634 381.445 94.6672 381.425 94.3157C381.406 93.9593 381.522 93.6487 381.773 93.3838C382.029 93.1138 382.344 92.9686 382.72 92.9481C383.096 92.9276 383.423 93.0377 383.702 93.2785C383.985 93.5142 384.136 93.8103 384.156 94.1666C384.175 94.5182 384.057 94.829 383.801 95.0989C383.55 95.3638 383.236 95.5065 382.861 95.527ZM392.21 96.7338L392.304 98.4675L386.034 98.8098L385.939 97.0761L392.21 96.7338ZM388.264 108.078L387.589 95.6964C387.551 95.0029 387.671 94.4191 387.949 93.9451C388.228 93.4662 388.611 93.0999 389.099 92.8462C389.588 92.5877 390.126 92.4424 390.713 92.4104C391.146 92.3867 391.519 92.4026 391.831 92.458C392.143 92.5086 392.375 92.5587 392.528 92.6084L392.118 94.3841C392.015 94.3607 391.883 94.3341 391.722 94.3043C391.561 94.2696 391.367 94.2585 391.141 94.2708C390.616 94.2995 390.247 94.45 390.035 94.7224C389.828 94.9946 389.737 95.3762 389.764 95.8675L390.424 107.96L388.264 108.078ZM399.401 107.695C398.308 107.754 397.354 107.572 396.539 107.148C395.728 106.719 395.085 106.09 394.61 105.261C394.139 104.427 393.872 103.434 393.81 102.283C393.748 101.147 393.905 100.134 394.281 99.2435C394.663 98.3533 395.223 97.6441 395.962 97.1159C396.706 96.5874 397.593 96.2951 398.624 96.2388C399.25 96.2046 399.862 96.275 400.461 96.4501C401.06 96.6251 401.605 96.9214 402.096 97.3389C402.588 97.7565 402.988 98.3119 403.296 99.0051C403.604 99.6935 403.785 100.541 403.84 101.547L403.882 102.313L395.062 102.795L394.974 101.176L401.677 100.811C401.646 100.242 401.503 99.7453 401.248 99.3197C400.993 98.8893 400.649 98.5579 400.216 98.3255C399.788 98.0929 399.294 97.9918 398.736 98.0223C398.129 98.0554 397.607 98.2336 397.171 98.5569C396.739 98.8751 396.413 99.2793 396.194 99.7695C395.979 100.255 395.886 100.774 395.917 101.328L395.986 102.592C396.026 103.334 396.19 103.957 396.479 104.463C396.772 104.969 397.162 105.346 397.649 105.595C398.136 105.839 398.695 105.944 399.326 105.909C399.735 105.887 400.105 105.809 400.436 105.675C400.766 105.536 401.048 105.342 401.281 105.092C401.513 104.843 401.685 104.541 401.796 104.188L403.861 104.444C403.73 105.055 403.465 105.599 403.066 106.075C402.671 106.545 402.163 106.923 401.541 107.208C400.924 107.488 400.21 107.651 399.401 107.695Z" fill="white"/>
<rect x="291.482" y="79.7855" width="134.017" height="53.0506" rx="26.5253" transform="rotate(-3.12443 291.482 79.7855)" stroke="#D5F2E4" stroke-opacity="0.2" stroke-width="0.915245"/>
<rect x="803.578" y="564.834" width="141.107" height="57.499" rx="28.7495" transform="rotate(-2.54111 803.578 564.834)" fill="#5CADF8"/>
<path d="M832.14 584.824L834.795 584.706L839.911 595.772L840.081 595.764L844.197 584.289L846.851 584.171L847.495 598.67L845.414 598.762L844.948 588.27L844.813 588.276L841.002 598.937L839.275 599.013L834.533 588.725L834.399 588.731L834.865 599.23L832.784 599.323L832.14 584.824ZM855.202 598.548C854.131 598.595 853.198 598.407 852.403 597.984C851.613 597.555 850.99 596.933 850.533 596.116C850.08 595.294 849.829 594.32 849.779 593.192C849.729 592.078 849.894 591.087 850.271 590.219C850.653 589.351 851.209 588.662 851.939 588.152C852.673 587.641 853.545 587.364 854.555 587.319C855.168 587.292 855.767 587.367 856.352 587.544C856.937 587.722 857.468 588.017 857.945 588.431C858.422 588.845 858.808 589.393 859.103 590.075C859.398 590.752 859.568 591.584 859.611 592.571L859.645 593.321L851 593.705L850.93 592.119L857.5 591.827C857.475 591.271 857.34 590.782 857.094 590.363C856.849 589.939 856.515 589.611 856.093 589.379C855.676 589.147 855.194 589.043 854.646 589.067C854.052 589.093 853.539 589.263 853.108 589.575C852.682 589.882 852.359 590.275 852.139 590.753C851.924 591.226 851.828 591.734 851.852 592.277L851.907 593.516C851.939 594.242 852.094 594.855 852.372 595.354C852.654 595.852 853.032 596.225 853.507 596.474C853.981 596.717 854.527 596.826 855.146 596.798C855.547 596.78 855.91 596.707 856.235 596.579C856.56 596.447 856.838 596.26 857.069 596.018C857.299 595.776 857.471 595.482 857.583 595.136L859.602 595.409C859.468 596.006 859.203 596.535 858.808 596.997C858.416 597.454 857.915 597.82 857.303 598.093C856.695 598.361 855.995 598.512 855.202 598.548ZM866.286 598.049C865.409 598.088 864.615 597.898 863.906 597.48C863.202 597.058 862.635 596.437 862.206 595.619C861.782 594.796 861.544 593.797 861.492 592.622C861.439 591.447 861.591 590.433 861.945 589.58C862.305 588.727 862.819 588.064 863.488 587.589C864.158 587.115 864.929 586.859 865.802 586.82C866.477 586.79 867.025 586.879 867.446 587.087C867.871 587.291 868.203 587.536 868.443 587.823C868.688 588.11 868.879 588.364 869.016 588.585L869.143 588.58L868.904 583.192L871.021 583.098L871.665 597.597L869.597 597.689L869.522 595.997L869.345 596.005C869.228 596.242 869.056 596.514 868.828 596.822C868.605 597.13 868.291 597.404 867.886 597.644C867.48 597.885 866.947 598.019 866.286 598.049ZM866.674 596.223C867.282 596.196 867.79 596.012 868.196 595.673C868.606 595.328 868.907 594.863 869.098 594.278C869.295 593.692 869.376 593.017 869.342 592.252C869.308 591.497 869.171 590.841 868.928 590.285C868.686 589.728 868.348 589.301 867.914 589.003C867.48 588.706 866.953 588.57 866.335 588.598C865.698 588.626 865.174 588.815 864.764 589.164C864.354 589.513 864.053 589.978 863.861 590.559C863.674 591.14 863.597 591.789 863.629 592.506C863.661 593.233 863.798 593.882 864.041 594.453C864.284 595.023 864.626 595.469 865.065 595.79C865.51 596.106 866.046 596.25 866.674 596.223ZM874.686 597.463L874.203 586.589L876.32 586.495L876.803 597.369L874.686 597.463ZM875.198 584.864C874.83 584.88 874.508 584.771 874.233 584.538C873.962 584.299 873.819 584.007 873.804 583.663C873.788 583.314 873.905 583.01 874.154 582.753C874.407 582.492 874.717 582.352 875.086 582.336C875.454 582.32 875.773 582.431 876.044 582.67C876.319 582.903 876.464 583.195 876.48 583.544C876.495 583.889 876.376 584.192 876.123 584.454C875.874 584.711 875.566 584.847 875.198 584.864ZM884.241 597.259C883.188 597.306 882.271 597.108 881.49 596.665C880.714 596.217 880.104 595.579 879.66 594.752C879.217 593.926 878.971 592.967 878.923 591.877C878.874 590.772 879.038 589.789 879.416 588.925C879.794 588.057 880.349 587.368 881.083 586.858C881.817 586.348 882.697 586.07 883.721 586.025C884.547 585.988 885.29 586.109 885.95 586.387C886.61 586.66 887.15 587.062 887.571 587.592C887.997 588.121 888.263 588.75 888.371 589.478L886.311 589.57C886.175 589.065 885.896 588.638 885.474 588.288C885.056 587.937 884.51 587.777 883.835 587.807C883.245 587.833 882.735 588.012 882.306 588.343C881.88 588.669 881.558 589.124 881.338 589.706C881.117 590.283 881.024 590.958 881.059 591.732C881.094 592.525 881.245 593.204 881.511 593.769C881.777 594.335 882.137 594.766 882.59 595.062C883.047 595.359 883.576 595.494 884.175 595.467C884.576 595.449 884.937 595.36 885.256 595.199C885.579 595.034 885.846 594.807 886.055 594.518C886.27 594.23 886.413 593.888 886.485 593.492L888.545 593.401C888.501 594.107 888.3 594.745 887.942 595.314C887.584 595.883 887.092 596.34 886.464 596.685C885.841 597.03 885.1 597.221 884.241 597.259ZM894.137 596.841C893.448 596.872 892.819 596.772 892.251 596.542C891.683 596.307 891.225 595.951 890.877 595.475C890.534 594.998 890.347 594.404 890.316 593.691C890.288 593.077 890.384 592.567 890.602 592.16C890.821 591.753 891.125 591.425 891.516 591.176C891.907 590.927 892.348 590.733 892.838 590.593C893.329 590.453 893.83 590.34 894.341 590.256C894.989 590.152 895.515 590.067 895.919 590.002C896.323 589.932 896.614 589.836 896.793 589.715C896.972 589.593 897.056 589.405 897.045 589.15L897.042 589.101C897.015 588.482 896.819 588.011 896.455 587.687C896.095 587.362 895.573 587.215 894.889 587.246C894.176 587.277 893.621 587.46 893.225 587.795C892.833 588.124 892.567 588.484 892.429 588.873L890.419 588.508C890.626 587.837 890.947 587.288 891.382 586.862C891.821 586.431 892.334 586.111 892.921 585.9C893.507 585.685 894.128 585.563 894.784 585.534C895.219 585.514 895.681 585.546 896.172 585.628C896.667 585.705 897.133 585.869 897.57 586.119C898.011 586.369 898.38 586.738 898.676 587.226C898.972 587.71 899.137 588.348 899.172 589.141L899.493 596.362L897.425 596.454L897.359 594.967L897.274 594.971C897.15 595.251 896.956 595.529 896.694 595.805C896.432 596.082 896.09 596.317 895.669 596.511C895.247 596.704 894.736 596.814 894.137 596.841ZM894.522 595.122C895.107 595.096 895.602 594.958 896.007 594.708C896.417 594.458 896.722 594.142 896.923 593.759C897.128 593.372 897.221 592.964 897.202 592.534L897.14 591.132C897.067 591.211 896.924 591.288 896.71 591.364C896.5 591.435 896.26 591.5 895.988 591.559C895.716 591.614 895.451 591.666 895.193 591.715C894.935 591.76 894.719 591.798 894.546 591.829C894.138 591.899 893.766 592.003 893.432 592.141C893.102 592.279 892.841 592.467 892.648 592.708C892.46 592.943 892.374 593.25 892.391 593.627C892.414 594.151 892.626 594.539 893.025 594.791C893.423 595.038 893.922 595.148 894.522 595.122ZM902.312 596.237L901.829 585.363L903.875 585.272L903.952 586.999L904.065 586.994C904.238 586.4 904.567 585.925 905.052 585.567C905.542 585.205 906.105 585.01 906.743 584.982C906.875 584.976 907.031 584.974 907.21 584.975C907.395 584.976 907.539 584.982 907.644 584.991L907.734 587.016C907.648 586.996 907.496 586.977 907.277 586.958C907.059 586.935 906.841 586.928 906.624 586.938C906.123 586.96 905.682 587.086 905.3 587.316C904.922 587.54 904.628 587.844 904.418 588.227C904.208 588.605 904.113 589.03 904.134 589.502L904.429 596.143L902.312 596.237ZM914.27 595.926C913.199 595.974 912.266 595.786 911.472 595.362C910.682 594.934 910.058 594.311 909.601 593.495C909.149 592.673 908.897 591.698 908.847 590.57C908.798 589.456 908.962 588.465 909.34 587.597C909.722 586.729 910.278 586.04 911.007 585.53C911.741 585.02 912.613 584.742 913.623 584.698C914.237 584.67 914.836 584.745 915.421 584.923C916.005 585.1 916.536 585.396 917.014 585.81C917.491 586.224 917.877 586.772 918.172 587.454C918.467 588.131 918.636 588.963 918.68 589.949L918.713 590.7L910.069 591.083L909.999 589.498L916.568 589.206C916.544 588.649 916.408 588.161 916.163 587.741C915.917 587.317 915.583 586.989 915.162 586.757C914.745 586.525 914.262 586.421 913.715 586.446C913.12 586.472 912.608 586.641 912.177 586.954C911.751 587.261 911.428 587.654 911.208 588.132C910.992 588.605 910.896 589.112 910.921 589.655L910.976 590.894C911.008 591.621 911.163 592.234 911.44 592.732C911.722 593.23 912.101 593.604 912.575 593.852C913.049 594.096 913.596 594.204 914.214 594.177C914.615 594.159 914.978 594.086 915.304 593.958C915.629 593.825 915.907 593.638 916.137 593.396C916.368 593.154 916.539 592.86 916.651 592.515L918.671 592.787C918.537 593.384 918.272 593.914 917.876 594.376C917.485 594.833 916.983 595.198 916.371 595.471C915.764 595.739 915.063 595.891 914.27 595.926Z" fill="white"/>
<rect x="803.578" y="564.834" width="141.107" height="57.499" rx="28.7495" transform="rotate(-2.54111 803.578 564.834)" stroke="#F2F4F7" stroke-width="1.10865"/>
<rect x="216.385" y="568.536" width="168.85" height="52.4162" rx="26.2081" transform="rotate(3.11595 216.385 568.536)" fill="#5CADF8"/>
<path d="M239.959 602.576L240.684 589.268L248.936 589.717L248.842 591.446L242.598 591.106L242.377 595.16L248.03 595.468L247.936 597.19L242.283 596.882L241.967 602.685L239.959 602.576ZM250.525 603.151L251.068 593.17L253.011 593.276L252.468 603.257L250.525 603.151ZM252.134 591.683C251.796 591.665 251.512 591.537 251.281 591.298C251.055 591.055 250.951 590.776 250.968 590.46C250.986 590.139 251.12 589.873 251.37 589.661C251.625 589.444 251.922 589.345 252.26 589.364C252.598 589.382 252.88 589.512 253.105 589.755C253.336 589.993 253.442 590.273 253.425 590.594C253.407 590.91 253.271 591.176 253.016 591.393C252.766 591.605 252.471 591.702 252.134 591.683ZM257.347 597.579L257.025 603.505L255.082 603.399L255.625 593.418L257.49 593.52L257.402 595.144L257.525 595.151C257.784 594.635 258.166 594.23 258.673 593.936C259.185 593.642 259.815 593.516 260.564 593.557C261.245 593.594 261.832 593.769 262.328 594.083C262.824 594.392 263.197 594.834 263.449 595.408C263.7 595.982 263.803 596.681 263.758 597.504L263.412 603.853L261.47 603.747L261.802 597.632C261.842 596.909 261.684 596.333 261.329 595.905C260.975 595.473 260.468 595.239 259.81 595.204C259.359 595.179 258.953 595.255 258.592 595.43C258.235 595.607 257.944 595.878 257.72 596.243C257.5 596.605 257.376 597.05 257.347 597.579ZM268.911 604.374C268.278 604.339 267.713 604.191 267.214 603.929C266.716 603.663 266.33 603.297 266.056 602.83C265.785 602.363 265.668 601.803 265.704 601.149C265.735 600.586 265.868 600.128 266.104 599.776C266.341 599.424 266.649 599.152 267.029 598.959C267.409 598.767 267.829 598.629 268.29 598.546C268.75 598.462 269.218 598.405 269.694 598.375C270.295 598.338 270.783 598.308 271.158 598.285C271.534 598.257 271.808 598.196 271.983 598.102C272.158 598.007 272.251 597.843 272.264 597.609L272.267 597.563C272.297 596.996 272.161 596.547 271.857 596.218C271.558 595.889 271.094 595.707 270.466 595.673C269.812 595.637 269.289 595.754 268.896 596.024C268.508 596.29 268.233 596.594 268.071 596.937L266.268 596.422C266.517 595.827 266.86 595.355 267.296 595.005C267.737 594.651 268.235 594.404 268.79 594.265C269.345 594.121 269.924 594.066 270.526 594.099C270.925 594.121 271.344 594.191 271.785 594.311C272.231 594.426 272.642 594.618 273.018 594.886C273.399 595.155 273.703 595.525 273.929 595.998C274.155 596.467 274.249 597.065 274.209 597.793L273.848 604.421L271.951 604.317L272.025 602.953L271.947 602.949C271.808 603.193 271.606 603.43 271.342 603.659C271.077 603.888 270.743 604.071 270.34 604.21C269.938 604.349 269.461 604.403 268.911 604.374ZM269.418 602.837C269.955 602.866 270.42 602.785 270.813 602.594C271.21 602.402 271.518 602.141 271.736 601.81C271.958 601.474 272.08 601.109 272.101 600.715L272.171 599.428C272.098 599.494 271.961 599.552 271.758 599.601C271.56 599.647 271.334 599.685 271.081 599.714C270.827 599.74 270.58 599.763 270.34 599.785C270.1 599.802 269.9 599.817 269.738 599.83C269.359 599.857 269.01 599.919 268.692 600.015C268.378 600.11 268.122 600.259 267.925 600.462C267.731 600.66 267.625 600.932 267.606 601.278C267.58 601.759 267.738 602.133 268.08 602.399C268.422 602.661 268.868 602.807 269.418 602.837ZM279.104 591.359L278.379 604.667L276.436 604.562L277.161 591.254L279.104 591.359ZM285.992 605.082L286.716 591.774L295.06 592.228L294.966 593.956L288.63 593.611L288.409 597.666L294.31 597.987L294.216 599.709L288.315 599.388L288.094 603.463L294.507 603.812L294.413 605.54L285.992 605.082ZM298.938 595.776L300.93 599.782L303.363 596.017L305.488 596.132L302.104 600.954L304.971 606.115L302.846 605.999L300.801 602.147L298.356 605.755L296.225 605.639L299.602 600.817L296.807 595.66L298.938 595.776ZM306.736 609.965L307.483 596.241L309.381 596.344L309.293 597.962L309.455 597.971C309.579 597.769 309.755 597.538 309.982 597.276C310.209 597.015 310.516 596.793 310.904 596.61C311.293 596.422 311.796 596.346 312.416 596.379C313.222 596.423 313.93 596.666 314.54 597.108C315.15 597.549 315.614 598.163 315.932 598.949C316.254 599.736 316.386 600.669 316.327 601.747C316.269 602.826 316.038 603.741 315.637 604.493C315.236 605.24 314.71 605.804 314.059 606.186C313.408 606.563 312.68 606.73 311.874 606.686C311.268 606.653 310.777 606.524 310.403 606.3C310.033 606.075 309.747 605.821 309.545 605.536C309.343 605.252 309.19 605 309.084 604.781L308.967 604.775L308.679 610.071L306.736 609.965ZM309.116 601.335C309.077 602.037 309.146 602.658 309.32 603.197C309.495 603.737 309.767 604.167 310.137 604.487C310.506 604.802 310.97 604.975 311.529 605.006C312.11 605.037 312.603 604.91 313.01 604.623C313.417 604.333 313.734 603.926 313.963 603.404C314.195 602.883 314.33 602.288 314.366 601.621C314.402 600.963 314.334 600.366 314.164 599.831C313.997 599.296 313.725 598.866 313.347 598.542C312.974 598.217 312.495 598.039 311.91 598.007C311.347 597.976 310.863 598.096 310.457 598.365C310.056 598.634 309.741 599.023 309.513 599.532C309.286 600.041 309.153 600.642 309.116 601.335ZM322.524 607.273C321.541 607.219 320.705 606.963 320.018 606.504C319.335 606.041 318.821 605.416 318.478 604.628C318.138 603.836 317.997 602.922 318.053 601.887C318.109 600.865 318.349 599.974 318.772 599.215C319.2 598.456 319.771 597.877 320.483 597.477C321.2 597.077 322.022 596.902 322.949 596.953C323.512 596.983 324.053 597.106 324.572 597.321C325.09 597.536 325.548 597.854 325.947 598.276C326.345 598.697 326.649 599.233 326.857 599.883C327.065 600.529 327.144 601.304 327.095 602.21L327.057 602.899L319.123 602.467L319.202 601.011L325.233 601.339C325.261 600.828 325.181 600.37 324.995 599.964C324.808 599.554 324.533 599.224 324.169 598.974C323.809 598.724 323.377 598.586 322.875 598.558C322.329 598.529 321.845 598.637 321.423 598.883C321.006 599.126 320.675 599.455 320.431 599.872C320.191 600.285 320.058 600.74 320.031 601.239L319.969 602.376C319.933 603.043 320.019 603.617 320.227 604.097C320.44 604.578 320.752 604.954 321.163 605.224C321.574 605.489 322.064 605.638 322.631 605.669C322.999 605.689 323.338 605.655 323.647 605.567C323.956 605.476 324.227 605.33 324.459 605.129C324.692 604.929 324.875 604.676 325.009 604.371L326.83 604.802C326.653 605.336 326.363 605.796 325.96 606.182C325.561 606.565 325.069 606.853 324.485 607.047C323.906 607.237 323.252 607.312 322.524 607.273ZM331.239 601.601L330.916 607.527L328.973 607.422L329.517 597.441L331.382 597.542L331.293 599.167L331.417 599.173C331.675 598.657 332.058 598.252 332.565 597.958C333.076 597.665 333.706 597.538 334.456 597.579C335.136 597.616 335.724 597.791 336.219 598.105C336.715 598.415 337.089 598.856 337.34 599.431C337.591 600.005 337.694 600.703 337.649 601.526L337.304 607.875L335.361 607.769L335.694 601.655C335.733 600.931 335.576 600.356 335.221 599.928C334.866 599.496 334.36 599.262 333.701 599.226C333.251 599.201 332.845 599.277 332.483 599.453C332.126 599.629 331.835 599.9 331.611 600.266C331.392 600.627 331.268 601.073 331.239 601.601ZM347.8 600.88L346.022 601.096C345.96 600.867 345.855 600.646 345.706 600.433C345.561 600.221 345.358 600.043 345.096 599.898C344.835 599.754 344.502 599.671 344.1 599.649C343.549 599.619 343.083 599.717 342.702 599.944C342.32 600.167 342.119 600.471 342.098 600.856C342.08 601.19 342.189 601.465 342.425 601.682C342.661 601.899 343.05 602.088 343.593 602.248L345.159 602.698C346.066 602.96 346.732 603.324 347.159 603.791C347.585 604.257 347.779 604.843 347.741 605.55C347.708 606.147 347.506 606.671 347.134 607.12C346.767 607.565 346.268 607.902 345.639 608.133C345.013 608.364 344.298 608.458 343.492 608.414C342.374 608.353 341.475 608.065 340.795 607.55C340.115 607.031 339.719 606.325 339.607 605.433L341.501 605.249C341.591 605.745 341.811 606.128 342.161 606.399C342.512 606.666 342.979 606.815 343.564 606.847C344.201 606.882 344.717 606.777 345.113 606.534C345.509 606.286 345.717 605.969 345.738 605.584C345.755 605.272 345.652 605.004 345.43 604.779C345.212 604.554 344.868 604.374 344.397 604.24L342.728 603.778C341.808 603.515 341.138 603.139 340.717 602.651C340.3 602.164 340.111 601.565 340.15 600.854C340.182 600.265 340.374 599.759 340.728 599.335C341.081 598.911 341.555 598.591 342.148 598.376C342.743 598.156 343.414 598.067 344.164 598.108C345.243 598.166 346.079 598.446 346.673 598.948C347.267 599.445 347.643 600.089 347.8 600.88ZM354.011 608.987C353.027 608.933 352.192 608.677 351.504 608.218C350.821 607.755 350.308 607.13 349.964 606.342C349.625 605.55 349.483 604.636 349.54 603.601C349.595 602.579 349.835 601.688 350.259 600.929C350.687 600.17 351.257 599.591 351.97 599.191C352.687 598.791 353.509 598.616 354.436 598.667C354.999 598.697 355.54 598.82 356.058 599.035C356.576 599.25 357.035 599.569 357.433 599.99C357.832 600.411 358.135 600.947 358.343 601.597C358.551 602.243 358.631 603.018 358.581 603.924L358.544 604.613L350.61 604.181L350.689 602.725L356.719 603.053C356.747 602.542 356.668 602.084 356.481 601.678C356.295 601.268 356.02 600.938 355.655 600.688C355.295 600.438 354.864 600.3 354.361 600.272C353.816 600.243 353.332 600.351 352.91 600.597C352.493 600.84 352.162 601.169 351.918 601.586C351.678 601.999 351.544 602.454 351.517 602.953L351.455 604.09C351.419 604.757 351.505 605.331 351.714 605.811C351.926 606.292 352.238 606.668 352.649 606.938C353.061 607.203 353.55 607.352 354.118 607.383C354.486 607.403 354.824 607.369 355.133 607.281C355.443 607.19 355.713 607.044 355.946 606.843C356.178 606.643 356.362 606.39 356.495 606.085L358.316 606.516C358.14 607.05 357.85 607.51 357.446 607.896C357.047 608.279 356.556 608.567 355.972 608.761C355.392 608.951 354.739 609.026 354.011 608.987Z" fill="#F2F7FA"/>
<rect x="216.385" y="568.536" width="168.85" height="52.4162" rx="26.2081" transform="rotate(3.11595 216.385 568.536)" stroke="#F2F4F7" stroke-width="1.01809"/>
<defs>
<linearGradient id="paint0_linear_1_3727" x1="2160" y1="864" x2="2160" y2="1477" gradientUnits="userSpaceOnUse">
<stop stop-color="#F9FAFB"/>
<stop offset="1" stop-color="#F9FAFB" stop-opacity="0"/>
</linearGradient>
</defs>
</svg>
