<svg width="41" height="40" viewBox="0 0 41 40" fill="none" xmlns="http://www.w3.org/2000/svg">
<path d="M14.3001 14.7556C15.4601 17.1717 17.0415 19.436 19.044 21.4387C21.0467 23.4413 23.3112 25.0227 25.7272 26.1827C25.935 26.2823 26.0388 26.3323 26.1703 26.3707C26.6377 26.5068 27.2113 26.409 27.607 26.1257C27.7185 26.0458 27.8137 25.9507 28.0042 25.7602C28.5868 25.1773 28.8782 24.886 29.1712 24.6957C30.276 23.9773 31.7003 23.9773 32.8052 24.6957C33.0982 24.886 33.3895 25.1773 33.9722 25.7602L34.2968 26.0848C35.1827 26.9707 35.6255 27.4135 35.866 27.8892C36.3445 28.835 36.3445 29.9522 35.866 30.8982C35.6255 31.3737 35.1827 31.8167 34.2968 32.7023L34.0342 32.965C33.1515 33.8478 32.7102 34.2892 32.11 34.6262C31.4442 35.0002 30.41 35.2692 29.6463 35.2668C28.9582 35.2648 28.4877 35.1313 27.547 34.8643C22.4913 33.4293 17.7207 30.722 13.7408 26.742C9.7608 22.762 7.05335 17.9913 5.6184 12.9357C5.35139 11.995 5.21787 11.5246 5.21583 10.8364C5.21355 10.0727 5.48249 9.03852 5.85652 8.37267C6.1936 7.77262 6.63495 7.33127 7.51767 6.44855L7.78038 6.18583C8.66612 5.3001 9.109 4.85722 9.58463 4.61665C10.5306 4.1382 11.6477 4.1382 12.5936 4.61665C13.0692 4.85722 13.5121 5.3001 14.3979 6.18583L14.7226 6.51062C15.3053 7.09328 15.5967 7.38463 15.7871 7.67758C16.5055 8.78242 16.5055 10.2067 15.7871 11.3115C15.5967 11.6045 15.3053 11.8958 14.7226 12.4785C14.5321 12.669 14.4369 12.7643 14.3571 12.8756C14.0738 13.2714 13.9759 13.8451 14.1121 14.3124C14.1505 14.4439 14.2004 14.5478 14.3001 14.7556Z" stroke="#44657A" stroke-width="3" stroke-linecap="round" stroke-linejoin="round"/>
</svg>
