<svg width="986" height="986" viewBox="0 0 986 986" fill="none" xmlns="http://www.w3.org/2000/svg">
<path d="M887.203 785.822H821.891V786.315H887.203V785.822Z" fill="#F2F7FA"/>
<path d="M653.166 791.187H636.029V791.68H653.166V791.187Z" fill="#F2F7FA"/>
<path d="M819.918 767.522H782.075V768.015H819.918V767.522Z" fill="#F2F7FA"/>
<path d="M188.622 770.836H103.451V771.329H188.622V770.836Z" fill="#F2F7FA"/>
<path d="M218.675 770.836H206.192V771.329H218.675V770.836Z" fill="#F2F7FA"/>
<path d="M443.996 779.157H259.259V779.65H443.996V779.157Z" fill="#F2F7FA"/>
<path d="M986 754.093H0V754.586H986V754.093Z" fill="#F2F7FA"/>
<path d="M781.504 651.825H831.297C833.425 651.828 835.532 651.411 837.499 650.599C839.465 649.786 841.252 648.594 842.758 647.09C844.263 645.587 845.458 643.801 846.273 641.835C847.087 639.87 847.507 637.763 847.507 635.635V562.849C847.507 562.064 847.195 561.312 846.64 560.757C846.086 560.202 845.333 559.891 844.549 559.891C843.764 559.891 843.012 560.202 842.457 560.757C841.902 561.312 841.591 562.064 841.591 562.849V635.635C841.586 638.362 840.499 640.975 838.569 642.901C836.639 644.827 834.024 645.909 831.297 645.909H781.504V651.825Z" fill="#F2F7FA"/>
<path d="M767.266 721.615V653.817L763.322 652.555C761.138 651.871 759.229 650.507 757.874 648.663C756.52 646.818 755.789 644.589 755.789 642.301H793.335C793.335 644.589 792.604 646.818 791.249 648.663C789.895 650.507 787.986 651.871 785.802 652.555L781.858 653.817V721.615L813.055 735.557V741.473L774.542 728.024L736.049 741.473V735.557L767.266 721.615Z" fill="#F2F7FA"/>
<path d="M725.44 645.909H823.665C826.491 645.909 829.202 644.788 831.202 642.791C833.202 640.795 834.329 638.086 834.334 635.26C834.334 632.431 833.21 629.717 831.209 627.716C829.208 625.716 826.495 624.592 823.665 624.592H725.44C722.611 624.592 719.897 625.716 717.896 627.716C715.896 629.717 714.771 632.431 714.771 635.26C714.777 638.086 715.903 640.795 717.903 642.791C719.903 644.788 722.614 645.909 725.44 645.909Z" fill="#5CADF8" fill-opacity="0.3"/>
<path d="M840.999 588.465L846.303 512.72C846.499 509.905 845.571 507.128 843.723 504.995C841.875 502.863 839.257 501.549 836.443 501.342C833.63 501.147 830.855 502.075 828.725 503.924C826.596 505.772 825.287 508.39 825.085 511.202L819.78 587.006C819.579 589.822 820.505 592.603 822.354 594.736C824.203 596.87 826.824 598.182 829.64 598.384C832.461 598.574 835.242 597.635 837.372 595.775C839.502 593.915 840.806 591.286 840.999 588.465Z" fill="#F2F7FA"/>
<path d="M806.331 745.712C806.331 747.047 806.727 748.351 807.469 749.461C808.211 750.57 809.265 751.435 810.499 751.945C811.732 752.455 813.089 752.587 814.398 752.325C815.707 752.063 816.909 751.419 817.851 750.474C818.794 749.529 819.434 748.325 819.692 747.016C819.95 745.706 819.814 744.349 819.3 743.117C818.787 741.885 817.919 740.833 816.808 740.095C815.696 739.356 814.39 738.964 813.056 738.968C811.27 738.973 809.56 739.686 808.299 740.95C807.039 742.214 806.331 743.927 806.331 745.712Z" fill="#F2F7FA"/>
<path d="M729.305 745.712C729.305 747.046 729.7 748.35 730.441 749.459C731.182 750.568 732.236 751.432 733.468 751.943C734.7 752.453 736.056 752.587 737.365 752.327C738.673 752.066 739.875 751.424 740.818 750.481C741.761 749.538 742.403 748.336 742.664 747.028C742.924 745.719 742.79 744.363 742.28 743.131C741.769 741.899 740.905 740.845 739.796 740.104C738.687 739.363 737.383 738.968 736.049 738.968C734.26 738.968 732.545 739.678 731.28 740.943C730.015 742.208 729.305 743.923 729.305 745.712Z" fill="#F2F7FA"/>
<path d="M197.713 651.825H147.9C145.772 651.828 143.665 651.411 141.699 650.599C139.732 649.786 137.945 648.594 136.439 647.09C134.934 645.587 133.74 643.801 132.925 641.835C132.11 639.87 131.69 637.763 131.69 635.635V562.849C131.69 562.064 132.002 561.312 132.557 560.757C133.112 560.202 133.864 559.891 134.648 559.891C135.433 559.891 136.185 560.202 136.74 560.757C137.295 561.312 137.606 562.064 137.606 562.849V635.635C137.612 638.362 138.698 640.975 140.628 642.901C142.558 644.827 145.174 645.909 147.9 645.909H197.693L197.713 651.825Z" fill="#F2F7FA"/>
<path d="M211.951 721.615V653.817L215.895 652.555C218.079 651.871 219.987 650.507 221.342 648.663C222.697 646.818 223.428 644.589 223.428 642.301H185.96C185.96 644.589 186.691 646.818 188.046 648.663C189.401 650.507 191.309 651.871 193.493 652.555L197.437 653.817V721.615L166.161 735.557V741.473L204.674 728.024L243.187 741.473V735.557L211.951 721.615Z" fill="#F2F7FA"/>
<path d="M253.777 645.909H155.551C152.725 645.909 150.015 644.788 148.015 642.791C146.014 640.795 144.888 638.086 144.883 635.26C144.883 632.431 146.007 629.717 148.008 627.716C150.008 625.716 152.722 624.592 155.551 624.592H253.777C256.606 624.592 259.32 625.716 261.32 627.716C263.321 629.717 264.445 632.431 264.445 635.26C264.44 638.086 263.314 640.795 261.313 642.791C259.313 644.788 256.603 645.909 253.777 645.909Z" fill="#5CADF8" fill-opacity="0.3"/>
<path d="M138.217 588.465L132.912 512.72C132.717 509.905 133.645 507.128 135.493 504.995C137.341 502.863 139.958 501.549 142.772 501.342C145.585 501.147 148.361 502.075 150.49 503.924C152.62 505.772 153.929 508.39 154.131 511.202L159.436 587.006C159.636 589.822 158.711 592.603 156.862 594.736C155.013 596.87 152.392 598.182 149.576 598.384C146.754 598.574 143.973 597.635 141.843 595.775C139.714 593.915 138.409 591.286 138.217 588.465Z" fill="#F2F7FA"/>
<path d="M172.885 745.712C172.885 747.047 172.489 748.351 171.747 749.461C171.005 750.57 169.951 751.435 168.717 751.945C167.484 752.455 166.127 752.587 164.818 752.325C163.509 752.063 162.307 751.419 161.365 750.474C160.422 749.529 159.782 748.325 159.524 747.016C159.266 745.706 159.402 744.349 159.916 743.117C160.429 741.885 161.297 740.833 162.408 740.095C163.52 739.356 164.826 738.964 166.16 738.968C167.946 738.973 169.656 739.686 170.917 740.95C172.177 742.214 172.885 743.927 172.885 745.712Z" fill="#F2F7FA"/>
<path d="M249.911 745.712C249.911 747.047 249.515 748.351 248.773 749.461C248.031 750.57 246.977 751.435 245.743 751.945C244.51 752.455 243.153 752.587 241.844 752.325C240.535 752.063 239.334 751.419 238.391 750.474C237.449 749.529 236.808 748.325 236.55 747.016C236.292 745.706 236.428 744.349 236.942 743.117C237.455 741.885 238.323 740.833 239.435 740.095C240.546 739.356 241.852 738.964 243.187 738.968C244.972 738.973 246.682 739.686 247.943 740.95C249.203 742.214 249.911 743.927 249.911 745.712Z" fill="#F2F7FA"/>
<path d="M409.328 754.665H370.854L366.91 681.74H413.272L409.328 754.665Z" fill="#F2F7FA"/>
<path d="M379.728 754.665H363.952V751.431L379.728 749.459V754.665Z" fill="#F2F7FA"/>
<path d="M372.708 675.824H407.336C408.905 675.824 410.41 676.448 411.519 677.557C412.629 678.666 413.252 680.171 413.252 681.74H366.91C366.91 680.171 367.533 678.666 368.643 677.557C369.752 676.448 371.257 675.824 372.826 675.824H372.708Z" fill="#F2F7FA"/>
<path d="M330.428 565.551H268.882V558.175L330.428 554.231V565.551Z" fill="#F2F7FA"/>
<path d="M421.475 573.063H239.4V598.266H421.475V573.063Z" fill="#5CADF8" fill-opacity="0.3"/>
<path d="M459.22 565.551H202.308V580.577H459.22V565.551Z" fill="#5CADF8" fill-opacity="0.5"/>
<path d="M435.359 754.665H446.954L426.879 580.577H413.272L435.359 754.665Z" fill="#F2F7FA"/>
<path d="M248.255 580.577H234.648L214.554 754.665H226.169L248.255 580.577Z" fill="#F2F7FA"/>
<path d="M392.783 561.803C387.524 535.681 382.265 509.558 377.007 483.436C376.237 479.689 370.538 481.286 371.288 484.994L386.314 559.634H353.776C352.992 559.634 352.239 559.946 351.685 560.5C351.13 561.055 350.818 561.807 350.818 562.592C350.818 563.376 351.13 564.129 351.685 564.684C352.239 565.238 352.992 565.55 353.776 565.55H389.923C390.376 565.54 390.82 565.428 391.224 565.223C391.627 565.017 391.979 564.724 392.254 564.364C392.528 564.004 392.718 563.587 392.81 563.144C392.901 562.701 392.892 562.242 392.783 561.803Z" fill="#F2F7FA"/>
<path d="M355.946 540.782L366.082 395.859C369.823 398.538 372.815 402.13 374.772 406.293C376.73 410.457 377.588 415.052 377.264 419.642L370.342 518.794C370.018 523.383 368.525 527.812 366.005 531.661C363.485 535.51 360.023 538.649 355.946 540.782Z" fill="#5CADF8" fill-opacity="0.5"/>
<path d="M434.924 523.429H418.439C415.28 523.429 412.72 525.989 412.72 529.147V559.832C412.72 562.99 415.28 565.551 418.439 565.551H434.924C438.083 565.551 440.643 562.99 440.643 559.832V529.147C440.643 525.989 438.083 523.429 434.924 523.429Z" fill="#F5F5F5"/>
<path d="M423.763 507.731C419.405 507.731 415.875 508.816 415.875 510.157C415.875 511.498 419.425 509.684 423.763 509.684C424.335 509.684 424.887 509.684 425.439 509.684V519.248H427.924V510.058C430.172 510.492 431.651 510.926 431.651 510.058C431.651 508.777 428.121 507.731 423.763 507.731Z" fill="#F2F7FA"/>
<path d="M431.118 516.211H422.225V525.105H431.118V516.211Z" fill="#5CADF8" fill-opacity="0.3"/>
<path d="M557.741 598.266H739.815V573.063H557.741V598.266Z" fill="#5CADF8" fill-opacity="0.3"/>
<path d="M520.017 580.577H776.929V565.551H520.017V580.577Z" fill="#5CADF8" fill-opacity="0.5"/>
<path d="M543.858 754.665H532.263L552.338 580.577H565.944L543.858 754.665Z" fill="#F2F7FA"/>
<path d="M730.98 580.577H744.568L764.662 754.665H753.047L730.98 580.577Z" fill="#F2F7FA"/>
<path d="M687.281 565.551H748.827V558.175L687.281 554.231V565.551Z" fill="#F2F7FA"/>
<path d="M563.46 433.269V565.55H571.999L573.971 553.718C574.333 551.643 575.415 549.761 577.027 548.405C578.64 547.049 580.679 546.305 582.786 546.304H662.395C664.502 546.305 666.541 547.049 668.153 548.405C669.766 549.761 670.848 551.643 671.21 553.718L673.182 565.55H681.721V433.269H563.46Z" fill="#F5F5F5"/>
<path d="M601.717 561.803C606.975 535.681 612.234 509.558 617.493 483.436C618.262 479.689 623.961 481.286 623.211 484.994L608.185 559.634H640.723C641.507 559.634 642.26 559.946 642.814 560.5C643.369 561.055 643.681 561.807 643.681 562.592C643.681 563.376 643.369 564.129 642.814 564.684C642.26 565.238 641.507 565.55 640.723 565.55H604.576C604.124 565.54 603.679 565.428 603.276 565.223C602.872 565.017 602.52 564.724 602.246 564.364C601.971 564.004 601.781 563.587 601.689 563.144C601.598 562.701 601.607 562.242 601.717 561.803Z" fill="#F2F7FA"/>
<path d="M638.553 540.782L628.417 395.859C624.676 398.538 621.684 402.13 619.727 406.293C617.769 410.457 616.912 415.052 617.236 419.642L624.158 518.794C624.478 523.384 625.969 527.815 628.49 531.664C631.01 535.513 634.474 538.652 638.553 540.782Z" fill="#F2F7FA"/>
<path d="M429.225 291.738H106.152V488.603H429.225V291.738Z" fill="#F2F7FA"/>
<path d="M431.631 291.659H429.265V488.524H431.631V291.659Z" fill="#F2F7FA"/>
<path d="M117.886 300.276H115.934V477.421H117.886V300.276Z" fill="#F2F7FA"/>
<path d="M418.695 300.276H115.736V477.421H418.695V300.276Z" fill="#F2F7FA"/>
<path d="M223.053 378.309V386.749H242.733V378.309H223.053Z" fill="#F5F5F5"/>
<path d="M226.898 441.827V448.394H246.579V441.827H226.898Z" fill="#F5F5F5"/>
<path d="M230.093 375.548H166.161V465.392H230.093V375.548Z" fill="#5CADF8" fill-opacity="0.3"/>
<path d="M222.481 456.34V462.907H242.162V456.34H222.481Z" fill="#F5F5F5"/>
<path d="M225.755 396.274V402.841H245.435V396.274H225.755Z" fill="#F5F5F5"/>
<path d="M221.436 412.583V419.149H241.116V412.583H221.436Z" fill="#F5F5F5"/>
<path d="M217.275 386.591H173.693V394.321H217.275V386.591Z" fill="#F2F7FA"/>
<path d="M217.965 419.622H174.384L173.693 416.112H217.255L217.965 419.622Z" fill="#F2F7FA"/>
<path d="M189.154 402.052H173.693V409.782H189.154V402.052Z" fill="#F2F7FA"/>
<path d="M320.825 359.318H295.859V395.169H320.825V359.318Z" fill="#F5F5F5"/>
<path d="M155.295 416.132H130.329V451.983H155.295V416.132Z" fill="#F5F5F5"/>
<path d="M158.687 313.114H133.722V338.08H158.687V313.114Z" fill="#F5F5F5"/>
<path d="M277.047 427.569H252.081V452.535H277.047V427.569Z" fill="#F5F5F5"/>
<path d="M399.666 362.415H335.733V452.259H399.666V362.415Z" fill="#F5F5F5"/>
<path d="M390.416 375.41H344.488V376.396H390.416V375.41Z" fill="#F2F7FA"/>
<path d="M367.936 376.376H366.95V442.911H367.936V376.376Z" fill="#F2F7FA"/>
<path d="M389.036 376.376H388.05V442.911H389.036V376.376Z" fill="#F2F7FA"/>
<path d="M349.202 376.376H348.216V442.911H349.202V376.376Z" fill="#F2F7FA"/>
<path d="M345.909 376.376H344.923V442.911H345.909V376.376Z" fill="#F2F7FA"/>
<path d="M388.051 379.887H345.416V380.873H388.051V379.887Z" fill="#F2F7FA"/>
<path d="M542.694 404.398C542.694 416.015 538.084 427.156 529.876 435.375C521.667 443.595 510.532 448.22 498.916 448.236H482.982V490.003H439.756V507.14C439.513 518.603 434.789 529.514 426.596 537.535C418.403 545.556 407.394 550.047 395.928 550.047C384.463 550.047 373.454 545.556 365.261 537.535C357.068 529.514 352.344 518.603 352.101 507.14V490.003H311.734V448.236H293.394C281.768 448.236 270.618 443.617 262.396 435.396C254.175 427.175 249.557 416.025 249.557 404.398C249.557 392.772 254.175 381.622 262.396 373.401C270.618 365.179 281.768 360.561 293.394 360.561H311.734V318.794H353.501V337.212C353.377 343.046 354.419 348.846 356.566 354.272C358.713 359.697 361.922 364.64 366.004 368.809C370.086 372.979 374.959 376.292 380.338 378.553C385.717 380.815 391.493 381.98 397.328 381.98C403.164 381.98 408.94 380.815 414.319 378.553C419.698 376.292 424.571 372.979 428.653 368.809C432.735 364.64 435.944 359.697 438.091 354.272C440.238 348.846 441.28 343.046 441.156 337.212V318.873H482.923V360.64H498.916C510.519 360.655 521.642 365.27 529.848 373.472C538.054 381.675 542.674 392.796 542.694 404.398Z" fill="#5CADF8"/>
<g opacity="0.5">
<path d="M542.694 404.398C542.694 416.015 538.084 427.156 529.876 435.375C521.667 443.595 510.532 448.22 498.916 448.236H482.982V490.003H439.756V507.14C439.513 518.603 434.789 529.514 426.596 537.535C418.403 545.556 407.394 550.047 395.928 550.047C384.463 550.047 373.454 545.556 365.261 537.535C357.068 529.514 352.344 518.603 352.101 507.14V490.003H311.734V448.236H293.394C281.768 448.236 270.618 443.617 262.396 435.396C254.175 427.175 249.557 416.025 249.557 404.398C249.557 392.772 254.175 381.622 262.396 373.401C270.618 365.179 281.768 360.561 293.394 360.561H311.734V318.794H353.501V337.212C353.377 343.046 354.419 348.846 356.566 354.272C358.713 359.697 361.922 364.64 366.004 368.809C370.086 372.979 374.959 376.292 380.338 378.553C385.717 380.815 391.493 381.98 397.328 381.98C403.164 381.98 408.94 380.815 414.319 378.553C419.698 376.292 424.571 372.979 428.653 368.809C432.735 364.64 435.944 359.697 438.091 354.272C440.238 348.846 441.28 343.046 441.156 337.212V318.873H482.923V360.64H498.916C510.519 360.655 521.642 365.27 529.848 373.472C538.054 381.675 542.674 392.796 542.694 404.398Z" fill="#F2F7FA"/>
</g>
<path d="M499.074 448.019H480.734V489.786H651.943V448.019H667.857C679.484 448.019 690.634 443.4 698.855 435.179C707.076 426.958 711.695 415.808 711.695 404.181C711.695 392.555 707.076 381.404 698.855 373.183C690.634 364.962 679.484 360.344 667.857 360.344H651.943V318.577H610.176V300.237C610.176 288.611 605.558 277.46 597.337 269.239C589.116 261.018 577.965 256.399 566.339 256.399C554.712 256.399 543.562 261.018 535.341 269.239C527.12 277.46 522.501 288.611 522.501 300.237V318.577H480.734V360.344H499.074C510.7 360.344 521.851 364.962 530.072 373.183C538.293 381.404 542.912 392.555 542.912 404.181C542.912 415.808 538.293 426.958 530.072 435.179C521.851 443.4 510.7 448.019 499.074 448.019Z" fill="#5CADF8"/>
<g opacity="0.3">
<path d="M499.074 448.019H480.734V489.786H651.943V448.019H667.857C679.484 448.019 690.634 443.4 698.855 435.179C707.076 426.958 711.695 415.808 711.695 404.181C711.695 392.555 707.076 381.404 698.855 373.183C690.634 364.962 679.484 360.344 667.857 360.344H651.943V318.577H610.176V300.237C610.176 288.611 605.558 277.46 597.337 269.239C589.116 261.018 577.965 256.399 566.339 256.399C554.712 256.399 543.562 261.018 535.341 269.239C527.12 277.46 522.501 288.611 522.501 300.237V318.577H480.734V360.344H499.074C510.7 360.344 521.851 364.962 530.072 373.183C538.293 381.404 542.912 392.555 542.912 404.181C542.912 415.808 538.293 426.958 530.072 435.179C521.851 443.4 510.7 448.019 499.074 448.019Z" fill="#F2F7FA"/>
</g>
<path d="M509.526 299.212L505.838 298.285C501.868 297.468 498 296.218 494.302 294.558L493.809 294.321C490.181 292.566 485.645 290.377 484.679 282.746C484.661 282.264 484.477 281.804 484.156 281.444C483.836 281.084 483.4 280.847 482.924 280.774C449.124 279.137 437.351 261.251 437.331 241.334C437.331 221.811 450.169 203.373 486.631 202.939C520.431 202.525 537.351 223.329 536.325 244.765C535.655 258.45 524.927 277.204 504.517 281.464C502.013 282.312 497.556 282.469 495.998 284.718C495.65 285.262 495.466 285.895 495.466 286.542C495.466 287.188 495.65 287.821 495.998 288.366C496.731 289.486 497.629 290.49 498.66 291.343C502.289 294.459 509.526 299.212 509.526 299.212Z" fill="#F2F7FA"/>
<path d="M509.526 300.198H509.289L505.601 299.291C501.564 298.451 497.63 297.175 493.868 295.485L493.395 295.248C489.746 293.493 484.738 291.087 483.712 282.903C483.712 282.726 483.535 281.76 482.864 281.72C442.418 279.748 436.364 255.591 436.345 241.373C436.345 229.719 441.216 202.544 486.631 201.933C508.066 201.716 520.155 209.584 526.623 216.289C530.275 220.049 533.111 224.522 534.954 229.429C536.796 234.336 537.606 239.57 537.331 244.804C536.655 253.729 533.133 262.2 527.282 268.973C521.432 275.746 513.563 280.463 504.832 282.43C504.006 282.696 503.163 282.907 502.308 283.061C500.198 283.495 497.812 283.988 496.925 285.29C496.682 285.67 496.554 286.111 496.554 286.561C496.554 287.012 496.682 287.453 496.925 287.833C497.605 288.87 498.436 289.801 499.39 290.594C502.919 293.631 510.078 298.324 510.157 298.384C510.349 298.509 510.491 298.699 510.556 298.92C510.621 299.14 510.605 299.377 510.512 299.587C510.433 299.78 510.295 299.943 510.118 300.053C509.941 300.162 509.734 300.213 509.526 300.198ZM487.656 203.905H486.65C442.99 204.438 438.297 230.231 438.317 241.373C438.317 254.901 444.134 277.875 482.963 279.748C483.69 279.824 484.366 280.162 484.863 280.699C485.36 281.236 485.645 281.935 485.664 282.667C486.572 289.766 490.634 291.738 494.243 293.473L494.736 293.71C497.844 295.137 501.097 296.228 504.438 296.964C502.249 295.445 499.745 293.611 498.029 292.132C496.924 291.212 495.966 290.128 495.189 288.918C494.725 288.22 494.478 287.4 494.478 286.561C494.478 285.723 494.725 284.903 495.189 284.205C496.51 282.233 499.311 281.681 501.795 281.168C502.683 280.971 503.55 280.793 504.201 280.576C512.547 278.74 520.081 274.266 525.689 267.817C531.296 261.368 534.68 253.285 535.339 244.765C535.603 239.799 534.837 234.831 533.089 230.175C531.342 225.519 528.65 221.275 525.183 217.709C519.11 211.359 507.672 203.905 487.656 203.905Z" fill="#5CADF8"/>
<path d="M469.336 290.93C471.683 288.267 472.787 285.605 472.196 283.16C470.973 278.013 466.418 278.092 463.479 277.106C443.069 272.827 432.341 258.037 431.671 244.351C430.645 222.915 447.565 202.091 481.365 202.505C517.847 202.959 530.665 221.397 530.665 240.9C530.665 260.758 518.833 278.644 485.073 280.34C483.949 280.34 483.436 281.425 483.298 282.312C482.351 289.944 477.816 292.172 474.187 293.888L473.694 294.124C469.993 295.776 466.126 297.026 462.158 297.851L458.47 298.758C458.47 298.758 466.122 294.519 469.336 290.93Z" fill="#F2F7FA"/>
<path d="M458.411 299.744C458.213 299.747 458.019 299.69 457.854 299.581C457.688 299.472 457.56 299.316 457.485 299.133C457.397 298.911 457.392 298.665 457.472 298.44C457.552 298.215 457.71 298.027 457.918 297.91C457.918 297.91 465.53 293.67 468.528 290.259C470.756 287.695 471.643 285.388 471.17 283.377C470.322 279.807 467.739 279.196 465.018 278.545C464.347 278.387 463.677 278.23 463.046 278.033C441.551 273.536 431.217 257.879 430.567 244.39C430.293 239.153 431.102 233.916 432.945 229.006C434.787 224.096 437.623 219.619 441.275 215.855C447.743 209.17 459.831 201.223 481.267 201.499C526.623 202.071 531.573 229.226 531.553 240.939C531.553 255.157 525.479 279.334 485.033 281.286C484.363 281.286 484.205 282.272 484.185 282.47C483.16 290.634 478.151 293.059 474.503 294.814L474.03 295.051C470.233 296.739 466.266 298.014 462.198 298.857L458.49 299.764L458.411 299.744ZM480.281 203.471C460.245 203.471 448.729 210.925 442.813 217.275C439.346 220.841 436.654 225.085 434.907 229.741C433.159 234.398 432.393 239.365 432.657 244.331C433.268 257.07 443.109 271.939 463.677 276.159C464.327 276.376 464.939 276.514 465.649 276.672C468.37 277.323 472.117 278.21 473.241 282.943C473.872 285.625 472.846 288.524 470.164 291.6C468.434 293.4 466.502 294.995 464.406 296.352C467.486 295.63 470.486 294.6 473.359 293.276L473.852 293.039C477.441 291.304 481.523 289.332 482.43 282.233C482.442 281.499 482.724 280.795 483.222 280.256C483.721 279.718 484.401 279.382 485.132 279.314C523.941 277.441 529.758 254.467 529.778 240.919C529.778 229.857 525.104 204.063 481.425 203.451L480.281 203.471Z" fill="#5CADF8"/>
<path d="M470.105 242.853L478.703 251.45L498.128 235.714" fill="#F2F7FA"/>
<path d="M478.703 253.422C478.443 253.424 478.186 253.374 477.946 253.276C477.706 253.178 477.487 253.033 477.303 252.85L468.705 244.252C468.498 244.075 468.331 243.858 468.212 243.613C468.094 243.369 468.028 243.102 468.017 242.831C468.007 242.559 468.052 242.288 468.152 242.035C468.251 241.782 468.401 241.552 468.593 241.36C468.785 241.168 469.015 241.017 469.268 240.918C469.521 240.819 469.792 240.773 470.064 240.784C470.335 240.794 470.602 240.861 470.846 240.979C471.091 241.098 471.309 241.265 471.485 241.472L478.841 248.808L496.885 234.195C497.084 234.016 497.316 233.88 497.57 233.794C497.823 233.708 498.09 233.675 498.357 233.695C498.623 233.716 498.883 233.791 499.119 233.915C499.356 234.039 499.565 234.21 499.733 234.418C499.902 234.625 500.027 234.864 500.1 235.121C500.173 235.378 500.193 235.648 500.159 235.913C500.125 236.178 500.038 236.433 499.902 236.663C499.766 236.893 499.585 237.094 499.37 237.252L479.945 253.028C479.588 253.296 479.15 253.435 478.703 253.422Z" fill="#5CADF8"/>
<path d="M729.877 196.076C730.388 196.26 730.946 196.274 731.465 196.113C731.984 195.953 732.437 195.629 732.756 195.188L747.704 174.325C747.897 174.062 748.035 173.763 748.111 173.446C748.186 173.129 748.198 172.8 748.144 172.479C748.091 172.157 747.974 171.85 747.8 171.574C747.626 171.298 747.399 171.06 747.132 170.874C746.598 170.495 745.935 170.342 745.289 170.449C744.643 170.557 744.065 170.915 743.681 171.446L728.733 192.309C728.54 192.572 728.402 192.871 728.327 193.188C728.251 193.505 728.239 193.834 728.293 194.155C728.346 194.477 728.463 194.784 728.637 195.06C728.811 195.336 729.038 195.574 729.305 195.76C729.48 195.892 729.672 195.998 729.877 196.076Z" fill="#5CADF8"/>
<path d="M747.546 223.546C747.95 223.694 748.385 223.735 748.809 223.664L773.597 219.562C774.208 219.416 774.741 219.044 775.089 218.52C775.436 217.997 775.573 217.361 775.47 216.741C775.367 216.12 775.034 215.562 774.536 215.178C774.038 214.795 773.414 214.614 772.788 214.672L748 218.774C747.463 218.867 746.972 219.134 746.602 219.534C746.232 219.934 746.003 220.444 745.952 220.987C745.9 221.529 746.028 222.073 746.316 222.536C746.605 222.998 747.037 223.353 747.546 223.546Z" fill="#5CADF8"/>
<path d="M671.387 206.291C671.948 206.488 672.562 206.478 673.116 206.262C673.67 206.046 674.128 205.639 674.407 205.114C674.687 204.589 674.768 203.981 674.637 203.401C674.507 202.821 674.172 202.307 673.695 201.952L652.2 186.551C651.676 186.269 651.067 186.187 650.487 186.319C649.907 186.451 649.394 186.789 649.043 187.269C648.693 187.75 648.527 188.341 648.578 188.934C648.629 189.527 648.893 190.081 649.321 190.495L670.816 205.896C670.985 206.055 671.178 206.188 671.387 206.291Z" fill="#5CADF8"/>
<path d="M760.483 270.164C761.046 270.373 761.665 270.371 762.227 270.159C762.788 269.946 763.254 269.538 763.538 269.009C763.821 268.48 763.904 267.866 763.77 267.281C763.636 266.696 763.295 266.179 762.81 265.825L742.597 251.331C742.331 251.141 742.031 251.005 741.713 250.93C741.395 250.856 741.065 250.845 740.743 250.898C740.421 250.951 740.112 251.068 739.835 251.24C739.557 251.412 739.316 251.638 739.126 251.903C738.936 252.169 738.8 252.469 738.725 252.787C738.651 253.105 738.64 253.435 738.693 253.757C738.746 254.079 738.862 254.388 739.035 254.665C739.207 254.943 739.433 255.183 739.698 255.374L759.911 269.848C760.088 269.976 760.28 270.082 760.483 270.164Z" fill="#5CADF8"/>
<path d="M698.384 189.312C698.791 189.462 699.23 189.503 699.657 189.43C700.084 189.358 700.485 189.175 700.82 188.9C701.155 188.625 701.412 188.267 701.566 187.862C701.72 187.457 701.765 187.019 701.697 186.591L697.418 160.738C697.386 160.398 697.285 160.068 697.12 159.77C696.956 159.471 696.731 159.209 696.461 159.001C696.191 158.792 695.881 158.642 695.55 158.559C695.219 158.475 694.875 158.461 694.538 158.517C694.202 158.572 693.88 158.697 693.594 158.882C693.308 159.067 693.062 159.31 692.874 159.594C692.685 159.878 692.557 160.198 692.497 160.534C692.438 160.87 692.448 161.214 692.527 161.546L696.806 187.34C696.867 187.78 697.046 188.196 697.323 188.543C697.601 188.89 697.968 189.156 698.384 189.312Z" fill="#5CADF8"/>
<g opacity="0.5">
<path d="M729.877 196.076C730.388 196.26 730.946 196.274 731.465 196.113C731.984 195.953 732.437 195.629 732.756 195.188L747.704 174.325C747.897 174.062 748.035 173.763 748.111 173.446C748.186 173.129 748.198 172.8 748.144 172.479C748.091 172.157 747.974 171.85 747.8 171.574C747.626 171.298 747.399 171.06 747.132 170.874C746.598 170.495 745.935 170.342 745.289 170.449C744.643 170.557 744.065 170.915 743.681 171.446L728.733 192.309C728.54 192.572 728.402 192.871 728.327 193.188C728.251 193.505 728.239 193.834 728.293 194.155C728.346 194.477 728.463 194.784 728.637 195.06C728.811 195.336 729.038 195.574 729.305 195.76C729.48 195.892 729.672 195.998 729.877 196.076Z" fill="#F2F7FA"/>
<path d="M747.546 223.546C747.95 223.694 748.385 223.735 748.809 223.664L773.597 219.562C774.208 219.416 774.741 219.044 775.089 218.52C775.436 217.997 775.573 217.361 775.47 216.741C775.367 216.12 775.034 215.562 774.536 215.178C774.038 214.795 773.414 214.614 772.788 214.672L748 218.774C747.463 218.867 746.972 219.134 746.602 219.534C746.232 219.934 746.003 220.444 745.952 220.987C745.9 221.529 746.028 222.073 746.316 222.536C746.605 222.998 747.037 223.353 747.546 223.546Z" fill="#F2F7FA"/>
<path d="M671.387 206.291C671.948 206.488 672.562 206.478 673.116 206.262C673.67 206.046 674.128 205.639 674.407 205.114C674.687 204.589 674.768 203.981 674.637 203.401C674.507 202.821 674.172 202.307 673.695 201.952L652.2 186.551C651.676 186.269 651.067 186.187 650.487 186.319C649.907 186.451 649.394 186.789 649.043 187.269C648.693 187.75 648.527 188.341 648.578 188.934C648.629 189.527 648.893 190.081 649.321 190.495L670.816 205.896C670.985 206.055 671.178 206.188 671.387 206.291Z" fill="#F2F7FA"/>
<path d="M760.483 270.164C761.046 270.373 761.665 270.371 762.227 270.159C762.788 269.946 763.254 269.538 763.538 269.009C763.821 268.48 763.904 267.866 763.77 267.281C763.636 266.696 763.295 266.179 762.81 265.825L742.597 251.331C742.331 251.141 742.031 251.005 741.713 250.93C741.395 250.856 741.065 250.845 740.743 250.898C740.421 250.951 740.112 251.068 739.835 251.24C739.557 251.412 739.316 251.638 739.126 251.903C738.936 252.169 738.8 252.469 738.725 252.787C738.651 253.105 738.64 253.435 738.693 253.757C738.746 254.079 738.862 254.388 739.035 254.665C739.207 254.943 739.433 255.183 739.698 255.374L759.911 269.848C760.088 269.976 760.28 270.082 760.483 270.164Z" fill="#F2F7FA"/>
<path d="M698.384 189.312C698.791 189.462 699.23 189.503 699.657 189.43C700.084 189.358 700.485 189.175 700.82 188.9C701.155 188.625 701.412 188.267 701.566 187.862C701.72 187.457 701.765 187.019 701.697 186.591L697.418 160.738C697.386 160.398 697.285 160.068 697.12 159.77C696.956 159.471 696.731 159.209 696.461 159.001C696.191 158.792 695.881 158.642 695.55 158.559C695.219 158.475 694.875 158.461 694.538 158.517C694.202 158.572 693.88 158.697 693.594 158.882C693.308 159.067 693.062 159.31 692.874 159.594C692.685 159.878 692.557 160.198 692.497 160.534C692.438 160.87 692.448 161.214 692.527 161.546L696.806 187.34C696.867 187.78 697.046 188.196 697.323 188.543C697.601 188.89 697.968 189.156 698.384 189.312Z" fill="#F2F7FA"/>
</g>
<path d="M676.85 213.351C682.248 206.682 689.996 202.337 698.501 201.209C707.006 200.081 715.619 202.257 722.568 207.288C729.517 212.319 734.273 219.823 735.856 228.254C737.44 236.686 735.731 245.404 731.08 252.613C723.192 263.479 709.25 264.564 697.556 269.218C693.928 270.657 686.908 280.754 686.908 280.754L663.914 264.09C663.914 264.09 671.309 254.23 671.546 250.385C672.315 237.823 668.982 224.217 676.85 213.351Z" fill="#5CADF8"/>
<path opacity="0.4" d="M676.85 213.351C682.248 206.682 689.996 202.337 698.501 201.209C707.006 200.081 715.619 202.257 722.568 207.288C729.517 212.319 734.273 219.823 735.856 228.254C737.44 236.686 735.731 245.404 731.08 252.613C723.192 263.479 709.25 264.564 697.556 269.218C693.928 270.657 686.908 280.754 686.908 280.754L663.914 264.09C663.914 264.09 671.309 254.23 671.546 250.385C672.315 237.823 668.982 224.217 676.85 213.351Z" fill="#F2F7FA"/>
<path d="M664.564 277.007L674.424 284.106C675.29 284.735 676.271 285.186 677.312 285.435C678.353 285.684 679.432 285.725 680.489 285.557C681.546 285.389 682.559 285.013 683.471 284.453C684.382 283.893 685.175 283.159 685.802 282.292L662.789 265.648C661.527 267.393 661.006 269.566 661.338 271.693C661.671 273.821 662.83 275.731 664.564 277.007Z" fill="#132043"/>
<path d="M664.565 287.478C665.991 288.509 667.767 288.932 669.505 288.655C671.242 288.377 672.799 287.423 673.833 285.999L663.086 278.21C662.055 279.636 661.632 281.412 661.909 283.15C662.186 284.887 663.141 286.444 664.565 287.478Z" fill="#132043"/>
<path opacity="0.5" d="M664.565 287.478C665.991 288.509 667.767 288.932 669.505 288.655C671.242 288.377 672.799 287.423 673.833 285.999L663.086 278.21C662.055 279.636 661.632 281.412 661.909 283.15C662.186 284.887 663.141 286.444 664.565 287.478Z" fill="#F2F7FA"/>
<g opacity="0.7">
<path d="M664.564 277.007L674.424 284.106C675.29 284.735 676.271 285.186 677.312 285.435C678.353 285.684 679.432 285.725 680.489 285.557C681.546 285.389 682.559 285.013 683.471 284.453C684.382 283.893 685.175 283.159 685.802 282.292L662.789 265.648C661.527 267.393 661.006 269.566 661.338 271.693C661.671 273.821 662.83 275.731 664.564 277.007Z" fill="#F2F7FA"/>
</g>
<path opacity="0.3" d="M683.693 210.629C671.407 227.766 668.232 254.861 681.464 264.327C694.697 273.792 720.904 259.791 731.593 244.962C738.14 235.831 732.736 220.726 719.504 211.26C706.272 201.795 690.2 201.499 683.693 210.629Z" fill="#F2F7FA"/>
<path opacity="0.4" d="M680.163 233.347C677.972 236.398 676.734 240.031 676.607 243.786C676.481 247.541 677.471 251.249 679.452 254.441C681.433 257.633 684.317 260.165 687.738 261.718C691.159 263.271 694.963 263.774 698.671 263.164C702.378 262.554 705.82 260.858 708.563 258.291C711.306 255.724 713.226 252.401 714.08 248.742C714.934 245.084 714.684 241.254 713.361 237.738C712.038 234.222 709.701 231.177 706.647 228.989C702.556 226.058 697.469 224.87 692.504 225.688C687.538 226.505 683.099 229.26 680.163 233.347Z" fill="#F2F7FA"/>
<path opacity="0.4" d="M682.096 240.584C677.797 246.5 681.346 251.864 687.341 256.163C693.336 260.462 699.469 262.079 703.768 256.163C708.067 250.247 704.439 244.962 698.463 240.663C692.488 236.364 686.375 234.668 682.096 240.584Z" fill="#F2F7FA"/>
<path d="M210.334 282.489L217.058 288.09L255.946 254.861L305.601 264.899L343.444 229.206L346.836 233.86L355.808 213.627L333.801 215.974L337.193 220.628L303.984 257.405L254.27 247.743L210.334 282.489Z" fill="#5CADF8"/>
<g opacity="0.3">
<path d="M210.334 282.489L217.058 288.09L255.946 254.861L305.601 264.899L343.444 229.206L346.836 233.86L355.808 213.627L333.801 215.974L337.193 220.628L303.984 257.405L254.27 247.743L210.334 282.489Z" fill="#F2F7FA"/>
</g>
<path d="M577.993 573.3C579.136 591.166 574.719 614.16 570.499 631.296C567.009 645.455 564.583 649.36 563.656 655.631C562.65 662.769 564.82 673.379 564.267 682.351C562.157 717.847 547.722 789.628 547.722 789.628L535.614 788.859L535.93 649.892L543.818 515.244L591.599 527.983C596.372 554.132 577.993 573.3 577.993 573.3Z" fill="#DD8C6A"/>
<path d="M639.48 792.094L628.477 791.778L597.93 656.105L567.049 524.829L616.566 523.35C628.398 547.014 616.388 570.678 616.388 570.678C622.561 587.499 624.907 610.788 625.755 628.437C626.465 642.991 625.183 647.448 626.13 653.699C627.234 660.837 630.705 670.323 632.776 679.138C640.9 714.121 639.48 792.094 639.48 792.094Z" fill="#DD8C6A"/>
<path d="M478.21 403.452L483.968 411.024C489.707 412.799 489.588 421.338 489.588 421.338C490.831 422.304 502.505 429.679 505.226 432.065L498.344 439.48C495.366 434.925 485.013 427.214 485.013 427.214C485.013 427.214 470.933 418.597 468.626 415.52C466.319 412.444 470.164 403.294 470.164 403.294L478.21 403.452Z" fill="#DD8C6A"/>
<path d="M494.143 422.107C503.589 428.99 517.531 439.54 517.531 439.54C524.956 431.336 532.788 423.51 540.998 416.093C546.089 411.262 551.913 407.268 558.253 404.261L555.828 432.638C548.354 439.067 524.926 458.51 515.776 457.722C508.224 457.071 494.203 440.881 486.196 430.863L494.143 422.107Z" fill="#132043"/>
<path opacity="0.2" d="M532.735 450.228C537.725 441.807 551.41 419.701 551.41 419.701L554.684 427.136L552.475 435.3C549.004 438.218 537.744 446.58 532.735 450.228Z" fill="#132043"/>
<path d="M622.58 418.617C620.574 444.603 616.845 470.427 611.418 495.919C611.418 495.919 640.308 519.583 630.941 616.783C630.941 616.783 601.716 629.719 532.735 614.338L545.849 495.485C545.849 495.485 542.812 418.242 551.016 409.625C558.273 401.973 589.923 391.877 614.12 403.866C616.836 405.206 619.091 407.325 620.598 409.952C622.104 412.58 622.794 415.596 622.58 418.617Z" fill="#5CADF8"/>
<path opacity="0.4" d="M622.58 418.617C620.574 444.603 616.845 470.427 611.418 495.919C611.418 495.919 640.308 519.583 630.941 616.783C630.941 616.783 601.716 629.719 532.735 614.338L545.849 495.485C545.849 495.485 542.812 418.242 551.016 409.625C558.273 401.973 589.923 391.877 614.12 403.866C616.836 405.206 619.091 407.325 620.598 409.952C622.104 412.58 622.794 415.596 622.58 418.617Z" fill="#132043"/>
<path opacity="0.3" d="M588.997 493.315C588.997 493.315 567.838 496.983 552.969 493.315V502.387C552.969 502.387 564.032 503.984 588.997 502.387V493.315Z" fill="#132043"/>
<path d="M601.302 370.736C598.502 378.624 594.853 392.724 597.851 400.829C598.208 401.771 598.233 402.806 597.921 403.764C597.609 404.722 596.979 405.544 596.135 406.094C590.042 410.492 580.123 413.982 572.668 413.253C563.104 412.207 565.589 405.365 568.034 401.716C568.685 400.73 569.71 399.33 570.874 399.113C580.28 397.516 582.075 390.456 581.345 383.337L601.302 370.736Z" fill="#DD8C6A"/>
<path opacity="0.3" d="M593.178 375.883L581.346 383.278C581.503 385.023 581.503 386.778 581.346 388.523C583.717 388.452 586.034 387.801 588.096 386.629C590.158 385.457 591.903 383.799 593.178 381.799C594.558 379.294 594.144 376.336 593.178 375.883Z" fill="#132043"/>
<path d="M570.243 374.779L564.898 384.383C566.555 384.521 568.054 385.073 569.71 385.211C570.538 383.91 571.524 382.628 572.353 381.267C572.037 382.608 570.952 384.048 570.617 385.369C573.558 385.91 576.541 386.193 579.531 386.217C579.681 385.776 579.739 385.308 579.702 384.844C579.665 384.379 579.533 383.927 579.314 383.515C577.73 379.949 574.936 377.057 571.426 375.351L570.243 374.779Z" fill="#132043"/>
<path d="M605.029 357.78C601.578 370.065 600.178 377.5 592.507 382.469C580.971 390.042 566.871 380.99 566.536 367.936C566.279 356.104 571.978 338.04 585.23 335.733C589.763 334.928 594.431 335.952 598.211 338.579C601.992 341.207 604.578 345.225 605.404 349.754C605.894 352.423 605.766 355.168 605.029 357.78Z" fill="#DD8C6A"/>
<path d="M576.218 357.78C574.734 360.095 572.943 362.198 570.894 364.032C571.38 364.54 571.969 364.939 572.622 365.201C573.275 365.463 573.977 365.582 574.68 365.55L576.218 357.78Z" fill="#FF5652"/>
<path d="M589.726 353.264C589.824 353.284 589.924 353.284 590.022 353.264C590.164 353.192 590.274 353.068 590.329 352.918C590.384 352.768 590.38 352.603 590.318 352.456C589.928 351.57 589.334 350.789 588.583 350.179C587.832 349.568 586.946 349.146 585.999 348.946C585.84 348.923 585.678 348.964 585.549 349.06C585.419 349.156 585.333 349.299 585.309 349.458C585.286 349.618 585.327 349.779 585.423 349.909C585.519 350.038 585.662 350.124 585.822 350.148C586.568 350.32 587.264 350.664 587.853 351.154C588.443 351.644 588.908 352.266 589.213 352.968C589.265 353.058 589.34 353.133 589.43 353.185C589.52 353.237 589.622 353.264 589.726 353.264Z" fill="#132043"/>
<path d="M570.342 347.467C570.431 347.521 570.534 347.549 570.638 347.549C570.742 347.549 570.844 347.521 570.934 347.467C571.581 347.069 572.315 346.832 573.072 346.773C573.83 346.715 574.591 346.838 575.292 347.131C575.436 347.2 575.601 347.21 575.752 347.158C575.903 347.107 576.028 346.998 576.1 346.855C576.138 346.786 576.161 346.709 576.168 346.631C576.175 346.552 576.167 346.472 576.143 346.397C576.119 346.322 576.08 346.252 576.029 346.192C575.978 346.132 575.915 346.082 575.844 346.047C574.956 345.66 573.988 345.49 573.02 345.551C572.053 345.613 571.115 345.905 570.283 346.402C570.214 346.439 570.153 346.489 570.104 346.55C570.054 346.611 570.018 346.681 569.996 346.757C569.973 346.832 569.967 346.911 569.975 346.989C569.984 347.066 570.008 347.142 570.046 347.21C570.12 347.321 570.222 347.41 570.342 347.467Z" fill="#132043"/>
<path d="M597.398 396.806L583.594 407.494C583.006 407.951 582.321 408.267 581.591 408.415C580.862 408.564 580.107 408.542 579.388 408.351C578.668 408.16 578.002 407.805 577.442 407.315C576.882 406.824 576.443 406.21 576.159 405.522L573.024 398.344L569.356 399.29C568.936 399.39 568.553 399.606 568.25 399.913C567.947 400.219 567.736 400.605 567.64 401.026C566.911 404.398 564.229 412.641 564.387 420.036C564.387 420.036 572.846 408.717 577.619 416.861C577.619 416.861 583.85 409.505 588.879 422.225C592.098 417.599 594.947 412.726 597.398 407.652C599.981 401.617 601.717 398.344 601.717 398.344L597.398 396.806Z" fill="#F2F7FA"/>
<path d="M599.054 397.417C593.008 423.531 588.888 450.053 586.729 476.77C583.949 516.762 583.377 528.851 599.192 527.115C615.008 525.38 627.964 523.388 625.656 517.63C623.349 511.872 614.732 498.916 615.264 492.31C615.796 485.703 621.298 434.215 621.929 426.425C622.56 418.636 627.254 402.288 599.054 397.417Z" fill="#132043"/>
<path d="M601.755 506.331C601.558 505.266 605.344 501.42 609.643 498.739C612.509 497.029 615.55 495.634 618.715 494.578C618.715 494.578 627.549 484.185 629.994 481.365L636.818 487.281C632.373 491.374 628.141 495.692 624.138 500.218L620.47 507.967C619.151 509.837 617.38 511.343 615.323 512.345C613.009 513.419 610.599 514.271 608.125 514.889C607.649 515.015 607.146 514.985 606.688 514.804C606.23 514.623 605.842 514.301 605.581 513.883C603.934 511.572 602.645 509.026 601.755 506.331Z" fill="#DD8C6A"/>
<path d="M571.308 398.759C571.308 398.759 558.352 423.133 557.504 463.835C556.656 504.537 558.431 526.111 550.898 527.353C543.365 528.595 541.688 523.409 541.688 523.409C541.688 523.409 543.917 501.323 543.917 495.939C543.917 490.555 541.55 457.958 543.917 434.669C546.283 411.38 543.917 412.799 547.861 410.196C551.805 407.593 560.738 400.908 571.308 398.759Z" fill="#132043"/>
<path opacity="0.2" d="M617.531 470.303L609.762 425.716C609.762 425.716 616.171 432.243 620.923 437.252C620.016 446.363 618.675 459.22 617.531 470.303Z" fill="#132043"/>
<path d="M614.002 402.525C614.002 402.525 608.737 415.955 609.762 425.716C610.196 429.857 639.618 461.409 639.618 461.409L617.433 490.832L628.871 500.692C628.871 500.692 660.423 469.455 660.679 460.995C660.936 452.535 625.854 406.095 614.002 402.525Z" fill="#132043"/>
<path d="M585.25 356.32C585.053 357.346 584.343 358.056 583.672 357.938C583.002 357.819 582.607 356.873 582.824 355.827C583.041 354.782 583.732 354.092 584.402 354.21C585.073 354.329 585.447 355.275 585.25 356.32Z" fill="#132043"/>
<path d="M573.635 354.034C573.438 355.059 572.728 355.789 572.058 355.651C571.387 355.513 571.013 354.586 571.21 353.561C571.407 352.535 572.117 351.805 572.787 351.944C573.458 352.082 573.852 352.989 573.635 354.034Z" fill="#132043"/>
<path d="M573.063 352.042L570.736 350.858C570.736 350.858 571.643 352.988 573.063 352.042Z" fill="#132043"/>
<path d="M584.679 354.33L582.352 353.146C582.352 353.146 583.259 355.316 584.679 354.33Z" fill="#132043"/>
<path d="M578.052 371.269C577.395 371.321 576.736 371.321 576.08 371.269C576.035 371.269 575.99 371.26 575.949 371.242C575.908 371.224 575.871 371.197 575.841 371.163C575.812 371.13 575.789 371.09 575.776 371.047C575.763 371.004 575.759 370.959 575.764 370.914C575.769 370.829 575.807 370.748 575.869 370.69C575.931 370.631 576.014 370.598 576.099 370.599C577.515 370.721 578.94 370.513 580.262 369.989C581.583 369.465 582.764 368.641 583.711 367.581C583.741 367.548 583.777 367.521 583.818 367.503C583.859 367.484 583.903 367.475 583.948 367.475C583.993 367.475 584.037 367.484 584.078 367.503C584.119 367.521 584.155 367.548 584.185 367.581C584.247 367.644 584.282 367.729 584.282 367.818C584.282 367.907 584.247 367.992 584.185 368.055C582.621 369.864 580.429 371.013 578.052 371.269Z" fill="#132043"/>
<path d="M597.693 333.762C603.745 351.075 602.883 370.056 595.287 386.749C597.003 386.237 598.837 385.842 600.533 385.349C601.361 383.16 602.012 380.912 602.84 378.743C602.564 380.715 602.031 383.16 601.755 385.231L606.389 384.383C607.198 382.273 607.868 379.907 608.677 377.796C608.322 379.67 607.928 382.293 607.553 384.166C612.927 380.502 616.723 374.946 618.182 368.607C619.674 361.589 618.757 354.274 615.579 347.842C611.753 341.157 605.068 338.416 597.693 333.762Z" fill="#132043"/>
<path d="M609.348 367.838C608.397 370.915 606.271 373.494 603.432 375.016C599.665 376.988 596.885 373.872 597.181 369.849C597.417 366.24 599.685 360.837 603.826 360.482C604.741 360.409 605.66 360.569 606.496 360.946C607.333 361.323 608.061 361.906 608.612 362.64C609.163 363.374 609.519 364.235 609.648 365.144C609.777 366.053 609.673 366.979 609.348 367.838Z" fill="#DD8C6A"/>
<path d="M571.387 429.581C570.784 429.577 570.191 429.436 569.651 429.167C569.036 428.86 568.501 428.412 568.09 427.861C567.68 427.309 567.404 426.669 567.285 425.992C567.169 424.844 567.391 423.688 567.923 422.665C568.456 421.642 569.276 420.797 570.282 420.234C572.056 419.209 574.011 418.539 576.041 418.262H576.277H577.875C578.131 418.277 578.372 418.389 578.548 418.576C578.724 418.763 578.822 419.011 578.821 419.267C578.816 419.522 578.713 419.765 578.533 419.945C578.352 420.125 578.11 420.229 577.855 420.234C576.889 420.234 575.725 422.206 575.488 423.803V424.04C575.489 425.015 575.263 425.976 574.829 426.849C574.394 427.722 573.763 428.481 572.984 429.068C572.504 429.372 571.954 429.548 571.387 429.581ZM574.68 420.628C573.502 420.845 572.373 421.273 571.347 421.89C570.679 422.27 570.128 422.826 569.753 423.497C569.377 424.167 569.192 424.928 569.217 425.696C569.293 426.061 569.451 426.404 569.68 426.698C569.909 426.993 570.203 427.23 570.539 427.392C570.763 427.513 571.014 427.576 571.268 427.576C571.523 427.576 571.774 427.513 571.998 427.392C573.023 426.86 573.26 425.302 573.497 423.803V423.566C573.696 422.519 574.098 421.521 574.68 420.628Z" fill="#F2F7FA"/>
<path d="M583.436 430.231C582.768 430.233 582.115 430.034 581.562 429.66C580.84 429.001 580.285 428.18 579.942 427.265C579.599 426.349 579.479 425.365 579.59 424.394V424.158C579.59 422.6 578.565 420.49 577.618 420.352C577.365 420.322 577.134 420.193 576.975 419.994C576.816 419.795 576.743 419.54 576.77 419.287C576.791 419.034 576.909 418.799 577.101 418.633C577.293 418.467 577.543 418.383 577.796 418.399H579.393H579.63C581.621 418.881 583.501 419.737 585.171 420.924C586.106 421.593 586.826 422.52 587.243 423.591C587.66 424.663 587.755 425.833 587.518 426.958C587.333 427.622 586.991 428.233 586.521 428.737C586.051 429.242 585.466 429.626 584.816 429.857C584.384 430.068 583.915 430.195 583.436 430.231ZM580.754 420.943C581.222 421.92 581.496 422.978 581.562 424.059V424.315C581.562 425.814 581.72 427.372 582.667 428.043C582.885 428.172 583.131 428.249 583.384 428.266C583.638 428.283 583.892 428.241 584.126 428.141C584.478 428.014 584.797 427.807 585.057 427.537C585.317 427.267 585.511 426.94 585.625 426.583C585.727 425.834 585.623 425.071 585.325 424.376C585.026 423.681 584.543 423.08 583.929 422.639C582.973 421.9 581.9 421.327 580.754 420.943Z" fill="#F2F7FA"/>
<path d="M571.88 440.229C571.776 440.25 571.668 440.25 571.564 440.229C571.316 440.148 571.11 439.972 570.992 439.739C570.873 439.506 570.852 439.235 570.933 438.987C572.896 432.89 574.218 426.604 574.877 420.233C574.903 419.972 575.032 419.731 575.236 419.565C575.439 419.398 575.7 419.32 575.962 419.346C576.223 419.372 576.464 419.501 576.63 419.704C576.797 419.908 576.875 420.169 576.849 420.43C576.197 426.938 574.875 433.361 572.905 439.598C572.828 439.802 572.686 439.974 572.5 440.088C572.314 440.203 572.096 440.252 571.88 440.229Z" fill="#F2F7FA"/>
<path d="M579.768 445.14C579.573 445.139 579.383 445.081 579.221 444.972C579.06 444.863 578.934 444.709 578.86 444.529C578.093 442.55 577.66 440.457 577.579 438.337C577.575 436.183 577.754 434.032 578.111 431.908C578.269 430.843 578.427 429.778 578.525 428.713C579.024 425.764 578.488 422.734 577.007 420.135C576.934 420.028 576.884 419.907 576.858 419.78C576.832 419.653 576.831 419.522 576.856 419.395C576.881 419.267 576.93 419.146 577.002 419.038C577.073 418.93 577.165 418.837 577.273 418.765C577.38 418.692 577.501 418.641 577.628 418.616C577.755 418.59 577.886 418.589 578.013 418.614C578.141 418.639 578.262 418.688 578.37 418.76C578.478 418.831 578.571 418.923 578.643 419.031C580.388 422.002 581.036 425.491 580.477 428.891C580.379 429.995 580.221 431.099 580.063 432.184C579.721 434.19 579.549 436.222 579.551 438.258C579.623 440.155 580.009 442.028 580.694 443.799C580.786 444.043 580.78 444.312 580.677 444.551C580.574 444.79 580.382 444.98 580.142 445.081C580.021 445.121 579.895 445.141 579.768 445.14Z" fill="#F2F7FA"/>
<path d="M596.747 356.38C595.682 355.414 594.183 354.211 593.118 353.225C593.622 351.081 593.795 348.874 593.631 346.678C593.138 348.413 592.98 350.188 592.487 351.923L588.859 349.518C587.995 348.809 586.935 348.382 585.822 348.295C586.019 346.5 586.098 344.666 586.315 342.872C585.901 344.469 585.428 346.244 585.033 347.841C583.613 347.644 581.977 347.309 580.576 347.112C580.734 345.14 580.971 343.325 581.148 341.413C580.537 342.911 580.103 345.475 579.492 346.974L579.078 346.402C575.04 345.413 570.855 345.179 566.733 345.712C565.353 340.289 567.009 332.617 572.333 330.862C590.377 324.848 605.147 338.928 605.562 340.091C608.263 347.526 603.274 352.456 596.747 356.38Z" fill="#132043"/>
<path d="M603.431 371.525C603.431 371.865 603.331 372.196 603.142 372.478C602.954 372.761 602.686 372.98 602.372 373.11C602.059 373.24 601.714 373.274 601.381 373.208C601.048 373.142 600.742 372.978 600.503 372.738C600.263 372.498 600.099 372.193 600.033 371.86C599.967 371.527 600.001 371.182 600.131 370.869C600.26 370.555 600.48 370.287 600.763 370.099C601.045 369.91 601.376 369.81 601.716 369.81C602.171 369.81 602.607 369.99 602.929 370.312C603.251 370.634 603.431 371.07 603.431 371.525Z" fill="#5CADF8"/>
<path d="M531.493 786.395C521.968 791.621 520.904 791.719 510.393 793.711C508.086 794.145 508.894 799.627 514.337 799.745C523.231 800.021 522.481 799.745 530.113 799.903C536.581 800.061 544.37 800.613 549.517 800.83H549.695C550.257 800.789 550.779 800.528 551.149 800.103C551.519 799.678 551.705 799.124 551.667 798.562L550.543 786.848C550.511 786.6 550.392 786.372 550.208 786.202C550.025 786.033 549.787 785.933 549.537 785.922L534.865 785.507C533.682 785.492 532.516 785.799 531.493 786.395Z" fill="#132043"/>
<path d="M531.553 787.282C531.58 787.234 531.595 787.179 531.595 787.124C531.595 787.069 531.58 787.014 531.553 786.966C531.503 786.932 531.445 786.914 531.385 786.914C531.325 786.914 531.267 786.932 531.217 786.966C530.586 787.183 525.104 789.352 524.69 791.107C524.652 791.274 524.656 791.448 524.7 791.613C524.745 791.778 524.83 791.929 524.947 792.054C525.138 792.261 525.375 792.42 525.638 792.519C525.902 792.618 526.185 792.655 526.465 792.626C528.437 792.409 530.508 789.273 531.592 787.42L531.553 787.282ZM525.262 791.048C525.656 790.082 528.397 788.702 530.508 787.794C528.95 790.279 527.392 791.738 526.327 791.916C526.142 791.942 525.954 791.92 525.781 791.85C525.608 791.781 525.456 791.668 525.341 791.521C525.288 791.481 525.249 791.425 525.228 791.362C525.207 791.299 525.205 791.231 525.223 791.167L525.262 791.048Z" fill="#5CADF8"/>
<path d="M531.552 787.282C531.565 787.226 531.561 787.168 531.54 787.115C531.519 787.062 531.482 787.017 531.434 786.986C529.971 785.838 528.184 785.183 526.326 785.112C526.017 785.151 525.719 785.254 525.451 785.413C525.183 785.573 524.95 785.786 524.768 786.039C524.275 786.729 524.413 787.203 524.65 787.479C525.616 788.682 529.797 788.208 531.375 787.479C531.418 787.463 531.458 787.437 531.489 787.403C531.52 787.368 531.541 787.327 531.552 787.282ZM525.123 786.631L525.34 786.394C525.469 786.207 525.636 786.05 525.83 785.931C526.023 785.812 526.239 785.735 526.464 785.704C527.97 785.74 529.428 786.236 530.645 787.124C528.831 787.676 525.754 787.774 525.183 787.124C525.183 787.124 525.044 786.966 525.183 786.729L525.123 786.631Z" fill="#5CADF8"/>
<path d="M623.369 787.321C617.989 791.726 611.676 794.848 604.911 796.452C602.11 797.24 603.865 802.368 610.57 802.368C621.673 802.19 617.255 802.013 626.741 801.796C634.846 801.638 636.995 801.579 643.424 801.539H643.641C643.966 801.532 644.287 801.459 644.584 801.325C644.88 801.191 645.147 800.999 645.368 800.76C645.589 800.521 645.759 800.239 645.869 799.933C645.979 799.626 646.026 799.301 646.007 798.976L643.858 786.394C643.788 786.108 643.619 785.855 643.381 785.682C643.142 785.509 642.85 785.426 642.556 785.448L625.617 785.901C624.138 785.724 624.512 786.513 623.369 787.321Z" fill="#132043"/>
<path d="M623.29 788.307C623.329 788.256 623.349 788.194 623.349 788.13C623.349 788.066 623.329 788.004 623.29 787.952C623.265 787.888 623.222 787.831 623.166 787.789C623.11 787.747 623.044 787.722 622.975 787.716C622.127 787.716 614.771 787.952 613.608 789.688C613.507 789.844 613.454 790.025 613.454 790.21C613.454 790.396 613.507 790.577 613.608 790.733C613.767 791.025 613.99 791.277 614.259 791.471C614.529 791.666 614.838 791.798 615.166 791.857C617.492 792.33 621.279 789.885 623.369 788.367L623.29 788.307ZM614.298 789.885C615.146 789.017 618.952 788.583 621.811 788.445C618.932 790.417 616.467 791.384 615.185 791.167C614.97 791.13 614.767 791.043 614.592 790.913C614.418 790.783 614.276 790.613 614.18 790.417C614.136 790.357 614.113 790.285 614.113 790.21C614.113 790.136 614.136 790.064 614.18 790.003L614.298 789.885Z" fill="#5CADF8"/>
<path d="M623.29 788.308C623.324 788.258 623.342 788.2 623.342 788.14C623.342 788.08 623.324 788.022 623.29 787.972C623.152 787.874 620.687 784.659 618.044 784.245C617.285 784.102 616.499 784.242 615.836 784.64C614.948 785.172 614.929 785.705 615.086 786.06C615.717 787.598 620.845 788.643 622.974 788.505C623.039 788.499 623.101 788.478 623.156 788.444C623.21 788.409 623.256 788.363 623.29 788.308ZM615.974 785.33L616.23 785.074C616.717 784.787 617.293 784.688 617.847 784.797C619.552 785.317 621.062 786.333 622.186 787.716C619.799 787.617 616.151 786.651 615.777 785.744C615.777 785.744 615.777 785.527 616.033 785.31L615.974 785.33Z" fill="#5CADF8"/>
<path d="M449.774 475.824C446.994 481.307 456.242 488.031 456.242 488.031L460.62 492.508C461.337 493.289 462.318 493.777 463.374 493.879C464.429 493.981 465.486 493.689 466.339 493.06L470.658 489.983L470.796 489.885C471.683 489.207 472.272 488.211 472.437 487.106C472.603 486.002 472.332 484.877 471.683 483.969L468.784 480.025C467.61 478.41 466.104 477.065 464.367 476.081L456.065 471.309L449.774 475.824Z" fill="#FFC3BD"/>
<path d="M413.706 355.71C414.753 353.398 416.457 351.445 418.606 350.095C420.755 348.745 423.253 348.056 425.79 348.115C428.327 348.174 430.791 348.977 432.874 350.426C434.958 351.875 436.569 353.904 437.508 356.262L437.784 356.952C439.49 361.774 440.162 366.9 439.756 371.998C439.638 377.027 439.48 382.134 439.559 387.005C439.638 391.876 439.559 409.466 439.717 414.238C439.875 418.656 448.808 438.632 457.465 467.482C457.641 468.037 457.858 468.578 458.116 469.1L459.713 472.274C459.713 472.274 457.327 473.793 454.882 475.252C452.902 476.741 450.734 477.961 448.433 478.881C447.147 477.715 446.085 476.325 445.298 474.779C438.396 463.893 415.856 423.507 414.673 417.591C413.509 412.109 412.701 393.927 412.188 388.405C411.675 382.884 411.281 377.5 411.123 372.057C411.002 369.325 411.107 366.588 411.438 363.874C411.787 361.049 412.551 358.291 413.706 355.69V355.71Z" fill="#132043"/>
<path opacity="0.3" d="M413.706 355.71C414.753 353.398 416.457 351.445 418.606 350.095C420.755 348.745 423.253 348.056 425.79 348.115C428.327 348.174 430.791 348.977 432.874 350.426C434.958 351.875 436.569 353.904 437.508 356.262L437.784 356.952C439.49 361.774 440.162 366.9 439.756 371.998C439.638 377.027 439.48 382.134 439.559 387.005C439.638 391.876 439.559 409.466 439.717 414.238C439.875 418.656 448.808 438.632 457.465 467.482C457.641 468.037 457.858 468.578 458.116 469.1L459.713 472.274C459.713 472.274 457.327 473.793 454.882 475.252C452.902 476.741 450.734 477.961 448.433 478.881C447.147 477.715 446.085 476.325 445.298 474.779C438.396 463.893 415.856 423.507 414.673 417.591C413.509 412.109 412.701 393.927 412.188 388.405C411.675 382.884 411.281 377.5 411.123 372.057C411.002 369.325 411.107 366.588 411.438 363.874C411.787 361.049 412.551 358.291 413.706 355.69V355.71Z" fill="#132043"/>
<path d="M342.892 362.513C346.264 401.361 359.161 423.25 357.425 454.29C357.425 454.29 427.431 455.67 429.837 455.67C430.863 398.482 439.027 402.84 436.522 366.634C436.956 354.802 430.192 347.407 423.349 346.224L393.533 340.052L355.098 346.658C351.443 347.283 348.158 349.261 345.896 352.199C343.634 355.137 342.561 358.82 342.892 362.513Z" fill="#5CADF8"/>
<path d="M397.871 718.202L406.942 789.884L424.611 788.622L419.839 718.202H397.871Z" fill="#FFC3BD"/>
<path d="M428.91 642.3C430.508 709.9 426.603 767.838 426.603 767.838L402.762 769.455C402.762 769.455 389.332 681.74 394.755 645.909C394.499 638.376 385.783 544.173 382.785 526.366C377.362 494.4 371.564 472.471 371.564 472.471L427.668 469.336C427.668 469.336 427.924 599.744 428.91 642.3Z" fill="#5CADF8"/>
<g opacity="0.2">
<path d="M396.905 497.043C396.905 497.043 395.09 571.092 391.856 611.695C390.18 589.747 385.783 544.174 382.785 526.367L396.905 497.043Z" fill="#132043"/>
</g>
<path d="M323.231 719.524L315.954 787.459L333.564 785.546L346.343 718.676L323.231 719.524Z" fill="#FFC3BD"/>
<path d="M313.746 767.602L340.782 766.616C340.782 766.616 363.815 683.614 373.537 639.757C382.963 590.871 400.554 468.863 400.554 468.863L355.612 465.393C331.672 508.639 340.289 612.169 336.049 641.157C315.738 677.383 313.746 767.602 313.746 767.602Z" fill="#5CADF8"/>
<path d="M427.214 447.645H361.409C361.409 447.645 350.602 485.724 350.701 485.349C350.799 484.974 427.924 489.057 427.924 489.057L427.214 447.645Z" fill="#5CADF8"/>
<path d="M427.925 782.884C439.599 788.8 440.881 788.918 453.561 790.93C456.361 791.383 455.533 798.009 449.084 798.364C438.376 799.015 439.224 798.581 430.133 799.094C422.344 799.528 411.064 800.455 404.852 800.908H404.655C404.316 800.898 403.982 800.821 403.672 800.682C403.363 800.542 403.084 800.343 402.851 800.096C402.619 799.849 402.437 799.558 402.317 799.241C402.197 798.923 402.14 798.585 402.151 798.246L403.097 784.067C403.125 783.767 403.26 783.486 403.477 783.276C403.694 783.066 403.979 782.941 404.28 782.923L423.862 781.918C425.281 781.842 426.692 782.177 427.925 782.884Z" fill="#132043"/>
<path d="M427.925 783.91C429.305 786.118 431.987 789.826 434.294 790.003C434.635 790.033 434.977 789.98 435.293 789.85C435.609 789.72 435.888 789.515 436.109 789.254C436.249 789.103 436.348 788.918 436.396 788.718C436.444 788.518 436.44 788.308 436.385 788.11C435.813 786 429.128 783.594 428.378 783.358C428.304 783.328 428.224 783.322 428.146 783.34C428.069 783.357 427.998 783.398 427.944 783.456C427.912 783.517 427.895 783.585 427.895 783.653C427.895 783.722 427.912 783.79 427.944 783.851L427.925 783.91ZM435.675 788.307C435.694 788.384 435.694 788.464 435.673 788.54C435.652 788.616 435.612 788.685 435.556 788.741C435.421 788.922 435.24 789.062 435.032 789.149C434.824 789.236 434.596 789.265 434.373 789.234C433.072 789.136 431.159 787.262 429.167 784.422C431.77 785.428 435.083 787.006 435.635 788.15L435.675 788.307Z" fill="#5CADF8"/>
<path d="M427.924 784.067C429.896 784.856 434.925 785.27 436.049 783.791C436.305 783.456 436.483 782.864 435.852 782.056C435.611 781.755 435.313 781.505 434.974 781.322C434.635 781.139 434.263 781.027 433.88 780.991C431.296 780.675 427.964 783.318 427.786 783.417C427.738 783.461 427.7 783.517 427.676 783.578C427.652 783.64 427.642 783.706 427.648 783.772C427.648 783.847 427.676 783.919 427.728 783.974C427.779 784.029 427.849 784.062 427.924 784.067ZM435.457 782.864C435.507 782.937 435.534 783.023 435.534 783.111C435.534 783.199 435.507 783.285 435.457 783.357C434.787 784.225 431.079 784.225 428.871 783.614C430.309 782.507 432.048 781.86 433.86 781.76C434.132 781.789 434.395 781.873 434.633 782.009C434.871 782.145 435.077 782.329 435.24 782.549L435.516 782.825L435.457 782.864Z" fill="#5CADF8"/>
<path d="M337.903 782.155C342.675 786.335 349.518 790.161 360.206 793.158C363.578 794.105 361.448 800.376 353.363 800.199C339.973 800.001 345.298 799.765 333.86 799.528C324 799.331 321.496 799.252 313.726 799.193H313.548C313.156 799.188 312.768 799.104 312.409 798.945C312.05 798.786 311.727 798.555 311.459 798.268C311.192 797.98 310.986 797.641 310.853 797.271C310.721 796.901 310.665 796.509 310.689 796.116L313.272 780.932C313.36 780.583 313.569 780.277 313.861 780.067C314.154 779.858 314.511 779.759 314.87 779.788L335.3 780.34C336.996 780.222 336.562 781.169 337.903 782.155Z" fill="#132043"/>
<path d="M337.962 783.397C340.466 785.231 345.022 788.15 347.822 787.598C348.235 787.544 348.629 787.392 348.972 787.156C349.315 786.919 349.597 786.604 349.794 786.237C349.92 786.051 349.988 785.831 349.988 785.606C349.988 785.381 349.92 785.161 349.794 784.975C348.394 782.904 339.5 782.628 338.494 782.628C338.405 782.625 338.317 782.653 338.245 782.707C338.174 782.761 338.122 782.837 338.1 782.924C338.054 782.983 338.028 783.056 338.028 783.131C338.028 783.206 338.054 783.279 338.1 783.338L337.962 783.397ZM349.005 785.369C349.058 785.441 349.086 785.527 349.086 785.616C349.086 785.704 349.058 785.791 349.005 785.862C348.884 786.096 348.71 786.3 348.499 786.457C348.287 786.614 348.042 786.721 347.782 786.769C346.244 787.026 343.247 785.842 339.776 783.476C343.227 783.654 347.822 784.186 348.847 785.231L349.005 785.369Z" fill="#5CADF8"/>
<path d="M338.316 783.496C340.919 783.673 347.111 782.411 347.861 780.558C348.078 780.124 348.038 779.473 346.973 778.842C346.172 778.369 345.229 778.194 344.311 778.349C341.117 778.862 338.139 782.727 337.981 782.865C337.939 782.922 337.917 782.991 337.917 783.062C337.917 783.133 337.939 783.202 337.981 783.259C338.058 783.378 338.178 783.463 338.316 783.496ZM346.776 779.69C347.052 779.966 346.973 780.143 347.092 780.222C346.638 781.327 342.241 782.49 339.362 782.628C340.712 780.956 342.532 779.727 344.587 779.098C345.263 778.956 345.968 779.076 346.559 779.434L346.875 779.749L346.776 779.69Z" fill="#5CADF8"/>
<path opacity="0.8" d="M342.892 362.513C346.264 401.361 359.161 423.25 357.426 454.29C357.426 454.29 427.432 455.67 429.838 455.67C430.863 398.482 439.027 402.84 436.523 366.634C436.956 354.802 429.877 347.328 423.034 346.145L393.454 340.052L355.02 346.658C351.379 347.3 348.113 349.286 345.867 352.222C343.621 355.159 342.559 358.831 342.892 362.513Z" fill="#F2F7FA"/>
<path d="M415.6 420.312L407.712 434.352L393.435 419.148C393.435 418.774 399.548 354.96 399.548 354.96L403.235 354.684C402.88 362.434 415.6 420.312 415.6 420.312Z" fill="#5CADF8"/>
<path d="M413.233 352.259C416.612 379.532 413.822 407.217 405.069 433.268L410.985 497.043C412.149 506.291 418.085 508.106 423.389 508.599L434.275 507.731L430.331 446.875C430.331 446.875 439.224 379.827 437.173 364.643C435.813 354.625 432.5 350.72 430.133 348.689C429.118 347.836 427.904 347.253 426.604 346.993C422.462 346.126 410.275 342.832 410.828 343.049C411.38 343.266 413.233 352.259 413.233 352.259Z" fill="#132043"/>
<path d="M407.455 324.315C405.956 331.434 403.649 341.136 411.399 344.449C414.771 345.909 416.368 350.642 413.134 352.16C409.9 353.678 388.958 352.16 387.124 351.292C382.588 348.965 379.393 347.348 381.839 342.813C386.098 335.063 383.397 318.853 382.825 311.063L407.455 324.315Z" fill="#FFC3BD"/>
<path d="M405.325 351.41L404.359 354.467C404.291 354.818 404.119 355.141 403.866 355.394C403.613 355.647 403.291 355.818 402.939 355.887L399.252 356.163C398.955 356.165 398.664 356.072 398.423 355.899C398.182 355.725 398.003 355.479 397.911 355.196L396.116 352.475L400.711 349.773L405.325 351.41Z" fill="#5CADF8"/>
<path opacity="0.2" d="M387.716 322.323C388.836 325.059 390.439 327.57 392.449 329.738C395.308 333.012 400.692 334.451 405.898 334.451C406.074 331.004 406.589 327.582 407.436 324.236L406.351 323.664L387.716 322.323Z" fill="#132043"/>
<path d="M378.625 508.362C396.373 509.565 401.303 507.731 403.768 493.887C403.768 493.887 408.461 444.252 407.534 433.268C407.534 433.268 395.702 410.196 393.375 394.163C390.851 376.238 379.847 340.348 376.673 340.584C370.579 340.998 347.842 348.965 344.154 353.836C339.264 360.324 342.439 367.817 343.602 375.863C347.31 401.637 350.09 410.511 351.49 436.502C351.49 436.502 339.658 503.55 341.472 503.787C342.853 503.925 364.466 507.396 378.625 508.362Z" fill="#132043"/>
<path opacity="0.2" d="M357.426 454.29H387.716V455.651C387.716 457.575 386.951 459.421 385.59 460.782C384.229 462.143 382.383 462.908 380.459 462.908H364.683C362.758 462.908 360.912 462.143 359.551 460.782C358.19 459.421 357.426 457.575 357.426 455.651V454.29Z" fill="#F2F7FA"/>
<path opacity="0.2" d="M431.02 463.242H426.761C424.835 463.317 422.958 462.627 421.539 461.323C420.121 460.019 419.276 458.206 419.188 456.281V454.94L430.902 454.447L431.02 463.242Z" fill="#F2F7FA"/>
<path d="M419.385 314.337C417.413 328.437 401.065 336.561 389.588 327.056C382.943 321.574 381.7 314.751 379.965 304.083C379.709 302.466 379.452 300.77 379.157 298.955C378.681 296.142 378.843 293.258 379.63 290.515C379.942 289.37 380.371 288.259 380.912 287.202C382.886 283.212 386.197 280.039 390.268 278.238C394.34 276.436 398.914 276.119 403.195 277.342C417.256 281.444 421.14 301.716 419.385 314.337Z" fill="#FFC3BD"/>
<path d="M385.625 288.346C387.539 291.475 389.156 294.776 390.456 298.206C389.197 298.492 387.988 298.964 386.867 299.606C385.842 300.257 386.867 303.333 387.4 304.477C388.359 306.784 389.473 309.024 390.732 311.181C388.905 311.958 386.992 312.514 385.033 312.838C384.497 311.342 383.619 309.991 382.47 308.894C381.803 308.079 380.907 307.483 379.898 307.184C378.889 306.885 377.813 306.897 376.81 307.218C376.455 305.463 366.141 297.535 374.739 292.23C375.999 291.231 377.384 290.402 378.861 289.765L380.833 289.036C382.38 288.537 384 288.304 385.625 288.346Z" fill="#132043"/>
<path d="M377.284 303.689C381.681 302.683 385.763 307.514 387.144 311.182C388.761 315.244 386.828 319.405 382.292 318.597C380.603 318.275 378.994 317.621 377.559 316.673C376.124 315.725 374.891 314.502 373.931 313.075C373.323 312.29 372.923 311.365 372.767 310.384C372.611 309.403 372.704 308.399 373.038 307.464C373.372 306.529 373.936 305.693 374.678 305.033C375.42 304.374 376.316 303.911 377.284 303.689Z" fill="#FFC3BD"/>
<path d="M403.669 297.772C404.399 297.772 405.089 298.542 405.207 299.744C405.326 300.947 404.912 301.835 404.083 301.914C403.255 301.993 402.585 301.145 402.466 299.942C402.348 298.739 402.94 297.93 403.669 297.772Z" fill="#132043"/>
<path d="M416.309 296.944C417.039 296.944 417.729 297.713 417.847 298.916C417.965 300.119 417.473 301.007 416.723 301.086C415.974 301.164 415.303 300.316 415.185 299.212C415.067 298.108 415.579 297.043 416.309 296.944Z" fill="#132043"/>
<path d="M413.115 311.004C414.066 311.042 415.014 310.869 415.89 310.498C416.766 310.126 417.549 309.565 418.183 308.855C415.409 306.436 412.987 303.641 410.985 300.553L413.115 311.004Z" fill="#F98C8C"/>
<path d="M400.652 295.918C401.056 295.198 401.624 294.582 402.308 294.12C402.993 293.658 403.776 293.362 404.596 293.256H404.812C404.988 293.227 405.144 293.13 405.247 292.986C405.351 292.841 405.393 292.662 405.365 292.487C405.331 292.314 405.233 292.161 405.09 292.058C404.947 291.956 404.77 291.911 404.596 291.935C403.55 292.034 402.543 292.38 401.658 292.946C400.773 293.512 400.036 294.281 399.508 295.189C399.424 295.34 399.4 295.516 399.44 295.684C399.48 295.852 399.582 295.999 399.725 296.096C399.835 296.124 399.95 296.124 400.06 296.096C400.273 296.115 400.485 296.051 400.652 295.918Z" fill="#132043"/>
<path d="M418.814 294.775C418.95 294.666 419.039 294.509 419.061 294.336C419.083 294.162 419.037 293.988 418.932 293.848C418.298 293.012 417.473 292.34 416.526 291.887C415.579 291.434 414.538 291.214 413.489 291.245C413.404 291.252 413.322 291.277 413.247 291.317C413.171 291.357 413.105 291.412 413.052 291.478C412.998 291.544 412.959 291.621 412.936 291.703C412.913 291.785 412.906 291.871 412.917 291.955C412.942 292.121 413.029 292.271 413.162 292.373C413.294 292.476 413.461 292.524 413.627 292.507C414.457 292.494 415.278 292.678 416.022 293.045C416.766 293.412 417.412 293.951 417.907 294.617C417.973 294.705 418.06 294.774 418.16 294.819C418.26 294.864 418.369 294.882 418.478 294.874C418.595 294.862 418.709 294.828 418.814 294.775Z" fill="#132043"/>
<path d="M396.807 422.323C394.342 413.646 391.502 404.891 386.355 397.496C384.501 394.814 382.411 392.349 380.439 389.608C377.795 386.116 375.365 382.468 373.162 378.683C375.331 376.711 378.191 374.739 380.518 372.925L371.723 365.648C373.934 357.288 374.949 348.657 374.74 340.012C375.705 339.324 376.901 339.04 378.072 339.223C382.277 345.75 385.338 352.946 387.124 360.501C392.174 380.781 395.415 401.47 396.807 422.323Z" fill="#132043"/>
<path opacity="0.2" d="M406.489 431.099C406.351 430.922 406.233 430.705 406.095 430.488C400.494 421.772 375.016 381.977 373.241 378.664C375.43 376.692 378.289 374.72 380.616 372.906L371.821 365.629C374.023 357.267 375.038 348.637 374.838 339.993C375.798 339.308 376.986 339.025 378.151 339.204C380.805 343.323 383.013 347.712 384.738 352.298C385.735 354.97 386.558 357.704 387.203 360.482C392.192 380.084 397.398 412.03 406.174 430.232L406.489 431.099Z" fill="#F2F7FA"/>
<path d="M419.189 426.524C419.051 417.492 419.189 408.303 422.009 399.724C423.015 396.628 424.355 393.651 425.401 390.555C426.742 386.611 430.824 381.72 431.652 377.579C429.009 376.376 425.736 375.153 422.936 374.187L429.266 364.682C424.73 357.326 417.808 351.332 415.462 342.99C414.342 342.611 413.119 342.681 412.05 343.187C410.65 347.821 412.859 361.31 412.977 364.15C413.963 385.112 414.574 406.074 419.189 426.524Z" fill="#132043"/>
<path opacity="0.2" d="M431.651 377.579C426.741 391.028 416.506 418.991 406.488 431.099C406.173 431.474 405.877 431.829 405.562 432.164L406.094 430.488C406.087 430.396 406.087 430.304 406.094 430.212C415.224 400.632 413.982 384.56 413.016 364.071C412.897 361.231 410.689 347.368 412.089 342.754C412.617 342.498 413.19 342.349 413.775 342.315C414.36 342.281 414.947 342.363 415.5 342.556C417.808 350.878 424.729 357.228 429.304 364.584C427.214 367.759 425.104 370.914 422.994 374.089C425.656 375.154 429.009 376.376 431.651 377.579Z" fill="#F2F7FA"/>
<path opacity="0.3" d="M342.064 368.212C342.064 368.212 348.118 381.819 362.73 401.914C377.579 422.324 385.921 422.324 385.921 422.324L396.806 425.597C396.806 425.597 394.006 374.128 362.375 366.437C352.988 364.091 340.052 368.271 342.064 368.212Z" fill="#132043"/>
<path d="M465.787 401.716L449.518 402.465V411.418L465.787 409.131V401.716Z" fill="#FFC3BD"/>
<path d="M461.113 407.612C460.778 415.5 470.401 417.295 470.401 417.295L475.41 421.396C476.211 422.085 477.233 422.464 478.289 422.464C479.346 422.464 480.367 422.085 481.168 421.396L485.31 417.866L485.428 417.768C486.289 416.977 486.802 415.877 486.854 414.709C486.905 413.541 486.492 412.4 485.704 411.536L482.332 407.809C480.969 406.288 479.294 405.077 477.422 404.26L465.787 401.716L461.113 407.612Z" fill="#FFC3BD"/>
<path d="M343.66 357.366C340.308 363.913 341.807 371.485 345.83 377.638C354.98 391.56 385.151 410.058 391.186 414.14C404.832 423.447 460.206 412.601 460.206 412.601L461.014 398.935L401.854 395.977C401.854 395.977 381.996 362.907 368.33 352.81C361.448 347.762 348.354 348.196 343.66 357.366Z" fill="#132043"/>
<path d="M387.459 275.548C386.54 275.442 385.609 275.533 384.729 275.816C383.848 276.098 383.037 276.564 382.351 277.185C378.432 280.136 375.691 284.386 374.621 289.174C374.367 290.151 374.367 291.176 374.621 292.152C374.729 292.65 374.984 293.105 375.353 293.457C375.722 293.808 376.189 294.041 376.692 294.124C378.077 292.676 379.807 291.604 381.72 291.008C385.575 289.743 389.534 288.826 393.552 288.267C400.849 287.158 408.053 285.51 415.106 283.337C416.506 282.923 418.104 282.292 418.478 280.892C418.853 279.492 415.836 277.204 416.329 276.751C417.098 276.001 418.163 275.331 418.163 274.266C418.152 273.844 418.037 273.43 417.828 273.063C417.535 272.374 417.109 271.749 416.574 271.225C416.039 270.7 415.407 270.286 414.712 270.006C414.005 269.765 413.232 269.809 412.558 270.129C411.884 270.45 411.362 271.022 411.103 271.722C410.886 270.445 410.596 269.18 410.235 267.936C409.888 267.363 409.34 266.941 408.697 266.753C407.714 266.471 406.676 266.436 405.676 266.649C404.675 266.862 403.742 267.318 402.959 267.975C401.395 269.305 400.062 270.884 399.015 272.649C396.964 275.646 391.048 276.376 387.459 275.548Z" fill="#132043"/>
<path d="M405.877 313.153C405.847 313.124 405.823 313.089 405.806 313.05C405.79 313.011 405.781 312.969 405.781 312.927C405.781 312.884 405.79 312.842 405.806 312.803C405.823 312.764 405.847 312.729 405.877 312.7C405.933 312.646 406.007 312.615 406.084 312.615C406.162 312.615 406.236 312.646 406.292 312.7C407.193 313.649 408.306 314.373 409.539 314.811C410.773 315.25 412.092 315.391 413.391 315.224C413.477 315.218 413.561 315.246 413.627 315.301C413.693 315.356 413.736 315.434 413.746 315.52C413.751 315.6 413.726 315.68 413.674 315.742C413.623 315.805 413.55 315.845 413.47 315.855C412.081 316.039 410.668 315.89 409.348 315.42C408.027 314.951 406.838 314.173 405.877 313.153Z" fill="#132043"/>
<path d="M378.053 339.855L383.062 338.277C388.166 343.893 394.515 348.236 401.599 350.957C398.398 352.891 395.844 355.733 394.263 359.121C377.501 352.495 378.053 339.855 378.053 339.855Z" fill="#F2F7FA"/>
<path d="M411.439 340.722L406.884 339.52C406.884 339.52 404.557 349.005 399.765 350.129C407.87 353.738 409.033 357.879 409.033 357.879C421.102 354.625 411.439 340.722 411.439 340.722Z" fill="#F2F7FA"/>
<path opacity="0.3" d="M401.973 435.615C401.945 435.975 401.812 436.318 401.591 436.603C401.369 436.887 401.068 437.1 400.726 437.214C400.384 437.328 400.015 437.339 399.667 437.245C399.319 437.151 399.006 436.957 398.768 436.686C398.529 436.415 398.376 436.08 398.327 435.723C398.279 435.366 398.336 435.002 398.493 434.677C398.65 434.352 398.899 434.081 399.21 433.897C399.52 433.713 399.877 433.625 400.238 433.643C400.481 433.658 400.72 433.721 400.939 433.828C401.158 433.936 401.354 434.085 401.515 434.269C401.676 434.452 401.8 434.665 401.878 434.896C401.957 435.127 401.989 435.371 401.973 435.615Z" fill="#F2F7FA"/>
</svg>
