<svg width="375" height="466" viewBox="0 0 375 466" fill="none" xmlns="http://www.w3.org/2000/svg">
<g clip-path="url(#clip0_35_687)">
<rect width="375" height="466" fill="#F2F7FA"/>
<g clip-path="url(#clip1_35_687)">
<path d="M358.215 359.311H329.931V359.524H358.215V359.311Z" fill="#5CADF8" fill-opacity="0.5"/>
<path d="M256.862 361.635H249.44V361.848H256.862V361.635Z" fill="#5CADF8" fill-opacity="0.5"/>
<path d="M329.076 351.387H312.688V351.6H329.076V351.387Z" fill="#5CADF8" fill-opacity="0.5"/>
<path d="M55.685 352.82H18.8008V353.034H55.685V352.82Z" fill="#5CADF8" fill-opacity="0.5"/>
<path d="M68.6998 352.82H63.2939V353.034H68.6998V352.82Z" fill="#5CADF8" fill-opacity="0.5"/>
<path d="M166.278 356.424H86.2754V356.637H166.278V356.424Z" fill="#5CADF8" fill-opacity="0.5"/>
<path d="M176.398 307.482H11.5072C10.2139 307.482 8.9736 306.968 8.05911 306.054C7.14462 305.139 6.63086 303.899 6.63086 302.606V70.8043C6.64212 69.5185 7.16084 68.2891 8.07412 67.3838C8.98739 66.4785 10.2213 65.9707 11.5072 65.9707H176.398C177.691 65.9707 178.931 66.4845 179.846 67.399C180.76 68.3134 181.274 69.5538 181.274 70.847V302.606C181.274 303.899 180.76 305.139 179.846 306.054C178.931 306.968 177.691 307.482 176.398 307.482ZM11.5072 66.1415C10.2712 66.1438 9.08653 66.6357 8.21257 67.5097C7.33861 68.3837 6.84662 69.5684 6.84436 70.8043V302.606C6.84662 303.842 7.33861 305.026 8.21257 305.9C9.08653 306.774 10.2712 307.266 11.5072 307.268H176.398C177.633 307.266 178.818 306.774 179.692 305.9C180.566 305.026 181.058 303.842 181.06 302.606V70.8043C181.058 69.5684 180.566 68.3837 179.692 67.5097C178.818 66.6357 177.633 66.1438 176.398 66.1415H11.5072Z" fill="#5CADF8" fill-opacity="0.5"/>
<path d="M361.127 307.482H196.219C194.927 307.48 193.688 306.965 192.774 306.051C191.86 305.137 191.345 303.898 191.343 302.606V70.8043C191.356 69.5192 191.876 68.2911 192.788 67.3863C193.701 66.4815 194.934 65.9729 196.219 65.9707H361.127C362.409 65.9751 363.639 66.485 364.549 67.3898C365.458 68.2946 365.975 69.5214 365.986 70.8043V302.606C365.986 303.896 365.474 305.134 364.564 306.048C363.653 306.962 362.417 307.477 361.127 307.482ZM196.219 66.1415C194.983 66.1438 193.798 66.6357 192.924 67.5097C192.051 68.3837 191.559 69.5684 191.556 70.8043V302.606C191.559 303.842 192.051 305.026 192.924 305.9C193.798 306.774 194.983 307.266 196.219 307.268H361.127C362.362 307.266 363.547 306.774 364.421 305.9C365.295 305.026 365.787 303.842 365.789 302.606V70.8043C365.787 69.5684 365.295 68.3837 364.421 67.5097C363.547 66.6357 362.362 66.1438 361.127 66.1415H196.219Z" fill="#5CADF8" fill-opacity="0.5"/>
<path d="M401 345.57H-26V345.784H401V345.57Z" fill="#5CADF8" fill-opacity="0.5"/>
<path d="M71.9024 107.449C68.1476 107.449 64.4772 108.563 61.3552 110.649C58.2332 112.735 55.8 115.7 54.3631 119.169C52.9262 122.638 52.5502 126.455 53.2828 130.137C54.0153 133.82 55.8234 137.203 58.4784 139.858C61.1334 142.513 64.5161 144.321 68.1987 145.053C71.8813 145.786 75.6985 145.41 79.1674 143.973C82.6364 142.536 85.6013 140.103 87.6874 136.981C89.7734 133.859 90.8868 130.188 90.8868 126.434C90.8868 121.399 88.8867 116.57 85.3264 113.01C81.7661 109.449 76.9374 107.449 71.9024 107.449ZM82.9275 139.901V136.058C82.9275 129.969 77.9914 129.303 71.9024 129.303C65.8134 129.303 60.8773 129.969 60.8773 136.058V139.901C58.0969 137.627 56.0879 134.548 55.1257 131.088C54.1635 127.627 54.2951 123.953 55.5025 120.57C56.71 117.187 58.9341 114.26 61.8701 112.19C64.8061 110.121 68.3103 109.01 71.9024 109.01C75.4945 109.01 78.9987 110.121 81.9347 112.19C84.8707 114.26 87.0948 117.187 88.3023 120.57C89.5097 123.953 89.6413 127.627 88.6791 131.088C87.7169 134.548 85.7079 137.627 82.9275 139.901Z" fill="#5CADF8" fill-opacity="0.3"/>
<path d="M71.903 127.946C74.5914 127.946 76.7708 125.384 76.7708 122.224C76.7708 119.064 74.5914 116.502 71.903 116.502C69.2145 116.502 67.0352 119.064 67.0352 122.224C67.0352 125.384 69.2145 127.946 71.903 127.946Z" fill="#5CADF8" fill-opacity="0.3"/>
<path d="M56.4022 165.479C53.4346 165.479 50.5336 166.359 48.066 168.007C45.5985 169.656 43.6753 171.999 42.5396 174.741C41.404 177.483 41.1068 180.5 41.6858 183.411C42.2647 186.321 43.6938 188.995 45.7923 191.093C47.8907 193.192 50.5643 194.621 53.475 195.2C56.3856 195.779 59.4026 195.482 62.1443 194.346C64.8861 193.21 67.2295 191.287 68.8783 188.819C70.527 186.352 71.407 183.451 71.407 180.483C71.4082 178.513 71.0208 176.561 70.2671 174.74C69.5135 172.919 68.4083 171.264 67.0147 169.871C65.6212 168.477 63.9666 167.372 62.1457 166.618C60.3247 165.865 58.373 165.477 56.4022 165.479ZM65.1131 191.099V188.092C65.1131 183.284 61.2103 182.755 56.4022 182.755C51.5942 182.755 47.6829 183.284 47.6829 188.092V191.133C45.4845 189.335 43.8959 186.901 43.1349 184.165C42.3739 181.429 42.4778 178.524 43.4323 175.849C44.3867 173.175 46.1451 170.86 48.4663 169.224C50.7875 167.588 53.558 166.71 56.398 166.71C59.238 166.71 62.0084 167.588 64.3297 169.224C66.6509 170.86 68.4092 173.175 69.3637 175.849C70.3182 178.524 70.422 181.429 69.661 184.165C68.9001 186.901 67.3115 189.335 65.1131 191.133V191.099Z" fill="#5CADF8" fill-opacity="0.3"/>
<path d="M56.4033 172.635C53.9011 172.635 52.5518 174.659 52.5518 177.152C52.5518 179.646 53.9011 181.679 56.4033 181.679C58.9055 181.679 60.2463 179.655 60.2463 177.152C60.2463 174.65 58.897 172.635 56.4033 172.635Z" fill="#5CADF8" fill-opacity="0.3"/>
<path d="M119.094 78.6875C116.748 78.6875 114.455 79.3832 112.504 80.6866C110.554 81.99 109.033 83.8426 108.135 86.0101C107.238 88.1777 107.003 90.5627 107.46 92.8637C107.918 95.1647 109.048 97.2784 110.707 98.9373C112.366 100.596 114.479 101.726 116.78 102.184C119.081 102.641 121.466 102.406 123.634 101.509C125.801 100.611 127.654 99.0905 128.957 97.1398C130.261 95.1891 130.957 92.8957 130.957 90.5496C130.957 87.4035 129.707 84.3864 127.482 82.1618C125.258 79.9373 122.241 78.6875 119.094 78.6875ZM126.012 98.9615V96.5617C126.012 92.7529 122.929 92.343 119.129 92.343C115.328 92.343 112.245 92.7529 112.245 96.5617V98.9615C110.51 97.5415 109.255 95.6195 108.655 93.4588C108.054 91.2982 108.136 89.0046 108.89 86.8924C109.644 84.7803 111.032 82.9529 112.865 81.6609C114.698 80.3688 116.886 79.6752 119.129 79.6752C121.371 79.6752 123.559 80.3688 125.392 81.6609C127.225 82.9529 128.614 84.7803 129.368 86.8924C130.121 89.0046 130.204 91.2982 129.603 93.4588C129.002 95.6195 127.748 97.5415 126.012 98.9615Z" fill="#5CADF8" fill-opacity="0.3"/>
<path d="M119.095 84.3477C117.122 84.3477 116.055 85.9446 116.055 87.9174C116.055 89.8901 117.122 91.4956 119.095 91.4956C121.068 91.4956 122.135 89.8901 122.135 87.9174C122.135 85.9446 121.068 84.3477 119.095 84.3477Z" fill="#5CADF8" fill-opacity="0.3"/>
<path d="M318.418 170.51C316.072 170.51 313.778 171.205 311.828 172.509C309.877 173.812 308.356 175.665 307.459 177.832C306.561 180 306.326 182.385 306.784 184.686C307.241 186.987 308.371 189.101 310.03 190.76C311.689 192.419 313.803 193.548 316.104 194.006C318.405 194.464 320.79 194.229 322.957 193.331C325.125 192.433 326.977 190.913 328.281 188.962C329.584 187.011 330.28 184.718 330.28 182.372C330.28 179.226 329.03 176.209 326.805 173.984C324.581 171.76 321.564 170.51 318.418 170.51ZM325.31 190.784V188.384C325.31 184.575 322.227 184.165 318.418 184.165C314.609 184.165 311.534 184.575 311.534 188.384V190.784C309.797 189.363 308.541 187.439 307.94 185.277C307.338 183.114 307.421 180.819 308.175 178.705C308.929 176.591 310.319 174.762 312.153 173.469C313.988 172.176 316.177 171.481 318.422 171.481C320.667 171.481 322.856 172.176 324.691 173.469C326.525 174.762 327.915 176.591 328.669 178.705C329.423 180.819 329.506 183.114 328.904 185.277C328.303 187.439 327.047 189.363 325.31 190.784Z" fill="#5CADF8" fill-opacity="0.3"/>
<path d="M318.418 176.137C316.445 176.137 315.378 177.734 315.378 179.706C315.378 181.679 316.445 183.285 318.418 183.285C320.391 183.285 321.467 181.679 321.467 179.706C321.467 177.734 320.399 176.137 318.418 176.137Z" fill="#5CADF8" fill-opacity="0.3"/>
<path d="M270.056 80.7715C267.029 80.7698 264.07 81.6659 261.552 83.3465C259.034 85.027 257.071 87.4165 255.912 90.2128C254.752 93.009 254.448 96.0863 255.037 99.0555C255.627 102.025 257.084 104.752 259.223 106.893C261.363 109.035 264.09 110.493 267.059 111.084C270.028 111.675 273.105 111.373 275.902 110.215C278.699 109.057 281.09 107.095 282.772 104.578C284.454 102.061 285.351 99.1023 285.351 96.0752C285.351 92.0179 283.74 88.1266 280.872 85.2569C278.004 82.3871 274.114 80.7738 270.056 80.7715ZM278.938 106.964V103.829C278.938 98.919 274.958 98.381 270.056 98.381C265.154 98.381 261.175 98.919 261.175 103.829V106.964C258.937 105.132 257.32 102.652 256.545 99.8657C255.771 97.0788 255.878 94.1208 256.85 91.3969C257.823 88.673 259.614 86.3164 261.978 84.6502C264.342 82.984 267.164 82.0896 270.056 82.0896C272.949 82.0896 275.77 82.984 278.135 84.6502C280.499 86.3164 282.29 88.673 283.262 91.3969C284.235 94.1208 284.342 97.0788 283.567 99.8657C282.793 102.652 281.176 105.132 278.938 106.964Z" fill="#5CADF8" fill-opacity="0.3"/>
<path d="M270.056 88.0723C267.494 88.0723 266.128 90.1389 266.128 92.6839C266.128 95.2288 267.511 97.2955 270.056 97.2955C272.601 97.2955 273.976 95.2288 273.976 92.6839C273.976 90.1389 272.601 88.0723 270.056 88.0723Z" fill="#5CADF8" fill-opacity="0.3"/>
<path d="M302.106 114.213C298.053 114.213 294.09 115.415 290.719 117.667C287.349 119.919 284.722 123.12 283.171 126.865C281.619 130.611 281.213 134.732 282.004 138.707C282.795 142.683 284.747 146.335 287.613 149.202C290.48 152.068 294.132 154.02 298.108 154.811C302.084 155.602 306.205 155.196 309.95 153.645C313.695 152.093 316.896 149.466 319.148 146.096C321.4 142.725 322.602 138.763 322.602 134.709C322.602 132.017 322.072 129.352 321.042 126.865C320.012 124.379 318.502 122.119 316.599 120.216C314.696 118.313 312.437 116.803 309.95 115.773C307.463 114.743 304.798 114.213 302.106 114.213ZM314.011 149.227V145.076C314.011 138.501 308.682 137.783 302.106 137.783C295.531 137.783 290.202 138.501 290.202 145.076V149.227C287.204 146.772 285.039 143.45 284.003 139.716C282.966 135.983 283.11 132.02 284.414 128.371C285.717 124.722 288.117 121.566 291.284 119.334C294.452 117.102 298.232 115.904 302.106 115.904C305.981 115.904 309.761 117.102 312.928 119.334C316.096 121.566 318.496 124.722 319.799 128.371C321.103 132.02 321.246 135.983 320.21 139.716C319.174 143.45 317.009 146.772 314.011 149.227Z" fill="#5CADF8" fill-opacity="0.3"/>
<path d="M302.106 123.99C298.69 123.99 296.846 126.757 296.846 130.173C296.846 133.589 298.69 136.356 302.106 136.356C305.522 136.356 307.367 133.581 307.367 130.173C307.367 126.766 305.522 123.99 302.106 123.99Z" fill="#5CADF8" fill-opacity="0.3"/>
<path d="M55.5648 221.801H54.54V243.492H55.5648V221.801Z" fill="#5CADF8" fill-opacity="0.3"/>
<path d="M55.0529 224.063C54.8858 224.063 54.7203 224.03 54.5659 223.967C54.4115 223.903 54.2712 223.809 54.1531 223.691C54.0349 223.573 53.9412 223.432 53.8772 223.278C53.8133 223.124 53.7804 222.958 53.7804 222.791V218.418C53.7781 218.25 53.8094 218.083 53.8723 217.926C53.9352 217.77 54.0286 217.628 54.147 217.508C54.2654 217.388 54.4064 217.292 54.5619 217.227C54.7174 217.162 54.8843 217.129 55.0529 217.129C55.2203 217.128 55.3862 217.16 55.5411 217.223C55.696 217.287 55.8368 217.381 55.9551 217.499C56.0735 217.617 56.1672 217.758 56.2308 217.913C56.2943 218.068 56.3264 218.234 56.3253 218.401V222.774C56.3276 222.942 56.2963 223.11 56.2334 223.266C56.1705 223.422 56.0771 223.565 55.9587 223.685C55.8403 223.805 55.6993 223.9 55.5438 223.965C55.3883 224.03 55.2214 224.063 55.0529 224.063Z" fill="#5CADF8" fill-opacity="0.3"/>
<path d="M42.5587 225.668C42.3189 225.905 41.9951 226.038 41.6578 226.038C41.3204 226.038 40.9966 225.905 40.7568 225.668L37.6653 222.577C37.428 222.337 37.2949 222.013 37.2949 221.676C37.2949 221.338 37.428 221.015 37.6653 220.775C37.9051 220.537 38.2289 220.404 38.5663 220.404C38.9037 220.404 39.2274 220.537 39.4673 220.775L42.5587 223.866C42.796 224.106 42.9291 224.43 42.9291 224.767C42.9291 225.105 42.796 225.428 42.5587 225.668Z" fill="#5CADF8" fill-opacity="0.3"/>
<path d="M51.1673 243.492H50.1425V237.89C50.1518 236.663 49.9182 235.447 49.455 234.311C48.9918 233.175 48.3083 232.142 47.4438 231.271L39.7578 223.585L40.4837 222.859L48.1697 230.545C49.1374 231.507 49.9044 232.652 50.4263 233.913C50.9481 235.173 51.2145 236.525 51.21 237.89L51.1673 243.492Z" fill="#5CADF8" fill-opacity="0.3"/>
<path d="M67.2395 225.668C67.4794 225.905 67.8031 226.038 68.1405 226.038C68.4779 226.038 68.8016 225.905 69.0415 225.668L72.133 222.577C72.3702 222.337 72.5033 222.013 72.5033 221.676C72.5033 221.338 72.3702 221.015 72.133 220.775C71.8931 220.537 71.5694 220.404 71.232 220.404C70.8946 220.404 70.5708 220.537 70.331 220.775L67.2395 223.866C67.0022 224.106 66.8691 224.43 66.8691 224.767C66.8691 225.105 67.0022 225.428 67.2395 225.668Z" fill="#5CADF8" fill-opacity="0.3"/>
<path d="M59.6479 243.492H58.6231V237.89C58.6204 236.526 58.8876 235.174 59.4094 233.914C59.9312 232.653 60.6972 231.509 61.6633 230.545L69.3493 222.859L70.0752 223.585L62.3892 231.271C61.517 232.138 60.8256 233.17 60.355 234.306C59.8845 235.442 59.6441 236.66 59.6479 237.89V243.492Z" fill="#5CADF8" fill-opacity="0.3"/>
<path d="M77.0947 261.228H33.0197L29.9453 241.902H80.1691L77.0947 261.228Z" fill="#5CADF8" fill-opacity="0.3"/>
<path d="M80.1691 238.539H29.9453V241.904H80.1691V238.539Z" fill="#5CADF8" fill-opacity="0.3"/>
<path d="M64.8144 246.182H45.292V343.333H64.8144V246.182Z" fill="#5CADF8" fill-opacity="0.3"/>
<path d="M74.2764 340.633H35.8379V346.098H74.2764V340.633Z" fill="#5CADF8" fill-opacity="0.5"/>
<path d="M318.931 221.801H317.906V243.492H318.931V221.801Z" fill="#5CADF8" fill-opacity="0.3"/>
<path d="M318.418 224.063C318.251 224.063 318.086 224.03 317.931 223.967C317.777 223.903 317.636 223.809 317.518 223.691C317.4 223.573 317.306 223.432 317.242 223.278C317.179 223.124 317.146 222.958 317.146 222.791V218.418C317.143 218.25 317.175 218.083 317.238 217.926C317.3 217.77 317.394 217.628 317.512 217.508C317.631 217.388 317.772 217.292 317.927 217.227C318.083 217.162 318.25 217.129 318.418 217.129C318.586 217.128 318.752 217.16 318.908 217.223C319.063 217.287 319.204 217.38 319.323 217.499C319.442 217.617 319.537 217.758 319.601 217.912C319.666 218.067 319.699 218.234 319.699 218.401V222.774C319.7 222.943 319.668 223.11 319.604 223.267C319.54 223.423 319.446 223.565 319.327 223.685C319.208 223.805 319.066 223.9 318.91 223.965C318.754 224.03 318.587 224.063 318.418 224.063Z" fill="#5CADF8" fill-opacity="0.3"/>
<path d="M305.924 225.668C305.684 225.905 305.36 226.038 305.023 226.038C304.686 226.038 304.362 225.905 304.122 225.668L301.031 222.577C300.793 222.337 300.66 222.013 300.66 221.676C300.66 221.338 300.793 221.015 301.031 220.775C301.27 220.537 301.594 220.404 301.932 220.404C302.269 220.404 302.593 220.537 302.832 220.775L305.924 223.866C306.161 224.106 306.294 224.43 306.294 224.767C306.294 225.105 306.161 225.428 305.924 225.668Z" fill="#5CADF8" fill-opacity="0.3"/>
<path d="M314.541 243.492H313.516V237.89C313.52 236.66 313.28 235.442 312.809 234.306C312.338 233.17 311.647 232.138 310.775 231.271L303.089 223.585L303.815 222.859L311.501 230.545C312.47 231.507 313.238 232.651 313.761 233.912C314.285 235.173 314.553 236.525 314.55 237.89L314.541 243.492Z" fill="#5CADF8" fill-opacity="0.3"/>
<path d="M330.605 225.668C330.845 225.905 331.168 226.038 331.506 226.038C331.843 226.038 332.167 225.905 332.407 225.668L335.498 222.577C335.735 222.337 335.869 222.013 335.869 221.676C335.869 221.338 335.735 221.015 335.498 220.775C335.258 220.537 334.935 220.404 334.597 220.404C334.26 220.404 333.936 220.537 333.696 220.775L330.605 223.866C330.367 224.106 330.234 224.43 330.234 224.767C330.234 225.105 330.367 225.428 330.605 225.668Z" fill="#5CADF8" fill-opacity="0.3"/>
<path d="M323.013 243.492H321.988V237.89C321.986 236.526 322.253 235.174 322.775 233.914C323.296 232.653 324.062 231.509 325.029 230.545L332.715 222.859L333.44 223.585L325.754 231.271C324.882 232.138 324.191 233.17 323.72 234.306C323.25 235.442 323.009 236.66 323.013 237.89V243.492Z" fill="#5CADF8" fill-opacity="0.3"/>
<path d="M340.46 261.228H296.385L293.311 241.902H343.534L340.46 261.228Z" fill="#5CADF8" fill-opacity="0.3"/>
<path d="M343.534 238.539H293.311V241.904H343.534V238.539Z" fill="#5CADF8" fill-opacity="0.3"/>
<path d="M328.18 246.182H308.657V343.333H328.18V246.182Z" fill="#5CADF8" fill-opacity="0.3"/>
<path d="M337.642 340.633H299.203V346.098H337.642V340.633Z" fill="#5CADF8" fill-opacity="0.3"/>
<path d="M89.0339 285.143C89.0339 285.143 77.7525 302.897 78.1881 324.802C78.1881 324.802 84.2429 298.362 89.0339 285.143Z" fill="#5CADF8" fill-opacity="0.3"/>
<path d="M68.2041 275.867C68.2041 275.867 82.3549 296.628 79.3061 322.709C79.2976 322.709 74.2846 289.762 68.2041 275.867Z" fill="#5CADF8" fill-opacity="0.3"/>
<path d="M79.0851 329.002C79.0851 329.002 82.7573 302.033 66.1982 293.895C66.2324 293.92 74.9774 300.692 79.0851 329.002Z" fill="#5CADF8" fill-opacity="0.3"/>
<path d="M80.7497 336.816C80.707 336.5 76.4797 305.064 82.842 278.01L83.696 278.223C77.3593 305.107 81.5781 336.372 81.6208 336.688L80.7497 336.816Z" fill="#5CADF8" fill-opacity="0.3"/>
<path d="M80.604 278.488L80.3051 278.557C80.0886 278.615 79.9037 278.756 79.7903 278.949C79.6769 279.142 79.644 279.373 79.6987 279.59L80.1257 280.931C80.167 281.065 80.2427 281.185 80.3452 281.281C80.4476 281.377 80.5733 281.444 80.7098 281.476C80.8462 281.508 80.9887 281.503 81.1229 281.463C81.2572 281.423 81.3786 281.348 81.4751 281.247L81.9618 280.751C82.0604 280.664 82.1777 280.601 82.3046 280.567C82.4315 280.533 82.5646 280.528 82.6935 280.554C82.8224 280.58 82.9437 280.635 83.0479 280.715C83.152 280.795 83.2363 280.898 83.2941 281.016L84.0285 282.852C84.079 282.957 84.1505 283.051 84.2386 283.128C84.3267 283.204 84.4295 283.262 84.5407 283.297C84.652 283.332 84.7692 283.344 84.8853 283.332C85.0014 283.32 85.1138 283.285 85.2156 283.228L86.7357 282.254C86.8383 282.189 86.9248 282.102 86.9888 281.998C87.0527 281.895 87.0923 281.779 87.1046 281.658C87.1169 281.537 87.1017 281.415 87.06 281.301C87.0183 281.187 86.9512 281.083 86.8638 280.999L86.6076 280.743C86.5127 280.627 86.45 280.488 86.4257 280.34C86.4014 280.193 86.4164 280.041 86.4692 279.901C86.5219 279.761 86.6106 279.637 86.7264 279.542C86.8421 279.447 86.9808 279.384 87.1285 279.359L88.4779 279.282C88.7017 279.257 88.9063 279.143 89.0471 278.968C89.1879 278.792 89.2534 278.567 89.2294 278.343L89.0415 277.207C89.0133 277.084 88.9583 276.97 88.8804 276.871C88.8026 276.772 88.7038 276.691 88.5911 276.635C88.4785 276.578 88.3548 276.548 88.2289 276.545C88.1031 276.542 87.9781 276.567 87.863 276.618L87.769 276.669C87.6216 276.725 87.4614 276.74 87.3064 276.71C87.1513 276.681 87.0074 276.609 86.8907 276.503C86.7739 276.397 86.6888 276.26 86.6449 276.109C86.6009 275.957 86.5999 275.797 86.6417 275.644L87.0517 274.62C87.0988 274.504 87.1183 274.379 87.1084 274.254C87.0986 274.129 87.0598 274.009 86.9951 273.902C86.9304 273.795 86.8416 273.704 86.7358 273.638C86.6299 273.571 86.51 273.53 86.3856 273.518L84.9423 273.373C84.8326 273.366 84.7227 273.381 84.6193 273.418C84.5159 273.456 84.4213 273.514 84.3412 273.589C84.2612 273.664 84.1974 273.755 84.1539 273.856C84.1104 273.957 84.0881 274.066 84.0883 274.175C84.064 274.339 83.993 274.492 83.8837 274.615C83.7744 274.739 83.6316 274.828 83.4726 274.873C83.3136 274.917 83.1452 274.914 82.9877 274.865C82.8302 274.815 82.6904 274.721 82.5853 274.594L82.3803 274.269C82.3177 274.164 82.2315 274.073 82.1285 274.006C82.0255 273.939 81.9084 273.896 81.7862 273.881C81.6641 273.866 81.5401 273.88 81.424 273.92C81.3078 273.961 81.2026 274.028 81.1164 274.116L80.083 275.141C79.9291 275.3 79.8431 275.513 79.8431 275.734C79.8431 275.956 79.9291 276.168 80.083 276.328L80.937 277.088C81.0368 277.191 81.109 277.317 81.147 277.456C81.1849 277.594 81.1874 277.74 81.1542 277.879C81.1211 278.019 81.0533 278.148 80.9571 278.254C80.8609 278.361 80.7395 278.441 80.604 278.488Z" fill="#5CADF8" fill-opacity="0.3"/>
<path d="M82.4583 321.796L83.577 312.777H73.329L74.4904 321.804C72.1172 322.625 70.0588 324.164 68.6017 326.209C67.1445 328.254 66.3611 330.703 66.3604 333.214C66.5617 337.593 68.0962 341.806 70.7585 345.289H86.1305C88.7893 341.804 90.3234 337.592 90.5285 333.214C90.5327 330.709 89.7583 328.264 88.3125 326.219C86.8667 324.173 84.8209 322.628 82.4583 321.796Z" fill="#5CADF8" fill-opacity="0.3"/>
<path d="M187.501 94.1953C167.132 94.1953 147.221 100.235 130.286 111.551C113.35 122.867 100.15 138.951 92.3558 157.769C84.5612 176.587 82.5218 197.293 86.4955 217.27C90.4691 237.247 100.277 255.597 114.68 270C129.082 284.402 147.432 294.211 167.409 298.184C187.386 302.158 208.093 300.118 226.911 292.324C245.729 284.529 261.812 271.33 273.128 254.394C284.444 237.458 290.484 217.547 290.484 197.179C290.484 169.866 279.634 143.672 260.321 124.359C241.008 105.045 214.814 94.1953 187.501 94.1953ZM187.501 291.597C173.046 291.587 158.787 288.26 145.82 281.874C132.853 275.488 121.524 266.212 112.704 254.76C103.885 243.309 97.8098 229.986 94.9469 215.818C92.0841 201.65 92.5096 187.014 96.1908 173.037C96.5735 172.893 96.9187 172.664 97.2011 172.369C97.4835 172.073 97.6957 171.717 97.822 171.329C97.9501 170.569 99.53 169.621 101.289 169.236C103.048 168.852 105.03 169.185 105.619 169.954C106.275 170.988 106.575 172.209 106.473 173.429C106.448 173.931 106.295 174.418 106.027 174.843C105.759 175.267 105.386 175.616 104.944 175.855C104.236 176.06 103.458 178.34 103.236 180.91C103.236 181.192 103.236 181.329 103.177 181.611C102.937 184.173 103.74 187.076 104.961 188.135C106.183 189.194 106.874 190.825 106.49 191.696C106.106 192.568 107.686 193.669 110.034 194.258C112.383 194.848 114.304 195.599 114.304 195.966C114.304 196.334 115.056 196.82 116.012 197.111C116.507 197.304 116.944 197.622 117.281 198.033C117.617 198.445 117.842 198.936 117.934 199.459C118.062 200.459 118.719 200.945 119.377 200.535C119.66 200.327 120.004 200.219 120.355 200.229C120.706 200.238 121.044 200.364 121.316 200.587C121.53 200.944 121.663 201.344 121.706 201.759C121.748 202.174 121.7 202.593 121.563 202.986C121.466 203.373 121.285 203.734 121.033 204.042C120.78 204.351 120.463 204.6 120.103 204.771C119.573 204.882 119.138 205.975 119.138 207.205C119.138 208.435 120.171 210.519 121.435 211.877C122.699 213.234 123.416 215.386 123.015 216.591C122.614 217.795 123.433 219.648 124.843 220.741C126.252 221.834 127.405 225.233 127.405 228.273V234.251C127.405 237.292 127.96 240.34 128.634 241.032C129.006 241.536 129.272 242.109 129.419 242.718C129.566 243.327 129.589 243.958 129.488 244.576C129.283 245.823 130.445 247.992 132.05 249.435C133.656 250.879 135.347 251.032 135.757 249.786C135.962 249.195 136.001 248.559 135.87 247.948C135.739 247.337 135.443 246.773 135.014 246.318C134.202 245.661 133.587 242.971 133.656 240.34C133.928 237.305 135.316 234.479 137.55 232.407C138.797 231.348 139.42 230.81 140.676 229.708C142.759 227.863 144.254 224.729 143.981 222.825C143.751 220.75 144.333 218.666 145.603 217.009C146.782 215.702 146.722 212.517 145.484 209.998C144.245 207.478 141.931 205.215 140.36 204.925C138.788 204.635 137.499 203.678 137.499 202.798C137.477 202.36 137.287 201.948 136.969 201.646C136.651 201.344 136.229 201.175 135.791 201.176C134.574 201.003 133.469 200.374 132.699 199.417C131.956 198.469 129.121 197.709 126.422 197.709H125.159C122.468 197.709 120.222 197.017 120.163 196.223C120.05 195.751 119.81 195.32 119.468 194.976C119.126 194.632 118.695 194.39 118.224 194.276C117.768 194.177 117.352 193.944 117.031 193.605C116.709 193.267 116.497 192.84 116.422 192.38C116.374 191.935 116.202 191.513 115.925 191.161C115.649 190.809 115.28 190.542 114.859 190.39C114.005 190.082 113.681 188.972 114.142 187.896C114.896 186.564 116.083 185.53 117.507 184.967C118.89 184.42 120.53 184.642 121.128 185.479C121.725 186.316 122.545 186.982 122.947 186.957C123.348 186.931 123.681 186.103 123.681 185.027C123.681 183.951 125.534 181.705 127.832 179.903L128.079 179.706C130.368 177.879 132.093 175.325 131.888 174.113C131.683 172.9 133.724 171.918 136.448 171.995H137.217C139.941 172.08 142.187 170.398 142.187 168.211C142.187 166.025 141.683 164.292 141.06 164.368C140.437 164.445 139.489 163.514 138.942 162.31C138.396 161.106 136.5 160.688 134.723 161.362C132.947 162.037 131.239 163.028 130.897 163.549C130.556 164.07 129.454 164.181 128.446 163.83C127.439 163.48 127.703 162.251 129.053 161.081C130.55 159.682 131.654 157.915 132.255 155.957C132.665 154.325 130.769 153.224 128.071 153.6L126.115 153.873C123.425 154.274 120.701 155.581 120.035 156.7C119.368 157.818 116.661 158.963 114.057 159.347C109.265 159.997 104.515 160.921 99.8289 162.114C106.972 144.281 119.382 129.049 135.405 118.451C151.427 107.853 170.3 102.392 189.506 102.797C208.713 103.201 227.339 109.452 242.901 120.715C258.463 131.979 270.221 147.719 276.607 165.837C274.344 165.24 272.115 164.129 271.423 163.113C270.731 162.097 267.93 159.953 265.36 158.672L262.653 157.28C259.661 155.879 256.447 155.012 253.156 154.718L252.029 154.676C249.398 154.599 246.051 153.113 244.65 151.26C242.645 149.021 240.006 147.445 237.084 146.742C233.821 146.059 232.182 145.743 228.885 145.179C226.118 144.701 222.907 144.974 221.823 145.743C220.738 146.511 219.799 147.784 219.799 148.544C219.799 149.304 218.603 150.201 217.143 150.551C215.683 150.901 214.308 150.781 214.103 150.243C213.898 149.705 212.121 149.125 210.157 148.962C208.193 148.8 206.024 148.655 205.323 148.612C203.335 148.075 201.409 147.331 199.576 146.392C197.117 145.239 193.666 145.136 191.89 146.161C189.858 147.544 188.33 149.549 187.535 151.874C186.903 153.975 186.792 156.64 187.278 157.776C187.523 158.34 187.912 158.831 188.407 159.197C188.902 159.562 189.485 159.791 190.097 159.859C190.598 159.876 191.091 159.732 191.506 159.45C191.92 159.167 192.234 158.761 192.402 158.288C192.535 157.82 192.762 157.384 193.069 157.007C193.376 156.629 193.756 156.319 194.187 156.093C194.964 155.752 195.716 157.28 195.853 159.467C195.885 160.609 195.589 161.736 195 162.715C194.412 163.695 193.554 164.485 192.531 164.992C190.558 165.846 188.773 165.556 188.559 164.326C188.486 163.752 188.256 163.209 187.894 162.757C187.533 162.305 187.054 161.961 186.51 161.764C185.596 161.593 184.853 162.618 184.853 164.001C184.84 164.711 184.63 165.402 184.245 165.998C183.86 166.594 183.317 167.071 182.675 167.375C181.406 167.883 180.33 168.78 179.601 169.937C179.106 170.983 179.015 172.175 179.345 173.284C179.703 174.138 179.072 174.881 177.944 174.898C176.817 174.915 176.125 176.427 176.407 178.263C176.689 180.099 177.842 181.577 178.969 181.568C179.508 181.566 180.032 181.394 180.468 181.076C180.903 180.759 181.227 180.313 181.394 179.8C181.53 179.305 181.835 178.872 182.256 178.577C182.677 178.282 183.188 178.144 183.7 178.186C184.822 178.252 185.937 177.972 186.894 177.383C187.603 176.854 188.756 177.281 189.456 178.34C190.167 179.423 190.442 180.735 190.225 182.012C189.943 182.977 190.464 183.336 191.378 182.815C192.291 182.294 192.693 180.646 192.274 179.151C191.856 177.657 191.847 176.222 192.274 175.957C192.701 175.693 193.846 176.811 194.836 178.374C195.827 179.937 197.492 180.834 198.543 180.321C199.593 179.809 201.207 180.415 202.121 181.645C203.03 182.877 203.483 184.386 203.402 185.915C203.188 187.042 201.122 188.477 198.799 189.203C196.476 189.929 193.487 189.877 192.155 189.203C190.763 188.447 189.643 187.273 188.952 185.847C188.534 184.711 186.57 183.703 184.605 183.618C182.641 183.532 179.217 185.326 177.013 187.495L174.802 189.707C172.598 191.91 170.625 195.335 170.421 197.333C170.216 199.331 169.686 201.244 169.268 201.603C168.849 201.962 168.508 203.789 168.508 205.694C168.508 207.598 169.882 210.604 171.565 212.372C173.665 214.331 176.383 215.497 179.251 215.668C181.813 215.668 184.597 216.283 185.519 216.992C186.442 217.701 187.227 219.708 187.304 221.467C187.381 223.226 188.295 225.156 189.354 225.737C190.413 226.318 191.01 229.708 190.677 233.209C190.677 233.611 190.626 233.807 190.583 234.209C190.259 237.71 190.583 241.724 191.437 243.116C192.388 245.221 192.952 247.48 193.103 249.786C193.239 252.057 194.905 254.243 196.809 254.611C198.714 254.978 201.814 253.296 203.701 250.913C205.588 248.53 207.117 244.38 207.023 241.698C206.929 239.017 207.979 235.72 209.312 234.32C210.644 232.919 211.788 229.196 211.874 226.036C211.959 222.876 213.086 218.802 214.436 217.035C215.785 215.267 216.673 212.765 216.468 211.526C216.263 210.288 214.658 208.776 212.916 208.213C211.173 207.649 209.679 206.061 209.611 204.677C209.5 203.174 209.019 201.722 208.21 200.45C207.412 199.173 207.013 197.686 207.066 196.18C207.134 194.788 207.595 193.661 208.082 193.661C208.569 193.661 209.944 195.3 211.139 197.273C212.335 199.246 213.24 201.765 213.172 202.875C213.103 203.986 213.556 205.104 214.188 205.352C214.82 205.6 216.921 204.575 218.876 203.106C220.832 201.637 221.216 198.272 219.73 195.574C218.245 192.875 218.099 190.569 219.355 190.501C219.939 190.453 220.523 190.592 221.023 190.899C221.522 191.207 221.91 191.666 222.13 192.209C222.847 193.809 223.926 195.221 225.281 196.334C226.671 197.539 228.189 198.587 229.808 199.459C230.841 199.946 231.567 201.731 231.43 203.448C231.294 205.164 232.814 208.315 234.804 210.373C236.793 212.432 239.176 211.552 240.124 208.537L241.149 205.258C242.088 202.269 243.711 200.049 244.83 200.254C245.948 200.459 247.392 202.491 248.143 204.72C248.733 206.664 249.642 208.497 250.833 210.143C251.568 210.894 252.114 210.305 252.046 208.836C251.978 207.367 252.2 206.138 252.533 206.121C253.07 206.222 253.548 206.528 253.865 206.975C254.266 207.461 255.522 207.188 256.649 206.394C257.776 205.6 258.639 202.833 258.579 200.219C258.519 197.606 259.262 195.232 260.287 194.967C260.879 194.712 261.403 194.322 261.819 193.828C262.234 193.334 262.528 192.751 262.678 192.123C262.797 191.319 262.752 190.499 262.547 189.713C262.341 188.926 261.979 188.189 261.483 187.546C260.5 186.308 260.176 184.378 260.765 183.319C261.354 182.26 262.277 181.466 262.798 181.534C263.319 181.602 264.659 179.715 265.761 177.452C266.615 175.684 267.051 174.821 267.905 173.122C269.006 170.961 270.424 169.706 271.064 170.261C271.801 171.02 272.219 172.031 272.234 173.088C272.234 173.585 272.337 174.078 272.537 174.533C272.737 174.989 273.03 175.398 273.396 175.735C274.036 176.188 275.189 175.359 275.958 173.967C276.597 172.954 277.477 172.115 278.52 171.525C282.474 185.577 283.119 200.355 280.403 214.698C277.687 229.041 271.684 242.559 262.866 254.193C254.047 265.826 242.653 275.258 229.577 281.748C216.501 288.237 202.099 291.609 187.501 291.597Z" fill="#5CADF8"/>
<path d="M152.99 140.84L152.742 140.686C150.377 139.26 146.278 139.329 143.622 140.772C141.982 141.626 141.154 142.121 139.522 143.035C136.884 144.504 134.731 146.451 134.731 147.305C134.871 148.667 135.25 149.994 135.85 151.225C136.472 152.581 136.685 154.088 136.465 155.563C136.192 156.639 137.088 157.579 138.455 157.681C140.172 157.978 141.723 158.889 142.819 160.243C143.71 161.454 144.882 162.43 146.235 163.087C147.089 163.326 148.583 161.609 149.651 159.252C150.861 156.678 152.732 154.471 155.074 152.856C156.042 152.268 156.827 151.422 157.341 150.413C157.856 149.404 158.079 148.272 157.986 147.143C157.61 145.153 155.356 142.275 152.99 140.84Z" fill="#5CADF8"/>
<path d="M218.107 231.382C217.653 231.093 217.133 230.922 216.596 230.887C216.246 230.887 215.443 231.954 214.819 233.193C214.1 234.84 213.712 236.613 213.675 238.41C213.613 239.835 213.907 241.252 214.529 242.535C214.708 242.828 214.995 243.037 215.327 243.119C215.66 243.201 216.012 243.147 216.305 242.971C216.792 242.587 217.586 239.931 218.073 237.087C218.56 234.243 218.603 231.647 218.107 231.382Z" fill="#5CADF8"/>
<path d="M177.406 165.401C178.317 165.53 179.246 165.4 180.087 165.026C180.864 164.658 181.496 163.002 181.496 161.336C181.496 159.671 181.035 158.313 180.472 158.33C179.908 158.347 179.276 159.073 179.071 159.953C178.979 160.372 178.775 160.759 178.482 161.073C178.189 161.387 177.818 161.616 177.406 161.738C177.023 161.848 176.689 162.085 176.456 162.408C176.224 162.732 176.107 163.124 176.125 163.523C176.112 163.931 176.229 164.333 176.459 164.671C176.689 165.008 177.021 165.264 177.406 165.401Z" fill="#5CADF8"/>
<path d="M267.776 232.884C268.658 231.45 269.183 229.824 269.305 228.144C269.147 226.296 268.628 224.497 267.776 222.85C266.922 221.201 265.872 219.724 265.411 219.613C264.95 219.502 264.557 220.006 264.557 220.749C264.574 220.906 264.561 221.065 264.517 221.217C264.472 221.369 264.399 221.51 264.299 221.634C264.2 221.757 264.077 221.859 263.938 221.934C263.799 222.01 263.647 222.057 263.489 222.072C262.86 222.052 262.258 221.817 261.781 221.406C261.457 221.056 260.27 221.099 259.151 221.517C257.887 222.036 256.799 222.908 256.017 224.028C255.158 225.273 254.095 226.364 252.874 227.256C251.738 228.059 250.918 230.467 251.046 232.594C251.174 234.72 252.165 236.24 253.233 236.01L256.862 235.087C257.776 234.838 258.746 234.889 259.629 235.233C260.862 235.633 262.168 235.761 263.455 235.608C264.322 235.471 265.153 235.159 265.896 234.691C266.639 234.222 267.278 233.608 267.776 232.884Z" fill="#5CADF8"/>
<path d="M268.349 192.525C268.87 192.525 269.98 191.363 270.817 189.963C271.723 188.173 272.088 186.158 271.868 184.164C271.611 182.362 270.928 180.543 270.348 180.133C270.062 179.929 269.732 179.794 269.385 179.741C269.038 179.687 268.683 179.717 268.349 179.826C267.828 180.073 267.674 181.021 267.99 181.918C268.306 182.815 267.99 184.907 267.29 186.624C266.59 188.34 266.308 190.407 266.701 191.158C266.856 191.495 267.085 191.792 267.37 192.028C267.656 192.265 267.99 192.434 268.349 192.525Z" fill="#5CADF8"/>
<path d="M272.568 229.793C272.183 230.485 271.552 231.689 271.167 232.457C270.308 233.863 269.324 235.189 268.229 236.42C267 237.838 266.197 239.494 266.462 240.067C266.726 240.639 267.785 240.767 268.819 240.348C269.852 239.93 271.065 238.29 271.517 236.719C272.013 235.044 272.802 233.471 273.849 232.073C274.703 231.091 274.882 229.913 274.31 229.434C274.181 229.32 274.027 229.237 273.86 229.192C273.693 229.147 273.518 229.142 273.349 229.177C273.18 229.212 273.021 229.286 272.886 229.393C272.75 229.5 272.641 229.637 272.568 229.793Z" fill="#5CADF8"/>
<g opacity="0.7">
<path d="M187.501 94.1953C167.132 94.1953 147.221 100.235 130.286 111.551C113.35 122.867 100.15 138.951 92.3558 157.769C84.5612 176.587 82.5218 197.293 86.4955 217.27C90.4691 237.247 100.277 255.597 114.68 270C129.082 284.402 147.432 294.211 167.409 298.184C187.386 302.158 208.093 300.118 226.911 292.324C245.729 284.529 261.812 271.33 273.128 254.394C284.444 237.458 290.484 217.547 290.484 197.179C290.484 169.866 279.634 143.672 260.321 124.359C241.008 105.045 214.814 94.1953 187.501 94.1953ZM187.501 291.597C173.046 291.587 158.787 288.26 145.82 281.874C132.853 275.488 121.524 266.212 112.704 254.76C103.885 243.309 97.8098 229.986 94.9469 215.818C92.0841 201.65 92.5096 187.014 96.1908 173.037C96.5735 172.893 96.9187 172.664 97.2011 172.369C97.4835 172.073 97.6957 171.717 97.822 171.329C97.9501 170.569 99.53 169.621 101.289 169.236C103.048 168.852 105.03 169.185 105.619 169.954C106.275 170.988 106.575 172.209 106.473 173.429C106.448 173.931 106.295 174.418 106.027 174.843C105.759 175.267 105.386 175.616 104.944 175.855C104.236 176.06 103.458 178.34 103.236 180.91C103.236 181.192 103.236 181.329 103.177 181.611C102.937 184.173 103.74 187.076 104.961 188.135C106.183 189.194 106.874 190.825 106.49 191.696C106.106 192.568 107.686 193.669 110.034 194.258C112.383 194.848 114.304 195.599 114.304 195.966C114.304 196.334 115.056 196.82 116.012 197.111C116.507 197.304 116.944 197.622 117.281 198.033C117.617 198.445 117.842 198.936 117.934 199.459C118.062 200.459 118.719 200.945 119.377 200.535C119.66 200.327 120.004 200.219 120.355 200.229C120.706 200.238 121.044 200.364 121.316 200.587C121.53 200.944 121.663 201.344 121.706 201.759C121.748 202.174 121.7 202.593 121.563 202.986C121.466 203.373 121.285 203.734 121.033 204.042C120.78 204.351 120.463 204.6 120.103 204.771C119.573 204.882 119.138 205.975 119.138 207.205C119.138 208.435 120.171 210.519 121.435 211.877C122.699 213.234 123.416 215.386 123.015 216.591C122.614 217.795 123.433 219.648 124.843 220.741C126.252 221.834 127.405 225.233 127.405 228.273V234.251C127.405 237.292 127.96 240.34 128.634 241.032C129.006 241.536 129.272 242.109 129.419 242.718C129.566 243.327 129.589 243.958 129.488 244.576C129.283 245.823 130.445 247.992 132.05 249.435C133.656 250.879 135.347 251.032 135.757 249.786C135.962 249.195 136.001 248.559 135.87 247.948C135.739 247.337 135.443 246.773 135.014 246.318C134.202 245.661 133.587 242.971 133.656 240.34C133.928 237.305 135.316 234.479 137.55 232.407C138.797 231.348 139.42 230.81 140.676 229.708C142.759 227.863 144.254 224.729 143.981 222.825C143.751 220.75 144.333 218.666 145.603 217.009C146.782 215.702 146.722 212.517 145.484 209.998C144.245 207.478 141.931 205.215 140.36 204.925C138.788 204.635 137.499 203.678 137.499 202.798C137.477 202.36 137.287 201.948 136.969 201.646C136.651 201.344 136.229 201.175 135.791 201.176C134.574 201.003 133.469 200.374 132.699 199.417C131.956 198.469 129.121 197.709 126.422 197.709H125.159C122.468 197.709 120.222 197.017 120.163 196.223C120.05 195.751 119.81 195.32 119.468 194.976C119.126 194.632 118.695 194.39 118.224 194.276C117.768 194.177 117.352 193.944 117.031 193.605C116.709 193.267 116.497 192.84 116.422 192.38C116.374 191.935 116.202 191.513 115.925 191.161C115.649 190.809 115.28 190.542 114.859 190.39C114.005 190.082 113.681 188.972 114.142 187.896C114.896 186.564 116.083 185.53 117.507 184.967C118.89 184.42 120.53 184.642 121.128 185.479C121.725 186.316 122.545 186.982 122.947 186.957C123.348 186.931 123.681 186.103 123.681 185.027C123.681 183.951 125.534 181.705 127.832 179.903L128.079 179.706C130.368 177.879 132.093 175.325 131.888 174.113C131.683 172.9 133.724 171.918 136.448 171.995H137.217C139.941 172.08 142.187 170.398 142.187 168.211C142.187 166.025 141.683 164.292 141.06 164.368C140.437 164.445 139.489 163.514 138.942 162.31C138.396 161.106 136.5 160.688 134.723 161.362C132.947 162.037 131.239 163.028 130.897 163.549C130.556 164.07 129.454 164.181 128.446 163.83C127.439 163.48 127.703 162.251 129.053 161.081C130.55 159.682 131.654 157.915 132.255 155.957C132.665 154.325 130.769 153.224 128.071 153.6L126.115 153.873C123.425 154.274 120.701 155.581 120.035 156.7C119.368 157.818 116.661 158.963 114.057 159.347C109.265 159.997 104.515 160.921 99.8289 162.114C106.972 144.281 119.382 129.049 135.405 118.451C151.427 107.853 170.3 102.392 189.506 102.797C208.713 103.201 227.339 109.452 242.901 120.715C258.463 131.979 270.221 147.719 276.607 165.837C274.344 165.24 272.115 164.129 271.423 163.113C270.731 162.097 267.93 159.953 265.36 158.672L262.653 157.28C259.661 155.879 256.447 155.012 253.156 154.718L252.029 154.676C249.398 154.599 246.051 153.113 244.65 151.26C242.645 149.021 240.006 147.445 237.084 146.742C233.821 146.059 232.182 145.743 228.885 145.179C226.118 144.701 222.907 144.974 221.823 145.743C220.738 146.511 219.799 147.784 219.799 148.544C219.799 149.304 218.603 150.201 217.143 150.551C215.683 150.901 214.308 150.781 214.103 150.243C213.898 149.705 212.121 149.125 210.157 148.962C208.193 148.8 206.024 148.655 205.323 148.612C203.335 148.075 201.409 147.331 199.576 146.392C197.117 145.239 193.666 145.136 191.89 146.161C189.858 147.544 188.33 149.549 187.535 151.874C186.903 153.975 186.792 156.64 187.278 157.776C187.523 158.34 187.912 158.831 188.407 159.197C188.902 159.562 189.485 159.791 190.097 159.859C190.598 159.876 191.091 159.732 191.506 159.45C191.92 159.167 192.234 158.761 192.402 158.288C192.535 157.82 192.762 157.384 193.069 157.007C193.376 156.629 193.756 156.319 194.187 156.093C194.964 155.752 195.716 157.28 195.853 159.467C195.885 160.609 195.589 161.736 195 162.715C194.412 163.695 193.554 164.485 192.531 164.992C190.558 165.846 188.773 165.556 188.559 164.326C188.486 163.752 188.256 163.209 187.894 162.757C187.533 162.305 187.054 161.961 186.51 161.764C185.596 161.593 184.853 162.618 184.853 164.001C184.84 164.711 184.63 165.402 184.245 165.998C183.86 166.594 183.317 167.071 182.675 167.375C181.406 167.883 180.33 168.78 179.601 169.937C179.106 170.983 179.015 172.175 179.345 173.284C179.703 174.138 179.072 174.881 177.944 174.898C176.817 174.915 176.125 176.427 176.407 178.263C176.689 180.099 177.842 181.577 178.969 181.568C179.508 181.566 180.032 181.394 180.468 181.076C180.903 180.759 181.227 180.313 181.394 179.8C181.53 179.305 181.835 178.872 182.256 178.577C182.677 178.282 183.188 178.144 183.7 178.186C184.822 178.252 185.937 177.972 186.894 177.383C187.603 176.854 188.756 177.281 189.456 178.34C190.167 179.423 190.442 180.735 190.225 182.012C189.943 182.977 190.464 183.336 191.378 182.815C192.291 182.294 192.693 180.646 192.274 179.151C191.856 177.657 191.847 176.222 192.274 175.957C192.701 175.693 193.846 176.811 194.836 178.374C195.827 179.937 197.492 180.834 198.543 180.321C199.593 179.809 201.207 180.415 202.121 181.645C203.03 182.877 203.483 184.386 203.402 185.915C203.188 187.042 201.122 188.477 198.799 189.203C196.476 189.929 193.487 189.877 192.155 189.203C190.763 188.447 189.643 187.273 188.952 185.847C188.534 184.711 186.57 183.703 184.605 183.618C182.641 183.532 179.217 185.326 177.013 187.495L174.802 189.707C172.598 191.91 170.625 195.335 170.421 197.333C170.216 199.331 169.686 201.244 169.268 201.603C168.849 201.962 168.508 203.789 168.508 205.694C168.508 207.598 169.882 210.604 171.565 212.372C173.665 214.331 176.383 215.497 179.251 215.668C181.813 215.668 184.597 216.283 185.519 216.992C186.442 217.701 187.227 219.708 187.304 221.467C187.381 223.226 188.295 225.156 189.354 225.737C190.413 226.318 191.01 229.708 190.677 233.209C190.677 233.611 190.626 233.807 190.583 234.209C190.259 237.71 190.583 241.724 191.437 243.116C192.388 245.221 192.952 247.48 193.103 249.786C193.239 252.057 194.905 254.243 196.809 254.611C198.714 254.978 201.814 253.296 203.701 250.913C205.588 248.53 207.117 244.38 207.023 241.698C206.929 239.017 207.979 235.72 209.312 234.32C210.644 232.919 211.788 229.196 211.874 226.036C211.959 222.876 213.086 218.802 214.436 217.035C215.785 215.267 216.673 212.765 216.468 211.526C216.263 210.288 214.658 208.776 212.916 208.213C211.173 207.649 209.679 206.061 209.611 204.677C209.5 203.174 209.019 201.722 208.21 200.45C207.412 199.173 207.013 197.686 207.066 196.18C207.134 194.788 207.595 193.661 208.082 193.661C208.569 193.661 209.944 195.3 211.139 197.273C212.335 199.246 213.24 201.765 213.172 202.875C213.103 203.986 213.556 205.104 214.188 205.352C214.82 205.6 216.921 204.575 218.876 203.106C220.832 201.637 221.216 198.272 219.73 195.574C218.245 192.875 218.099 190.569 219.355 190.501C219.939 190.453 220.523 190.592 221.023 190.899C221.522 191.207 221.91 191.666 222.13 192.209C222.847 193.809 223.926 195.221 225.281 196.334C226.671 197.539 228.189 198.587 229.808 199.459C230.841 199.946 231.567 201.731 231.43 203.448C231.294 205.164 232.814 208.315 234.804 210.373C236.793 212.432 239.176 211.552 240.124 208.537L241.149 205.258C242.088 202.269 243.711 200.049 244.83 200.254C245.948 200.459 247.392 202.491 248.143 204.72C248.733 206.664 249.642 208.497 250.833 210.143C251.568 210.894 252.114 210.305 252.046 208.836C251.978 207.367 252.2 206.138 252.533 206.121C253.07 206.222 253.548 206.528 253.865 206.975C254.266 207.461 255.522 207.188 256.649 206.394C257.776 205.6 258.639 202.833 258.579 200.219C258.519 197.606 259.262 195.232 260.287 194.967C260.879 194.712 261.403 194.322 261.819 193.828C262.234 193.334 262.528 192.751 262.678 192.123C262.797 191.319 262.752 190.499 262.547 189.713C262.341 188.926 261.979 188.189 261.483 187.546C260.5 186.308 260.176 184.378 260.765 183.319C261.354 182.26 262.277 181.466 262.798 181.534C263.319 181.602 264.659 179.715 265.761 177.452C266.615 175.684 267.051 174.821 267.905 173.122C269.006 170.961 270.424 169.706 271.064 170.261C271.801 171.02 272.219 172.031 272.234 173.088C272.234 173.585 272.337 174.078 272.537 174.533C272.737 174.989 273.03 175.398 273.396 175.735C274.036 176.188 275.189 175.359 275.958 173.967C276.597 172.954 277.477 172.115 278.52 171.525C282.474 185.577 283.119 200.355 280.403 214.698C277.687 229.041 271.684 242.559 262.866 254.193C254.047 265.826 242.653 275.258 229.577 281.748C216.501 288.237 202.099 291.609 187.501 291.597Z" fill="#F2F7FA"/>
<path d="M152.99 140.84L152.742 140.686C150.377 139.26 146.278 139.329 143.622 140.772C141.982 141.626 141.154 142.121 139.522 143.035C136.884 144.504 134.731 146.451 134.731 147.305C134.871 148.667 135.25 149.994 135.85 151.225C136.472 152.581 136.685 154.088 136.465 155.563C136.192 156.639 137.088 157.579 138.455 157.681C140.172 157.978 141.723 158.889 142.819 160.243C143.71 161.454 144.882 162.43 146.235 163.087C147.089 163.326 148.583 161.609 149.651 159.252C150.861 156.678 152.732 154.471 155.074 152.856C156.042 152.268 156.827 151.422 157.341 150.413C157.856 149.404 158.079 148.272 157.986 147.143C157.61 145.153 155.356 142.275 152.99 140.84Z" fill="#F2F7FA"/>
<path d="M218.107 231.382C217.653 231.093 217.133 230.922 216.596 230.887C216.246 230.887 215.443 231.954 214.819 233.193C214.1 234.84 213.712 236.613 213.675 238.41C213.613 239.835 213.907 241.252 214.529 242.535C214.708 242.828 214.995 243.037 215.327 243.119C215.66 243.201 216.012 243.147 216.305 242.971C216.792 242.587 217.586 239.931 218.073 237.087C218.56 234.243 218.603 231.647 218.107 231.382Z" fill="#F2F7FA"/>
<path d="M177.406 165.401C178.317 165.53 179.246 165.4 180.087 165.026C180.864 164.658 181.496 163.002 181.496 161.336C181.496 159.671 181.035 158.313 180.472 158.33C179.908 158.347 179.276 159.073 179.071 159.953C178.979 160.372 178.775 160.759 178.482 161.073C178.189 161.387 177.818 161.616 177.406 161.738C177.023 161.848 176.689 162.085 176.456 162.408C176.224 162.732 176.107 163.124 176.125 163.523C176.112 163.931 176.229 164.333 176.459 164.671C176.689 165.008 177.021 165.264 177.406 165.401Z" fill="#F2F7FA"/>
<path d="M267.776 232.884C268.658 231.45 269.183 229.824 269.305 228.144C269.147 226.296 268.628 224.497 267.776 222.85C266.922 221.201 265.872 219.724 265.411 219.613C264.95 219.502 264.557 220.006 264.557 220.749C264.574 220.906 264.561 221.065 264.517 221.217C264.472 221.369 264.399 221.51 264.299 221.634C264.2 221.757 264.077 221.859 263.938 221.934C263.799 222.01 263.647 222.057 263.489 222.072C262.86 222.052 262.258 221.817 261.781 221.406C261.457 221.056 260.27 221.099 259.151 221.517C257.887 222.036 256.799 222.908 256.017 224.028C255.158 225.273 254.095 226.364 252.874 227.256C251.738 228.059 250.918 230.467 251.046 232.594C251.174 234.72 252.165 236.24 253.233 236.01L256.862 235.087C257.776 234.838 258.746 234.889 259.629 235.233C260.862 235.633 262.168 235.761 263.455 235.608C264.322 235.471 265.153 235.159 265.896 234.691C266.639 234.222 267.278 233.608 267.776 232.884Z" fill="#F2F7FA"/>
<path d="M268.348 192.525C268.869 192.525 269.979 191.363 270.816 189.963C271.722 188.173 272.087 186.158 271.867 184.164C271.61 182.362 270.927 180.543 270.347 180.133C270.061 179.929 269.731 179.794 269.384 179.741C269.037 179.687 268.682 179.717 268.348 179.826C267.827 180.073 267.674 181.021 267.99 181.918C268.305 182.815 267.989 184.907 267.289 186.624C266.589 188.34 266.307 190.407 266.7 191.158C266.855 191.495 267.084 191.792 267.369 192.028C267.655 192.265 267.989 192.434 268.348 192.525Z" fill="#F2F7FA"/>
<path d="M272.568 229.793C272.183 230.485 271.552 231.689 271.167 232.457C270.308 233.863 269.324 235.189 268.229 236.42C267 237.838 266.197 239.494 266.462 240.067C266.726 240.639 267.785 240.767 268.819 240.348C269.852 239.93 271.065 238.29 271.517 236.719C272.013 235.044 272.802 233.471 273.849 232.073C274.703 231.091 274.882 229.913 274.31 229.434C274.181 229.32 274.027 229.237 273.86 229.192C273.693 229.147 273.518 229.142 273.349 229.177C273.18 229.212 273.021 229.286 272.886 229.393C272.75 229.5 272.641 229.637 272.568 229.793Z" fill="#F2F7FA"/>
</g>
<path d="M204.23 352.59L205.126 364.554H199.814L197.201 353.017L204.23 352.59Z" fill="#B55B52"/>
<path d="M205.357 363.898H198.832C198.768 363.897 198.705 363.908 198.645 363.932C198.586 363.955 198.532 363.99 198.486 364.035C198.44 364.079 198.403 364.132 198.377 364.191C198.352 364.249 198.338 364.312 198.337 364.376L197.201 370.653C197.207 370.933 197.307 371.202 197.485 371.418C197.663 371.634 197.91 371.782 198.183 371.84H198.397C201.087 371.746 203.461 371.558 206.826 371.499C210.788 371.439 209.875 371.926 214.512 371.917C217.33 371.917 217.227 368.689 216.006 368.552C210.421 367.963 209.533 366.323 207.056 364.402C206.559 364.055 205.963 363.878 205.357 363.898Z" fill="#132043"/>
<path d="M196.893 242.312L206.099 362.035L198.234 362.428C198.234 362.428 190.309 334.246 188.84 317.08C188.737 315.893 188.669 314.766 188.635 313.664C188.507 308.662 187.935 303.68 186.927 298.779L186.56 297.071L181.436 273.022C181.436 273.022 173.639 259.965 178.062 241.74L196.893 242.312Z" fill="#132043"/>
<path opacity="0.4" d="M184.083 285.757C186.688 272.648 185.381 257.088 185.381 257.088L181.521 258.634L178.959 265.876C178.959 265.876 178.959 266.456 178.959 267.421C179.582 269.37 180.392 271.255 181.376 273.049L184.083 285.757Z" fill="#132043"/>
<path d="M168.242 352.59L166.492 364.554H161.18L161.205 353.017L168.242 352.59Z" fill="#B55B52"/>
<path d="M166.935 363.898H160.419C160.355 363.896 160.292 363.908 160.232 363.931C160.173 363.955 160.118 363.99 160.072 364.034C160.026 364.078 159.989 364.131 159.964 364.19C159.938 364.249 159.925 364.312 159.924 364.376L158.779 370.653C158.785 370.934 158.887 371.204 159.067 371.42C159.247 371.636 159.495 371.784 159.77 371.84C159.841 371.848 159.913 371.848 159.983 371.84C162.674 371.746 165.048 371.558 168.404 371.498C172.375 371.438 171.461 371.925 176.133 371.917C178.951 371.917 178.84 368.688 177.619 368.552C172.033 367.963 171.154 366.323 168.669 364.401C168.162 364.046 167.553 363.869 166.935 363.898Z" fill="#132043"/>
<path d="M189.498 242.313L181.231 281.46L168.174 362.232L160.343 361.89C160.343 361.89 158.635 335.852 160.966 318.515C161.154 317.149 161.367 315.834 161.607 314.587C162.759 308.809 163.332 302.929 163.315 297.037V295.329L163.075 273.04C163.075 273.04 161.453 256.131 165.953 241.758L189.498 242.313Z" fill="#132043"/>
<path opacity="0.4" d="M196.894 242.312L178.012 241.766C178.012 241.86 177.969 241.953 177.952 242.047L165.928 241.766C164.545 246.369 163.638 251.102 163.221 255.891L180.514 258.35C181.464 258.487 182.431 258.273 183.234 257.748C184.038 257.223 184.622 256.423 184.878 255.498L186.586 249.238L188.294 255.472C188.547 256.379 189.135 257.157 189.938 257.648C190.742 258.139 191.701 258.308 192.624 258.12L198.013 257.018L196.894 242.312Z" fill="#132043"/>
<path d="M220.584 215.3L225.469 215.548C226.476 215.059 227.514 214.637 228.577 214.284C229.431 214.096 231.327 213.635 232.061 214.105C232.527 214.56 232.891 215.107 233.133 215.712C233.374 216.316 233.486 216.964 233.462 217.615C233.214 218.819 231.207 220.886 229.995 221.133C228.782 221.381 225.136 219.16 225.136 219.16L220.14 219.109L220.584 215.3Z" fill="#B55B52"/>
<path d="M219.627 214.582L223.794 215.086L222.65 219.629L218.482 219.578L219.627 214.582Z" fill="#5CADF8"/>
<path opacity="0.8" d="M219.627 214.582L223.794 215.086L222.65 219.629L218.482 219.578L219.627 214.582Z" fill="#F2F7FA"/>
<path d="M192.555 181.184C192.555 181.184 196.202 182.892 201.719 198.451C206.561 212.115 221.532 214.353 221.532 214.353L220.251 220.1C220.251 220.1 199.755 220.451 195.997 204.882C192.239 189.314 192.555 181.184 192.555 181.184Z" fill="#132043"/>
<path opacity="0.4" d="M196.04 204.882C196.648 207.518 197.881 209.97 199.635 212.03C199.383 205.17 198.433 198.355 196.8 191.688L194.076 192.405L193.888 194.446C194.332 197.435 195.041 200.902 196.04 204.882Z" fill="#132043"/>
<path d="M163.058 223.96L161.248 253.141L180.497 255.874C181.447 256.01 182.414 255.796 183.217 255.271C184.021 254.746 184.605 253.946 184.861 253.021L186.569 246.762L188.277 252.996C188.525 253.909 189.112 254.693 189.918 255.188C190.724 255.683 191.689 255.852 192.615 255.66L199.926 254.174L198.602 223.96C198.602 223.96 199.661 196.495 195.545 184.872C195.145 183.736 194.467 182.718 193.571 181.912C192.676 181.107 191.593 180.539 190.421 180.261C180.335 177.961 169.79 178.768 160.172 182.575C159.574 182.81 159.071 183.237 158.742 183.789C158.413 184.341 158.276 184.986 158.353 185.624L163.058 223.96Z" fill="#132043"/>
<path opacity="0.4" d="M162.255 217.469C163.728 207.711 163.641 197.78 161.999 188.049L160.188 188.408L159.317 193.403L162.255 217.469Z" fill="#132043"/>
<path d="M159.762 241.637L160.958 247.307C161.911 248.323 162.796 249.401 163.605 250.535C164.126 251.458 165.313 253.516 164.929 254.489C164.545 255.463 161.991 257 160.702 257.051C158.994 257.103 155.655 255.343 154.946 254.028C154.237 252.713 156.056 247.914 156.056 247.914L154.562 242.175L159.762 241.637Z" fill="#B55B52"/>
<path d="M160.292 238.699L161.317 245.155L154.596 246.266L152.99 239.724L160.292 238.699Z" fill="#5CADF8"/>
<path opacity="0.8" d="M160.292 238.699L161.317 245.155L154.596 246.266L152.99 239.724L160.292 238.699Z" fill="#F2F7FA"/>
<path d="M153.34 244.32C153.34 244.32 149.437 233.354 150.257 215.42C151.077 197.486 156.593 179.774 162.213 183.207C167.832 186.64 161.026 206.88 160.436 216.086C159.847 225.292 161.29 243.064 161.29 243.064L153.34 244.32Z" fill="#132043"/>
<path d="M183.597 211.176C184.04 211.176 184.399 210.816 184.399 210.373C184.399 209.93 184.04 209.57 183.597 209.57C183.153 209.57 182.794 209.93 182.794 210.373C182.794 210.816 183.153 211.176 183.597 211.176Z" fill="#5CADF8"/>
<path d="M186.527 227.514C186.506 227.713 186.412 227.898 186.263 228.033C186.114 228.167 185.92 228.242 185.719 228.242C185.519 228.242 185.325 228.167 185.176 228.033C185.027 227.898 184.933 227.713 184.912 227.514C184.901 227.401 184.913 227.286 184.948 227.179C184.984 227.071 185.041 226.971 185.117 226.887C185.193 226.803 185.286 226.735 185.39 226.689C185.494 226.643 185.606 226.619 185.719 226.619C185.833 226.619 185.945 226.643 186.049 226.689C186.153 226.735 186.246 226.803 186.322 226.887C186.398 226.971 186.455 227.071 186.491 227.179C186.526 227.286 186.538 227.401 186.527 227.514Z" fill="#5CADF8"/>
<path d="M186.525 244.02C186.969 244.02 187.328 243.66 187.328 243.217C187.328 242.773 186.969 242.414 186.525 242.414C186.082 242.414 185.723 242.773 185.723 243.217C185.723 243.66 186.082 244.02 186.525 244.02Z" fill="#5CADF8"/>
<path d="M194.751 198.135H188.474V201.927H194.751V198.135Z" fill="#5CADF8"/>
<path d="M171.444 178.648C174.526 177.499 177.875 177.268 181.085 177.982L183.067 179.101L183.758 181.304L181.256 183.269L175.338 183.875L170.419 181.851L170.692 179.682L171.444 178.648Z" fill="#132043"/>
<path d="M182.068 179.784C181.412 179.024 180.939 178.124 180.687 177.152C180.435 176.181 180.411 175.164 180.616 174.181L171.76 167.008C172.777 174.694 172.862 176.931 171.077 180.373C171.077 180.373 174.28 183.789 178.763 182.995C183.247 182.2 182.068 179.784 182.068 179.784Z" fill="#B55B52"/>
<path opacity="0.2" d="M180.617 174.181L171.761 167.008C171.991 168.716 172.171 170.193 172.29 171.449C173.025 173.066 174.2 174.444 175.682 175.425C177.164 176.405 178.892 176.948 180.668 176.991C180.429 176.072 180.412 175.109 180.617 174.181Z" fill="#132043"/>
<path d="M177.396 151.822C177.396 151.822 180.548 148.867 182.597 149.772C184.647 150.677 180.625 151.275 180.625 151.275C180.625 151.275 187.781 150.617 185.245 157.074L177.396 151.822Z" fill="#132043"/>
<path d="M170.274 161.346C171.521 167.068 171.982 170.475 175.347 172.977C180.428 176.761 187.141 172.977 187.619 166.999C188.046 161.594 185.911 153.173 179.933 151.756C178.61 151.433 177.225 151.456 175.913 151.821C174.6 152.186 173.404 152.881 172.436 153.841C171.469 154.8 170.764 155.991 170.389 157.301C170.013 158.61 169.98 159.994 170.291 161.32L170.274 161.346Z" fill="#B55B52"/>
<path d="M179.566 161.619C179.643 162.089 179.95 162.43 180.258 162.379C180.565 162.328 180.753 161.918 180.676 161.44C180.599 160.961 180.292 160.637 179.984 160.68C179.677 160.722 179.489 161.141 179.566 161.619Z" fill="#132043"/>
<path d="M184.878 160.764C184.954 161.233 185.253 161.575 185.569 161.524C185.885 161.472 186.065 161.054 185.988 160.593C185.911 160.132 185.603 159.739 185.296 159.824C184.989 159.91 184.801 160.311 184.878 160.764Z" fill="#132043"/>
<path d="M182.931 161.268C183.718 162.615 184.686 163.847 185.809 164.931C185.522 165.21 185.178 165.424 184.8 165.558C184.423 165.693 184.021 165.744 183.622 165.708L182.931 161.268Z" fill="#A02724"/>
<path d="M177.397 159.688C177.349 159.696 177.3 159.696 177.252 159.688C177.19 159.65 177.144 159.591 177.123 159.521C177.103 159.452 177.109 159.377 177.141 159.312C177.342 158.917 177.635 158.576 177.994 158.316C178.353 158.056 178.769 157.885 179.207 157.818C179.244 157.814 179.282 157.818 179.317 157.829C179.353 157.84 179.386 157.858 179.414 157.882C179.443 157.906 179.466 157.935 179.484 157.968C179.501 158.001 179.511 158.037 179.515 158.074C179.518 158.111 179.514 158.148 179.503 158.184C179.492 158.219 179.474 158.252 179.45 158.281C179.427 158.309 179.397 158.333 179.364 158.35C179.332 158.367 179.296 158.378 179.259 158.381C178.912 158.436 178.584 158.574 178.302 158.782C178.02 158.99 177.791 159.262 177.636 159.577C177.608 159.613 177.571 159.642 177.53 159.661C177.488 159.68 177.443 159.69 177.397 159.688Z" fill="#132043"/>
<path d="M186.646 158.313C186.599 158.316 186.552 158.307 186.51 158.286C186.468 158.265 186.432 158.233 186.407 158.194C186.218 157.906 185.967 157.665 185.67 157.49C185.374 157.315 185.042 157.211 184.699 157.186C184.662 157.188 184.625 157.183 184.591 157.171C184.556 157.159 184.524 157.14 184.497 157.115C184.47 157.09 184.448 157.061 184.433 157.027C184.418 156.994 184.409 156.958 184.408 156.921C184.408 156.847 184.436 156.776 184.487 156.722C184.538 156.668 184.607 156.635 184.681 156.631C185.126 156.646 185.56 156.767 185.947 156.984C186.335 157.201 186.665 157.507 186.91 157.878C186.952 157.937 186.969 158.01 186.957 158.082C186.946 158.153 186.908 158.218 186.851 158.262C186.824 158.288 186.791 158.306 186.755 158.315C186.719 158.324 186.681 158.323 186.646 158.313Z" fill="#132043"/>
<path d="M189.011 167.007C188.507 166.827 188.243 168.151 186.902 166.768C186.488 166.38 185.966 166.126 185.406 166.039C184.845 165.952 184.271 166.036 183.759 166.281C182.563 165.478 180.89 166.4 179.489 166.759C178.089 167.118 177.465 167.015 176.867 166.759C174.527 165.743 174.433 165.658 174.109 164.889C173.255 162.882 171.726 158.381 172.939 156.272C172.939 156.272 182.282 153.01 177.209 149.056C175.928 148.065 167.593 144.572 172.128 150.405C172.128 150.405 164.681 150.824 168.831 152.89C168.831 152.89 163.255 155.025 166.867 157.006C166.867 157.006 163.972 159.782 170.044 164.863L172.375 165.188L172.896 165.316L172.042 168.51C172.401 171.149 175.458 173.455 175.458 173.455C176.312 175.12 177.243 174.496 177.243 174.496C177.371 174.707 177.543 174.888 177.748 175.026C177.952 175.164 178.184 175.256 178.428 175.296C178.671 175.335 178.92 175.322 179.158 175.256C179.396 175.19 179.617 175.074 179.805 174.915C180.864 176.982 182.563 174.496 182.563 174.496C182.965 176.059 185.348 172.729 185.348 172.729C186.022 173.984 187.585 168.758 187.585 168.758C188.883 168.51 189.532 167.195 189.011 167.007Z" fill="#132043"/>
<path d="M168.293 167.17C169.261 168.278 170.626 168.959 172.093 169.066C174.04 169.177 174.612 167.358 173.724 165.719C172.93 164.258 170.966 162.431 169.173 163.071C168.782 163.218 168.435 163.461 168.163 163.778C167.891 164.094 167.703 164.473 167.615 164.881C167.528 165.289 167.544 165.712 167.662 166.112C167.781 166.512 167.997 166.876 168.293 167.17Z" fill="#B55B52"/>
<path d="M185.441 167.596C183.55 167.385 181.645 167.333 179.745 167.442C180.3 168.57 181.274 169.466 183.417 169.39C185.561 169.313 185.441 167.596 185.441 167.596Z" fill="#132043"/>
<path d="M182.376 168.527C183.195 168.458 184.016 168.627 184.741 169.013C184.349 169.265 183.892 169.395 183.426 169.389C182.607 169.458 181.786 169.289 181.061 168.902C181.453 168.652 181.91 168.522 182.376 168.527Z" fill="#FF5652"/>
<path d="M185.245 167.597C185.21 167.743 185.133 167.875 185.024 167.978C184.915 168.081 184.778 168.15 184.631 168.178C183.39 168.212 182.148 168.152 180.916 167.998C180.722 167.994 180.531 167.944 180.361 167.852C180.19 167.76 180.043 167.629 179.934 167.469C181.705 167.392 183.48 167.435 185.245 167.597Z" fill="#F2F7FA"/>
<path d="M170.949 186.112L173.297 193.772L178.772 201.68L183.264 206.352L184.946 199.503L184.399 185.215L184.314 182.141L183.059 180.373L181.06 182.124L179.361 182.781L176.876 182.798L170.334 180.809L170.949 186.112Z" fill="#5CADF8"/>
<path opacity="0.8" d="M170.949 186.112L173.297 193.772L178.772 201.68L183.264 206.352L184.946 199.503L184.399 185.215L184.314 182.141L183.059 180.373L181.06 182.124L179.361 182.781L176.876 182.798L170.334 180.809L170.949 186.112Z" fill="#F2F7FA"/>
<path d="M176.228 185.213C176.857 186.459 177.728 187.568 178.79 188.475C178.79 188.475 177.696 196.289 179.379 201.763L183.282 206.349L184.417 200.679C184.417 200.679 182.709 191.592 180.335 188.159C180.937 186.977 181.374 185.719 181.633 184.419L180.233 183.266C180.233 183.266 178.286 184.658 177.124 183.693L176.228 185.213Z" fill="#5CADF8"/>
<path d="M170.795 179.355C170.795 179.355 174.399 182.43 178.029 182.43C181.658 182.43 182.051 178.646 182.051 178.646L183.58 180.295C183.659 182.212 183.229 184.115 182.333 185.812L178.55 183.25L175.988 186.939C175.988 186.939 171.974 185.009 170.01 181.55L170.795 179.355Z" fill="#5CADF8"/>
<path opacity="0.5" d="M170.795 179.355C170.795 179.355 174.399 182.43 178.029 182.43C181.658 182.43 182.051 178.646 182.051 178.646L183.58 180.295C183.659 182.212 183.229 184.115 182.333 185.812L178.55 183.25L175.988 186.939C175.988 186.939 171.974 185.009 170.01 181.55L170.795 179.355Z" fill="#F2F7FA"/>
<path d="M171.444 178.647C171.444 178.647 168.489 187.767 183.059 205.172C183.059 205.172 185.672 183.822 181.086 177.98L184.271 179.236L187.593 184.249L185.16 185.812L188.166 187.152C188.166 187.152 187.739 194.061 183.511 207.35C183.511 207.35 173.929 199.945 167.67 189.945L170.582 187.622L166.688 187.007L168.395 180.081L171.444 178.647Z" fill="#132043"/>
<path opacity="0.3" d="M171.444 178.647C171.444 178.647 168.489 187.767 183.059 205.172C183.059 205.172 185.672 183.822 181.086 177.98L184.271 179.236L187.593 184.249L185.16 185.812L188.166 187.152C188.166 187.152 187.739 194.061 183.511 207.35C183.511 207.35 173.929 199.945 167.67 189.945L170.582 187.622L166.688 187.007L168.395 180.081L171.444 178.647Z" fill="#132043"/>
<path d="M263.933 180.115C263.827 180.159 263.713 180.179 263.599 180.174C263.485 180.168 263.374 180.137 263.273 180.083C263.173 180.029 263.086 179.953 263.018 179.861C262.95 179.77 262.904 179.664 262.882 179.552C261.798 175.581 263.138 169.603 264.018 166.152L254.248 172.984C254.769 175.282 254.94 178.108 253.616 180.038C253.412 180.319 253.147 180.551 252.841 180.715C252.535 180.879 252.196 180.972 251.849 180.986L250.884 181.08C250.884 181.08 250.627 185.444 256.366 185.444C262.105 185.444 263.933 180.115 263.933 180.115Z" fill="#71403E"/>
<path opacity="0.2" d="M254.565 177.237C261.269 178.475 263.25 169.44 263.25 169.44L263.122 168.586L261.952 169.295L254.377 173.693C254.615 174.858 254.678 176.053 254.565 177.237Z" fill="#132043"/>
<path d="M265.317 162.088C264.01 167.579 263.515 170.858 260.193 173.19C255.223 176.7 248.818 172.891 248.467 167.109C248.143 161.9 250.346 153.795 256.153 152.591C257.444 152.321 258.783 152.383 260.043 152.772C261.303 153.161 262.443 153.865 263.356 154.816C264.27 155.768 264.926 156.936 265.263 158.211C265.6 159.487 265.606 160.826 265.283 162.105L265.317 162.088Z" fill="#71403E"/>
<path d="M253.352 160.602C252.573 161.884 251.619 163.051 250.517 164.069C250.784 164.347 251.109 164.563 251.469 164.701C251.829 164.84 252.215 164.898 252.6 164.872L253.352 160.602Z" fill="#561616"/>
<path d="M258.604 159.91C258.624 159.919 258.646 159.923 258.668 159.923C258.69 159.923 258.711 159.919 258.732 159.91C258.761 159.896 258.787 159.877 258.808 159.853C258.829 159.829 258.845 159.802 258.856 159.771C258.866 159.741 258.87 159.709 258.868 159.677C258.866 159.645 258.857 159.614 258.843 159.586C258.666 159.227 258.404 158.918 258.079 158.686C257.754 158.454 257.377 158.305 256.981 158.253C256.949 158.25 256.916 158.253 256.886 158.262C256.855 158.272 256.826 158.287 256.801 158.308C256.776 158.329 256.756 158.354 256.742 158.383C256.727 158.412 256.718 158.443 256.716 158.475C256.713 158.508 256.716 158.54 256.725 158.571C256.734 158.602 256.75 158.63 256.771 158.655C256.792 158.68 256.817 158.7 256.846 158.715C256.875 158.729 256.906 158.738 256.938 158.74C257.246 158.785 257.539 158.903 257.791 159.084C258.044 159.265 258.249 159.505 258.39 159.782C258.411 159.821 258.441 159.853 258.479 159.876C258.517 159.899 258.56 159.91 258.604 159.91Z" fill="#132043"/>
<path d="M250.278 158.671C250.32 158.67 250.361 158.66 250.398 158.641C250.435 158.622 250.467 158.594 250.491 158.56C250.669 158.29 250.906 158.066 251.184 157.903C251.463 157.74 251.775 157.643 252.097 157.62C252.13 157.616 252.162 157.605 252.191 157.588C252.22 157.571 252.245 157.548 252.264 157.521C252.283 157.493 252.297 157.462 252.303 157.429C252.31 157.397 252.309 157.363 252.302 157.33C252.292 157.279 252.268 157.232 252.231 157.196C252.195 157.159 252.148 157.134 252.097 157.125C251.695 157.146 251.304 157.262 250.956 157.462C250.607 157.662 250.311 157.942 250.09 158.278C250.07 158.303 250.056 158.333 250.048 158.364C250.04 158.395 250.038 158.428 250.043 158.46C250.047 158.492 250.059 158.522 250.076 158.55C250.093 158.577 250.115 158.601 250.141 158.619C250.159 158.637 250.181 158.65 250.204 158.659C250.228 158.668 250.253 158.672 250.278 158.671Z" fill="#132043"/>
<path d="M266.999 168.006C266.562 168.557 266.022 169.016 265.408 169.357C264.794 169.699 264.119 169.916 263.421 169.996C261.55 170.192 260.91 168.442 261.713 166.836C262.404 165.384 264.215 163.548 265.983 164.095C266.362 164.223 266.704 164.444 266.977 164.738C267.25 165.031 267.446 165.388 267.547 165.776C267.647 166.164 267.65 166.571 267.555 166.96C267.459 167.35 267.268 167.709 266.999 168.006Z" fill="#71403E"/>
<path d="M255.385 152.224C255.713 151.948 256.111 151.769 256.536 151.709C256.96 151.649 257.393 151.709 257.785 151.882C257.785 151.882 258.288 151.165 260.236 152.224C262.183 153.283 266.171 155.691 266.214 157.143C266.214 157.143 267.375 158.62 266.171 159.602C266.171 159.602 261.815 158.031 260.193 156.656C258.57 155.281 256.145 152.591 256.145 152.591L255.385 152.224Z" fill="#5CADF8"/>
<path opacity="0.2" d="M255.385 152.224C255.713 151.948 256.111 151.769 256.536 151.709C256.96 151.649 257.393 151.709 257.785 151.882C257.785 151.882 258.288 151.165 260.236 152.224C262.183 153.283 266.171 155.691 266.214 157.143C266.214 157.143 267.375 158.62 266.171 159.602C266.171 159.602 261.815 158.031 260.193 156.656C258.57 155.281 256.145 152.591 256.145 152.591L255.385 152.224Z" fill="#132043"/>
<path d="M264.658 164.881C264.658 164.881 257.997 159.304 256.229 153.728C256.229 153.728 254.146 152.643 250.371 157.613C250.371 157.613 249.91 154.889 251.558 154.146C251.738 153.547 252.089 153.015 252.569 152.614C253.049 152.213 253.636 151.962 254.257 151.891C255.308 151.726 256.385 151.909 257.322 152.412L266.196 159.586C266.502 159.987 266.669 160.477 266.669 160.982C266.669 161.487 266.502 161.978 266.196 162.379C266.196 162.379 267.289 164.18 264.658 164.881Z" fill="#5CADF8"/>
<path opacity="0.1" d="M257.246 154.104C257.246 154.104 261.695 160.5 265.316 162.088C265.316 162.088 260.235 155.726 257.246 154.104Z" fill="#132043"/>
<path d="M252.584 165.98C253.23 165.605 253.961 165.401 254.708 165.386C255.455 165.371 256.193 165.546 256.854 165.895C257.458 166.261 258.159 166.437 258.864 166.399C259.569 166.361 260.247 166.111 260.808 165.681C260.808 165.681 260.261 167.688 258.468 167.517C258.468 167.517 258.468 173.419 256.974 171.711C256.974 171.711 256.205 175.374 255.026 173.256C255.026 173.256 254.608 176.126 253.318 172.693C253.318 172.693 252.524 174.657 251.901 170.985C251.901 170.985 251.004 173.786 250.586 167.979C250.586 167.979 249.612 168.371 249.236 167.005C249.56 167.088 249.903 167.046 250.197 166.888C250.491 166.729 250.715 166.467 250.825 166.151C251.243 165.032 252.584 165.98 252.584 165.98Z" fill="#132043"/>
<path opacity="0.4" d="M252.584 165.98C253.23 165.605 253.961 165.401 254.708 165.386C255.455 165.371 256.193 165.546 256.854 165.895C257.458 166.261 258.159 166.437 258.864 166.399C259.569 166.361 260.247 166.111 260.808 165.681C260.808 165.681 260.261 167.688 258.468 167.517C258.468 167.517 258.468 173.419 256.974 171.711C256.974 171.711 256.205 175.374 255.026 173.256C255.026 173.256 254.608 176.126 253.318 172.693C253.318 172.693 252.524 174.657 251.901 170.985C251.901 170.985 251.004 173.786 250.586 167.979C250.586 167.979 249.612 168.371 249.236 167.005C249.56 167.088 249.903 167.046 250.197 166.888C250.491 166.729 250.715 166.467 250.825 166.151C251.243 165.032 252.584 165.98 252.584 165.98Z" fill="#F2F7FA"/>
<path d="M251.439 167.708C253.392 167.49 255.361 167.439 257.323 167.554C256.751 168.715 255.752 169.638 253.531 169.569C251.311 169.501 251.439 167.708 251.439 167.708Z" fill="#132043"/>
<path d="M254.616 168.671C253.768 168.598 252.918 168.77 252.165 169.166C252.571 169.43 253.047 169.566 253.531 169.559C254.377 169.629 255.225 169.454 255.974 169.055C255.569 168.797 255.096 168.663 254.616 168.671Z" fill="#FF5652"/>
<path d="M251.644 167.682C251.685 167.831 251.767 167.967 251.879 168.074C251.992 168.181 252.132 168.255 252.284 168.288C253.565 168.321 254.847 168.255 256.119 168.092C256.318 168.088 256.514 168.037 256.689 167.942C256.865 167.847 257.015 167.711 257.126 167.545C255.298 167.467 253.466 167.512 251.644 167.682Z" fill="#F2F7FA"/>
<path d="M256.863 161.233C256.794 161.652 256.504 161.959 256.231 161.899C255.957 161.84 255.787 161.498 255.855 161.045C255.923 160.593 256.214 160.311 256.495 160.379C256.777 160.448 256.931 160.815 256.863 161.233Z" fill="#132043"/>
<path d="M252.062 160.592C251.994 161.011 251.712 161.318 251.43 161.259C251.149 161.199 250.986 160.849 251.055 160.405C251.123 159.96 251.413 159.679 251.695 159.738C251.977 159.798 252.131 160.165 252.062 160.592Z" fill="#132043"/>
<path d="M254.231 159.569C254.086 159.424 253.902 159.323 253.701 159.279C253.5 159.249 253.294 159.282 253.112 159.373L248.723 158.596L248.441 160.176C248.37 160.472 248.361 160.779 248.413 161.079C248.466 161.379 248.579 161.665 248.746 161.92C248.913 162.175 249.13 162.393 249.384 162.561C249.638 162.728 249.924 162.843 250.224 162.896C250.524 162.95 250.831 162.942 251.128 162.872C251.424 162.803 251.704 162.673 251.948 162.492C252.193 162.311 252.398 162.082 252.551 161.819C252.705 161.555 252.802 161.264 252.839 160.961L252.975 160.218C253.002 160.075 253.085 159.948 253.205 159.865C253.324 159.782 253.472 159.749 253.616 159.774C253.761 159.799 253.89 159.881 253.975 160.001C254.06 160.121 254.093 160.27 254.069 160.415L253.94 161.149C253.87 161.445 253.861 161.753 253.913 162.053C253.966 162.353 254.079 162.639 254.246 162.894C254.413 163.148 254.63 163.366 254.884 163.534C255.138 163.702 255.424 163.816 255.724 163.87C256.023 163.923 256.331 163.915 256.628 163.846C256.924 163.776 257.203 163.647 257.448 163.466C257.693 163.285 257.898 163.055 258.051 162.792C258.204 162.529 258.302 162.237 258.339 161.935L258.62 160.346L254.231 159.569ZM252.352 160.867C252.313 161.092 252.23 161.306 252.108 161.498C251.986 161.69 251.827 161.857 251.64 161.988C251.454 162.118 251.244 162.211 251.021 162.261C250.799 162.31 250.569 162.316 250.345 162.276C250.121 162.237 249.906 162.154 249.714 162.032C249.522 161.91 249.356 161.751 249.225 161.565C249.094 161.378 249.001 161.168 248.952 160.946C248.902 160.724 248.897 160.494 248.936 160.27L249.132 159.168L252.548 159.774L252.352 160.867ZM257.852 161.841C257.813 162.065 257.729 162.28 257.607 162.472C257.485 162.664 257.327 162.83 257.14 162.961C256.954 163.092 256.743 163.185 256.521 163.234C256.299 163.284 256.069 163.289 255.845 163.25C255.621 163.211 255.406 163.128 255.214 163.006C255.022 162.884 254.856 162.725 254.725 162.538C254.594 162.352 254.501 162.142 254.451 161.919C254.402 161.697 254.397 161.467 254.436 161.243L254.632 160.141L258.048 160.748L257.852 161.841Z" fill="#5CADF8"/>
<path opacity="0.6" d="M254.231 159.569C254.086 159.424 253.902 159.323 253.701 159.279C253.5 159.249 253.294 159.282 253.112 159.373L248.723 158.596L248.441 160.176C248.37 160.472 248.361 160.779 248.413 161.079C248.466 161.379 248.579 161.665 248.746 161.92C248.913 162.175 249.13 162.393 249.384 162.561C249.638 162.728 249.924 162.843 250.224 162.896C250.524 162.95 250.831 162.942 251.128 162.872C251.424 162.803 251.704 162.673 251.948 162.492C252.193 162.311 252.398 162.082 252.551 161.819C252.705 161.555 252.802 161.264 252.839 160.961L252.975 160.218C253.002 160.075 253.085 159.948 253.205 159.865C253.324 159.782 253.472 159.749 253.616 159.774C253.761 159.799 253.89 159.881 253.975 160.001C254.06 160.121 254.093 160.27 254.069 160.415L253.94 161.149C253.87 161.445 253.861 161.753 253.913 162.053C253.966 162.353 254.079 162.639 254.246 162.894C254.413 163.148 254.63 163.366 254.884 163.534C255.138 163.702 255.424 163.816 255.724 163.87C256.023 163.923 256.331 163.915 256.628 163.846C256.924 163.776 257.203 163.647 257.448 163.466C257.693 163.285 257.898 163.055 258.051 162.792C258.204 162.529 258.302 162.237 258.339 161.935L258.62 160.346L254.231 159.569ZM252.352 160.867C252.313 161.092 252.23 161.306 252.108 161.498C251.986 161.69 251.827 161.857 251.64 161.988C251.454 162.118 251.244 162.211 251.021 162.261C250.799 162.31 250.569 162.316 250.345 162.276C250.121 162.237 249.906 162.154 249.714 162.032C249.522 161.91 249.356 161.751 249.225 161.565C249.094 161.378 249.001 161.168 248.952 160.946C248.902 160.724 248.897 160.494 248.936 160.27L249.132 159.168L252.548 159.774L252.352 160.867ZM257.852 161.841C257.813 162.065 257.729 162.28 257.607 162.472C257.485 162.664 257.327 162.83 257.14 162.961C256.954 163.092 256.743 163.185 256.521 163.234C256.299 163.284 256.069 163.289 255.845 163.25C255.621 163.211 255.406 163.128 255.214 163.006C255.022 162.884 254.856 162.725 254.725 162.538C254.594 162.352 254.501 162.142 254.451 161.919C254.402 161.697 254.397 161.467 254.436 161.243L254.632 160.141L258.048 160.748L257.852 161.841Z" fill="#F2F7FA"/>
<path d="M262.088 162.471L258.509 160.43L258.262 160.865L263.463 163.829C263.07 163.419 262.6 162.966 262.088 162.471Z" fill="#5CADF8"/>
<path opacity="0.6" d="M262.088 162.471L258.509 160.43L258.262 160.865L263.463 163.829C263.07 163.419 262.6 162.966 262.088 162.471Z" fill="#F2F7FA"/>
<path d="M229.09 233.926L226.929 238.537C225.978 239.226 225.074 239.976 224.222 240.783C223.633 241.475 222.275 243.004 222.352 243.909C222.546 244.561 222.875 245.164 223.316 245.682C223.757 246.2 224.301 246.62 224.914 246.915C226.152 247.274 229.03 246.428 229.85 245.438C230.67 244.447 230.405 239.998 230.405 239.998L232.796 235.378L229.09 233.926Z" fill="#71403E"/>
<path d="M229.337 231.312L227.125 236.641L231.839 238.896L234.495 233.61L229.337 231.312Z" fill="#5CADF8"/>
<path opacity="0.8" d="M229.337 231.312L227.125 236.641L231.839 238.896L234.495 233.61L229.337 231.312Z" fill="#F2F7FA"/>
<path d="M233.104 237.172C237.751 228.97 241.134 220.114 243.139 210.903C246.555 195.36 250.645 179.57 245.513 180.611C236.119 182.516 235.982 205.377 234.368 213.405C232.754 221.433 227.536 234.55 227.536 234.55L233.104 237.172Z" fill="#132043"/>
<path opacity="0.2" d="M233.104 237.172C237.751 228.97 241.134 220.114 243.139 210.903C246.555 195.36 251.499 179.843 246.29 180.373C236.136 181.397 235.982 205.403 234.334 213.405C232.686 221.407 227.502 234.55 227.502 234.55L233.104 237.172Z" fill="#132043"/>
<path d="M232.813 352.59L232.344 364.554H237.656L239.859 353.017L232.813 352.59Z" fill="#71403E"/>
<path d="M232.087 363.897H238.612C238.743 363.894 238.869 363.943 238.965 364.032C239.061 364.121 239.118 364.244 239.124 364.375L240.474 370.652C240.481 370.928 240.392 371.199 240.22 371.416C240.048 371.633 239.805 371.783 239.534 371.839C239.463 371.847 239.392 371.847 239.321 371.839C236.622 371.745 234.248 371.557 230.883 371.497C226.921 371.437 227.852 371.924 223.197 371.916C220.379 371.916 220.379 368.688 221.592 368.551C227.16 367.962 227.98 366.322 230.396 364.401C230.889 364.05 231.484 363.873 232.087 363.897Z" fill="#132043"/>
<path d="M236.323 242.312L231.489 360.942L239.363 361.326C239.363 361.326 246.118 334.22 246.981 317.08C247.041 315.893 247.075 314.766 247.066 313.664C247.027 308.676 247.436 303.694 248.287 298.779L248.595 297.071L252.865 273.022C252.865 273.022 260.209 259.965 255.145 241.74L236.323 242.312Z" fill="#5CADF8"/>
<path opacity="0.2" d="M250.619 285.755C247.553 272.646 248.322 257.086 248.322 257.086L252.233 258.632L255.094 265.874C255.094 265.874 255.094 266.454 255.094 267.419C254.542 269.364 253.799 271.249 252.874 273.047L250.619 285.755Z" fill="#132043"/>
<path d="M231.174 359.164L231.097 361.94L239.449 362.443L240.2 359.702L231.174 359.164Z" fill="#5CADF8"/>
<path opacity="0.4" d="M231.174 359.164L231.097 361.94L239.449 362.443L240.2 359.702L231.174 359.164Z" fill="#F2F7FA"/>
<path d="M266.214 352.59L267.956 364.554H273.268L273.242 353.017L266.214 352.59Z" fill="#71403E"/>
<path d="M267.511 363.896H274.036C274.099 363.895 274.163 363.907 274.222 363.93C274.282 363.953 274.336 363.988 274.382 364.033C274.428 364.077 274.465 364.13 274.491 364.189C274.516 364.247 274.53 364.311 274.531 364.374L275.667 370.651C275.661 370.931 275.561 371.201 275.383 371.416C275.204 371.632 274.958 371.781 274.685 371.838C274.611 371.847 274.536 371.847 274.463 371.838C271.772 371.744 269.407 371.557 266.042 371.497C262.08 371.437 262.993 371.924 258.356 371.915C255.538 371.915 255.64 368.687 256.862 368.551C262.447 367.961 263.335 366.322 265.812 364.4C266.308 364.052 266.905 363.875 267.511 363.896Z" fill="#132043"/>
<path d="M244.957 242.311C244.957 242.311 251.379 271.629 253.215 281.458C256.922 301.254 266.213 360.957 266.213 360.957L274.044 360.616C274.044 360.616 275.838 335.85 273.481 318.513C273.301 317.147 273.088 315.832 272.849 314.585C271.687 308.808 271.115 302.928 271.141 297.035C271.141 297.035 271.141 295.763 271.141 295.327C271.141 289.759 271.081 278.606 271.371 273.038C271.79 265.198 273.002 256.129 268.493 241.756L244.957 242.311Z" fill="#5CADF8"/>
<path d="M265.564 359.711L266 362.47L274.318 361.974L274.472 359.182L265.564 359.711Z" fill="#5CADF8"/>
<path opacity="0.4" d="M265.564 359.711L266 362.47L274.318 361.974L274.472 359.182L265.564 359.711Z" fill="#F2F7FA"/>
<path d="M237.237 241.184C237.237 241.184 241.61 245.89 248.237 242.414C248.237 242.414 251.815 245.095 262.388 242.414L267.939 181.541V180.482H263.788L256.418 182.002L252.584 180.234L250.184 179.756L241.977 191.507L237.545 232.729L237.237 241.184Z" fill="#5CADF8"/>
<path opacity="0.8" d="M237.237 241.184C237.237 241.184 241.61 245.89 248.237 242.414C248.237 242.414 251.815 245.095 262.388 242.414L267.939 181.541V180.482H263.788L256.418 182.002L252.584 180.234L250.184 179.756L241.977 191.507L237.545 232.729L237.237 241.184Z" fill="#F2F7FA"/>
<path d="M253.42 183.48L253.967 185.837L254.607 187.81C254.607 187.81 247.084 202.686 246.605 231.364L248.834 233.635L252.882 231.073C252.882 231.073 252.583 214.676 256.358 188.083L257.374 186.904L259.023 184.547L258.553 183.172C258.288 183.39 257.981 183.552 257.652 183.649C257.323 183.746 256.978 183.776 256.637 183.737C256.296 183.698 255.966 183.591 255.668 183.422C255.369 183.253 255.107 183.026 254.898 182.754L253.42 183.48Z" fill="#5CADF8"/>
<path opacity="0.8" d="M249.722 203.217C249.679 203.396 249.645 203.575 249.603 203.755L254.385 204.353C254.385 204.173 254.428 203.985 254.445 203.806L249.722 203.217Z" fill="#F2F7FA"/>
<path d="M233.224 255.753C233.224 255.753 243.386 265.651 242.404 233.225C241.098 190.363 251.943 179.337 251.943 179.337C251.943 179.337 233.01 176.178 234.932 220.944C235.324 229.937 236.324 242.311 233.224 255.753Z" fill="#132043"/>
<path d="M264.966 179.082C264.966 179.082 259.099 195.949 259.842 223.439C260.483 246.241 258.92 257.351 275.274 255.934C273.043 246.044 272.198 235.893 272.763 225.77C273.634 208.323 286.948 176.99 264.966 179.082Z" fill="#132043"/>
<path opacity="0.2" d="M274.608 184.555C273.651 183.266 271.585 183.522 270.645 184.948C268.664 187.954 265.444 191.84 263.241 209.253L260.004 209.432C259.945 211.994 259.834 220.329 259.859 221.525C262.383 221.214 264.889 220.769 267.366 220.193C273.472 218.45 279.313 190.866 274.608 184.555Z" fill="#132043"/>
<path d="M234.812 235.863H239.253C239.253 235.863 239.859 238.81 233.949 238.468L234.812 235.863Z" fill="#132043"/>
<path d="M262.387 235.865L269.876 234.969C269.876 234.969 271.089 237.531 266.717 237.924C262.344 238.316 262.387 235.865 262.387 235.865Z" fill="#132043"/>
<g opacity="0.1">
<path d="M234.812 235.865H239.253C239.253 235.865 239.859 238.812 233.949 238.47L234.812 235.865Z" fill="#F2F7FA"/>
<path d="M262.388 235.865L269.877 234.969C269.877 234.969 271.09 237.531 266.717 237.924C262.345 238.316 262.388 235.865 262.388 235.865Z" fill="#F2F7FA"/>
</g>
<path d="M251.943 179.338L253.147 179.013L256.375 181.183L263.967 178.971L264.967 179.082L265.607 181.183L258.553 186.067L256.375 182.908L253.147 184.915L250.73 179.902L251.943 179.338Z" fill="#5CADF8"/>
<path opacity="0.5" d="M251.943 179.338L253.147 179.013L256.375 181.183L263.967 178.971L264.967 179.082L265.607 181.183L258.553 186.067L256.375 182.908L253.147 184.915L250.73 179.902L251.943 179.338Z" fill="#F2F7FA"/>
<path d="M264.966 179.082C264.966 179.082 260.568 191.739 259.894 212.969C263.173 197.956 267.938 191.243 267.938 191.243L264.565 189.168L267.938 186.751C266.82 184.317 266.905 180.491 266.99 178.988C266.35 178.988 265.684 179.014 264.966 179.082Z" fill="#132043"/>
<path opacity="0.1" d="M264.966 179.082C264.966 179.082 260.568 191.739 259.894 212.969C263.173 197.956 267.938 191.243 267.938 191.243L264.565 189.168L267.938 186.751C266.82 184.317 266.905 180.491 266.99 178.988C266.35 178.988 265.684 179.014 264.966 179.082Z" fill="#F2F7FA"/>
<path d="M241.704 215.102L236.836 215.35C235.833 214.865 234.801 214.446 233.744 214.095C232.89 213.907 230.994 213.446 230.269 213.915C229.805 214.368 229.442 214.912 229.202 215.514C228.962 216.116 228.851 216.761 228.877 217.408C229.176 218.195 229.634 218.913 230.222 219.516C230.809 220.12 231.514 220.597 232.293 220.918C233.565 221.183 237.135 218.954 237.135 218.954L242.114 218.903L241.704 215.102Z" fill="#71403E"/>
<path d="M245.786 213.678L239.671 214.395L240.542 219.425H246.281L245.786 213.678Z" fill="#5CADF8"/>
<path opacity="0.8" d="M245.786 213.678L239.671 214.395L240.542 219.425H246.281L245.786 213.678Z" fill="#F2F7FA"/>
<path d="M271.252 182.575C269.356 185.462 266.264 193.993 264.155 210.681L242.711 213.302L243.095 220.066C243.095 220.066 260.363 220.484 267.007 218.572C272.823 216.864 279.527 188.255 275.043 182.2C274.138 180.97 272.157 181.209 271.252 182.575Z" fill="#132043"/>
<path d="M242.413 195.096H236.136V198.887H242.413V195.096Z" fill="#5CADF8"/>
<path d="M249.731 179.389C248.023 180.32 246.058 182.233 244.205 185.196L245.29 187.912L241.438 189.244C241.057 197.039 241.51 204.852 242.788 212.55C244.743 186.665 251.942 179.338 251.942 179.338C251.206 179.261 250.463 179.279 249.731 179.389Z" fill="#132043"/>
<path opacity="0.1" d="M249.731 179.389C248.023 180.32 246.058 182.233 244.205 185.196L245.29 187.912L241.438 189.244C241.057 197.039 241.51 204.852 242.788 212.55C244.743 186.665 251.942 179.338 251.942 179.338C251.206 179.261 250.463 179.279 249.731 179.389Z" fill="#F2F7FA"/>
<path d="M111.495 190.396C114.074 189.84 116.756 190.002 119.249 190.866C119.249 190.866 120.735 194.461 117.541 194.624C114.347 194.786 111.478 191.532 111.478 191.532L111.495 190.396Z" fill="#5CADF8"/>
<path d="M107.301 168.8C107.301 168.8 116.14 158.637 122.964 165.299C122.964 165.299 128.267 170.183 127.191 175.231C126.115 180.278 121.068 178.314 124.51 187.323C124.51 187.323 122.229 191.858 111.563 188.399L108.787 183.95L110.256 188.399C110.256 188.399 103.809 187.639 103.86 181.217C103.911 174.795 101.101 168.732 107.301 168.8Z" fill="#132043"/>
<path d="M110.7 192.48C110.7 192.48 112.75 192.403 112.733 189.867C112.688 187.99 112.543 186.117 112.297 184.256L118.378 184.794C118.378 184.794 117.566 192.275 120.35 192.651C120.35 192.651 117.916 196.383 110.7 192.48Z" fill="#FFB573"/>
<path opacity="0.1" d="M118.378 184.794L112.298 184.256C112.298 184.256 112.452 185.383 112.571 186.818C114.05 188.665 116.198 189.853 118.549 190.123C118.263 188.361 118.206 186.57 118.378 184.794Z" fill="#132043"/>
<path d="M108.395 176.086C109.206 181.543 109.428 183.865 112.443 186.445C116.969 190.313 123.485 188.153 124.322 182.55C125.082 177.52 123.63 169.45 118.079 167.733C116.183 167.144 114.131 167.329 112.371 168.247C110.611 169.166 109.286 170.743 108.685 172.635C108.325 173.748 108.225 174.928 108.395 176.086Z" fill="#FFB573"/>
<path d="M107.473 180.534C107.866 181.526 108.637 182.322 109.616 182.746C110.914 183.293 111.743 182.174 111.529 180.859C111.316 179.544 110.436 177.947 109.061 177.955C108.822 177.963 108.586 178.018 108.368 178.117C108.151 178.216 107.955 178.358 107.792 178.533C107.629 178.709 107.503 178.915 107.42 179.14C107.337 179.364 107.3 179.603 107.31 179.842C107.317 180.082 107.373 180.317 107.473 180.534Z" fill="#FFB573"/>
<path d="M120.606 177.348C121.093 178.332 121.711 179.245 122.443 180.063C122.229 180.245 121.979 180.378 121.709 180.455C121.44 180.531 121.157 180.549 120.88 180.507L120.606 177.348Z" fill="#ED893E"/>
<path d="M114.611 174.864C114.575 174.876 114.537 174.876 114.5 174.864C114.455 174.83 114.425 174.779 114.417 174.723C114.409 174.667 114.424 174.61 114.458 174.565C114.698 174.233 115.014 173.964 115.379 173.78C115.745 173.596 116.149 173.502 116.559 173.506C116.616 173.514 116.668 173.543 116.706 173.587C116.744 173.631 116.764 173.687 116.764 173.745C116.757 173.801 116.73 173.852 116.687 173.889C116.644 173.925 116.589 173.944 116.533 173.942C116.202 173.942 115.875 174.02 115.579 174.168C115.282 174.316 115.024 174.531 114.825 174.796C114.799 174.825 114.765 174.847 114.727 174.859C114.69 174.871 114.65 174.872 114.611 174.864Z" fill="#132043"/>
<path d="M124.075 174.129L123.972 174.087C123.702 173.884 123.388 173.748 123.056 173.689C122.724 173.629 122.382 173.649 122.059 173.745C122.033 173.756 122.005 173.762 121.976 173.762C121.947 173.762 121.919 173.756 121.893 173.745C121.867 173.734 121.843 173.717 121.823 173.697C121.803 173.676 121.788 173.652 121.777 173.625C121.766 173.599 121.761 173.57 121.762 173.541C121.762 173.512 121.769 173.483 121.781 173.457C121.793 173.431 121.81 173.407 121.831 173.388C121.853 173.368 121.878 173.353 121.905 173.344C122.295 173.217 122.709 173.186 123.114 173.253C123.518 173.32 123.9 173.483 124.228 173.728C124.277 173.761 124.31 173.812 124.322 173.869C124.333 173.927 124.321 173.987 124.288 174.035C124.265 174.069 124.232 174.096 124.195 174.113C124.157 174.129 124.115 174.135 124.075 174.129Z" fill="#132043"/>
<path d="M117.387 176.887C117.387 177.331 117.694 177.664 117.993 177.647C118.292 177.63 118.488 177.237 118.445 176.793C118.403 176.349 118.138 176.007 117.848 176.033C117.557 176.058 117.352 176.434 117.387 176.887Z" fill="#132043"/>
<path d="M122.434 176.451C122.477 176.895 122.742 177.237 123.032 177.211C123.322 177.186 123.527 176.81 123.493 176.357C123.459 175.905 123.186 175.571 122.895 175.597C122.605 175.623 122.391 175.998 122.434 176.451Z" fill="#132043"/>
<path d="M122.768 175.632L123.818 175.23C123.818 175.23 123.331 176.136 122.768 175.632Z" fill="#132043"/>
<path d="M117.72 176.067L118.77 175.666C118.77 175.666 118.326 176.546 117.72 176.067Z" fill="#132043"/>
<path d="M119.821 183.103C120.078 183.106 120.336 183.083 120.589 183.035C120.624 183.029 120.655 183.009 120.676 182.98C120.696 182.952 120.705 182.916 120.7 182.881C120.694 182.846 120.674 182.815 120.646 182.795C120.617 182.774 120.582 182.765 120.547 182.77C119.988 182.885 119.411 182.868 118.861 182.72C118.311 182.571 117.803 182.296 117.378 181.916C117.353 181.889 117.319 181.873 117.282 181.871C117.245 181.87 117.209 181.883 117.182 181.908C117.155 181.933 117.138 181.967 117.137 182.004C117.135 182.041 117.148 182.077 117.173 182.104C117.895 182.765 118.843 183.123 119.821 183.103Z" fill="#132043"/>
<path d="M110.257 168.254C110.257 168.254 114.211 169.962 113.579 173.942C113.579 173.942 117.507 171.465 121.76 172.848C121.331 171.323 120.435 169.97 119.198 168.98C119.198 168.98 123.989 172.55 124.698 174.864C125.407 177.178 124.527 166.845 117.866 166.554C116.573 166.044 115.157 165.932 113.8 166.235C112.444 166.538 111.209 167.242 110.257 168.254Z" fill="#132043"/>
<path d="M112.698 169.157C112.698 169.157 113.407 170.985 112.451 174.503C111.494 178.022 110.375 178.773 112.451 182.292C114.526 185.81 112.118 186.374 112.118 186.374C112.118 186.374 113.194 185.144 110.512 182.104C109.743 181.306 109.155 180.351 108.789 179.304C108.424 178.258 108.289 177.144 108.394 176.041C108.394 176.041 107.07 173.351 109.743 169.456C112.416 165.562 112.698 169.157 112.698 169.157Z" fill="#132043"/>
<path d="M109.615 182.746C110.541 183.192 111.319 183.896 111.855 184.773C112.391 185.65 112.663 186.663 112.639 187.691L110.683 185.692L108.787 183.984L109.615 182.746Z" fill="#132043"/>
<path d="M136.73 281.247C136.653 302.469 132.46 366.314 132.46 366.314H126.414C126.414 366.314 121.512 311.453 125.987 293.579L118.472 259.068L135.842 261.306C135.842 261.306 136.747 276.242 136.73 281.247Z" fill="#FFB573"/>
<path d="M132.11 364.708H126.243C126.116 364.713 125.995 364.758 125.895 364.837C125.796 364.915 125.723 365.022 125.688 365.143L123.28 370.78C123.247 370.891 123.238 371.007 123.253 371.122C123.267 371.237 123.304 371.347 123.363 371.447C123.421 371.547 123.499 371.634 123.592 371.703C123.685 371.771 123.79 371.821 123.903 371.847C123.965 371.856 124.028 371.856 124.091 371.847C126.533 371.762 128.702 371.591 131.777 371.54C135.355 371.48 134.424 371.924 138.609 371.916C141.171 371.916 141.76 369.02 140.693 368.892C135.808 368.354 135.372 366.885 133.57 365.152C133.157 364.824 132.635 364.666 132.11 364.708Z" fill="#132043"/>
<path opacity="0.1" d="M136.141 301.076H124.834C124.288 306.55 124.109 313.263 124.143 320.283C127.937 320.073 131.69 319.387 135.313 318.242C135.62 312.34 135.911 306.491 136.141 301.076Z" fill="#132043"/>
<path d="M114.534 282.766L103.979 366.577H98.0608C98.0608 366.577 96.9335 310.811 102.331 293.475L102.835 258.76L117.72 261.322L114.534 282.766Z" fill="#FFB573"/>
<path d="M103.809 364.708H97.9161C97.7929 364.711 97.6744 364.756 97.5798 364.835C97.4852 364.914 97.4202 365.023 97.3952 365.144L95.3797 370.78C95.3547 370.896 95.3527 371.015 95.374 371.131C95.3952 371.248 95.4393 371.359 95.5036 371.458C95.5678 371.557 95.6511 371.643 95.7486 371.71C95.846 371.776 95.9558 371.823 96.0715 371.848C96.1367 371.856 96.2027 371.856 96.2679 371.848C98.6933 371.762 100.862 371.592 103.886 371.54C107.464 371.481 106.567 371.925 110.769 371.916C113.331 371.916 113.715 369.021 112.639 368.893C107.711 368.355 107.182 366.886 105.252 365.152C104.839 364.838 104.327 364.68 103.809 364.708Z" fill="#132043"/>
<path opacity="0.1" d="M101.511 296.602C100.307 302.016 99.5043 309.582 98.9492 317.764C102.495 318.856 106.179 319.431 109.889 319.472L112.451 298.976L101.511 296.602Z" fill="#132043"/>
<path d="M141.546 241.723C141.91 243.159 142.431 244.551 143.101 245.873L145.961 248.555L146.397 252.244L141.495 253.286L139.454 249.87L139.249 247.017C138.602 245.752 138.032 244.449 137.541 243.115L141.546 241.723Z" fill="#FFB573"/>
<path d="M137.226 244.045C135.407 240.185 132.845 229.766 131.462 220.688C129.164 205.777 126.525 194.769 129.694 195.871C132.824 200.565 134.947 205.858 135.928 211.414C137.38 219.262 139.344 234.634 141.974 242.055L137.226 244.045Z" fill="#5CADF8"/>
<path opacity="0.1" d="M137.226 244.045C135.407 240.185 132.845 229.766 131.462 220.688C129.164 205.777 126.525 194.769 129.694 195.871C132.824 200.565 134.947 205.858 135.928 211.414C137.38 219.262 139.344 234.634 141.974 242.055L137.226 244.045Z" fill="#132043"/>
<path opacity="0.1" d="M128.84 204.548C129.472 208.818 130.497 214.412 131.462 220.689C131.854 223.251 132.316 225.864 132.871 228.443C133.176 224.841 133.69 221.26 134.408 217.717C136.116 209.032 130.659 198.801 130.659 198.801H129.865L128.925 200.654L128.84 204.548Z" fill="#132043"/>
<path d="M109.728 192.08L111.427 191.533L115.868 194.625H117.49L118.857 194.018L120.445 192.43L122.034 193.079L123.161 197.443V198.775L123.648 200.381L125.048 205.778L126.099 212.747V217.99L125.706 223.627L124.22 220.689L120.035 212.866L116.551 203.002L115.535 199.561L112.87 196.76L110.795 193.216L109.728 192.08Z" fill="#5CADF8"/>
<path opacity="0.8" d="M109.728 192.08L111.427 191.533L115.868 194.625H117.49L118.857 194.018L120.445 192.43L122.034 193.079L123.161 197.443V198.775L123.648 200.381L125.048 205.778L126.099 212.747V217.99L125.706 223.627L124.22 220.689L120.035 212.866L116.551 203.002L115.535 199.561L112.87 196.76L110.795 193.216L109.728 192.08Z" fill="#F2F7FA"/>
<path d="M102.955 247.948C102.955 247.948 100.393 255.583 99.4704 277.044C98.5481 298.505 96.4814 315.337 96.4814 315.337C96.4814 315.337 121.862 321.913 137.175 315.337C137.175 315.337 140.24 277.334 134.706 247.965L123.604 244.062L102.955 247.948Z" fill="#132043"/>
<path d="M102.101 196.427L107.413 233.721C107.413 233.721 104.125 239.357 101.307 250.98C101.307 250.98 117.661 256.42 122.435 254.037C123.963 253.269 125.722 248.059 125.722 248.059C125.722 248.059 128.472 253.585 130.308 254.037C131.812 254.413 135.945 251.475 135.945 251.475C135.945 251.475 134.237 241.663 131.863 233.132L133.007 216.726C133.007 216.726 135.356 212.089 130.949 199.646L129.711 195.872C129.55 195.37 129.201 194.951 128.737 194.702C126.247 193.425 123.595 192.492 120.855 191.926C120.855 191.926 126.833 208.647 125.432 222.627C125.432 222.627 119.565 199.441 110.18 191.533C107.83 191.769 105.553 192.478 103.484 193.617C102.999 193.893 102.608 194.309 102.362 194.81C102.115 195.31 102.024 195.874 102.101 196.427Z" fill="#5CADF8"/>
<path d="M116.063 195.444C116.063 195.444 117.37 193.608 120.154 194.505C120.423 195.764 120.521 197.054 120.444 198.339C120.444 198.339 123.049 201.977 126.098 215.718V218.382L125.705 223.626L124.219 220.688L122.733 215.718C122.733 215.718 120.658 202.959 118.779 198.894L116.063 195.444Z" fill="#132043"/>
<path d="M110.162 191.509L111.494 190.398C111.494 190.398 115.021 194.259 117.37 194.13C119.718 194.002 119.249 190.868 119.249 190.868L120.871 191.927L121.597 192.593L121.418 196.761C121.418 196.761 119.36 194.352 118.147 194.703C116.934 195.053 115.892 197.64 115.892 197.64C115.892 197.64 113.134 196.12 110.162 191.509Z" fill="#5CADF8"/>
<path opacity="0.5" d="M110.162 191.509L111.494 190.398C111.494 190.398 115.021 194.259 117.37 194.13C119.718 194.002 119.249 190.868 119.249 190.868L120.871 191.927L121.597 192.593L121.418 196.761C121.418 196.761 119.36 194.352 118.147 194.703C116.934 195.053 115.892 197.64 115.892 197.64C115.892 197.64 113.134 196.12 110.162 191.509Z" fill="#F2F7FA"/>
<path d="M125.825 224.37C125.825 224.37 127.037 217.094 126.807 201.047L123.647 199.339L125.628 198.793C124.641 196.542 123.499 194.362 122.212 192.268C121.768 192.149 121.358 192.046 120.846 191.944C120.846 191.944 126.824 208.665 125.423 222.645C125.423 222.645 119.556 199.459 110.171 191.551C110.171 191.551 109.735 191.551 109.026 191.704C111.247 194.044 112.511 197.13 112.57 200.356H115.09L113.04 202.234L125.825 224.37Z" fill="#5CADF8"/>
<path opacity="0.2" d="M125.825 224.37C125.825 224.37 127.037 217.094 126.807 201.047L123.647 199.339L125.628 198.793C124.641 196.542 123.499 194.362 122.212 192.268C121.768 192.149 121.358 192.046 120.846 191.944C120.846 191.944 126.824 208.665 125.423 222.645C125.423 222.645 119.556 199.459 110.171 191.551C110.171 191.551 109.735 191.551 109.026 191.704C111.247 194.044 112.511 197.13 112.57 200.356H115.09L113.04 202.234L125.825 224.37Z" fill="#132043"/>
<path opacity="0.2" d="M103.869 208.946C105.054 204.845 105.925 200.66 106.474 196.427L103.254 195.018L102.11 195.539C102.062 195.821 102.062 196.11 102.11 196.393L103.869 208.946Z" fill="#132043"/>
<path d="M114.187 204.987L108.363 205.939L108.94 209.462L114.763 208.51L114.187 204.987Z" fill="#5CADF8"/>
<path opacity="0.7" d="M114.187 204.987L108.363 205.939L108.94 209.462L114.763 208.51L114.187 204.987Z" fill="#F2F7FA"/>
<path opacity="0.2" d="M124.305 230.682C124.92 229.973 124.305 226.113 124.305 226.113L106.422 226.967L107.045 231.357C110.458 231.649 113.896 231.424 117.242 230.691C117.242 230.691 123.69 231.391 124.305 230.682Z" fill="#132043"/>
<path d="M114.211 229.938C115.825 229.843 117.432 229.641 119.019 229.331L122.059 229.664H126.577V224.233L121.897 223.242L118.481 225.061C117.094 225.279 115.692 225.394 114.288 225.403L114.211 229.938Z" fill="#FFB573"/>
<path d="M114.706 230.288C107.703 230.732 95.5161 229.682 95.5332 216.94C95.5332 210.381 97.8903 192.669 104.799 193.378C111.708 194.087 101.759 201.235 101.759 216.035C101.759 224.515 109.675 224.814 114.765 224.763L114.706 230.288Z" fill="#5CADF8"/>
<path opacity="0.1" d="M114.706 230.288C107.703 230.732 95.5161 229.682 95.5332 216.94C95.5332 210.381 97.8903 192.669 104.799 193.378C111.708 194.087 101.759 201.235 101.759 216.035C101.759 224.515 109.675 224.814 114.765 224.763L114.706 230.288Z" fill="#132043"/>
</g>
</g>
<defs>
<clipPath id="clip0_35_687">
<rect width="375" height="466" fill="white"/>
</clipPath>
<clipPath id="clip1_35_687">
<rect width="427" height="427" fill="white" transform="translate(-26 19)"/>
</clipPath>
</defs>
</svg>
