<svg width="57" height="56" viewBox="0 0 57 56" fill="none" xmlns="http://www.w3.org/2000/svg">
<path d="M22.832 29L23.6165 30.5689C23.882 31.0999 24.0147 31.3654 24.1921 31.5954C24.3494 31.7996 24.5324 31.9826 24.7366 32.14C24.9667 32.3173 25.2321 32.4501 25.7631 32.7155L27.332 33.5L25.7631 34.2845C25.2321 34.5499 24.9667 34.6827 24.7366 34.86C24.5324 35.0174 24.3494 35.2004 24.1921 35.4046C24.0147 35.6346 23.882 35.9001 23.6165 36.4311L22.832 38L22.0476 36.4311C21.7821 35.9001 21.6493 35.6346 21.472 35.4046C21.3146 35.2004 21.1316 35.0174 20.9275 34.86C20.6974 34.6827 20.4319 34.5499 19.901 34.2845L18.332 33.5L19.901 32.7155C20.4319 32.4501 20.6974 32.3173 20.9275 32.14C21.1316 31.9826 21.3146 31.7996 21.472 31.5954C21.6493 31.3654 21.7821 31.0999 22.0476 30.5689L22.832 29ZM31.332 18L32.5106 21.0644C32.7926 21.7977 32.9336 22.1643 33.1529 22.4726C33.3473 22.746 33.586 22.9848 33.8594 23.1791C34.1677 23.3984 34.5344 23.5394 35.2676 23.8214L38.332 25L35.2676 26.1786C34.5344 26.4606 34.1677 26.6016 33.8594 26.8209C33.586 27.0153 33.3473 27.254 33.1529 27.5274C32.9336 27.8357 32.7926 28.2024 32.5106 28.9356L31.332 32L30.1534 28.9356C29.8714 28.2024 29.7304 27.8357 29.5111 27.5274C29.3167 27.254 29.078 27.0153 28.8046 26.8209C28.4963 26.6016 28.1296 26.4606 27.3964 26.1786L24.332 25L27.3964 23.8214C28.1296 23.5394 28.4963 23.3984 28.8046 23.1791C29.078 22.9848 29.3167 22.746 29.5111 22.4726C29.7304 22.1643 29.8714 21.7977 30.1534 21.0644L31.332 18Z" stroke="#3CB779" stroke-width="2" stroke-linecap="round" stroke-linejoin="round"/>
<rect x="0.832031" y="0.5" width="55" height="55" rx="7.5" stroke="#85E5B5"/>
</svg>
