<svg width="604" height="600" viewBox="0 0 604 600" fill="none" xmlns="http://www.w3.org/2000/svg">
<rect width="604" height="600" rx="16" fill="#F2F7FA"/>
<path d="M602 458.881H2V459.181H602V458.881Z" fill="#5CADF8" fill-opacity="0.5"/>
<path d="M541.881 478.188H502.137V478.488H541.881V478.188Z" fill="#5CADF8" fill-opacity="0.5"/>
<path d="M399.464 481.453H389.036V481.753H399.464V481.453Z" fill="#5CADF8" fill-opacity="0.5"/>
<path d="M500.936 467.053H477.908V467.353H500.936V467.053Z" fill="#5CADF8" fill-opacity="0.5"/>
<path d="M116.78 469.068H64.9521V469.368H116.78V469.068Z" fill="#5CADF8" fill-opacity="0.5"/>
<path d="M135.068 469.068H127.472V469.368H135.068V469.068Z" fill="#5CADF8" fill-opacity="0.5"/>
<path d="M272.18 474.131H159.764V474.431H272.18V474.131Z" fill="#5CADF8" fill-opacity="0.5"/>
<path d="M286.4 405.36H54.6916C52.8764 405.357 51.1366 404.634 49.8542 403.349C48.5718 402.064 47.8516 400.323 47.8516 398.508V72.792C47.8674 70.9872 48.5946 69.2616 49.8753 67.9899C51.156 66.7181 52.8867 66.0031 54.6916 66H286.4C288.217 66 289.96 66.7219 291.245 68.0069C292.53 69.2919 293.252 71.0347 293.252 72.852V398.508C293.252 400.325 292.53 402.068 291.245 403.353C289.96 404.638 288.217 405.36 286.4 405.36ZM54.6916 66.24C52.9559 66.2432 51.2925 66.9349 50.0664 68.1633C48.8402 69.3917 48.1516 71.0564 48.1516 72.792V398.508C48.1516 400.244 48.8402 401.908 50.0664 403.137C51.2925 404.365 52.9559 405.057 54.6916 405.06H286.4C288.136 405.057 289.801 404.366 291.029 403.137C292.257 401.909 292.948 400.245 292.952 398.508V72.792C292.948 71.0553 292.257 69.3906 291.029 68.1625C289.801 66.9345 288.136 66.2432 286.4 66.24H54.6916Z" fill="#5CADF8" fill-opacity="0.5"/>
<path d="M545.972 405.36H314.252C312.436 405.357 310.695 404.634 309.411 403.35C308.127 402.065 307.404 400.324 307.4 398.508V72.792C307.419 70.9861 308.149 69.2605 309.432 67.9891C310.714 66.7177 312.446 66.0031 314.252 66H545.972C547.775 66.0062 549.503 66.7227 550.781 67.9941C552.059 69.2654 552.785 70.9893 552.8 72.792V398.508C552.8 400.321 552.082 402.06 550.802 403.345C549.522 404.629 547.785 405.354 545.972 405.36ZM314.252 66.24C312.516 66.2432 310.851 66.9345 309.623 68.1625C308.395 69.3906 307.704 71.0553 307.7 72.792V398.508C307.704 400.245 308.395 401.909 309.623 403.137C310.851 404.366 312.516 405.057 314.252 405.06H545.972C547.709 405.057 549.374 404.366 550.602 403.137C551.83 401.909 552.521 400.245 552.524 398.508V72.792C552.521 71.0553 551.83 69.3906 550.602 68.1625C549.374 66.9345 547.709 66.2432 545.972 66.24H314.252Z" fill="#5CADF8" fill-opacity="0.5"/>
<path d="M519.44 86.3652H270.848V267.949H519.44V86.3652Z" fill="#5CADF8" fill-opacity="0.5"/>
<path d="M530.432 86.3652H273.404V267.949H530.432V86.3652Z" fill="#5CADF8" fill-opacity="0.3"/>
<path d="M519.44 267.961H270.848V276.673H524.576L519.44 267.961Z" fill="#5CADF8" fill-opacity="0.5"/>
<path d="M539.516 267.961H282.488L284.852 276.673H541.88L539.516 267.961Z" fill="#5CADF8" fill-opacity="0.3"/>
<path d="M515.048 252.578V101.762L288.788 101.762V252.578H515.048Z" fill="#5CADF8" fill-opacity="0.3"/>
<path d="M343.784 252.562L395.3 101.746H444.488L392.972 252.562H343.784Z" fill="#F2F7FA"/>
<path d="M403.544 252.562L455.048 101.746H474.224L422.72 252.562H403.544Z" fill="#F2F7FA"/>
<path d="M515.048 252.578V101.762H513.092V252.578H515.048Z" fill="#5CADF8" fill-opacity="0.5"/>
<path d="M316.807 338.16C316.219 338.16 315.607 338.16 315.055 338.22C302.707 339.204 292.711 350.976 291.931 365.46C291.75 368.654 292.021 371.858 292.735 374.976C295.461 387.473 296.769 400.238 296.635 413.028V450.408C296.549 451.611 296.94 452.8 297.724 453.716C298.508 454.632 299.622 455.203 300.823 455.304H509.095V338.16H316.807Z" fill="#5CADF8" fill-opacity="0.3"/>
<path d="M534.02 367.378C534.02 350.578 521.9 337.066 507.344 338.23C494.996 339.214 485 350.986 484.22 365.47C484.04 368.664 484.31 371.868 485.024 374.986C487.75 387.483 489.058 400.248 488.924 413.038V450.418C488.838 451.621 489.229 452.81 490.013 453.726C490.797 454.642 491.911 455.213 493.112 455.314H525.068C526.27 455.213 527.384 454.642 528.168 453.726C528.952 452.81 529.343 451.621 529.256 450.418V410.818C529.159 398.825 530.456 386.86 533.12 375.166C533.721 372.614 534.023 370 534.02 367.378Z" fill="#5CADF8" fill-opacity="0.3"/>
<path d="M474.74 389.076H261.908V455.328H474.74V389.076Z" fill="#F2F7FA"/>
<path d="M207.2 309.684H428.708C434.118 309.684 439.307 311.833 443.133 315.659C446.959 319.484 449.108 324.673 449.108 330.084V400.248H186.8V330.108C186.797 327.427 187.322 324.771 188.346 322.293C189.37 319.816 190.872 317.564 192.766 315.667C194.661 313.77 196.911 312.265 199.388 311.239C201.864 310.212 204.519 309.684 207.2 309.684Z" fill="#5CADF8" fill-opacity="0.5"/>
<path d="M222.116 309.684H434C439.341 309.684 444.463 311.805 448.239 315.581C452.015 319.358 454.136 324.479 454.136 329.82V400.26H201.98V329.82C201.98 324.479 204.102 319.358 207.878 315.581C211.654 311.805 216.776 309.684 222.116 309.684Z" fill="#F2F7FA"/>
<path d="M267.537 386.688H474.681C475.842 386.688 476.956 387.149 477.778 387.97C478.599 388.792 479.061 389.906 479.061 391.068V398.112C479.061 399.273 478.599 400.387 477.778 401.209C476.956 402.03 475.842 402.492 474.681 402.492H267.537C267.19 402.492 266.857 402.354 266.612 402.108C266.366 401.863 266.229 401.53 266.229 401.184V387.984C266.232 387.639 266.371 387.309 266.616 387.066C266.861 386.824 267.192 386.687 267.537 386.688Z" fill="#5CADF8" fill-opacity="0.5"/>
<path d="M176.623 455.316H510.343V455.592C510.343 456.464 509.997 457.301 509.38 457.917C508.763 458.534 507.927 458.88 507.055 458.88H179.911C179.479 458.88 179.052 458.795 178.653 458.63C178.254 458.465 177.891 458.223 177.586 457.917C177.281 457.612 177.039 457.25 176.873 456.851C176.708 456.452 176.623 456.024 176.623 455.592V455.316Z" fill="#5CADF8" fill-opacity="0.5"/>
<path d="M177.872 338.16C177.296 338.16 176.672 338.16 176.132 338.22C163.772 339.204 153.788 350.976 153.008 365.46C152.829 368.654 153.096 371.856 153.8 374.976C156.53 387.473 157.842 400.237 157.712 413.028V450.408C157.626 451.611 158.017 452.8 158.801 453.716C159.585 454.632 160.698 455.203 161.9 455.304H263.096V338.16H177.872Z" fill="#5CADF8" fill-opacity="0.3"/>
<path d="M288.033 367.378C288.033 350.578 275.913 337.066 261.357 338.23C248.997 339.214 239.013 350.986 238.233 365.47C238.054 368.664 238.32 371.866 239.025 374.986C241.754 387.483 243.066 400.247 242.937 413.038V450.418C242.85 451.621 243.241 452.81 244.025 453.726C244.809 454.642 245.923 455.213 247.125 455.314H279.081C280.282 455.213 281.396 454.642 282.18 453.726C282.964 452.81 283.355 451.621 283.269 450.418V410.818C283.173 398.825 284.466 386.862 287.121 375.166C287.725 372.614 288.031 370.001 288.033 367.378Z" fill="#5CADF8" fill-opacity="0.3"/>
<path d="M79.3516 273.974C83.7196 265.898 112.88 276.902 124.1 290.294C131.649 299.061 136.264 309.971 137.3 321.494C138.044 306.914 138.836 291.242 139.556 276.458C137.36 272.762 132.356 264.254 128.756 257.522C116.876 235.034 85.4356 226.646 75.3796 212.45C62.1796 193.85 64.2316 165.95 77.2756 155.894C88.6156 147.158 119.972 206.294 123.5 212.93C135.668 235.67 138.476 252.53 139.916 268.874C140.588 254.99 141.212 242.234 141.668 232.394C143.168 200.306 142.952 189.974 142.748 186.794C141.368 185.234 139.748 183.434 138.8 182.462C130.784 174.254 112.4 164.462 103.712 152.57C91.0156 135.158 94.7236 114.338 105.032 106.586C115.832 98.4856 132.5 117.662 140.744 136.646C148.988 155.63 143.612 173.846 145.196 189.578C145.544 192.674 145.292 204.422 144.692 220.778C148.832 203.246 155.492 191.498 166.928 180.566C181.064 167.114 193.604 150.734 204.332 152.858C215.06 154.982 207.68 176.666 198.008 191.882C189.392 205.442 150.668 218.942 144.344 229.838C143.444 251.93 142.064 279.902 140.648 305.954C144.572 292.502 142.604 291.374 156.248 270.782C164.36 258.542 195.164 243.458 198.116 251.87C201.068 260.282 194.516 276.182 182.516 287.318C172.832 296.294 152.732 296.282 147.716 301.85C146.516 303.146 142.604 308.138 140.348 310.994C138.608 342.806 136.844 370.874 135.932 380.45L133.976 380.546C134.252 378.074 135.176 361.898 136.268 340.478C132.188 329.09 99.7996 322.478 90.4876 310.562C80.7316 298.13 74.1196 283.658 79.3516 273.974Z" fill="#5CADF8" fill-opacity="0.5"/>
<path d="M162.248 458.879H108.14C106.705 458.88 105.314 458.385 104.203 457.477C103.092 456.569 102.329 455.305 102.044 453.899L98.2041 373.199H172.184L168.332 453.923C168.042 455.323 167.279 456.58 166.171 457.483C165.063 458.385 163.677 458.879 162.248 458.879Z" fill="#5CADF8" fill-opacity="0.5"/>
<path d="M173.72 380.522H96.6558C95.7621 380.527 94.8986 380.199 94.2332 379.602C93.5679 379.006 93.1482 378.183 93.0558 377.294L91.4718 363.302C91.4086 362.793 91.4547 362.277 91.6071 361.788C91.7595 361.298 92.0146 360.847 92.3554 360.464C92.6962 360.081 93.1149 359.776 93.5833 359.568C94.0518 359.36 94.5593 359.254 95.0718 359.258H175.292C175.804 359.254 176.312 359.36 176.78 359.568C177.249 359.776 177.667 360.081 178.008 360.464C178.349 360.847 178.604 361.298 178.757 361.788C178.909 362.277 178.955 362.793 178.892 363.302L177.32 377.294C177.228 378.183 176.808 379.006 176.142 379.602C175.477 380.199 174.614 380.527 173.72 380.522Z" fill="#5CADF8" fill-opacity="0.3"/>
<path d="M302.001 513.072C430.5 513.072 534.669 506.991 534.669 499.488C534.669 491.986 430.5 485.904 302.001 485.904C173.502 485.904 69.333 491.986 69.333 499.488C69.333 506.991 173.502 513.072 302.001 513.072Z" fill="#F2F7FA"/>
<path d="M207.32 499.487H210.62L231.932 252.215H228.644L207.32 499.487Z" fill="#132043"/>
<path d="M270.223 499.487H266.935L245.611 252.215H248.911L270.223 499.487Z" fill="#132043"/>
<path d="M117.74 362.014H402.812L377.912 142.402H92.8398L117.74 362.014Z" fill="#5CADF8" fill-opacity="0.3"/>
<path d="M403.16 362.328H117.452L92.4922 142.092H378.2L403.16 362.328ZM118.016 361.704H402.416L377.6 142.716H93.2002L118.016 361.704Z" fill="#5CADF8"/>
<path d="M311.997 138.322H301.725V138.946H311.997V138.322Z" fill="#5CADF8"/>
<path d="M351.608 138.322H322.844V138.946H351.608V138.322Z" fill="#5CADF8"/>
<path d="M120.668 362.014H405.74L380.852 142.402H95.7803L120.668 362.014Z" fill="#F2F7FA"/>
<path d="M406.101 362.328H120.393L95.4326 142.092H381.129L406.101 362.328ZM120.957 361.704H405.357L380.577 142.716H96.1766L120.957 361.704Z" fill="#5CADF8"/>
<path d="M252.068 244.929L281.876 194.145C269.418 185.9 254.568 182.04 239.672 183.177C225.687 184.259 212.653 190.673 203.264 201.093L252.068 244.929Z" fill="#5CADF8"/>
<path opacity="0.7" d="M252.068 244.929L281.876 194.145C269.418 185.9 254.568 182.04 239.672 183.177C225.687 184.259 212.653 190.673 203.264 201.093L252.068 244.929Z" fill="#F2F7FA"/>
<path d="M252.068 244.932L294.308 317.796C302.304 313.878 309.458 308.436 315.368 301.776C342.968 270.576 337.196 219.276 302.48 188.088C298.801 184.782 294.869 181.769 290.72 179.076L252.068 244.932Z" fill="#5CADF8"/>
<path opacity="0.2" d="M252.068 244.932L294.308 317.796C302.304 313.878 309.458 308.436 315.368 301.776C342.968 270.576 337.196 219.276 302.48 188.088C298.801 184.782 294.869 181.769 290.72 179.076L252.068 244.932Z" fill="#132043"/>
<path d="M252.067 244.93L161.359 221.338C156.559 252.754 169.327 286.378 194.959 309.382C225.019 336.406 267.199 343.69 299.947 327.598L252.067 244.93Z" fill="#132043"/>
<path d="M323.816 168.826H366.02L365.048 160.234H322.844L323.816 168.826Z" fill="#5CADF8" fill-opacity="0.3"/>
<path d="M340.508 182.196H367.532L366.56 173.604H339.536L340.508 182.196Z" fill="#5CADF8" fill-opacity="0.3"/>
<path d="M351.188 335.592H384.92L385.905 344.184H352.16L351.188 335.592Z" fill="#5CADF8" fill-opacity="0.3"/>
<path d="M356.373 322.223H383.409L384.381 330.815H357.357L356.373 322.223Z" fill="#5CADF8" fill-opacity="0.3"/>
<path d="M332.336 322.223H351.92L352.892 330.815H333.32L332.336 322.223Z" fill="#5CADF8" fill-opacity="0.3"/>
<path d="M159.345 173.604H117.141L118.113 182.196H160.317L159.345 173.604Z" fill="#5CADF8" fill-opacity="0.3"/>
<path d="M142.653 160.234H115.629L116.601 168.826H143.637L142.653 160.234Z" fill="#5CADF8" fill-opacity="0.3"/>
<path d="M168.704 330.815H134.96L133.988 322.223H167.72L168.704 330.815Z" fill="#5CADF8" fill-opacity="0.3"/>
<path d="M163.508 344.184H136.472L135.5 335.592H162.536L163.508 344.184Z" fill="#5CADF8" fill-opacity="0.3"/>
<path d="M187.544 344.184H167.96L166.988 335.592H186.572L187.544 344.184Z" fill="#5CADF8" fill-opacity="0.3"/>
<path d="M494.347 198.299C494.767 198.971 495.067 199.499 495.403 200.063C495.739 200.627 496.039 201.179 496.339 201.743C496.939 202.859 497.539 203.987 498.055 205.115C499.171 207.383 500.143 209.687 501.079 212.003C502.886 216.657 504.389 221.423 505.579 226.271C505.891 227.471 506.131 228.671 506.395 229.871L506.587 230.783C506.587 230.903 506.659 231.143 506.695 231.371L506.791 232.043C506.9 232.972 506.9 233.91 506.791 234.839C506.613 236.705 506.023 238.508 505.063 240.119C504.205 241.539 503.119 242.808 501.847 243.875C499.652 245.673 497.153 247.063 494.467 247.979C493.236 248.429 491.978 248.802 490.699 249.095C489.419 249.403 488.12 249.631 486.811 249.779L485.611 244.583C489.547 242.831 493.735 240.431 495.979 237.767C496.477 237.202 496.882 236.562 497.179 235.871C497.378 235.376 497.456 234.842 497.407 234.311C497.385 234.047 497.337 233.785 497.263 233.531L496.879 232.211C496.555 231.107 496.255 230.003 495.883 228.911C494.515 224.531 492.919 220.235 491.083 216.035C490.195 213.923 489.235 211.859 488.263 209.807C487.759 208.787 487.255 207.779 486.727 206.795L485.935 205.331L485.191 203.987L494.347 198.299Z" fill="#B55B52"/>
<path d="M487.664 243.863L479.096 245.135L483.356 252.155C483.356 252.155 489.44 251.159 491.336 247.199L487.664 243.863Z" fill="#B55B52"/>
<path d="M473.18 248.147L476.012 254.531L483.356 252.155L479.096 245.135L473.18 248.147Z" fill="#B55B52"/>
<path d="M471.2 489.394C472.139 489.368 473.072 489.244 473.984 489.022C474.033 489.011 474.077 488.986 474.111 488.949C474.145 488.913 474.168 488.867 474.176 488.818C474.186 488.77 474.181 488.72 474.162 488.675C474.142 488.63 474.11 488.592 474.068 488.566C473.72 488.326 470.54 486.262 469.268 486.814C469.129 486.878 469.008 486.977 468.918 487.101C468.828 487.225 468.771 487.37 468.752 487.522C468.699 487.758 468.708 488.003 468.777 488.234C468.846 488.465 468.974 488.675 469.148 488.842C469.742 489.27 470.472 489.467 471.2 489.394ZM473.288 488.662C471.452 489.022 470.072 488.962 469.544 488.482C469.431 488.367 469.35 488.225 469.307 488.07C469.265 487.914 469.264 487.75 469.304 487.594C469.303 487.526 469.321 487.459 469.358 487.402C469.394 487.344 469.446 487.298 469.508 487.27C470.156 486.97 471.992 487.87 473.288 488.662Z" fill="#5CADF8"/>
<path d="M473.923 489.024C473.966 489.036 474.012 489.036 474.055 489.024C474.093 489.001 474.125 488.969 474.148 488.932C474.17 488.894 474.184 488.851 474.187 488.808C474.187 488.688 474.187 485.652 473.083 484.632C472.943 484.502 472.775 484.405 472.592 484.349C472.409 484.293 472.216 484.279 472.027 484.308C471.828 484.311 471.635 484.381 471.481 484.508C471.326 484.634 471.218 484.809 471.175 485.004C470.923 486.204 472.807 488.46 473.803 489.024C473.843 489.034 473.884 489.034 473.923 489.024ZM472.195 484.8C472.4 484.801 472.596 484.878 472.747 485.016C473.395 486 473.718 487.162 473.671 488.34C472.687 487.536 471.511 485.832 471.667 485.112C471.667 484.992 471.763 484.848 472.087 484.812L472.195 484.8Z" fill="#5CADF8"/>
<path d="M462.488 482.398C462.509 482.359 462.52 482.316 462.52 482.272C462.52 482.228 462.509 482.185 462.488 482.146C462.461 482.101 462.422 482.066 462.375 482.044C462.327 482.023 462.275 482.016 462.224 482.026C461.708 482.11 457.232 482.926 456.428 484.234C456.424 484.262 456.424 484.29 456.428 484.318C456.359 484.439 456.323 484.575 456.323 484.714C456.323 484.853 456.359 484.989 456.428 485.11C456.531 485.304 456.682 485.469 456.867 485.589C457.052 485.708 457.264 485.779 457.484 485.794C459.008 485.926 461.252 483.742 462.464 482.434C462.476 482.458 462.488 482.398 462.488 482.398ZM456.872 484.474C457.328 483.754 459.74 483.046 461.576 482.662C459.884 484.39 458.408 485.374 457.556 485.302C457.409 485.291 457.268 485.241 457.146 485.159C457.024 485.077 456.925 484.965 456.86 484.834C456.833 484.786 456.819 484.732 456.819 484.678C456.819 484.623 456.833 484.57 456.86 484.522C456.86 484.522 456.86 484.522 456.872 484.51V484.474Z" fill="#5CADF8"/>
<path d="M462.488 482.4C462.511 482.362 462.524 482.319 462.524 482.274C462.524 482.23 462.511 482.186 462.488 482.148C462.416 482.064 460.604 479.952 458.888 479.88C458.637 479.865 458.387 479.903 458.151 479.989C457.916 480.076 457.701 480.21 457.52 480.384C456.98 480.852 457.028 481.26 457.148 481.512C457.664 482.58 460.988 482.88 462.344 482.568C462.411 482.532 462.462 482.472 462.488 482.4ZM457.616 480.924C457.676 480.842 457.745 480.765 457.82 480.696C457.955 480.567 458.115 480.469 458.291 480.407C458.467 480.345 458.654 480.321 458.84 480.336C459.984 480.592 461.015 481.211 461.78 482.1C460.292 482.268 457.892 481.872 457.58 481.224C457.566 481.18 457.562 481.134 457.568 481.088C457.574 481.042 457.591 480.999 457.616 480.96V480.924Z" fill="#5CADF8"/>
<path d="M471.572 161.688C470.372 167.951 467.696 181.632 472.1 185.688C472.1 185.688 470.432 192.06 458.804 192.288C446.024 192.54 452.66 186.071 452.66 186.071C459.62 184.271 459.416 179.099 458.168 174.275L471.572 161.688Z" fill="#B55B52"/>
<path d="M449.516 147.828C449.591 147.844 449.669 147.844 449.744 147.828C449.858 147.764 449.945 147.659 449.985 147.534C450.025 147.41 450.016 147.274 449.96 147.156C449.619 146.45 449.115 145.837 448.488 145.368C447.862 144.898 447.132 144.585 446.36 144.456C446.293 144.449 446.227 144.456 446.163 144.475C446.099 144.494 446.04 144.526 445.989 144.569C445.937 144.611 445.895 144.663 445.864 144.722C445.833 144.781 445.814 144.845 445.808 144.912C445.799 144.976 445.804 145.041 445.821 145.103C445.839 145.165 445.869 145.223 445.909 145.273C445.949 145.324 445.999 145.366 446.056 145.396C446.113 145.427 446.175 145.446 446.24 145.452C446.857 145.558 447.439 145.81 447.938 146.188C448.437 146.566 448.838 147.059 449.108 147.624C449.154 147.688 449.216 147.74 449.287 147.776C449.358 147.811 449.436 147.829 449.516 147.828Z" fill="#132043"/>
<path d="M446.396 152.902C445.433 154.75 444.222 156.458 442.796 157.978C443.193 158.334 443.663 158.596 444.174 158.748C444.684 158.899 445.222 158.936 445.748 158.854L446.396 152.902Z" fill="#A02724"/>
<path d="M444.727 157.511C442.483 157.511 440.647 153.911 440.647 149.363C440.647 144.815 442.483 141.215 444.727 141.215C446.971 141.215 448.819 144.815 448.819 149.363C448.819 153.911 446.983 157.511 444.727 157.511ZM444.727 141.515C442.651 141.515 440.947 145.043 440.947 149.363C440.947 153.683 442.651 157.211 444.727 157.211C446.803 157.211 448.519 153.695 448.519 149.363C448.519 145.031 446.815 141.515 444.727 141.515Z" fill="#5CADF8"/>
<path d="M447.332 151.535C447.224 152.375 446.696 153.011 446.132 152.951C445.568 152.891 445.22 152.171 445.316 151.319C445.412 150.467 445.94 149.843 446.516 149.891C447.092 149.939 447.428 150.683 447.332 151.535Z" fill="#132043"/>
<path d="M446.744 149.999L444.788 149.195C444.788 149.195 445.64 150.863 446.744 149.999Z" fill="#132043"/>
<path d="M472.423 478.499L462.655 483.083L451.987 461.783L461.755 457.199L472.423 478.499Z" fill="#B55B52"/>
<path d="M486.187 488.771H475.651L476.815 464.375H487.351L486.187 488.771Z" fill="#B55B52"/>
<path d="M474.799 487.561H486.631C486.834 487.556 487.031 487.628 487.184 487.761C487.337 487.894 487.435 488.079 487.459 488.281L488.659 497.641C488.679 497.879 488.65 498.118 488.572 498.344C488.495 498.569 488.372 498.777 488.211 498.953C488.05 499.128 487.854 499.269 487.636 499.365C487.418 499.462 487.182 499.512 486.943 499.513C482.815 499.441 480.823 499.201 475.627 499.201C472.423 499.201 467.743 499.537 463.315 499.537C458.887 499.537 458.719 495.157 460.567 494.737C468.847 492.961 470.167 490.513 472.999 488.185C473.508 487.773 474.145 487.552 474.799 487.561Z" fill="#132043"/>
<path d="M462.152 480.911L471.872 473.711C472.028 473.581 472.227 473.515 472.429 473.527C472.632 473.538 472.823 473.625 472.964 473.771L479.384 480.419C479.537 480.602 479.651 480.814 479.718 481.044C479.785 481.273 479.804 481.513 479.774 481.75C479.743 481.987 479.664 482.215 479.541 482.419C479.418 482.624 479.254 482.801 479.06 482.939C475.628 485.399 473.864 486.419 469.592 489.587C466.964 491.543 461.72 495.851 458.084 498.539C454.448 501.227 451.784 497.903 453.068 496.463C458.84 490.007 460.124 486.071 461.084 482.519C461.246 481.877 461.623 481.309 462.152 480.911Z" fill="#132043"/>
<path opacity="0.2" d="M451.999 461.795L457.699 473.195L467.263 468.179L461.767 457.199L451.999 461.795Z" fill="#132043"/>
<path opacity="0.2" d="M487.352 464.387H476.816L476.216 476.963H486.752L487.352 464.387Z" fill="#132043"/>
<path d="M490.291 187.751C494.683 188.615 499.447 204.251 499.447 204.251L487.147 217.643C487.147 217.643 476.779 203.075 478.843 197.603C480.991 191.903 485.119 186.719 490.291 187.751Z" fill="#132043"/>
<path opacity="0.4" d="M483.415 197.89C481.183 195.91 479.695 196.546 478.675 198.178C477.703 202.87 483.727 212.578 486.151 216.178C487.231 211.75 488.443 202.39 483.415 197.89Z" fill="#132043"/>
<path d="M434 191.374C433.196 195.982 433.028 210.01 440.228 252.574L483.044 251.734C482.228 234.346 482.144 223.618 490.244 187.762C484.238 186.641 478.158 185.959 472.052 185.722C465.571 185.385 459.075 185.513 452.612 186.106C446.384 186.79 439.556 188.146 436.472 188.794C435.848 188.926 435.279 189.242 434.838 189.703C434.397 190.163 434.105 190.746 434 191.374Z" fill="#132043"/>
<path d="M476.06 151.584C474.2 161.892 473.66 166.284 467.768 171.06C458.948 178.26 446.708 173.892 445.448 163.284C444.32 153.684 447.56 138.48 458.192 135.408C460.514 134.706 462.978 134.617 465.345 135.149C467.711 135.681 469.9 136.816 471.699 138.444C473.497 140.073 474.844 142.138 475.608 144.44C476.372 146.743 476.528 149.204 476.06 151.584Z" fill="#B55B52"/>
<path d="M447.2 138.695C447.2 138.371 446.972 138.023 446.996 137.699C447.02 137.375 447.116 137.039 447.152 136.715C447.188 136.391 447.152 136.043 447.152 135.707C447.152 135.371 447.476 135.095 447.548 134.771C447.62 134.447 447.392 134.051 447.488 133.727C447.584 133.403 447.74 133.103 447.848 132.791C447.956 132.479 448.256 132.239 448.376 131.927C448.496 131.615 448.64 131.315 448.784 131.015C448.928 130.715 448.844 130.307 449 130.007C449.156 129.707 449.636 129.611 449.804 129.323C449.972 129.035 449.804 128.507 449.948 128.231C450.092 127.955 450.488 127.787 450.68 127.523C450.872 127.259 451.004 126.911 451.208 126.659C451.412 126.407 451.712 126.215 451.94 125.963C452.168 125.711 452.564 125.639 452.804 125.411C453.044 125.183 453.02 124.679 453.272 124.451C453.524 124.223 453.836 124.079 454.088 123.863C454.34 123.647 454.7 123.563 454.964 123.359C455.228 123.155 455.348 122.759 455.624 122.579C455.9 122.399 456.464 122.651 456.752 122.471C457.04 122.291 457.292 122.111 457.58 121.943C457.868 121.775 458.132 121.595 458.432 121.451C458.732 121.307 458.828 120.755 459.14 120.623C459.452 120.491 459.848 120.623 460.16 120.467C460.472 120.311 460.676 119.951 460.988 119.843C461.3 119.735 461.768 120.083 462.08 119.987C462.392 119.891 462.608 119.411 462.932 119.327C463.256 119.243 463.58 119.135 463.904 119.063C464.228 118.991 464.588 119.063 464.924 119.063C465.26 119.063 465.584 119.063 465.92 118.967C466.256 118.871 466.568 118.967 466.892 118.871C467.216 118.775 467.552 118.871 467.876 118.775C468.2 118.679 468.536 118.775 468.86 118.703C469.184 118.631 469.508 118.607 469.844 118.583C470.18 118.559 470.492 118.463 470.828 118.451C471.164 118.439 471.5 118.715 471.824 118.703C472.148 118.691 472.484 118.487 472.808 118.487C473.132 118.487 473.48 118.295 473.804 118.295C474.128 118.295 474.452 118.631 474.788 118.643C475.124 118.655 475.424 118.871 475.748 118.895C476.072 118.919 476.444 118.583 476.768 118.619C477.092 118.655 477.392 118.967 477.716 119.015C478.04 119.063 478.4 118.859 478.724 118.907C479.048 118.955 479.336 119.219 479.66 119.279C479.984 119.339 480.368 119.123 480.68 119.195C480.992 119.267 481.316 119.399 481.628 119.483C481.94 119.567 482.276 119.627 482.588 119.723C482.9 119.819 483.2 119.975 483.512 120.083C483.824 120.191 484.064 120.503 484.364 120.623C484.664 120.743 484.952 120.911 485.252 121.043C485.552 121.175 485.984 121.043 486.272 121.151C486.56 121.259 486.896 121.403 487.184 121.559C487.472 121.715 487.7 121.979 487.988 122.147C488.276 122.315 488.384 122.747 488.66 122.927C488.936 123.107 489.296 123.131 489.56 123.323C489.824 123.515 490.304 123.431 490.556 123.635C490.808 123.839 490.784 124.403 491.036 124.607C491.288 124.811 491.732 124.799 491.984 125.027C492.236 125.255 492.44 125.495 492.68 125.723C492.92 125.951 492.908 126.407 493.124 126.647C493.34 126.887 493.64 127.055 493.856 127.307C494.072 127.559 494.372 127.727 494.576 127.979C494.78 128.231 495.092 128.411 495.284 128.675C495.476 128.939 495.344 129.431 495.524 129.695C495.704 129.959 496.208 130.043 496.376 130.331C496.544 130.619 496.46 131.027 496.616 131.315C496.772 131.603 496.952 131.879 497.096 132.167C497.24 132.455 497.648 132.635 497.78 132.935C497.912 133.235 498.152 133.499 498.272 133.799C498.392 134.099 498.356 134.471 498.476 134.783C498.596 135.095 498.716 135.395 498.812 135.707C498.908 136.019 498.956 136.355 499.052 136.667C499.148 136.979 499.184 137.315 499.268 137.627C499.352 137.939 499.16 138.323 499.268 138.647C499.376 138.971 499.952 139.175 500 139.499C500.048 139.823 499.58 140.231 499.628 140.567C499.676 140.903 499.844 141.191 499.88 141.515C499.916 141.839 499.808 142.175 499.88 142.499C499.952 142.823 499.88 143.147 499.88 143.483C499.88 143.819 500.048 144.131 500.06 144.467C500.072 144.803 500.516 145.139 500.516 145.475C500.516 145.811 500.516 146.159 500.456 146.495C500.396 146.831 500.384 147.167 500.348 147.503C500.312 147.839 499.988 148.139 499.94 148.463C499.892 148.787 499.94 149.135 499.844 149.471C499.748 149.807 499.736 150.131 499.676 150.455C499.616 150.779 499.676 151.151 499.676 151.475C499.676 151.799 499.376 152.087 499.292 152.411C499.208 152.735 498.872 152.987 498.776 153.311C498.68 153.635 498.776 154.007 498.68 154.331C498.584 154.655 498.332 154.907 498.212 155.219C498.092 155.531 498.308 155.975 498.212 156.287C498.116 156.599 497.96 156.911 497.816 157.211C497.672 157.511 497.36 157.751 497.216 158.051C497.072 158.351 497.096 158.747 496.94 159.035C496.784 159.323 496.376 159.491 496.208 159.779C496.04 160.067 495.668 160.235 495.5 160.523C495.332 160.811 495.308 161.183 495.116 161.459C494.924 161.735 494.624 161.927 494.432 162.203C494.24 162.479 494.264 162.911 494.06 163.175C493.856 163.439 493.844 163.859 493.628 164.111C493.412 164.363 493.016 164.483 492.8 164.735C492.584 164.987 492.512 165.383 492.284 165.635C492.056 165.887 491.684 165.995 491.456 166.223C491.228 166.451 491.036 166.763 490.796 166.991C490.556 167.219 490.184 167.327 489.932 167.543C489.68 167.759 489.332 167.879 489.08 168.083C488.828 168.287 488.744 168.743 488.48 168.947C488.216 169.151 487.808 169.175 487.532 169.367C487.256 169.559 486.86 169.547 486.584 169.739C486.308 169.931 486.224 170.423 485.936 170.591C485.648 170.759 485.228 170.699 484.928 170.855C484.628 171.011 484.388 171.251 484.088 171.407C483.788 171.563 483.62 171.959 483.308 172.103C482.996 172.247 482.66 172.295 482.348 172.427C482.036 172.559 481.628 172.427 481.304 172.523L480.356 172.823C480.044 172.931 479.852 173.447 479.528 173.531C479.204 173.615 478.736 173.171 478.412 173.243C478.088 173.315 477.824 173.663 477.5 173.735C477.176 173.807 476.84 173.855 476.516 173.903C476.192 173.951 475.832 173.783 475.496 173.831C475.16 173.879 474.848 173.927 474.512 173.951C474.176 173.975 473.876 174.539 473.54 174.551C473.204 174.563 472.88 174.131 472.544 174.131V174.251C472.112 174.251 471.68 174.179 471.236 174.179C470.792 174.179 470.576 173.975 470.24 173.963C469.904 173.951 469.532 174.467 469.196 174.431C468.86 174.395 468.572 174.023 468.236 173.975C467.9 173.927 467.6 173.771 467.276 173.711C466.952 173.651 466.532 173.903 466.208 173.819C465.884 173.735 465.572 173.603 465.248 173.507C464.924 173.411 464.684 173.075 464.372 172.955C464.06 172.835 463.688 172.847 463.388 172.715C463.088 172.583 462.68 172.631 462.38 172.475C462.08 172.319 461.924 171.899 461.624 171.731C461.324 171.563 460.916 171.623 460.628 171.443C460.34 171.263 460.328 170.687 460.052 170.495C459.776 170.303 459.368 170.303 459.116 170.087C458.864 169.871 458.72 169.523 458.468 169.295C458.216 169.067 458.012 168.839 457.772 168.599C457.532 168.359 456.884 168.515 456.656 168.263C456.428 168.011 456.572 167.459 456.356 167.195C456.14 166.931 455.648 166.895 455.444 166.619C455.24 166.343 455.024 166.091 454.832 165.803C454.64 165.515 454.952 164.963 454.832 164.663C454.712 164.363 454.364 164.171 454.22 163.859C454.076 163.547 453.752 163.343 453.62 163.031C453.488 162.719 453.548 162.347 453.44 162.023C453.332 161.699 453.32 161.375 453.224 161.051C453.128 160.727 452.54 160.535 452.468 160.199C452.396 159.863 452.6 159.479 452.54 159.155C452.48 158.831 452.228 158.507 452.192 158.171C452.156 157.835 452.636 157.475 452.612 157.127C452.588 156.779 452.552 156.479 452.552 156.143C452.552 155.807 452.096 155.519 452.072 155.231C452.048 154.943 452.072 154.619 452.012 154.331C451.952 154.043 452.084 153.707 452.084 153.407C452.06 153.099 452.06 152.79 452.084 152.483C452.084 152.207 452.276 151.931 452.372 151.607C452.108 151.379 451.76 151.247 451.52 151.019C451.28 150.791 451.292 150.275 451.064 150.023C450.836 149.771 450.632 149.507 450.428 149.231C450.224 148.955 449.792 148.847 449.612 148.559C449.432 148.271 449.528 147.815 449.36 147.515C449.192 147.215 449.06 146.927 448.916 146.615C448.772 146.303 448.592 146.027 448.472 145.703C448.352 145.379 448.268 145.067 448.172 144.731C448.076 144.395 447.896 144.107 447.824 143.771C447.752 143.435 447.608 143.135 447.548 142.787C447.488 142.439 447.08 142.163 447.032 141.815C446.984 141.467 447.032 141.119 447.032 140.771C447.032 140.423 447.476 140.063 447.464 139.715C447.452 139.367 447.2 139.043 447.2 138.695Z" fill="#132043"/>
<path d="M450.704 153.036C449.624 155.436 451.112 155.904 450.932 157.62C450.536 161.388 452.276 161.22 453.62 159.336C454.82 157.62 456.02 154.224 454.952 152.232C453.884 150.24 451.664 150.852 450.704 153.036Z" fill="#B55B52"/>
<path d="M451.556 252.335C451.556 252.335 458.096 324.455 464.672 365.051C469.988 397.835 474.488 474.527 474.488 474.527H488.888C488.888 474.527 493.58 399.671 490.784 367.199C483.728 285.023 498.38 278.027 483.104 251.723L451.556 252.335Z" fill="#5CADF8"/>
<path opacity="0.4" d="M466.172 276.455C462.428 281.951 457.436 288.287 455.816 294.995C457.112 307.163 458.624 320.615 460.256 333.551C464.204 322.667 470.972 300.923 466.172 276.455Z" fill="#132043"/>
<path d="M440.252 252.562C440.252 252.562 426.92 336.226 422.924 368.134C418.772 401.338 452 468.994 452 468.994L466.268 461.134C466.268 461.134 447.2 391.018 448.508 374.11C453.176 338.578 478.172 251.818 478.172 251.818L440.252 252.562Z" fill="#5CADF8"/>
<path d="M464.096 281.687H455.432C455.361 281.686 455.293 281.661 455.24 281.615L451.112 278.399C451.072 278.365 451.04 278.323 451.019 278.275C450.998 278.227 450.989 278.175 450.992 278.123L452.012 262.259C452.018 262.18 452.053 262.107 452.111 262.053C452.169 262 452.245 261.971 452.324 261.971H469.64C469.684 261.97 469.728 261.978 469.769 261.995C469.811 262.011 469.848 262.036 469.88 262.067C469.93 262.137 469.96 262.22 469.964 262.307L468.944 278.171C468.932 278.265 468.885 278.35 468.812 278.411L464.276 281.591C464.226 281.639 464.164 281.673 464.096 281.687ZM455.54 281.051H463.94L468.272 278.015L469.256 262.631H452.576L451.58 278.039L455.54 281.051Z" fill="#F2F7FA"/>
<path d="M452.013 472.534L468.729 464.038L466.413 457.498L448.521 466.57L452.013 472.534Z" fill="#132043"/>
<path d="M472.521 474.814H490.821L491.865 468.394L472.521 467.734V474.814Z" fill="#132043"/>
<path d="M483.703 249.203L485.647 252.995C485.803 253.283 485.455 253.595 484.963 253.607L440.047 254.483C439.663 254.483 439.339 254.303 439.315 254.063L438.907 250.247C438.907 249.983 439.219 249.755 439.639 249.743L482.995 248.891C483.13 248.877 483.266 248.898 483.391 248.953C483.515 249.008 483.623 249.094 483.703 249.203Z" fill="#5CADF8" fill-opacity="0.3"/>
<path d="M477.908 254.16H479.108C479.348 254.16 479.516 254.028 479.504 253.884L478.928 248.928C478.928 248.784 478.712 248.664 478.484 248.664H477.284C477.056 248.664 476.876 248.796 476.888 248.94L477.464 253.896C477.464 254.052 477.668 254.16 477.908 254.16Z" fill="#132043"/>
<path d="M449.756 254.711H450.956C451.184 254.711 451.364 254.579 451.34 254.435L450.764 249.479C450.764 249.335 450.548 249.215 450.32 249.215H449.12C448.892 249.215 448.712 249.347 448.736 249.491L449.3 254.447C449.324 254.603 449.528 254.711 449.756 254.711Z" fill="#132043"/>
<path opacity="0.4" d="M434.612 212.867C434.816 214.859 435.056 216.995 435.332 219.323C440.588 216.239 440.636 207.419 441.896 203.363C439.532 203.723 433.916 204.887 434.612 212.867Z" fill="#132043"/>
<path d="M439.339 201.597C437.654 207.036 435.626 212.363 433.267 217.545C430.926 222.904 428.052 228.014 424.687 232.797C423.567 234.329 422.196 235.66 420.631 236.733C419.234 237.691 417.737 238.496 416.167 239.133C413.313 240.281 410.332 241.087 407.287 241.533C401.556 242.38 395.739 242.473 389.983 241.809L390.115 236.481C395.338 235.955 400.508 234.996 405.571 233.613C407.916 232.963 410.188 232.075 412.351 230.961C414.086 230.133 415.572 228.862 416.659 227.277C417.967 225.177 419.143 222.885 420.259 220.557C421.375 218.229 422.431 215.757 423.451 213.357C425.443 208.473 427.339 203.361 429.019 198.441L439.339 201.597Z" fill="#B55B52"/>
<path d="M434.288 189.671C429.572 192.323 423.332 206.987 423.332 206.987L438.932 217.043C438.932 217.043 447.992 203.207 446.876 195.155C446 189.167 439.196 186.899 434.288 189.671Z" fill="#132043"/>
<path d="M392.072 241.378L384.752 245.362L382.436 236.962C382.436 236.962 388.772 234.802 392.456 236.902L392.072 241.378Z" fill="#B55B52"/>
<path d="M399.992 278.915L364.892 208.799C359.412 211.585 354.371 215.159 349.928 219.407C345.408 223.727 341.522 228.663 338.384 234.071L399.992 278.915Z" fill="#5CADF8"/>
<path d="M379.903 246.934L376.231 240.262L382.435 236.998L384.751 245.362L379.903 246.934Z" fill="#B55B52"/>
</svg>
