<svg width="375" height="466" viewBox="0 0 375 466" fill="none" xmlns="http://www.w3.org/2000/svg">
<g clip-path="url(#clip0_35_7903)">
<rect width="375" height="466" fill="#F2F7FA"/>
<g clip-path="url(#clip1_35_7903)">
<path d="M401 345.807H-25V346.02H401V345.807Z" fill="#5CADF8" fill-opacity="0.5"/>
<path d="M358.315 359.514H330.097V359.727H358.315V359.514Z" fill="#5CADF8" fill-opacity="0.5"/>
<path d="M257.2 361.834H249.796V362.047H257.2V361.834Z" fill="#5CADF8" fill-opacity="0.5"/>
<path d="M329.244 351.609H312.895V351.822H329.244V351.609Z" fill="#5CADF8" fill-opacity="0.5"/>
<path d="M56.4942 353.039H19.6963V353.252H56.4942V353.039Z" fill="#5CADF8" fill-opacity="0.5"/>
<path d="M69.4781 353.039H64.085V353.252H69.4781V353.039Z" fill="#5CADF8" fill-opacity="0.5"/>
<path d="M166.827 356.635H87.0117V356.848H166.827V356.635Z" fill="#5CADF8" fill-opacity="0.5"/>
<path d="M176.924 307.807H12.4111C11.1223 307.805 9.88708 307.291 8.97658 306.379C8.06607 305.467 7.55469 304.231 7.55469 302.942V71.6836C7.56591 70.4023 8.08224 69.177 8.99154 68.2741C9.90083 67.3712 11.1297 66.8635 12.4111 66.8613H176.924C178.214 66.8613 179.451 67.3739 180.364 68.2862C181.276 69.1986 181.789 70.436 181.789 71.7262V302.942C181.789 304.232 181.276 305.47 180.364 306.382C179.451 307.294 178.214 307.807 176.924 307.807ZM12.4111 67.0317C11.1788 67.034 9.99775 67.5251 9.12719 68.3973C8.25663 69.2694 7.76769 70.4514 7.76769 71.6836V302.942C7.76769 304.174 8.25663 305.356 9.12719 306.228C9.99775 307.101 11.1788 307.592 12.4111 307.594H176.924C178.157 307.592 179.339 307.101 180.211 306.229C181.083 305.357 181.573 304.175 181.576 302.942V71.6836C181.573 70.4506 181.083 69.2686 180.211 68.3967C179.339 67.5248 178.157 67.034 176.924 67.0317H12.4111Z" fill="#5CADF8" fill-opacity="0.5"/>
<path d="M361.22 307.807H196.699C195.409 307.805 194.173 307.291 193.261 306.38C192.35 305.468 191.836 304.232 191.834 302.942V71.6836C191.847 70.4015 192.366 69.1763 193.276 68.2736C194.187 67.3709 195.417 66.8635 196.699 66.8613H361.22C362.5 66.8658 363.727 67.3744 364.634 68.2771C365.542 69.1798 366.057 70.4037 366.068 71.6836V302.942C366.068 304.229 365.558 305.464 364.649 306.376C363.74 307.288 362.507 307.802 361.22 307.807ZM196.699 67.0317C195.466 67.034 194.284 67.5248 193.412 68.3967C192.54 69.2686 192.049 70.4506 192.047 71.6836V302.942C192.049 304.175 192.54 305.357 193.412 306.229C194.284 307.101 195.466 307.592 196.699 307.594H361.22C362.453 307.592 363.635 307.101 364.507 306.229C365.379 305.357 365.87 304.175 365.872 302.942V71.6836C365.87 70.4506 365.379 69.2686 364.507 68.3967C363.635 67.5248 362.453 67.034 361.22 67.0317H196.699Z" fill="#5CADF8" fill-opacity="0.5"/>
<path d="M342.382 81.3203H165.882V210.245H342.382V81.3203Z" fill="#5CADF8" fill-opacity="0.5"/>
<path d="M350.187 81.3203H167.697V210.245H350.187V81.3203Z" fill="#5CADF8" fill-opacity="0.3"/>
<path d="M342.382 210.254H165.882V216.439H346.029L342.382 210.254Z" fill="#5CADF8" fill-opacity="0.5"/>
<path d="M356.636 210.254H174.146L175.825 216.439H358.315L356.636 210.254Z" fill="#5CADF8" fill-opacity="0.3"/>
<path d="M339.264 199.331V92.252L178.619 92.252V199.331H339.264Z" fill="#5CADF8" fill-opacity="0.3"/>
<path d="M217.667 199.32L254.243 92.2402H289.167L252.59 199.32H217.667Z" fill="#F2F7FA"/>
<path d="M260.097 199.32L296.665 92.2402H310.279L273.712 199.32H260.097Z" fill="#F2F7FA"/>
<path d="M339.264 199.331V92.252H337.875V199.331H339.264Z" fill="#5CADF8" fill-opacity="0.5"/>
<path d="M198.513 260.096C198.096 260.096 197.661 260.096 197.269 260.138C188.502 260.837 181.405 269.195 180.851 279.479C180.723 281.746 180.915 284.021 181.422 286.235C183.357 295.108 184.286 304.171 184.191 313.252V339.792C184.13 340.646 184.407 341.49 184.964 342.14C185.521 342.791 186.311 343.196 187.164 343.268H335.038V260.096H198.513Z" fill="#5CADF8" fill-opacity="0.3"/>
<path d="M352.735 280.84C352.735 268.912 344.129 259.319 333.795 260.145C325.027 260.844 317.93 269.202 317.377 279.486C317.248 281.754 317.44 284.028 317.947 286.242C319.883 295.115 320.811 304.178 320.716 313.259V339.799C320.655 340.653 320.933 341.497 321.489 342.147C322.046 342.798 322.837 343.203 323.69 343.275H346.379C347.232 343.203 348.022 342.798 348.579 342.147C349.136 341.497 349.413 340.653 349.352 339.799V311.683C349.283 303.167 350.204 294.673 352.096 286.37C352.522 284.558 352.736 282.702 352.735 280.84Z" fill="#5CADF8" fill-opacity="0.3"/>
<path d="M310.646 296.246H159.535V343.285H310.646V296.246Z" fill="#F2F7FA"/>
<path d="M120.692 239.877H277.963C281.804 239.877 285.488 241.403 288.204 244.119C290.921 246.835 292.447 250.52 292.447 254.361V304.177H106.208V254.378C106.206 252.474 106.579 250.589 107.306 248.83C108.033 247.071 109.099 245.472 110.444 244.125C111.789 242.778 113.387 241.71 115.145 240.981C116.904 240.252 118.789 239.877 120.692 239.877Z" fill="#5CADF8" fill-opacity="0.5"/>
<path d="M131.283 239.877H281.721C285.512 239.877 289.149 241.383 291.83 244.064C294.511 246.745 296.017 250.382 296.017 254.174V304.186H116.986V254.174C116.986 250.382 118.493 246.745 121.174 244.064C123.855 241.383 127.491 239.877 131.283 239.877Z" fill="#F2F7FA"/>
<path d="M163.531 294.549H310.603C311.428 294.549 312.219 294.876 312.802 295.46C313.386 296.043 313.713 296.834 313.713 297.659V302.66C313.713 303.485 313.386 304.276 312.802 304.859C312.219 305.442 311.428 305.77 310.603 305.77H163.531C163.285 305.77 163.049 305.672 162.875 305.498C162.7 305.324 162.603 305.087 162.603 304.841V295.469C162.605 295.224 162.704 294.99 162.878 294.818C163.051 294.646 163.286 294.549 163.531 294.549Z" fill="#5CADF8" fill-opacity="0.5"/>
<path d="M98.9824 343.275H335.924V343.471C335.924 344.091 335.678 344.684 335.24 345.122C334.802 345.56 334.208 345.806 333.589 345.806H101.317C101.01 345.806 100.707 345.745 100.424 345.628C100.14 345.511 99.8829 345.339 99.6662 345.122C99.4494 344.905 99.2774 344.648 99.1601 344.365C99.0428 344.081 98.9824 343.778 98.9824 343.471V343.275Z" fill="#5CADF8" fill-opacity="0.5"/>
<path d="M99.8695 260.096C99.4605 260.096 99.0175 260.096 98.6341 260.138C89.8585 260.837 82.7698 269.195 82.216 279.479C82.089 281.746 82.2783 284.02 82.7783 286.235C84.7163 295.108 85.6481 304.171 85.5559 313.252V339.792C85.4946 340.646 85.7723 341.49 86.3289 342.14C86.8855 342.791 87.6761 343.196 88.5293 343.268H160.378V260.096H99.8695Z" fill="#5CADF8" fill-opacity="0.3"/>
<path d="M178.083 280.84C178.083 268.912 169.478 259.319 159.143 260.145C150.367 260.844 143.279 269.202 142.725 279.486C142.598 281.753 142.787 284.027 143.287 286.242C145.225 295.115 146.157 304.178 146.065 313.259V339.799C146.003 340.653 146.281 341.497 146.838 342.147C147.394 342.798 148.185 343.203 149.038 343.275H171.727C172.58 343.203 173.371 342.798 173.927 342.147C174.484 341.497 174.762 340.653 174.7 339.799V311.683C174.632 303.168 175.55 294.674 177.435 286.37C177.864 284.558 178.082 282.702 178.083 280.84Z" fill="#5CADF8" fill-opacity="0.3"/>
<path d="M29.92 214.523C33.0213 208.789 53.7249 216.602 61.6911 226.11C67.0508 232.335 70.328 240.081 71.0631 248.262C71.5913 237.91 72.1536 226.783 72.6648 216.287C71.1057 213.662 67.5528 207.622 64.9968 202.842C56.562 186.875 34.2396 180.92 27.0999 170.841C17.7279 157.635 19.1848 137.826 28.446 130.686C36.4974 124.484 58.7602 166.47 61.2651 171.182C69.9043 187.327 71.898 199.298 72.9204 210.902C73.3975 201.044 73.8406 191.987 74.1643 185.001C75.2293 162.219 75.076 154.883 74.9311 152.625C73.9513 151.517 72.8011 150.239 72.1281 149.549C66.4367 143.722 53.3841 136.769 47.2156 128.326C38.2014 115.964 40.8341 101.181 48.1528 95.6774C55.8208 89.9264 67.6551 103.541 73.5083 117.02C79.3615 130.499 75.5446 143.432 76.6692 154.602C76.9163 156.8 76.7374 165.141 76.3114 176.754C79.2508 164.306 83.9794 155.965 92.0989 148.203C102.135 138.652 111.039 127.022 118.656 128.531C126.273 130.039 121.033 145.434 114.166 156.238C108.048 165.865 80.5543 175.45 76.0643 183.186C75.4253 198.872 74.4455 218.732 73.4401 237.229C76.2262 227.678 74.8289 226.877 84.5161 212.257C90.2757 203.566 112.146 192.857 114.242 198.829C116.338 204.802 111.686 216.091 103.166 223.997C96.2908 230.37 82.0198 230.362 78.4584 234.315C77.6064 235.235 74.8289 238.779 73.2271 240.807C71.9917 263.394 70.7393 283.322 70.0918 290.121L68.703 290.189C68.899 288.434 69.555 276.949 70.3303 261.741C67.4335 253.655 44.4381 248.961 37.8265 240.5C30.8998 231.674 26.2053 221.399 29.92 214.523Z" fill="#5CADF8" fill-opacity="0.5"/>
<path d="M88.7759 345.805H50.3592C49.3406 345.806 48.3531 345.454 47.5642 344.81C46.7753 344.165 46.2336 343.268 46.0311 342.27L43.3047 284.973H95.8305L93.0956 342.287C92.8899 343.28 92.348 344.173 91.5612 344.814C90.7744 345.455 89.7907 345.805 88.7759 345.805Z" fill="#5CADF8" fill-opacity="0.5"/>
<path d="M96.9215 290.172H42.206C41.5715 290.175 40.9584 289.942 40.486 289.519C40.0136 289.095 39.7156 288.511 39.65 287.88L38.5254 277.946C38.4805 277.584 38.5132 277.218 38.6214 276.87C38.7296 276.523 38.9108 276.203 39.1527 275.931C39.3947 275.659 39.6919 275.442 40.0246 275.294C40.3572 275.146 40.7175 275.072 41.0814 275.074H98.0376C98.4015 275.072 98.7618 275.146 99.0944 275.294C99.427 275.442 99.7243 275.659 99.9662 275.931C100.208 276.203 100.389 276.523 100.498 276.87C100.606 277.218 100.638 277.584 100.594 277.946L99.4775 287.88C99.4119 288.511 99.1139 289.095 98.6415 289.519C98.1691 289.942 97.556 290.175 96.9215 290.172Z" fill="#5CADF8" fill-opacity="0.3"/>
<path d="M188.001 384.281C279.235 384.281 353.195 379.963 353.195 374.637C353.195 369.31 279.235 364.992 188.001 364.992C96.7666 364.992 22.8066 369.31 22.8066 374.637C22.8066 379.963 96.7666 384.281 188.001 384.281Z" fill="#F2F7FA"/>
<path d="M120.778 374.635H123.121L138.253 199.072H135.918L120.778 374.635Z" fill="#132043"/>
<path d="M165.439 374.635H163.105L147.965 199.072H150.308L165.439 374.635Z" fill="#132043"/>
<path d="M57.1761 277.03H259.577L241.898 121.105H39.4971L57.1761 277.03Z" fill="#5CADF8" fill-opacity="0.3"/>
<path d="M259.824 277.252H56.9716L39.25 120.885H242.103L259.824 277.252ZM57.372 276.809H259.296L241.677 121.328H39.7527L57.372 276.809Z" fill="#5CADF8"/>
<path d="M195.098 118.209H187.805V118.652H195.098V118.209Z" fill="#5CADF8"/>
<path d="M223.222 118.209H202.8V118.652H223.222V118.209Z" fill="#5CADF8"/>
<path d="M59.2554 277.03H261.657L243.986 121.105H41.585L59.2554 277.03Z" fill="#F2F7FA"/>
<path d="M261.912 277.252H59.0595L41.3379 120.885H244.182L261.912 277.252ZM59.4599 276.809H261.384L243.79 121.328H41.8661L59.4599 276.809Z" fill="#5CADF8"/>
<path d="M152.548 193.9L173.712 157.844C164.867 151.989 154.323 149.249 143.747 150.056C133.818 150.824 124.564 155.378 117.897 162.777L152.548 193.9Z" fill="#5CADF8"/>
<path opacity="0.7" d="M152.548 193.9L173.712 157.844C164.867 151.989 154.323 149.249 143.747 150.056C133.818 150.824 124.564 155.378 117.897 162.777L152.548 193.9Z" fill="#F2F7FA"/>
<path d="M152.549 193.902L182.539 245.636C188.216 242.854 193.295 238.99 197.492 234.262C217.088 212.11 212.99 175.687 188.341 153.543C185.729 151.196 182.938 149.056 179.992 147.145L152.549 193.902Z" fill="#5CADF8"/>
<path opacity="0.2" d="M152.549 193.902L182.539 245.636C188.216 242.854 193.295 238.99 197.492 234.262C217.088 212.11 212.99 175.687 188.341 153.543C185.729 151.196 182.938 149.056 179.992 147.145L152.549 193.902Z" fill="#132043"/>
<path d="M152.548 193.901L88.1456 177.15C84.7376 199.456 93.8029 223.329 112.002 239.662C133.344 258.849 163.292 264.02 186.543 252.595L152.548 193.901Z" fill="#132043"/>
<path d="M203.49 139.866H233.455L232.765 133.766H202.8L203.49 139.866Z" fill="#5CADF8" fill-opacity="0.3"/>
<path d="M215.341 149.358H234.529L233.838 143.258H214.651L215.341 149.358Z" fill="#5CADF8" fill-opacity="0.3"/>
<path d="M222.925 258.27H246.875L247.573 264.37H223.615L222.925 258.27Z" fill="#5CADF8" fill-opacity="0.3"/>
<path d="M226.605 248.777H245.801L246.491 254.878H227.304L226.605 248.777Z" fill="#5CADF8" fill-opacity="0.3"/>
<path d="M209.539 248.777H223.444L224.134 254.878H210.238L209.539 248.777Z" fill="#5CADF8" fill-opacity="0.3"/>
<path d="M86.7148 143.258H56.75L57.4401 149.358H87.405L86.7148 143.258Z" fill="#5CADF8" fill-opacity="0.3"/>
<path d="M74.8638 133.766H55.6768L56.3669 139.866H75.5624L74.8638 133.766Z" fill="#5CADF8" fill-opacity="0.3"/>
<path d="M93.3603 254.878H69.402L68.7119 248.777H92.6616L93.3603 254.878Z" fill="#5CADF8" fill-opacity="0.3"/>
<path d="M89.6708 264.37H70.4753L69.7852 258.27H88.9807L89.6708 264.37Z" fill="#5CADF8" fill-opacity="0.3"/>
<path d="M106.737 264.37H92.8327L92.1426 258.27H106.047L106.737 264.37Z" fill="#5CADF8" fill-opacity="0.3"/>
<path d="M324.566 160.791C324.864 161.268 325.077 161.643 325.316 162.043C325.555 162.444 325.768 162.836 325.981 163.236C326.407 164.029 326.833 164.829 327.199 165.63C327.991 167.241 328.681 168.876 329.346 170.521C330.628 173.825 331.696 177.209 332.541 180.651C332.762 181.503 332.933 182.355 333.12 183.207L333.257 183.855C333.257 183.94 333.308 184.11 333.333 184.272L333.401 184.749C333.478 185.409 333.478 186.075 333.401 186.734C333.275 188.059 332.856 189.34 332.175 190.483C331.565 191.492 330.794 192.393 329.891 193.15C328.333 194.427 326.558 195.414 324.651 196.064C323.777 196.384 322.884 196.648 321.976 196.856C321.067 197.075 320.145 197.237 319.216 197.342L318.364 193.653C321.158 192.409 324.132 190.705 325.725 188.813C326.078 188.413 326.366 187.958 326.577 187.467C326.718 187.116 326.773 186.736 326.739 186.36C326.723 186.172 326.689 185.986 326.637 185.806L326.364 184.869C326.134 184.085 325.921 183.301 325.657 182.526C324.685 179.416 323.552 176.366 322.249 173.384C321.618 171.884 320.937 170.419 320.247 168.962C319.889 168.237 319.531 167.522 319.156 166.823L318.594 165.784L318.065 164.83L324.566 160.791Z" fill="#B55B52"/>
<path d="M319.821 193.143L313.737 194.046L316.762 199.03C316.762 199.03 321.082 198.323 322.428 195.511L319.821 193.143Z" fill="#B55B52"/>
<path d="M309.537 196.183L311.548 200.716L316.762 199.029L313.737 194.045L309.537 196.183Z" fill="#B55B52"/>
<path d="M308.132 367.468C308.798 367.45 309.46 367.362 310.108 367.204C310.143 367.196 310.174 367.178 310.198 367.153C310.223 367.127 310.239 367.094 310.245 367.059C310.252 367.025 310.248 366.99 310.234 366.958C310.221 366.926 310.197 366.899 310.168 366.881C309.921 366.71 307.663 365.245 306.76 365.637C306.661 365.682 306.576 365.752 306.511 365.84C306.447 365.928 306.407 366.031 306.394 366.139C306.356 366.307 306.362 366.481 306.411 366.645C306.46 366.809 306.551 366.958 306.675 367.077C307.096 367.381 307.614 367.52 308.132 367.468ZM309.614 366.949C308.311 367.204 307.331 367.162 306.956 366.821C306.876 366.739 306.818 366.639 306.788 366.528C306.758 366.418 306.757 366.301 306.785 366.19C306.784 366.142 306.798 366.095 306.823 366.054C306.849 366.013 306.886 365.98 306.93 365.96C307.39 365.747 308.694 366.386 309.614 366.949Z" fill="#5CADF8"/>
<path d="M310.065 367.206C310.096 367.215 310.128 367.215 310.159 367.206C310.185 367.19 310.208 367.168 310.224 367.141C310.241 367.114 310.25 367.084 310.252 367.053C310.252 366.968 310.252 364.812 309.469 364.088C309.369 363.996 309.25 363.927 309.12 363.887C308.99 363.848 308.853 363.838 308.719 363.858C308.577 363.86 308.44 363.91 308.331 364C308.221 364.09 308.145 364.214 308.114 364.352C307.935 365.204 309.273 366.806 309.98 367.206C310.008 367.214 310.037 367.214 310.065 367.206ZM308.838 364.207C308.983 364.208 309.123 364.263 309.23 364.361C309.69 365.06 309.919 365.885 309.886 366.721C309.187 366.15 308.353 364.94 308.463 364.429C308.463 364.344 308.531 364.241 308.761 364.216L308.838 364.207Z" fill="#5CADF8"/>
<path d="M301.946 362.502C301.961 362.474 301.969 362.443 301.969 362.412C301.969 362.381 301.961 362.35 301.946 362.323C301.927 362.291 301.899 362.266 301.866 362.25C301.832 362.235 301.795 362.231 301.759 362.237C301.392 362.297 298.214 362.876 297.643 363.805C297.641 363.825 297.641 363.845 297.643 363.865C297.595 363.951 297.569 364.047 297.569 364.146C297.569 364.244 297.595 364.341 297.643 364.427C297.717 364.565 297.824 364.682 297.955 364.767C298.087 364.852 298.237 364.902 298.393 364.913C299.475 365.006 301.068 363.456 301.929 362.527C301.937 362.544 301.946 362.502 301.946 362.502ZM297.959 363.976C298.282 363.464 299.995 362.962 301.298 362.689C300.097 363.916 299.049 364.615 298.444 364.563C298.34 364.555 298.24 364.521 298.153 364.462C298.067 364.404 297.997 364.324 297.95 364.231C297.931 364.197 297.922 364.159 297.922 364.12C297.922 364.082 297.931 364.044 297.95 364.01C297.95 364.01 297.95 364.01 297.959 364.001V363.976Z" fill="#5CADF8"/>
<path d="M301.946 362.502C301.963 362.475 301.971 362.444 301.971 362.413C301.971 362.381 301.963 362.35 301.946 362.323C301.895 362.264 300.608 360.764 299.39 360.713C299.212 360.703 299.034 360.729 298.867 360.791C298.7 360.852 298.547 360.948 298.419 361.071C298.035 361.403 298.069 361.693 298.155 361.872C298.521 362.63 300.881 362.843 301.844 362.622C301.891 362.596 301.928 362.553 301.946 362.502ZM298.487 361.454C298.53 361.396 298.578 361.342 298.632 361.292C298.728 361.201 298.842 361.131 298.966 361.087C299.091 361.043 299.224 361.026 299.356 361.037C300.168 361.219 300.9 361.658 301.443 362.289C300.387 362.409 298.683 362.127 298.461 361.667C298.452 361.636 298.449 361.603 298.453 361.571C298.458 361.538 298.469 361.507 298.487 361.48V361.454Z" fill="#5CADF8"/>
<path d="M308.395 134.797C307.543 139.244 305.643 148.957 308.77 151.837C308.77 151.837 307.586 156.361 299.33 156.523C290.256 156.702 294.968 152.11 294.968 152.11C299.91 150.832 299.765 147.159 298.879 143.734L308.395 134.797Z" fill="#B55B52"/>
<path d="M292.736 124.956C292.789 124.968 292.845 124.968 292.898 124.956C292.979 124.911 293.041 124.837 293.069 124.748C293.098 124.66 293.091 124.563 293.051 124.479C292.81 123.979 292.451 123.543 292.007 123.21C291.562 122.876 291.044 122.654 290.495 122.562C290.448 122.558 290.401 122.562 290.356 122.576C290.31 122.59 290.268 122.612 290.232 122.643C290.195 122.673 290.165 122.71 290.143 122.751C290.121 122.793 290.108 122.839 290.103 122.886C290.098 122.932 290.101 122.978 290.113 123.022C290.126 123.066 290.147 123.107 290.175 123.143C290.204 123.179 290.239 123.208 290.28 123.23C290.32 123.252 290.365 123.265 290.41 123.269C290.848 123.345 291.262 123.524 291.616 123.793C291.97 124.061 292.255 124.41 292.446 124.812C292.479 124.857 292.523 124.894 292.573 124.92C292.624 124.945 292.68 124.957 292.736 124.956Z" fill="#132043"/>
<path d="M290.521 128.559C289.837 129.871 288.977 131.083 287.965 132.163C288.246 132.415 288.581 132.601 288.943 132.709C289.305 132.816 289.687 132.842 290.061 132.785L290.521 128.559Z" fill="#A02724"/>
<path d="M289.336 131.832C287.743 131.832 286.439 129.276 286.439 126.047C286.439 122.818 287.743 120.262 289.336 120.262C290.929 120.262 292.242 122.818 292.242 126.047C292.242 129.276 290.938 131.832 289.336 131.832ZM289.336 120.475C287.862 120.475 286.652 122.98 286.652 126.047C286.652 129.114 287.862 131.619 289.336 131.619C290.81 131.619 292.029 129.123 292.029 126.047C292.029 122.971 290.819 120.475 289.336 120.475Z" fill="#5CADF8"/>
<path d="M291.185 127.589C291.108 128.185 290.733 128.637 290.333 128.594C289.932 128.552 289.685 128.041 289.753 127.436C289.822 126.831 290.196 126.388 290.605 126.422C291.014 126.456 291.253 126.984 291.185 127.589Z" fill="#132043"/>
<path d="M290.768 126.499L289.379 125.928C289.379 125.928 289.984 127.112 290.768 126.499Z" fill="#132043"/>
<path d="M309 359.732L302.065 362.987L294.49 347.864L301.426 344.609L309 359.732Z" fill="#B55B52"/>
<path d="M318.773 367.026H311.292L312.118 349.705H319.599L318.773 367.026Z" fill="#B55B52"/>
<path d="M310.687 366.166H319.088C319.232 366.163 319.372 366.214 319.48 366.308C319.589 366.403 319.659 366.534 319.676 366.677L320.528 373.323C320.542 373.492 320.521 373.662 320.466 373.822C320.411 373.982 320.324 374.129 320.209 374.254C320.095 374.379 319.956 374.479 319.801 374.547C319.646 374.616 319.479 374.652 319.309 374.652C316.378 374.601 314.964 374.431 311.275 374.431C309 374.431 305.677 374.669 302.533 374.669C299.389 374.669 299.27 371.559 300.582 371.261C306.461 370 307.398 368.262 309.409 366.609C309.77 366.317 310.222 366.16 310.687 366.166Z" fill="#132043"/>
<path d="M301.707 361.445L308.609 356.333C308.719 356.241 308.861 356.194 309.005 356.202C309.148 356.21 309.284 356.272 309.384 356.375L313.942 361.096C314.051 361.225 314.132 361.376 314.18 361.539C314.227 361.702 314.241 361.872 314.219 362.041C314.197 362.209 314.141 362.37 314.054 362.516C313.967 362.661 313.85 362.787 313.712 362.885C311.275 364.631 310.023 365.356 306.99 367.605C305.124 368.994 301.401 372.052 298.819 373.961C296.238 375.869 294.346 373.509 295.258 372.487C299.356 367.903 300.268 365.108 300.949 362.587C301.064 362.131 301.332 361.728 301.707 361.445Z" fill="#132043"/>
<path opacity="0.2" d="M294.499 347.873L298.546 355.967L305.336 352.405L301.434 344.609L294.499 347.873Z" fill="#132043"/>
<path opacity="0.2" d="M319.599 349.713H312.118L311.692 358.642H319.173L319.599 349.713Z" fill="#132043"/>
<path d="M321.686 153.303C324.805 153.916 328.187 165.018 328.187 165.018L319.454 174.526C319.454 174.526 312.093 164.183 313.558 160.298C315.083 156.251 318.014 152.57 321.686 153.303Z" fill="#132043"/>
<path opacity="0.4" d="M316.804 160.502C315.22 159.096 314.163 159.548 313.439 160.706C312.749 164.038 317.026 170.93 318.747 173.486C319.514 170.342 320.374 163.697 316.804 160.502Z" fill="#132043"/>
<path d="M281.72 155.876C281.149 159.147 281.03 169.107 286.142 199.328L316.541 198.731C315.962 186.386 315.902 178.769 321.653 153.311C317.389 152.515 313.072 152.03 308.737 151.863C304.135 151.623 299.523 151.714 294.934 152.135C290.513 152.621 285.665 153.584 283.475 154.044C283.032 154.137 282.628 154.362 282.315 154.689C282.001 155.015 281.794 155.429 281.72 155.876Z" fill="#132043"/>
<path d="M311.582 127.623C310.261 134.941 309.878 138.06 305.694 141.451C299.432 146.563 290.742 143.461 289.847 135.93C289.046 129.114 291.347 118.319 298.895 116.138C300.544 115.64 302.294 115.576 303.974 115.954C305.654 116.332 307.208 117.138 308.485 118.294C309.762 119.45 310.718 120.916 311.261 122.551C311.803 124.186 311.914 125.933 311.582 127.623Z" fill="#B55B52"/>
<path d="M291.091 118.472C291.091 118.242 290.93 117.995 290.947 117.765C290.964 117.535 291.032 117.297 291.057 117.066C291.083 116.836 291.057 116.589 291.057 116.351C291.057 116.112 291.287 115.916 291.339 115.686C291.39 115.456 291.228 115.175 291.296 114.945C291.364 114.715 291.475 114.502 291.552 114.28C291.628 114.059 291.841 113.889 291.926 113.667C292.012 113.445 292.114 113.232 292.216 113.019C292.318 112.806 292.259 112.517 292.369 112.304C292.48 112.091 292.821 112.023 292.94 111.818C293.06 111.614 292.94 111.239 293.043 111.043C293.145 110.847 293.426 110.728 293.562 110.54C293.699 110.353 293.792 110.106 293.937 109.927C294.082 109.748 294.295 109.611 294.457 109.433C294.619 109.254 294.9 109.203 295.07 109.041C295.241 108.879 295.224 108.521 295.403 108.359C295.581 108.197 295.803 108.095 295.982 107.942C296.161 107.788 296.416 107.729 296.604 107.584C296.791 107.439 296.876 107.158 297.072 107.03C297.268 106.902 297.669 107.081 297.873 106.953C298.078 106.825 298.257 106.698 298.461 106.578C298.666 106.459 298.853 106.331 299.066 106.229C299.279 106.127 299.347 105.735 299.569 105.641C299.79 105.547 300.071 105.641 300.293 105.53C300.515 105.42 300.659 105.164 300.881 105.087C301.102 105.011 301.435 105.258 301.656 105.19C301.878 105.121 302.031 104.781 302.261 104.721C302.491 104.661 302.721 104.585 302.951 104.534C303.181 104.482 303.437 104.534 303.675 104.534C303.914 104.534 304.144 104.534 304.383 104.465C304.621 104.397 304.843 104.465 305.073 104.397C305.303 104.329 305.541 104.397 305.771 104.329C306.001 104.261 306.24 104.329 306.47 104.278C306.7 104.227 306.93 104.21 307.169 104.193C307.407 104.176 307.629 104.108 307.867 104.099C308.106 104.091 308.344 104.286 308.574 104.278C308.804 104.269 309.043 104.125 309.273 104.125C309.503 104.125 309.75 103.988 309.98 103.988C310.21 103.988 310.44 104.227 310.679 104.235C310.917 104.244 311.13 104.397 311.361 104.414C311.591 104.431 311.855 104.193 312.085 104.218C312.315 104.244 312.528 104.465 312.758 104.499C312.988 104.534 313.243 104.389 313.473 104.423C313.703 104.457 313.908 104.644 314.138 104.687C314.368 104.73 314.641 104.576 314.862 104.627C315.084 104.678 315.314 104.772 315.535 104.832C315.757 104.891 315.995 104.934 316.217 105.002C316.438 105.07 316.651 105.181 316.873 105.258C317.094 105.334 317.265 105.556 317.478 105.641C317.691 105.726 317.895 105.846 318.108 105.939C318.321 106.033 318.628 105.939 318.833 106.016C319.037 106.093 319.276 106.195 319.48 106.306C319.685 106.416 319.846 106.604 320.051 106.723C320.255 106.842 320.332 107.149 320.528 107.277C320.724 107.405 320.98 107.422 321.167 107.558C321.354 107.694 321.695 107.635 321.874 107.78C322.053 107.925 322.036 108.325 322.215 108.47C322.394 108.615 322.709 108.606 322.888 108.768C323.067 108.93 323.212 109.1 323.382 109.262C323.553 109.424 323.544 109.748 323.697 109.918C323.851 110.089 324.064 110.208 324.217 110.387C324.371 110.566 324.584 110.685 324.728 110.864C324.873 111.043 325.095 111.171 325.231 111.358C325.367 111.546 325.274 111.895 325.401 112.082C325.529 112.27 325.887 112.329 326.006 112.534C326.126 112.738 326.066 113.028 326.177 113.232C326.288 113.437 326.415 113.633 326.518 113.837C326.62 114.042 326.909 114.17 327.003 114.383C327.097 114.596 327.267 114.783 327.353 114.996C327.438 115.209 327.412 115.473 327.497 115.695C327.583 115.916 327.668 116.129 327.736 116.351C327.804 116.572 327.838 116.811 327.906 117.032C327.974 117.254 328 117.492 328.06 117.714C328.119 117.936 327.983 118.208 328.06 118.438C328.136 118.668 328.545 118.813 328.579 119.043C328.613 119.273 328.281 119.563 328.315 119.801C328.349 120.04 328.469 120.244 328.494 120.474C328.52 120.705 328.443 120.943 328.494 121.173C328.545 121.403 328.494 121.633 328.494 121.872C328.494 122.11 328.613 122.332 328.622 122.57C328.631 122.809 328.946 123.048 328.946 123.286C328.946 123.525 328.946 123.772 328.903 124.01C328.861 124.249 328.852 124.487 328.827 124.726C328.801 124.965 328.571 125.178 328.537 125.408C328.503 125.638 328.537 125.885 328.469 126.123C328.4 126.362 328.392 126.592 328.349 126.822C328.307 127.052 328.349 127.316 328.349 127.546C328.349 127.776 328.136 127.981 328.077 128.211C328.017 128.441 327.779 128.62 327.71 128.85C327.642 129.08 327.71 129.344 327.642 129.574C327.574 129.804 327.395 129.983 327.31 130.204C327.225 130.426 327.378 130.741 327.31 130.963C327.242 131.184 327.131 131.406 327.029 131.619C326.927 131.832 326.705 132.002 326.603 132.215C326.501 132.428 326.518 132.709 326.407 132.914C326.296 133.118 326.006 133.237 325.887 133.442C325.768 133.646 325.504 133.766 325.384 133.97C325.265 134.175 325.248 134.439 325.112 134.635C324.975 134.831 324.762 134.967 324.626 135.163C324.49 135.359 324.507 135.666 324.362 135.853C324.217 136.041 324.209 136.339 324.055 136.518C323.902 136.697 323.621 136.782 323.467 136.961C323.314 137.14 323.263 137.421 323.101 137.6C322.939 137.779 322.675 137.855 322.513 138.017C322.351 138.179 322.215 138.401 322.045 138.562C321.874 138.724 321.61 138.801 321.431 138.954C321.252 139.108 321.005 139.193 320.826 139.338C320.647 139.483 320.588 139.806 320.4 139.951C320.213 140.096 319.923 140.113 319.727 140.249C319.531 140.386 319.25 140.377 319.054 140.514C318.858 140.65 318.798 140.999 318.594 141.118C318.389 141.238 318.091 141.195 317.878 141.306C317.665 141.417 317.495 141.587 317.282 141.698C317.069 141.809 316.95 142.09 316.728 142.192C316.507 142.294 316.268 142.328 316.047 142.422C315.825 142.516 315.535 142.422 315.305 142.49L314.632 142.703C314.411 142.78 314.274 143.146 314.044 143.206C313.814 143.265 313.482 142.95 313.252 143.001C313.022 143.052 312.834 143.3 312.604 143.351C312.374 143.402 312.136 143.436 311.906 143.47C311.676 143.504 311.42 143.385 311.182 143.419C310.943 143.453 310.722 143.487 310.483 143.504C310.244 143.521 310.031 143.922 309.793 143.93C309.554 143.939 309.324 143.632 309.086 143.632V143.717C308.779 143.717 308.472 143.666 308.157 143.666C307.842 143.666 307.688 143.521 307.45 143.513C307.211 143.504 306.947 143.87 306.709 143.845C306.47 143.819 306.266 143.555 306.027 143.521C305.788 143.487 305.575 143.376 305.345 143.334C305.115 143.291 304.817 143.47 304.587 143.41C304.357 143.351 304.136 143.257 303.906 143.189C303.675 143.121 303.505 142.882 303.284 142.797C303.062 142.712 302.798 142.72 302.585 142.626C302.372 142.533 302.082 142.567 301.869 142.456C301.656 142.345 301.545 142.047 301.332 141.928C301.119 141.809 300.83 141.851 300.625 141.723C300.421 141.596 300.412 141.187 300.216 141.05C300.02 140.914 299.731 140.914 299.552 140.761C299.373 140.607 299.271 140.36 299.092 140.198C298.913 140.036 298.768 139.875 298.598 139.704C298.427 139.534 297.967 139.644 297.805 139.466C297.643 139.287 297.746 138.895 297.592 138.707C297.439 138.52 297.089 138.494 296.945 138.298C296.8 138.102 296.646 137.923 296.51 137.719C296.374 137.514 296.595 137.123 296.51 136.91C296.425 136.697 296.178 136.56 296.076 136.339C295.973 136.117 295.743 135.972 295.65 135.751C295.556 135.529 295.599 135.265 295.522 135.035C295.445 134.805 295.437 134.575 295.368 134.345C295.3 134.115 294.883 133.979 294.832 133.74C294.781 133.502 294.925 133.229 294.883 132.999C294.84 132.769 294.661 132.539 294.636 132.3C294.61 132.062 294.951 131.806 294.934 131.559C294.917 131.312 294.891 131.099 294.891 130.86C294.891 130.622 294.568 130.417 294.551 130.213C294.533 130.008 294.551 129.778 294.508 129.574C294.465 129.369 294.559 129.131 294.559 128.918C294.542 128.699 294.542 128.48 294.559 128.262C294.559 128.066 294.695 127.87 294.764 127.64C294.576 127.478 294.329 127.384 294.159 127.222C293.988 127.06 293.997 126.694 293.835 126.515C293.673 126.336 293.528 126.149 293.383 125.953C293.238 125.757 292.932 125.68 292.804 125.476C292.676 125.271 292.744 124.947 292.625 124.734C292.506 124.521 292.412 124.317 292.31 124.095C292.208 123.874 292.08 123.678 291.995 123.448C291.909 123.218 291.85 122.996 291.782 122.758C291.713 122.519 291.586 122.315 291.534 122.076C291.483 121.838 291.381 121.625 291.339 121.378C291.296 121.131 291.006 120.935 290.972 120.687C290.938 120.44 290.972 120.193 290.972 119.946C290.972 119.699 291.287 119.444 291.279 119.196C291.27 118.949 291.091 118.719 291.091 118.472Z" fill="#132043"/>
<path d="M293.579 128.653C292.813 130.357 293.869 130.69 293.741 131.908C293.46 134.583 294.696 134.464 295.65 133.126C296.502 131.908 297.354 129.497 296.595 128.083C295.837 126.668 294.261 127.103 293.579 128.653Z" fill="#B55B52"/>
<path d="M294.184 199.157C294.184 199.157 298.827 250.362 303.496 279.186C307.27 302.462 310.465 356.913 310.465 356.913H320.689C320.689 356.913 324.021 303.766 322.035 280.711C317.026 222.366 327.429 217.398 316.583 198.723L294.184 199.157Z" fill="#5CADF8"/>
<path opacity="0.4" d="M304.562 216.281C301.904 220.183 298.359 224.682 297.209 229.445C298.129 238.084 299.203 247.635 300.361 256.819C303.164 249.092 307.97 233.654 304.562 216.281Z" fill="#132043"/>
<path d="M286.158 199.317C286.158 199.317 276.693 258.719 273.856 281.373C270.908 304.948 294.499 352.984 294.499 352.984L304.63 347.403C304.63 347.403 291.091 297.621 292.02 285.616C295.334 260.389 313.082 198.789 313.082 198.789L286.158 199.317Z" fill="#5CADF8"/>
<path d="M303.087 219.996H296.936C296.886 219.996 296.838 219.978 296.8 219.945L293.869 217.662C293.84 217.638 293.818 217.608 293.803 217.574C293.788 217.54 293.782 217.503 293.784 217.466L294.508 206.203C294.512 206.147 294.537 206.095 294.578 206.057C294.619 206.019 294.673 205.998 294.729 205.998H307.024C307.055 205.998 307.086 206.003 307.116 206.015C307.145 206.027 307.172 206.044 307.194 206.066C307.23 206.116 307.251 206.175 307.254 206.237L306.529 217.5C306.521 217.567 306.488 217.628 306.436 217.67L303.215 219.928C303.18 219.963 303.136 219.987 303.087 219.996ZM297.013 219.545H302.977L306.052 217.389L306.751 206.467H294.908L294.201 217.406L297.013 219.545Z" fill="#F2F7FA"/>
<path d="M294.509 355.498L306.377 349.466L304.733 344.822L292.029 351.263L294.509 355.498Z" fill="#132043"/>
<path d="M309.069 357.117H322.062L322.804 352.558L309.069 352.09V357.117Z" fill="#132043"/>
<path d="M317.009 196.933L318.39 199.626C318.5 199.83 318.253 200.052 317.904 200.06L286.014 200.682C285.741 200.682 285.511 200.554 285.494 200.384L285.204 197.675C285.204 197.487 285.426 197.325 285.724 197.317L316.507 196.712C316.602 196.702 316.699 196.717 316.787 196.756C316.875 196.795 316.952 196.856 317.009 196.933Z" fill="#5CADF8" fill-opacity="0.3"/>
<path d="M312.895 200.453H313.747C313.917 200.453 314.036 200.359 314.028 200.257L313.619 196.738C313.619 196.636 313.465 196.551 313.303 196.551H312.451C312.29 196.551 312.162 196.644 312.17 196.747L312.579 200.266C312.579 200.376 312.724 200.453 312.895 200.453Z" fill="#132043"/>
<path d="M292.906 200.844H293.758C293.92 200.844 294.048 200.75 294.031 200.648L293.622 197.129C293.622 197.027 293.469 196.941 293.307 196.941H292.455C292.293 196.941 292.165 197.035 292.182 197.137L292.583 200.656C292.6 200.767 292.745 200.844 292.906 200.844Z" fill="#132043"/>
<path opacity="0.4" d="M282.154 171.135C282.299 172.549 282.47 174.065 282.666 175.718C286.397 173.529 286.431 167.266 287.326 164.387C285.648 164.642 281.66 165.469 282.154 171.135Z" fill="#132043"/>
<path d="M285.511 163.133C284.314 166.995 282.874 170.777 281.199 174.456C279.537 178.261 277.496 181.889 275.108 185.285C274.312 186.373 273.339 187.318 272.228 188.08C271.236 188.76 270.173 189.331 269.058 189.784C267.032 190.599 264.915 191.171 262.754 191.488C258.684 192.089 254.554 192.155 250.468 191.684L250.561 187.901C254.269 187.527 257.94 186.846 261.535 185.865C263.2 185.403 264.813 184.772 266.349 183.982C267.581 183.394 268.636 182.492 269.408 181.366C270.336 179.875 271.171 178.248 271.964 176.595C272.756 174.942 273.506 173.187 274.23 171.483C275.644 168.015 276.991 164.386 278.183 160.893L285.511 163.133Z" fill="#B55B52"/>
<path d="M281.924 154.665C278.576 156.547 274.146 166.959 274.146 166.959L285.222 174.099C285.222 174.099 291.654 164.275 290.862 158.558C290.24 154.307 285.409 152.696 281.924 154.665Z" fill="#132043"/>
<path d="M251.95 191.377L246.753 194.205L245.108 188.241C245.108 188.241 249.607 186.708 252.223 188.199L251.95 191.377Z" fill="#B55B52"/>
<path d="M257.574 218.028L232.653 168.246C228.762 170.224 225.183 172.761 222.028 175.778C218.819 178.845 216.06 182.35 213.832 186.189L257.574 218.028Z" fill="#5CADF8"/>
<path d="M243.311 195.322L240.704 190.585L245.109 188.268L246.753 194.206L243.311 195.322Z" fill="#B55B52"/>
</g>
</g>
<defs>
<clipPath id="clip0_35_7903">
<rect width="375" height="466" fill="white"/>
</clipPath>
<clipPath id="clip1_35_7903">
<rect width="426" height="426" fill="white" transform="translate(-25 20)"/>
</clipPath>
</defs>
</svg>
