<svg width="1266" height="509" viewBox="0 0 1266 509" fill="none" xmlns="http://www.w3.org/2000/svg">
<g clip-path="url(#clip0_219_16132)">
<rect width="1266" height="509" opacity="0.3" fill="#5CADF8"/>
<g opacity="0.6" filter="url(#filter0_i_219_16132)">
<path d="M123.792 -315.158C166.72 -682.561 518.123 -579.1 721.375 -380.404C842.764 -271.374 1000.92 -393.025 1151.25 -257.839C1301.58 -122.653 1008.97 -7.79068 1236.75 204.572C1464.54 416.934 1145.98 824.121 908.217 733.796C670.455 643.471 703.748 747.223 396.2 828.828C88.653 910.434 -208.333 503.103 -4.09309 283.147C200.147 63.1906 77.3218 82.5611 123.792 -315.158Z" opacity="0.5" stroke="#5CADF8" stroke-width="1.2494"/>
<path d="M526.506 147.789C528.759 112.051 598.639 81.2845 629.467 119.032C657.697 153.598 700.075 155.214 720.894 173.967C775.705 223.335 747.065 226.066 764.567 265.381C785.864 313.222 766.777 408.112 686.414 375.493C620.318 348.665 627.065 388.794 571.799 382.929C516.532 377.065 470.231 330.07 496.105 266.325C505.821 242.387 522.754 207.312 526.506 147.789Z" opacity="0.5" stroke="#5CADF8" stroke-width="1.2494"/>
<path d="M161.044 -274.679C200.275 -611.93 526.084 -520.672 713.661 -336.607C826.582 -234.347 974.214 -344.792 1112.77 -220.19C1254.42 -92.8058 985.799 11.8624 1194.47 208.493C1403.48 405.899 1112.15 784.695 888.695 699.616C666.539 615.063 697.418 713.032 412.806 786.685C128.193 860.338 -146.003 485.766 42.0214 280.011C228.577 77.8744 118.458 92.2953 161.044 -274.679Z" opacity="0.5" stroke="#5CADF8" stroke-width="1.2494"/>
<path d="M198.303 -234.192C233.836 -541.292 534.052 -462.237 705.955 -292.804C810.406 -197.313 947.513 -296.551 1074.29 -182.535C1207.26 -62.9521 962.638 31.5224 1152.19 212.421C1342.43 394.871 1078.32 745.277 869.179 665.443C662.629 586.663 691.096 678.848 429.418 744.549C167.74 810.251 -83.6673 468.436 88.1424 276.882C257.014 92.5655 159.6 102.037 198.303 -234.192Z" opacity="0.5" stroke="#5CADF8" stroke-width="1.2494"/>
<path d="M235.564 -193.715C267.399 -470.663 542.022 -403.81 698.25 -249.009C794.232 -160.287 920.813 -248.32 1035.82 -144.888C1160.1 -33.1068 939.479 51.1739 1109.91 216.341C1281.38 383.834 1044.5 705.849 849.666 631.262C658.722 558.255 684.775 644.655 446.031 702.405C207.288 760.155 -21.3293 451.098 134.265 273.745C285.453 107.248 200.744 111.769 235.564 -193.715Z" opacity="0.5" stroke="#5CADF8" stroke-width="1.2494"/>
<path d="M272.804 -153.235C300.941 -400.032 549.971 -345.381 690.524 -205.212C778.037 -123.26 894.093 -200.086 997.328 -107.239C1112.92 -3.25979 916.3 70.8273 1067.62 220.263C1220.32 372.799 1010.66 666.424 830.131 597.083C654.794 529.848 678.433 610.464 462.624 660.262C246.816 710.06 40.988 433.761 180.367 270.609C313.872 121.932 241.868 121.504 272.804 -153.235Z" opacity="0.5" stroke="#5CADF8" stroke-width="1.2494"/>
<path d="M309.619 -111.648C334.058 -328.294 557.496 -285.846 682.373 -160.308C761.417 -85.125 866.948 -150.745 958.409 -68.4837C1065.32 27.6944 892.695 91.5877 1024.9 225.292C1158.82 362.872 976.39 628.105 810.172 564.01C650.44 502.548 671.667 577.38 478.793 619.227C285.919 661.073 102.88 417.532 226.045 268.58C341.865 137.723 282.566 132.346 309.619 -111.648Z" opacity="0.5" stroke="#5CADF8" stroke-width="1.2494"/>
<path d="M345.897 -68.7565C366.638 -255.251 564.483 -225.005 673.685 -114.099C744.26 -45.6858 839.266 -100.1 918.953 -28.4232C1017.18 59.9532 868.553 113.653 981.638 231.625C1096.79 354.249 941.584 591.092 789.676 532.243C645.55 476.553 664.363 545.601 494.423 579.496C324.484 613.39 164.235 402.607 271.185 267.857C369.321 154.819 322.727 144.492 345.897 -68.7565Z" opacity="0.5" stroke="#5CADF8" stroke-width="1.2494"/>
<path d="M382.157 -25.7992C399.201 -182.143 571.453 -164.099 664.981 -67.8246C727.087 -6.18066 811.566 -49.3889 879.48 11.7031C969.025 92.278 844.394 135.784 938.363 238.025C1034.75 345.691 906.762 554.144 769.162 500.541C640.643 450.624 657.042 513.888 510.037 539.831C363.033 565.773 225.574 387.748 316.308 267.199C396.76 171.981 362.872 156.704 382.157 -25.7992Z" opacity="0.5" stroke="#5CADF8" stroke-width="1.2494"/>
<path d="M418.372 17.2789C431.718 -108.913 578.377 -103.072 656.229 -21.4293C709.866 33.4452 783.821 1.44303 839.961 51.9502C920.822 124.723 820.189 158.036 895.041 244.545C972.653 337.255 871.893 517.317 748.602 468.96C635.689 424.815 649.675 482.296 525.605 500.286C401.535 518.277 286.865 373.01 361.384 266.661C424.152 189.264 402.97 169.037 418.372 17.2789Z" opacity="0.5" stroke="#5CADF8" stroke-width="1.2494"/>
<path d="M454.516 60.5103C464.165 -35.5306 585.231 -41.8918 647.408 25.1192C692.576 73.2243 756.005 52.4282 800.372 92.3505C872.55 157.322 795.914 180.441 851.649 251.218C910.49 328.972 836.954 480.643 727.973 437.532C630.665 399.16 642.238 450.857 541.103 460.895C439.967 470.934 348.087 358.425 406.391 266.277C451.475 206.7 442.998 181.524 454.516 60.5103Z" opacity="0.5" stroke="#5CADF8" stroke-width="1.2494"/>
<path d="M490.581 103.963C496.531 38.073 592.004 19.5093 638.507 71.8887C675.206 113.224 728.109 103.634 760.703 132.972C824.197 190.142 771.559 203.066 808.177 258.113C848.246 320.91 801.935 444.191 707.263 406.326C625.561 373.725 634.721 419.638 556.52 421.725C478.319 423.813 409.229 344.061 451.318 266.114C478.718 224.356 482.945 194.231 490.581 103.963Z" opacity="0.5" stroke="#5CADF8" stroke-width="1.2494"/>
</g>
</g>
<defs>
<filter id="filter0_i_219_16132" x="-72.0693" y="-560.934" width="1387.72" height="1405.04" filterUnits="userSpaceOnUse" color-interpolation-filters="sRGB">
<feFlood flood-opacity="0" result="BackgroundImageFix"/>
<feBlend mode="normal" in="SourceGraphic" in2="BackgroundImageFix" result="shape"/>
<feColorMatrix in="SourceAlpha" type="matrix" values="0 0 0 0 0 0 0 0 0 0 0 0 0 0 0 0 0 0 127 0" result="hardAlpha"/>
<feOffset dy="4"/>
<feGaussianBlur stdDeviation="2"/>
<feComposite in2="hardAlpha" operator="arithmetic" k2="-1" k3="1"/>
<feColorMatrix type="matrix" values="0 0 0 0 1 0 0 0 0 1 0 0 0 0 1 0 0 0 0.25 0"/>
<feBlend mode="normal" in2="shape" result="effect1_innerShadow_219_16132"/>
</filter>
<clipPath id="clip0_219_16132">
<rect width="1266" height="509" fill="white"/>
</clipPath>
</defs>
</svg>
