<svg width="852" height="799" viewBox="0 0 852 799" fill="none" xmlns="http://www.w3.org/2000/svg">
<path d="M487.232 691.776L633.322 545.687C654.852 524.156 665.619 513.39 669.358 500.682C672.646 489.504 672.234 477.328 668.177 465.901C663.567 452.91 652.046 441.389 629.003 418.346L349.226 138.569C326.184 115.527 314.662 104.004 301.67 99.3943C290.244 95.338 278.067 94.9251 266.891 98.2148C254.183 101.953 243.416 112.72 221.885 134.251L75.7962 280.34C54.2654 301.871 43.4998 312.636 39.7608 325.345C36.4707 336.522 36.8844 348.698 40.9397 360.125C45.5501 373.116 57.0724 384.638 80.1148 407.681L359.891 687.457C382.934 710.5 394.455 722.021 407.447 726.632C418.874 730.688 431.049 731.101 442.228 727.812C454.936 724.072 465.701 713.307 487.232 691.776Z" stroke="#DBF8EA" stroke-width="26.5942" stroke-linecap="round" stroke-linejoin="round"/>
<path d="M220.558 544.79L366.647 690.88C388.178 712.41 398.944 723.177 411.642 726.925C422.812 730.223 434.974 729.824 446.384 725.784C459.357 721.192 470.853 709.696 493.846 686.703L773.021 407.528C796.014 384.535 807.511 373.038 812.102 360.066C816.142 348.656 816.541 336.493 813.243 325.324C809.495 312.626 798.728 301.86 777.198 280.329L631.109 134.24C609.578 112.709 598.812 101.943 586.113 98.1947C574.945 94.8961 562.782 95.2963 551.372 99.3349C538.4 103.926 526.902 115.424 503.909 138.417L224.735 417.591C201.742 440.584 190.245 452.081 185.653 465.053C181.614 476.464 181.215 488.626 184.513 499.796C188.261 512.494 199.027 523.259 220.558 544.79Z" fill="#DBF8EA" stroke="#DBF8EA" stroke-width="26.5942" stroke-linecap="round" stroke-linejoin="round"/>
</svg>
