<svg width="807" height="850" viewBox="0 0 807 850" fill="none" xmlns="http://www.w3.org/2000/svg">
<path d="M764.83 677.434H708.526V677.859H764.83V677.434Z" fill="#5CADF8" fill-opacity="0.3"/>
<path d="M563.074 682.057H548.301V682.482H563.074V682.057Z" fill="#5CADF8" fill-opacity="0.3"/>
<path d="M706.826 661.656H674.203V662.081H706.826V661.656Z" fill="#5CADF8" fill-opacity="0.3"/>
<path d="M162.605 664.514H89.1816V664.939H162.605V664.514Z" fill="#5CADF8" fill-opacity="0.3"/>
<path d="M188.513 664.514H177.752V664.939H188.513V664.514Z" fill="#5CADF8" fill-opacity="0.3"/>
<path d="M382.755 671.688H223.499V672.113H382.755V671.688Z" fill="#5CADF8" fill-opacity="0.3"/>
<path d="M402.9 574.26H74.664C72.0896 574.26 69.6206 573.237 67.8001 571.417C65.9797 569.596 64.957 567.127 64.957 564.553V103.122C64.9794 100.562 66.012 98.1151 67.83 96.313C69.648 94.5109 72.1042 93.4999 74.664 93.5H402.9C405.475 93.5 407.944 94.5227 409.764 96.3431C411.584 98.1635 412.607 100.633 412.607 103.207V564.553C412.607 567.127 411.584 569.596 409.764 571.417C407.944 573.237 405.475 574.26 402.9 574.26ZM74.664 93.84C72.2037 93.8445 69.8454 94.8239 68.1056 96.5636C66.3659 98.3033 65.3865 100.662 65.382 103.122V564.553C65.3865 567.013 66.3659 569.372 68.1056 571.111C69.8454 572.851 72.2037 573.831 74.664 573.835H402.9C405.36 573.831 407.719 572.851 409.458 571.111C411.198 569.372 412.178 567.013 412.182 564.553V103.122C412.178 100.662 411.198 98.3033 409.458 96.5636C407.719 94.8239 405.36 93.8445 402.9 93.84H74.664Z" fill="#5CADF8" fill-opacity="0.3"/>
<path d="M770.627 574.26H442.357C439.784 574.255 437.318 573.231 435.498 571.412C433.679 569.592 432.655 567.126 432.65 564.553V103.122C432.677 100.564 433.711 98.119 435.528 96.3179C437.345 94.5168 439.799 93.5043 442.357 93.5H770.627C773.181 93.5088 775.629 94.5238 777.439 96.3249C779.25 98.1261 780.278 100.568 780.3 103.122V564.553C780.3 567.122 779.282 569.585 777.469 571.405C775.656 573.224 773.196 574.251 770.627 574.26ZM442.357 93.84C439.897 93.8445 437.539 94.8239 435.799 96.5636C434.059 98.3033 433.08 100.662 433.075 103.122V564.553C433.08 567.013 434.059 569.372 435.799 571.111C437.539 572.851 439.897 573.831 442.357 573.835H770.627C773.088 573.831 775.446 572.851 777.186 571.111C778.926 569.372 779.905 567.013 779.909 564.553V103.122C779.905 100.662 778.926 98.3033 777.186 96.5636C775.446 94.8239 773.088 93.8445 770.627 93.84H442.357Z" fill="#5CADF8" fill-opacity="0.3"/>
<path d="M850 650.08H0V650.505H850V650.08Z" fill="#5CADF8" fill-opacity="0.3"/>
<path d="M728.926 239.445V249.645C735.338 250.197 741.415 252.748 746.3 256.938L753.559 249.679C746.722 243.611 738.05 240.008 728.926 239.445Z" fill="#5CADF8" fill-opacity="0.3"/>
<path d="M723.962 310.948C716.697 310.358 709.878 307.205 704.724 302.051C699.57 296.897 696.416 290.078 695.827 282.812H685.627C686.21 292.804 690.432 302.236 697.495 309.327C704.558 316.418 713.973 320.678 723.962 321.3V310.948Z" fill="#5CADF8" fill-opacity="0.5"/>
<path d="M695.827 277.866C696.419 270.6 699.573 263.781 704.726 258.624C709.879 253.468 716.696 250.31 723.962 249.714V239.514C713.974 240.126 704.555 244.371 697.481 251.448C690.407 258.525 686.167 267.946 685.559 277.934L695.827 277.866Z" fill="#5CADF8" fill-opacity="0.3"/>
<path d="M757.112 253.18L749.853 260.439C753.518 264.745 755.924 269.979 756.804 275.565C757.684 281.15 757.004 286.871 754.839 292.095C752.675 297.318 749.11 301.843 744.537 305.17C739.965 308.496 734.562 310.495 728.926 310.946V321.146C736.584 320.679 743.957 318.069 750.205 313.614C756.452 309.159 761.322 303.039 764.26 295.951C767.198 288.863 768.086 281.092 766.822 273.524C765.558 265.956 762.193 258.895 757.112 253.146V253.18Z" fill="#F2F7FA"/>
<path d="M417.979 261.375H425.527C426.767 261.375 427.956 261.868 428.833 262.744C429.71 263.621 430.202 264.81 430.202 266.05V485.503H413.287V266.05C413.287 265.435 413.409 264.825 413.645 264.257C413.881 263.689 414.226 263.173 414.662 262.738C415.098 262.304 415.616 261.96 416.185 261.726C416.754 261.492 417.364 261.373 417.979 261.375Z" fill="#5CADF8" fill-opacity="0.5"/>
<path d="M423.181 261.375H418.523C417.137 261.375 415.808 261.924 414.827 262.903C413.845 263.881 413.292 265.208 413.287 266.594V485.503H417.945V266.594C417.95 265.208 418.503 263.881 419.485 262.903C420.466 261.924 421.795 261.375 423.181 261.375Z" fill="#5CADF8" fill-opacity="0.3"/>
<path d="M435.115 471.035H408.493V650.504H435.115V471.035Z" fill="#5CADF8" fill-opacity="0.3"/>
<path d="M399.024 643.246H444.584C446.307 643.246 447.958 643.93 449.176 645.148C450.394 646.366 451.078 648.018 451.078 649.74V650.488H392.53V649.74C392.53 648.018 393.214 646.366 394.432 645.148C395.65 643.93 397.302 643.246 399.024 643.246Z" fill="#5CADF8" fill-opacity="0.5"/>
<path d="M673.914 561.849H716.839C720.539 561.845 724.087 560.373 726.703 557.756C729.32 555.14 730.792 551.592 730.796 547.892V485.128C730.796 484.452 730.527 483.803 730.049 483.325C729.571 482.847 728.922 482.578 728.246 482.578C727.57 482.578 726.921 482.847 726.443 483.325C725.965 483.803 725.696 484.452 725.696 485.128V547.892C725.696 550.241 724.763 552.494 723.102 554.155C721.441 555.816 719.188 556.749 716.839 556.749H673.914V561.849Z" fill="#F2F7FA"/>
<path d="M661.64 621.996V563.55L658.24 562.479C656.359 561.886 654.715 560.71 653.547 559.121C652.38 557.531 651.749 555.611 651.746 553.639H684.131C684.131 555.612 683.501 557.533 682.333 559.123C681.165 560.713 679.52 561.889 677.637 562.479L674.237 563.55V621.996L701.114 634.1V639.2L667.913 627.589L634.712 639.2V634.1L661.64 621.996Z" fill="#F2F7FA"/>
<path d="M625.6 556.75H710.277C711.485 556.75 712.681 556.512 713.796 556.05C714.912 555.588 715.926 554.91 716.78 554.056C717.634 553.202 718.312 552.188 718.774 551.073C719.236 549.957 719.474 548.761 719.474 547.553C719.469 545.117 718.498 542.782 716.774 541.061C715.05 539.34 712.713 538.373 710.277 538.373H625.6C623.165 538.373 620.83 539.34 619.109 541.062C617.387 542.783 616.42 545.118 616.42 547.553C616.418 548.76 616.653 549.956 617.114 551.071C617.574 552.187 618.25 553.201 619.103 554.055C619.955 554.91 620.968 555.587 622.083 556.05C623.198 556.512 624.393 556.75 625.6 556.75Z" fill="#5CADF8" fill-opacity="0.3"/>
<path d="M725.186 507.212L729.759 441.864C729.927 439.439 729.127 437.046 727.533 435.211C725.94 433.375 723.683 432.246 721.259 432.072C718.831 431.899 716.434 432.697 714.594 434.291C712.755 435.885 711.624 438.144 711.45 440.572L706.877 505.92C706.708 508.347 707.508 510.741 709.101 512.58C710.694 514.418 712.951 515.551 715.377 515.729C717.806 515.897 720.203 515.095 722.042 513.499C723.881 511.902 725.011 509.641 725.186 507.212Z" fill="#5CADF8" fill-opacity="0.3"/>
<path d="M695.3 642.787C695.3 643.937 695.641 645.061 696.28 646.017C696.919 646.973 697.827 647.718 698.889 648.158C699.951 648.598 701.12 648.713 702.248 648.489C703.376 648.265 704.412 647.711 705.225 646.898C706.038 646.085 706.592 645.049 706.816 643.921C707.04 642.793 706.925 641.624 706.485 640.562C706.045 639.499 705.3 638.591 704.344 637.953C703.388 637.314 702.264 636.973 701.114 636.973C700.35 636.973 699.594 637.123 698.889 637.415C698.184 637.707 697.543 638.136 697.003 638.676C696.463 639.215 696.035 639.856 695.742 640.562C695.45 641.267 695.3 642.023 695.3 642.787Z" fill="#F2F7FA"/>
<path d="M628.898 642.787C628.898 643.937 629.239 645.061 629.878 646.017C630.517 646.973 631.425 647.718 632.487 648.158C633.55 648.598 634.719 648.713 635.847 648.489C636.975 648.265 638.01 647.711 638.824 646.898C639.637 646.085 640.19 645.049 640.415 643.921C640.639 642.793 640.524 641.624 640.084 640.562C639.644 639.499 638.899 638.591 637.943 637.953C636.986 637.314 635.862 636.973 634.712 636.973C633.17 636.973 631.692 637.585 630.601 638.676C629.511 639.766 628.898 641.245 628.898 642.787Z" fill="#F2F7FA"/>
<path d="M170.629 561.849H127.704C124.001 561.849 120.45 560.379 117.829 557.762C115.209 555.145 113.735 551.595 113.73 547.892V485.128C113.73 484.452 113.999 483.803 114.477 483.325C114.956 482.847 115.604 482.578 116.28 482.578C116.957 482.578 117.605 482.847 118.084 483.325C118.562 483.803 118.83 484.452 118.83 485.128V547.892C118.835 550.243 119.772 552.495 121.436 554.156C123.099 555.817 125.354 556.749 127.704 556.749H170.629V561.849Z" fill="#F2F7FA"/>
<path d="M182.903 621.996V563.55L186.303 562.479C188.182 561.886 189.824 560.709 190.988 559.119C192.153 557.529 192.781 555.609 192.78 553.639H160.48C160.483 555.611 161.114 557.531 162.281 559.121C163.449 560.71 165.092 561.886 166.974 562.479L170.374 563.55V621.996L143.429 634.1V639.2L176.63 627.589L209.831 639.2V634.1L182.903 621.996Z" fill="#F2F7FA"/>
<path d="M218.96 556.75H134.3C131.864 556.746 129.529 555.775 127.808 554.05C126.087 552.326 125.12 549.989 125.12 547.553C125.12 545.118 126.087 542.783 127.809 541.062C129.53 539.34 131.865 538.373 134.3 538.373H218.96C221.396 538.373 223.733 539.34 225.457 541.061C227.182 542.782 228.153 545.117 228.157 547.553C228.157 549.992 227.188 552.332 225.463 554.056C223.739 555.781 221.399 556.75 218.96 556.75Z" fill="#5CADF8" fill-opacity="0.3"/>
<path d="M119.34 507.212L114.767 441.864C114.599 439.439 115.399 437.046 116.993 435.211C118.586 433.375 120.843 432.246 123.267 432.072C125.695 431.899 128.092 432.697 129.931 434.291C131.771 435.885 132.902 438.144 133.076 440.572L137.7 505.937C137.869 508.364 137.069 510.758 135.476 512.597C133.883 514.435 131.626 515.568 129.2 515.746C127.992 515.836 126.777 515.687 125.627 515.306C124.476 514.926 123.412 514.322 122.496 513.529C121.58 512.736 120.829 511.769 120.288 510.685C119.746 509.601 119.424 508.421 119.34 507.212Z" fill="#5CADF8" fill-opacity="0.3"/>
<path d="M149.226 642.787C149.226 643.937 148.884 645.062 148.245 646.019C147.605 646.975 146.696 647.72 145.633 648.16C144.569 648.599 143.399 648.713 142.271 648.488C141.143 648.262 140.107 647.707 139.295 646.892C138.482 646.077 137.93 645.039 137.707 643.91C137.485 642.782 137.602 641.612 138.045 640.55C138.488 639.488 139.236 638.581 140.194 637.944C141.152 637.307 142.278 636.969 143.429 636.973C144.191 636.973 144.947 637.123 145.651 637.416C146.355 637.708 146.995 638.136 147.534 638.677C148.072 639.217 148.499 639.858 148.789 640.563C149.08 641.268 149.228 642.024 149.226 642.787Z" fill="#F2F7FA"/>
<path d="M215.628 642.787C215.628 643.937 215.287 645.062 214.647 646.019C214.007 646.975 213.098 647.72 212.035 648.16C210.972 648.599 209.802 648.713 208.673 648.488C207.545 648.262 206.509 647.707 205.697 646.892C204.884 646.077 204.332 645.039 204.11 643.91C203.887 642.782 204.005 641.612 204.447 640.55C204.89 639.488 205.638 638.581 206.596 637.944C207.555 637.307 208.68 636.969 209.831 636.973C210.594 636.973 211.349 637.123 212.053 637.416C212.758 637.708 213.398 638.136 213.936 638.677C214.475 639.217 214.901 639.858 215.192 640.563C215.482 641.268 215.63 642.024 215.628 642.787Z" fill="#F2F7FA"/>
<path d="M353.056 650.505H319.906L316.506 587.639H356.456L353.056 650.505Z" fill="#5CADF8" fill-opacity="0.3"/>
<path d="M327.556 650.505H313.956V647.7L327.556 646V650.505Z" fill="#F2F7FA"/>
<path d="M321.555 582.539H351.407C352.76 582.539 354.057 583.076 355.013 584.033C355.97 584.989 356.507 586.286 356.507 587.639H316.489C316.489 586.286 317.027 584.989 317.983 584.033C318.939 583.076 320.237 582.539 321.589 582.539H321.555Z" fill="#F2F7FA"/>
<path d="M285.056 487.457H231.982V481.099L285.056 477.699V487.457Z" fill="#F2F7FA"/>
<path d="M363.528 493.936H206.567V515.662H363.528V493.936Z" fill="#5CADF8" fill-opacity="0.3"/>
<path d="M396.066 487.457H174.59V500.411H396.066V487.457Z" fill="#5CADF8" fill-opacity="0.3"/>
<path d="M375.496 650.505H385.492L368.186 500.412H356.456L375.496 650.505Z" fill="#5CADF8" fill-opacity="0.5"/>
<path d="M214.2 500.412H202.47L185.147 650.505H195.16L214.2 500.412Z" fill="#5CADF8" fill-opacity="0.5"/>
<path d="M338.793 484.229C334.259 461.721 329.726 439.201 325.193 416.671C324.547 413.458 319.617 414.818 320.263 418.031L333.2 482.359H305.15C304.473 482.359 303.825 482.627 303.346 483.105C302.868 483.584 302.6 484.232 302.6 484.909C302.6 485.585 302.868 486.233 303.346 486.712C303.825 487.19 304.473 487.459 305.15 487.459H336.311C336.703 487.456 337.09 487.363 337.442 487.188C337.793 487.013 338.1 486.76 338.34 486.449C338.579 486.138 338.744 485.776 338.823 485.391C338.901 485.006 338.891 484.609 338.793 484.229Z" fill="#F2F7FA"/>
<path d="M307.037 466.105L315.775 341.189C319.002 343.492 321.583 346.585 323.271 350.172C324.959 353.76 325.697 357.72 325.414 361.674L319.447 447.099C319.181 451.065 317.9 454.897 315.727 458.225C313.554 461.553 310.561 464.267 307.037 466.105Z" fill="#5CADF8" fill-opacity="0.3"/>
<path d="M375.122 451.146H360.91C358.188 451.146 355.98 453.354 355.98 456.076V482.528C355.98 485.251 358.188 487.458 360.91 487.458H375.122C377.845 487.458 380.052 485.251 380.052 482.528V456.076C380.052 453.354 377.845 451.146 375.122 451.146Z" fill="#5CADF8" fill-opacity="0.5"/>
<path d="M365.5 437.631C361.743 437.631 358.7 438.566 358.7 439.705C358.7 440.844 361.76 439.297 365.5 439.297C365.982 439.271 366.464 439.271 366.945 439.297V447.525H369.087V439.62C371.025 439.977 372.317 440.368 372.317 439.62C372.3 438.6 369.257 437.631 365.5 437.631Z" fill="#F2F7FA"/>
<path d="M371.858 444.941H364.191V452.608H371.858V444.941Z" fill="#5CADF8" fill-opacity="0.3"/>
<path d="M481.015 515.678H637.976V493.952H481.015V515.678Z" fill="#5CADF8" fill-opacity="0.3"/>
<path d="M448.477 500.43H669.953V487.476H448.477V500.43Z" fill="#5CADF8" fill-opacity="0.3"/>
<path d="M469.047 650.505H459.034L476.34 500.412H488.07L469.047 650.505Z" fill="#5CADF8" fill-opacity="0.5"/>
<path d="M630.343 500.412H642.073L659.379 650.505H649.366L630.343 500.412Z" fill="#5CADF8" fill-opacity="0.5"/>
<path d="M592.671 487.457H645.728V481.099L592.671 477.699V487.457Z" fill="#132043"/>
<path opacity="0.6" d="M592.671 487.457H645.728V481.099L592.671 477.699V487.457Z" fill="#F2F7FA"/>
<path d="M485.928 373.439V487.458H493.306L495.006 477.343C495.315 475.553 496.247 473.929 497.637 472.759C499.028 471.589 500.788 470.949 502.605 470.951H571.2C573.017 470.949 574.776 471.589 576.167 472.759C577.558 473.929 578.49 475.553 578.799 477.343L580.499 487.458H587.86V373.439H485.928Z" fill="#5CADF8" fill-opacity="0.3"/>
<path d="M518.925 484.229C523.458 461.721 527.992 439.201 532.525 416.671C533.171 413.458 538.084 414.818 537.438 418.031L524.484 482.359H552.5C553.176 482.359 553.825 482.627 554.303 483.105C554.781 483.584 555.05 484.232 555.05 484.909C555.05 485.585 554.781 486.233 554.303 486.712C553.825 487.19 553.176 487.459 552.5 487.459H521.373C520.983 487.45 520.6 487.354 520.253 487.177C519.906 487 519.603 486.747 519.367 486.436C519.132 486.125 518.97 485.765 518.893 485.383C518.817 485.001 518.827 484.606 518.925 484.229Z" fill="#F2F7FA"/>
<path d="M550.664 466.105L541.926 341.189C538.702 343.496 536.124 346.589 534.436 350.176C532.749 353.762 532.009 357.721 532.287 361.674L538.254 447.099C538.523 451.065 539.805 454.894 541.978 458.222C544.151 461.55 547.142 464.264 550.664 466.105Z" fill="#F2F7FA"/>
<path d="M417.333 127.244H407.082V180.76L417.333 180.726V127.244Z" fill="#5CADF8" fill-opacity="0.3"/>
<path d="M387.107 138.346V180.693C387.483 180.761 387.864 180.795 388.246 180.795H397.358V138.295L387.107 138.346Z" fill="#5CADF8" fill-opacity="0.5"/>
<path d="M448.562 121.686V180.676H457.708C458.078 180.668 458.447 180.634 458.813 180.574V121.686H448.562Z" fill="#5CADF8" fill-opacity="0.3"/>
<path d="M438.328 149.26H428.077V180.71L438.328 180.693V149.26Z" fill="#F2F7FA"/>
<path d="M122.094 239.07V279.683L137.156 317.406C145.532 313.59 152.381 307.069 156.604 298.891C160.827 290.712 162.179 281.352 160.441 272.313C158.703 263.274 153.977 255.082 147.022 249.053C140.067 243.024 131.288 239.508 122.094 239.07Z" fill="#F2F7FA"/>
<path d="M118.541 279.173V239.07C108.328 239.555 98.694 243.952 91.6357 251.349C84.5775 258.746 80.6368 268.575 80.6309 278.799C80.6309 279.298 80.6309 279.791 80.6309 280.278C80.6309 280.788 80.6309 281.281 80.6309 281.791C80.6255 288.135 82.1378 294.387 85.0415 300.027C87.9453 305.667 92.1561 310.53 97.3226 314.21C102.489 317.891 108.461 320.282 114.74 321.184C121.019 322.086 127.422 321.473 133.416 319.395L118.541 279.173Z" fill="#5CADF8" fill-opacity="0.3"/>
<path d="M381.956 692.104L413.78 660.28L445.604 692.104C446.427 692.921 447.539 693.38 448.698 693.379C449.564 693.381 450.41 693.126 451.131 692.646C451.851 692.166 452.412 691.483 452.744 690.684C453.075 689.884 453.162 689.004 452.992 688.155C452.823 687.307 452.405 686.527 451.792 685.916L413.78 647.904L375.7 685.916C375.087 686.527 374.67 687.307 374.5 688.155C374.331 689.004 374.418 689.884 374.749 690.684C375.081 691.483 375.642 692.166 376.362 692.646C377.082 693.126 377.929 693.381 378.794 693.379C379.38 693.389 379.961 693.281 380.504 693.062C381.047 692.843 381.541 692.517 381.956 692.104Z" fill="#5CADF8"/>
<path opacity="0.2" d="M414.851 648.992H412.709L402.951 658.733V670.65H403.41L413.78 660.28L424.15 670.65H424.609V658.733L414.851 648.992Z" fill="#132043"/>
<path d="M407.27 549.729H420.292V688.279C420.292 689.631 419.754 690.928 418.798 691.885C417.841 692.841 416.544 693.379 415.192 693.379H412.37C411.017 693.379 409.72 692.841 408.763 691.885C407.807 690.928 407.27 689.631 407.27 688.279V549.729Z" fill="#5CADF8"/>
<path opacity="0.2" d="M420.292 549.729H407.27V600.78H420.292V549.729Z" fill="#132043"/>
<path d="M645.558 582.472H182.002C177.426 582.463 173.039 580.64 169.805 577.402C166.57 574.165 164.752 569.777 164.747 565.2V205.582H662.847V565.2C662.843 569.782 661.019 574.176 657.777 577.414C654.535 580.653 650.14 582.472 645.558 582.472ZM170.578 211.413V565.2C170.578 568.231 171.781 571.139 173.923 573.284C176.065 575.429 178.971 576.637 182.002 576.641H645.558C648.589 576.637 651.495 575.429 653.637 573.284C655.779 571.139 656.982 568.231 656.982 565.2V211.413H170.578Z" fill="#5CADF8"/>
<g opacity="0.8">
<path d="M645.558 582.472H182.002C177.426 582.463 173.039 580.64 169.805 577.402C166.57 574.165 164.752 569.777 164.747 565.2V205.582H662.847V565.2C662.843 569.782 661.019 574.176 657.777 577.414C654.535 580.653 650.14 582.472 645.558 582.472ZM170.578 211.413V565.2C170.578 568.231 171.781 571.139 173.923 573.284C176.065 575.429 178.971 576.637 182.002 576.641H645.558C648.589 576.637 651.495 575.429 653.637 573.284C655.779 571.139 656.982 568.231 656.982 565.2V211.413H170.578Z" fill="#F2F7FA"/>
</g>
<path d="M170.578 211.412V565.199C170.578 568.231 171.781 571.138 173.923 573.283C176.065 575.428 178.971 576.636 182.002 576.64H645.558C648.59 576.636 651.495 575.428 653.637 573.283C655.779 571.138 656.982 568.231 656.982 565.199V211.412H170.578Z" fill="#F2F7FA"/>
<path d="M674.067 201.943H153.493V215.067H674.067V201.943Z" fill="#5CADF8"/>
<path opacity="0.5" d="M674.067 201.943H153.493V208.505H674.067V201.943Z" fill="#F2F7FA"/>
<path d="M216.818 513.91C216.818 513.91 506.923 508.504 596.275 255.68L593.198 514.488L216.818 513.91Z" fill="#5CADF8"/>
<g opacity="0.7">
<path d="M216.818 513.91C216.818 513.91 506.923 508.504 596.275 255.68L593.198 514.488L216.818 513.91Z" fill="#F2F7FA"/>
</g>
<path d="M219.062 515.372C218.612 515.383 218.175 515.215 217.848 514.904C217.521 514.593 217.331 514.165 217.32 513.715C217.309 513.264 217.477 512.827 217.788 512.5C218.099 512.173 218.526 511.983 218.977 511.972C233.053 511.309 307.224 506.226 387.09 471.41C489.09 426.904 558.654 354.11 593.674 255C593.85 254.612 594.164 254.305 594.555 254.137C594.946 253.97 595.385 253.955 595.787 254.096C596.188 254.237 596.522 254.523 596.723 254.898C596.923 255.273 596.976 255.71 596.87 256.122C577.575 310.777 547.281 358.122 506.77 396.933C473.824 428.536 433.993 454.631 388.382 474.521C307.972 509.592 233.24 514.709 219.079 515.321L219.062 515.372Z" fill="#5CADF8"/>
<path d="M234.192 531.285C233.741 531.285 233.309 531.106 232.99 530.787C232.671 530.468 232.492 530.036 232.492 529.585V515.458C232.492 515.007 232.671 514.575 232.99 514.256C233.309 513.937 233.741 513.758 234.192 513.758C234.643 513.758 235.075 513.937 235.394 514.256C235.713 514.575 235.892 515.007 235.892 515.458V529.585C235.892 530.036 235.713 530.468 235.394 530.787C235.075 531.106 234.643 531.285 234.192 531.285Z" fill="#5CADF8"/>
<path d="M293.199 531.353C292.748 531.353 292.316 531.174 291.997 530.855C291.678 530.536 291.499 530.104 291.499 529.653V515.526C291.499 515.075 291.678 514.643 291.997 514.324C292.316 514.005 292.748 513.826 293.199 513.826C293.65 513.826 294.082 514.005 294.401 514.324C294.72 514.643 294.899 515.075 294.899 515.526V529.653C294.899 530.104 294.72 530.536 294.401 530.855C294.082 531.174 293.65 531.353 293.199 531.353Z" fill="#5CADF8"/>
<path d="M352.206 531.404C351.755 531.404 351.323 531.225 351.004 530.906C350.685 530.587 350.506 530.155 350.506 529.704V515.577C350.506 515.126 350.685 514.694 351.004 514.375C351.323 514.056 351.755 513.877 352.206 513.877C352.657 513.877 353.089 514.056 353.408 514.375C353.727 514.694 353.906 515.126 353.906 515.577V529.704C353.906 530.155 353.727 530.587 353.408 530.906C353.089 531.225 352.657 531.404 352.206 531.404Z" fill="#5CADF8"/>
<path d="M411.214 531.455C410.763 531.455 410.33 531.276 410.012 530.957C409.693 530.638 409.514 530.206 409.514 529.755V515.628C409.514 515.177 409.693 514.744 410.012 514.426C410.33 514.107 410.763 513.928 411.214 513.928C411.665 513.928 412.097 514.107 412.416 514.426C412.735 514.744 412.914 515.177 412.914 515.628V529.755C412.914 530.206 412.735 530.638 412.416 530.957C412.097 531.276 411.665 531.455 411.214 531.455Z" fill="#5CADF8"/>
<path d="M470.221 531.506C469.77 531.506 469.337 531.327 469.018 531.008C468.7 530.689 468.521 530.257 468.521 529.806V515.696C468.521 515.245 468.7 514.813 469.018 514.494C469.337 514.175 469.77 513.996 470.221 513.996C470.671 513.996 471.104 514.175 471.423 514.494C471.741 514.813 471.921 515.245 471.921 515.696V529.806C471.921 530.257 471.741 530.689 471.423 531.008C471.104 531.327 470.671 531.506 470.221 531.506Z" fill="#5CADF8"/>
<path d="M529.21 531.574C528.759 531.574 528.327 531.395 528.008 531.076C527.689 530.757 527.51 530.325 527.51 529.874V515.747C527.51 515.296 527.689 514.864 528.008 514.545C528.327 514.226 528.759 514.047 529.21 514.047C529.661 514.047 530.093 514.226 530.412 514.545C530.731 514.864 530.91 515.296 530.91 515.747V529.874C530.91 530.325 530.731 530.757 530.412 531.076C530.093 531.395 529.661 531.574 529.21 531.574Z" fill="#5CADF8"/>
<path d="M588.2 531.625C587.749 531.625 587.317 531.446 586.998 531.127C586.679 530.808 586.5 530.376 586.5 529.925V515.798C586.5 515.347 586.679 514.914 586.998 514.596C587.317 514.277 587.749 514.098 588.2 514.098C588.651 514.098 589.083 514.277 589.402 514.596C589.721 514.914 589.9 515.347 589.9 515.798V529.925C589.9 530.376 589.721 530.808 589.402 531.127C589.083 531.446 588.651 531.625 588.2 531.625Z" fill="#5CADF8"/>
<path d="M217.6 271.406H209.984C209.533 271.406 209.101 271.227 208.782 270.908C208.463 270.589 208.284 270.157 208.284 269.706C208.284 269.255 208.463 268.823 208.782 268.504C209.101 268.185 209.533 268.006 209.984 268.006H217.6C218.051 268.006 218.483 268.185 218.802 268.504C219.121 268.823 219.3 269.255 219.3 269.706C219.3 270.157 219.121 270.589 218.802 270.908C218.483 271.227 218.051 271.406 217.6 271.406Z" fill="#5CADF8"/>
<path d="M217.6 308.414H209.984C209.533 308.414 209.101 308.235 208.782 307.916C208.463 307.597 208.284 307.165 208.284 306.714C208.284 306.263 208.463 305.83 208.782 305.512C209.101 305.193 209.533 305.014 209.984 305.014H217.6C218.051 305.014 218.483 305.193 218.802 305.512C219.121 305.83 219.3 306.263 219.3 306.714C219.3 307.165 219.121 307.597 218.802 307.916C218.483 308.235 218.051 308.414 217.6 308.414Z" fill="#5CADF8"/>
<path d="M217.6 345.441H209.984C209.533 345.441 209.101 345.262 208.782 344.943C208.463 344.624 208.284 344.192 208.284 343.741C208.284 343.29 208.463 342.858 208.782 342.539C209.101 342.22 209.533 342.041 209.984 342.041H217.6C218.051 342.041 218.483 342.22 218.802 342.539C219.121 342.858 219.3 343.29 219.3 343.741C219.3 344.192 219.121 344.624 218.802 344.943C218.483 345.262 218.051 345.441 217.6 345.441Z" fill="#5CADF8"/>
<path d="M217.6 382.5H209.984C209.533 382.5 209.101 382.321 208.782 382.002C208.463 381.683 208.284 381.25 208.284 380.8C208.284 380.349 208.463 379.916 208.782 379.598C209.101 379.279 209.533 379.1 209.984 379.1H217.6C218.051 379.1 218.483 379.279 218.802 379.598C219.121 379.916 219.3 380.349 219.3 380.8C219.3 381.25 219.121 381.683 218.802 382.002C218.483 382.321 218.051 382.5 217.6 382.5Z" fill="#5CADF8"/>
<path d="M217.6 419.476H209.984C209.533 419.476 209.101 419.297 208.782 418.978C208.463 418.659 208.284 418.227 208.284 417.776C208.284 417.325 208.463 416.893 208.782 416.574C209.101 416.255 209.533 416.076 209.984 416.076H217.6C218.051 416.076 218.483 416.255 218.802 416.574C219.121 416.893 219.3 417.325 219.3 417.776C219.3 418.227 219.121 418.659 218.802 418.978C218.483 419.297 218.051 419.476 217.6 419.476Z" fill="#5CADF8"/>
<path d="M217.6 456.502H209.984C209.533 456.502 209.101 456.322 208.782 456.004C208.463 455.685 208.284 455.252 208.284 454.802C208.284 454.351 208.463 453.918 208.782 453.6C209.101 453.281 209.533 453.102 209.984 453.102H217.6C218.051 453.102 218.483 453.281 218.802 453.6C219.121 453.918 219.3 454.351 219.3 454.802C219.3 455.252 219.121 455.685 218.802 456.004C218.483 456.322 218.051 456.502 217.6 456.502Z" fill="#5CADF8"/>
<path d="M217.6 493.509H209.984C209.533 493.509 209.101 493.33 208.782 493.011C208.463 492.693 208.284 492.26 208.284 491.809C208.284 491.359 208.463 490.926 208.782 490.607C209.101 490.289 209.533 490.109 209.984 490.109H217.6C218.051 490.109 218.483 490.289 218.802 490.607C219.121 490.926 219.3 491.359 219.3 491.809C219.3 492.26 219.121 492.693 218.802 493.011C218.483 493.33 218.051 493.509 217.6 493.509Z" fill="#5CADF8"/>
<path d="M607.58 517.157H219.062C218.611 517.157 218.179 516.978 217.86 516.659C217.541 516.34 217.362 515.908 217.362 515.457V255.085C217.362 254.634 217.541 254.201 217.86 253.883C218.179 253.564 218.611 253.385 219.062 253.385C219.513 253.385 219.946 253.564 220.264 253.883C220.583 254.201 220.762 254.634 220.762 255.085V513.757H607.58C608.031 513.757 608.464 513.936 608.782 514.255C609.101 514.573 609.28 515.006 609.28 515.457C609.28 515.908 609.101 516.34 608.782 516.659C608.464 516.978 608.031 517.157 607.58 517.157Z" fill="#5CADF8"/>
<path d="M323 261.646V265.981L309.4 296.496H302.6L315.69 267.12H301.988V273.053H295.97V261.646H323Z" fill="#5CADF8"/>
<path d="M326.061 279.072C326.061 267.614 332.334 261.137 340.613 261.137C348.892 261.137 355.199 267.614 355.199 279.072C355.199 290.53 348.926 296.99 340.613 296.99C332.3 296.99 326.061 290.53 326.061 279.072ZM348.671 279.072C348.671 270.657 345.39 266.764 340.613 266.764C335.836 266.764 332.589 270.657 332.589 279.072C332.589 287.487 335.87 291.363 340.613 291.363C345.356 291.363 348.671 287.487 348.671 279.072Z" fill="#5CADF8"/>
<path d="M359.04 270.862C359.04 265.133 362.44 261.291 367.353 261.291C372.266 261.291 375.717 265.082 375.717 270.862C375.717 276.642 372.317 280.416 367.353 280.416C362.389 280.416 359.04 276.591 359.04 270.862ZM371.637 270.862C371.637 266.969 370.039 264.776 367.353 264.776C364.667 264.776 363.069 267.02 363.069 270.862C363.069 274.704 364.769 276.931 367.353 276.931C369.937 276.931 371.637 274.738 371.637 270.862ZM388.263 261.648H393.142L369.342 296.498H364.463L388.263 261.648ZM381.888 287.301C381.888 281.572 385.288 277.747 390.201 277.747C395.114 277.747 398.565 281.572 398.565 287.301C398.565 293.03 395.165 296.872 390.201 296.872C385.237 296.872 381.888 293.013 381.888 287.301ZM394.485 287.301C394.485 283.476 392.785 281.232 390.201 281.232C387.617 281.232 385.9 283.408 385.9 287.301C385.9 291.194 387.6 293.387 390.184 293.387C392.768 293.387 394.485 291.126 394.485 287.301Z" fill="#5CADF8"/>
<path d="M387.992 305.848H309.35V311.322H387.992V305.848Z" fill="#5CADF8"/>
<path d="M387.991 319.021H296.174V324.495H387.991V319.021Z" fill="#5CADF8"/>
<path d="M387.991 331.857H296.174V337.331H387.991V331.857Z" fill="#5CADF8"/>
<path d="M367.71 344.691H296.174V350.165H367.71V344.691Z" fill="#5CADF8"/>
<path d="M675.427 548.98C675.427 548.98 687.803 575.636 688.568 632.96H696.983C696.983 632.96 690.013 546.566 673.999 540.378C665.448 537.199 675.427 548.98 675.427 548.98Z" fill="#5CADF8"/>
<g opacity="0.1">
<path d="M675.427 548.98C675.427 548.98 687.803 575.636 688.568 632.96H696.983C696.983 632.96 690.013 546.566 673.999 540.378C665.448 537.199 675.427 548.98 675.427 548.98Z" fill="#132043"/>
</g>
<path d="M670.497 540.429C672.197 535.329 673.064 535.415 676.107 532.066C671.585 531.318 666.094 529.023 658.699 531.964C652.205 535.024 649.774 542.163 651.032 549.133C651.085 549.387 651.082 549.65 651.023 549.902C650.964 550.154 650.851 550.391 650.692 550.596C650.511 550.819 650.28 550.997 650.018 551.114C649.756 551.231 649.469 551.284 649.182 551.269C648.895 551.254 648.616 551.171 648.367 551.028C648.119 550.884 647.907 550.684 647.751 550.443C646.332 548.137 645.515 545.513 645.376 542.81C645.236 540.106 645.778 537.411 646.952 534.973C641.155 536.809 634.474 539.835 630.904 544.765C626.994 550.154 628.303 562.852 632.876 568.156C633.065 568.383 633.169 568.669 633.169 568.964C633.169 569.259 633.065 569.545 632.876 569.772C632.77 569.914 632.636 570.033 632.481 570.119C632.327 570.206 632.156 570.259 631.979 570.275C631.802 570.292 631.624 570.27 631.457 570.212C631.289 570.155 631.135 570.063 631.006 569.942C628.696 568.154 626.81 565.878 625.481 563.278C624.087 560.252 623.458 556.682 625.243 553.877C617.865 554.999 611.643 570.604 612.391 570.434C613.428 575.959 618.409 580.992 620.891 583.219C621.318 583.602 621.598 584.122 621.685 584.689C621.772 585.256 621.659 585.836 621.367 586.33C621.184 586.638 620.936 586.903 620.641 587.107C620.346 587.311 620.01 587.45 619.657 587.513C619.304 587.576 618.941 587.562 618.594 587.472C618.246 587.382 617.922 587.219 617.644 586.993C614.992 584.834 610.98 581.161 609.858 578.033C607.41 579.733 607.495 583.899 607.546 586.891C607.682 596.445 614.873 603.364 620.534 610.368C627.865 613.056 635.802 613.644 643.45 612.068C649.008 610.762 653.845 607.357 656.948 602.565V602.446C651.746 601.307 646 599.828 640.696 598.621C640.203 598.514 639.768 598.225 639.479 597.813C639.189 597.4 639.065 596.893 639.132 596.394C639.212 595.878 639.488 595.412 639.903 595.096C640.319 594.779 640.84 594.635 641.359 594.694C648.346 595.527 653.769 597.107 660.943 597.855C664.819 594.456 671.041 581.774 669.902 582.114C663.765 581.74 653.344 582.454 647.547 579.904C647.146 579.709 646.838 579.365 646.689 578.945C646.539 578.525 646.561 578.064 646.748 577.659C646.914 577.365 647.165 577.126 647.468 576.975C647.771 576.823 648.112 576.766 648.448 576.809C656.291 578.362 664.345 578.535 672.248 577.32C676.923 570.979 680.289 566.082 680.833 561.356L662.32 559.656C661.928 559.633 661.558 559.465 661.283 559.184C661.008 558.904 660.848 558.531 660.833 558.138C660.818 557.745 660.95 557.361 661.203 557.061C661.456 556.76 661.812 556.564 662.201 556.511H662.303C669.851 555.627 678.708 558.33 684.76 554.029C684.76 554.029 692.767 546.261 690.081 541.722C683.774 545.207 669.8 542.724 670.497 540.429Z" fill="#5CADF8"/>
<path d="M701.845 551.378C696.277 561.248 692.161 571.868 689.622 582.913C681.122 621.18 681.343 632.468 681.343 632.468L674.237 632.706C674.237 632.706 688.075 559.436 699.482 549.134C710.889 538.832 701.845 551.378 701.845 551.378Z" fill="#5CADF8"/>
<path opacity="0.4" d="M701.845 551.378C696.277 561.248 692.161 571.868 689.622 582.913C681.122 621.18 681.343 632.468 681.343 632.468L674.237 632.706C674.237 632.706 688.075 559.436 699.482 549.134C710.889 538.832 701.845 551.378 701.845 551.378Z" fill="#132043"/>
<path d="M704.496 543.371C701.929 541.348 701.504 541.671 698.784 540.872C700.994 539.172 703.238 536.486 708.185 535.772C710.249 535.628 712.303 536.158 714.039 537.284C715.775 538.409 717.097 540.068 717.807 542.011C717.87 542.153 717.961 542.281 718.075 542.386C718.189 542.492 718.324 542.572 718.47 542.623C718.631 542.687 718.804 542.713 718.976 542.699C719.148 542.685 719.315 542.631 719.463 542.543C719.611 542.454 719.736 542.332 719.829 542.187C719.923 542.041 719.981 541.876 720 541.705C720.012 540.119 719.602 538.558 718.814 537.181C718.025 535.804 716.886 534.661 715.512 533.868C719.235 533.103 723.825 532.661 727.412 534.038C731.254 535.568 734.586 542.181 733.804 546.125C733.771 546.293 733.802 546.468 733.89 546.615C733.977 546.763 734.117 546.873 734.28 546.924C734.484 547.003 734.709 546.999 734.91 546.913C735.11 546.827 735.268 546.666 735.351 546.465C736.039 544.935 736.342 543.26 736.235 541.586C736.205 540.622 735.924 539.682 735.42 538.86C734.916 538.037 734.207 537.36 733.362 536.894C737.714 535.33 746.078 541.195 745.602 541.331C746.809 544.357 745.704 548.267 745.058 550.069C744.944 550.394 744.958 550.751 745.097 551.066C745.236 551.382 745.489 551.633 745.806 551.769C745.999 551.872 746.211 551.935 746.429 551.953C746.647 551.971 746.866 551.944 747.074 551.874C747.281 551.804 747.471 551.692 747.634 551.545C747.796 551.399 747.926 551.22 748.016 551.021C749.018 548.953 749.491 546.669 749.393 544.374C751.263 544.51 752.538 546.567 753.473 548.046C756.431 552.789 754.748 558.246 753.915 563.346C750.684 566.841 746.575 569.406 742.015 570.775C738.579 571.729 734.917 571.452 731.662 569.993C734.11 567.936 736.762 565.539 739.261 563.414C739.374 563.322 739.467 563.209 739.534 563.08C739.601 562.951 739.641 562.811 739.653 562.666C739.664 562.521 739.645 562.376 739.599 562.238C739.552 562.101 739.478 561.975 739.38 561.867C739.163 561.643 738.876 561.501 738.567 561.464C738.257 561.427 737.944 561.497 737.68 561.663C734.161 564.094 731.73 566.44 728.075 568.871C724.862 568.31 717.467 563.89 718.198 563.771C721.411 561.816 727.276 559.164 729.622 556.223C729.702 556.121 729.758 556.002 729.786 555.876C729.815 555.75 729.816 555.619 729.788 555.492C729.761 555.366 729.706 555.247 729.627 555.144C729.548 555.041 729.448 554.957 729.333 554.897C729.147 554.788 728.932 554.737 728.717 554.753C728.501 554.768 728.296 554.848 728.126 554.982C724.297 558.046 719.99 560.458 715.376 562.122C710.82 560.422 707.437 558.909 705.635 556.75L715.104 550.528C715.208 550.467 715.299 550.385 715.371 550.289C715.444 550.192 715.496 550.083 715.526 549.966C715.556 549.849 715.563 549.727 715.546 549.608C715.529 549.489 715.489 549.374 715.427 549.27C715.366 549.166 715.285 549.075 715.188 549.003C715.092 548.931 714.982 548.878 714.865 548.848C714.748 548.818 714.627 548.811 714.508 548.828C714.388 548.845 714.273 548.886 714.169 548.947C709.783 550.647 705.839 554.591 701.198 554.217C701.198 554.217 694.398 552.721 694.398 549.712C698.818 549.559 705.635 544.272 704.496 543.371Z" fill="#5CADF8"/>
<path opacity="0.2" d="M704.496 543.371C701.929 541.348 701.504 541.671 698.784 540.872C700.994 539.172 703.238 536.486 708.185 535.772C710.249 535.628 712.303 536.158 714.039 537.284C715.775 538.409 717.097 540.068 717.807 542.011C717.87 542.153 717.961 542.281 718.075 542.386C718.189 542.492 718.324 542.572 718.47 542.623C718.631 542.687 718.804 542.713 718.976 542.699C719.148 542.685 719.315 542.631 719.463 542.543C719.611 542.454 719.736 542.332 719.829 542.187C719.923 542.041 719.981 541.876 720 541.705C720.012 540.119 719.602 538.558 718.814 537.181C718.025 535.804 716.886 534.661 715.512 533.868C719.235 533.103 723.825 532.661 727.412 534.038C731.254 535.568 734.586 542.181 733.804 546.125C733.771 546.293 733.802 546.468 733.89 546.615C733.977 546.763 734.117 546.873 734.28 546.924C734.484 547.003 734.709 546.999 734.91 546.913C735.11 546.827 735.268 546.666 735.351 546.465C736.039 544.935 736.342 543.26 736.235 541.586C736.205 540.622 735.924 539.682 735.42 538.86C734.916 538.037 734.207 537.36 733.362 536.894C737.714 535.33 746.078 541.195 745.602 541.331C746.809 544.357 745.704 548.267 745.058 550.069C744.944 550.394 744.958 550.751 745.097 551.066C745.236 551.382 745.489 551.633 745.806 551.769C745.999 551.872 746.211 551.935 746.429 551.953C746.647 551.971 746.866 551.944 747.074 551.874C747.281 551.804 747.471 551.692 747.634 551.545C747.796 551.399 747.926 551.22 748.016 551.021C749.018 548.953 749.491 546.669 749.393 544.374C751.263 544.51 752.538 546.567 753.473 548.046C756.431 552.789 754.748 558.246 753.915 563.346C750.684 566.841 746.575 569.406 742.015 570.775C738.579 571.729 734.917 571.452 731.662 569.993C734.11 567.936 736.762 565.539 739.261 563.414C739.374 563.322 739.467 563.209 739.534 563.08C739.601 562.951 739.641 562.811 739.653 562.666C739.664 562.521 739.645 562.376 739.599 562.238C739.552 562.101 739.478 561.975 739.38 561.867C739.163 561.643 738.876 561.501 738.567 561.464C738.257 561.427 737.944 561.497 737.68 561.663C734.161 564.094 731.73 566.44 728.075 568.871C724.862 568.31 717.467 563.89 718.198 563.771C721.411 561.816 727.276 559.164 729.622 556.223C729.702 556.121 729.758 556.002 729.786 555.876C729.815 555.75 729.816 555.619 729.788 555.492C729.761 555.366 729.706 555.247 729.627 555.144C729.548 555.041 729.448 554.957 729.333 554.897C729.147 554.788 728.932 554.737 728.717 554.753C728.501 554.768 728.296 554.848 728.126 554.982C724.297 558.046 719.99 560.458 715.376 562.122C710.82 560.422 707.437 558.909 705.635 556.75L715.104 550.528C715.208 550.467 715.299 550.385 715.371 550.289C715.444 550.192 715.496 550.083 715.526 549.966C715.556 549.849 715.563 549.727 715.546 549.608C715.529 549.489 715.489 549.374 715.427 549.27C715.366 549.166 715.285 549.075 715.188 549.003C715.092 548.931 714.982 548.878 714.865 548.848C714.748 548.818 714.627 548.811 714.508 548.828C714.388 548.845 714.273 548.886 714.169 548.947C709.783 550.647 705.839 554.591 701.198 554.217C701.198 554.217 694.398 552.721 694.398 549.712C698.818 549.559 705.635 544.272 704.496 543.371Z" fill="#F2F7FA"/>
<path d="M695.742 564.263C695.742 564.263 681.87 584.476 678.13 603.499C674.39 622.522 674.084 630.699 674.084 630.699L665.669 630.784C665.669 630.784 680.561 572.984 693.362 561.56C706.163 550.136 695.742 564.263 695.742 564.263Z" fill="#5CADF8"/>
<path opacity="0.2" d="M695.742 564.263C695.742 564.263 681.87 584.476 678.13 603.499C674.39 622.522 674.084 630.699 674.084 630.699L665.669 630.784C665.669 630.784 680.561 572.984 693.362 561.56C706.163 550.136 695.742 564.263 695.742 564.263Z" fill="#132043"/>
<path d="M696.286 562.479C695.436 558.093 694.722 558.093 692.597 555.016C696.371 554.897 701.097 553.605 706.86 556.818C711.841 560.031 713.065 566.1 711.263 571.71C711.196 571.915 711.173 572.132 711.197 572.346C711.22 572.56 711.289 572.766 711.399 572.951C711.522 573.153 711.692 573.322 711.893 573.445C712.095 573.568 712.323 573.642 712.558 573.66C712.794 573.678 713.03 573.641 713.248 573.55C713.466 573.459 713.66 573.318 713.813 573.138C715.224 571.408 716.176 569.35 716.583 567.155C716.99 564.959 716.838 562.697 716.142 560.575C720.681 562.717 725.832 565.896 728.212 570.316C730.83 575.161 728.382 585.412 724.064 589.254C723.88 589.412 723.757 589.63 723.716 589.869C723.676 590.108 723.721 590.354 723.843 590.563C723.914 590.689 724.011 590.798 724.126 590.884C724.241 590.971 724.373 591.032 724.514 591.066C724.654 591.099 724.799 591.104 724.941 591.079C725.083 591.054 725.219 591 725.339 590.92C727.427 589.707 729.221 588.047 730.592 586.058C731.415 584.982 731.958 583.718 732.172 582.379C732.386 581.041 732.263 579.671 731.816 578.391C737.715 580.091 741.149 593.555 740.537 593.334C739.075 597.737 734.468 601.324 732.173 602.871C731.782 603.14 731.497 603.536 731.366 603.992C731.236 604.448 731.269 604.936 731.459 605.37C731.576 605.642 731.75 605.886 731.97 606.084C732.189 606.283 732.449 606.431 732.732 606.52C733.014 606.609 733.313 606.636 733.606 606.599C733.9 606.562 734.182 606.462 734.434 606.305C736.831 604.826 740.52 602.259 741.778 599.811C743.597 601.511 743.07 604.911 742.713 607.308C741.557 615.111 734.927 620.007 729.538 625.124C723.243 626.522 716.682 626.128 710.6 623.985C706.193 622.321 702.603 619.012 700.587 614.754V614.635C704.973 614.261 709.835 613.7 714.306 613.275C714.724 613.229 715.109 613.03 715.389 612.716C715.668 612.402 715.821 611.996 715.819 611.575C715.819 611.124 715.64 610.692 715.321 610.373C715.002 610.054 714.57 609.875 714.119 609.875C708.305 609.79 703.698 610.504 697.748 610.334C694.943 607.087 691.22 596.071 692.104 596.462C697.204 596.836 705.704 598.553 710.651 597.091C710.822 597.039 710.981 596.953 711.118 596.84C711.256 596.726 711.37 596.586 711.454 596.428C711.537 596.27 711.589 596.097 711.606 595.919C711.623 595.742 711.604 595.562 711.552 595.391C711.457 595.12 711.276 594.887 711.036 594.728C710.797 594.568 710.513 594.491 710.226 594.507C703.633 594.923 697.019 594.192 690.676 592.348C687.531 586.653 685.304 582.284 685.372 578.34L700.672 578.901C700.983 578.903 701.285 578.794 701.523 578.594C701.762 578.393 701.921 578.115 701.972 577.808C702.023 577.5 701.963 577.185 701.803 576.918C701.642 576.651 701.392 576.45 701.097 576.351C695.011 574.787 687.497 576.062 682.992 571.863C682.992 571.863 677.263 564.655 679.966 561.221C684.896 564.944 696.677 564.4 696.286 562.479Z" fill="#5CADF8"/>
<path opacity="0.1" d="M696.286 562.479C695.436 558.093 694.722 558.093 692.597 555.016C696.371 554.897 701.097 553.605 706.86 556.818C711.841 560.031 713.065 566.1 711.263 571.71C711.196 571.915 711.173 572.132 711.197 572.346C711.22 572.56 711.289 572.766 711.399 572.951C711.522 573.153 711.692 573.322 711.893 573.445C712.095 573.568 712.323 573.642 712.558 573.66C712.794 573.678 713.03 573.641 713.248 573.55C713.466 573.459 713.66 573.318 713.813 573.138C715.224 571.408 716.176 569.35 716.583 567.155C716.99 564.959 716.838 562.697 716.142 560.575C720.681 562.717 725.832 565.896 728.212 570.316C730.83 575.161 728.382 585.412 724.064 589.254C723.88 589.412 723.757 589.63 723.716 589.869C723.676 590.108 723.721 590.354 723.843 590.563C723.914 590.689 724.011 590.798 724.126 590.884C724.241 590.971 724.373 591.032 724.514 591.066C724.654 591.099 724.799 591.104 724.941 591.079C725.083 591.054 725.219 591 725.339 590.92C727.427 589.707 729.221 588.047 730.592 586.058C731.415 584.982 731.958 583.718 732.172 582.379C732.386 581.041 732.263 579.671 731.816 578.391C737.715 580.091 741.149 593.555 740.537 593.334C739.075 597.737 734.468 601.324 732.173 602.871C731.782 603.14 731.497 603.536 731.366 603.992C731.236 604.448 731.269 604.936 731.459 605.37C731.576 605.642 731.75 605.886 731.97 606.084C732.189 606.283 732.449 606.431 732.732 606.52C733.014 606.609 733.313 606.636 733.606 606.599C733.9 606.562 734.182 606.462 734.434 606.305C736.831 604.826 740.52 602.259 741.778 599.811C743.597 601.511 743.07 604.911 742.713 607.308C741.557 615.111 734.927 620.007 729.538 625.124C723.243 626.522 716.682 626.128 710.6 623.985C706.193 622.321 702.603 619.012 700.587 614.754V614.635C704.973 614.261 709.835 613.7 714.306 613.275C714.724 613.229 715.109 613.03 715.389 612.716C715.668 612.402 715.821 611.996 715.819 611.575C715.819 611.124 715.64 610.692 715.321 610.373C715.002 610.054 714.57 609.875 714.119 609.875C708.305 609.79 703.698 610.504 697.748 610.334C694.943 607.087 691.22 596.071 692.104 596.462C697.204 596.836 705.704 598.553 710.651 597.091C710.822 597.039 710.981 596.953 711.118 596.84C711.256 596.726 711.37 596.586 711.454 596.428C711.537 596.27 711.589 596.097 711.606 595.919C711.623 595.742 711.604 595.562 711.552 595.391C711.457 595.12 711.276 594.887 711.036 594.728C710.797 594.568 710.513 594.491 710.226 594.507C703.633 594.923 697.019 594.192 690.676 592.348C687.531 586.653 685.304 582.284 685.372 578.34L700.672 578.901C700.983 578.903 701.285 578.794 701.523 578.594C701.762 578.393 701.921 578.115 701.972 577.808C702.023 577.5 701.963 577.185 701.803 576.918C701.642 576.651 701.392 576.45 701.097 576.351C695.011 574.787 687.497 576.062 682.992 571.863C682.992 571.863 677.263 564.655 679.966 561.221C684.896 564.944 696.677 564.4 696.286 562.479Z" fill="#132043"/>
<path d="M668.372 693.599H697.544C702.564 693.597 707.435 691.885 711.353 688.746C715.271 685.607 718.003 681.227 719.1 676.327L730.099 627.146H635.8L646.799 676.327C647.896 681.23 650.631 685.612 654.553 688.751C658.474 691.891 663.348 693.601 668.372 693.599Z" fill="#5CADF8"/>
<g opacity="0.3">
<path d="M668.372 693.599H697.544C702.564 693.597 707.435 691.885 711.353 688.746C715.271 685.607 718.003 681.227 719.1 676.327L730.099 627.146H635.8L646.799 676.327C647.896 681.23 650.631 685.612 654.553 688.751C658.474 691.891 663.348 693.601 668.372 693.599Z" fill="#132043"/>
</g>
<path opacity="0.1" d="M670.497 540.429C672.197 535.329 673.064 535.415 676.107 532.066C671.585 531.318 666.094 529.023 658.699 531.964C652.205 535.024 649.774 542.163 651.032 549.133C651.085 549.387 651.082 549.65 651.023 549.902C650.964 550.154 650.851 550.391 650.692 550.596C650.511 550.819 650.28 550.997 650.018 551.114C649.756 551.231 649.469 551.284 649.182 551.269C648.895 551.254 648.616 551.171 648.367 551.028C648.119 550.884 647.907 550.684 647.751 550.443C646.332 548.137 645.515 545.513 645.376 542.81C645.236 540.106 645.778 537.411 646.952 534.973C641.155 536.809 634.474 539.835 630.904 544.765C626.994 550.154 628.303 562.852 632.876 568.156C633.065 568.383 633.169 568.669 633.169 568.964C633.169 569.259 633.065 569.545 632.876 569.772C632.77 569.914 632.636 570.033 632.481 570.119C632.327 570.206 632.156 570.259 631.979 570.275C631.802 570.292 631.624 570.27 631.457 570.212C631.289 570.155 631.135 570.063 631.006 569.942C628.696 568.154 626.81 565.878 625.481 563.278C624.087 560.252 623.458 556.682 625.243 553.877C617.865 554.999 611.643 570.604 612.391 570.434C613.428 575.959 618.409 580.992 620.891 583.219C621.318 583.602 621.598 584.122 621.685 584.689C621.772 585.256 621.659 585.836 621.367 586.33C621.184 586.638 620.936 586.903 620.641 587.107C620.346 587.311 620.01 587.45 619.657 587.513C619.304 587.576 618.941 587.562 618.594 587.472C618.246 587.382 617.922 587.219 617.644 586.993C614.992 584.834 610.98 581.161 609.858 578.033C607.41 579.733 607.495 583.899 607.546 586.891C607.682 596.445 614.873 603.364 620.534 610.368C627.865 613.056 635.802 613.644 643.45 612.068C649.008 610.762 653.845 607.357 656.948 602.565V602.446C651.746 601.307 646 599.828 640.696 598.621C640.203 598.514 639.768 598.225 639.479 597.813C639.189 597.4 639.065 596.893 639.132 596.394C639.212 595.878 639.488 595.412 639.903 595.096C640.319 594.779 640.84 594.635 641.359 594.694C648.346 595.527 653.769 597.107 660.943 597.855C664.819 594.456 671.041 581.774 669.902 582.114C663.765 581.74 653.344 582.454 647.547 579.904C647.146 579.709 646.838 579.365 646.689 578.945C646.539 578.525 646.561 578.064 646.748 577.659C646.914 577.365 647.165 577.126 647.468 576.975C647.771 576.823 648.112 576.766 648.448 576.809C656.291 578.362 664.345 578.535 672.248 577.32C676.923 570.979 680.289 566.082 680.833 561.356L662.32 559.656C661.928 559.633 661.558 559.465 661.283 559.184C661.008 558.904 660.848 558.531 660.833 558.138C660.818 557.745 660.95 557.361 661.203 557.061C661.456 556.76 661.812 556.564 662.201 556.511H662.303C669.851 555.627 678.708 558.33 684.76 554.029C684.76 554.029 692.767 546.261 690.081 541.722C683.774 545.207 669.8 542.724 670.497 540.429Z" fill="#F2F7FA"/>
<path d="M619.072 388.535C618.205 389.181 617.576 389.657 616.811 390.235C616.046 390.813 615.366 391.238 614.635 391.731C613.173 392.7 611.677 393.601 610.164 394.502C607.103 396.301 603.941 397.924 600.695 399.364C597.307 400.881 593.798 402.115 590.206 403.053C588.284 403.566 586.331 403.952 584.358 404.209C583.355 404.328 582.301 404.379 581.23 404.464H579.53H578.476L577.354 404.379C574.751 404.067 572.23 403.266 569.925 402.016C568.048 401.013 566.277 399.823 564.638 398.463C561.78 396.061 559.182 393.366 556.886 390.422C552.619 384.941 549.029 378.965 546.193 372.623L554.03 367.744C558.118 372.362 562.46 376.749 567.035 380.885C569.112 382.781 571.353 384.488 573.733 385.985C574.693 386.583 575.713 387.078 576.776 387.464C577.386 387.707 578.041 387.817 578.697 387.787H578.867L579.666 387.668C580.227 387.566 580.788 387.464 581.366 387.294C582.539 387.005 583.763 386.631 585.004 386.206C587.637 385.227 590.208 384.092 592.705 382.806C595.289 381.463 597.89 380.035 600.44 378.471C601.681 377.757 602.973 376.89 604.248 376.091L606.118 374.867L611.218 371.467L619.072 388.535Z" fill="#5CADF8"/>
<path opacity="0.2" d="M619.072 388.535C618.205 389.181 617.576 389.657 616.811 390.235C616.046 390.813 615.366 391.238 614.635 391.731C613.173 392.7 611.677 393.601 610.164 394.502C607.103 396.301 603.941 397.924 600.695 399.364C597.307 400.881 593.798 402.115 590.206 403.053C588.284 403.566 586.331 403.952 584.358 404.209C583.355 404.328 582.301 404.379 581.23 404.464H579.53H578.476L577.354 404.379C574.751 404.067 572.23 403.266 569.925 402.016C568.048 401.013 566.277 399.823 564.638 398.463C561.78 396.061 559.182 393.366 556.886 390.422C552.619 384.941 549.029 378.965 546.193 372.623L554.03 367.744C558.118 372.362 562.46 376.749 567.035 380.885C569.112 382.781 571.353 384.488 573.733 385.985C574.693 386.583 575.713 387.078 576.776 387.464C577.386 387.707 578.041 387.817 578.697 387.787H578.867L579.666 387.668C580.227 387.566 580.788 387.464 581.366 387.294C582.539 387.005 583.763 386.631 585.004 386.206C587.637 385.227 590.208 384.092 592.705 382.806C595.289 381.463 597.89 380.035 600.44 378.471C601.681 377.757 602.973 376.89 604.248 376.091L606.118 374.867L611.218 371.467L619.072 388.535Z" fill="#132043"/>
<path d="M549.746 373.285L542.402 369.766L548.318 360.637C548.318 360.637 554.523 365.737 555.118 370.956L549.746 373.285Z" fill="#FF8B7B"/>
<path d="M534.446 363.833L539.41 358.189L548.335 360.654L542.402 369.766L534.446 363.833Z" fill="#FF8B7B"/>
<path d="M689.554 697.135C690.339 695.259 691.443 693.533 692.818 692.035C692.818 692.035 698.343 682.532 694.076 666.025L701.675 659.344C703.747 659.359 705.733 660.175 707.217 661.622C708.186 662.686 709.072 663.823 709.869 665.022C712.657 669.799 718.76 680.764 718.76 680.764L717.621 681.393C715.615 678.147 713.424 675.02 711.059 672.026C708.56 669.221 708.611 674.219 709.529 678.452C710.447 682.685 707.727 689.383 700.485 693.752C692.104 698.988 688.381 700.637 689.554 697.135Z" fill="#132043"/>
<path d="M703.477 674.525C703.477 677.33 705.364 682.277 702.865 685.966C701.754 687.67 700.274 689.103 698.535 690.159C696.797 691.215 694.843 691.868 692.818 692.069C692.818 692.069 697.136 684.674 695.198 671.584C694.917 669.725 694.543 667.881 694.076 666.059C694.076 666.059 700.672 661.18 703.698 660.5L705.296 664.852C705.035 667.738 704.465 670.588 703.596 673.352C703.481 673.732 703.441 674.13 703.477 674.525Z" fill="#FF8B7B"/>
<path d="M705.296 664.853C705.035 667.739 704.465 670.588 703.596 673.353C703.463 673.729 703.406 674.128 703.426 674.526L697.204 677.161L695.147 671.585L687.837 651.712L698.734 647.088L703.647 660.501L705.296 664.853Z" fill="#FF8B7B"/>
<path opacity="0.2" d="M698.786 647.104L687.889 651.711L691.612 661.809H691.748C693.76 661.903 695.77 661.565 697.641 660.818C699.512 660.07 701.201 658.929 702.594 657.474L698.786 647.104Z" fill="#132043"/>
<path d="M606.56 690.913C608.229 689.816 610.067 689 612 688.499C612 688.499 621.775 683.484 627.062 667.266L637.262 665.209C638.154 665.646 638.947 666.26 639.593 667.014C640.239 667.768 640.725 668.647 641.019 669.595C641.104 671.375 641.07 673.158 640.917 674.933C640.747 680.492 639.829 694.891 639.829 694.891H638.52C638.614 690.467 638.478 686.041 638.112 681.631C637.517 677.925 634.865 682.141 633.352 686.221C631.839 690.301 625.957 694.432 617.474 694.245C607.631 693.82 603.636 693.191 606.56 690.913Z" fill="#132043"/>
<path d="M635.681 673.2C634.531 675.199 633.041 676.982 631.278 678.47C629.238 680.017 628.558 686.63 623.798 688.67C621.942 689.52 619.921 689.945 617.88 689.916C615.839 689.886 613.83 689.403 612 688.5C612 688.5 619.361 684.726 624.784 673.098C626.026 670.404 626.383 667.387 625.804 664.479L622.2 645.592L634.576 643.977L637.704 666.519C637.917 668.923 637.193 671.317 635.681 673.2Z" fill="#FF8B7B"/>
<path opacity="0.2" d="M621.146 638.434L624.002 655.026L625.073 655.281C626.913 655.699 628.821 655.717 630.668 655.336C632.515 654.955 634.26 654.183 635.783 653.071L633.675 637.006L621.146 638.434Z" fill="#132043"/>
<path d="M662.423 379.61C662.415 379.138 662.381 378.667 662.321 378.199C662.097 376.182 661.477 374.229 660.496 372.453C659.515 370.677 658.193 369.112 656.605 367.848C655.017 366.584 653.196 365.646 651.244 365.089C649.293 364.531 647.251 364.365 645.236 364.599H644.964C643.927 364.718 642.856 364.871 641.802 365.024C634.607 365.968 627.489 367.422 620.501 369.376C619.311 369.699 618.087 370.09 616.897 370.481C615.282 371.025 613.667 371.586 612.137 372.181C608.639 373.466 605.724 375.972 603.928 379.236C602.132 382.5 601.575 386.304 602.362 389.946C604.767 403.222 609.061 416.086 615.112 428.145C617.118 432.123 617.424 440.181 619.124 445.145L665.976 435.659V435.744C663.766 420.988 662.814 395.947 662.423 379.61Z" fill="#132043"/>
<path d="M619.157 445.042C619.157 445.042 616.556 504.882 614.227 550.816C612.391 587.349 619.514 649.756 619.514 649.756C625.98 651.404 632.834 650.452 638.605 647.104C638.877 650.045 641.427 589.644 638.605 554.862C651.763 503.981 671.058 455.888 656.812 437.154L619.157 445.042Z" fill="#132043"/>
<path opacity="0.3" d="M641.444 480.164L660.773 469.199C658.155 487.338 651.066 510.135 644.181 534.462C638.809 515.099 636.31 494.92 641.444 480.164Z" fill="#132043"/>
<path d="M627.556 446.505C627.556 446.505 640.374 492.864 648.636 537.285C652.223 569.211 686.58 656.489 686.58 656.489L692.496 655.367C695.303 654.824 697.904 653.512 700.01 651.576L701.999 649.757C701.999 649.757 691.799 586.5 681.956 561.867C682.194 510.391 683.146 454.92 663.8 437.648L627.556 446.505Z" fill="#132043"/>
<path d="M642.821 364.666C642.821 364.666 637.908 419.457 650.335 490.653C670.735 489.429 683.332 483.768 683.332 483.768C683.332 483.768 679.15 445.161 666.57 425.475C664.411 411.671 666.349 382.227 665.057 371.483C664.823 369.6 663.973 367.846 662.638 366.497C661.304 365.147 659.56 364.276 657.679 364.02C652.718 363.663 647.732 363.88 642.821 364.666Z" fill="#5CADF8"/>
<path opacity="0.1" d="M642.821 364.666C642.821 364.666 637.908 419.457 650.335 490.653C670.735 489.429 683.332 483.768 683.332 483.768C683.332 483.768 679.15 445.161 666.57 425.475C664.411 411.671 666.349 382.227 665.057 371.483C664.823 369.6 663.973 367.846 662.638 366.497C661.304 365.147 659.56 364.276 657.679 364.02C652.718 363.663 647.732 363.88 642.821 364.666Z" fill="#132043"/>
<path d="M620.313 368.627C620.313 368.627 617.644 394.586 634.338 491.996C627.725 495.498 613.598 494.291 613.598 494.291C613.598 494.291 613.836 461.855 616.046 435.947C617.117 423.35 607.988 421.48 602.837 407.557C600.304 391.441 601.834 378.334 604.112 376.481C607.801 373.506 613.853 369.443 620.313 368.627Z" fill="#5CADF8"/>
<path opacity="0.1" d="M620.313 368.627C620.313 368.627 617.644 394.586 634.338 491.996C627.725 495.498 613.598 494.291 613.598 494.291C613.598 494.291 613.836 461.855 616.046 435.947C617.117 423.35 607.988 421.48 602.837 407.557C600.304 391.441 601.834 378.334 604.112 376.481C607.801 373.506 613.853 369.443 620.313 368.627Z" fill="#132043"/>
<path opacity="0.7" d="M642.6 364.513C642.6 364.513 641.648 386.936 641.988 403.341C643.688 391.73 647.802 380.629 647.683 376.957C646.499 376.328 645.362 375.612 644.283 374.815C645.592 373.745 647.018 372.827 648.533 372.078C648.736 369.329 648.776 366.57 648.652 363.816C645.371 364.105 642.6 364.513 642.6 364.513Z" fill="#F2F7FA"/>
<path opacity="0.7" d="M620.501 368.424C620.164 381.396 620.732 394.376 622.201 407.269C618.58 396.916 613.905 387.022 614.33 383.129C616.217 381.548 617.883 379.729 617.883 379.729C616.681 378.979 615.358 378.444 613.973 378.148C614.024 375.253 614.245 372.364 614.636 369.495C617.849 368.9 620.501 368.424 620.501 368.424Z" fill="#F2F7FA"/>
<path d="M659.6 372.503C658.066 375.212 657.635 378.408 658.398 381.426C659.161 384.444 661.06 387.051 663.697 388.704H663.799C667.199 390.795 670.429 392.903 673.591 395.062C676.753 397.221 679.847 399.465 682.652 401.692C683.97 402.758 685.229 403.893 686.426 405.092C686.905 405.556 687.359 406.044 687.786 406.554C688.143 406.962 688.313 407.268 688.262 407.064L687.82 404.735C687.99 406.208 687.686 407.696 686.953 408.985C685.896 411.218 684.596 413.327 683.077 415.275C681.414 417.499 679.626 419.628 677.722 421.65C675.835 423.758 673.71 425.866 671.772 427.821L676.787 435.556C679.732 434.195 682.573 432.622 685.287 430.847C688.072 429.059 690.715 427.058 693.192 424.863C695.92 422.496 698.331 419.788 700.366 416.805C701.681 414.825 702.733 412.682 703.494 410.43C704.216 408.272 704.561 406.007 704.514 403.732V402.797L704.106 401.59C703.601 400.107 702.928 398.687 702.1 397.357C701.236 395.984 700.27 394.677 699.21 393.447C697.665 391.644 696.007 389.941 694.246 388.347C691.045 385.404 687.68 382.646 684.165 380.085C680.765 377.552 677.28 375.189 673.778 372.928C670.276 370.667 666.774 368.525 663 366.451L659.6 372.503Z" fill="#5CADF8"/>
<path d="M677.637 428.043C673.937 426.782 669.908 426.89 666.281 428.349L670.565 441.32L677.246 435.523L677.637 428.043Z" fill="#FF8B7B"/>
<path d="M670.565 441.319L666.281 428.348L659.702 435.607L665.244 444.566L670.565 441.319Z" fill="#FF8B7B"/>
<path d="M614.159 363.375C611.463 347.385 613.723 330.953 620.636 316.285C628.728 299.285 662.507 311.185 657.407 339.711C654.398 356.524 647.207 353.668 659.906 364.905C667.233 371.365 645.626 373.048 643.841 368.73C643.841 368.73 636.123 369.461 630.768 365.126C630.7 365.126 615.519 372.181 614.159 363.375Z" fill="#132043"/>
<path d="M627.301 380.307C634.662 381.497 639.388 372.079 641.241 367.421H640.408C638.3 361.556 639.796 352.019 641.173 346.375L627.573 357.068C628.406 361.42 628.542 365.942 624.513 368.356C623.697 368.492 622.813 368.662 622.082 368.832C621.181 373.15 621.096 379.321 627.301 380.307Z" fill="#FF8B7B"/>
<path opacity="0.2" d="M635.325 350.762L627.301 357.086C627.572 358.351 627.742 359.636 627.811 360.928C630.769 360.622 635.308 358.174 635.75 355.097C635.864 353.638 635.72 352.17 635.325 350.762Z" fill="#132043"/>
<path d="M648.397 336.346C644.062 347.056 642.464 351.646 635.069 355.454C623.934 361.132 611.711 353.482 612.748 341.684C613.683 331.059 620.602 315.317 632.757 314.484C635.44 314.3 638.125 314.805 640.558 315.951C642.991 317.096 645.09 318.845 646.657 321.03C648.224 323.215 649.206 325.765 649.511 328.436C649.816 331.108 649.432 333.813 648.397 336.295V336.346Z" fill="#FF8B7B"/>
<path d="M622.88 332.912C621.404 334.684 619.688 336.24 617.78 337.536C618.116 338.021 618.556 338.425 619.068 338.719C619.579 339.013 620.15 339.19 620.738 339.236L622.88 332.912Z" fill="#D85B5B"/>
<path d="M634.101 331.348C634.178 331.374 634.261 331.374 634.339 331.348C634.394 331.326 634.445 331.293 634.487 331.25C634.53 331.208 634.563 331.157 634.585 331.102C634.608 331.046 634.618 330.986 634.617 330.927C634.615 330.867 634.602 330.808 634.577 330.753C634.248 329.958 633.734 329.253 633.078 328.697C632.421 328.141 631.641 327.75 630.803 327.557C630.681 327.537 630.556 327.566 630.456 327.637C630.355 327.709 630.287 327.818 630.267 327.94C630.247 328.061 630.276 328.186 630.347 328.287C630.419 328.387 630.528 328.455 630.65 328.475C631.34 328.643 631.98 328.973 632.518 329.437C633.056 329.901 633.476 330.486 633.744 331.144C633.783 331.204 633.836 331.253 633.898 331.288C633.96 331.324 634.029 331.344 634.101 331.348Z" fill="#132043"/>
<path d="M617.389 324.7C617.468 324.718 617.549 324.718 617.627 324.7C618.277 324.421 618.983 324.298 619.689 324.343C620.395 324.387 621.081 324.597 621.69 324.955C621.739 324.991 621.795 325.018 621.854 325.032C621.913 325.046 621.975 325.049 622.035 325.04C622.095 325.03 622.152 325.009 622.204 324.977C622.256 324.945 622.301 324.903 622.336 324.853C622.403 324.751 622.428 324.627 622.406 324.506C622.384 324.386 622.316 324.279 622.217 324.207C621.481 323.759 620.647 323.492 619.787 323.43C618.927 323.368 618.064 323.512 617.27 323.85C617.214 323.869 617.162 323.899 617.117 323.939C617.072 323.979 617.036 324.027 617.011 324.081C616.985 324.135 616.971 324.194 616.969 324.253C616.967 324.313 616.977 324.373 616.998 324.428C617.029 324.51 617.082 324.582 617.151 324.636C617.22 324.69 617.302 324.724 617.389 324.734V324.7Z" fill="#132043"/>
<path d="M629.663 333.54C629.374 334.424 628.66 334.985 628.065 334.798C627.47 334.611 627.249 333.727 627.572 332.826C627.895 331.925 628.575 331.381 629.153 331.568C629.731 331.755 629.969 332.639 629.663 333.54Z" fill="#132043"/>
<path d="M619.599 330.174C619.293 331.058 618.579 331.619 618.001 331.432C617.423 331.245 617.185 330.361 617.491 329.477C617.797 328.593 618.494 328.015 619.072 328.219C619.65 328.423 619.905 329.273 619.599 330.174Z" fill="#132043"/>
<path d="M619.311 328.338L617.39 327.012C617.39 327.012 617.934 329.052 619.311 328.338Z" fill="#132043"/>
<path d="M629.391 331.705L627.453 330.379C627.453 330.379 627.997 332.419 629.391 331.705Z" fill="#132043"/>
<path d="M627.385 345.593C627.967 345.435 628.535 345.23 629.085 344.981C629.161 344.945 629.221 344.881 629.252 344.802C629.284 344.723 629.285 344.636 629.255 344.556C629.218 344.48 629.154 344.421 629.075 344.389C628.997 344.358 628.909 344.357 628.83 344.386C627.582 344.973 626.213 345.258 624.834 345.22C623.456 345.181 622.105 344.82 620.891 344.165C620.855 344.141 620.815 344.124 620.773 344.115C620.73 344.106 620.687 344.105 620.644 344.113C620.601 344.121 620.561 344.137 620.524 344.161C620.488 344.184 620.457 344.215 620.432 344.25C620.408 344.286 620.39 344.326 620.381 344.369C620.372 344.411 620.372 344.455 620.38 344.498C620.387 344.54 620.404 344.581 620.427 344.617C620.451 344.654 620.481 344.685 620.517 344.71C622.608 345.874 625.067 346.19 627.385 345.593Z" fill="#132043"/>
<path d="M628.847 317.9C628.847 317.9 625.124 320.977 627.334 323.952C629.544 326.927 636.395 325.652 637.704 331.347C639.013 337.042 636.531 341.445 640.662 343.247C644.793 345.049 648.754 339.405 648.754 339.405C648.754 339.405 655.265 326.145 647.224 319.005C639.183 311.865 629.833 309.366 624.24 312.596C618.647 315.826 615.519 318.155 617.593 319.549C619.667 320.943 622.897 321.946 624.291 320.552C625.521 319.247 627.104 318.325 628.847 317.9Z" fill="#132043"/>
<path d="M648.091 345.848C646.792 347.648 644.839 348.869 642.651 349.248C639.727 349.724 638.588 347.038 639.659 344.437C640.628 342.125 643.314 339.048 646.136 339.745C647.109 340.022 647.932 340.673 648.426 341.556C648.919 342.438 649.044 343.48 648.771 344.454C648.651 344.963 648.419 345.44 648.091 345.848Z" fill="#FF8B7B"/>
<path d="M620.331 369.019C621.352 368.399 622.538 368.102 623.731 368.169C623.731 368.169 620.433 378.641 627.947 379.236C635.461 379.831 641.122 366.979 641.122 366.979C641.637 366.784 642.19 366.71 642.739 366.763C643.287 366.816 643.816 366.995 644.284 367.285C644.284 367.285 638.334 382.177 627.981 381.752C617.628 381.327 620.331 369.019 620.331 369.019Z" fill="#5CADF8"/>
<path opacity="0.7" d="M620.331 369.019C621.352 368.399 622.538 368.102 623.731 368.169C623.731 368.169 620.433 378.641 627.947 379.236C635.461 379.831 641.122 366.979 641.122 366.979C641.637 366.784 642.19 366.71 642.739 366.763C643.287 366.816 643.816 366.995 644.284 367.285C644.284 367.285 638.334 382.177 627.981 381.752C617.628 381.327 620.331 369.019 620.331 369.019Z" fill="#F2F7FA"/>
<path d="M641.903 336.786L634.678 333.981C634.44 331.941 631.856 330.938 630.751 330.496C629.646 330.054 626.841 328.983 625.311 330.581L622.795 329.612C622.795 327.402 619.99 326.314 618.834 325.872C617.678 325.43 613.938 323.968 612.748 327.028C612.386 328.295 612.509 329.651 613.094 330.831C613.678 332.012 614.683 332.931 615.91 333.41C617.137 333.888 618.499 333.891 619.729 333.419C620.958 332.946 621.967 332.031 622.557 330.853C622.621 330.693 622.672 330.529 622.71 330.36L624.869 331.193C624.782 331.34 624.708 331.493 624.648 331.652C624.286 332.919 624.409 334.275 624.994 335.455C625.578 336.636 626.583 337.555 627.81 338.034C629.037 338.512 630.399 338.515 631.629 338.043C632.858 337.57 633.867 336.655 634.457 335.477C634.554 335.243 634.623 334.997 634.661 334.746L641.631 337.466C642.591 337.833 643.391 338.525 643.892 339.421L644.521 339.064C643.936 338.027 643.012 337.223 641.903 336.786ZM616.199 332.672C615.119 332.321 614.221 331.559 613.699 330.55C613.177 329.542 613.074 328.368 613.411 327.283C614.057 325.583 615.604 325.396 618.511 326.552C621.418 327.708 622.472 328.915 621.826 330.581C621.343 331.592 620.485 332.375 619.436 332.765C618.386 333.155 617.225 333.122 616.199 332.672ZM628.099 337.296C627.021 336.949 626.123 336.19 625.6 335.184C625.078 334.178 624.974 333.007 625.311 331.924C625.974 330.224 627.504 330.02 630.411 331.176C633.318 332.332 634.372 333.539 633.726 335.205C633.246 336.219 632.389 337.004 631.338 337.395C630.287 337.786 629.125 337.75 628.099 337.296Z" fill="#132043"/>
<path d="M219.3 348.908C219.3 348.908 205.547 349.928 198.05 365.687C190.553 381.446 185.436 411.043 203.15 411.825C220.864 412.607 219.266 408.272 219.266 408.272V400.384L207.893 396.984C207.326 396.813 206.8 396.529 206.346 396.15C205.893 395.77 205.52 395.302 205.252 394.775C204.984 394.248 204.825 393.672 204.785 393.081C204.745 392.491 204.825 391.899 205.02 391.34L211.004 374.34L219.3 348.908Z" fill="#5CADF8"/>
<path opacity="0.2" d="M219.3 348.908C219.3 348.908 205.547 349.928 198.05 365.687C190.553 381.446 185.436 411.043 203.15 411.825C220.864 412.607 219.266 408.272 219.266 408.272V400.384L207.893 396.984C207.326 396.813 206.8 396.529 206.346 396.15C205.893 395.77 205.52 395.302 205.252 394.775C204.984 394.248 204.825 393.672 204.785 393.081C204.745 392.491 204.825 391.899 205.02 391.34L211.004 374.34L219.3 348.908Z" fill="#132043"/>
<path d="M255.119 308.056C255.697 307.954 256.292 308.566 256.479 309.433C256.666 310.3 256.343 311.133 255.765 311.133C255.187 311.133 254.592 310.64 254.405 309.773C254.218 308.906 254.541 308.158 255.119 308.056Z" fill="#132043"/>
<path d="M256.785 319.599C257.54 319.624 258.291 319.485 258.986 319.191C259.682 318.898 260.305 318.457 260.814 317.899C258.623 315.952 256.707 313.716 255.119 311.252L256.785 319.599Z" fill="#EC837E"/>
<path d="M250.597 305.54C251.022 305.033 251.561 304.634 252.17 304.377C252.779 304.12 253.44 304.012 254.099 304.061C254.154 304.079 254.214 304.079 254.269 304.061C254.409 304.061 254.543 304.005 254.642 303.906C254.741 303.807 254.796 303.673 254.796 303.534C254.799 303.464 254.787 303.394 254.761 303.329C254.735 303.264 254.697 303.205 254.647 303.156C254.598 303.106 254.539 303.068 254.474 303.042C254.409 303.016 254.339 303.004 254.269 303.007C253.447 302.909 252.614 303.012 251.841 303.308C251.068 303.604 250.378 304.084 249.832 304.707C249.745 304.805 249.697 304.932 249.696 305.064C249.7 305.204 249.757 305.337 249.854 305.438C249.952 305.539 250.083 305.599 250.223 305.608C250.352 305.625 250.483 305.601 250.597 305.54Z" fill="#132043"/>
<path d="M246.975 335.239C245.377 341.546 245.275 349.366 252.194 351.508C252.194 351.508 260.796 358.716 244.238 358.716C229.21 358.716 226.983 350.505 226.983 350.505C232.661 345.082 231.692 333.879 230.111 325.77L246.975 335.239Z" fill="#FFC2BC"/>
<path d="M220.847 349.112C220.847 349.112 223.567 341.904 227.273 339.762C230.979 337.62 246.551 340.816 248.965 341.887C251.379 342.958 253.589 348.687 253.589 348.687L220.847 349.112Z" fill="#5CADF8"/>
<path opacity="0.2" d="M220.847 349.112C220.847 349.112 223.567 341.904 227.273 339.762C230.979 337.62 246.551 340.816 248.965 341.887C251.379 342.958 253.589 348.687 253.589 348.687L220.847 349.112Z" fill="#132043"/>
<path d="M244.561 683.297C244.509 683.29 244.46 683.265 244.421 683.228C244.383 683.191 244.357 683.143 244.348 683.09C244.338 683.037 244.346 682.983 244.369 682.935C244.392 682.887 244.43 682.847 244.476 682.821C244.68 682.719 248.556 680.526 250.392 681.019C250.568 681.06 250.733 681.135 250.879 681.24C251.025 681.345 251.148 681.478 251.242 681.631C251.358 681.799 251.42 681.997 251.42 682.201C251.42 682.404 251.358 682.603 251.242 682.77C250.783 683.416 249.542 683.62 247.978 683.62C246.833 683.606 245.69 683.498 244.561 683.297ZM249.661 681.444C248.133 681.629 246.655 682.108 245.309 682.855C247.366 683.144 250.171 683.127 250.681 682.413C250.8 682.311 250.851 682.158 250.681 681.835C250.628 681.742 250.554 681.662 250.466 681.6C250.378 681.538 250.277 681.497 250.171 681.478C250.003 681.444 249.83 681.444 249.661 681.478V681.444Z" fill="#5CADF8"/>
<path d="M244.46 683.247C244.394 683.184 244.351 683.099 244.341 683.009C244.416 681.436 245.014 679.934 246.041 678.742C246.243 678.568 246.479 678.438 246.733 678.359C246.987 678.28 247.255 678.254 247.52 678.283C248.251 678.368 248.506 678.742 248.506 679.031C248.71 680.323 246.058 682.669 244.715 683.281H244.613C244.56 683.28 244.508 683.269 244.46 683.247ZM247.384 678.793C247.21 678.791 247.037 678.825 246.876 678.893C246.716 678.96 246.57 679.059 246.449 679.184C245.618 680.138 245.102 681.325 244.97 682.584C246.347 681.751 248.132 679.864 248.013 679.184C248.013 679.184 248.013 678.895 247.503 678.895H247.35L247.384 678.793Z" fill="#5CADF8"/>
<path d="M233.58 657.373H244.647L243.542 683.009H232.475L233.58 657.373Z" fill="#FFC2BC"/>
<path d="M246.143 682.6C253.623 687.207 255.935 687.411 264.588 689.4C266.492 689.808 265.234 694.398 260.695 694.398C253.181 694.398 252.399 694.058 245.99 694.058C240.499 694.058 234.209 694.296 229.84 694.381C229.71 694.399 229.579 694.399 229.449 694.381C229.037 694.284 228.679 694.027 228.456 693.667C228.233 693.307 228.162 692.873 228.259 692.46L230.435 682.634C230.485 682.418 230.606 682.225 230.778 682.087C230.951 681.948 231.166 681.871 231.387 681.869H243.474C244.414 681.862 245.338 682.115 246.143 682.6Z" fill="#132043"/>
<path d="M259.59 348.942C248.588 348.124 237.552 347.869 226.525 348.177C223.635 348.381 220.762 348.67 217.906 349.027C216.479 349.209 215.105 349.677 213.864 350.402C212.623 351.128 211.541 352.098 210.684 353.252C209.826 354.406 209.211 355.721 208.875 357.119C208.538 358.517 208.487 359.968 208.726 361.386C215.288 400.724 211.99 439.314 211.089 447.066L270.232 446.505C276.42 397.817 274.771 373.269 272.391 361.352C271.768 358.229 270.21 355.369 267.924 353.152C265.637 350.936 262.731 349.467 259.59 348.942Z" fill="#5CADF8"/>
<path opacity="0.1" d="M259.59 348.942C248.588 348.124 237.552 347.869 226.525 348.177C223.635 348.381 220.762 348.67 217.906 349.027C216.479 349.209 215.105 349.677 213.864 350.402C212.623 351.128 211.541 352.098 210.684 353.252C209.826 354.406 209.211 355.721 208.875 357.119C208.538 358.517 208.487 359.968 208.726 361.386C215.288 400.724 211.99 439.314 211.089 447.066L270.232 446.505C276.42 397.817 274.771 373.269 272.391 361.352C271.768 358.229 270.21 355.369 267.924 353.152C265.637 350.936 262.731 349.467 259.59 348.942Z" fill="#132043"/>
<path opacity="0.2" d="M233.563 657.389L233.002 670.598H244.086L244.647 657.389H233.563Z" fill="#132043"/>
<path d="M224.552 307.052C225.306 303.147 227.578 299.7 230.871 297.469C234.163 295.238 238.207 294.405 242.113 295.152C253.503 297.294 258.212 312.934 257.872 323.066C257.532 334.303 245.207 341.919 235.364 335.289C228.819 330.869 227.68 324.528 224.841 313.92C224.222 311.683 224.123 309.334 224.552 307.052Z" fill="#FFC2BC"/>
<path d="M211.956 442.969C211.956 442.969 200.617 479.298 191.845 516.273C180.404 564.4 152.83 663 152.83 663L172.346 667.301C172.346 667.301 212.602 552.653 223.176 518.092C232.849 486.54 250.155 443.003 250.155 443.003L211.956 442.969Z" fill="#132043"/>
<path opacity="0.3" d="M235.518 483.376C218.11 530.721 214.421 544.933 214.166 545.851C216.274 517.036 224.944 484.889 235.518 483.376C236.3 483.257 234.804 483.155 235.518 483.376Z" fill="#132043"/>
<path d="M232.219 442.969C232.219 442.969 230.927 483.242 230.111 520.829C229.346 555.322 230.111 668.049 230.111 668.049H248.811C248.811 668.049 263.21 553.044 267.018 517.973C270.707 484.279 271.098 442.969 271.098 442.969H232.219Z" fill="#132043"/>
<path d="M227.341 661.418L227.97 668.354H250.767C250.767 668.354 251.906 660.568 251.821 660.568L227.341 661.418Z" fill="#5CADF8"/>
<path d="M152.286 683.179C152.268 683.227 152.235 683.268 152.193 683.297C152.15 683.326 152.1 683.342 152.048 683.342C151.997 683.342 151.946 683.326 151.904 683.297C151.861 683.268 151.829 683.227 151.81 683.179C151.708 682.992 149.532 679.099 150.11 677.263C150.198 676.916 150.418 676.617 150.722 676.43C150.892 676.313 151.094 676.25 151.3 676.25C151.507 676.25 151.708 676.313 151.878 676.43C152.507 676.906 152.694 678.215 152.694 679.694C152.657 680.865 152.52 682.03 152.286 683.179ZM150.484 677.994C150.64 679.519 151.096 680.998 151.827 682.346C152.133 680.289 152.133 677.501 151.419 676.974C151.419 676.855 151.181 676.804 150.841 676.974C150.746 677.029 150.664 677.105 150.602 677.196C150.541 677.287 150.5 677.391 150.484 677.501C150.45 677.663 150.45 677.831 150.484 677.994Z" fill="#5CADF8"/>
<path d="M152.269 683.28C152.242 683.317 152.206 683.346 152.164 683.364C152.122 683.382 152.076 683.388 152.031 683.382C150.465 683.302 148.97 682.704 147.781 681.682C147.611 681.479 147.484 681.243 147.408 680.988C147.332 680.734 147.309 680.467 147.339 680.203C147.339 679.489 147.781 679.251 148.087 679.251C149.345 679.047 151.708 681.716 152.303 683.042V683.144C152.306 683.192 152.294 683.239 152.269 683.28ZM147.9 680.373C147.92 680.712 148.051 681.035 148.274 681.291C149.229 682.121 150.416 682.637 151.674 682.77C150.858 681.393 148.988 679.591 148.274 679.71C148.274 679.71 147.985 679.71 147.985 680.22V680.373H147.9Z" fill="#5CADF8"/>
<path d="M157.114 661.928L167.909 662.744L162.928 683.943L152.116 683.178L157.114 661.928Z" fill="#FFC2BC"/>
<path opacity="0.2" d="M157.25 661.334L155.057 670.667L165.852 671.432L168.062 662.082L157.25 661.334Z" fill="#132043"/>
<path d="M149.6 681.699C146.693 685.099 145.146 686.918 136.697 689.587C134.827 690.165 136.493 694.687 141.032 694.228C148.512 693.565 144.432 693.582 150.756 693.004C156.213 692.528 162.503 692.222 166.855 691.916C167.002 691.933 167.15 691.933 167.297 691.916C167.689 691.767 168.012 691.477 168.203 691.104C168.395 690.73 168.441 690.299 168.334 689.893L165.291 680.271C165.225 680.062 165.09 679.882 164.907 679.761C164.725 679.641 164.506 679.586 164.288 679.608L152.252 680.679C151.268 680.657 150.315 681.024 149.6 681.699Z" fill="#132043"/>
<path d="M150.501 659.344L150.382 666.399L173.859 668.915C173.859 668.915 175.865 661.299 175.78 661.299L150.501 659.344Z" fill="#5CADF8"/>
<path d="M228.208 292.875C233.818 290.716 234.651 290.206 237.932 285.157C239.751 282.335 239.496 279.87 245.021 278.969C247.966 278.468 250.994 279.009 253.583 280.501C256.172 281.992 258.159 284.34 259.203 287.14C260.246 289.94 260.28 293.016 259.299 295.838C258.317 298.66 256.382 301.051 253.827 302.599C250.937 304.384 255.221 300.066 252.127 301.375C249.033 302.684 249.679 301.188 249.492 304.588C249.339 307.189 250.92 309.535 251.94 311.949C252.96 314.363 253.198 317.61 251.073 319.14C251.668 317.151 246.823 322.54 247.01 324.648C247.52 330.394 242.42 335.664 236.725 336.446C224.179 338.146 215.934 323.594 212.313 313.581C207.4 300.253 214.965 297.958 228.208 292.875Z" fill="#132043"/>
<path d="M248.71 309.263C251.855 310.215 253.453 314.89 253.572 317.848C253.674 321.112 251.481 323.152 248.659 320.942C246.53 319.234 245.019 316.876 244.358 314.227C243.627 311.099 245.565 308.294 248.71 309.263Z" fill="#FFC2BC"/>
<path opacity="0.1" d="M259.743 349.842C262.982 349.668 266.19 350.548 268.886 352.35C271.583 354.152 273.624 356.779 274.703 359.838C277.848 367.828 284.104 385.576 287.3 394.722C287.468 395.209 287.775 395.636 288.183 395.95C288.591 396.264 289.083 396.452 289.596 396.49C290.11 396.528 290.624 396.414 291.074 396.164C291.523 395.913 291.89 395.536 292.128 395.079L296.395 387.038C296.395 387.038 302.702 388.228 305.065 393.736C307.428 399.244 293.165 414.272 285.753 414.238C277.423 414.238 266.611 393.838 263.653 384.539C260.068 373.346 258.739 361.552 259.743 349.842Z" fill="#F2F7FA"/>
<path d="M296.395 389.639L301.274 381.36C301.274 381.36 298.52 376.26 300.322 372.86C302.124 369.46 303.909 372.214 305.66 371.16C307.411 370.106 311.338 362.915 313.225 366.536C315.112 370.157 317.458 376.413 307.734 383.808L302.481 397L296.395 389.639Z" fill="#FFC2BC"/>
<path d="M297.126 386.154C299.26 386.609 301.228 387.644 302.814 389.143C304.4 390.642 305.544 392.548 306.119 394.654V394.824C306.255 395.589 307.207 401.25 306.119 401.352C305.031 401.454 303.467 396.031 294.525 391.322C294.396 391.254 294.282 391.161 294.19 391.049C294.098 390.936 294.029 390.806 293.988 390.667C293.947 390.527 293.934 390.381 293.95 390.237C293.967 390.092 294.012 389.952 294.083 389.826L296.004 386.664C296.112 386.47 296.279 386.316 296.481 386.224C296.683 386.132 296.909 386.107 297.126 386.154Z" fill="#5CADF8"/>
<path d="M297.126 386.154C299.26 386.609 301.228 387.644 302.814 389.143C304.4 390.642 305.544 392.548 306.119 394.654V394.824C306.255 395.589 307.207 401.25 306.119 401.352C305.031 401.454 303.467 396.031 294.525 391.322C294.396 391.254 294.282 391.161 294.19 391.049C294.098 390.936 294.029 390.806 293.988 390.667C293.947 390.527 293.934 390.381 293.95 390.237C293.967 390.092 294.012 389.952 294.083 389.826L296.004 386.664C296.112 386.47 296.279 386.316 296.481 386.224C296.683 386.132 296.909 386.107 297.126 386.154Z" fill="#5CADF8"/>
<path d="M259.743 349.842C262.982 349.668 266.19 350.548 268.886 352.35C271.583 354.152 273.624 356.779 274.703 359.838C277.848 367.828 284.104 385.576 287.3 394.722C287.468 395.209 287.775 395.636 288.183 395.95C288.591 396.264 289.083 396.452 289.596 396.49C290.11 396.528 290.624 396.414 291.074 396.164C291.523 395.913 291.89 395.536 292.128 395.079L296.395 387.038C296.395 387.038 302.702 388.228 305.065 393.736C307.428 399.244 293.165 414.272 285.753 414.238C277.423 414.238 266.611 393.838 263.653 384.539C260.068 373.346 258.739 361.552 259.743 349.842Z" fill="#5CADF8"/>
<path opacity="0.1" d="M259.743 349.842C262.982 349.668 266.19 350.548 268.886 352.35C271.583 354.152 273.624 356.779 274.703 359.838C277.848 367.828 284.104 385.576 287.3 394.722C287.468 395.209 287.775 395.636 288.183 395.95C288.591 396.264 289.083 396.452 289.596 396.49C290.11 396.528 290.624 396.414 291.074 396.164C291.523 395.913 291.89 395.536 292.128 395.079L296.395 387.038C296.395 387.038 302.702 388.228 305.065 393.736C307.428 399.244 293.165 414.272 285.753 414.238C277.423 414.238 266.611 393.838 263.653 384.539C260.068 373.346 258.739 361.552 259.743 349.842Z" fill="#F2F7FA"/>
</svg>
