<svg width="64" height="64" viewBox="0 0 64 64" fill="none" xmlns="http://www.w3.org/2000/svg">
<rect x="12" y="12" width="40" height="40" rx="20" fill="#5CADF8"/>
<path d="M25 29V37M29.5 29V37M34.5 29V37M39 29V37M23 38.6L23 39.4C23 39.9601 23 40.2401 23.109 40.454C23.2049 40.6422 23.3578 40.7952 23.546 40.891C23.7599 41 24.0399 41 24.6 41H39.4C39.9601 41 40.2401 41 40.454 40.891C40.6422 40.7952 40.7951 40.6422 40.891 40.454C41 40.2401 41 39.9601 41 39.4V38.6C41 38.04 41 37.7599 40.891 37.546C40.7951 37.3579 40.6422 37.2049 40.454 37.109C40.2401 37 39.9601 37 39.4 37H24.6C24.0399 37 23.7599 37 23.546 37.109C23.3578 37.2049 23.2049 37.3579 23.109 37.546C23 37.7599 23 38.04 23 38.6ZM31.6529 23.0772L24.2529 24.7216C23.8059 24.8209 23.5823 24.8706 23.4155 24.9908C23.2683 25.0969 23.1527 25.2409 23.0811 25.4076C23 25.5965 23 25.8255 23 26.2835L23 27.4C23 27.9601 23 28.2401 23.109 28.454C23.2049 28.6422 23.3578 28.7952 23.546 28.891C23.7599 29 24.0399 29 24.6 29H39.4C39.9601 29 40.2401 29 40.454 28.891C40.6422 28.7952 40.7951 28.6422 40.891 28.454C41 28.2401 41 27.9601 41 27.4V26.2835C41 25.8255 41 25.5965 40.9188 25.4076C40.8473 25.2409 40.7317 25.0969 40.5845 24.9908C40.4177 24.8706 40.1942 24.8209 39.7471 24.7216L32.3471 23.0772C32.2176 23.0484 32.1528 23.034 32.0874 23.0282C32.0292 23.0231 31.9708 23.0231 31.9126 23.0282C31.8472 23.034 31.7824 23.0484 31.6529 23.0772Z" stroke="white" stroke-width="2" stroke-linecap="round" stroke-linejoin="round"/>
<rect x="6" y="6" width="52" height="52" rx="26" stroke="#5CADF8" stroke-opacity="0.3" stroke-width="12"/>
</svg>
