<svg width="64" height="64" viewBox="0 0 64 64" fill="none" xmlns="http://www.w3.org/2000/svg">
<rect x="6" y="6" width="52" height="52" rx="26" fill="#4DDD96"/>
<g clip-path="url(#clip0_219_1169)">
<path d="M33.4757 39.4159L37.2241 35.6675C37.7765 35.1151 38.0527 34.8389 38.1487 34.5128C38.2331 34.226 38.2225 33.9136 38.1184 33.6204C38.0001 33.2871 37.7045 32.9915 37.1133 32.4002L29.9348 25.2217C29.3435 24.6305 29.0479 24.3349 28.7146 24.2166C28.4214 24.1125 28.109 24.1019 27.8222 24.1863C27.4961 24.2823 27.2199 24.5585 26.6675 25.1109L22.9191 28.8593C22.3667 29.4117 22.0904 29.6879 21.9945 30.014C21.9101 30.3008 21.9207 30.6132 22.0248 30.9064C22.1431 31.2397 22.4387 31.5354 23.0299 32.1266L30.2084 39.3051C30.7996 39.8963 31.0952 40.1919 31.4286 40.3102C31.7218 40.4143 32.0342 40.4249 32.321 40.3405C32.6471 40.2446 32.9233 39.9683 33.4757 39.4159Z" stroke="white" stroke-width="0.682353" stroke-linecap="round" stroke-linejoin="round"/>
<path d="M26.6339 35.6447L30.3823 39.393C30.9347 39.9454 31.2109 40.2217 31.5367 40.3179C31.8233 40.4025 32.1354 40.3922 32.4282 40.2886C32.761 40.1708 33.056 39.8758 33.6459 39.2858L40.809 32.1228C41.3989 31.5328 41.6939 31.2378 41.8117 30.905C41.9154 30.6123 41.9256 30.3002 41.841 30.0136C41.7448 29.6878 41.4686 29.4116 40.9161 28.8591L37.1678 25.1108C36.6154 24.5583 36.3391 24.2821 36.0133 24.1859C35.7267 24.1013 35.4147 24.1116 35.1219 24.2152C34.7891 24.333 34.4941 24.628 33.9041 25.2179L26.7411 32.381C26.1511 32.9709 25.8562 33.2659 25.7383 33.5988C25.6347 33.8915 25.6244 34.2036 25.7091 34.4902C25.8053 34.816 26.0815 35.0922 26.6339 35.6447Z" fill="white" stroke="white" stroke-width="0.682353" stroke-linecap="round" stroke-linejoin="round"/>
</g>
<rect x="6" y="6" width="52" height="52" rx="26" stroke="#EAF7F4" stroke-width="12"/>
<defs>
<clipPath id="clip0_219_1169">
<rect width="21.8353" height="21.8353" fill="white" transform="translate(21 21)"/>
</clipPath>
</defs>
</svg>
