<svg width="64" height="64" viewBox="0 0 64 64" fill="none" xmlns="http://www.w3.org/2000/svg">
<rect x="12" y="12" width="40" height="40" rx="20" fill="#5CADF8"/>
<path d="M24.9999 33C24.9999 34.6484 25.6647 36.1415 26.7407 37.226C26.8444 37.3305 26.8963 37.3828 26.927 37.4331C26.9562 37.4811 26.9732 37.5224 26.9863 37.5771C26.9999 37.6343 26.9999 37.6995 26.9999 37.8298V40.2C26.9999 40.48 26.9999 40.62 27.0544 40.727C27.1024 40.8211 27.1789 40.8976 27.2729 40.9455C27.3799 41 27.5199 41 27.7999 41H29.6999C29.98 41 30.12 41 30.2269 40.9455C30.321 40.8976 30.3975 40.8211 30.4454 40.727C30.4999 40.62 30.4999 40.48 30.4999 40.2V39.8C30.4999 39.52 30.4999 39.38 30.5544 39.273C30.6024 39.1789 30.6789 39.1024 30.7729 39.0545C30.8799 39 31.0199 39 31.2999 39H32.6999C32.98 39 33.12 39 33.2269 39.0545C33.321 39.1024 33.3975 39.1789 33.4454 39.273C33.4999 39.38 33.4999 39.52 33.4999 39.8V40.2C33.4999 40.48 33.4999 40.62 33.5544 40.727C33.6024 40.8211 33.6789 40.8976 33.7729 40.9455C33.8799 41 34.0199 41 34.2999 41H36.2C36.48 41 36.62 41 36.727 40.9455C36.8211 40.8976 36.8976 40.8211 36.9455 40.727C37 40.62 37 40.48 37 40.2V39.2243C37 39.0223 37 38.9212 37.0288 38.8401C37.0563 38.7624 37.0911 38.708 37.15 38.6502C37.2114 38.59 37.3155 38.5417 37.5237 38.445C38.5059 37.989 39.344 37.2751 39.9511 36.3902C40.0579 36.2346 40.1112 36.1568 40.1683 36.1108C40.2228 36.0668 40.2717 36.0411 40.3387 36.021C40.4089 36 40.4922 36 40.6587 36H41.2C41.48 36 41.62 36 41.727 35.9455C41.8211 35.8976 41.8976 35.8211 41.9455 35.727C42 35.62 42 35.48 42 35.2V31.7857C42 31.5192 42 31.3859 41.9505 31.283C41.9013 31.181 41.819 31.0987 41.717 31.0495C41.6141 31 41.4808 31 41.2143 31C41.0213 31 40.9248 31 40.8471 30.9738C40.7633 30.9456 40.7045 30.908 40.6437 30.8438C40.5874 30.7842 40.5413 30.6846 40.4493 30.4855C40.1538 29.8462 39.7492 29.2678 39.2593 28.774C39.1555 28.6695 39.1036 28.6172 39.073 28.5669C39.0437 28.5189 39.0267 28.4776 39.0137 28.4229C39 28.3657 39 28.3005 39 28.1702V27.0606C39 26.7005 39 26.5205 38.925 26.3995C38.8593 26.2935 38.7564 26.2159 38.6365 26.1818C38.4995 26.143 38.3264 26.1924 37.9802 26.2914L35.6077 26.9692C35.5673 26.9807 35.5472 26.9865 35.5267 26.9905C35.5085 26.9941 35.4901 26.9967 35.4716 26.9983C35.4508 27 35.4298 27 35.3879 27H34.959M24.9999 33C24.9999 30.6959 26.2986 28.6952 28.204 27.6899M24.9999 33H24C22.8954 33 22 32.1046 22 31C22 30.2597 22.4022 29.6134 23 29.2676M35 26.5C35 28.433 33.433 30 31.5 30C29.567 30 28 28.433 28 26.5C28 24.567 29.567 23 31.5 23C33.433 23 35 24.567 35 26.5Z" stroke="white" stroke-width="2" stroke-linecap="round" stroke-linejoin="round"/>
<rect x="6" y="6" width="52" height="52" rx="26" stroke="#5CADF8" stroke-opacity="0.3" stroke-width="12"/>
</svg>
