<svg width="375" height="552" viewBox="0 0 375 552" fill="none" xmlns="http://www.w3.org/2000/svg">
<g clip-path="url(#clip0_35_1491)">
<rect width="375" height="552" fill="#F2F7FA"/>
<path d="M425 401.516H-49V401.753H425V401.516Z" fill="#5CADF8" fill-opacity="0.5"/>
<path d="M377.505 416.77H346.107V417.007H377.505V416.77Z" fill="#5CADF8" fill-opacity="0.5"/>
<path d="M264.996 419.348H256.758V419.585H264.996V419.348Z" fill="#5CADF8" fill-opacity="0.5"/>
<path d="M345.159 407.973H326.967V408.21H345.159V407.973Z" fill="#5CADF8" fill-opacity="0.5"/>
<path d="M41.6765 409.564H0.732422V409.801H41.6765V409.564Z" fill="#5CADF8" fill-opacity="0.5"/>
<path d="M56.1229 409.564H50.1221V409.801H56.1229V409.564Z" fill="#5CADF8" fill-opacity="0.5"/>
<path d="M164.441 413.564H75.6328V413.801H164.441V413.564Z" fill="#5CADF8" fill-opacity="0.5"/>
<path d="M175.676 359.235H-7.37374C-8.80774 359.233 -10.1821 358.661 -11.1952 357.646C-12.2083 356.631 -12.7773 355.256 -12.7773 353.822V96.5063C-12.7649 95.0805 -12.1903 93.7173 -11.1786 92.7126C-10.1668 91.708 -8.79956 91.1431 -7.37374 91.1406H175.676C177.111 91.1406 178.488 91.7109 179.503 92.7261C180.518 93.7412 181.089 95.1181 181.089 96.5537V353.822C181.089 355.258 180.518 356.634 179.503 357.65C178.488 358.665 177.111 359.235 175.676 359.235ZM-7.37374 91.3302C-8.74488 91.3327 -10.059 91.8792 -11.0277 92.8496C-11.9963 93.82 -12.5403 95.1352 -12.5403 96.5063V353.822C-12.5403 355.193 -11.9963 356.508 -11.0277 357.479C-10.059 358.449 -8.74488 358.996 -7.37374 358.998H175.676C177.048 358.996 178.363 358.449 179.333 357.479C180.303 356.509 180.849 355.194 180.852 353.822V96.5063C180.849 95.1343 180.303 93.8192 179.333 92.849C178.363 91.8789 177.048 91.3327 175.676 91.3302H-7.37374Z" fill="#5CADF8" fill-opacity="0.5"/>
<path d="M380.738 359.235H197.679C196.244 359.233 194.868 358.661 193.854 357.647C192.839 356.632 192.268 355.257 192.266 353.822V96.5063C192.281 95.0797 192.857 93.7164 193.87 92.712C194.884 91.7076 196.252 91.143 197.679 91.1406H380.738C382.162 91.1456 383.527 91.7116 384.536 92.7159C385.546 93.7203 386.119 95.0822 386.132 96.5063V353.822C386.132 355.254 385.564 356.628 384.553 357.643C383.542 358.657 382.17 359.23 380.738 359.235ZM197.679 91.3302C196.307 91.3327 194.992 91.8789 194.021 92.849C193.051 93.8192 192.505 95.1343 192.503 96.5063V353.822C192.505 355.194 193.051 356.509 194.021 357.479C194.992 358.449 196.307 358.996 197.679 358.998H380.738C382.11 358.996 383.425 358.449 384.395 357.479C385.365 356.509 385.911 355.194 385.914 353.822V96.5063C385.911 95.1343 385.365 93.8192 384.395 92.849C383.425 91.8789 382.11 91.3327 380.738 91.3302H197.679Z" fill="#5CADF8" fill-opacity="0.5"/>
<path d="M92.6593 227.17H86.2793V401.754H92.6593V227.17Z" fill="#5CADF8" fill-opacity="0.3"/>
<path d="M117.886 249.332H111.506V401.751H117.886V249.332Z" fill="#5CADF8" fill-opacity="0.3"/>
<path d="M142.876 271.498H136.496V401.753H142.876V271.498Z" fill="#5CADF8" fill-opacity="0.3"/>
<path d="M167.874 256.719H161.494V401.753H167.874V256.719Z" fill="#5CADF8" fill-opacity="0.3"/>
<path d="M192.872 249.332H186.492V401.751H192.872V249.332Z" fill="#5CADF8" fill-opacity="0.3"/>
<path d="M217.862 234.553H211.482V401.751H217.862V234.553Z" fill="#5CADF8" fill-opacity="0.3"/>
<path d="M242.86 241.949H236.48V401.754H242.86V241.949Z" fill="#5CADF8" fill-opacity="0.3"/>
<path d="M267.859 234.553H261.479V401.751H267.859V234.553Z" fill="#5CADF8" fill-opacity="0.3"/>
<path d="M292.849 219.773H286.469V401.742H292.849V219.773Z" fill="#5CADF8" fill-opacity="0.3"/>
<path d="M317.847 205.004H311.467V401.752H317.847V205.004Z" fill="#5CADF8" fill-opacity="0.3"/>
<path d="M342.837 190.225H336.457V401.752H342.837V190.225Z" fill="#5CADF8" fill-opacity="0.3"/>
<path d="M139.652 261.117C139.296 261.102 138.959 260.957 138.704 260.709L85.2934 208.635C85.0231 208.371 84.8688 208.011 84.8644 207.633C84.8599 207.255 85.0057 206.891 85.2697 206.621C85.5337 206.351 85.8943 206.196 86.2721 206.192C86.6499 206.187 87.0139 206.333 87.2842 206.597L139.832 257.837L213.842 203.801C214.129 203.596 214.48 203.505 214.83 203.543C215.18 203.581 215.503 203.747 215.738 204.009L239.969 231.444L340.267 173.976C340.43 173.884 340.609 173.824 340.795 173.8C340.98 173.777 341.169 173.79 341.349 173.839C341.53 173.889 341.699 173.973 341.846 174.088C341.994 174.202 342.118 174.345 342.211 174.507C342.304 174.67 342.363 174.849 342.387 175.035C342.411 175.22 342.397 175.409 342.348 175.589C342.299 175.769 342.214 175.938 342.1 176.086C341.985 176.234 341.842 176.358 341.68 176.451L240.377 234.506C240.092 234.667 239.761 234.726 239.438 234.672C239.116 234.619 238.822 234.456 238.604 234.212L214.468 206.91L140.524 260.842C140.271 261.027 139.965 261.124 139.652 261.117Z" fill="#5CADF8" fill-opacity="0.3"/>
<path d="M133.632 400.661L87.0192 216.835L89.3513 207.649H86.9244V155.148H80.6676V207.649H78.2408L80.5728 216.835L33.9502 400.661H40.4061L80.6676 241.89V401.628H86.9244V241.89L127.186 400.661H133.632Z" fill="#5CADF8" fill-opacity="0.3"/>
<path d="M118.918 215.008C123.496 195.609 111.482 176.171 92.0828 171.593C72.6837 167.014 53.2459 179.028 48.6673 198.427C44.0887 217.827 56.1031 237.264 75.5022 241.843C94.9014 246.422 114.339 234.407 118.918 215.008Z" fill="#5CADF8" fill-opacity="0.5"/>
<path d="M83.7963 237.54C100.812 237.54 114.606 223.746 114.606 206.73C114.606 189.714 100.812 175.92 83.7963 175.92C66.7804 175.92 52.9863 189.714 52.9863 206.73C52.9863 223.746 66.7804 237.54 83.7963 237.54Z" fill="#5CADF8" fill-opacity="0.3"/>
<path d="M83.7958 230.848C97.1154 230.848 107.913 220.05 107.913 206.73C107.913 193.411 97.1154 182.613 83.7958 182.613C70.4763 182.613 59.6787 193.411 59.6787 206.73C59.6787 220.05 70.4763 230.848 83.7958 230.848Z" fill="#5CADF8" fill-opacity="0.5"/>
<path d="M91.3649 224.988C101.45 220.81 106.24 209.248 102.062 199.162C97.8845 189.077 86.3222 184.288 76.2368 188.465C66.1514 192.643 61.3621 204.205 65.5396 214.291C69.7171 224.376 81.2795 229.165 91.3649 224.988Z" fill="#5CADF8" fill-opacity="0.3"/>
<path d="M97.1435 209.871C98.8838 202.498 94.3173 195.11 86.9439 193.369C79.5705 191.629 72.1824 196.196 70.4421 203.569C68.7018 210.943 73.2683 218.331 80.6417 220.071C88.0152 221.811 95.4033 217.245 97.1435 209.871Z" fill="#5CADF8" fill-opacity="0.5"/>
<path d="M87.5702 215.827C92.596 213.745 94.9826 207.984 92.9009 202.958C90.8191 197.932 85.0574 195.545 80.0316 197.627C75.0058 199.709 72.6192 205.471 74.701 210.496C76.7827 215.522 82.5445 217.909 87.5702 215.827Z" fill="#5CADF8" fill-opacity="0.3"/>
<path d="M88.2606 206.73C88.2606 207.616 87.998 208.481 87.5059 209.217C87.0138 209.953 86.3144 210.527 85.4962 210.865C84.6781 211.204 83.7779 211.292 82.9096 211.118C82.0414 210.945 81.2441 210.518 80.6187 209.891C79.9933 209.264 79.5679 208.466 79.3964 207.598C79.2248 206.729 79.3147 205.829 79.6548 205.012C79.995 204.194 80.57 203.496 81.3071 203.005C82.0441 202.515 82.9102 202.254 83.7956 202.256C84.3827 202.256 84.9641 202.372 85.5065 202.597C86.0488 202.822 86.5415 203.151 86.9562 203.567C87.371 203.983 87.6996 204.476 87.9235 205.019C88.1473 205.562 88.2619 206.143 88.2606 206.73Z" fill="#F2F7FA"/>
<path d="M37.4763 176.963L38.4527 183.485L31.665 185.77L38.4527 189.334L45.2214 186.955L44.0364 180.527L37.4763 176.963Z" fill="#5CADF8"/>
<path d="M83.7956 207.678C83.6443 207.676 83.4953 207.641 83.3595 207.574L34.7935 182.679C34.5773 182.561 34.4159 182.362 34.3435 182.127C34.2711 181.891 34.2934 181.636 34.4057 181.417C34.5179 181.197 34.7113 181.03 34.9447 180.951C35.1782 180.871 35.4334 180.886 35.6561 180.992L84.2222 205.848C84.4454 205.962 84.6147 206.16 84.6928 206.398C84.771 206.636 84.7517 206.895 84.6393 207.119C84.5659 207.282 84.4477 207.421 84.2983 207.52C84.149 207.619 83.9747 207.674 83.7956 207.678Z" fill="#132043"/>
<path d="M150.631 166.184C150.626 164.88 150.928 163.592 151.512 162.426C152.095 161.259 152.945 160.246 153.991 159.468C155.038 158.689 156.253 158.168 157.538 157.944C158.823 157.721 160.143 157.803 161.391 158.183C161.02 155.667 161.196 153.102 161.907 150.661C162.617 148.219 163.846 145.96 165.508 144.036C167.171 142.113 169.229 140.57 171.541 139.514C173.854 138.457 176.367 137.912 178.91 137.915C180.001 137.914 181.089 138.016 182.161 138.218C183.906 135.351 186.536 133.129 189.654 131.887C192.772 130.645 196.21 130.451 199.448 131.334C202.686 132.217 205.549 134.129 207.605 136.781C209.662 139.434 210.8 142.683 210.848 146.039H211.113C214.895 146.039 218.521 147.541 221.195 150.215C223.869 152.889 225.371 156.515 225.371 160.297C225.371 164.078 223.869 167.705 221.195 170.379C218.521 173.053 214.895 174.555 211.113 174.555H158.746C156.569 174.493 154.502 173.583 152.986 172.02C151.47 170.456 150.625 168.362 150.631 166.184Z" fill="#5CADF8" fill-opacity="0.3"/>
<path d="M299.362 161.597C299.362 160.528 299.786 159.503 300.542 158.748C301.297 157.992 302.322 157.568 303.391 157.568C303.782 157.571 304.171 157.629 304.547 157.738C304.487 157.33 304.455 156.918 304.452 156.506C304.452 155.252 304.728 154.013 305.26 152.878C305.793 151.742 306.569 150.738 307.534 149.937C308.499 149.136 309.629 148.558 310.843 148.243C312.057 147.928 313.325 147.885 314.558 148.116C315.403 146.737 316.672 145.671 318.175 145.076C319.679 144.481 321.335 144.391 322.894 144.819C324.453 145.246 325.831 146.169 326.82 147.448C327.81 148.726 328.357 150.291 328.38 151.908H328.503C330.326 151.908 332.074 152.632 333.363 153.921C334.652 155.21 335.376 156.958 335.376 158.781C335.376 160.604 334.652 162.352 333.363 163.641C332.074 164.93 330.326 165.654 328.503 165.654H303.277C302.222 165.627 301.221 165.186 300.488 164.427C299.756 163.668 299.351 162.651 299.362 161.597Z" fill="#5CADF8" fill-opacity="0.3"/>
<path d="M40.7938 166.61C40.7938 166.255 40.864 165.903 41.0004 165.574C41.1367 165.246 41.3366 164.947 41.5885 164.696C41.8404 164.445 42.1393 164.247 42.4682 164.111C42.7971 163.976 43.1495 163.907 43.5051 163.909C43.7684 163.908 44.0304 163.946 44.2824 164.022C44.2411 163.746 44.219 163.467 44.2161 163.188C44.2285 161.683 44.8317 160.244 45.8957 159.18C46.9598 158.116 48.3994 157.512 49.9041 157.5C50.2605 157.501 50.616 157.536 50.9658 157.604C51.5285 156.672 52.3797 155.949 53.3905 155.544C54.4012 155.139 55.5164 155.075 56.5669 155.362C57.6174 155.648 58.5459 156.269 59.2117 157.13C59.8774 157.992 60.2442 159.047 60.2562 160.135H60.3416C61.531 160.189 62.654 160.7 63.4766 161.561C64.2993 162.421 64.7584 163.566 64.7584 164.757C64.7584 165.948 64.2993 167.093 63.4766 167.953C62.654 168.814 61.531 169.325 60.3416 169.378H43.4292C43.0744 169.37 42.7247 169.291 42.4002 169.148C42.0757 169.004 41.7827 168.798 41.538 168.54C41.2932 168.283 41.1015 167.981 40.9738 167.649C40.8462 167.318 40.785 166.965 40.7938 166.61Z" fill="#5CADF8" fill-opacity="0.3"/>
<path d="M188.001 444.326C289.515 444.326 371.809 439.521 371.809 433.595C371.809 427.668 289.515 422.863 188.001 422.863C86.4869 422.863 4.19336 427.668 4.19336 433.595C4.19336 439.521 86.4869 444.326 188.001 444.326Z" fill="#5CADF8" fill-opacity="0.3"/>
<path d="M82.1836 252.833L88.6869 249.117C88.6869 249.117 91.1896 245.258 91.9385 245.078C92.6874 244.898 100.935 245.078 100.935 245.078C100.935 245.078 99.6932 250.425 99.5604 251.477C99.4277 252.529 91.5593 251.477 91.5593 251.477L85.1888 255.269L82.1836 252.833Z" fill="#EBB376"/>
<path d="M21.6157 425.785L14.8091 424.43C14.6876 424.429 14.5695 424.47 14.4746 424.546C14.3797 424.622 14.3137 424.728 14.2877 424.847L12.4581 431.653C12.4195 431.886 12.4691 432.125 12.597 432.323C12.725 432.521 12.9222 432.664 13.1501 432.725H13.3492C15.7571 432.725 17.5109 432.535 20.5255 432.535C22.4215 432.535 27.9958 432.734 30.5649 432.734C33.1339 432.734 33.4752 430.194 32.4609 429.966C27.7209 428.933 24.1943 427.511 22.687 426.174C22.3951 425.908 22.0101 425.769 21.6157 425.785Z" fill="#132043"/>
<path d="M104.916 425.557H97.484C97.3621 425.554 97.2431 425.595 97.1478 425.671C97.0525 425.747 96.987 425.854 96.9626 425.974L95.7492 431.472C95.7136 431.705 95.7657 431.942 95.8953 432.138C96.025 432.335 96.2229 432.476 96.4507 432.534H96.6498C99.0577 432.487 100.802 432.344 103.826 432.344C105.722 432.344 111.296 432.534 113.865 432.534C116.435 432.534 116.766 430.003 115.714 429.766C110.974 428.742 107.448 427.311 105.94 425.974C105.806 425.839 105.647 425.733 105.471 425.661C105.295 425.589 105.106 425.554 104.916 425.557Z" fill="#132043"/>
<path d="M34.7362 300.336L66.2097 292.354C73.3482 307.939 99.5414 371.929 105.893 425.168L95.2375 427.87C95.2375 427.87 76.3723 349.357 60.5502 326.434C60.5502 326.434 59.7065 361.283 57.9906 366.354C56.5781 370.526 24.1849 426.334 24.1849 426.334L13.6621 425.149C13.6621 425.149 40.1113 368.194 41.666 361.093C42.7657 356.258 37.9499 320.746 37.9499 320.746C37.1062 317.58 35.8358 304.469 35.8358 304.469C35.8358 304.469 34.8878 300.99 34.7362 300.336Z" fill="#5CADF8"/>
<path opacity="0.2" d="M60.5597 326.453C63.2306 330.493 65.5612 334.749 67.5275 339.175C65.3471 326.908 58.5879 315.029 58.5879 315.029L60.5597 326.453Z" fill="#132043"/>
<path opacity="0.3" d="M34.7362 300.336L66.2097 292.354C73.3482 307.939 99.5414 371.929 105.893 425.168L95.2375 427.87C95.2375 427.87 76.3723 349.357 60.5502 326.434C60.5502 326.434 59.7065 361.283 57.9906 366.354C56.5781 370.526 24.1849 426.334 24.1849 426.334L13.6621 425.149C13.6621 425.149 40.1113 368.194 41.666 361.093C42.7657 356.258 37.9499 320.746 37.9499 320.746C37.1062 317.58 35.8358 304.469 35.8358 304.469C35.8358 304.469 34.8878 300.99 34.7362 300.336Z" fill="#132043"/>
<path d="M89.4545 253.371C89.4545 253.371 75.1018 263.06 71.3193 263.572C69.812 263.78 66.7025 263.268 63.4888 262.624C58.6161 261.581 53.5348 260.121 53.5348 260.121L52.8996 255.315L52.2266 250.177C53.3642 249.797 68.2098 255.865 70.4282 256.813C72.6465 257.761 86.9897 249.229 86.9897 249.229L89.4545 253.371Z" fill="#132043"/>
<path d="M45.0692 298.117L45.9983 301.758L35.8357 304.469L34.8877 300.696L45.0692 298.117Z" fill="#132043"/>
<path d="M61.1008 294.053L61.9824 297.503L47.1273 301.466L46.1982 297.835L61.1008 294.053Z" fill="#132043"/>
<path d="M67.8312 295.948L63.1007 297.209L62.2285 293.768L66.5704 292.668L67.8312 295.948Z" fill="#132043"/>
<path d="M53.0182 299.895L58.8809 298.408L57.8089 294.181L51.9463 295.668L53.0182 299.895Z" fill="#F2F7FA"/>
<path d="M66.5603 292.658L34.8781 300.697C33.3329 296.517 31.7592 292.308 30.2235 288.203C29.0953 285.198 27.9862 282.249 26.9055 279.396C26.6337 278.663 26.3588 277.942 26.0807 277.234L25.1327 274.713C24.4312 272.867 23.7549 271.088 23.104 269.376L21.3597 264.816L20.5349 262.654L18.9707 258.578L52.236 250.141C63.2044 269.281 66.5603 292.658 66.5603 292.658Z" fill="#132043"/>
<path d="M31.0478 257.763C34.4701 259.404 40.7838 256.512 40.7838 256.512C40.7838 256.512 42.8789 254.199 41.6275 253.175C39.0869 253.507 39.248 252.673 38.3285 251.374C37.8027 250.554 37.442 249.64 37.2667 248.682C37.153 248.153 37.0676 247.618 37.0108 247.08L27.0283 243.496C29.294 247.155 32.8111 254.085 31.0478 257.763Z" fill="#EBB376"/>
<path opacity="0.2" d="M30.0625 246.766C31.8637 251.553 36.2814 251.695 38.3291 251.373C37.8032 250.553 37.4426 249.639 37.2673 248.681L30.0625 246.766Z" fill="#132043"/>
<path d="M43.0689 228.602C43.0689 228.602 45.6759 236.47 41.9123 240.309C38.1488 244.149 35.5986 229.104 35.5986 229.104L43.0689 228.602Z" fill="#132043"/>
<path d="M30.5565 248.88C31.6826 250.055 33.163 250.828 34.7708 251.082C36.3786 251.335 38.0251 251.054 39.4582 250.283C41.337 249.312 42.7746 247.66 43.4777 245.666C43.5725 245.4 43.6578 245.116 43.7337 244.832C45.004 239.532 44.2077 230.782 38.4343 228.431C37.1619 227.907 35.7764 227.716 34.4096 227.878C33.0428 228.04 31.7402 228.549 30.6257 229.357C29.5112 230.165 28.6218 231.244 28.0422 232.492C27.4626 233.741 27.212 235.117 27.3143 236.489C27.6556 242.395 27.5797 245.865 30.5565 248.88Z" fill="#EBB376"/>
<path d="M36.2529 238.167C36.2529 238.641 36.4994 239.03 36.8217 239.03C37.144 239.03 37.381 238.641 37.3905 238.167C37.4 237.693 37.1346 237.295 36.8217 237.295C36.5089 237.295 36.2529 237.684 36.2529 238.167Z" fill="#132043"/>
<path d="M41.6758 238.165C41.6758 238.649 41.9317 239.038 42.2446 239.038C42.5574 239.038 42.8039 238.639 42.8134 238.165C42.8229 237.691 42.5479 237.303 42.2446 237.303C41.9412 237.303 41.6758 237.71 41.6758 238.165Z" fill="#132043"/>
<path d="M39.9506 238.402C40.5174 239.87 41.2864 241.252 42.2353 242.507C41.9061 242.743 41.5291 242.903 41.131 242.977C40.7329 243.051 40.3234 243.036 39.9316 242.934L39.9506 238.402Z" fill="#D58745"/>
<path d="M43.6571 235.947C43.6117 235.97 43.5613 235.983 43.5102 235.983C43.4591 235.983 43.4087 235.97 43.3633 235.947C43.0829 235.732 42.7558 235.585 42.4083 235.519C42.0609 235.453 41.7028 235.47 41.363 235.568C41.2938 235.594 41.217 235.592 41.1495 235.562C41.0819 235.532 41.0291 235.476 41.0027 235.407C40.9763 235.338 40.9785 235.261 41.0087 235.193C41.0389 235.126 41.0948 235.073 41.1639 235.047C41.589 234.912 42.0403 234.883 42.4793 234.96C42.9184 235.038 43.3322 235.22 43.6856 235.492C43.7166 235.512 43.7433 235.538 43.764 235.569C43.7847 235.6 43.799 235.634 43.8061 235.67C43.8132 235.707 43.8129 235.744 43.8052 235.78C43.7975 235.816 43.7826 235.85 43.7614 235.881C43.7296 235.907 43.6945 235.929 43.6571 235.947Z" fill="#132043"/>
<path d="M35.1822 236.015C35.128 236.007 35.0761 235.988 35.0305 235.958C34.9784 235.905 34.9492 235.833 34.9492 235.759C34.9492 235.684 34.9784 235.613 35.0305 235.56C35.3619 235.256 35.7616 235.037 36.1957 234.922C36.6298 234.806 37.0855 234.797 37.5238 234.896C37.5929 234.918 37.6511 234.965 37.6864 235.029C37.7216 235.092 37.7313 235.167 37.7134 235.237C37.6913 235.309 37.6427 235.369 37.5775 235.406C37.5123 235.443 37.4354 235.454 37.3626 235.436C37.0168 235.367 36.6594 235.38 36.3199 235.476C35.9804 235.572 35.6685 235.746 35.4097 235.986C35.3758 236.006 35.3381 236.019 35.2989 236.024C35.2598 236.029 35.22 236.026 35.1822 236.015Z" fill="#132043"/>
<path d="M31.6364 229.17L32.2052 230.26C30.3092 230.99 30.7832 233.227 31.2572 234.223C32.2052 236.365 31.115 239.806 29.5129 241.238C29.5129 241.238 29.4086 240.29 28.6218 240.555C27.8349 240.821 28.29 245.731 29.9585 248.007C29.9585 248.007 27.5031 245.987 25.9295 240.887C24.479 236.147 24.1377 232.194 25.0383 230.298L31.6364 229.17Z" fill="#132043"/>
<path d="M24.7342 241.342C25.0568 242.004 25.5066 242.596 26.058 243.084C26.6095 243.572 27.2517 243.947 27.948 244.186C29.844 244.812 30.792 243.172 30.4128 241.342C30.0146 239.74 28.5831 237.418 26.6208 237.598C26.207 237.644 25.8113 237.793 25.4694 238.03C25.1276 238.268 24.8505 238.587 24.6631 238.959C24.4758 239.331 24.3842 239.744 24.3966 240.16C24.409 240.576 24.5251 240.982 24.7342 241.342Z" fill="#EBB376"/>
<path d="M31.5795 251.25C34.3667 253.203 39.7987 253.838 42.4626 250.302C45.1265 246.766 44.2733 241.088 44.2733 241.088C43.9673 242.356 43.3846 243.541 42.5668 244.557C41.0595 242.737 38.4999 243.77 38.4999 243.77C37.9606 243.068 37.1866 242.584 36.3195 242.405C35.0777 242.282 31.5795 242.491 31.5795 242.491C30.4609 241.78 30.4135 238.613 30.4135 238.613L29.7309 239.182C29.7309 239.182 28.7829 249.288 31.5795 251.25Z" fill="#132043"/>
<path d="M39.0305 231.18C39.0305 231.18 45.6665 227.957 44.8796 224.734C44.0928 221.511 42.1589 225.189 42.1589 225.189C42.1589 225.189 43.05 222.743 41.3057 222.345C39.5613 221.947 40.1112 223.511 39.1632 224.449C38.2152 225.388 29.0196 224.023 26.0523 225.862C23.0851 227.701 25.3508 234.062 25.3508 234.062C27.1033 232.303 29.331 231.093 31.7609 230.581C34.1907 230.069 36.7172 230.277 39.0305 231.18Z" fill="#132043"/>
<path opacity="0.2" d="M31.5795 251.25C34.3667 253.203 39.7987 253.838 42.4626 250.302C45.1265 246.766 44.2733 241.088 44.2733 241.088C43.9673 242.356 43.3846 243.541 42.5668 244.557C41.0595 242.737 38.4999 243.77 38.4999 243.77C37.9606 243.068 37.1866 242.584 36.3195 242.405C35.0777 242.282 31.5795 242.491 31.5795 242.491C30.4609 241.78 30.4135 238.613 30.4135 238.613L29.7309 239.182C29.7309 239.182 28.7829 249.288 31.5795 251.25Z" fill="#F2F7FA"/>
<path d="M38.7842 245.571C38.2741 246.253 37.8147 246.973 37.4096 247.723L36.983 247.561C35.087 246.869 34.4045 245.921 34.2528 245.068C34.1915 244.655 34.2272 244.233 34.3571 243.836C34.4262 243.606 34.525 243.386 34.651 243.182C35.6481 244.134 36.8377 244.861 38.1396 245.315C38.5283 245.485 38.7842 245.571 38.7842 245.571Z" fill="#132043"/>
<path d="M38.1399 245.324L37.7133 245.95C35.9121 245.296 34.7271 244.594 34.3574 243.846C34.4265 243.616 34.5253 243.396 34.6513 243.191C35.6485 244.143 36.8381 244.871 38.1399 245.324Z" fill="#F2F7FA"/>
<path d="M36.9832 247.562C35.0872 246.87 34.4046 245.922 34.2529 245.068C34.9769 245.35 35.6471 245.754 36.2343 246.263C36.6142 246.606 36.8762 247.061 36.9832 247.562Z" fill="#DE5753"/>
<path d="M42.0355 256.521L41.4762 261.432L51.7146 283.246L50.7002 286.137L47.3538 284.592L40.0542 262.342L34.6885 258.711L38.5942 256.569L42.0355 256.521Z" fill="#5CADF8"/>
<path d="M31.2765 253.163L38.0547 255.959L38.3296 251.371L43.3255 252.603L43.7521 259.59L38.9458 257.628L36.936 262.102L28.3945 256.395L31.2765 253.163Z" fill="#132043"/>
<path opacity="0.2" d="M31.2765 253.163L38.0547 255.959L38.3296 251.371L43.3255 252.603L43.7521 259.59L38.9458 257.628L36.936 262.102L28.3945 256.395L31.2765 253.163Z" fill="#F2F7FA"/>
<path opacity="0.2" d="M25.1232 274.711C24.4217 272.866 23.7454 271.087 23.0945 269.374L21.3502 264.814L20.5254 262.653C21.4734 262.188 23.8908 262.463 24.5639 263.601C27.0287 267.905 25.1232 274.711 25.1232 274.711Z" fill="#132043"/>
<path opacity="0.2" d="M37.0018 279.529C36.5968 281.391 35.7771 283.138 34.6036 284.64C33.43 286.142 31.9329 287.36 30.2236 288.203C29.0955 285.198 27.9863 282.249 26.9056 279.396C26.6338 278.663 26.3589 277.942 26.0808 277.235L25.1328 274.713L36.1107 276.106L37.0018 279.529Z" fill="#132043"/>
<path opacity="0.2" d="M63.4886 262.588C58.6159 261.546 53.5346 260.086 53.5346 260.086L52.8994 255.279C52.8994 255.279 61.858 256.237 63.4886 262.588Z" fill="#132043"/>
<path d="M18.9616 374.593C18.6644 374.603 18.3716 374.52 18.1243 374.355C17.877 374.19 17.6878 373.951 17.5831 373.673C17.4785 373.394 17.4637 373.09 17.541 372.803C17.6182 372.516 17.7835 372.26 18.0136 372.072C33.8357 359.084 33.5324 338.731 33.2385 319.041C33.011 304.195 32.8024 290.165 39.7892 280.628C49.5915 267.223 89.0188 245.959 95.5505 245.353C100.224 244.888 242.775 205.271 317.506 184.387C317.869 184.285 318.258 184.332 318.587 184.517C318.916 184.701 319.158 185.009 319.26 185.373C319.361 185.736 319.315 186.125 319.13 186.454C318.945 186.783 318.637 187.025 318.274 187.126C309.429 189.601 101.675 247.647 95.816 248.187C90.1943 248.709 51.1652 269.887 42.0833 282.315C35.6654 291.084 35.8644 304.65 36.0825 319.003C36.3669 338.418 36.6987 360.43 19.8148 374.281C19.573 374.477 19.2728 374.587 18.9616 374.593Z" fill="#132043"/>
<path opacity="0.4" d="M318.322 187.116L298.831 192.576C245.221 207.536 100.699 247.75 95.8639 248.195C90.2422 248.717 51.2131 269.895 42.1312 282.323C35.7133 291.092 35.9124 304.658 36.1304 319.011C36.4148 338.426 36.7466 360.438 19.8627 374.289C19.5971 374.509 19.2596 374.624 18.9147 374.611C18.6175 374.621 18.3247 374.537 18.0774 374.372C17.8302 374.207 17.6409 373.969 17.5363 373.69C17.4316 373.412 17.4169 373.108 17.4941 372.821C17.5713 372.533 17.7366 372.278 17.9667 372.089C33.7889 359.102 33.4855 338.748 33.1916 319.058C32.9641 304.213 32.7555 290.182 39.7423 280.645C49.5446 267.241 88.9719 245.977 95.5036 245.37C99.9024 244.934 226.195 209.877 303.381 188.339L317.459 184.404C317.822 184.303 318.211 184.349 318.54 184.534C318.869 184.719 319.111 185.027 319.213 185.39C319.315 185.754 319.268 186.142 319.083 186.471C318.898 186.8 318.59 187.042 318.227 187.144L318.322 187.116Z" fill="#F2F7FA"/>
<path opacity="0.2" d="M318.321 187.117L298.83 192.578C300.196 190.975 301.757 189.548 303.475 188.331L317.553 184.397C317.916 184.295 318.305 184.341 318.634 184.526C318.963 184.711 319.205 185.019 319.307 185.382C319.409 185.746 319.362 186.135 319.177 186.464C318.992 186.792 318.684 187.034 318.321 187.136V187.117Z" fill="#132043"/>
<path d="M28.6494 276.76L36.1007 276.106C36.1007 276.106 39.997 273.641 40.7459 273.802C41.4948 273.964 48.9177 277.594 48.9177 277.594C48.9177 277.594 45.5523 281.927 44.9929 282.827C44.4336 283.728 37.7312 279.481 37.7312 279.481L30.3463 280.268L28.6494 276.76Z" fill="#EBB376"/>
<path d="M18.9616 258.578C15.5773 260.996 6.76088 280.704 7.6994 283.748C8.63792 286.791 36.073 280.79 36.073 280.79L34.8596 275.661H20.0992L23.6068 270.125C23.6068 270.125 25.7683 268.02 24.4411 263.129C23.4836 259.602 18.9616 258.578 18.9616 258.578Z" fill="#132043"/>
<path d="M304.804 260.556L299.182 257.892C299.182 257.892 296.338 252.45 295.504 251.578C294.67 250.706 290.641 254.091 290.641 254.678C290.641 255.266 293.56 260.764 294.319 261.096C295.447 261.262 296.594 261.262 297.722 261.096L303.069 263.684L304.804 260.556Z" fill="#9F5B53"/>
<path d="M317.924 226.836L319.052 222.807C319.052 222.807 320.835 217.555 320.645 216.342C320.296 214.905 319.847 213.496 319.299 212.123C319.299 212.123 314.369 218.124 314.369 218.873C314.369 219.622 316.322 222.342 316.322 222.342L315.374 226.836H317.924Z" fill="#9F5B53"/>
<path d="M322.256 256.851C322.256 256.851 318.009 251.571 316.758 246.66C315.506 241.749 319.289 225.804 319.289 225.804L315.298 224.742C315.298 224.742 310.558 241.057 310.397 247.011C310.236 252.964 319.09 270.436 319.09 270.436L322.256 256.851Z" fill="#5CADF8"/>
<path opacity="0.2" d="M319.686 267.808L319.079 270.396C319.079 270.396 316.026 264.376 313.533 258.195C316.128 260.059 318.084 262.678 319.136 265.694C319.377 266.382 319.56 267.09 319.686 267.808Z" fill="#132043"/>
<path d="M344.742 268.414C344.689 269.515 344.556 270.612 344.344 271.694C343.908 274.064 343.169 276.861 342.325 279.942C341.87 281.563 341.377 283.297 340.941 285.127C338.827 293.346 337.68 296.617 336.116 307.111L306.111 299.992C307.733 291.008 310.206 282.2 313.496 273.685C314.368 271.419 315.392 269.153 316.426 266.916C318.082 263.408 320.033 260.047 322.256 256.867C322.256 256.867 327.11 261.304 342.353 263.968C344.202 264.252 344.837 265.864 344.742 268.414Z" fill="#5CADF8"/>
<path opacity="0.2" d="M340.97 264.993C340.97 265.941 344.563 270.453 344.345 271.629C343.937 271.904 343.453 272.207 342.904 272.577C332.751 278.483 319.431 275.487 313.516 273.658C314.388 271.392 316.36 267.23 317.383 264.993L324.503 266.576C324.503 266.576 336.144 263.922 340.97 264.993Z" fill="#132043"/>
<path d="M328.768 258.661C329.858 258.244 338.807 260.472 338.144 260.662C337.48 260.851 334.143 271.09 329.469 270.322C324.796 269.554 324.881 260.14 328.768 258.661Z" fill="#5CADF8"/>
<path d="M288.251 426.411L282.62 427.634L279.33 414.684L284.971 413.461L288.251 426.411Z" fill="#9F5B53"/>
<path d="M281.217 425.281H288.222C288.337 425.281 288.447 425.321 288.536 425.394C288.624 425.466 288.684 425.567 288.706 425.679L289.844 430.808C289.869 430.918 289.871 431.031 289.852 431.142C289.832 431.253 289.791 431.359 289.73 431.453C289.669 431.548 289.59 431.629 289.497 431.692C289.404 431.756 289.3 431.8 289.189 431.823H289C286.734 431.823 285.085 431.642 282.241 431.642C280.487 431.642 275.197 431.823 272.761 431.823C270.324 431.823 270.03 429.434 271.016 429.216C275.462 428.268 278.809 426.902 280.231 425.632C280.364 425.511 280.519 425.418 280.689 425.358C280.858 425.297 281.037 425.272 281.217 425.281Z" fill="#132043"/>
<path d="M279.312 426.295C278.92 426.324 278.529 426.22 278.203 426.001C278.096 425.914 278.014 425.801 277.964 425.673C277.915 425.545 277.899 425.407 277.918 425.271C277.914 425.191 277.933 425.111 277.973 425.042C278.014 424.973 278.074 424.918 278.146 424.882C278.79 424.55 280.649 425.698 280.857 425.83C280.881 425.842 280.9 425.862 280.912 425.885C280.924 425.909 280.928 425.937 280.923 425.963C280.92 425.99 280.908 426.016 280.889 426.037C280.871 426.057 280.846 426.071 280.819 426.077C280.326 426.206 279.821 426.279 279.312 426.295ZM278.449 425.1C278.394 425.082 278.334 425.082 278.278 425.1C278.278 425.1 278.193 425.148 278.184 425.261C278.174 425.351 278.186 425.442 278.219 425.527C278.252 425.611 278.305 425.686 278.373 425.745C279.018 426.04 279.75 426.077 280.421 425.849C279.818 425.474 279.149 425.22 278.449 425.1Z" fill="#5CADF8"/>
<path d="M280.781 426.087H280.715C280.127 425.765 278.97 424.495 279.084 423.888C279.106 423.786 279.162 423.695 279.243 423.629C279.324 423.563 279.425 423.528 279.53 423.528C279.633 423.514 279.739 423.523 279.839 423.554C279.938 423.585 280.03 423.638 280.108 423.708C280.771 424.248 280.914 425.907 280.923 425.983C280.925 426.008 280.919 426.032 280.908 426.054C280.896 426.076 280.878 426.094 280.857 426.106C280.844 426.11 280.83 426.111 280.816 426.107C280.803 426.104 280.791 426.097 280.781 426.087ZM279.624 423.746H279.558C279.378 423.746 279.368 423.85 279.359 423.888C279.283 424.267 280.023 425.225 280.61 425.67C280.578 425.024 280.35 424.402 279.956 423.888C279.913 423.843 279.862 423.807 279.805 423.783C279.748 423.758 279.686 423.746 279.624 423.746Z" fill="#5CADF8"/>
<path d="M336.362 307.899C336.362 307.899 331.499 331.087 320.123 337.287C318.818 338.021 317.387 338.507 315.904 338.719C315.904 338.719 304.367 343.459 294.394 347.943C288.327 350.683 282.838 353.356 280.876 354.854C275.681 358.807 288.403 420.522 288.403 420.522L279.757 420.616C279.757 420.616 261.565 365.974 264.589 351.631C267.613 337.287 300.262 315.332 300.262 315.332L305.287 301.51L336.362 307.899Z" fill="#132043"/>
<path opacity="0.2" d="M320.123 337.316C318.818 338.051 317.387 338.536 315.905 338.748C315.905 338.748 304.367 343.488 294.395 347.972C300.812 336.169 312.255 328.5 312.255 328.5L320.123 337.316Z" fill="#132043"/>
<path d="M360.735 426.411L355.104 427.634L351.814 414.684L357.455 413.461L360.735 426.411Z" fill="#9F5B53"/>
<path d="M353.701 425.281H360.707C360.821 425.281 360.932 425.321 361.02 425.394C361.108 425.466 361.168 425.567 361.19 425.679L362.328 430.808C362.353 430.918 362.356 431.031 362.336 431.142C362.317 431.253 362.275 431.359 362.214 431.453C362.154 431.548 362.074 431.629 361.981 431.692C361.889 431.756 361.784 431.8 361.674 431.823H361.484C359.219 431.823 357.569 431.642 354.725 431.642C352.971 431.642 347.681 431.823 345.245 431.823C342.809 431.823 342.515 429.434 343.501 429.216C347.947 428.268 351.293 426.902 352.715 425.632C352.848 425.511 353.004 425.418 353.173 425.358C353.342 425.297 353.522 425.272 353.701 425.281Z" fill="#132043"/>
<path d="M351.796 426.295C351.404 426.324 351.013 426.22 350.687 426.001C350.581 425.914 350.499 425.801 350.449 425.673C350.399 425.545 350.383 425.407 350.403 425.271C350.398 425.191 350.417 425.111 350.458 425.042C350.498 424.973 350.558 424.918 350.63 424.882C351.275 424.55 353.133 425.698 353.341 425.83C353.365 425.842 353.385 425.862 353.397 425.885C353.409 425.909 353.413 425.937 353.408 425.963C353.404 425.99 353.393 426.016 353.374 426.037C353.355 426.057 353.331 426.071 353.304 426.077C352.811 426.206 352.305 426.279 351.796 426.295ZM350.934 425.1C350.878 425.082 350.818 425.082 350.763 425.1C350.763 425.1 350.678 425.148 350.668 425.261C350.658 425.351 350.67 425.442 350.703 425.527C350.736 425.611 350.789 425.686 350.858 425.745C351.502 426.04 352.234 426.077 352.905 425.849C352.303 425.474 351.633 425.22 350.934 425.1Z" fill="#5CADF8"/>
<path d="M353.265 426.087H353.199C352.611 425.765 351.455 424.495 351.568 423.888C351.59 423.786 351.646 423.695 351.727 423.629C351.808 423.563 351.91 423.528 352.014 423.528C352.118 423.514 352.223 423.523 352.323 423.554C352.423 423.585 352.515 423.638 352.592 423.708C353.256 424.248 353.398 425.907 353.407 425.983C353.409 426.008 353.404 426.032 353.392 426.054C353.38 426.076 353.363 426.094 353.341 426.106C353.328 426.11 353.314 426.111 353.301 426.107C353.287 426.104 353.275 426.097 353.265 426.087ZM352.109 423.746H352.004C351.824 423.746 351.815 423.85 351.805 423.888C351.73 424.267 352.469 425.225 353.057 425.67C353.02 425.014 352.782 424.385 352.374 423.869C352.302 423.8 352.208 423.757 352.109 423.746Z" fill="#5CADF8"/>
<path d="M338.306 263.57C336.893 264.518 330.38 264.158 330.38 264.158L327.356 267.467L327.062 261.997C327.062 261.997 325.024 261.153 325.583 260.565C326.292 260.618 327.005 260.529 327.679 260.302C328.353 260.076 328.975 259.718 329.508 259.248C330.826 257.958 331.082 255.882 331.063 253.825C331.063 253.825 331.063 253.768 331.063 253.749L336.628 250.905L340.477 248.924C338.666 252.83 336.078 260.158 338.306 263.57Z" fill="#9F5B53"/>
<path opacity="0.2" d="M338.467 252.204C336.628 256.859 331.831 258.935 329.471 259.239C330.788 257.949 331.044 255.873 331.025 253.816C331.03 253.788 331.03 253.759 331.025 253.731L336.59 250.887C336.6 251.645 338.733 251.493 338.467 252.204Z" fill="#132043"/>
<path d="M342.002 252.016C342.002 252.016 345.614 253.912 346.818 251.646C348.022 249.38 346.306 249.248 348.079 248.432C349.852 247.617 352.373 247.048 351.795 245.332C351.217 243.616 349.425 243.436 351.416 241.54C353.407 239.644 353.843 236.971 350.866 236.45C347.889 235.928 349.027 233.606 348.875 232.658C348.724 231.71 347.055 231.046 345.244 231.425C343.434 231.804 342.675 229.121 341.557 228.287C340.438 227.453 338.893 228.477 338.485 229.605C338.078 230.733 337.006 229.235 335.414 229.046C333.821 228.856 334.191 230.534 333.698 232.098C333.205 233.662 332.228 232.648 331.091 233.937C329.953 235.227 329.849 244.024 342.002 252.016Z" fill="#132043"/>
<path d="M343.577 246.611C340.856 250.877 339.311 253.693 336.259 255.077C335.848 255.266 335.423 255.425 334.988 255.551C329.054 257.295 324.162 251.579 325.726 245.919C326.024 244.898 326.404 243.902 326.864 242.943C328.987 238.496 333.073 233.946 337.956 234.543C338.975 234.66 339.961 234.976 340.858 235.475C341.755 235.973 342.545 236.643 343.183 237.447C343.82 238.251 344.293 239.173 344.574 240.16C344.855 241.147 344.938 242.179 344.819 243.199C344.676 244.417 344.25 245.585 343.577 246.611Z" fill="#9F5B53"/>
<path d="M335.224 243.767C335.025 244.194 334.598 244.383 334.333 244.241C334.067 244.099 334.039 243.635 334.257 243.236C334.475 242.838 334.892 242.62 335.148 242.762C335.404 242.905 335.451 243.379 335.224 243.767Z" fill="#132043"/>
<path d="M330.627 241.236C330.568 241.414 330.442 241.563 330.276 241.649C330.11 241.736 329.916 241.754 329.736 241.701C329.48 241.549 329.442 241.103 329.67 240.696C329.897 240.288 330.295 240.079 330.561 240.231C330.826 240.383 330.845 240.847 330.627 241.236Z" fill="#132043"/>
<path d="M331.983 242.25C330.805 243.218 329.5 244.022 328.105 244.639C328.272 244.994 328.515 245.308 328.816 245.558C329.118 245.809 329.47 245.99 329.85 246.089L331.983 242.25Z" fill="#892B29"/>
<path d="M337.975 242.705C337.925 242.712 337.875 242.707 337.828 242.688C337.781 242.67 337.74 242.64 337.709 242.601C337.517 242.317 337.261 242.084 336.961 241.919C336.661 241.754 336.326 241.663 335.984 241.653C335.944 241.66 335.903 241.659 335.864 241.648C335.825 241.638 335.789 241.62 335.758 241.594C335.727 241.568 335.701 241.536 335.684 241.499C335.667 241.463 335.658 241.423 335.658 241.382C335.658 241.342 335.667 241.302 335.684 241.265C335.701 241.229 335.727 241.197 335.758 241.171C335.789 241.145 335.825 241.126 335.864 241.116C335.903 241.106 335.944 241.105 335.984 241.112C336.416 241.115 336.841 241.223 337.222 241.426C337.604 241.629 337.93 241.921 338.174 242.278C338.196 242.306 338.213 242.338 338.223 242.372C338.232 242.407 338.235 242.442 338.231 242.478C338.226 242.513 338.215 242.547 338.197 242.578C338.179 242.609 338.155 242.636 338.126 242.657C338.08 242.685 338.028 242.702 337.975 242.705Z" fill="#132043"/>
<path d="M330.958 248.631C331.595 248.838 332.272 248.888 332.932 248.777C333.592 248.667 334.216 248.399 334.75 247.996C334.774 247.968 334.787 247.933 334.787 247.896C334.787 247.859 334.774 247.824 334.75 247.797C334.724 247.77 334.688 247.756 334.651 247.756C334.613 247.756 334.578 247.77 334.551 247.797C334.045 248.16 333.461 248.401 332.846 248.5C332.23 248.599 331.6 248.553 331.006 248.365C330.989 248.358 330.971 248.354 330.953 248.355C330.934 248.355 330.916 248.359 330.9 248.368C330.884 248.376 330.869 248.387 330.858 248.402C330.847 248.416 330.839 248.433 330.835 248.451C330.828 248.467 330.824 248.485 330.824 248.504C330.825 248.522 330.829 248.54 330.837 248.556C330.845 248.572 330.857 248.587 330.871 248.598C330.886 248.609 330.903 248.617 330.92 248.621L330.958 248.631Z" fill="#132043"/>
<path d="M330.2 237.302C330.186 237.249 330.186 237.194 330.2 237.141C330.231 237.076 330.286 237.026 330.353 237.001C330.421 236.977 330.495 236.979 330.561 237.008C330.958 237.186 331.307 237.458 331.578 237.799C331.849 238.141 332.033 238.543 332.115 238.971C332.123 239.042 332.103 239.114 332.059 239.171C332.014 239.227 331.95 239.265 331.878 239.274C331.807 239.282 331.735 239.262 331.678 239.217C331.621 239.173 331.584 239.108 331.575 239.037C331.5 238.702 331.348 238.39 331.131 238.125C330.914 237.86 330.637 237.649 330.324 237.511C330.29 237.486 330.261 237.455 330.24 237.419C330.219 237.383 330.205 237.343 330.2 237.302Z" fill="#132043"/>
<path d="M334.105 234.94C335.49 235.111 336.172 236.836 336.172 236.836C337.846 237.448 339.463 238.203 341.007 239.093C341.478 239.477 341.832 239.984 342.03 240.559C342.227 241.133 342.26 241.752 342.126 242.344C342.078 242.799 340.96 243.216 340.96 243.216C340.96 243.216 338.912 248.051 338.353 249.388L338.637 253.853C342.4 251.473 345.413 248.079 347.33 244.06C350.563 237.329 337.073 231.404 337.073 231.404L334.105 234.94Z" fill="#132043"/>
<path d="M342.761 253.362C341.501 254.052 340.018 254.216 338.637 253.817C336.808 253.267 336.912 251.39 338.268 250.186C339.481 249.143 341.917 248.11 343.33 249.323C343.639 249.587 343.877 249.925 344.021 250.305C344.165 250.686 344.21 251.096 344.154 251.499C344.097 251.901 343.94 252.283 343.696 252.609C343.453 252.934 343.131 253.193 342.761 253.362Z" fill="#9F5B53"/>
<path d="M338.144 260.66L330.608 262.831L327.356 267.24L328.238 261.845C328.238 261.845 327.432 260.604 328.769 258.66L324.18 259.608L321.412 264.234L326.797 262.974L327.166 268.349L330.304 264.652L332.873 268.709L340.514 263.865L338.144 260.66Z" fill="#5CADF8"/>
<path opacity="0.2" d="M338.144 260.66L330.608 262.831L327.356 267.24L328.238 261.845C328.238 261.845 327.432 260.604 328.769 258.66L324.18 259.608L321.412 264.234L326.797 262.974L327.166 268.349L330.304 264.652L332.873 268.709L340.514 263.865L338.144 260.66Z" fill="#132043"/>
<path d="M306.51 296.855L305.334 301.539L336.353 307.9L336.817 302.695L306.51 296.855Z" fill="#132043"/>
<path d="M320.361 299.31C320.115 298.96 313.213 297.471 312.559 297.964C312.559 297.964 311.222 302.581 311.45 303.065C311.677 303.548 318.389 304.487 319.034 304.619C319.679 304.752 320.608 299.699 320.361 299.31ZM318.465 304.05C317.953 303.946 312.436 303.178 312.246 302.78C312.057 302.382 313.194 298.59 313.194 298.59C313.735 298.182 319.404 299.405 319.603 299.69C319.802 299.974 318.977 304.107 318.465 304.003V304.05Z" fill="#F2F7FA"/>
<path d="M318.73 300.883L317.356 300.599C317.231 300.575 317.101 300.599 316.992 300.665C316.883 300.732 316.803 300.837 316.768 300.959C316.748 301.028 316.743 301.1 316.753 301.17C316.763 301.241 316.787 301.309 316.824 301.37C316.862 301.43 316.912 301.482 316.971 301.523C317.029 301.563 317.096 301.591 317.166 301.604L318.541 301.869C318.674 301.896 318.812 301.868 318.925 301.792C319.038 301.717 319.116 301.6 319.143 301.466C319.169 301.333 319.141 301.195 319.066 301.082C318.99 300.969 318.873 300.891 318.74 300.864L318.73 300.883Z" fill="#F2F7FA"/>
<path d="M336.353 307.898C336.353 307.898 336.95 342.974 335.964 353.213C334.979 363.451 360.537 419.488 360.537 419.488H352.261C352.261 419.488 327.186 378.458 321.441 365.831C315.696 353.203 311.449 323.076 311.449 323.076L336.353 307.898Z" fill="#132043"/>
<path d="M344.848 265.949C343.568 263.048 323.916 267.342 322.143 266.84C320.371 266.338 301.922 258.611 301.922 258.611L300.32 262.726C300.32 262.726 316.863 272.206 320.484 273.703C324.106 275.201 338.582 274.481 342.288 272.879C342.923 272.605 343.495 272.206 343.97 271.704C344.445 271.203 344.814 270.61 345.053 269.962C345.293 269.314 345.398 268.624 345.363 267.935C345.327 267.245 345.152 266.569 344.848 265.949Z" fill="#5CADF8"/>
<path d="M341.367 190.613L335.414 152.693L304.054 174.867L314.482 179.285C304.414 202.359 271.756 269.961 215.558 319.807C143.804 383.465 43.373 414.787 42.3682 415.09L47.9234 433.226C52.1894 431.917 153.227 400.444 228.176 333.96C287.9 280.986 321.478 211.119 332.02 186.66L341.367 190.613Z" fill="#5CADF8"/>
<path opacity="0.4" d="M335.679 183.977L335.414 152.693L304.054 174.867L314.482 179.285C304.414 202.359 271.756 269.961 215.558 319.807C143.804 383.465 43.373 414.787 42.3682 415.09L44.1314 426.59C48.3974 425.281 149.435 396.652 224.384 330.168C284.108 277.194 315.79 206.379 326.332 181.92L335.679 183.977Z" fill="#F2F7FA"/>
<path d="M330.201 192.215C330.053 192.216 329.906 192.194 329.765 192.149L311.554 186.261C311.366 186.213 311.19 186.126 311.038 186.008C310.885 185.889 310.757 185.74 310.664 185.57C310.571 185.4 310.513 185.213 310.495 185.02C310.476 184.827 310.498 184.632 310.557 184.448C310.617 184.264 310.713 184.093 310.841 183.948C310.969 183.802 311.125 183.684 311.3 183.601C311.475 183.517 311.665 183.471 311.859 183.464C312.052 183.457 312.245 183.489 312.426 183.56L330.637 189.437C330.961 189.54 331.238 189.755 331.417 190.045C331.596 190.334 331.665 190.678 331.613 191.013C331.56 191.349 331.388 191.655 331.129 191.876C330.87 192.096 330.541 192.217 330.201 192.215Z" fill="#132043"/>
<path opacity="0.4" d="M330.201 192.215C330.053 192.216 329.906 192.194 329.765 192.149L311.554 186.261C311.366 186.213 311.19 186.126 311.038 186.008C310.885 185.889 310.757 185.74 310.664 185.57C310.571 185.4 310.513 185.213 310.495 185.02C310.476 184.827 310.498 184.632 310.557 184.448C310.617 184.264 310.713 184.093 310.841 183.948C310.969 183.802 311.125 183.684 311.3 183.601C311.475 183.517 311.665 183.471 311.859 183.464C312.052 183.457 312.245 183.489 312.426 183.56L330.637 189.437C330.961 189.54 331.238 189.755 331.417 190.045C331.596 190.334 331.665 190.678 331.613 191.013C331.56 191.349 331.388 191.655 331.129 191.876C330.87 192.096 330.541 192.217 330.201 192.215Z" fill="#F2F7FA"/>
<path d="M112.094 369.681C111.717 369.681 111.355 369.531 111.088 369.264C110.822 368.997 110.672 368.636 110.672 368.259C110.672 323.001 123.821 317.067 126.285 316.337L168.092 287.091L168.187 287.034L328.797 191.798C329.121 191.613 329.505 191.563 329.865 191.659C330.226 191.754 330.534 191.987 330.724 192.308C330.915 192.629 330.971 193.011 330.882 193.373C330.793 193.735 330.565 194.048 330.248 194.244L169.713 289.451L127.707 318.839C127.529 318.964 127.325 319.048 127.11 319.086C127.006 319.086 113.516 322.404 113.516 368.287C113.508 368.659 113.355 369.014 113.089 369.274C112.824 369.535 112.466 369.681 112.094 369.681Z" fill="#132043"/>
<path opacity="0.4" d="M112.094 369.681C111.717 369.681 111.355 369.531 111.088 369.264C110.822 368.997 110.672 368.636 110.672 368.259C110.672 323.001 123.821 317.067 126.285 316.337L168.092 287.091L168.187 287.034L328.797 191.798C329.121 191.613 329.505 191.563 329.865 191.659C330.226 191.754 330.534 191.987 330.724 192.308C330.915 192.629 330.971 193.011 330.882 193.373C330.793 193.735 330.565 194.048 330.248 194.244L169.713 289.451L127.707 318.839C127.529 318.964 127.325 319.048 127.11 319.086C127.006 319.086 113.516 322.404 113.516 368.287C113.508 368.659 113.355 369.014 113.089 369.274C112.824 369.535 112.466 369.681 112.094 369.681Z" fill="#F2F7FA"/>
<path d="M123.016 322.718C123.016 322.718 115.706 327.458 110.151 328.889C108.78 329.353 107.309 329.435 105.895 329.126C101.761 327.818 104.217 319.817 106.681 314.764C107.08 313.939 107.478 313.2 107.848 312.574L115.071 317.039C115.071 317.039 110.692 323.287 111.194 323.675C111.696 324.064 118.446 320.3 118.778 320.177C119.11 320.054 123.016 322.718 123.016 322.718Z" fill="#5CADF8"/>
<path opacity="0.2" d="M123.015 322.718C123.015 322.718 115.706 327.458 110.15 328.889C108.608 324.284 107.448 319.56 106.681 314.764C107.079 313.939 107.477 313.2 107.847 312.574L115.07 317.039C115.07 317.039 110.691 323.287 111.193 323.675C111.696 324.064 118.445 320.3 118.777 320.177C119.109 320.054 123.015 322.718 123.015 322.718Z" fill="#132043"/>
<path d="M158.611 295.206L162.896 291.414C163.239 290.332 163.71 289.294 164.299 288.324C164.764 287.935 172.566 287.328 172.566 287.328C172.566 287.328 172.718 291.452 172.101 292.523C171.485 293.594 165.115 294.059 165.115 294.059L161.702 297.348L158.611 295.206Z" fill="#EEC1BB"/>
<path d="M181.439 385.067C180.216 402.662 176.946 427.632 176.946 427.632L172.737 428.58C172.737 428.58 168.85 407.676 169.466 388.28C169.576 384.052 169.975 379.836 170.66 375.663C170.66 375.663 156.08 370.06 145.956 365.045C141.121 362.656 137.3 360.39 136.57 358.93C134.314 354.427 144.571 343.848 144.571 343.848C144.894 344.104 151.084 348.047 158.289 352.721C167.854 358.921 179.202 366.41 181.041 368.278C182.141 369.349 182.046 376.288 181.439 385.067Z" fill="#EEC1BB"/>
<path opacity="0.2" d="M181.441 385.068C177.55 386.479 173.544 387.547 169.467 388.263C169.578 384.034 169.977 379.819 170.662 375.645C170.662 375.645 156.082 370.042 145.957 365.027L158.281 352.703C167.846 358.903 179.194 366.392 181.033 368.26C182.142 369.35 182.047 376.289 181.441 385.068Z" fill="#132043"/>
<path d="M148.621 340.908C148.621 340.908 189.072 364.163 194.571 369.415C200.069 374.666 231.808 423.744 231.808 423.744L229.135 426.295C229.135 426.295 202.78 403.675 192.267 382.175L148.659 361.101L148.621 340.908Z" fill="#EEC1BB"/>
<path d="M117.849 297.973C117.914 298.018 117.984 298.056 118.057 298.086C119.051 298.649 120.147 299.007 121.281 299.139C124.58 299.433 126.703 298.693 127.917 297.044C129.604 294.598 129.566 290.692 128.637 286.094C128.329 284.254 127.731 282.475 126.864 280.823C126.864 280.823 126.864 280.757 126.864 280.748L126.751 280.558C126.223 279.633 125.472 278.855 124.566 278.295C123.66 277.736 122.628 277.412 121.565 277.354C120.639 277.277 119.708 277.303 118.787 277.43C109.781 278.596 110.265 293.783 117.849 297.973Z" fill="#EEC1BB"/>
<path opacity="0.2" d="M118.094 298.087C119.089 298.618 120.183 298.941 121.307 299.035C124.597 299.329 126.711 298.475 127.943 296.816C126.1 297.551 124.067 297.668 122.151 297.148C121.448 296.985 120.717 296.985 120.014 297.148C119.311 297.311 118.654 297.632 118.094 298.087Z" fill="#132043"/>
<path d="M117.488 305.501C116.701 308.042 119.953 309.388 119.953 309.388C125.641 307.492 126.92 304.714 126.92 304.714C122.56 301.87 124.475 295.291 124.475 295.291L123.527 295.67L116.891 296.372C116.891 296.372 118.398 300.003 118.569 300.818C119.403 305.093 117.488 305.501 117.488 305.501Z" fill="#EBB376"/>
<path d="M126.921 280.74C126.921 280.74 128.305 287.006 122.683 290.561C122.683 290.561 121.024 297.51 117.242 298.145C112.084 298.998 106.501 292.277 107.24 284.522C108.207 274.492 122.825 271.639 126.921 280.74Z" fill="#132043"/>
<path d="M125.433 288.322C125.291 287.374 124.267 285.782 122.759 286.227C121.252 286.673 120.863 290.721 124.902 291.053C125.518 291.166 125.765 290.408 125.433 288.322Z" fill="#EBB376"/>
<path d="M230.044 420.73L225.683 424.086C225.594 424.158 225.531 424.258 225.505 424.369C225.48 424.481 225.492 424.598 225.541 424.702L227.759 429.442C227.807 429.543 227.874 429.633 227.956 429.707C228.039 429.781 228.136 429.839 228.24 429.876C228.345 429.913 228.456 429.929 228.567 429.923C228.678 429.916 228.787 429.889 228.887 429.84C228.944 429.814 228.998 429.782 229.048 429.745C230.812 428.333 230.868 428.115 233.115 426.39C234.49 425.328 238.803 422.256 240.699 420.787C242.595 419.317 241.401 417.241 240.491 417.668C236.395 419.564 232.907 420.578 231.011 420.436C230.663 420.41 230.318 420.515 230.044 420.73Z" fill="#132043"/>
<path d="M230.991 420.645C230.967 420.657 230.94 420.661 230.913 420.656C230.886 420.652 230.862 420.64 230.842 420.622C230.823 420.603 230.809 420.579 230.804 420.553C230.798 420.526 230.801 420.499 230.811 420.474C230.896 420.247 231.674 418.209 232.375 418.085C232.453 418.069 232.534 418.075 232.608 418.104C232.682 418.132 232.746 418.182 232.792 418.246C232.889 418.343 232.96 418.462 232.998 418.593C233.036 418.724 233.04 418.862 233.01 418.995C232.898 419.383 232.653 419.718 232.318 419.943C231.904 420.227 231.459 420.463 230.991 420.645ZM231.19 420.256C231.859 420.029 232.416 419.554 232.745 418.929C232.764 418.839 232.759 418.746 232.733 418.659C232.706 418.571 232.658 418.491 232.593 418.427C232.517 418.351 232.451 418.332 232.423 418.36C232.363 418.372 232.308 418.398 232.261 418.436C231.792 418.969 231.428 419.587 231.19 420.256Z" fill="#5CADF8"/>
<path d="M230.984 420.692C230.96 420.693 230.937 420.688 230.915 420.678C230.894 420.668 230.875 420.653 230.86 420.635C230.86 420.569 229.912 419.175 230.111 418.341C230.134 418.239 230.177 418.144 230.237 418.059C230.297 417.974 230.374 417.902 230.462 417.848C230.543 417.783 230.643 417.748 230.747 417.748C230.85 417.748 230.95 417.783 231.031 417.848C231.496 418.256 231.353 419.952 231.078 420.569L231.031 420.616L230.984 420.692ZM230.348 418.36C230.346 419.015 230.541 419.656 230.908 420.199C231.134 419.49 231.101 418.724 230.813 418.037C230.813 418.037 230.709 417.933 230.576 418.037H230.519C230.425 418.121 230.365 418.235 230.348 418.36Z" fill="#5CADF8"/>
<path d="M177.686 424.834L172.178 424.939C172.065 424.945 171.957 424.988 171.872 425.062C171.786 425.135 171.727 425.236 171.704 425.346L170.671 430.475C170.64 430.689 170.693 430.907 170.818 431.083C170.943 431.26 171.131 431.381 171.344 431.423C171.407 431.432 171.471 431.432 171.533 431.423C173.78 431.338 173.96 431.195 176.795 431.139C178.539 431.139 183.8 431.186 186.208 431.139C188.616 431.091 188.882 428.702 187.896 428.503C183.45 427.631 180.103 426.361 178.662 425.119C178.385 424.903 178.036 424.801 177.686 424.834Z" fill="#132043"/>
<path d="M178.179 425.441C178.151 425.437 178.126 425.423 178.107 425.403C178.088 425.382 178.077 425.355 178.075 425.327C178.067 425.302 178.069 425.275 178.08 425.251C178.09 425.227 178.108 425.207 178.132 425.195C178.331 425.062 180.16 423.886 180.805 424.199C180.878 424.232 180.94 424.285 180.984 424.353C181.028 424.42 181.051 424.498 181.052 424.578C181.07 424.713 181.055 424.851 181.007 424.978C180.959 425.106 180.88 425.219 180.777 425.308C180.458 425.538 180.069 425.649 179.677 425.621C179.172 425.618 178.67 425.558 178.179 425.441ZM178.568 425.242C179.24 425.457 179.97 425.406 180.606 425.1C180.673 425.038 180.724 424.961 180.753 424.875C180.783 424.789 180.791 424.697 180.777 424.607C180.777 424.503 180.72 424.455 180.691 424.455C180.632 424.442 180.57 424.442 180.511 424.455C179.82 424.593 179.16 424.86 178.568 425.242Z" fill="#5CADF8"/>
<path d="M178.141 425.469C178.119 425.458 178.101 425.44 178.089 425.418C178.077 425.396 178.072 425.371 178.075 425.346C178.075 425.27 178.179 423.621 178.833 423.061C178.911 422.991 179.003 422.939 179.103 422.908C179.203 422.876 179.308 422.868 179.412 422.881C179.515 422.879 179.616 422.913 179.697 422.977C179.779 423.041 179.835 423.131 179.857 423.232C179.98 423.829 178.909 425.128 178.274 425.45H178.208C178.189 425.465 178.165 425.472 178.141 425.469ZM179.013 423.223C178.623 423.748 178.398 424.379 178.369 425.033C178.957 424.578 179.668 423.602 179.582 423.232C179.582 423.232 179.582 423.099 179.383 423.099H179.317C179.204 423.101 179.096 423.145 179.013 423.223Z" fill="#5CADF8"/>
<path d="M147.493 334.679L127.424 343.107C119.129 322.488 107.848 312.572 107.848 312.572C115.887 302.931 130.732 298.494 130.732 298.494C132.925 300.279 134.817 302.404 136.335 304.789C138.009 307.38 139.467 310.103 140.696 312.932C143.678 319.938 145.955 327.223 147.493 334.679Z" fill="#5CADF8"/>
<path d="M126.731 284.929C126.731 284.929 133.035 278.501 126.996 274.264C120.958 270.026 114.966 275.686 114.966 275.686C114.966 275.686 100.623 279.298 103.77 288.825C106.918 298.352 108.928 299.139 104.425 304.088C99.9215 309.036 95.3332 316.336 100.035 320.934C104.737 325.532 120.948 320.602 125.811 313.549C130.675 306.496 121.82 291.546 126.731 284.929Z" fill="#132043"/>
<path d="M146.033 328.5L124.229 335.98C124.229 335.98 129.054 359.727 132.552 363.699C136.05 367.671 159.437 386.063 162.746 384.612C166.054 383.162 188 363.699 188 363.699L150.867 338.236L146.033 328.5Z" fill="#132043"/>
<path d="M142.856 332.965L147.491 331.429L146.344 329.135L141.955 330.68L142.856 332.965Z" fill="#132043"/>
<path d="M128.998 335.238L124.248 336.907L124.883 338.936L129.528 337.39L128.998 335.238Z" fill="#132043"/>
<path d="M130.522 337.061L141.927 333.279L141.073 330.984L129.896 334.919L130.522 337.061Z" fill="#132043"/>
<path opacity="0.2" d="M140.696 312.971C135.899 312.412 133.197 305.198 133.197 305.198C134.235 305.012 135.283 304.888 136.335 304.828C138.009 307.419 139.467 310.142 140.696 312.971Z" fill="#132043"/>
<path d="M130.73 298.495C135.944 297.718 147.605 301.946 148.619 301.899C149.633 301.851 160.943 292.959 160.943 292.959L163.882 295.547C163.882 295.547 152.032 307.767 149.596 307.871C147.159 307.975 134.428 307.056 134.428 307.056C134.428 307.056 131.309 305.947 130.711 303.131C130.348 301.606 130.354 300.017 130.73 298.495Z" fill="#5CADF8"/>
</g>
<defs>
<clipPath id="clip0_35_1491">
<rect width="375" height="552" fill="white"/>
</clipPath>
</defs>
</svg>
