<svg width="604" height="600" viewBox="0 0 604 600" fill="none" xmlns="http://www.w3.org/2000/svg">
<rect width="604" height="600" rx="16" fill="#F2F7FA"/>
<path d="M602 458.881H2V459.181H602V458.881Z" fill="#5CADF8" fill-opacity="0.5"/>
<path d="M541.881 478.188H502.137V478.488H541.881V478.188Z" fill="#5CADF8" fill-opacity="0.5"/>
<path d="M399.464 481.453H389.036V481.753H399.464V481.453Z" fill="#5CADF8" fill-opacity="0.5"/>
<path d="M500.936 467.053H477.908V467.353H500.936V467.053Z" fill="#5CADF8" fill-opacity="0.5"/>
<path d="M116.78 469.068H64.9521V469.368H116.78V469.068Z" fill="#5CADF8" fill-opacity="0.5"/>
<path d="M135.068 469.068H127.472V469.368H135.068V469.068Z" fill="#5CADF8" fill-opacity="0.5"/>
<path d="M272.18 474.131H159.764V474.431H272.18V474.131Z" fill="#5CADF8" fill-opacity="0.5"/>
<path d="M286.4 405.36H54.6916C52.8764 405.357 51.1366 404.634 49.8542 403.349C48.5718 402.064 47.8516 400.323 47.8516 398.508V72.792C47.8674 70.9872 48.5946 69.2616 49.8753 67.9899C51.156 66.7181 52.8867 66.0031 54.6916 66H286.4C288.217 66 289.96 66.7219 291.245 68.0069C292.53 69.2919 293.252 71.0347 293.252 72.852V398.508C293.252 400.325 292.53 402.068 291.245 403.353C289.96 404.638 288.217 405.36 286.4 405.36ZM54.6916 66.24C52.9559 66.2432 51.2925 66.9349 50.0664 68.1633C48.8402 69.3917 48.1516 71.0564 48.1516 72.792V398.508C48.1516 400.244 48.8402 401.908 50.0664 403.137C51.2925 404.365 52.9559 405.057 54.6916 405.06H286.4C288.136 405.057 289.801 404.366 291.029 403.137C292.257 401.909 292.948 400.245 292.952 398.508V72.792C292.948 71.0553 292.257 69.3906 291.029 68.1625C289.801 66.9345 288.136 66.2432 286.4 66.24H54.6916Z" fill="#5CADF8" fill-opacity="0.5"/>
<path d="M545.972 405.36H314.252C312.436 405.357 310.695 404.634 309.411 403.35C308.127 402.065 307.404 400.324 307.4 398.508V72.792C307.419 70.9861 308.149 69.2605 309.432 67.9891C310.714 66.7177 312.446 66.0031 314.252 66H545.972C547.775 66.0062 549.503 66.7227 550.781 67.9941C552.059 69.2654 552.785 70.9893 552.8 72.792V398.508C552.8 400.321 552.082 402.06 550.802 403.345C549.522 404.629 547.785 405.354 545.972 405.36ZM314.252 66.24C312.516 66.2432 310.851 66.9345 309.623 68.1625C308.395 69.3906 307.704 71.0553 307.7 72.792V398.508C307.704 400.245 308.395 401.909 309.623 403.137C310.851 404.366 312.516 405.057 314.252 405.06H545.972C547.709 405.057 549.374 404.366 550.602 403.137C551.83 401.909 552.521 400.245 552.524 398.508V72.792C552.521 71.0553 551.83 69.3906 550.602 68.1625C549.374 66.9345 547.709 66.2432 545.972 66.24H314.252Z" fill="#5CADF8" fill-opacity="0.5"/>
<path d="M181.316 238.188H173.24V459.179H181.316V238.188Z" fill="#5CADF8" fill-opacity="0.3"/>
<path d="M213.248 266.242H205.172V459.178H213.248V266.242Z" fill="#5CADF8" fill-opacity="0.3"/>
<path d="M244.88 294.301H236.804V459.181H244.88V294.301Z" fill="#5CADF8" fill-opacity="0.3"/>
<path d="M276.524 275.592H268.448V459.18H276.524V275.592Z" fill="#5CADF8" fill-opacity="0.3"/>
<path d="M308.168 266.242H300.092V459.178H308.168V266.242Z" fill="#5CADF8" fill-opacity="0.3"/>
<path d="M339.8 247.535H331.724V459.179H339.8V247.535Z" fill="#5CADF8" fill-opacity="0.3"/>
<path d="M371.443 256.896H363.367V459.18H371.443V256.896Z" fill="#5CADF8" fill-opacity="0.3"/>
<path d="M403.088 247.535H395.012V459.179H403.088V247.535Z" fill="#5CADF8" fill-opacity="0.3"/>
<path d="M434.721 228.828H426.645V459.168H434.721V228.828Z" fill="#5CADF8" fill-opacity="0.3"/>
<path d="M466.364 210.131H458.288V459.179H466.364V210.131Z" fill="#5CADF8" fill-opacity="0.3"/>
<path d="M497.996 191.424H489.92V459.18H497.996V191.424Z" fill="#5CADF8" fill-opacity="0.3"/>
<path d="M240.799 281.158C240.35 281.14 239.922 280.957 239.599 280.642L171.991 214.726C171.649 214.392 171.454 213.936 171.448 213.458C171.443 212.979 171.627 212.519 171.961 212.176C172.296 211.834 172.752 211.639 173.23 211.633C173.708 211.628 174.169 211.812 174.511 212.146L241.027 277.006L334.712 208.606C335.074 208.348 335.519 208.232 335.962 208.28C336.405 208.329 336.814 208.539 337.112 208.87L367.784 243.598L494.743 170.854C494.949 170.737 495.176 170.661 495.411 170.631C495.646 170.602 495.884 170.619 496.113 170.681C496.341 170.743 496.555 170.85 496.742 170.995C496.929 171.14 497.086 171.321 497.203 171.526C497.321 171.732 497.397 171.959 497.426 172.194C497.456 172.429 497.439 172.667 497.377 172.896C497.315 173.124 497.208 173.338 497.063 173.525C496.918 173.712 496.737 173.869 496.531 173.986L368.299 247.474C367.939 247.678 367.52 247.752 367.112 247.684C366.704 247.617 366.331 247.411 366.056 247.102L335.504 212.542L241.903 280.81C241.584 281.045 241.196 281.167 240.799 281.158Z" fill="#5CADF8" fill-opacity="0.3"/>
<path d="M233.18 457.799L174.176 225.107L177.128 213.479H174.056V147.023H166.136V213.479H163.064L166.016 225.107L107 457.799H115.172L166.136 256.823V459.023H174.056V256.823L225.02 457.799H233.18Z" fill="#5CADF8" fill-opacity="0.3"/>
<path d="M214.554 222.795C220.349 198.239 205.141 173.635 180.585 167.839C156.029 162.043 131.425 177.251 125.629 201.807C119.833 226.363 135.041 250.968 159.597 256.764C184.153 262.559 208.758 247.351 214.554 222.795Z" fill="#5CADF8" fill-opacity="0.5"/>
<path d="M170.096 251.316C191.635 251.316 209.096 233.856 209.096 212.316C209.096 190.777 191.635 173.316 170.096 173.316C148.557 173.316 131.096 190.777 131.096 212.316C131.096 233.856 148.557 251.316 170.096 251.316Z" fill="#5CADF8" fill-opacity="0.3"/>
<path d="M170.095 242.845C186.956 242.845 200.623 229.177 200.623 212.317C200.623 195.457 186.956 181.789 170.095 181.789C153.235 181.789 139.567 195.457 139.567 212.317C139.567 229.177 153.235 242.845 170.095 242.845Z" fill="#5CADF8" fill-opacity="0.5"/>
<path d="M179.677 235.428C192.443 230.14 198.506 215.504 193.218 202.737C187.93 189.971 173.294 183.909 160.528 189.197C147.761 194.485 141.699 209.121 146.987 221.887C152.275 234.653 166.911 240.716 179.677 235.428Z" fill="#5CADF8" fill-opacity="0.3"/>
<path d="M186.992 216.291C189.195 206.957 183.415 197.605 174.081 195.402C164.748 193.199 155.396 198.98 153.193 208.313C150.99 217.647 156.77 226.999 166.104 229.202C175.437 231.404 184.789 225.624 186.992 216.291Z" fill="#5CADF8" fill-opacity="0.5"/>
<path d="M174.873 223.829C181.235 221.194 184.256 213.901 181.621 207.539C178.986 201.177 171.692 198.156 165.33 200.791C158.969 203.426 155.948 210.72 158.583 217.081C161.218 223.443 168.511 226.464 174.873 223.829Z" fill="#5CADF8" fill-opacity="0.3"/>
<path d="M175.748 212.316C175.748 213.437 175.415 214.533 174.793 215.464C174.17 216.396 173.284 217.122 172.249 217.55C171.213 217.979 170.074 218.09 168.975 217.871C167.875 217.651 166.866 217.11 166.075 216.317C165.283 215.524 164.744 214.513 164.527 213.414C164.31 212.314 164.424 211.175 164.855 210.14C165.285 209.106 166.013 208.222 166.946 207.601C167.879 206.98 168.975 206.65 170.096 206.652C170.839 206.652 171.575 206.799 172.262 207.084C172.948 207.369 173.572 207.786 174.097 208.312C174.622 208.838 175.038 209.463 175.321 210.15C175.604 210.837 175.749 211.573 175.748 212.316Z" fill="#F2F7FA"/>
<path d="M111.463 174.635L112.699 182.891L104.107 185.783L112.699 190.295L121.267 187.283L119.767 179.147L111.463 174.635Z" fill="#5CADF8"/>
<path d="M170.096 213.517C169.904 213.515 169.716 213.47 169.544 213.385L108.068 181.873C107.794 181.723 107.59 181.472 107.498 181.173C107.407 180.875 107.435 180.553 107.577 180.275C107.719 179.997 107.964 179.785 108.259 179.685C108.555 179.584 108.878 179.603 109.16 179.737L170.636 211.201C170.918 211.345 171.133 211.595 171.231 211.896C171.33 212.197 171.306 212.526 171.164 212.809C171.071 213.016 170.921 213.192 170.732 213.317C170.543 213.443 170.322 213.512 170.096 213.517Z" fill="#132043"/>
<path d="M254.696 160.993C254.691 159.342 255.072 157.713 255.811 156.236C256.55 154.759 257.625 153.477 258.95 152.492C260.275 151.506 261.813 150.846 263.44 150.563C265.066 150.281 266.737 150.384 268.316 150.865C267.847 147.681 268.07 144.433 268.969 141.343C269.869 138.253 271.424 135.393 273.528 132.958C275.633 130.523 278.238 128.571 281.165 127.233C284.093 125.896 287.274 125.206 290.492 125.209C291.873 125.209 293.251 125.337 294.608 125.593C296.817 121.964 300.146 119.151 304.093 117.579C308.04 116.007 312.391 115.762 316.49 116.879C320.589 117.997 324.213 120.417 326.816 123.774C329.419 127.132 330.86 131.245 330.92 135.493H331.256C336.043 135.493 340.634 137.395 344.018 140.779C347.403 144.164 349.304 148.754 349.304 153.541C349.304 158.328 347.403 162.918 344.018 166.303C340.634 169.688 336.043 171.589 331.256 171.589H264.968C262.213 171.511 259.596 170.359 257.678 168.38C255.759 166.401 254.689 163.75 254.696 160.993Z" fill="#5CADF8" fill-opacity="0.3"/>
<path d="M442.964 155.184C442.964 153.831 443.501 152.534 444.458 151.578C445.414 150.621 446.712 150.084 448.064 150.084C448.56 150.088 449.052 150.161 449.528 150.3C449.452 149.783 449.412 149.262 449.408 148.74C449.407 147.152 449.757 145.584 450.431 144.147C451.105 142.71 452.088 141.439 453.309 140.425C454.531 139.411 455.961 138.679 457.498 138.28C459.034 137.882 460.64 137.827 462.2 138.12C463.269 136.375 464.876 135.024 466.779 134.272C468.682 133.519 470.778 133.404 472.752 133.946C474.725 134.487 476.469 135.655 477.722 137.274C478.974 138.892 479.667 140.874 479.696 142.92H479.852C482.159 142.92 484.372 143.836 486.004 145.468C487.635 147.1 488.552 149.313 488.552 151.62C488.552 153.927 487.635 156.14 486.004 157.772C484.372 159.403 482.159 160.32 479.852 160.32H447.92C446.585 160.285 445.318 159.727 444.391 158.767C443.463 157.806 442.951 156.519 442.964 155.184Z" fill="#5CADF8" fill-opacity="0.3"/>
<path d="M115.663 161.532C115.663 161.082 115.752 160.636 115.925 160.22C116.097 159.805 116.35 159.427 116.669 159.109C116.988 158.792 117.366 158.54 117.783 158.369C118.199 158.198 118.645 158.11 119.095 158.112C119.428 158.111 119.76 158.16 120.079 158.256C120.027 157.906 119.999 157.554 119.995 157.2C120.011 155.295 120.774 153.473 122.121 152.126C123.468 150.779 125.29 150.016 127.195 150C127.646 150.002 128.096 150.046 128.539 150.132C129.251 148.952 130.329 148.037 131.608 147.524C132.888 147.012 134.299 146.931 135.629 147.293C136.959 147.655 138.134 148.441 138.977 149.532C139.82 150.622 140.284 151.958 140.299 153.336H140.407C141.913 153.404 143.334 154.05 144.376 155.14C145.417 156.23 145.998 157.679 145.998 159.186C145.998 160.693 145.417 162.142 144.376 163.232C143.334 164.322 141.913 164.968 140.407 165.036H118.999C118.55 165.025 118.107 164.926 117.697 164.744C117.286 164.562 116.915 164.301 116.605 163.975C116.295 163.65 116.053 163.267 115.891 162.847C115.729 162.428 115.652 161.981 115.663 161.532Z" fill="#5CADF8" fill-opacity="0.3"/>
<path d="M302.001 513.072C430.5 513.072 534.669 506.991 534.669 499.488C534.669 491.986 430.5 485.904 302.001 485.904C173.502 485.904 69.333 491.986 69.333 499.488C69.333 506.991 173.502 513.072 302.001 513.072Z" fill="#5CADF8" fill-opacity="0.3"/>
<path d="M168.056 270.675L176.288 265.971C176.288 265.971 179.456 261.087 180.404 260.859C181.352 260.631 191.792 260.859 191.792 260.859C191.792 260.859 190.22 267.627 190.052 268.959C189.884 270.291 179.924 268.959 179.924 268.959L171.86 273.759L168.056 270.675Z" fill="#EBB376"/>
<path d="M91.3874 489.601L82.7714 487.885C82.6176 487.884 82.4682 487.936 82.348 488.032C82.2279 488.128 82.1444 488.263 82.1114 488.413L79.7954 497.029C79.7466 497.323 79.8094 497.625 79.9713 497.876C80.1333 498.127 80.3829 498.308 80.6714 498.385H80.9234C83.9714 498.385 86.1914 498.145 90.0074 498.145C92.4074 498.145 99.4634 498.397 102.715 498.397C105.967 498.397 106.399 495.181 105.115 494.893C99.1154 493.585 94.6514 491.785 92.7434 490.093C92.3739 489.757 91.8866 489.58 91.3874 489.601Z" fill="#132043"/>
<path d="M196.831 489.313H187.423C187.268 489.31 187.118 489.361 186.997 489.457C186.877 489.554 186.794 489.689 186.763 489.841L185.227 496.801C185.182 497.095 185.248 497.395 185.412 497.644C185.576 497.892 185.826 498.071 186.115 498.145H186.367C189.415 498.085 191.623 497.905 195.451 497.905C197.851 497.905 204.907 498.145 208.159 498.145C211.411 498.145 211.831 494.941 210.499 494.641C204.499 493.345 200.035 491.533 198.127 489.841C197.957 489.67 197.755 489.535 197.533 489.445C197.31 489.354 197.071 489.309 196.831 489.313Z" fill="#132043"/>
<path d="M107.995 330.805L147.835 320.701C156.871 340.429 190.027 421.429 198.067 488.821L184.579 492.241C184.579 492.241 160.699 392.857 140.671 363.841C140.671 363.841 139.603 407.953 137.431 414.373C135.643 419.653 94.6393 490.297 94.6393 490.297L81.3193 488.797C81.3193 488.797 114.799 416.701 116.767 407.713C118.159 401.593 112.063 356.641 112.063 356.641C110.995 352.633 109.387 336.037 109.387 336.037C109.387 336.037 108.187 331.633 107.995 330.805Z" fill="#5CADF8"/>
<path opacity="0.2" d="M140.684 363.864C144.064 368.979 147.014 374.365 149.503 379.968C146.743 364.44 138.188 349.404 138.188 349.404L140.684 363.864Z" fill="#132043"/>
<path opacity="0.3" d="M107.995 330.805L147.835 320.701C156.871 340.429 190.027 421.429 198.067 488.821L184.579 492.241C184.579 492.241 160.699 392.857 140.671 363.841C140.671 363.841 139.603 407.953 137.431 414.373C135.643 419.653 94.6393 490.297 94.6393 490.297L81.3193 488.797C81.3193 488.797 114.799 416.701 116.767 407.713C118.159 401.593 112.063 356.641 112.063 356.641C110.995 352.633 109.387 336.037 109.387 336.037C109.387 336.037 108.187 331.633 107.995 330.805Z" fill="#132043"/>
<path d="M177.259 271.357C177.259 271.357 159.091 283.621 154.303 284.269C152.395 284.533 148.459 283.885 144.391 283.069C138.223 281.749 131.791 279.901 131.791 279.901L130.987 273.817L130.135 267.313C131.575 266.833 150.367 274.513 153.175 275.713C155.983 276.913 174.139 266.113 174.139 266.113L177.259 271.357Z" fill="#132043"/>
<path d="M121.076 327.998L122.252 332.606L109.387 336.038L108.188 331.262L121.076 327.998Z" fill="#132043"/>
<path d="M141.368 322.85L142.484 327.218L123.68 332.234L122.504 327.638L141.368 322.85Z" fill="#132043"/>
<path d="M149.888 325.25L143.9 326.846L142.796 322.49L148.292 321.098L149.888 325.25Z" fill="#132043"/>
<path d="M131.138 330.247L138.559 328.365L137.202 323.015L129.781 324.897L131.138 330.247Z" fill="#F2F7FA"/>
<path d="M148.279 321.086L108.175 331.262C106.219 325.97 104.227 320.642 102.283 315.446C100.855 311.642 99.4511 307.91 98.0831 304.298C97.7391 303.37 97.3911 302.458 97.0391 301.562L95.8391 298.37C94.9511 296.034 94.0951 293.782 93.2711 291.614L91.0631 285.842L90.0191 283.106L88.0391 277.946L130.147 267.266C144.031 291.494 148.279 321.086 148.279 321.086Z" fill="#132043"/>
<path d="M103.327 276.914C107.659 278.99 115.651 275.33 115.651 275.33C115.651 275.33 118.303 272.402 116.719 271.106C113.503 271.526 113.707 270.47 112.543 268.826C111.878 267.788 111.421 266.63 111.199 265.417C111.055 264.748 110.947 264.071 110.875 263.39L98.2393 258.854C101.107 263.486 105.559 272.258 103.327 276.914Z" fill="#EBB376"/>
<path opacity="0.2" d="M102.08 262.994C104.36 269.054 109.952 269.234 112.544 268.826C111.878 267.788 111.422 266.631 111.2 265.418L102.08 262.994Z" fill="#132043"/>
<path d="M118.543 240.002C118.543 240.002 121.843 249.962 117.079 254.822C112.315 259.682 109.087 240.638 109.087 240.638L118.543 240.002Z" fill="#132043"/>
<path d="M102.704 265.669C104.13 267.156 106.004 268.135 108.039 268.456C110.074 268.777 112.159 268.421 113.972 267.445C116.351 266.215 118.171 264.125 119.061 261.601C119.181 261.265 119.289 260.905 119.385 260.545C120.993 253.837 119.985 242.761 112.677 239.785C111.066 239.12 109.312 238.88 107.582 239.085C105.852 239.29 104.203 239.934 102.792 240.957C101.381 241.979 100.256 243.345 99.5219 244.925C98.7882 246.505 98.471 248.247 98.6005 249.985C99.0325 257.461 98.9365 261.853 102.704 265.669Z" fill="#EBB376"/>
<path d="M109.916 252.11C109.916 252.71 110.228 253.202 110.636 253.202C111.044 253.202 111.344 252.71 111.356 252.11C111.368 251.51 111.032 251.006 110.636 251.006C110.24 251.006 109.916 251.498 109.916 252.11Z" fill="#132043"/>
<path d="M116.779 252.11C116.779 252.722 117.103 253.214 117.499 253.214C117.895 253.214 118.207 252.71 118.219 252.11C118.231 251.51 117.883 251.018 117.499 251.018C117.115 251.018 116.779 251.534 116.779 252.11Z" fill="#132043"/>
<path d="M114.595 252.408C115.313 254.266 116.286 256.015 117.487 257.604C117.071 257.903 116.593 258.106 116.089 258.199C115.586 258.292 115.067 258.274 114.571 258.144L114.595 252.408Z" fill="#D58745"/>
<path d="M119.288 249.301C119.23 249.33 119.166 249.346 119.102 249.346C119.037 249.346 118.973 249.33 118.916 249.301C118.561 249.028 118.147 248.842 117.707 248.759C117.267 248.676 116.814 248.697 116.384 248.821C116.296 248.854 116.199 248.851 116.113 248.813C116.028 248.775 115.961 248.704 115.928 248.617C115.894 248.529 115.897 248.432 115.935 248.347C115.973 248.261 116.044 248.194 116.132 248.161C116.67 247.991 117.241 247.953 117.797 248.051C118.352 248.15 118.876 248.381 119.324 248.725C119.363 248.75 119.397 248.783 119.423 248.822C119.449 248.861 119.467 248.904 119.476 248.95C119.485 248.996 119.485 249.044 119.475 249.089C119.465 249.135 119.446 249.178 119.42 249.217C119.379 249.25 119.335 249.278 119.288 249.301Z" fill="#132043"/>
<path d="M108.56 249.385C108.491 249.376 108.425 249.351 108.368 249.313C108.302 249.245 108.265 249.155 108.265 249.061C108.265 248.966 108.302 248.876 108.368 248.809C108.787 248.425 109.293 248.148 109.843 248.002C110.392 247.855 110.969 247.844 111.524 247.969C111.611 247.996 111.685 248.057 111.729 248.137C111.774 248.217 111.786 248.312 111.764 248.401C111.736 248.491 111.674 248.568 111.592 248.615C111.509 248.662 111.412 248.675 111.32 248.653C110.882 248.565 110.429 248.582 110 248.703C109.57 248.824 109.175 249.045 108.848 249.349C108.805 249.374 108.757 249.391 108.707 249.397C108.658 249.403 108.607 249.399 108.56 249.385Z" fill="#132043"/>
<path d="M104.072 240.721L104.792 242.101C102.392 243.025 102.992 245.857 103.592 247.117C104.792 249.829 103.412 254.185 101.384 255.997C101.384 255.997 101.252 254.797 100.256 255.133C99.2601 255.469 99.8361 261.685 101.948 264.565C101.948 264.565 98.8401 262.009 96.8481 255.553C95.0121 249.553 94.5801 244.549 95.7201 242.149L104.072 240.721Z" fill="#132043"/>
<path d="M95.335 256.129C95.7433 256.967 96.3127 257.717 97.0107 258.334C97.7087 258.952 98.5217 259.426 99.403 259.729C101.803 260.521 103.003 258.445 102.523 256.129C102.019 254.101 100.207 251.161 97.723 251.389C97.1993 251.448 96.6983 251.636 96.2656 251.937C95.8329 252.238 95.4821 252.642 95.245 253.113C95.0079 253.583 94.8919 254.106 94.9077 254.632C94.9234 255.159 95.0703 255.674 95.335 256.129Z" fill="#EBB376"/>
<path d="M104 268.67C107.528 271.142 114.404 271.946 117.776 267.47C121.148 262.994 120.068 255.806 120.068 255.806C119.68 257.411 118.943 258.911 117.908 260.198C116 257.894 112.76 259.202 112.76 259.202C112.077 258.313 111.097 257.7 110 257.474C108.428 257.318 104 257.582 104 257.582C102.584 256.682 102.524 252.674 102.524 252.674L101.66 253.394C101.66 253.394 100.46 266.186 104 268.67Z" fill="#132043"/>
<path d="M113.432 243.266C113.432 243.266 121.832 239.186 120.836 235.106C119.84 231.026 117.392 235.682 117.392 235.682C117.392 235.682 118.52 232.586 116.312 232.082C114.104 231.578 114.8 233.558 113.6 234.746C112.4 235.934 100.76 234.206 97.0037 236.534C93.2477 238.862 96.1157 246.914 96.1157 246.914C98.334 244.687 101.154 243.156 104.23 242.508C107.305 241.86 110.503 242.124 113.432 243.266Z" fill="#132043"/>
<path opacity="0.2" d="M104 268.67C107.528 271.142 114.404 271.946 117.776 267.47C121.148 262.994 120.068 255.806 120.068 255.806C119.68 257.411 118.943 258.911 117.908 260.198C116 257.894 112.76 259.202 112.76 259.202C112.077 258.313 111.097 257.7 110 257.474C108.428 257.318 104 257.582 104 257.582C102.584 256.682 102.524 252.674 102.524 252.674L101.66 253.394C101.66 253.394 100.46 266.186 104 268.67Z" fill="#F2F7FA"/>
<path d="M113.12 261.483C112.474 262.347 111.892 263.258 111.38 264.207L110.84 264.003C108.44 263.127 107.576 261.927 107.384 260.847C107.306 260.324 107.351 259.79 107.516 259.287C107.603 258.996 107.728 258.718 107.888 258.459C109.15 259.664 110.656 260.585 112.304 261.159C112.796 261.375 113.12 261.483 113.12 261.483Z" fill="#132043"/>
<path d="M112.304 261.171L111.764 261.963C109.484 261.135 107.984 260.247 107.516 259.299C107.603 259.008 107.728 258.729 107.888 258.471C109.15 259.676 110.656 260.596 112.304 261.171Z" fill="#F2F7FA"/>
<path d="M110.839 264.002C108.439 263.126 107.575 261.926 107.383 260.846C108.299 261.202 109.148 261.714 109.891 262.358C110.372 262.792 110.703 263.368 110.839 264.002Z" fill="#DE5753"/>
<path d="M117.236 275.342L116.528 281.558L129.488 309.17L128.204 312.83L123.968 310.874L114.728 282.71L107.936 278.114L112.88 275.402L117.236 275.342Z" fill="#5CADF8"/>
<path d="M103.616 271.092L112.196 274.632L112.544 268.824L118.868 270.384L119.408 279.228L113.324 276.744L110.78 282.408L99.9678 275.184L103.616 271.092Z" fill="#132043"/>
<path opacity="0.2" d="M103.616 271.092L112.196 274.632L112.544 268.824L118.868 270.384L119.408 279.228L113.324 276.744L110.78 282.408L99.9678 275.184L103.616 271.092Z" fill="#F2F7FA"/>
<path opacity="0.2" d="M95.8278 298.37C94.9398 296.034 94.0838 293.782 93.2598 291.614L91.0518 285.842L90.0078 283.106C91.2078 282.518 94.2678 282.866 95.1198 284.306C98.2398 289.754 95.8278 298.37 95.8278 298.37Z" fill="#132043"/>
<path opacity="0.2" d="M110.863 304.465C110.35 306.823 109.313 309.034 107.827 310.935C106.342 312.836 104.447 314.378 102.283 315.445C100.855 311.641 99.4509 307.909 98.0829 304.297C97.7389 303.369 97.3909 302.457 97.0389 301.561L95.8389 298.369L109.735 300.133L110.863 304.465Z" fill="#132043"/>
<path opacity="0.2" d="M144.391 283.022C138.223 281.702 131.791 279.854 131.791 279.854L130.987 273.77C130.987 273.77 142.327 274.982 144.391 283.022Z" fill="#132043"/>
<path d="M88.028 424.802C87.6518 424.814 87.2811 424.708 86.9681 424.499C86.6551 424.29 86.4156 423.988 86.2831 423.636C86.1506 423.284 86.132 422.899 86.2297 422.535C86.3275 422.172 86.5367 421.848 86.828 421.61C106.856 405.17 106.472 379.406 106.1 354.482C105.812 335.69 105.548 317.93 114.392 305.858C126.8 288.89 176.708 261.974 184.976 261.206C190.892 260.618 371.336 210.47 465.932 184.034C466.392 183.905 466.884 183.964 467.3 184.198C467.717 184.432 468.023 184.822 468.152 185.282C468.281 185.741 468.222 186.234 467.988 186.65C467.754 187.066 467.364 187.373 466.904 187.502C455.708 190.634 192.728 264.11 185.312 264.794C178.196 265.454 128.792 292.262 117.296 307.994C109.172 319.094 109.424 336.266 109.7 354.434C110.06 379.01 110.48 406.874 89.108 424.406C88.8019 424.654 88.422 424.793 88.028 424.802Z" fill="#132043"/>
<path opacity="0.4" d="M466.963 187.489L442.291 194.401C374.431 213.337 191.491 264.241 185.371 264.805C178.255 265.465 128.851 292.273 117.355 308.005C109.231 319.105 109.483 336.277 109.759 354.445C110.119 379.021 110.539 406.885 89.1674 424.417C88.8312 424.696 88.404 424.841 87.9674 424.825C87.5912 424.838 87.2206 424.732 86.9076 424.523C86.5946 424.314 86.355 424.012 86.2226 423.659C86.0901 423.307 86.0714 422.922 86.1692 422.559C86.2669 422.195 86.4761 421.871 86.7674 421.633C106.795 405.193 106.411 379.429 106.039 354.505C105.751 335.713 105.487 317.953 114.331 305.881C126.739 288.913 176.647 261.997 184.915 261.229C190.483 260.677 350.347 216.301 448.051 189.037L465.871 184.057C466.331 183.928 466.824 183.987 467.24 184.221C467.656 184.455 467.963 184.845 468.091 185.305C468.22 185.765 468.161 186.257 467.927 186.674C467.693 187.09 467.303 187.396 466.843 187.525L466.963 187.489Z" fill="#F2F7FA"/>
<path opacity="0.2" d="M466.964 187.489L442.292 194.401C444.022 192.373 445.997 190.567 448.172 189.025L465.992 184.045C466.452 183.916 466.944 183.976 467.36 184.21C467.777 184.444 468.083 184.833 468.212 185.293C468.341 185.753 468.282 186.245 468.048 186.662C467.814 187.078 467.424 187.384 466.964 187.513V187.489Z" fill="#132043"/>
<path d="M100.291 300.961L109.723 300.133C109.723 300.133 114.655 297.013 115.603 297.217C116.551 297.421 125.947 302.017 125.947 302.017C125.947 302.017 121.687 307.501 120.979 308.641C120.271 309.781 111.787 304.405 111.787 304.405L102.439 305.401L100.291 300.961Z" fill="#EBB376"/>
<path d="M88.0276 277.947C83.7436 281.007 72.5836 305.955 73.7716 309.807C74.9596 313.659 109.688 306.063 109.688 306.063L108.152 299.571H89.4676L93.9076 292.563C93.9076 292.563 96.6436 289.899 94.9636 283.707C93.7516 279.243 88.0276 277.947 88.0276 277.947Z" fill="#132043"/>
<path d="M449.852 280.449L442.736 277.077C442.736 277.077 439.136 270.189 438.08 269.085C437.024 267.981 431.924 272.265 431.924 273.009C431.924 273.753 435.62 280.713 436.58 281.133C438.008 281.343 439.459 281.343 440.888 281.133L447.656 284.409L449.852 280.449Z" fill="#9F5B53"/>
<path d="M466.46 237.767L467.888 232.667C467.888 232.667 470.144 226.019 469.904 224.483C469.463 222.665 468.893 220.88 468.2 219.143C468.2 219.143 461.96 226.739 461.96 227.687C461.96 228.635 464.432 232.079 464.432 232.079L463.232 237.767H466.46Z" fill="#9F5B53"/>
<path d="M471.944 275.759C471.944 275.759 466.568 269.075 464.984 262.859C463.4 256.643 468.188 236.459 468.188 236.459L463.136 235.115C463.136 235.115 457.136 255.767 456.932 263.303C456.728 270.839 467.936 292.955 467.936 292.955L471.944 275.759Z" fill="#5CADF8"/>
<path opacity="0.2" d="M468.691 289.631L467.923 292.907C467.923 292.907 464.059 285.287 460.903 277.463C464.187 279.822 466.664 283.137 467.995 286.955C468.3 287.826 468.533 288.721 468.691 289.631Z" fill="#132043"/>
<path d="M500.409 290.397C500.341 291.792 500.173 293.179 499.905 294.549C499.353 297.549 498.417 301.089 497.349 304.989C496.773 307.041 496.149 309.237 495.597 311.553C492.921 321.957 491.469 326.097 489.489 339.381L451.509 330.369C453.561 318.998 456.692 307.848 460.857 297.069C461.961 294.201 463.257 291.333 464.565 288.501C466.662 284.061 469.131 279.806 471.945 275.781C471.945 275.781 478.089 281.397 497.385 284.769C499.725 285.129 500.529 287.169 500.409 290.397Z" fill="#5CADF8"/>
<path opacity="0.2" d="M495.632 286.067C495.632 287.267 500.18 292.979 499.904 294.467C499.388 294.815 498.776 295.199 498.08 295.667C485.228 303.143 468.368 299.351 460.88 297.035C461.984 294.167 464.48 288.899 465.776 286.067L474.788 288.071C474.788 288.071 489.524 284.711 495.632 286.067Z" fill="#132043"/>
<path d="M480.188 278.05C481.568 277.522 492.896 280.342 492.056 280.582C491.216 280.822 486.992 293.782 481.076 292.81C475.16 291.838 475.268 279.922 480.188 278.05Z" fill="#5CADF8"/>
<path d="M428.9 490.392L421.772 491.94L417.608 475.548L424.748 474L428.9 490.392Z" fill="#9F5B53"/>
<path d="M419.996 488.962H428.864C429.009 488.962 429.149 489.012 429.261 489.104C429.372 489.196 429.449 489.324 429.476 489.466L430.916 495.958C430.948 496.096 430.952 496.24 430.927 496.38C430.902 496.52 430.85 496.654 430.773 496.774C430.696 496.893 430.595 496.996 430.478 497.077C430.36 497.157 430.228 497.213 430.088 497.242H429.848C426.98 497.242 424.892 497.014 421.292 497.014C419.072 497.014 412.376 497.242 409.292 497.242C406.208 497.242 405.836 494.218 407.084 493.942C412.712 492.742 416.948 491.014 418.748 489.406C418.917 489.253 419.114 489.134 419.328 489.058C419.542 488.982 419.769 488.949 419.996 488.962Z" fill="#132043"/>
<path d="M417.584 490.247C417.087 490.284 416.593 490.153 416.18 489.875C416.045 489.765 415.941 489.622 415.878 489.46C415.815 489.298 415.795 489.123 415.82 488.951C415.814 488.849 415.838 488.749 415.89 488.661C415.941 488.574 416.017 488.503 416.108 488.459C416.924 488.039 419.276 489.491 419.54 489.659C419.57 489.674 419.595 489.698 419.61 489.729C419.625 489.759 419.63 489.793 419.624 489.827C419.62 489.862 419.605 489.894 419.581 489.92C419.557 489.946 419.526 489.963 419.492 489.971C418.868 490.134 418.228 490.226 417.584 490.247ZM416.492 488.735C416.422 488.711 416.346 488.711 416.276 488.735C416.276 488.735 416.168 488.795 416.156 488.939C416.143 489.053 416.159 489.168 416.2 489.274C416.242 489.381 416.309 489.476 416.396 489.551C417.211 489.924 418.139 489.971 418.988 489.683C418.225 489.208 417.377 488.886 416.492 488.735Z" fill="#5CADF8"/>
<path d="M419.444 489.984H419.36C418.616 489.576 417.152 487.968 417.296 487.2C417.324 487.071 417.395 486.955 417.497 486.872C417.6 486.789 417.728 486.744 417.86 486.744C417.991 486.727 418.125 486.738 418.251 486.778C418.378 486.817 418.494 486.883 418.592 486.972C419.432 487.656 419.612 489.756 419.624 489.852C419.626 489.883 419.619 489.915 419.604 489.942C419.589 489.97 419.567 489.993 419.54 490.008C419.523 490.013 419.506 490.014 419.489 490.01C419.472 490.005 419.456 489.997 419.444 489.984ZM417.98 487.02H417.896C417.668 487.02 417.656 487.152 417.644 487.2C417.548 487.68 418.484 488.892 419.228 489.456C419.187 488.638 418.898 487.851 418.4 487.2C418.346 487.143 418.281 487.098 418.209 487.067C418.136 487.036 418.059 487.02 417.98 487.02Z" fill="#5CADF8"/>
<path d="M489.8 340.377C489.8 340.377 483.644 369.729 469.244 377.577C467.591 378.506 465.781 379.121 463.904 379.389C463.904 379.389 449.3 385.389 436.676 391.065C428.996 394.533 422.048 397.917 419.564 399.813C412.988 404.817 429.092 482.937 429.092 482.937L418.148 483.057C418.148 483.057 395.12 413.889 398.948 395.733C402.776 377.577 444.104 349.785 444.104 349.785L450.464 332.289L489.8 340.377Z" fill="#132043"/>
<path opacity="0.2" d="M469.244 377.615C467.591 378.544 465.781 379.159 463.904 379.427C463.904 379.427 449.3 385.427 436.676 391.103C444.8 376.163 459.284 366.455 459.284 366.455L469.244 377.615Z" fill="#132043"/>
<path d="M520.652 490.392L513.524 491.94L509.36 475.548L516.5 474L520.652 490.392Z" fill="#9F5B53"/>
<path d="M511.748 488.962H520.616C520.761 488.962 520.901 489.012 521.013 489.104C521.124 489.196 521.201 489.324 521.228 489.466L522.668 495.958C522.7 496.096 522.704 496.24 522.679 496.38C522.654 496.52 522.602 496.654 522.525 496.774C522.448 496.893 522.347 496.996 522.23 497.077C522.112 497.157 521.98 497.213 521.84 497.242H521.6C518.732 497.242 516.644 497.014 513.044 497.014C510.824 497.014 504.128 497.242 501.044 497.242C497.96 497.242 497.588 494.218 498.836 493.942C504.464 492.742 508.7 491.014 510.5 489.406C510.669 489.253 510.866 489.134 511.08 489.058C511.294 488.982 511.521 488.949 511.748 488.962Z" fill="#132043"/>
<path d="M509.336 490.247C508.839 490.284 508.345 490.153 507.932 489.875C507.797 489.765 507.693 489.622 507.63 489.46C507.567 489.298 507.547 489.123 507.572 488.951C507.566 488.849 507.59 488.749 507.642 488.661C507.693 488.574 507.769 488.503 507.86 488.459C508.676 488.039 511.028 489.491 511.292 489.659C511.322 489.674 511.347 489.698 511.362 489.729C511.377 489.759 511.382 489.793 511.376 489.827C511.372 489.862 511.357 489.894 511.333 489.92C511.309 489.946 511.278 489.963 511.244 489.971C510.62 490.134 509.98 490.226 509.336 490.247ZM508.244 488.735C508.174 488.711 508.098 488.711 508.028 488.735C508.028 488.735 507.92 488.795 507.908 488.939C507.895 489.053 507.911 489.168 507.952 489.274C507.994 489.381 508.061 489.476 508.148 489.551C508.963 489.924 509.891 489.971 510.74 489.683C509.977 489.208 509.129 488.886 508.244 488.735Z" fill="#5CADF8"/>
<path d="M511.196 489.984H511.112C510.368 489.576 508.904 487.968 509.048 487.2C509.075 487.071 509.147 486.955 509.249 486.872C509.352 486.789 509.48 486.744 509.612 486.744C509.743 486.727 509.877 486.738 510.003 486.778C510.13 486.817 510.246 486.883 510.344 486.972C511.184 487.656 511.364 489.756 511.376 489.852C511.378 489.883 511.371 489.915 511.356 489.942C511.341 489.97 511.319 489.993 511.292 490.008C511.275 490.013 511.258 490.014 511.241 490.01C511.224 490.005 511.208 489.997 511.196 489.984ZM509.732 487.02H509.6C509.372 487.02 509.36 487.152 509.348 487.2C509.252 487.68 510.188 488.892 510.932 489.456C510.885 488.625 510.584 487.829 510.068 487.176C509.976 487.089 509.858 487.034 509.732 487.02Z" fill="#5CADF8"/>
<path d="M492.26 284.267C490.472 285.467 482.228 285.011 482.228 285.011L478.4 289.199L478.028 282.275C478.028 282.275 475.448 281.207 476.156 280.463C477.054 280.529 477.955 280.416 478.809 280.13C479.662 279.843 480.449 279.389 481.124 278.795C482.792 277.163 483.116 274.535 483.092 271.931C483.092 271.931 483.092 271.859 483.092 271.835L490.136 268.235L495.008 265.727C492.716 270.671 489.44 279.947 492.26 284.267Z" fill="#9F5B53"/>
<path opacity="0.2" d="M492.464 269.879C490.136 275.771 484.064 278.399 481.076 278.783C482.744 277.151 483.068 274.523 483.044 271.919C483.05 271.883 483.05 271.847 483.044 271.811L490.088 268.211C490.1 269.171 492.8 268.979 492.464 269.879Z" fill="#132043"/>
<path d="M496.94 269.639C496.94 269.639 501.512 272.039 503.036 269.171C504.56 266.303 502.388 266.135 504.632 265.103C506.876 264.071 510.068 263.351 509.336 261.179C508.604 259.007 506.336 258.779 508.856 256.379C511.376 253.979 511.928 250.595 508.16 249.935C504.392 249.275 505.832 246.335 505.64 245.135C505.448 243.935 503.336 243.095 501.044 243.575C498.752 244.055 497.792 240.659 496.376 239.603C494.96 238.547 493.004 239.843 492.488 241.271C491.972 242.699 490.616 240.803 488.6 240.563C486.584 240.323 487.052 242.447 486.428 244.427C485.804 246.407 484.568 245.123 483.128 246.755C481.688 248.387 481.556 259.523 496.94 269.639Z" fill="#132043"/>
<path d="M498.932 262.798C495.488 268.198 493.532 271.762 489.668 273.514C489.148 273.754 488.61 273.955 488.06 274.114C480.548 276.322 474.356 269.086 476.336 261.922C476.713 260.629 477.194 259.369 477.776 258.154C480.464 252.526 485.636 246.766 491.816 247.522C493.106 247.67 494.355 248.07 495.49 248.701C496.626 249.332 497.626 250.18 498.433 251.198C499.24 252.216 499.838 253.383 500.193 254.632C500.549 255.881 500.654 257.188 500.504 258.478C500.322 260.021 499.784 261.5 498.932 262.798Z" fill="#9F5B53"/>
<path d="M488.36 259.198C488.108 259.738 487.568 259.978 487.232 259.798C486.896 259.618 486.86 259.03 487.136 258.526C487.412 258.022 487.94 257.746 488.264 257.926C488.588 258.106 488.648 258.706 488.36 259.198Z" fill="#132043"/>
<path d="M482.54 255.995C482.465 256.22 482.306 256.408 482.095 256.518C481.885 256.628 481.639 256.651 481.412 256.583C481.088 256.391 481.04 255.827 481.328 255.311C481.616 254.795 482.12 254.531 482.456 254.723C482.792 254.915 482.816 255.503 482.54 255.995Z" fill="#132043"/>
<path d="M484.256 257.277C482.764 258.503 481.113 259.521 479.348 260.301C479.559 260.751 479.866 261.148 480.247 261.465C480.629 261.782 481.076 262.012 481.556 262.137L484.256 257.277Z" fill="#892B29"/>
<path d="M491.84 257.854C491.777 257.864 491.713 257.856 491.654 257.833C491.595 257.81 491.543 257.772 491.504 257.722C491.261 257.363 490.936 257.068 490.556 256.859C490.176 256.65 489.753 256.535 489.32 256.522C489.269 256.531 489.218 256.53 489.168 256.517C489.119 256.504 489.072 256.481 489.033 256.448C488.994 256.415 488.962 256.374 488.94 256.328C488.919 256.282 488.907 256.231 488.907 256.18C488.907 256.129 488.919 256.078 488.94 256.032C488.962 255.986 488.994 255.945 489.033 255.912C489.072 255.88 489.119 255.856 489.168 255.843C489.218 255.83 489.269 255.829 489.32 255.838C489.867 255.842 490.404 255.978 490.887 256.235C491.37 256.492 491.783 256.862 492.092 257.314C492.12 257.349 492.141 257.39 492.153 257.433C492.166 257.477 492.169 257.522 492.164 257.567C492.158 257.612 492.143 257.655 492.121 257.694C492.098 257.733 492.068 257.767 492.032 257.794C491.973 257.829 491.908 257.85 491.84 257.854Z" fill="#132043"/>
<path d="M482.96 265.356C483.765 265.617 484.622 265.681 485.458 265.541C486.294 265.401 487.083 265.062 487.76 264.552C487.79 264.517 487.807 264.472 487.807 264.425C487.807 264.379 487.79 264.334 487.76 264.299C487.726 264.267 487.681 264.248 487.634 264.248C487.587 264.248 487.541 264.267 487.508 264.299C486.867 264.76 486.128 265.065 485.349 265.19C484.57 265.315 483.772 265.257 483.02 265.02C482.999 265.01 482.976 265.005 482.953 265.006C482.929 265.006 482.907 265.012 482.886 265.022C482.865 265.033 482.847 265.047 482.833 265.066C482.819 265.084 482.809 265.105 482.804 265.128C482.794 265.149 482.79 265.172 482.79 265.195C482.791 265.218 482.796 265.24 482.806 265.261C482.817 265.282 482.832 265.3 482.85 265.314C482.868 265.328 482.889 265.338 482.912 265.343L482.96 265.356Z" fill="#132043"/>
<path d="M482 251.014C481.982 250.947 481.982 250.876 482 250.81C482.039 250.728 482.109 250.664 482.194 250.633C482.279 250.601 482.373 250.605 482.456 250.642C482.96 250.867 483.401 251.21 483.744 251.643C484.087 252.075 484.32 252.584 484.424 253.126C484.434 253.216 484.409 253.307 484.353 253.379C484.296 253.451 484.214 253.498 484.124 253.51C484.034 253.52 483.943 253.494 483.871 253.438C483.799 253.382 483.752 253.3 483.74 253.21C483.646 252.786 483.453 252.391 483.178 252.055C482.903 251.719 482.553 251.453 482.156 251.278C482.113 251.247 482.077 251.207 482.051 251.162C482.024 251.116 482.007 251.066 482 251.014Z" fill="#132043"/>
<path d="M486.943 248.027C488.695 248.243 489.559 250.427 489.559 250.427C491.678 251.201 493.725 252.157 495.679 253.283C496.275 253.769 496.724 254.412 496.974 255.139C497.224 255.866 497.266 256.649 497.095 257.399C497.035 257.975 495.619 258.503 495.619 258.503C495.619 258.503 493.027 264.623 492.319 266.315L492.679 271.967C497.443 268.955 501.257 264.657 503.683 259.571C507.775 251.051 490.699 243.551 490.699 243.551L486.943 248.027Z" fill="#132043"/>
<path d="M497.9 271.343C496.305 272.217 494.428 272.424 492.68 271.919C490.364 271.223 490.496 268.847 492.212 267.323C493.748 266.003 496.832 264.695 498.62 266.231C499.012 266.565 499.312 266.993 499.495 267.474C499.677 267.955 499.735 268.475 499.663 268.984C499.591 269.494 499.392 269.977 499.084 270.39C498.776 270.802 498.369 271.13 497.9 271.343Z" fill="#9F5B53"/>
<path d="M492.056 280.583L482.516 283.331L478.4 288.911L479.516 282.083C479.516 282.083 478.496 280.511 480.188 278.051L474.38 279.251L470.876 285.107L477.692 283.511L478.16 290.315L482.132 285.635L485.384 290.771L495.056 284.639L492.056 280.583Z" fill="#5CADF8"/>
<path opacity="0.2" d="M492.056 280.583L482.516 283.331L478.4 288.911L479.516 282.083C479.516 282.083 478.496 280.511 480.188 278.051L474.38 279.251L470.876 285.107L477.692 283.511L478.16 290.315L482.132 285.635L485.384 290.771L495.056 284.639L492.056 280.583Z" fill="#132043"/>
<path d="M452.012 326.4L450.524 332.328L489.788 340.38L490.376 333.792L452.012 326.4Z" fill="#132043"/>
<path d="M469.544 329.507C469.232 329.063 460.496 327.179 459.668 327.803C459.668 327.803 457.976 333.647 458.264 334.259C458.552 334.871 467.048 336.059 467.864 336.227C468.68 336.395 469.856 329.999 469.544 329.507ZM467.144 335.507C466.496 335.375 459.512 334.403 459.272 333.899C459.032 333.395 460.472 328.595 460.472 328.595C461.156 328.079 468.332 329.627 468.584 329.987C468.836 330.347 467.792 335.579 467.144 335.447V335.507Z" fill="#F2F7FA"/>
<path d="M467.48 331.498L465.74 331.138C465.581 331.108 465.417 331.138 465.28 331.222C465.142 331.307 465.041 331.439 464.996 331.594C464.971 331.681 464.964 331.772 464.977 331.862C464.989 331.951 465.02 332.037 465.067 332.114C465.115 332.191 465.178 332.257 465.252 332.308C465.327 332.359 465.411 332.394 465.5 332.41L467.24 332.746C467.409 332.78 467.584 332.745 467.727 332.649C467.869 332.554 467.968 332.405 468.002 332.236C468.035 332.068 468 331.893 467.905 331.75C467.809 331.607 467.661 331.508 467.492 331.474L467.48 331.498Z" fill="#F2F7FA"/>
<path d="M489.789 340.377C489.789 340.377 490.545 384.777 489.297 397.737C488.049 410.697 520.401 481.629 520.401 481.629H509.925C509.925 481.629 478.185 429.693 470.913 413.709C463.641 397.725 458.265 359.589 458.265 359.589L489.789 340.377Z" fill="#132043"/>
<path d="M500.54 287.278C498.92 283.606 474.044 289.042 471.8 288.406C469.556 287.77 446.204 277.99 446.204 277.99L444.176 283.198C444.176 283.198 465.116 295.198 469.7 297.094C474.284 298.99 492.608 298.078 497.3 296.05C498.103 295.704 498.827 295.198 499.429 294.564C500.03 293.929 500.497 293.179 500.8 292.359C501.103 291.538 501.236 290.665 501.191 289.792C501.147 288.918 500.925 288.063 500.54 287.278Z" fill="#5CADF8"/>
<path d="M496.135 191.916L488.599 143.916L448.903 171.984L462.103 177.576C449.359 206.784 408.019 292.356 336.883 355.452C246.055 436.032 118.927 475.68 117.655 476.064L124.687 499.02C130.087 497.364 257.983 457.524 352.855 373.368C428.455 306.312 470.959 217.872 484.303 186.912L496.135 191.916Z" fill="#5CADF8"/>
<path opacity="0.4" d="M488.935 183.516L488.599 143.916L448.903 171.984L462.103 177.576C449.359 206.784 408.019 292.356 336.883 355.452C246.055 436.032 118.927 475.68 117.655 476.064L119.887 490.62C125.287 488.964 253.183 452.724 348.055 368.568C423.655 301.512 463.759 211.872 477.103 180.912L488.935 183.516Z" fill="#F2F7FA"/>
<path d="M482 193.944C481.812 193.945 481.626 193.917 481.448 193.86L458.396 186.408C458.158 186.346 457.936 186.237 457.742 186.086C457.548 185.936 457.388 185.747 457.269 185.532C457.151 185.317 457.078 185.08 457.055 184.836C457.032 184.592 457.059 184.346 457.134 184.112C457.209 183.879 457.332 183.663 457.493 183.479C457.655 183.294 457.853 183.145 458.074 183.04C458.296 182.934 458.536 182.875 458.781 182.866C459.027 182.858 459.271 182.899 459.5 182.988L482.552 190.428C482.962 190.558 483.312 190.83 483.539 191.196C483.765 191.563 483.853 191.998 483.786 192.423C483.72 192.848 483.503 193.235 483.175 193.514C482.847 193.794 482.43 193.946 482 193.944Z" fill="#132043"/>
<path opacity="0.4" d="M482 193.944C481.812 193.945 481.626 193.917 481.448 193.86L458.396 186.408C458.158 186.346 457.936 186.237 457.742 186.086C457.548 185.936 457.388 185.747 457.269 185.532C457.151 185.317 457.078 185.08 457.055 184.836C457.032 184.592 457.059 184.346 457.134 184.112C457.209 183.879 457.332 183.663 457.493 183.479C457.655 183.294 457.853 183.145 458.074 183.04C458.296 182.934 458.536 182.875 458.781 182.866C459.027 182.858 459.271 182.899 459.5 182.988L482.552 190.428C482.962 190.558 483.312 190.83 483.539 191.196C483.765 191.563 483.853 191.998 483.786 192.423C483.72 192.848 483.503 193.235 483.175 193.514C482.847 193.794 482.43 193.946 482 193.944Z" fill="#F2F7FA"/>
<path d="M205.915 418.582C205.438 418.582 204.98 418.392 204.642 418.055C204.305 417.717 204.115 417.259 204.115 416.782C204.115 359.494 220.759 351.982 223.879 351.058L276.799 314.038L276.919 313.966L480.223 193.414C480.633 193.18 481.119 193.117 481.575 193.238C482.031 193.358 482.422 193.654 482.663 194.06C482.903 194.466 482.975 194.95 482.862 195.408C482.749 195.866 482.461 196.262 482.059 196.51L278.851 317.026L225.679 354.226C225.453 354.383 225.195 354.49 224.923 354.538C224.791 354.538 207.715 358.738 207.715 416.818C207.706 417.289 207.512 417.738 207.175 418.067C206.839 418.397 206.386 418.582 205.915 418.582Z" fill="#132043"/>
<path opacity="0.4" d="M205.915 418.582C205.438 418.582 204.98 418.392 204.642 418.055C204.305 417.717 204.115 417.259 204.115 416.782C204.115 359.494 220.759 351.982 223.879 351.058L276.799 314.038L276.919 313.966L480.223 193.414C480.633 193.18 481.119 193.117 481.575 193.238C482.031 193.358 482.422 193.654 482.663 194.06C482.903 194.466 482.975 194.95 482.862 195.408C482.749 195.866 482.461 196.262 482.059 196.51L278.851 317.026L225.679 354.226C225.453 354.383 225.195 354.49 224.923 354.538C224.791 354.538 207.715 358.738 207.715 416.818C207.706 417.289 207.512 417.738 207.175 418.067C206.839 418.397 206.386 418.582 205.915 418.582Z" fill="#F2F7FA"/>
<path d="M219.74 359.135C219.74 359.135 210.488 365.135 203.456 366.947C201.72 367.534 199.858 367.637 198.068 367.247C192.836 365.591 195.944 355.463 199.064 349.067C199.568 348.023 200.072 347.087 200.54 346.295L209.684 351.947C209.684 351.947 204.14 359.855 204.776 360.347C205.412 360.839 213.956 356.075 214.376 355.919C214.796 355.763 219.74 359.135 219.74 359.135Z" fill="#5CADF8"/>
<path opacity="0.2" d="M219.739 359.135C219.739 359.135 210.487 365.135 203.455 366.947C201.503 361.118 200.034 355.137 199.063 349.067C199.567 348.023 200.071 347.087 200.539 346.295L209.683 351.947C209.683 351.947 204.139 359.855 204.775 360.347C205.411 360.839 213.955 356.075 214.375 355.919C214.795 355.763 219.739 359.135 219.739 359.135Z" fill="#132043"/>
<path d="M264.8 324.31L270.224 319.51C270.658 318.14 271.254 316.826 272 315.598C272.588 315.106 282.464 314.338 282.464 314.338C282.464 314.338 282.656 319.558 281.876 320.914C281.096 322.27 273.032 322.858 273.032 322.858L268.712 327.022L264.8 324.31Z" fill="#EEC1BB"/>
<path d="M293.696 438.057C292.148 460.329 288.008 491.937 288.008 491.937L282.68 493.137C282.68 493.137 277.76 466.677 278.54 442.125C278.679 436.773 279.184 431.436 280.052 426.153C280.052 426.153 261.596 419.061 248.78 412.713C242.66 409.689 237.824 406.821 236.9 404.973C234.044 399.273 247.028 385.881 247.028 385.881C247.436 386.205 255.272 391.197 264.392 397.113C276.5 404.961 290.864 414.441 293.192 416.805C294.584 418.161 294.464 426.945 293.696 438.057Z" fill="#EEC1BB"/>
<path opacity="0.2" d="M293.696 438.06C288.771 439.845 283.7 441.199 278.54 442.104C278.68 436.752 279.185 431.415 280.052 426.132C280.052 426.132 261.596 419.04 248.78 412.692L264.38 397.092C276.488 404.94 290.852 414.42 293.18 416.784C294.584 418.164 294.464 426.948 293.696 438.06Z" fill="#132043"/>
<path d="M252.151 382.162C252.151 382.162 303.355 411.598 310.315 418.246C317.275 424.894 357.451 487.018 357.451 487.018L354.067 490.246C354.067 490.246 320.707 461.614 307.399 434.398L252.199 407.722L252.151 382.162Z" fill="#EEC1BB"/>
<path d="M213.199 327.813C213.282 327.87 213.371 327.918 213.463 327.957C214.721 328.669 216.108 329.122 217.543 329.289C221.719 329.661 224.407 328.725 225.943 326.637C228.079 323.541 228.031 318.597 226.855 312.777C226.466 310.448 225.709 308.196 224.611 306.105C224.611 306.105 224.611 306.021 224.611 306.009L224.467 305.769C223.8 304.598 222.849 303.613 221.702 302.905C220.555 302.196 219.249 301.786 217.903 301.713C216.731 301.616 215.552 301.648 214.387 301.809C202.987 303.285 203.599 322.509 213.199 327.813Z" fill="#EEC1BB"/>
<path opacity="0.2" d="M213.511 327.958C214.771 328.63 216.155 329.039 217.579 329.158C221.743 329.53 224.419 328.45 225.979 326.35C223.645 327.28 221.072 327.427 218.647 326.77C217.757 326.564 216.831 326.563 215.941 326.769C215.051 326.975 214.22 327.382 213.511 327.958Z" fill="#132043"/>
<path d="M212.743 337.342C211.747 340.558 215.863 342.262 215.863 342.262C223.063 339.862 224.683 336.346 224.683 336.346C219.163 332.746 221.587 324.418 221.587 324.418L220.387 324.898L211.987 325.786C211.987 325.786 213.895 330.382 214.111 331.414C215.167 336.826 212.743 337.342 212.743 337.342Z" fill="#EBB376"/>
<path d="M224.683 305.999C224.683 305.999 226.435 313.931 219.319 318.431C219.319 318.431 217.219 327.227 212.431 328.031C205.903 329.111 198.835 320.603 199.771 310.787C200.995 298.091 219.499 294.479 224.683 305.999Z" fill="#132043"/>
<path d="M222.8 315.597C222.62 314.397 221.324 312.381 219.416 312.945C217.508 313.509 217.016 318.633 222.128 319.053C222.908 319.197 223.22 318.237 222.8 315.597Z" fill="#EBB376"/>
<path d="M355.219 483.202L349.699 487.45C349.586 487.541 349.507 487.667 349.475 487.808C349.442 487.95 349.458 488.098 349.519 488.23L352.327 494.23C352.388 494.357 352.473 494.471 352.577 494.565C352.682 494.659 352.804 494.732 352.937 494.778C353.069 494.825 353.21 494.845 353.351 494.838C353.491 494.83 353.629 494.795 353.755 494.734C353.827 494.7 353.896 494.66 353.959 494.614C356.191 492.826 356.263 492.55 359.107 490.366C360.847 489.022 366.307 485.134 368.707 483.274C371.107 481.414 369.595 478.786 368.443 479.326C363.259 481.726 358.843 483.01 356.443 482.83C356.003 482.796 355.567 482.929 355.219 483.202Z" fill="#132043"/>
<path d="M356.42 483.093C356.389 483.108 356.354 483.113 356.321 483.108C356.287 483.103 356.256 483.087 356.231 483.064C356.206 483.041 356.189 483.01 356.182 482.977C356.175 482.943 356.179 482.909 356.192 482.877C356.3 482.589 357.284 480.009 358.172 479.853C358.27 479.832 358.372 479.84 358.466 479.876C358.56 479.913 358.641 479.976 358.7 480.057C358.822 480.179 358.912 480.33 358.96 480.496C359.008 480.662 359.014 480.837 358.976 481.005C358.833 481.495 358.523 481.92 358.1 482.205C357.576 482.565 357.012 482.863 356.42 483.093ZM356.672 482.601C357.519 482.314 358.223 481.713 358.64 480.921C358.663 480.808 358.658 480.69 358.624 480.579C358.591 480.468 358.53 480.367 358.448 480.285C358.352 480.189 358.268 480.165 358.232 480.201C358.157 480.216 358.087 480.249 358.028 480.297C357.433 480.972 356.973 481.754 356.672 482.601Z" fill="#5CADF8"/>
<path d="M356.408 483.154C356.378 483.155 356.349 483.149 356.322 483.137C356.295 483.124 356.271 483.105 356.252 483.082C356.252 482.998 355.052 481.234 355.304 480.178C355.333 480.05 355.387 479.928 355.463 479.821C355.539 479.714 355.636 479.623 355.748 479.554C355.85 479.472 355.977 479.428 356.108 479.428C356.239 479.428 356.366 479.472 356.468 479.554C357.056 480.07 356.876 482.218 356.528 482.998L356.468 483.058L356.408 483.154ZM355.604 480.202C355.601 481.032 355.848 481.843 356.312 482.53C356.599 481.633 356.556 480.663 356.192 479.794C356.192 479.794 356.06 479.662 355.892 479.794H355.82C355.702 479.9 355.625 480.045 355.604 480.202Z" fill="#5CADF8"/>
<path d="M288.944 488.397L281.972 488.529C281.829 488.536 281.692 488.591 281.584 488.684C281.475 488.778 281.401 488.904 281.372 489.045L280.064 495.537C280.025 495.808 280.091 496.083 280.25 496.307C280.408 496.53 280.647 496.684 280.916 496.737C280.995 496.748 281.076 496.748 281.156 496.737C284 496.629 284.228 496.449 287.816 496.377C290.024 496.377 296.684 496.437 299.732 496.377C302.78 496.317 303.116 493.293 301.868 493.041C296.24 491.937 292.004 490.329 290.18 488.757C289.829 488.483 289.386 488.354 288.944 488.397Z" fill="#132043"/>
<path d="M289.567 489.166C289.532 489.161 289.5 489.144 289.476 489.117C289.452 489.091 289.438 489.058 289.435 489.022C289.426 488.99 289.428 488.956 289.441 488.925C289.454 488.895 289.478 488.869 289.507 488.854C289.759 488.686 292.075 487.198 292.891 487.594C292.984 487.636 293.063 487.703 293.118 487.788C293.173 487.873 293.203 487.973 293.203 488.074C293.227 488.245 293.208 488.419 293.147 488.58C293.086 488.742 292.986 488.885 292.855 488.998C292.452 489.289 291.959 489.429 291.463 489.394C290.825 489.39 290.189 489.314 289.567 489.166ZM290.059 488.914C290.911 489.187 291.834 489.122 292.639 488.734C292.724 488.656 292.788 488.558 292.826 488.449C292.864 488.34 292.874 488.224 292.855 488.11C292.855 487.978 292.783 487.918 292.747 487.918C292.672 487.901 292.594 487.901 292.519 487.918C291.644 488.092 290.809 488.43 290.059 488.914Z" fill="#5CADF8"/>
<path d="M289.52 489.2C289.491 489.186 289.468 489.163 289.453 489.135C289.438 489.107 289.432 489.075 289.436 489.044C289.436 488.948 289.568 486.86 290.396 486.152C290.494 486.063 290.61 485.997 290.736 485.957C290.863 485.918 290.996 485.907 291.128 485.924C291.258 485.921 291.386 485.964 291.489 486.045C291.592 486.126 291.664 486.24 291.692 486.368C291.848 487.124 290.492 488.768 289.688 489.176H289.604C289.58 489.194 289.55 489.203 289.52 489.2ZM290.624 486.356C290.129 487.021 289.845 487.82 289.808 488.648C290.552 488.072 291.452 486.836 291.344 486.368C291.344 486.368 291.344 486.2 291.092 486.2H291.008C290.865 486.203 290.728 486.258 290.624 486.356Z" fill="#5CADF8"/>
<path d="M250.724 374.277L225.32 384.945C214.82 358.845 200.54 346.293 200.54 346.293C210.716 334.089 229.508 328.473 229.508 328.473C232.284 330.732 234.678 333.422 236.6 336.441C238.719 339.72 240.565 343.168 242.12 346.749C245.895 355.616 248.777 364.838 250.724 374.277Z" fill="#5CADF8"/>
<path d="M224.444 311.301C224.444 311.301 232.424 303.165 224.78 297.801C217.136 292.437 209.552 299.601 209.552 299.601C209.552 299.601 191.396 304.173 195.38 316.233C199.364 328.293 201.908 329.289 196.208 335.553C190.508 341.817 184.7 351.057 190.652 356.877C196.604 362.697 217.124 356.457 223.28 347.529C229.436 338.601 218.228 319.677 224.444 311.301Z" fill="#132043"/>
<path d="M248.876 366.453L221.276 375.921C221.276 375.921 227.384 405.981 231.812 411.009C236.24 416.037 265.844 439.317 270.032 437.481C274.22 435.645 302 411.009 302 411.009L254.996 378.777L248.876 366.453Z" fill="#132043"/>
<path d="M244.855 372.106L250.723 370.162L249.271 367.258L243.715 369.214L244.855 372.106Z" fill="#132043"/>
<path d="M227.312 374.984L221.3 377.096L222.104 379.664L227.984 377.708L227.312 374.984Z" fill="#132043"/>
<path d="M229.243 377.292L243.679 372.504L242.599 369.6L228.451 374.58L229.243 377.292Z" fill="#132043"/>
<path opacity="0.2" d="M242.12 346.798C236.048 346.09 232.628 336.958 232.628 336.958C233.941 336.723 235.268 336.566 236.6 336.49C238.719 339.77 240.565 343.217 242.12 346.798Z" fill="#132043"/>
<path d="M229.507 328.473C236.107 327.489 250.867 332.841 252.151 332.781C253.435 332.721 267.751 321.465 267.751 321.465L271.471 324.741C271.471 324.741 256.471 340.209 253.387 340.341C250.303 340.473 234.187 339.309 234.187 339.309C234.187 339.309 230.239 337.905 229.483 334.341C229.022 332.411 229.031 330.399 229.507 328.473Z" fill="#5CADF8"/>
</svg>
