<svg width="40" height="40" viewBox="0 0 40 40" fill="none" xmlns="http://www.w3.org/2000/svg">
<path d="M3.33301 11.668L16.9412 21.1936C18.0432 21.9651 18.5942 22.3508 19.1935 22.5001C19.7228 22.6321 20.2765 22.6321 20.8058 22.5001C21.4052 22.3508 21.9562 21.9651 23.0582 21.1936L36.6663 11.668M11.333 33.3346H28.6663C31.4667 33.3346 32.8667 33.3346 33.9363 32.7896C34.8772 32.3103 35.642 31.5455 36.1213 30.6046C36.6663 29.535 36.6663 28.135 36.6663 25.3346V14.668C36.6663 11.8677 36.6663 10.4676 36.1213 9.39802C35.642 8.4572 34.8772 7.6923 33.9363 7.21294C32.8667 6.66797 31.4667 6.66797 28.6663 6.66797H11.333C8.53274 6.66797 7.13261 6.66797 6.06306 7.21294C5.12224 7.6923 4.35734 8.4572 3.87797 9.39802C3.33301 10.4676 3.33301 11.8677 3.33301 14.668V25.3346C3.33301 28.135 3.33301 29.535 3.87797 30.6046C4.35734 31.5455 5.12224 32.3103 6.06306 32.7896C7.13261 33.3346 8.53274 33.3346 11.333 33.3346Z" stroke="#44657A" stroke-width="3" stroke-linecap="round" stroke-linejoin="round"/>
</svg>
