<svg width="604" height="600" viewBox="0 0 604 600" fill="none" xmlns="http://www.w3.org/2000/svg">
<rect width="604" height="600" rx="16" fill="#F2F7FA"/>
<path d="M541.883 478.193H502.139V478.493H541.883V478.193Z" fill="#5CADF8" fill-opacity="0.3"/>
<path d="M399.465 481.461H389.037V481.761H399.465V481.461Z" fill="#5CADF8" fill-opacity="0.3"/>
<path d="M500.934 467.057H477.906V467.357H500.934V467.057Z" fill="#5CADF8" fill-opacity="0.3"/>
<path d="M116.777 469.07H64.9492V469.37H116.777V469.07Z" fill="#5CADF8" fill-opacity="0.3"/>
<path d="M135.063 469.07H127.467V469.37H135.063V469.07Z" fill="#5CADF8" fill-opacity="0.3"/>
<path d="M272.182 474.139H159.766V474.439H272.182V474.139Z" fill="#5CADF8" fill-opacity="0.3"/>
<path d="M286.402 405.366H54.7055C52.8883 405.366 51.1454 404.644 49.8604 403.359C48.5754 402.074 47.8535 400.331 47.8535 398.514V72.7979C47.8693 70.991 48.5982 69.2636 49.8815 67.9915C51.1648 66.7195 52.8986 66.0058 54.7055 66.0059H286.402C288.219 66.0059 289.962 66.7278 291.247 68.0128C292.532 69.2978 293.253 71.0406 293.253 72.8579V398.514C293.253 400.331 292.532 402.074 291.247 403.359C289.962 404.644 288.219 405.366 286.402 405.366ZM54.7055 66.2459C52.9688 66.249 51.3041 66.9403 50.0761 68.1684C48.848 69.3964 48.1567 71.0611 48.1535 72.7979V398.514C48.1567 400.251 48.848 401.915 50.0761 403.143C51.3041 404.371 52.9688 405.063 54.7055 405.066H286.402C288.138 405.063 289.803 404.371 291.031 403.143C292.259 401.915 292.95 400.251 292.954 398.514V72.7979C292.95 71.0611 292.259 69.3964 291.031 68.1684C289.803 66.9403 288.138 66.249 286.402 66.2459H54.7055Z" fill="#5CADF8" fill-opacity="0.3"/>
<path d="M545.97 405.366H314.25C312.434 405.363 310.693 404.64 309.409 403.355C308.125 402.071 307.402 400.33 307.398 398.514V72.7979C307.417 70.992 308.147 69.2664 309.43 67.995C310.712 66.7236 312.444 66.0089 314.25 66.0059H545.97C547.773 66.0121 549.501 66.7286 550.779 67.9999C552.057 69.2713 552.783 70.9952 552.798 72.7979V398.514C552.798 400.327 552.08 402.066 550.8 403.35C549.52 404.635 547.784 405.359 545.97 405.366ZM314.25 66.2459C312.514 66.249 310.849 66.9403 309.621 68.1684C308.393 69.3964 307.702 71.0611 307.698 72.7979V398.514C307.702 400.251 308.393 401.915 309.621 403.143C310.849 404.371 312.514 405.063 314.25 405.066H545.97C547.707 405.063 549.372 404.371 550.6 403.143C551.828 401.915 552.519 400.251 552.522 398.514V72.7979C552.519 71.0611 551.828 69.3964 550.6 68.1684C549.372 66.9403 547.707 66.249 545.97 66.2459H314.25Z" fill="#5CADF8" fill-opacity="0.3"/>
<path d="M602 458.887H2V459.187H602V458.887Z" fill="#5CADF8" fill-opacity="0.3"/>
<path d="M469.59 126.139H134.406V315.739H469.59V126.139Z" fill="#5CADF8" fill-opacity="0.5"/>
<path d="M471.327 312.441H132.663C131.576 312.441 130.695 313.323 130.695 314.409V318.393C130.695 319.48 131.576 320.361 132.663 320.361H471.327C472.414 320.361 473.295 319.48 473.295 318.393V314.409C473.295 313.323 472.414 312.441 471.327 312.441Z" fill="#5CADF8" fill-opacity="0.3"/>
<path d="M461.893 126.139H142.105V308.479H461.893V126.139Z" fill="#F2F7FA"/>
<path d="M319.607 348.167L303.803 330.779V320.411C303.803 319.934 303.613 319.476 303.276 319.139C302.938 318.801 302.48 318.611 302.003 318.611C301.525 318.611 301.068 318.801 300.73 319.139C300.393 319.476 300.203 319.934 300.203 320.411V330.815L284.399 348.203C282.755 350.015 285.299 352.811 286.943 351.011C291.359 346.139 295.779 341.275 300.203 336.419V349.463C300.203 349.941 300.393 350.399 300.73 350.736C301.068 351.074 301.525 351.263 302.003 351.263C302.48 351.263 302.938 351.074 303.276 350.736C303.613 350.399 303.803 349.941 303.803 349.463V336.383C308.219 341.239 312.639 346.103 317.063 350.975C318.707 352.811 321.203 349.979 319.607 348.167Z" fill="#F2F7FA"/>
<path d="M477.2 117.438H126.812C124.068 117.438 121.844 119.662 121.844 122.405V129.869C121.844 132.613 124.068 134.837 126.812 134.837H477.2C479.943 134.837 482.168 132.613 482.168 129.869V122.405C482.168 119.662 479.943 117.438 477.2 117.438Z" fill="#5CADF8" fill-opacity="0.5"/>
<path d="M226.229 352.162H84.5566V401.062H226.229V352.162Z" fill="#5CADF8" fill-opacity="0.3"/>
<path d="M226.229 401.062H84.5566V449.962H226.229V401.062Z" fill="#5CADF8" fill-opacity="0.3"/>
<path d="M138.392 401.062L156.008 352.162H128.888L111.26 401.062H138.392Z" fill="#5CADF8" fill-opacity="0.5"/>
<path d="M169.149 352.162H163.185L145.557 401.062H151.521L169.149 352.162Z" fill="#5CADF8" fill-opacity="0.5"/>
<path d="M120.757 449.962L138.385 401.062H111.253L93.625 449.962H120.757Z" fill="#5CADF8" fill-opacity="0.5"/>
<path d="M151.516 401.062H145.552L127.924 449.962H133.888L151.516 401.062Z" fill="#5CADF8" fill-opacity="0.5"/>
<path d="M226.215 359.669V354.725H84.5428V359.669H226.215Z" fill="#5CADF8" fill-opacity="0.5"/>
<path d="M226.215 408.188V403.244H84.5429V408.188H226.215Z" fill="#5CADF8" fill-opacity="0.5"/>
<path d="M159.011 382.867C159.575 382.867 160.115 382.643 160.513 382.245C160.912 381.847 161.135 381.306 161.135 380.743C161.135 380.18 160.912 379.64 160.513 379.241C160.115 378.843 159.575 378.619 159.011 378.619H151.811C151.248 378.619 150.708 378.843 150.31 379.241C149.911 379.64 149.688 380.18 149.688 380.743C149.688 381.306 149.911 381.847 150.31 382.245C150.708 382.643 151.248 382.867 151.811 382.867H159.011Z" fill="#5CADF8" fill-opacity="0.5"/>
<path d="M159.011 382.109C159.575 382.109 160.115 381.886 160.513 381.487C160.912 381.089 161.135 380.549 161.135 379.985C161.135 379.422 160.912 378.882 160.513 378.483C160.115 378.085 159.575 377.861 159.011 377.861H151.811C151.248 377.861 150.708 378.085 150.31 378.483C149.911 378.882 149.688 379.422 149.688 379.985C149.688 380.549 149.911 381.089 150.31 381.487C150.708 381.886 151.248 382.109 151.811 382.109H159.011Z" fill="#5CADF8" fill-opacity="0.3"/>
<path d="M159.01 428.012C159.547 427.972 160.049 427.73 160.416 427.335C160.782 426.94 160.986 426.421 160.986 425.882C160.986 425.343 160.782 424.824 160.416 424.429C160.049 424.034 159.547 423.792 159.01 423.752H151.81C151.273 423.792 150.771 424.034 150.404 424.429C150.038 424.824 149.834 425.343 149.834 425.882C149.834 426.421 150.038 426.94 150.404 427.335C150.771 427.73 151.273 427.972 151.81 428.012H159.01Z" fill="#5CADF8" fill-opacity="0.5"/>
<path d="M159.011 427.205C159.575 427.205 160.115 426.981 160.513 426.583C160.912 426.185 161.135 425.644 161.135 425.081C161.135 424.518 160.912 423.977 160.513 423.579C160.115 423.181 159.575 422.957 159.011 422.957H151.811C151.248 422.957 150.708 423.181 150.31 423.579C149.911 423.977 149.688 424.518 149.688 425.081C149.688 425.644 149.911 426.185 150.31 426.583C150.708 426.981 151.248 427.205 151.811 427.205H159.011Z" fill="#5CADF8" fill-opacity="0.3"/>
<path d="M82.0723 349.967V452.099H228.688V349.967H82.0723ZM223.744 447.167H87.0283V403.643H223.744V447.167ZM223.744 398.711H87.0283V355.211H223.744V398.711Z" fill="#5CADF8" fill-opacity="0.3"/>
<path d="M372.842 352.162H231.17V401.062H372.842V352.162Z" fill="#5CADF8" fill-opacity="0.3"/>
<path d="M372.842 401.062H231.17V449.962H372.842V401.062Z" fill="#5CADF8" fill-opacity="0.3"/>
<path d="M341.001 401.062L358.629 352.162H331.509L313.881 401.062H341.001Z" fill="#5CADF8" fill-opacity="0.5"/>
<path d="M371.76 352.162H365.808L348.18 401.062H354.132L371.76 352.162Z" fill="#5CADF8" fill-opacity="0.5"/>
<path d="M323.382 449.962L340.998 401.062H313.878L296.25 449.962H323.382Z" fill="#5CADF8" fill-opacity="0.5"/>
<path d="M354.125 401.062H348.173L330.545 449.962H336.509L354.125 401.062Z" fill="#5CADF8" fill-opacity="0.5"/>
<path d="M372.83 359.669V354.725H231.158V359.669H372.83Z" fill="#5CADF8" fill-opacity="0.5"/>
<path d="M372.83 408.188V403.244H231.158V408.188H372.83Z" fill="#5CADF8" fill-opacity="0.5"/>
<path d="M305.599 382.867C306.163 382.867 306.703 382.643 307.101 382.245C307.5 381.847 307.723 381.306 307.723 380.743C307.723 380.18 307.5 379.64 307.101 379.241C306.703 378.843 306.163 378.619 305.599 378.619H298.399C297.836 378.619 297.296 378.843 296.898 379.241C296.499 379.64 296.275 380.18 296.275 380.743C296.275 381.306 296.499 381.847 296.898 382.245C297.296 382.643 297.836 382.867 298.399 382.867H305.599Z" fill="#5CADF8" fill-opacity="0.5"/>
<path d="M305.599 382.111C306.163 382.111 306.703 381.887 307.101 381.489C307.5 381.091 307.723 380.551 307.723 379.987C307.723 379.424 307.5 378.884 307.101 378.485C306.703 378.087 306.163 377.863 305.599 377.863H298.399C297.836 377.863 297.296 378.087 296.898 378.485C296.499 378.884 296.275 379.424 296.275 379.987C296.275 380.551 296.499 381.091 296.898 381.489C297.296 381.887 297.836 382.111 298.399 382.111H305.599Z" fill="#5CADF8" fill-opacity="0.3"/>
<path d="M305.6 428.012C306.137 427.972 306.639 427.73 307.006 427.335C307.372 426.94 307.576 426.421 307.576 425.882C307.576 425.343 307.372 424.824 307.006 424.429C306.639 424.034 306.137 423.792 305.6 423.752H298.4C297.863 423.792 297.36 424.034 296.994 424.429C296.627 424.824 296.424 425.343 296.424 425.882C296.424 426.421 296.627 426.94 296.994 427.335C297.36 427.73 297.863 427.972 298.4 428.012H305.6Z" fill="#5CADF8" fill-opacity="0.5"/>
<path d="M305.599 427.205C306.163 427.205 306.703 426.981 307.101 426.583C307.5 426.185 307.723 425.644 307.723 425.081C307.723 424.518 307.5 423.977 307.101 423.579C306.703 423.181 306.163 422.957 305.599 422.957H298.399C297.836 422.957 297.296 423.181 296.898 423.579C296.499 423.977 296.275 424.518 296.275 425.081C296.275 425.644 296.499 426.185 296.898 426.583C297.296 426.981 297.836 427.205 298.399 427.205H305.599Z" fill="#5CADF8" fill-opacity="0.3"/>
<path d="M228.686 349.967V452.099H375.302V349.967H228.686ZM370.358 447.167H233.594V403.643H370.394L370.358 447.167ZM370.358 398.711H233.594V355.211H370.394L370.358 398.711Z" fill="#5CADF8" fill-opacity="0.3"/>
<path d="M519.457 352.162H377.785V401.062H519.457V352.162Z" fill="#5CADF8" fill-opacity="0.3"/>
<path d="M519.457 401.062H377.785V449.962H519.457V401.062Z" fill="#5CADF8" fill-opacity="0.3"/>
<path d="M467.487 401.062L485.115 352.162H457.983L440.355 401.062H467.487Z" fill="#5CADF8" fill-opacity="0.5"/>
<path d="M498.244 352.162H492.28L474.652 401.062H480.616L498.244 352.162Z" fill="#5CADF8" fill-opacity="0.5"/>
<path d="M449.866 449.962L467.494 401.062H440.362L422.734 449.962H449.866Z" fill="#5CADF8" fill-opacity="0.5"/>
<path d="M480.623 401.062H474.659L457.031 449.962H462.995L480.623 401.062Z" fill="#5CADF8" fill-opacity="0.5"/>
<path d="M519.457 359.682V354.738H377.785V359.682H519.457Z" fill="#5CADF8" fill-opacity="0.5"/>
<path d="M519.443 408.2V403.256H377.771V408.2H519.443Z" fill="#5CADF8" fill-opacity="0.5"/>
<path d="M452.24 382.867C452.803 382.867 453.344 382.643 453.742 382.245C454.14 381.847 454.364 381.306 454.364 380.743C454.364 380.18 454.14 379.64 453.742 379.241C453.344 378.843 452.803 378.619 452.24 378.619H445.04C444.477 378.619 443.936 378.843 443.538 379.241C443.14 379.64 442.916 380.18 442.916 380.743C442.916 381.306 443.14 381.847 443.538 382.245C443.936 382.643 444.477 382.867 445.04 382.867H452.24Z" fill="#5CADF8" fill-opacity="0.5"/>
<path d="M452.24 382.109C452.803 382.109 453.344 381.886 453.742 381.487C454.14 381.089 454.364 380.549 454.364 379.985C454.364 379.422 454.14 378.882 453.742 378.483C453.344 378.085 452.803 377.861 452.24 377.861H445.04C444.477 377.861 443.936 378.085 443.538 378.483C443.14 378.882 442.916 379.422 442.916 379.985C442.916 380.549 443.14 381.089 443.538 381.487C443.936 381.886 444.477 382.109 445.04 382.109H452.24Z" fill="#5CADF8" fill-opacity="0.3"/>
<path d="M452.239 428.012C452.776 427.972 453.278 427.73 453.644 427.335C454.011 426.94 454.215 426.421 454.215 425.882C454.215 425.343 454.011 424.824 453.644 424.429C453.278 424.034 452.776 423.792 452.239 423.752H445.039C444.501 423.792 443.999 424.034 443.633 424.429C443.266 424.824 443.063 425.343 443.062 425.882C443.063 426.421 443.266 426.94 443.633 427.335C443.999 427.73 444.501 427.972 445.039 428.012H452.239Z" fill="#5CADF8" fill-opacity="0.5"/>
<path d="M452.24 427.205C452.803 427.205 453.344 426.981 453.742 426.583C454.14 426.185 454.364 425.644 454.364 425.081C454.364 424.518 454.14 423.977 453.742 423.579C453.344 423.181 452.803 422.957 452.24 422.957H445.04C444.477 422.957 443.936 423.181 443.538 423.579C443.14 423.977 442.916 424.518 442.916 425.081C442.916 425.644 443.14 426.185 443.538 426.583C443.936 426.981 444.477 427.205 445.04 427.205H452.24Z" fill="#5CADF8" fill-opacity="0.3"/>
<path d="M375.314 349.967V452.099H521.93V349.967H375.314ZM516.974 447.167H380.258V403.643H516.974V447.167ZM516.974 398.711H380.258V355.211H516.974V398.711Z" fill="#5CADF8" fill-opacity="0.3"/>
<path d="M507.737 459.446H96.2574L94.1094 452.09H509.885L507.737 459.446Z" fill="#5CADF8" fill-opacity="0.5"/>
<path d="M296.217 508.461C424.716 508.461 528.885 502.379 528.885 494.877C528.885 487.375 424.716 481.293 296.217 481.293C167.718 481.293 63.5488 487.375 63.5488 494.877C63.5488 502.379 167.718 508.461 296.217 508.461Z" fill="#5CADF8" fill-opacity="0.3"/>
<path d="M312.491 146.812L308.075 231.112C308.006 232.173 308.156 233.237 308.517 234.237C308.878 235.237 309.442 236.152 310.173 236.924C310.905 237.695 311.787 238.308 312.767 238.722C313.746 239.137 314.8 239.344 315.863 239.332H427.307C429.52 239.309 431.642 238.448 433.245 236.923C434.848 235.397 435.814 233.321 435.947 231.112L440.375 146.812C440.443 145.752 440.291 144.689 439.929 143.689C439.568 142.69 439.004 141.776 438.273 141.005C437.542 140.233 436.66 139.621 435.681 139.206C434.703 138.791 433.65 138.582 432.587 138.592H321.191C318.969 138.603 316.834 139.458 315.218 140.985C313.603 142.511 312.628 144.594 312.491 146.812Z" fill="#5CADF8"/>
<path opacity="0.5" d="M312.491 146.812L308.075 231.112C308.006 232.173 308.156 233.237 308.517 234.237C308.878 235.237 309.442 236.152 310.173 236.924C310.905 237.695 311.787 238.308 312.767 238.722C313.746 239.137 314.8 239.344 315.863 239.332H427.307C429.52 239.309 431.642 238.448 433.245 236.923C434.848 235.397 435.814 233.321 435.947 231.112L440.375 146.812C440.443 145.752 440.291 144.689 439.929 143.689C439.568 142.69 439.004 141.776 438.273 141.005C437.542 140.233 436.66 139.621 435.681 139.206C434.703 138.791 433.65 138.582 432.587 138.592H321.191C318.969 138.603 316.834 139.458 315.218 140.985C313.603 142.511 312.628 144.594 312.491 146.812Z" fill="#F2F7FA"/>
<path d="M435.349 138.592H432.589C433.651 138.582 434.705 138.791 435.683 139.206C436.661 139.621 437.543 140.233 438.274 141.005C439.005 141.776 439.569 142.69 439.931 143.689C440.293 144.689 440.444 145.752 440.377 146.812L435.949 231.112C435.815 233.321 434.85 235.397 433.246 236.923C431.643 238.448 429.521 239.309 427.309 239.332H430.069C432.281 239.309 434.403 238.448 436.006 236.923C437.61 235.397 438.575 233.321 438.709 231.112L443.137 146.812C443.204 145.752 443.053 144.689 442.691 143.689C442.329 142.69 441.765 141.776 441.034 141.005C440.303 140.233 439.421 139.621 438.443 139.206C437.465 138.791 436.411 138.582 435.349 138.592Z" fill="#5CADF8"/>
<path d="M321.743 147.896L317.447 230.012H426.647L430.955 147.896H321.743ZM429.611 161.096H417.083L417.731 148.556H430.271L429.611 161.096ZM373.499 189.596L372.851 201.788H360.671L361.307 189.596H373.499ZM361.379 188.216L362.015 176.024H374.207L373.571 188.216H361.379ZM374.879 189.596H387.059L386.423 201.788H374.231L374.879 189.596ZM374.951 188.216L375.587 176.024H387.779L387.191 188.264L374.951 188.216ZM389.159 176.024H401.351L400.703 188.216H388.511L389.159 176.024ZM389.231 174.644L389.867 162.464H402.059L401.423 174.644H389.231ZM387.851 174.644H375.659L376.295 162.464H388.487L387.851 174.644ZM374.279 174.644H362.087L362.723 162.464H374.915L374.279 174.644ZM360.707 174.644H348.515L349.151 162.464H361.343L360.707 174.644ZM360.635 176.024L359.999 188.216H347.807L348.443 176.024H360.635ZM346.391 188.264H334.235L334.871 176.072H347.063L346.391 188.264ZM346.391 189.596L345.755 201.788H333.527L334.163 189.596H346.391ZM347.771 189.596H359.963L359.327 201.788H347.099L347.771 189.596ZM359.255 203.168L358.607 215.36H346.391L347.039 203.168H359.255ZM360.635 203.168H372.791L372.155 215.36H359.951L360.635 203.168ZM374.195 203.168H386.351L385.715 215.36H373.523L374.195 203.168ZM387.767 203.168H399.959L399.323 215.36H387.095L387.767 203.168ZM387.839 201.788L388.391 189.596H400.631L399.995 201.788H387.839ZM402.011 189.596H414.203L413.591 201.836H401.375L402.011 189.596ZM402.083 188.216L402.731 176.024H414.911L414.275 188.216H402.083ZM402.803 174.644L403.439 162.464H415.631L414.983 174.644H402.803ZM403.511 161.084L404.171 148.544H416.351L415.703 161.084H403.511ZM402.131 161.084H389.939L390.599 148.544H402.791L402.131 161.084ZM388.559 161.084H376.391L377.051 148.544H389.243L388.559 161.084ZM374.987 161.084H362.795L363.455 148.544H375.647L374.987 161.084ZM361.415 161.084H349.235L349.883 148.544H362.075L361.415 161.084ZM347.855 161.084H335.663L336.311 148.544H348.503L347.855 161.084ZM347.771 162.464L347.135 174.644H334.943L335.591 162.464H347.771ZM333.563 174.644H321.035L321.671 162.464H334.211L333.563 174.644ZM333.491 176.024L332.855 188.216H320.327L320.963 176.024H333.491ZM332.783 189.596L332.147 201.788H319.607L320.255 189.596H332.783ZM332.075 203.168L331.439 215.36H318.899L319.535 203.168H332.075ZM333.455 203.168H345.647L344.999 215.36H332.819L333.455 203.168ZM344.927 216.74L344.279 229.268H332.087L332.747 216.74H344.927ZM346.307 216.74H358.499L357.851 229.268H345.659L346.307 216.74ZM359.879 216.74H372.071L371.411 229.268H359.231L359.879 216.74ZM373.451 216.74H385.643L384.983 229.268H372.791L373.451 216.74ZM387.023 216.74H399.191L398.531 229.268H386.363L387.023 216.74ZM400.595 216.74H412.787L412.127 229.268H399.935L400.595 216.74ZM400.667 215.36L401.303 203.168H413.495L412.859 215.36H400.667ZM414.875 203.168H427.403L426.791 215.408H414.239L414.875 203.168ZM414.947 201.788L415.583 189.596H428.123L427.475 201.788H414.947ZM415.655 188.216L416.291 176.024H428.831L428.195 188.216H415.655ZM416.363 174.644L417.011 162.464H429.539L428.903 174.644H416.363ZM334.931 148.544L334.283 161.084H321.743L322.403 148.544H334.931ZM318.791 216.788H331.331L330.671 229.316H318.167L318.791 216.788ZM413.471 229.316L414.131 216.788H426.659L425.999 229.316H413.471Z" fill="#5CADF8"/>
<path opacity="0.25" d="M321.743 147.896L317.447 230.012H426.647L430.955 147.896H321.743ZM429.611 161.096H417.083L417.731 148.556H430.271L429.611 161.096ZM373.499 189.596L372.851 201.788H360.671L361.307 189.596H373.499ZM361.379 188.216L362.015 176.024H374.207L373.571 188.216H361.379ZM374.879 189.596H387.059L386.423 201.788H374.231L374.879 189.596ZM374.951 188.216L375.587 176.024H387.779L387.191 188.264L374.951 188.216ZM389.159 176.024H401.351L400.703 188.216H388.511L389.159 176.024ZM389.231 174.644L389.867 162.464H402.059L401.423 174.644H389.231ZM387.851 174.644H375.659L376.295 162.464H388.487L387.851 174.644ZM374.279 174.644H362.087L362.723 162.464H374.915L374.279 174.644ZM360.707 174.644H348.515L349.151 162.464H361.343L360.707 174.644ZM360.635 176.024L359.999 188.216H347.807L348.443 176.024H360.635ZM346.391 188.264H334.235L334.871 176.072H347.063L346.391 188.264ZM346.391 189.596L345.755 201.788H333.527L334.163 189.596H346.391ZM347.771 189.596H359.963L359.327 201.788H347.099L347.771 189.596ZM359.255 203.168L358.607 215.36H346.391L347.039 203.168H359.255ZM360.635 203.168H372.791L372.155 215.36H359.951L360.635 203.168ZM374.195 203.168H386.351L385.715 215.36H373.523L374.195 203.168ZM387.767 203.168H399.959L399.323 215.36H387.095L387.767 203.168ZM387.839 201.788L388.391 189.596H400.631L399.995 201.788H387.839ZM402.011 189.596H414.203L413.591 201.836H401.375L402.011 189.596ZM402.083 188.216L402.731 176.024H414.911L414.275 188.216H402.083ZM402.803 174.644L403.439 162.464H415.631L414.983 174.644H402.803ZM403.511 161.084L404.171 148.544H416.351L415.703 161.084H403.511ZM402.131 161.084H389.939L390.599 148.544H402.791L402.131 161.084ZM388.559 161.084H376.391L377.051 148.544H389.243L388.559 161.084ZM374.987 161.084H362.795L363.455 148.544H375.647L374.987 161.084ZM361.415 161.084H349.235L349.883 148.544H362.075L361.415 161.084ZM347.855 161.084H335.663L336.311 148.544H348.503L347.855 161.084ZM347.771 162.464L347.135 174.644H334.943L335.591 162.464H347.771ZM333.563 174.644H321.035L321.671 162.464H334.211L333.563 174.644ZM333.491 176.024L332.855 188.216H320.327L320.963 176.024H333.491ZM332.783 189.596L332.147 201.788H319.607L320.255 189.596H332.783ZM332.075 203.168L331.439 215.36H318.899L319.535 203.168H332.075ZM333.455 203.168H345.647L344.999 215.36H332.819L333.455 203.168ZM344.927 216.74L344.279 229.268H332.087L332.747 216.74H344.927ZM346.307 216.74H358.499L357.851 229.268H345.659L346.307 216.74ZM359.879 216.74H372.071L371.411 229.268H359.231L359.879 216.74ZM373.451 216.74H385.643L384.983 229.268H372.791L373.451 216.74ZM387.023 216.74H399.191L398.531 229.268H386.363L387.023 216.74ZM400.595 216.74H412.787L412.127 229.268H399.935L400.595 216.74ZM400.667 215.36L401.303 203.168H413.495L412.859 215.36H400.667ZM414.875 203.168H427.403L426.791 215.408H414.239L414.875 203.168ZM414.947 201.788L415.583 189.596H428.123L427.475 201.788H414.947ZM415.655 188.216L416.291 176.024H428.831L428.195 188.216H415.655ZM416.363 174.644L417.011 162.464H429.539L428.903 174.644H416.363ZM334.931 148.544L334.283 161.084H321.743L322.403 148.544H334.931ZM318.791 216.788H331.331L330.671 229.316H318.167L318.791 216.788ZM413.471 229.316L414.131 216.788H426.659L425.999 229.316H413.471Z" fill="#F2F7FA"/>
<path opacity="0.1" d="M408.711 195.475L376.395 192.151L406.647 180.919L406.983 174.607C400.983 165.691 388.467 159.607 373.623 159.607C352.359 159.607 334.455 172.111 333.651 187.531C333.651 187.975 333.651 188.419 333.651 188.863C333.651 189.307 333.363 193.399 333.339 193.843C332.535 209.275 349.119 221.767 370.395 221.767C387.855 221.767 403.035 213.367 408.363 201.799L408.711 195.475Z" fill="#132043"/>
<path opacity="0.1" d="M394.328 186.726L430.832 194.67C432.005 192.175 432.689 189.478 432.848 186.726C432.848 185.946 432.848 185.19 432.848 184.422C432.985 183.628 433.073 182.826 433.112 182.022C433.329 177.425 432.03 172.885 429.416 169.098L394.616 182.022L394.328 186.726Z" fill="#132043"/>
<path d="M406.102 192.72L373.822 189.396L404.074 178.164L404.41 171.852C398.41 162.936 385.894 156.852 371.05 156.852C349.786 156.852 331.882 169.356 331.078 184.776C331.078 185.22 331.078 185.664 331.078 186.108C331.078 186.552 330.79 190.644 330.766 191.088C329.962 206.52 346.546 219.012 367.822 219.012C385.282 219.012 400.462 210.612 405.79 199.044L406.102 192.72Z" fill="#5CADF8"/>
<path d="M369.583 184.801L404.383 171.877C398.383 162.961 385.867 156.877 371.023 156.877C349.759 156.877 331.855 169.381 331.051 184.801C330.247 200.221 346.831 212.725 368.095 212.725C385.567 212.725 400.747 204.325 406.076 192.745L369.583 184.801Z" fill="#F2F7FA"/>
<path d="M391.703 183.97L428.207 191.914C429.38 189.418 430.064 186.722 430.223 183.97C430.223 183.19 430.223 182.434 430.223 181.666C430.36 180.872 430.448 180.07 430.487 179.266C430.701 174.673 429.403 170.137 426.791 166.354L391.991 179.278L391.703 183.97Z" fill="#5CADF8"/>
<path d="M428.458 187.198C429.629 184.703 430.31 182.006 430.462 179.254C430.68 174.668 429.391 170.137 426.79 166.354L391.99 179.278L428.458 187.198Z" fill="#F2F7FA"/>
<path opacity="0.1" d="M326.702 200.272L329.942 138.592H321.194C318.98 138.615 316.857 139.476 315.252 141.001C313.646 142.526 312.678 144.602 312.542 146.812L308.126 231.112C308.056 232.173 308.207 233.237 308.568 234.237C308.929 235.237 309.493 236.151 310.224 236.923C310.955 237.695 311.838 238.307 312.817 238.722C313.797 239.136 314.851 239.344 315.914 239.332H368.714L369.518 224.104C369.621 222.367 369.367 220.628 368.771 218.994C368.176 217.36 367.25 215.865 366.053 214.603C364.857 213.341 363.413 212.338 361.813 211.656C360.213 210.974 358.489 210.628 356.75 210.64H321.482C323.013 209.359 324.266 207.778 325.163 205.995C326.061 204.212 326.585 202.265 326.702 200.272Z" fill="#132043"/>
<path d="M194.5 115.638L190.072 199.95C190.005 201.011 190.156 202.074 190.518 203.073C190.88 204.072 191.444 204.986 192.175 205.758C192.906 206.529 193.788 207.142 194.766 207.557C195.744 207.972 196.798 208.181 197.86 208.17H309.304C311.518 208.147 313.642 207.287 315.247 205.762C316.852 204.237 317.82 202.16 317.956 199.95L322.396 115.638C322.466 114.578 322.315 113.515 321.954 112.515C321.593 111.516 321.029 110.602 320.298 109.831C319.566 109.06 318.683 108.449 317.704 108.036C316.725 107.623 315.671 107.416 314.608 107.43H203.14C200.929 107.451 198.807 108.309 197.203 109.832C195.6 111.356 194.634 113.431 194.5 115.638Z" fill="#5CADF8"/>
<path opacity="0.5" d="M194.5 115.638L190.072 199.95C190.005 201.011 190.156 202.074 190.518 203.073C190.88 204.072 191.444 204.986 192.175 205.758C192.906 206.529 193.788 207.142 194.766 207.557C195.744 207.972 196.798 208.181 197.86 208.17H309.304C311.518 208.147 313.642 207.287 315.247 205.762C316.852 204.237 317.82 202.16 317.956 199.95L322.396 115.638C322.466 114.578 322.315 113.515 321.954 112.515C321.593 111.516 321.029 110.602 320.298 109.831C319.566 109.06 318.683 108.449 317.704 108.036C316.725 107.623 315.671 107.416 314.608 107.43H203.14C200.929 107.451 198.807 108.309 197.203 109.832C195.6 111.356 194.634 113.431 194.5 115.638Z" fill="#F2F7FA"/>
<path d="M317.346 107.431H314.586C315.651 107.413 316.707 107.617 317.689 108.029C318.671 108.44 319.557 109.051 320.291 109.822C321.025 110.594 321.591 111.509 321.954 112.51C322.317 113.511 322.468 114.576 322.398 115.639L317.982 199.951C317.846 202.161 316.878 204.237 315.272 205.762C313.667 207.287 311.544 208.148 309.33 208.171H312.09C314.304 208.148 316.427 207.287 318.032 205.762C319.638 204.237 320.606 202.161 320.742 199.951L325.158 115.639C325.228 114.576 325.077 113.511 324.714 112.51C324.351 111.509 323.785 110.594 323.051 109.822C322.317 109.051 321.431 108.44 320.449 108.029C319.467 107.617 318.411 107.413 317.346 107.431Z" fill="#5CADF8"/>
<path d="M203.753 116.75L199.445 198.854H308.705L313.001 116.75H203.753ZM311.621 129.95H299.081L299.741 117.41H312.281L311.621 129.95ZM255.497 158.474L254.861 170.654H242.669L243.305 158.474H255.497ZM243.389 157.094L244.025 144.902H256.217L255.569 157.094H243.389ZM256.877 158.474H269.069L268.397 170.678H256.241L256.877 158.474ZM256.949 157.094L257.597 144.902H269.777L269.141 157.094H256.949ZM271.157 144.902H283.349L282.713 157.094H270.521L271.157 144.902ZM271.229 143.522L271.877 131.33H284.069L283.421 143.522H271.229ZM269.849 143.522H257.669L258.305 131.33H270.497L269.849 143.522ZM256.289 143.522H244.097L244.733 131.33H256.925L256.289 143.522ZM242.717 143.522H230.525L231.161 131.33H243.353L242.717 143.522ZM242.645 144.902L241.997 157.118H229.817L230.453 144.926L242.645 144.902ZM228.437 157.118H216.245L216.881 144.926H229.073L228.437 157.118ZM228.365 158.498L227.717 170.678H215.597L216.233 158.498H228.365ZM229.745 158.498H241.925L241.289 170.678H229.097L229.745 158.498ZM241.217 172.058L240.581 184.25H228.389L229.025 172.058H241.217ZM242.597 172.058H254.789L254.153 184.25H241.997L242.597 172.058ZM256.169 172.058H268.397L267.761 184.25H255.533L256.169 172.058ZM269.741 172.058H281.933L281.285 184.25H269.105L269.741 172.058ZM269.813 170.678L270.449 158.498H282.641L282.005 170.678H269.813ZM283.997 158.498H296.189L295.553 170.678H283.385L283.997 158.498ZM284.069 157.118L284.705 144.926H296.897L296.261 157.118H284.069ZM284.777 143.546L285.425 131.354H297.605L296.969 143.546H284.777ZM285.497 129.974L286.145 117.434H298.397L297.737 129.974H285.497ZM284.117 129.974H271.997L272.645 117.434H284.837L284.117 129.974ZM270.545 129.974H258.377L259.037 117.434H271.217L270.545 129.974ZM256.973 129.974H244.805L245.465 117.434H257.657L256.973 129.974ZM243.401 129.974H231.197L231.857 117.434H244.049L243.401 129.974ZM229.829 129.974H217.661L218.321 117.434H230.513L229.829 129.974ZM229.757 131.354L229.121 143.546H216.953L217.589 131.354H229.757ZM215.597 143.546H203.045L203.681 131.354H216.209L215.597 143.546ZM215.525 144.926L214.889 157.118H202.325L202.961 144.926H215.525ZM214.817 158.498L214.181 170.678H201.617L202.253 158.498H214.817ZM214.109 172.058L213.461 184.25H200.909L201.545 172.058H214.109ZM215.489 172.058H227.597L226.961 184.25H214.817L215.489 172.058ZM226.961 185.63L226.301 198.17H214.097L214.745 185.63H226.961ZM228.341 185.63H240.533L239.873 198.17H227.657L228.341 185.63ZM241.913 185.63H254.105L253.445 198.17H241.229L241.913 185.63ZM255.485 185.63H267.677L267.017 198.17H254.801L255.485 185.63ZM269.057 185.63H281.237L280.589 198.17H268.397L269.057 185.63ZM282.617 185.63H294.797L294.149 198.17H281.945L282.617 185.63ZM282.689 184.25L283.337 172.058H295.529L294.881 184.25H282.689ZM296.909 172.058H309.437L308.801 184.25H296.237L296.909 172.058ZM296.981 170.678L297.617 158.498H310.145L309.509 170.678H296.981ZM297.689 157.118L298.325 144.926H310.865L310.217 157.118H297.689ZM298.397 143.546L299.033 131.354H311.597L310.961 143.546H298.397ZM216.941 117.434L216.281 129.974H203.753L204.413 117.434H216.941ZM200.837 185.63H213.365L212.717 198.17H200.177L200.837 185.63ZM295.517 198.17L296.165 185.63H308.705L307.997 198.17H295.517Z" fill="#5CADF8"/>
<path opacity="0.25" d="M203.753 116.75L199.445 198.854H308.705L313.001 116.75H203.753ZM311.621 129.95H299.081L299.741 117.41H312.281L311.621 129.95ZM255.497 158.474L254.861 170.654H242.669L243.305 158.474H255.497ZM243.389 157.094L244.025 144.902H256.217L255.569 157.094H243.389ZM256.877 158.474H269.069L268.397 170.678H256.241L256.877 158.474ZM256.949 157.094L257.597 144.902H269.777L269.141 157.094H256.949ZM271.157 144.902H283.349L282.713 157.094H270.521L271.157 144.902ZM271.229 143.522L271.877 131.33H284.069L283.421 143.522H271.229ZM269.849 143.522H257.669L258.305 131.33H270.497L269.849 143.522ZM256.289 143.522H244.097L244.733 131.33H256.925L256.289 143.522ZM242.717 143.522H230.525L231.161 131.33H243.353L242.717 143.522ZM242.645 144.902L241.997 157.118H229.817L230.453 144.926L242.645 144.902ZM228.437 157.118H216.245L216.881 144.926H229.073L228.437 157.118ZM228.365 158.498L227.717 170.678H215.597L216.233 158.498H228.365ZM229.745 158.498H241.925L241.289 170.678H229.097L229.745 158.498ZM241.217 172.058L240.581 184.25H228.389L229.025 172.058H241.217ZM242.597 172.058H254.789L254.153 184.25H241.997L242.597 172.058ZM256.169 172.058H268.397L267.761 184.25H255.533L256.169 172.058ZM269.741 172.058H281.933L281.285 184.25H269.105L269.741 172.058ZM269.813 170.678L270.449 158.498H282.641L282.005 170.678H269.813ZM283.997 158.498H296.189L295.553 170.678H283.385L283.997 158.498ZM284.069 157.118L284.705 144.926H296.897L296.261 157.118H284.069ZM284.777 143.546L285.425 131.354H297.605L296.969 143.546H284.777ZM285.497 129.974L286.145 117.434H298.397L297.737 129.974H285.497ZM284.117 129.974H271.997L272.645 117.434H284.837L284.117 129.974ZM270.545 129.974H258.377L259.037 117.434H271.217L270.545 129.974ZM256.973 129.974H244.805L245.465 117.434H257.657L256.973 129.974ZM243.401 129.974H231.197L231.857 117.434H244.049L243.401 129.974ZM229.829 129.974H217.661L218.321 117.434H230.513L229.829 129.974ZM229.757 131.354L229.121 143.546H216.953L217.589 131.354H229.757ZM215.597 143.546H203.045L203.681 131.354H216.209L215.597 143.546ZM215.525 144.926L214.889 157.118H202.325L202.961 144.926H215.525ZM214.817 158.498L214.181 170.678H201.617L202.253 158.498H214.817ZM214.109 172.058L213.461 184.25H200.909L201.545 172.058H214.109ZM215.489 172.058H227.597L226.961 184.25H214.817L215.489 172.058ZM226.961 185.63L226.301 198.17H214.097L214.745 185.63H226.961ZM228.341 185.63H240.533L239.873 198.17H227.657L228.341 185.63ZM241.913 185.63H254.105L253.445 198.17H241.229L241.913 185.63ZM255.485 185.63H267.677L267.017 198.17H254.801L255.485 185.63ZM269.057 185.63H281.237L280.589 198.17H268.397L269.057 185.63ZM282.617 185.63H294.797L294.149 198.17H281.945L282.617 185.63ZM282.689 184.25L283.337 172.058H295.529L294.881 184.25H282.689ZM296.909 172.058H309.437L308.801 184.25H296.237L296.909 172.058ZM296.981 170.678L297.617 158.498H310.145L309.509 170.678H296.981ZM297.689 157.118L298.325 144.926H310.865L310.217 157.118H297.689ZM298.397 143.546L299.033 131.354H311.597L310.961 143.546H298.397ZM216.941 117.434L216.281 129.974H203.753L204.413 117.434H216.941ZM200.837 185.63H213.365L212.717 198.17H200.177L200.837 185.63ZM295.517 198.17L296.165 185.63H308.705L307.997 198.17H295.517Z" fill="#F2F7FA"/>
<path opacity="0.1" d="M289.464 133.414L291.756 135.838L269.856 156.658L256.992 143.086L240.324 158.926L227.004 183.034L214.14 169.462L199.992 195.094L199.668 201.262H202.752L215.172 178.786L228.024 192.358L244.692 162.19L256.584 150.898L269.448 164.458L295.464 139.738L297.756 142.162L298.212 133.414H289.464Z" fill="#132043"/>
<path d="M289.619 130.658L291.899 133.082L269.999 153.902L257.135 140.33L240.467 156.17L227.147 180.278L214.283 166.718L200.135 192.338L199.811 198.518H202.895L215.315 176.03L228.167 189.602L244.835 159.434L256.727 148.13L269.591 161.702L295.607 136.982L297.899 139.406L298.355 130.658H289.619Z" fill="#F2F7FA"/>
<path d="M249.934 223.775L246.094 297.095C246.034 298.017 246.166 298.941 246.48 299.809C246.794 300.678 247.284 301.472 247.92 302.142C248.555 302.813 249.322 303.344 250.172 303.705C251.023 304.065 251.939 304.245 252.862 304.235H349.774C351.697 304.215 353.54 303.467 354.934 302.142C356.327 300.817 357.168 299.014 357.286 297.095L361.138 223.775C361.196 222.853 361.063 221.929 360.747 221.06C360.432 220.192 359.941 219.398 359.304 218.727C358.668 218.057 357.9 217.526 357.049 217.166C356.198 216.806 355.282 216.625 354.358 216.635H257.458C255.534 216.656 253.689 217.403 252.294 218.727C250.898 220.052 250.055 221.855 249.934 223.775Z" fill="#5CADF8"/>
<path opacity="0.5" d="M249.934 223.775L246.094 297.095C246.034 298.017 246.166 298.941 246.48 299.809C246.794 300.678 247.284 301.472 247.92 302.142C248.555 302.813 249.322 303.344 250.172 303.705C251.023 304.065 251.939 304.245 252.862 304.235H349.774C351.697 304.215 353.54 303.467 354.934 302.142C356.327 300.817 357.168 299.014 357.286 297.095L361.138 223.775C361.196 222.853 361.063 221.929 360.747 221.06C360.432 220.192 359.941 219.398 359.304 218.727C358.668 218.057 357.9 217.526 357.049 217.166C356.198 216.806 355.282 216.625 354.358 216.635H257.458C255.534 216.656 253.689 217.403 252.294 218.727C250.898 220.052 250.055 221.855 249.934 223.775Z" fill="#F2F7FA"/>
<path d="M356.757 216.635H354.357C355.281 216.625 356.198 216.806 357.049 217.166C357.9 217.526 358.667 218.057 359.304 218.727C359.94 219.398 360.431 220.192 360.747 221.06C361.062 221.929 361.195 222.853 361.137 223.775L357.285 297.095C357.167 299.014 356.327 300.817 354.933 302.142C353.54 303.467 351.696 304.215 349.773 304.235H352.173C354.096 304.215 355.94 303.467 357.333 302.142C358.727 300.817 359.567 299.014 359.685 297.095L363.537 223.775C363.595 222.853 363.462 221.929 363.147 221.06C362.831 220.192 362.34 219.398 361.704 218.727C361.067 218.057 360.3 217.526 359.449 217.166C358.598 216.806 357.681 216.625 356.757 216.635Z" fill="#5CADF8"/>
<path d="M257.98 224.738L254.236 296.138H349.24L352.972 224.738H257.98ZM351.772 236.234H340.876L341.44 225.338H352.396L351.772 236.234ZM302.98 261.038L302.416 271.634H291.82L292.372 261.038H302.98ZM292.432 259.838L292.996 249.242H303.592L303.04 259.838H292.432ZM304.18 261.038H314.776L314.224 271.634H303.616L304.18 261.038ZM304.24 259.838L304.792 249.242H315.388L314.836 259.838H304.24ZM316.588 249.242H327.196L326.632 259.838H316.036L316.588 249.242ZM316.66 248.042L317.212 237.434H327.808L327.256 248.042H316.66ZM315.46 248.042H304.852L305.416 237.434H316.012L315.46 248.042ZM303.652 248.042H293.056L293.608 237.434H304.216L303.652 248.042ZM291.856 248.042H281.26L281.812 237.434H292.396L291.856 248.042ZM291.796 249.242L291.232 259.838H280.636L281.188 249.242H291.796ZM279.436 259.838H268.84L269.392 249.242H279.988L279.436 259.838ZM279.436 261.038L278.884 271.634H268.276L268.84 261.038H279.436ZM280.636 261.038H291.196L290.644 271.634H280.048L280.636 261.038ZM290.62 272.834L289.996 283.442H279.4L279.952 272.834H290.62ZM291.82 272.834H302.416L301.864 283.442H291.196L291.82 272.834ZM303.616 272.834H314.212L313.66 283.442H303.064L303.616 272.834ZM315.412 272.834H325.996L325.432 283.442H314.836L315.412 272.834ZM315.484 271.634L316.036 261.038H326.632L326.08 271.634H315.484ZM327.832 261.038H338.44L337.876 271.634H327.196L327.832 261.038ZM327.832 259.838L328.396 249.242H338.992L338.44 259.838H327.832ZM328.456 248.042L329.008 237.434H339.616L339.052 248.042H328.456ZM329.08 236.234L329.644 225.338H340.24L339.676 236.234H329.08ZM327.88 236.234H317.272L317.848 225.338H328.396L327.88 236.234ZM316.072 236.234H305.476L306.04 225.338H316.648L316.072 236.234ZM304.276 236.234H293.68L294.244 225.338H304.84L304.276 236.234ZM292.48 236.234H281.872L282.448 225.338H293.044L292.48 236.234ZM280.672 236.234H270.076L270.64 225.338H281.248L280.672 236.234ZM280.672 237.434L280.12 248.042H269.512L270.076 237.434H280.672ZM268.312 248.042H257.356L257.908 237.434H268.816L268.312 248.042ZM268.312 249.242L267.76 259.838H256.852L257.416 249.242H268.312ZM267.7 261.038L267.136 271.634H256.24L256.792 261.038H267.7ZM267.076 272.834L266.524 283.442H255.616L256.18 272.834H267.076ZM268.276 272.834H278.872L278.32 283.442H267.724L268.276 272.834ZM278.26 284.642L277.684 295.538H267.088L267.652 284.642H278.26ZM279.46 284.642H289.996L289.432 295.538H278.824L279.46 284.642ZM291.256 284.642H301.852L301.288 295.538H290.692L291.256 284.642ZM303.052 284.642H313.66L313.084 295.538H302.488L303.052 284.642ZM314.86 284.642H325.456L324.892 295.538H314.284L314.86 284.642ZM326.656 284.642H337.252L336.688 295.538H325.996L326.656 284.642ZM326.716 283.442L327.28 272.834H337.876L337.324 283.442H326.716ZM339.076 272.834H349.972L349.42 283.442H338.524L339.076 272.834ZM339.136 271.634L339.7 261.038H350.596L350.044 271.634H339.136ZM339.76 259.838L340.312 249.242H351.208L350.656 259.838H339.76ZM340.372 248.042L340.936 237.434H351.832L351.196 248.042H340.372ZM269.572 225.338L269.008 236.234H258.112L258.676 225.338H269.572ZM255.436 284.642H266.332L265.768 295.538H254.872L255.436 284.642ZM337.768 295.538L338.332 284.642H349.24L348.664 295.538H337.768Z" fill="#5CADF8"/>
<path opacity="0.25" d="M257.98 224.738L254.236 296.138H349.24L352.972 224.738H257.98ZM351.772 236.234H340.876L341.44 225.338H352.396L351.772 236.234ZM302.98 261.038L302.416 271.634H291.82L292.372 261.038H302.98ZM292.432 259.838L292.996 249.242H303.592L303.04 259.838H292.432ZM304.18 261.038H314.776L314.224 271.634H303.616L304.18 261.038ZM304.24 259.838L304.792 249.242H315.388L314.836 259.838H304.24ZM316.588 249.242H327.196L326.632 259.838H316.036L316.588 249.242ZM316.66 248.042L317.212 237.434H327.808L327.256 248.042H316.66ZM315.46 248.042H304.852L305.416 237.434H316.012L315.46 248.042ZM303.652 248.042H293.056L293.608 237.434H304.216L303.652 248.042ZM291.856 248.042H281.26L281.812 237.434H292.396L291.856 248.042ZM291.796 249.242L291.232 259.838H280.636L281.188 249.242H291.796ZM279.436 259.838H268.84L269.392 249.242H279.988L279.436 259.838ZM279.436 261.038L278.884 271.634H268.276L268.84 261.038H279.436ZM280.636 261.038H291.196L290.644 271.634H280.048L280.636 261.038ZM290.62 272.834L289.996 283.442H279.4L279.952 272.834H290.62ZM291.82 272.834H302.416L301.864 283.442H291.196L291.82 272.834ZM303.616 272.834H314.212L313.66 283.442H303.064L303.616 272.834ZM315.412 272.834H325.996L325.432 283.442H314.836L315.412 272.834ZM315.484 271.634L316.036 261.038H326.632L326.08 271.634H315.484ZM327.832 261.038H338.44L337.876 271.634H327.196L327.832 261.038ZM327.832 259.838L328.396 249.242H338.992L338.44 259.838H327.832ZM328.456 248.042L329.008 237.434H339.616L339.052 248.042H328.456ZM329.08 236.234L329.644 225.338H340.24L339.676 236.234H329.08ZM327.88 236.234H317.272L317.848 225.338H328.396L327.88 236.234ZM316.072 236.234H305.476L306.04 225.338H316.648L316.072 236.234ZM304.276 236.234H293.68L294.244 225.338H304.84L304.276 236.234ZM292.48 236.234H281.872L282.448 225.338H293.044L292.48 236.234ZM280.672 236.234H270.076L270.64 225.338H281.248L280.672 236.234ZM280.672 237.434L280.12 248.042H269.512L270.076 237.434H280.672ZM268.312 248.042H257.356L257.908 237.434H268.816L268.312 248.042ZM268.312 249.242L267.76 259.838H256.852L257.416 249.242H268.312ZM267.7 261.038L267.136 271.634H256.24L256.792 261.038H267.7ZM267.076 272.834L266.524 283.442H255.616L256.18 272.834H267.076ZM268.276 272.834H278.872L278.32 283.442H267.724L268.276 272.834ZM278.26 284.642L277.684 295.538H267.088L267.652 284.642H278.26ZM279.46 284.642H289.996L289.432 295.538H278.824L279.46 284.642ZM291.256 284.642H301.852L301.288 295.538H290.692L291.256 284.642ZM303.052 284.642H313.66L313.084 295.538H302.488L303.052 284.642ZM314.86 284.642H325.456L324.892 295.538H314.284L314.86 284.642ZM326.656 284.642H337.252L336.688 295.538H325.996L326.656 284.642ZM326.716 283.442L327.28 272.834H337.876L337.324 283.442H326.716ZM339.076 272.834H349.972L349.42 283.442H338.524L339.076 272.834ZM339.136 271.634L339.7 261.038H350.596L350.044 271.634H339.136ZM339.76 259.838L340.312 249.242H351.208L350.656 259.838H339.76ZM340.372 248.042L340.936 237.434H351.832L351.196 248.042H340.372ZM269.572 225.338L269.008 236.234H258.112L258.676 225.338H269.572ZM255.436 284.642H266.332L265.768 295.538H254.872L255.436 284.642ZM337.768 295.538L338.332 284.642H349.24L348.664 295.538H337.768Z" fill="#F2F7FA"/>
<g opacity="0.1">
<path d="M266.845 297.942H261.217L262.477 273.846H268.117L266.845 297.942Z" fill="#132043"/>
<path d="M279.195 288.546H273.555L275.307 255.246H280.935L279.195 288.546Z" fill="#132043"/>
<path d="M291.626 277.527H285.986L287.606 246.555H293.246L291.626 277.527Z" fill="#132043"/>
<path d="M303.208 282.547H297.58L299.308 249.547H304.936L303.208 282.547Z" fill="#132043"/>
<path d="M315.492 274.298H309.852L311.616 240.686H317.244L315.492 274.298Z" fill="#132043"/>
<path d="M326.982 280.911H321.354L323.154 246.555H328.782L326.982 280.911Z" fill="#132043"/>
<path d="M339.31 271.898H333.682L335.626 234.83H341.254L339.31 271.898Z" fill="#132043"/>
<path d="M351.464 266.049H345.836L347.876 227.145H353.504L351.464 266.049Z" fill="#132043"/>
</g>
<path d="M265.773 295.537H260.133L261.405 271.441H267.033L265.773 295.537Z" fill="#F2F7FA"/>
<path d="M278.101 286.142H272.473L274.213 252.842H279.853L278.101 286.142Z" fill="#F2F7FA"/>
<path d="M290.532 275.109H284.904L286.524 244.137H292.152L290.532 275.109Z" fill="#F2F7FA"/>
<path d="M302.122 280.143H296.482L298.21 247.143H303.85L302.122 280.143Z" fill="#F2F7FA"/>
<path d="M314.409 271.882H308.781L310.545 238.27H316.173L314.409 271.882Z" fill="#F2F7FA"/>
<path d="M325.911 278.493H320.271L322.071 244.137H327.711L325.911 278.493Z" fill="#F2F7FA"/>
<path d="M338.238 269.48H332.598L334.542 232.412H340.182L338.238 269.48Z" fill="#F2F7FA"/>
<path d="M350.392 263.642H344.752L346.792 224.738H352.432L350.392 263.642Z" fill="#F2F7FA"/>
<path d="M400.267 125.554L398.971 150.334C398.953 150.645 398.999 150.956 399.106 151.249C399.213 151.541 399.38 151.808 399.595 152.033C399.81 152.258 400.069 152.437 400.356 152.557C400.643 152.678 400.951 152.738 401.263 152.734H427.519C428.167 152.727 428.788 152.476 429.259 152.031C429.731 151.587 430.017 150.981 430.063 150.334L431.359 125.554C431.379 125.244 431.334 124.933 431.228 124.641C431.122 124.349 430.957 124.082 430.743 123.856C430.529 123.631 430.27 123.452 429.984 123.332C429.698 123.211 429.389 123.151 429.079 123.154H402.799C402.153 123.165 401.534 123.417 401.066 123.862C400.597 124.306 400.312 124.91 400.267 125.554Z" fill="#5CADF8"/>
<path opacity="0.6" d="M400.267 125.554L398.971 150.334C398.953 150.645 398.999 150.956 399.106 151.249C399.213 151.541 399.38 151.808 399.595 152.033C399.81 152.258 400.069 152.437 400.356 152.557C400.643 152.678 400.951 152.738 401.263 152.734H427.519C428.167 152.727 428.788 152.476 429.259 152.031C429.731 151.587 430.017 150.981 430.063 150.334L431.359 125.554C431.379 125.244 431.334 124.933 431.228 124.641C431.122 124.349 430.957 124.082 430.743 123.856C430.529 123.631 430.27 123.452 429.984 123.332C429.698 123.211 429.389 123.151 429.079 123.154H402.799C402.153 123.165 401.534 123.417 401.066 123.862C400.597 124.306 400.312 124.91 400.267 125.554Z" fill="#F2F7FA"/>
<path d="M430.998 123.141H429.078C429.388 123.137 429.697 123.197 429.983 123.318C430.269 123.439 430.528 123.617 430.742 123.843C430.956 124.068 431.121 124.335 431.227 124.627C431.333 124.92 431.377 125.231 431.358 125.541L430.062 150.321C430.016 150.967 429.73 151.573 429.258 152.018C428.787 152.462 428.166 152.713 427.518 152.721H429.438C430.086 152.713 430.707 152.462 431.178 152.018C431.65 151.573 431.936 150.967 431.982 150.321L433.278 125.541C433.297 125.231 433.253 124.92 433.147 124.627C433.041 124.335 432.876 124.068 432.662 123.843C432.448 123.617 432.189 123.439 431.903 123.318C431.617 123.197 431.308 123.137 430.998 123.141Z" fill="#5CADF8"/>
<path opacity="0.2" d="M430.998 123.141H429.078C429.388 123.137 429.697 123.197 429.983 123.318C430.269 123.439 430.528 123.617 430.742 123.843C430.956 124.068 431.121 124.335 431.227 124.627C431.333 124.92 431.377 125.231 431.358 125.541L430.062 150.321C430.016 150.967 429.73 151.573 429.258 152.018C428.787 152.462 428.166 152.713 427.518 152.721H429.438C430.086 152.713 430.707 152.462 431.178 152.018C431.65 151.573 431.936 150.967 431.982 150.321L433.278 125.541C433.297 125.231 433.253 124.92 433.147 124.627C433.041 124.335 432.876 124.068 432.662 123.843C432.448 123.617 432.189 123.439 431.903 123.318C431.617 123.197 431.308 123.137 430.998 123.141Z" fill="#F2F7FA"/>
<path d="M406.236 133.055C406.235 132.479 406.348 131.909 406.571 131.379C406.794 130.848 407.121 130.368 407.532 129.966C407.944 129.564 408.433 129.249 408.969 129.04C409.505 128.83 410.077 128.731 410.652 128.747C411.227 128.727 411.799 128.824 412.335 129.033C412.87 129.242 413.358 129.557 413.767 129.96C414.177 130.363 414.501 130.845 414.718 131.377C414.936 131.909 415.042 132.48 415.032 133.055C414.973 134.181 414.484 135.242 413.666 136.019C412.848 136.796 411.763 137.229 410.634 137.229C409.506 137.229 408.421 136.796 407.603 136.019C406.784 135.242 406.295 134.181 406.236 133.055ZM419.796 131.387L421.476 132.347L409.992 145.043L408.312 144.059L419.796 131.387ZM411.996 133.055C411.989 132.789 411.904 132.531 411.751 132.313C411.599 132.095 411.385 131.926 411.138 131.829C410.89 131.731 410.619 131.709 410.359 131.764C410.098 131.82 409.86 131.95 409.674 132.14C409.487 132.33 409.361 132.571 409.31 132.832C409.259 133.093 409.286 133.363 409.388 133.609C409.49 133.855 409.662 134.066 409.882 134.215C410.103 134.363 410.362 134.444 410.628 134.447C410.81 134.447 410.99 134.41 411.157 134.34C411.325 134.27 411.477 134.167 411.604 134.037C411.732 133.908 411.832 133.754 411.899 133.585C411.966 133.417 412 133.236 411.996 133.055ZM415.284 142.847C415.265 141.972 415.507 141.112 415.979 140.376C416.45 139.639 417.131 139.06 417.933 138.711C418.735 138.363 419.623 138.261 420.483 138.419C421.343 138.577 422.137 138.988 422.763 139.598C423.389 140.209 423.819 140.992 423.998 141.848C424.177 142.704 424.097 143.594 423.769 144.405C423.44 145.215 422.878 145.91 422.153 146.399C421.429 146.889 420.575 147.152 419.7 147.155C419.122 147.169 418.546 147.067 418.007 146.854C417.469 146.641 416.979 146.322 416.567 145.915C416.155 145.508 415.829 145.023 415.608 144.487C415.388 143.952 415.278 143.378 415.284 142.799V142.847ZM421.044 142.847C421.044 142.487 420.901 142.142 420.647 141.888C420.393 141.633 420.048 141.491 419.688 141.491C419.329 141.491 418.984 141.633 418.73 141.888C418.475 142.142 418.332 142.487 418.332 142.847C418.324 143.028 418.353 143.208 418.417 143.378C418.481 143.547 418.579 143.702 418.705 143.832C418.831 143.962 418.982 144.065 419.149 144.135C419.316 144.205 419.495 144.24 419.676 144.239C419.862 144.239 420.046 144.201 420.217 144.128C420.388 144.055 420.542 143.948 420.67 143.813C420.798 143.678 420.897 143.519 420.962 143.344C421.026 143.17 421.054 142.984 421.044 142.799V142.847Z" fill="#5CADF8"/>
<path d="M331.163 112.615L330.191 131.035C330.176 131.267 330.209 131.499 330.288 131.718C330.367 131.937 330.491 132.137 330.651 132.306C330.811 132.475 331.004 132.609 331.218 132.7C331.432 132.791 331.662 132.837 331.895 132.835H351.431C351.915 132.829 352.378 132.64 352.728 132.306C353.078 131.972 353.288 131.517 353.315 131.035L354.287 112.615C354.302 112.382 354.269 112.15 354.19 111.931C354.11 111.712 353.987 111.512 353.827 111.343C353.667 111.174 353.474 111.04 353.26 110.949C353.046 110.858 352.816 110.812 352.583 110.815H333.047C332.563 110.82 332.1 111.009 331.75 111.343C331.4 111.677 331.19 112.132 331.163 112.615Z" fill="#5CADF8"/>
<path opacity="0.6" d="M331.163 112.615L330.191 131.035C330.176 131.267 330.209 131.499 330.288 131.718C330.367 131.937 330.491 132.137 330.651 132.306C330.811 132.475 331.004 132.609 331.218 132.7C331.432 132.791 331.662 132.837 331.895 132.835H351.431C351.915 132.829 352.378 132.64 352.728 132.306C353.078 131.972 353.288 131.517 353.315 131.035L354.287 112.615C354.302 112.382 354.269 112.15 354.19 111.931C354.11 111.712 353.987 111.512 353.827 111.343C353.667 111.174 353.474 111.04 353.26 110.949C353.046 110.858 352.816 110.812 352.583 110.815H333.047C332.563 110.82 332.1 111.009 331.75 111.343C331.4 111.677 331.19 112.132 331.163 112.615Z" fill="#F2F7FA"/>
<path d="M354.012 110.815H352.584C352.816 110.812 353.047 110.858 353.261 110.949C353.475 111.04 353.668 111.174 353.828 111.343C353.988 111.512 354.111 111.712 354.19 111.931C354.269 112.15 354.302 112.382 354.288 112.615L353.316 131.035C353.288 131.517 353.078 131.972 352.729 132.306C352.379 132.64 351.915 132.829 351.432 132.835H352.86C353.343 132.829 353.807 132.64 354.157 132.306C354.506 131.972 354.716 131.517 354.744 131.035L355.716 112.615C355.73 112.382 355.697 112.15 355.618 111.931C355.539 111.712 355.416 111.512 355.256 111.343C355.096 111.174 354.903 111.04 354.689 110.949C354.475 110.858 354.244 110.812 354.012 110.815Z" fill="#5CADF8"/>
<path opacity="0.2" d="M354.012 110.815H352.584C352.816 110.812 353.047 110.858 353.261 110.949C353.475 111.04 353.668 111.174 353.828 111.343C353.988 111.512 354.111 111.712 354.19 111.931C354.269 112.15 354.302 112.382 354.288 112.615L353.316 131.035C353.288 131.517 353.078 131.972 352.729 132.306C352.379 132.64 351.915 132.829 351.432 132.835H352.86C353.343 132.829 353.807 132.64 354.157 132.306C354.506 131.972 354.716 131.517 354.744 131.035L355.716 112.615C355.73 112.382 355.697 112.15 355.618 111.931C355.539 111.712 355.416 111.512 355.256 111.343C355.096 111.174 354.903 111.04 354.689 110.949C354.475 110.858 354.244 110.812 354.012 110.815Z" fill="#F2F7FA"/>
<path d="M349.128 123.92H344.328V128.72H340.128V123.92H335.328V119.732H340.128V114.932H344.328V119.732H349.128V123.92Z" fill="#5CADF8"/>
<path d="M368.887 247.413L367.927 265.845C367.913 266.077 367.948 266.308 368.028 266.525C368.108 266.743 368.231 266.941 368.391 267.109C368.551 267.276 368.743 267.409 368.956 267.5C369.17 267.59 369.399 267.635 369.631 267.633H389.167C389.648 267.628 390.11 267.441 390.46 267.109C390.809 266.778 391.02 266.326 391.051 265.845L392.023 247.413C392.037 247.181 392.004 246.949 391.925 246.73C391.846 246.511 391.723 246.311 391.563 246.142C391.403 245.973 391.21 245.839 390.996 245.748C390.782 245.657 390.551 245.611 390.319 245.613H370.783C370.298 245.618 369.833 245.807 369.481 246.141C369.129 246.475 368.917 246.929 368.887 247.413Z" fill="#5CADF8"/>
<path opacity="0.6" d="M368.887 247.413L367.927 265.845C367.913 266.077 367.948 266.308 368.028 266.525C368.108 266.743 368.231 266.941 368.391 267.109C368.551 267.276 368.743 267.409 368.956 267.5C369.17 267.59 369.399 267.635 369.631 267.633H389.167C389.648 267.628 390.11 267.441 390.46 267.109C390.809 266.778 391.02 266.326 391.051 265.845L392.023 247.413C392.037 247.181 392.004 246.949 391.925 246.73C391.846 246.511 391.723 246.311 391.563 246.142C391.403 245.973 391.21 245.839 390.996 245.748C390.782 245.657 390.551 245.611 390.319 245.613H370.783C370.298 245.618 369.833 245.807 369.481 246.141C369.129 246.475 368.917 246.929 368.887 247.413Z" fill="#F2F7FA"/>
<path d="M391.748 245.613H390.32C390.553 245.611 390.783 245.657 390.997 245.748C391.211 245.839 391.404 245.973 391.564 246.142C391.724 246.311 391.847 246.511 391.927 246.73C392.006 246.949 392.039 247.181 392.024 247.413L391.052 265.845C391.022 266.326 390.811 266.778 390.461 267.109C390.112 267.441 389.65 267.628 389.168 267.633H390.596C391.078 267.628 391.54 267.441 391.889 267.109C392.239 266.778 392.45 266.326 392.48 265.845L393.452 247.413C393.467 247.181 393.434 246.949 393.355 246.73C393.275 246.511 393.152 246.311 392.992 246.142C392.832 245.973 392.639 245.839 392.425 245.748C392.211 245.657 391.981 245.611 391.748 245.613Z" fill="#5CADF8"/>
<path opacity="0.2" d="M391.748 245.613H390.32C390.553 245.611 390.783 245.657 390.997 245.748C391.211 245.839 391.404 245.973 391.564 246.142C391.724 246.311 391.847 246.511 391.927 246.73C392.006 246.949 392.039 247.181 392.024 247.413L391.052 265.845C391.022 266.326 390.811 266.778 390.461 267.109C390.112 267.441 389.65 267.628 389.168 267.633H390.596C391.078 267.628 391.54 267.441 391.889 267.109C392.239 266.778 392.45 266.326 392.48 265.845L393.452 247.413C393.467 247.181 393.434 246.949 393.355 246.73C393.275 246.511 393.152 246.311 392.992 246.142C392.832 245.973 392.639 245.839 392.425 245.748C392.211 245.657 391.981 245.611 391.748 245.613Z" fill="#F2F7FA"/>
<path d="M386.145 258.715H373.797V254.527H386.145V258.715Z" fill="#5CADF8"/>
<path d="M242.528 237.425L241.22 262.205C241.204 262.516 241.251 262.826 241.359 263.118C241.467 263.409 241.633 263.675 241.848 263.9C242.063 264.125 242.321 264.303 242.607 264.425C242.893 264.546 243.201 264.607 243.512 264.605H269.78C270.427 264.601 271.049 264.35 271.519 263.905C271.989 263.459 272.272 262.852 272.312 262.205L273.62 237.425C273.636 237.115 273.589 236.805 273.481 236.513C273.373 236.222 273.207 235.955 272.992 235.731C272.777 235.506 272.519 235.327 272.233 235.206C271.947 235.085 271.639 235.023 271.328 235.025H245.06C244.412 235.03 243.791 235.281 243.321 235.726C242.851 236.172 242.567 236.779 242.528 237.425Z" fill="#5CADF8"/>
<path opacity="0.6" d="M242.528 237.425L241.22 262.205C241.204 262.516 241.251 262.826 241.359 263.118C241.467 263.409 241.633 263.675 241.848 263.9C242.063 264.125 242.321 264.303 242.607 264.425C242.893 264.546 243.201 264.607 243.512 264.605H269.78C270.427 264.601 271.049 264.35 271.519 263.905C271.989 263.459 272.272 262.852 272.312 262.205L273.62 237.425C273.636 237.115 273.589 236.805 273.481 236.513C273.373 236.222 273.207 235.955 272.992 235.731C272.777 235.506 272.519 235.327 272.233 235.206C271.947 235.085 271.639 235.023 271.328 235.025H245.06C244.412 235.03 243.791 235.281 243.321 235.726C242.851 236.172 242.567 236.779 242.528 237.425Z" fill="#F2F7FA"/>
<path d="M273.195 235.013H271.275C271.585 235.011 271.893 235.073 272.179 235.194C272.466 235.315 272.724 235.494 272.939 235.718C273.153 235.943 273.32 236.209 273.428 236.501C273.536 236.792 273.583 237.103 273.567 237.413L272.259 262.193C272.219 262.84 271.936 263.447 271.466 263.892C270.996 264.338 270.374 264.588 269.727 264.593H271.647C272.294 264.588 272.916 264.338 273.386 263.892C273.856 263.447 274.139 262.84 274.179 262.193L275.595 237.425C275.614 237.104 275.565 236.783 275.451 236.483C275.337 236.182 275.161 235.909 274.935 235.682C274.708 235.454 274.436 235.277 274.136 235.161C273.836 235.046 273.515 234.996 273.195 235.013Z" fill="#5CADF8"/>
<path opacity="0.2" d="M273.195 235.013H271.275C271.585 235.011 271.893 235.073 272.179 235.194C272.466 235.315 272.724 235.494 272.939 235.718C273.153 235.943 273.32 236.209 273.428 236.501C273.536 236.792 273.583 237.103 273.567 237.413L272.259 262.193C272.219 262.84 271.936 263.447 271.466 263.892C270.996 264.338 270.374 264.588 269.727 264.593H271.647C272.294 264.588 272.916 264.338 273.386 263.892C273.856 263.447 274.139 262.84 274.179 262.193L275.595 237.425C275.614 237.104 275.565 236.783 275.451 236.483C275.337 236.182 275.161 235.909 274.935 235.682C274.708 235.454 274.436 235.277 274.136 235.161C273.836 235.046 273.515 234.996 273.195 235.013Z" fill="#F2F7FA"/>
<path d="M258.551 258.206V260.246H256.919V258.23C255.749 258.22 254.609 257.858 253.647 257.19C252.686 256.522 251.949 255.58 251.531 254.486L254.723 252.626C254.884 253.116 255.172 253.554 255.558 253.896C255.944 254.238 256.414 254.47 256.919 254.57V251.378C256.835 251.378 256.715 251.306 256.619 251.258C254.603 250.454 252.203 249.314 252.203 246.218C252.203 244.96 252.697 243.751 253.579 242.854C254.461 241.956 255.661 241.44 256.919 241.418V239.402H258.551V241.466C259.544 241.561 260.493 241.923 261.296 242.515C262.099 243.107 262.727 243.906 263.111 244.826L259.991 246.65C259.889 246.305 259.707 245.989 259.458 245.728C259.21 245.467 258.903 245.269 258.563 245.15V248.27C260.579 249.134 263.303 249.902 263.303 253.274C263.291 256.178 261.299 257.882 258.551 258.206ZM256.919 247.514V245.114C256.635 245.16 256.377 245.307 256.192 245.527C256.007 245.747 255.908 246.027 255.911 246.314C255.911 246.674 256.115 247.046 256.919 247.514ZM259.583 253.322C259.583 252.746 259.247 252.398 258.551 252.05V254.522C258.84 254.482 259.103 254.337 259.293 254.117C259.483 253.896 259.586 253.614 259.583 253.322Z" fill="#5CADF8"/>
<path d="M270.115 102.635H288.931C289.855 102.635 289.987 101.195 289.051 101.195H270.235C269.311 101.195 269.179 102.635 270.115 102.635Z" fill="#5CADF8"/>
<path d="M295.817 102.635H301.229C302.153 102.635 302.285 101.195 301.349 101.195H295.997C295.061 101.195 294.941 102.635 295.865 102.635H295.817Z" fill="#5CADF8"/>
<path d="M332.901 309.908H314.085C313.149 309.908 313.029 311.348 313.953 311.348H332.769C333.693 311.348 333.825 309.908 332.901 309.908Z" fill="#5CADF8"/>
<path d="M307.184 309.908H301.784C300.848 309.908 300.728 311.348 301.652 311.348H307.064C307.988 311.348 308.108 309.908 307.184 309.908Z" fill="#5CADF8"/>
<path d="M388.705 479.332L387.397 489.292L376.645 488.728L377.341 477.736L388.705 479.332Z" fill="#FAB27B"/>
<path d="M371.238 489.148C369.846 489.148 368.406 488.836 367.95 488.236C367.821 488.062 367.752 487.852 367.752 487.636C367.752 487.42 367.821 487.209 367.95 487.036C368.147 486.732 368.451 486.513 368.802 486.424C370.686 485.956 374.562 488.272 374.802 488.368C374.85 488.397 374.887 488.44 374.909 488.492C374.931 488.544 374.935 488.601 374.922 488.656C374.912 488.708 374.886 488.756 374.847 488.793C374.808 488.83 374.759 488.853 374.706 488.86C373.562 489.065 372.4 489.161 371.238 489.148ZM369.498 486.928C369.324 486.924 369.15 486.944 368.982 486.988C368.874 487.007 368.77 487.049 368.679 487.111C368.588 487.173 368.512 487.254 368.454 487.348C368.25 487.672 368.322 487.84 368.394 487.924C368.898 488.668 371.742 488.74 373.83 488.524C372.501 487.72 371.031 487.179 369.498 486.928Z" fill="#5CADF8"/>
<path d="M374.641 488.891C374.625 488.899 374.606 488.904 374.587 488.904C374.568 488.904 374.55 488.899 374.533 488.891C373.201 488.267 370.549 485.771 370.813 484.511C370.813 484.211 371.077 483.839 371.809 483.791C372.075 483.764 372.344 483.793 372.598 483.876C372.852 483.959 373.086 484.093 373.285 484.271C374.701 485.471 374.941 488.519 374.953 488.651C374.953 488.697 374.942 488.743 374.922 488.785C374.901 488.827 374.871 488.863 374.833 488.891C374.772 488.915 374.703 488.915 374.641 488.891ZM371.977 484.283H371.833C371.353 484.283 371.317 484.499 371.293 484.571C371.209 485.327 372.949 487.271 374.317 488.171C374.208 486.894 373.714 485.681 372.901 484.691C372.645 484.468 372.317 484.344 371.977 484.343V484.283Z" fill="#5CADF8"/>
<path d="M375.874 487.341L388.15 487.581C388.375 487.583 388.593 487.663 388.766 487.807C388.939 487.952 389.056 488.152 389.098 488.373L391.126 498.405C391.176 498.645 391.172 498.894 391.113 499.132C391.055 499.37 390.944 499.593 390.789 499.782C390.634 499.972 390.438 500.125 390.216 500.229C389.994 500.334 389.751 500.387 389.506 500.385C385.09 500.217 381.106 499.905 375.646 499.809C369.142 499.677 370.774 500.493 363.13 500.445C358.522 500.445 357.778 495.165 359.734 494.949C368.698 494.001 369.682 491.349 373.186 488.181C373.949 487.581 374.905 487.282 375.874 487.341Z" fill="#132043"/>
<path opacity="0.2" d="M376.986 483.52H388.17L388.71 479.332L377.346 477.736L376.986 483.52Z" fill="#132043"/>
<path d="M379.386 398.488L374.934 476.464H391.35L404.346 398.488H379.386Z" fill="#132043"/>
<path opacity="0.3" d="M379.386 398.488L374.934 476.464H391.35L404.346 398.488H379.386Z" fill="#132043"/>
<path d="M392.757 475.201H372.981C372.576 475.962 372.411 476.828 372.507 477.685C372.604 478.542 372.957 479.349 373.521 480.001L392.637 480.217C392.637 480.217 394.401 479.041 392.757 475.201Z" fill="#5CADF8"/>
<path d="M442.093 276.897L441.373 285.489L454.621 284.973L453.793 274.617L442.093 276.897Z" fill="#FAB27B"/>
<path d="M464.742 287.529C464.742 287.529 473.658 287.529 481.926 314.985C483.234 319.305 488.034 331.977 488.034 331.977L467.766 329.577L465.81 307.197L464.742 287.529Z" fill="#132043"/>
<path d="M404.257 279.709C403.969 278.881 397.549 280.369 389.929 283.045C382.309 285.721 376.369 288.553 376.657 289.381C376.945 290.209 383.365 288.721 390.985 286.057C398.605 283.393 404.545 280.549 404.257 279.709Z" fill="#5CADF8"/>
<path d="M394.734 281.465L396.774 280.865L397.698 283.493L395.73 284.297L394.734 281.465Z" fill="#5CADF8"/>
<path opacity="0.5" d="M394.734 281.465L396.774 280.865L397.698 283.493L395.73 284.297L394.734 281.465Z" fill="#F2F7FA"/>
<path d="M402.096 279.2C402.648 277.616 395.82 279.656 395.424 279.8C395.028 279.944 394.728 279.2 395.208 279.044C395.688 278.888 403.992 276.14 402.852 279.404C402.696 279.872 401.928 279.68 402.096 279.2Z" fill="#5CADF8"/>
<g opacity="0.2">
<path d="M402.104 279.187C402.656 277.603 395.828 279.643 395.432 279.787C395.036 279.931 394.736 279.187 395.216 279.031C395.696 278.875 404 276.127 402.86 279.391C402.704 279.859 401.936 279.667 402.104 279.187Z" fill="#132043"/>
</g>
<path d="M393.648 312.993L390.864 300.645L394.812 294.033C395.152 293.466 395.299 292.805 395.232 292.149L394.992 289.917C394.943 289.437 395.005 288.952 395.172 288.501L395.688 287.169C395.915 286.578 395.953 285.932 395.796 285.319C395.639 284.706 395.295 284.157 394.812 283.749L394.056 283.113C393.681 282.789 393.232 282.563 392.748 282.455C392.265 282.346 391.762 282.358 391.284 282.489C388.356 283.317 382.296 285.825 380.736 292.617L383.136 300.849L386.256 315.525L393.648 312.993Z" fill="#FAB27B"/>
<path d="M393.804 310.293V304.629C389.657 305.44 385.944 307.724 383.352 311.061L385.092 316.617L393.804 310.293Z" fill="#5CADF8"/>
<path d="M433.373 289.278C434.365 287.517 435.777 286.03 437.484 284.947C439.19 283.865 441.138 283.221 443.153 283.074C449.909 282.75 459.377 283.074 459.377 283.074L461.021 291.246L433.373 289.278Z" fill="#132043"/>
<path d="M408.082 375.876C408.082 375.876 412.654 320.976 418.882 302.352C425.11 283.728 436.882 286.008 451.282 286.332C465.682 286.656 470.554 287.64 472.522 295.488C474.49 303.336 465.658 366.72 465.658 366.72L463.666 382.404L408.082 375.876Z" fill="#132043"/>
<path opacity="0.1" d="M408.082 375.876C408.082 375.876 412.654 320.976 418.882 302.352C425.11 283.728 436.882 286.008 451.282 286.332C465.682 286.656 470.554 287.64 472.522 295.488C474.49 303.336 465.658 366.72 465.658 366.72L463.666 382.404L408.082 375.876Z" fill="#F2F7FA"/>
<path d="M432.524 287.074C427.472 287.074 422.06 287.878 410.036 313.678C407.804 318.478 405.716 322.354 403.076 322.93C400.436 323.506 395.336 308.878 395.336 308.878C395.336 308.878 389.132 308.446 383.9 315.418C383.9 315.418 386.732 341.122 400.568 341.122C414.404 341.122 426.464 323.482 430.664 314.542C434.864 305.602 444.164 287.134 432.524 287.074Z" fill="#132043"/>
<path opacity="0.1" d="M432.524 287.074C427.472 287.074 422.06 287.878 410.036 313.678C407.804 318.478 405.716 322.354 403.076 322.93C400.436 323.506 395.336 308.878 395.336 308.878C395.336 308.878 389.132 308.446 383.9 315.418C383.9 315.418 386.732 341.122 400.568 341.122C414.404 341.122 426.464 323.482 430.664 314.542C434.864 305.602 444.164 287.134 432.524 287.074Z" fill="#132043"/>
<path opacity="0.2" d="M441.738 281.169C442.766 280.954 443.736 280.522 444.582 279.901C445.429 279.28 446.132 278.485 446.646 277.569L444.834 276.369L442.098 276.897L441.738 281.169Z" fill="#132043"/>
<path d="M434.901 252.446C434.625 253.154 434.769 253.862 435.237 254.042C435.705 254.222 436.365 253.79 436.617 253.094C436.869 252.398 436.761 251.678 436.281 251.498C435.801 251.318 435.201 251.75 434.901 252.446Z" fill="#132043"/>
<path d="M435.62 255.113L429.908 259.265C430.416 259.92 431.067 260.449 431.812 260.811C432.557 261.173 433.376 261.359 434.204 261.353L435.62 255.113Z" fill="#ED893E"/>
<path d="M463.92 260.407C460.584 269.899 459.372 274.003 452.964 277.615C443.892 280.615 432.072 276.979 432.432 266.683C432.756 257.419 438.156 243.475 448.98 242.179C452.636 241.725 456.323 242.73 459.243 244.976C462.163 247.223 464.081 250.529 464.58 254.179C464.854 256.278 464.628 258.412 463.92 260.407Z" fill="#FAB27B"/>
<path d="M437.869 246.341C437.926 246.372 437.974 246.417 438.01 246.472C438.045 246.526 438.067 246.588 438.073 246.653C438.098 247.15 438.242 247.634 438.493 248.064C438.743 248.494 439.093 248.858 439.513 249.125C439.604 249.174 439.673 249.256 439.704 249.355C439.736 249.454 439.727 249.561 439.681 249.653C439.625 249.747 439.536 249.816 439.43 249.845C439.325 249.875 439.212 249.862 439.117 249.809C438.581 249.484 438.133 249.033 437.811 248.496C437.489 247.958 437.303 247.351 437.269 246.725C437.262 246.672 437.266 246.618 437.282 246.566C437.297 246.515 437.324 246.467 437.359 246.426C437.394 246.386 437.437 246.353 437.485 246.33C437.534 246.307 437.587 246.294 437.641 246.293C437.719 246.291 437.797 246.308 437.869 246.341Z" fill="#132043"/>
<path d="M441.382 261.41L438.502 258.734C440.339 255.805 441.454 252.482 441.754 249.038C441.754 249.038 432.982 239.57 440.746 237.962C440.746 237.962 441.37 227.042 448.582 233.654C448.582 233.654 454.582 225.254 456.358 234.998C456.358 234.998 461.554 233.138 458.494 237.998C458.494 237.998 469.942 237.662 465.358 242.918C465.358 242.918 479.35 254.438 467.266 263.642C467.266 263.642 471.79 265.562 470.086 267.506C468.382 269.45 466.126 265.718 466.126 265.718C466.126 265.718 470.002 273.722 461.23 274.262C461.23 274.262 460.99 279.386 454.03 277.55C454.03 277.55 452.302 275.15 447.766 276.434C447.766 276.434 448.534 268.73 441.382 261.41Z" fill="#132043"/>
<path d="M443.31 257.027C442.379 257.464 441.545 258.082 440.855 258.844C440.165 259.606 439.633 260.497 439.29 261.467C438.402 264.047 440.742 265.499 443.31 264.923C445.638 264.395 448.878 262.403 448.65 259.739C448.422 257.075 445.638 255.959 443.31 257.027Z" fill="#FAB27B"/>
<path d="M425.451 375.603C425.451 375.603 365.703 366.003 358.179 390.003C350.655 414.003 338.979 448.479 338.979 448.479L352.995 455.319C352.995 455.319 375.914 412.911 377.618 405.387L410.115 405.735L421.743 391.335L425.451 375.603Z" fill="#132043"/>
<path d="M349.665 456.247L345.093 465.199L335.145 461.071L339.477 450.943L349.665 456.247Z" fill="#FAB27B"/>
<path d="M329.913 459.597C328.605 459.093 327.333 458.397 327.117 457.617C327.069 457.416 327.085 457.205 327.163 457.014C327.24 456.823 327.375 456.66 327.549 456.549C327.687 456.437 327.847 456.354 328.018 456.305C328.189 456.255 328.368 456.24 328.545 456.261C330.489 456.441 333.345 459.921 333.501 460.077C333.53 460.121 333.545 460.174 333.545 460.227C333.545 460.28 333.53 460.332 333.501 460.377C333.47 460.423 333.426 460.461 333.375 460.484C333.325 460.507 333.268 460.516 333.213 460.509C332.089 460.299 330.985 459.994 329.913 459.597ZM329.013 456.909C328.849 456.852 328.68 456.812 328.509 456.789C328.399 456.77 328.286 456.775 328.178 456.804C328.07 456.833 327.97 456.885 327.885 456.957C327.585 457.197 327.597 457.377 327.633 457.485C327.861 458.349 330.513 459.369 332.565 459.885C331.571 458.699 330.367 457.706 329.013 456.957V456.909Z" fill="#5CADF8"/>
<path d="M333.202 460.55C333.164 460.542 333.131 460.521 333.106 460.49C332.062 459.458 330.394 456.23 331.054 455.126C331.198 454.85 331.534 454.586 332.254 454.778C332.507 454.849 332.744 454.969 332.95 455.132C333.156 455.295 333.327 455.497 333.454 455.726C334.378 457.334 333.586 460.274 333.55 460.418C333.537 460.463 333.512 460.503 333.478 460.534C333.445 460.566 333.403 460.588 333.358 460.598C333.303 460.597 333.249 460.58 333.202 460.55ZM332.242 455.306L332.098 455.246C331.642 455.114 331.546 455.246 331.498 455.342C331.162 456.026 332.146 458.438 333.166 459.698C333.492 458.461 333.429 457.155 332.986 455.954C332.822 455.658 332.558 455.429 332.242 455.306Z" fill="#5CADF8"/>
<path d="M334.865 459.494L346.361 463.838C346.572 463.914 346.749 464.061 346.863 464.253C346.977 464.446 347.02 464.673 346.985 464.894L345.533 475.034C345.473 475.465 345.245 475.855 344.899 476.118C344.552 476.381 344.116 476.496 343.685 476.438C343.57 476.423 343.457 476.395 343.349 476.354C339.233 474.722 335.633 473.102 330.473 471.158C324.389 468.866 325.673 470.174 318.473 467.558C314.141 465.998 315.209 460.79 317.129 461.246C325.889 463.346 327.713 461.15 332.069 459.374C332.984 459.068 333.979 459.111 334.865 459.494Z" fill="#132043"/>
<path opacity="0.2" d="M347.331 460.795L349.659 456.247L339.471 450.943L337.383 455.839L347.331 460.795Z" fill="#132043"/>
<path d="M355.246 455.822L337.798 446.51C337.07 446.991 336.506 447.684 336.183 448.494C335.859 449.305 335.79 450.195 335.986 451.046L352.786 460.214C352.786 460.214 354.922 459.974 355.246 455.822Z" fill="#5CADF8"/>
<path d="M478.016 498.991L470.468 415.891C470.412 415.524 470.22 415.192 469.932 414.959C469.643 414.726 469.278 414.609 468.908 414.631H465.884C465.679 414.616 465.473 414.644 465.28 414.714C465.087 414.783 464.911 414.893 464.764 415.036C464.616 415.179 464.501 415.352 464.425 415.543C464.349 415.733 464.315 415.938 464.324 416.143L474.884 499.243C474.955 499.598 475.153 499.914 475.439 500.135C475.726 500.355 476.083 500.465 476.444 500.443C476.644 500.46 476.846 500.435 477.036 500.369C477.227 500.304 477.401 500.199 477.549 500.063C477.697 499.926 477.815 499.76 477.895 499.576C477.975 499.391 478.016 499.192 478.016 498.991Z" fill="#5CADF8"/>
<path d="M425.343 499.202L435.903 416.102C435.912 415.897 435.878 415.692 435.802 415.501C435.726 415.311 435.61 415.138 435.463 414.995C435.316 414.852 435.14 414.742 434.946 414.673C434.753 414.603 434.548 414.575 434.343 414.59H431.331C430.959 414.565 430.591 414.68 430.299 414.914C430.008 415.147 429.815 415.481 429.759 415.85L422.211 498.95C422.209 499.152 422.249 499.353 422.328 499.539C422.408 499.725 422.525 499.892 422.673 500.03C422.821 500.167 422.997 500.273 423.188 500.339C423.379 500.405 423.581 500.431 423.783 500.414C424.146 500.435 424.504 500.324 424.791 500.101C425.078 499.878 425.274 499.559 425.343 499.202Z" fill="#5CADF8"/>
<path d="M443.917 498.991L436.393 415.891C436.337 415.522 436.144 415.188 435.853 414.955C435.562 414.721 435.194 414.606 434.821 414.631H431.809C431.605 414.616 431.399 414.644 431.206 414.714C431.013 414.783 430.837 414.893 430.69 415.036C430.542 415.179 430.427 415.352 430.351 415.543C430.275 415.733 430.24 415.938 430.249 416.143L440.773 499.207C440.848 499.563 441.047 499.879 441.336 500.1C441.625 500.32 441.983 500.429 442.345 500.407C442.543 500.424 442.742 500.399 442.93 500.336C443.117 500.273 443.29 500.172 443.438 500.039C443.585 499.906 443.703 499.745 443.786 499.565C443.868 499.384 443.913 499.189 443.917 498.991Z" fill="#5CADF8"/>
<path opacity="0.3" d="M443.917 498.991L436.393 415.891C436.337 415.522 436.144 415.188 435.853 414.955C435.562 414.721 435.194 414.606 434.821 414.631H431.809C431.605 414.616 431.399 414.644 431.206 414.714C431.013 414.783 430.837 414.893 430.69 415.036C430.542 415.179 430.427 415.352 430.351 415.543C430.275 415.733 430.24 415.938 430.249 416.143L440.773 499.207C440.848 499.563 441.047 499.879 441.336 500.1C441.625 500.32 441.983 500.429 442.345 500.407C442.543 500.424 442.742 500.399 442.93 500.336C443.117 500.273 443.29 500.172 443.438 500.039C443.585 499.906 443.703 499.745 443.786 499.565C443.868 499.384 443.913 499.189 443.917 498.991Z" fill="#F2F7FA"/>
<path d="M391.253 499.202L401.813 416.102C401.822 415.897 401.788 415.692 401.712 415.501C401.636 415.311 401.521 415.138 401.373 414.995C401.226 414.852 401.05 414.742 400.857 414.673C400.664 414.603 400.458 414.575 400.253 414.59H397.229C396.859 414.568 396.494 414.685 396.205 414.918C395.916 415.151 395.725 415.483 395.669 415.85L388.121 498.95C388.119 499.152 388.159 499.353 388.238 499.539C388.318 499.725 388.436 499.892 388.584 500.03C388.732 500.167 388.907 500.273 389.098 500.339C389.289 500.405 389.492 500.431 389.693 500.414C390.056 500.435 390.414 500.324 390.701 500.101C390.988 499.878 391.184 499.559 391.253 499.202Z" fill="#5CADF8"/>
<path opacity="0.3" d="M391.253 499.202L401.813 416.102C401.822 415.897 401.788 415.692 401.712 415.501C401.636 415.311 401.521 415.138 401.373 414.995C401.226 414.852 401.05 414.742 400.857 414.673C400.664 414.603 400.458 414.575 400.253 414.59H397.229C396.859 414.568 396.494 414.685 396.205 414.918C395.916 415.151 395.725 415.483 395.669 415.85L388.121 498.95C388.119 499.152 388.159 499.353 388.238 499.539C388.318 499.725 388.436 499.892 388.584 500.03C388.732 500.167 388.907 500.273 389.098 500.339C389.289 500.405 389.492 500.431 389.693 500.414C390.056 500.435 390.414 500.324 390.701 500.101C390.988 499.878 391.184 499.559 391.253 499.202Z" fill="#F2F7FA"/>
<path d="M389.441 410.279H476.693V410.627C476.693 411.687 476.272 412.704 475.523 413.453C474.774 414.202 473.757 414.623 472.697 414.623H393.497C392.438 414.623 391.421 414.202 390.672 413.453C389.922 412.704 389.501 411.687 389.501 410.627V410.279H389.441Z" fill="#5CADF8"/>
<path opacity="0.3" d="M389.441 410.279H476.693V410.627C476.693 411.687 476.272 412.704 475.523 413.453C474.774 414.202 473.757 414.623 472.697 414.623H393.497C392.438 414.623 391.421 414.202 390.672 413.453C389.922 412.704 389.501 411.687 389.501 410.627V410.279H389.441Z" fill="#132043"/>
<path d="M470.947 322.912H463.231C456.954 322.913 450.837 324.896 445.754 328.579C440.67 332.261 436.88 337.456 434.923 343.42L419.323 390.904C418.055 394.773 415.597 398.142 412.3 400.53C409.002 402.918 405.034 404.203 400.963 404.2H376.195C374.584 404.203 373.039 404.846 371.901 405.986C370.762 407.127 370.123 408.673 370.123 410.284H477.499C482.877 410.281 488.052 408.226 491.966 404.537C495.88 400.848 498.238 395.805 498.559 390.436L500.695 354.436C500.93 350.384 500.336 346.327 498.947 342.514C497.558 338.7 495.405 335.21 492.62 332.258C489.834 329.307 486.475 326.955 482.748 325.348C479.021 323.741 475.006 322.912 470.947 322.912Z" fill="#5CADF8"/>
<path d="M130.688 352.579L131.888 369.055C131.888 369.055 123.248 396.727 122.288 426.991C121.316 456.271 121.088 478.867 121.088 478.867L131.768 479.551L148.208 374.551L151.544 351.691L130.688 352.579Z" fill="#FFC3BD"/>
<path d="M157.67 162.563C157.67 162.563 164.774 159.851 168.362 166.547C168.362 166.547 159.962 164.603 157.322 168.599L157.67 162.563Z" fill="#132043"/>
<path opacity="0.1" d="M157.67 162.563C157.67 162.563 164.774 159.851 168.362 166.547C168.362 166.547 159.962 164.603 157.322 168.599L157.67 162.563Z" fill="#F2F7FA"/>
<path d="M236.643 217.076L232.011 221.804C227.907 222.548 227.211 228.44 227.211 228.44C226.275 229.004 219.351 234.74 217.275 236.144L221.247 240.692C223.941 237.901 226.819 235.295 229.863 232.892C229.863 232.892 240.315 228.164 242.175 226.244C244.035 224.324 242.175 217.676 242.175 217.676L236.643 217.076Z" fill="#FFC3BD"/>
<path d="M223.014 229.919C216.054 234.119 205.758 240.587 205.758 240.587C201.112 234.441 196.158 228.533 190.914 222.887C187.676 219.22 183.877 216.089 179.658 213.611V233.411C184.458 238.319 199.518 253.187 205.914 253.187C211.182 253.187 221.85 242.795 227.994 236.327L223.014 229.919Z" fill="#132043"/>
<path opacity="0.4" d="M190.395 243.613C187.431 237.481 183.519 224.881 183.519 224.881L180.795 229.801L181.827 235.585C184.047 237.805 187.095 240.745 190.395 243.613Z" fill="#132043"/>
<path d="M166.314 356.239L169.314 370.039C169.314 370.039 166.014 403.039 171.414 431.839C176.814 460.639 177.714 478.339 177.714 478.339L189.714 477.139L186.114 373.039L186.414 349.939L166.314 356.239Z" fill="#FFC3BD"/>
<path d="M131.248 221.806C132.648 239.87 135.242 257.821 139.012 275.542C139.012 275.542 120.712 309.442 122.812 358.342C122.812 358.342 141.412 365.542 190.912 358.342L184.612 275.242C184.612 275.242 186.712 221.542 181.012 215.542C175.96 210.226 153.952 203.266 137.104 211.558C135.222 212.493 133.66 213.967 132.617 215.792C131.575 217.616 131.098 219.71 131.248 221.806Z" fill="#5CADF8"/>
<path d="M154.615 273.736C154.615 273.736 169.315 276.292 179.659 273.736V280.036C179.659 280.036 171.967 281.152 154.615 280.036V273.736Z" fill="#5CADF8"/>
<path opacity="0.5" d="M154.615 273.736C154.615 273.736 169.315 276.292 179.659 273.736V280.036C179.659 280.036 171.967 281.152 154.615 280.036V273.736Z" fill="#132043"/>
<path d="M164.519 275.319C164.543 274.613 164.818 273.938 165.296 273.416C165.773 272.895 166.421 272.561 167.123 272.475C168.923 272.139 173.891 272.235 173.963 276.075C174.035 279.915 174.791 282.675 171.047 282.903C167.303 283.131 164.375 283.407 164.483 280.503H171.263L171.203 274.803L164.519 275.319Z" fill="#F2F7FA"/>
<path d="M146 188.49C147.944 194.046 150.488 203.79 148.4 209.418C148.153 210.074 148.137 210.794 148.355 211.46C148.573 212.125 149.013 212.696 149.6 213.078C153.836 216.138 160.724 218.61 165.908 218.058C172.568 217.338 170.828 212.622 169.136 210.042C168.68 209.346 167.936 208.374 167.156 208.23C160.616 207.126 159.38 202.23 159.884 197.25L146 188.49Z" fill="#FFC3BD"/>
<path opacity="0.2" d="M151.7 192.086L159.932 197.222C159.824 198.44 159.824 199.664 159.932 200.882C158.282 200.833 156.669 200.38 155.235 199.565C153.8 198.749 152.586 197.594 151.7 196.202C150.8 194.402 151.028 192.41 151.7 192.086Z" fill="#132043"/>
<path d="M143.467 179.499C145.867 188.043 146.839 193.167 152.167 196.659C160.195 201.939 170.035 195.639 170.167 186.567C170.335 178.347 166.387 165.783 157.159 164.163C155.127 163.798 153.036 163.96 151.085 164.631C149.133 165.302 147.385 166.461 146.008 167.997C144.63 169.534 143.668 171.397 143.212 173.41C142.757 175.423 142.824 177.519 143.407 179.499H143.467Z" fill="#FFC3BD"/>
<path d="M162.629 178.27C163.936 180.242 165.511 182.023 167.309 183.562C166.9 184.01 166.398 184.365 165.839 184.601C165.28 184.837 164.676 184.949 164.069 184.93L162.629 178.27Z" fill="#ED847E"/>
<path d="M154.116 176.411C154.046 176.434 153.97 176.434 153.9 176.411C153.797 176.364 153.717 176.278 153.677 176.173C153.637 176.067 153.639 175.95 153.684 175.847C153.961 175.238 154.379 174.703 154.902 174.286C155.426 173.869 156.04 173.581 156.696 173.447C156.807 173.433 156.919 173.463 157.009 173.53C157.098 173.597 157.158 173.696 157.176 173.807C157.184 173.862 157.182 173.918 157.168 173.972C157.155 174.027 157.13 174.078 157.097 174.122C157.063 174.167 157.021 174.205 156.973 174.233C156.925 174.261 156.871 174.279 156.816 174.287C156.289 174.397 155.796 174.633 155.378 174.973C154.961 175.313 154.631 175.749 154.416 176.243C154.381 176.291 154.336 176.331 154.285 176.36C154.233 176.389 154.175 176.406 154.116 176.411Z" fill="#132043"/>
<path d="M167.599 172.322C167.538 172.36 167.467 172.38 167.395 172.38C167.323 172.38 167.252 172.36 167.191 172.322C166.74 172.049 166.232 171.887 165.706 171.847C165.181 171.807 164.654 171.892 164.167 172.094C164.065 172.144 163.947 172.152 163.84 172.116C163.732 172.08 163.643 172.003 163.591 171.902C163.565 171.852 163.549 171.798 163.544 171.743C163.54 171.687 163.547 171.631 163.565 171.578C163.583 171.525 163.611 171.477 163.649 171.435C163.687 171.394 163.732 171.361 163.783 171.338C164.395 171.076 165.059 170.964 165.723 171.01C166.386 171.056 167.029 171.259 167.599 171.602C167.646 171.627 167.688 171.661 167.722 171.703C167.756 171.744 167.781 171.793 167.795 171.844C167.81 171.896 167.814 171.95 167.807 172.003C167.8 172.056 167.782 172.107 167.755 172.154C167.72 172.223 167.666 172.281 167.599 172.322Z" fill="#132043"/>
<path d="M148.756 206.646L165.712 217.638V207.726L168.544 208.374C168.836 208.443 169.103 208.591 169.315 208.803C169.527 209.015 169.676 209.282 169.744 209.574C170.745 214.051 171.276 218.62 171.328 223.206C171.328 223.206 169.912 217.05 166.012 219.45C166.012 219.45 161.848 216.006 158.548 221.85C158.548 221.85 150.556 218.406 148.756 214.206C146.956 210.006 145.756 207.738 145.756 207.738L148.756 206.646Z" fill="#F2F7FA"/>
<path d="M147.506 206.646C151.755 224.941 154.655 243.523 156.182 262.242C158.114 290.046 158.51 298.446 147.506 297.246C136.502 296.046 127.514 294.642 129.11 290.646C130.706 286.65 136.706 277.638 136.31 273.042C135.914 268.446 132.11 232.65 131.678 227.226C131.246 221.802 127.91 210.006 147.506 206.646Z" fill="#132043"/>
<path opacity="0.3" d="M156.182 262.247C156.014 259.787 155.798 257.327 155.558 254.891L135.086 260.891C135.41 263.975 135.698 266.747 135.914 268.883L149.594 265.211L149.438 264.179L156.266 263.159C156.218 262.811 156.206 262.547 156.182 262.247Z" fill="#132043"/>
<path d="M167.125 207.73C167.125 207.73 175.921 224.95 176.521 253.198C177.121 281.446 175.873 296.482 181.117 297.358C186.361 298.234 187.525 294.646 187.525 294.646C187.525 294.646 185.965 279.298 185.965 275.542C185.965 271.786 187.621 249.142 185.965 232.942C184.309 216.742 185.965 217.75 183.241 215.938C178.222 212.559 172.81 209.803 167.125 207.73Z" fill="#132043"/>
<path opacity="0.4" d="M134.772 257.737L140.184 226.801C140.184 226.801 135.72 231.337 132.408 234.805C133.044 241.081 134.004 250.021 134.772 257.737Z" fill="#132043"/>
<path d="M162.243 245.203C160.335 245.611 150.171 252.103 150.171 252.103C150.171 252.103 144.651 253.771 142.107 254.239L144.795 260.407C147.003 259.423 151.791 258.007 151.791 258.007C151.791 258.007 155.859 257.875 157.215 257.599C157.215 257.599 161.139 258.679 163.443 257.191C165.747 255.703 167.043 252.043 167.043 252.043C167.043 252.043 164.139 244.807 162.243 245.203Z" fill="#FFC3BD"/>
<path d="M144.555 252.949C139.131 253.957 132.411 254.077 132.411 253.189C132.411 251.833 137.559 234.829 140.355 228.589C142.143 224.593 147.711 214.633 141.555 211.141C138.291 209.281 128.079 210.577 123.279 231.733C118.479 252.889 120.687 260.533 125.331 263.833C130.215 267.301 141.243 263.197 147.231 260.533L144.555 252.949Z" fill="#132043"/>
<path d="M157.213 178.479C157.357 179.199 157.849 179.679 158.317 179.607C158.785 179.535 159.049 178.863 158.905 178.143C158.761 177.423 158.269 176.943 157.813 177.027C157.357 177.111 157.081 177.759 157.213 178.479Z" fill="#132043"/>
<path d="M165.279 176.895C165.423 177.603 165.915 178.095 166.371 178.023C166.827 177.951 167.103 177.279 166.971 176.559C166.839 175.839 166.335 175.359 165.879 175.431C165.423 175.503 165.195 176.175 165.279 176.895Z" fill="#132043"/>
<path d="M165.678 175.515L167.298 174.688C167.298 174.688 166.674 176.199 165.678 175.515Z" fill="#132043"/>
<path d="M157.609 177.098L159.229 176.27C159.229 176.27 158.605 177.782 157.609 177.098Z" fill="#132043"/>
<path d="M162.132 188.976C162.639 188.974 163.145 188.929 163.644 188.844C163.713 188.829 163.774 188.789 163.814 188.731C163.854 188.673 163.871 188.602 163.86 188.532C163.846 188.465 163.807 188.406 163.752 188.366C163.696 188.326 163.628 188.308 163.56 188.316C162.458 188.531 161.321 188.486 160.24 188.184C159.158 187.882 158.163 187.331 157.332 186.576C157.281 186.526 157.212 186.498 157.14 186.498C157.068 186.498 157 186.526 156.948 186.576C156.922 186.6 156.901 186.63 156.887 186.663C156.873 186.696 156.865 186.732 156.865 186.768C156.865 186.804 156.873 186.839 156.887 186.872C156.901 186.905 156.922 186.935 156.948 186.96C158.354 188.271 160.21 188.993 162.132 188.976Z" fill="#132043"/>
<path d="M146.508 187.207C146.508 187.207 148.56 186.211 148.512 181.651C149.703 179.681 150.359 177.435 150.413 175.134C150.468 172.833 149.92 170.558 148.824 168.535C148.824 168.535 158.724 167.767 160.824 163.987C162.924 160.207 168.168 160.051 168.168 160.051C168.168 160.051 166.968 155.551 158.064 157.459C160.117 156.091 162.511 155.327 164.976 155.251C164.976 155.251 159.588 150.259 151.56 154.699C151.922 153.917 152.457 153.228 153.125 152.683C153.792 152.139 154.574 151.753 155.412 151.555C155.412 151.555 144.804 149.047 136.404 159.223C129.804 167.215 135.204 170.347 135.204 170.347C135.204 170.347 129.828 169.519 130.956 176.779L133.128 173.359C133.128 173.359 131.4 177.967 136.5 183.067C141.6 188.167 146.508 187.207 146.508 187.207Z" fill="#132043"/>
<path d="M140.986 188.494C141.757 189.284 142.677 189.914 143.692 190.349C144.707 190.783 145.798 191.013 146.902 191.026C149.866 191.026 150.502 188.194 149.086 185.818C147.754 183.67 144.61 181.09 141.958 182.218C139.306 183.346 139.078 186.514 140.986 188.494Z" fill="#FFC3BD"/>
<path d="M132.799 476.688L120.079 476.94C119.847 476.944 119.622 477.026 119.443 477.175C119.264 477.323 119.142 477.528 119.095 477.756L117.007 488.16C116.915 488.601 117 489.06 117.245 489.438C117.49 489.816 117.875 490.081 118.315 490.176H118.675C123.259 490.008 127.339 489.672 133.075 489.564C139.807 489.444 138.115 490.284 146.035 490.236C150.835 490.236 151.579 484.764 149.551 484.536C140.263 483.552 139.243 480.78 135.607 477.528C134.808 476.909 133.807 476.609 132.799 476.688Z" fill="#132043"/>
<path d="M189.945 476.688L177.225 476.94C176.993 476.944 176.769 477.027 176.59 477.175C176.411 477.323 176.288 477.529 176.241 477.756L174.141 488.16C174.049 488.603 174.136 489.064 174.384 489.442C174.631 489.82 175.019 490.084 175.461 490.176H175.821C180.405 490.008 184.485 489.672 190.221 489.564C196.965 489.444 195.273 490.284 203.193 490.236C207.993 490.236 208.737 484.764 206.709 484.536C197.421 483.552 196.401 480.78 192.765 477.528C191.962 476.908 190.957 476.609 189.945 476.688Z" fill="#132043"/>
</svg>
