<svg width="57" height="56" viewBox="0 0 57 56" fill="none" xmlns="http://www.w3.org/2000/svg">
<path d="M23.1641 29L23.9485 30.5689C24.214 31.0999 24.3468 31.3654 24.5241 31.5954C24.6815 31.7996 24.8645 31.9826 25.0686 32.14C25.2987 32.3173 25.5642 32.4501 26.0951 32.7155L27.6641 33.5L26.0951 34.2845C25.5642 34.5499 25.2987 34.6827 25.0686 34.86C24.8645 35.0174 24.6815 35.2004 24.5241 35.4046C24.3468 35.6346 24.214 35.9001 23.9485 36.4311L23.1641 38L22.3796 36.4311C22.1141 35.9001 21.9814 35.6346 21.804 35.4046C21.6467 35.2004 21.4637 35.0174 21.2595 34.86C21.0294 34.6827 20.764 34.5499 20.233 34.2845L18.6641 33.5L20.233 32.7155C20.764 32.4501 21.0294 32.3173 21.2595 32.14C21.4637 31.9826 21.6467 31.7996 21.804 31.5954C21.9814 31.3654 22.1141 31.0999 22.3796 30.5689L23.1641 29ZM31.6641 18L32.8427 21.0644C33.1247 21.7977 33.2657 22.1643 33.485 22.4726C33.6794 22.746 33.9181 22.9848 34.1915 23.1791C34.4998 23.3984 34.8665 23.5394 35.5997 23.8214L38.6641 25L35.5997 26.1786C34.8665 26.4606 34.4998 26.6016 34.1915 26.8209C33.9181 27.0153 33.6794 27.254 33.485 27.5274C33.2657 27.8357 33.1247 28.2024 32.8427 28.9356L31.6641 32L30.4855 28.9356C30.2035 28.2024 30.0625 27.8357 29.8432 27.5274C29.6488 27.254 29.4101 27.0153 29.1367 26.8209C28.8284 26.6016 28.4617 26.4606 27.7285 26.1786L24.6641 25L27.7285 23.8214C28.4617 23.5394 28.8284 23.3984 29.1367 23.1791C29.4101 22.9848 29.6488 22.746 29.8432 22.4726C30.0625 22.1643 30.2035 21.7977 30.4855 21.0644L31.6641 18Z" stroke="#3CB779" stroke-width="2" stroke-linecap="round" stroke-linejoin="round"/>
<rect x="1.16406" y="0.5" width="55" height="55" rx="7.5" stroke="#85E5B5"/>
</svg>
