<svg width="375" height="517" viewBox="0 0 375 517" fill="none" xmlns="http://www.w3.org/2000/svg">
<g clip-path="url(#clip0_35_1857)">
<rect width="375" height="517" fill="#F2F7FA"/>
<path d="M371.91 412.615H341.439V412.845H371.91V412.615Z" fill="#5CADF8" fill-opacity="0.3"/>
<path d="M262.723 415.121H254.729V415.351H262.723V415.121Z" fill="#5CADF8" fill-opacity="0.3"/>
<path d="M340.516 404.078H322.861V404.308H340.516V404.078Z" fill="#5CADF8" fill-opacity="0.3"/>
<path d="M45.9965 405.621H6.26172V405.851H45.9965V405.621Z" fill="#5CADF8" fill-opacity="0.3"/>
<path d="M60.015 405.621H54.1914V405.851H60.015V405.621Z" fill="#5CADF8" fill-opacity="0.3"/>
<path d="M165.139 409.508H78.9531V409.738H165.139V409.508Z" fill="#5CADF8" fill-opacity="0.3"/>
<path d="M176.041 356.781H-1.5925C-2.98574 356.781 -4.32191 356.228 -5.30708 355.243C-6.29224 354.258 -6.8457 352.921 -6.8457 351.528V101.813C-6.83357 100.427 -6.27476 99.103 -5.29091 98.1278C-4.30705 97.1526 -2.97781 96.6054 -1.5925 96.6055H176.041C177.434 96.6055 178.77 97.1589 179.756 98.1441C180.741 99.1293 181.294 100.465 181.294 101.859V351.528C181.294 352.921 180.741 354.258 179.756 355.243C178.77 356.228 177.434 356.781 176.041 356.781ZM-1.5925 96.7895C-2.92399 96.7919 -4.20025 97.3219 -5.14175 98.2634C-6.08326 99.2049 -6.61327 100.481 -6.6157 101.813V351.528C-6.61327 352.86 -6.08326 354.136 -5.14175 355.077C-4.20025 356.019 -2.92399 356.549 -1.5925 356.551H176.041C177.373 356.549 178.649 356.019 179.59 355.077C180.532 354.136 181.062 352.86 181.064 351.528V101.813C181.062 100.481 180.532 99.2049 179.59 98.2634C178.649 97.3219 177.373 96.7919 176.041 96.7895H-1.5925Z" fill="#5CADF8" fill-opacity="0.3"/>
<path d="M375.044 356.781H197.392C195.999 356.779 194.665 356.225 193.68 355.24C192.695 354.255 192.141 352.921 192.139 351.528V101.813C192.153 100.428 192.713 99.1052 193.696 98.1305C194.679 97.1557 196.007 96.6078 197.392 96.6055H375.044C376.426 96.6103 377.751 97.1595 378.73 98.1343C379.71 99.109 380.267 100.431 380.279 101.813V351.528C380.279 352.918 379.728 354.252 378.747 355.236C377.765 356.221 376.434 356.777 375.044 356.781ZM197.392 96.7895C196.06 96.7919 194.784 97.3219 193.843 98.2634C192.901 99.2049 192.371 100.481 192.369 101.813V351.528C192.371 352.86 192.901 354.136 193.843 355.077C194.784 356.019 196.06 356.549 197.392 356.551H375.044C376.375 356.549 377.652 356.019 378.593 355.077C379.535 354.136 380.065 352.86 380.067 351.528V101.813C380.065 100.481 379.535 99.2049 378.593 98.2634C377.652 97.3219 376.375 96.7919 375.044 96.7895H197.392Z" fill="#5CADF8" fill-opacity="0.3"/>
<path d="M418 397.814H-42V398.044H418V397.814Z" fill="#5CADF8" fill-opacity="0.3"/>
<path d="M316.486 142.707H59.5117V288.067H316.486V142.707Z" fill="#5CADF8" fill-opacity="0.5"/>
<path d="M317.817 285.539H58.1748C57.3415 285.539 56.666 286.215 56.666 287.048V290.102C56.666 290.936 57.3415 291.611 58.1748 291.611H317.817C318.651 291.611 319.326 290.936 319.326 290.102V287.048C319.326 286.215 318.651 285.539 317.817 285.539Z" fill="#5CADF8" fill-opacity="0.3"/>
<path d="M310.585 142.707H65.4141V282.501H310.585V142.707Z" fill="#F2F7FA"/>
<path d="M201.498 312.929L189.382 299.598V291.65C189.382 291.284 189.236 290.933 188.977 290.674C188.719 290.415 188.368 290.27 188.002 290.27C187.636 290.27 187.285 290.415 187.026 290.674C186.767 290.933 186.622 291.284 186.622 291.65V299.626L174.505 312.957C173.245 314.346 175.195 316.49 176.456 315.11C179.841 311.374 183.23 307.645 186.622 303.922V313.923C186.622 314.289 186.767 314.64 187.026 314.899C187.285 315.157 187.636 315.303 188.002 315.303C188.368 315.303 188.719 315.157 188.977 314.899C189.236 314.64 189.382 314.289 189.382 313.923V303.895C192.767 307.618 196.156 311.347 199.548 315.082C200.808 316.49 202.722 314.318 201.498 312.929Z" fill="#F2F7FA"/>
<path d="M322.32 136.037H53.6897C51.5861 136.037 49.8809 137.742 49.8809 139.846V145.568C49.8809 147.672 51.5861 149.377 53.6897 149.377H322.32C324.424 149.377 326.129 147.672 326.129 145.568V139.846C326.129 137.742 324.424 136.037 322.32 136.037Z" fill="#5CADF8" fill-opacity="0.5"/>
<path d="M129.908 315.992H21.293V353.482H129.908V315.992Z" fill="#5CADF8" fill-opacity="0.3"/>
<path d="M129.908 353.482H21.293V390.972H129.908V353.482Z" fill="#5CADF8" fill-opacity="0.3"/>
<path d="M62.5668 353.482L76.0724 315.992H55.2804L41.7656 353.482H62.5668Z" fill="#5CADF8" fill-opacity="0.5"/>
<path d="M86.1477 315.992H81.5754L68.0605 353.482H72.6329L86.1477 315.992Z" fill="#5CADF8" fill-opacity="0.5"/>
<path d="M49.0473 390.972L62.5621 353.482H41.7609L28.2461 390.972H49.0473Z" fill="#5CADF8" fill-opacity="0.5"/>
<path d="M72.6282 353.482H68.0558L54.541 390.972H59.1134L72.6282 353.482Z" fill="#5CADF8" fill-opacity="0.5"/>
<path d="M129.898 321.747V317.957H21.2832V321.747H129.898Z" fill="#5CADF8" fill-opacity="0.5"/>
<path d="M129.898 358.945V355.154H21.2832V358.945H129.898Z" fill="#5CADF8" fill-opacity="0.5"/>
<path d="M78.375 339.532C78.8068 339.532 79.221 339.361 79.5264 339.055C79.8318 338.75 80.0034 338.336 80.0034 337.904C80.0034 337.472 79.8318 337.058 79.5264 336.752C79.221 336.447 78.8068 336.275 78.375 336.275H72.855C72.4231 336.275 72.0089 336.447 71.7035 336.752C71.3981 337.058 71.2266 337.472 71.2266 337.904C71.2266 338.336 71.3981 338.75 71.7035 339.055C72.0089 339.361 72.4231 339.532 72.855 339.532H78.375Z" fill="#5CADF8" fill-opacity="0.5"/>
<path d="M78.375 338.952C78.8068 338.952 79.221 338.781 79.5264 338.475C79.8318 338.17 80.0034 337.756 80.0034 337.324C80.0034 336.892 79.8318 336.478 79.5264 336.172C79.221 335.867 78.8068 335.695 78.375 335.695H72.855C72.4231 335.695 72.0089 335.867 71.7035 336.172C71.3981 336.478 71.2266 336.892 71.2266 337.324C71.2266 337.756 71.3981 338.17 71.7035 338.475C72.0089 338.781 72.4231 338.952 72.855 338.952H78.375Z" fill="#5CADF8" fill-opacity="0.3"/>
<path d="M78.3748 374.143C78.7867 374.112 79.1717 373.927 79.4527 373.624C79.7336 373.321 79.8897 372.923 79.8897 372.51C79.8897 372.097 79.7336 371.699 79.4527 371.396C79.1717 371.093 78.7867 370.908 78.3748 370.877H72.8548C72.4429 370.908 72.0578 371.093 71.7769 371.396C71.496 371.699 71.3398 372.097 71.3398 372.51C71.3398 372.923 71.496 373.321 71.7769 373.624C72.0578 373.927 72.4429 374.112 72.8548 374.143H78.3748Z" fill="#5CADF8" fill-opacity="0.5"/>
<path d="M78.375 373.524C78.8068 373.524 79.221 373.353 79.5264 373.047C79.8318 372.742 80.0034 372.328 80.0034 371.896C80.0034 371.464 79.8318 371.05 79.5264 370.745C79.221 370.439 78.8068 370.268 78.375 370.268H72.855C72.4231 370.268 72.0089 370.439 71.7035 370.745C71.3981 371.05 71.2266 371.464 71.2266 371.896C71.2266 372.328 71.3981 372.742 71.7035 373.047C72.0089 373.353 72.4231 373.524 72.855 373.524H78.375Z" fill="#5CADF8" fill-opacity="0.3"/>
<path d="M19.3887 314.309V392.61H131.794V314.309H19.3887ZM128.004 388.829H23.1883V355.46H128.004V388.829ZM128.004 351.679H23.1883V318.329H128.004V351.679Z" fill="#5CADF8" fill-opacity="0.3"/>
<path d="M242.312 315.992H133.697V353.482H242.312V315.992Z" fill="#5CADF8" fill-opacity="0.3"/>
<path d="M242.312 353.482H133.697V390.972H242.312V353.482Z" fill="#5CADF8" fill-opacity="0.3"/>
<path d="M217.901 353.482L231.416 315.992H210.624L197.109 353.482H217.901Z" fill="#5CADF8" fill-opacity="0.5"/>
<path d="M241.482 315.992H236.919L223.404 353.482H227.967L241.482 315.992Z" fill="#5CADF8" fill-opacity="0.5"/>
<path d="M204.393 390.972L217.899 353.482H197.107L183.592 390.972H204.393Z" fill="#5CADF8" fill-opacity="0.5"/>
<path d="M227.963 353.482H223.4L209.885 390.972H214.457L227.963 353.482Z" fill="#5CADF8" fill-opacity="0.5"/>
<path d="M242.303 321.747V317.957H133.688V321.747H242.303Z" fill="#5CADF8" fill-opacity="0.5"/>
<path d="M242.303 358.945V355.154H133.688V358.945H242.303Z" fill="#5CADF8" fill-opacity="0.5"/>
<path d="M190.76 339.532C191.192 339.532 191.606 339.361 191.911 339.055C192.217 338.75 192.388 338.336 192.388 337.904C192.388 337.472 192.217 337.058 191.911 336.752C191.606 336.447 191.192 336.275 190.76 336.275H185.24C184.808 336.275 184.394 336.447 184.088 336.752C183.783 337.058 183.611 337.472 183.611 337.904C183.611 338.336 183.783 338.75 184.088 339.055C184.394 339.361 184.808 339.532 185.24 339.532H190.76Z" fill="#5CADF8" fill-opacity="0.5"/>
<path d="M190.76 338.952C191.192 338.952 191.606 338.781 191.911 338.475C192.217 338.17 192.388 337.756 192.388 337.324C192.388 336.892 192.217 336.478 191.911 336.172C191.606 335.867 191.192 335.695 190.76 335.695H185.24C184.808 335.695 184.394 335.867 184.088 336.172C183.783 336.478 183.611 336.892 183.611 337.324C183.611 337.756 183.783 338.17 184.088 338.475C184.394 338.781 184.808 338.952 185.24 338.952H190.76Z" fill="#5CADF8" fill-opacity="0.3"/>
<path d="M190.76 374.143C191.171 374.112 191.556 373.927 191.837 373.624C192.118 373.321 192.275 372.923 192.275 372.51C192.275 372.097 192.118 371.699 191.837 371.396C191.556 371.093 191.171 370.908 190.76 370.877H185.24C184.828 370.908 184.443 371.093 184.162 371.396C183.881 371.699 183.725 372.097 183.725 372.51C183.725 372.923 183.881 373.321 184.162 373.624C184.443 373.927 184.828 374.112 185.24 374.143H190.76Z" fill="#5CADF8" fill-opacity="0.5"/>
<path d="M190.76 373.524C191.192 373.524 191.606 373.353 191.911 373.047C192.217 372.742 192.388 372.328 192.388 371.896C192.388 371.464 192.217 371.05 191.911 370.745C191.606 370.439 191.192 370.268 190.76 370.268H185.24C184.808 370.268 184.394 370.439 184.088 370.745C183.783 371.05 183.611 371.464 183.611 371.896C183.611 372.328 183.783 372.742 184.088 373.047C184.394 373.353 184.808 373.524 185.24 373.524H190.76Z" fill="#5CADF8" fill-opacity="0.3"/>
<path d="M131.793 314.309V392.61H244.199V314.309H131.793ZM240.408 388.829H135.556V355.46H240.436L240.408 388.829ZM240.408 351.679H135.556V318.329H240.436L240.408 351.679Z" fill="#5CADF8" fill-opacity="0.3"/>
<path d="M354.717 315.992H246.102V353.482H354.717V315.992Z" fill="#5CADF8" fill-opacity="0.3"/>
<path d="M354.717 353.482H246.102V390.972H354.717V353.482Z" fill="#5CADF8" fill-opacity="0.3"/>
<path d="M314.873 353.482L328.388 315.992H307.587L294.072 353.482H314.873Z" fill="#5CADF8" fill-opacity="0.5"/>
<path d="M338.454 315.992H333.882L320.367 353.482H324.94L338.454 315.992Z" fill="#5CADF8" fill-opacity="0.5"/>
<path d="M301.364 390.972L314.879 353.482H294.077L280.562 390.972H301.364Z" fill="#5CADF8" fill-opacity="0.5"/>
<path d="M324.945 353.482H320.372L306.857 390.972H311.43L324.945 353.482Z" fill="#5CADF8" fill-opacity="0.5"/>
<path d="M354.717 321.757V317.967H246.102V321.757H354.717Z" fill="#5CADF8" fill-opacity="0.5"/>
<path d="M354.707 358.954V355.164H246.092V358.954H354.707Z" fill="#5CADF8" fill-opacity="0.5"/>
<path d="M303.184 339.532C303.615 339.532 304.03 339.361 304.335 339.055C304.64 338.75 304.812 338.336 304.812 337.904C304.812 337.472 304.64 337.058 304.335 336.752C304.03 336.447 303.615 336.275 303.184 336.275H297.664C297.232 336.275 296.817 336.447 296.512 336.752C296.207 337.058 296.035 337.472 296.035 337.904C296.035 338.336 296.207 338.75 296.512 339.055C296.817 339.361 297.232 339.532 297.664 339.532H303.184Z" fill="#5CADF8" fill-opacity="0.5"/>
<path d="M303.184 338.952C303.615 338.952 304.03 338.781 304.335 338.475C304.64 338.17 304.812 337.756 304.812 337.324C304.812 336.892 304.64 336.478 304.335 336.172C304.03 335.867 303.615 335.695 303.184 335.695H297.664C297.232 335.695 296.817 335.867 296.512 336.172C296.207 336.478 296.035 336.892 296.035 337.324C296.035 337.756 296.207 338.17 296.512 338.475C296.817 338.781 297.232 338.952 297.664 338.952H303.184Z" fill="#5CADF8" fill-opacity="0.3"/>
<path d="M303.183 374.143C303.595 374.112 303.98 373.927 304.261 373.624C304.542 373.321 304.698 372.923 304.698 372.51C304.698 372.097 304.542 371.699 304.261 371.396C303.98 371.093 303.595 370.908 303.183 370.877H297.663C297.251 370.908 296.866 371.093 296.585 371.396C296.305 371.699 296.148 372.097 296.148 372.51C296.148 372.923 296.305 373.321 296.585 373.624C296.866 373.927 297.251 374.112 297.663 374.143H303.183Z" fill="#5CADF8" fill-opacity="0.5"/>
<path d="M303.184 373.524C303.615 373.524 304.03 373.353 304.335 373.047C304.64 372.742 304.812 372.328 304.812 371.896C304.812 371.464 304.64 371.05 304.335 370.745C304.03 370.439 303.615 370.268 303.184 370.268H297.664C297.232 370.268 296.817 370.439 296.512 370.745C296.207 371.05 296.035 371.464 296.035 371.896C296.035 372.328 296.207 372.742 296.512 373.047C296.817 373.353 297.232 373.524 297.664 373.524H303.184Z" fill="#5CADF8" fill-opacity="0.3"/>
<path d="M244.207 314.309V392.61H356.613V314.309H244.207ZM352.813 388.829H247.997V355.46H352.813V388.829ZM352.813 351.679H247.997V318.329H352.813V351.679Z" fill="#5CADF8" fill-opacity="0.3"/>
<path d="M345.732 398.243H30.264L28.6172 392.604H347.379L345.732 398.243Z" fill="#5CADF8" fill-opacity="0.5"/>
<path d="M183.566 435.819C282.082 435.819 361.945 431.156 361.945 425.405C361.945 419.653 282.082 414.99 183.566 414.99C85.0504 414.99 5.1875 419.653 5.1875 425.405C5.1875 431.156 85.0504 435.819 183.566 435.819Z" fill="#5CADF8" fill-opacity="0.3"/>
<path d="M196.045 158.554L192.659 223.184C192.606 223.998 192.721 224.813 192.998 225.58C193.275 226.347 193.707 227.048 194.268 227.64C194.828 228.231 195.505 228.701 196.256 229.019C197.007 229.336 197.815 229.496 198.63 229.486H284.07C285.767 229.468 287.393 228.808 288.623 227.639C289.852 226.469 290.592 224.878 290.694 223.184L294.089 158.554C294.141 157.741 294.025 156.926 293.747 156.16C293.47 155.394 293.038 154.693 292.477 154.102C291.917 153.51 291.241 153.041 290.491 152.723C289.741 152.404 288.933 152.244 288.118 152.252H202.715C201.011 152.261 199.374 152.916 198.136 154.086C196.897 155.257 196.15 156.854 196.045 158.554Z" fill="#5CADF8"/>
<path opacity="0.5" d="M196.045 158.554L192.659 223.184C192.606 223.998 192.721 224.813 192.998 225.58C193.275 226.347 193.707 227.048 194.268 227.64C194.828 228.231 195.505 228.701 196.256 229.019C197.007 229.336 197.815 229.496 198.63 229.486H284.07C285.767 229.468 287.393 228.808 288.623 227.639C289.852 226.469 290.592 224.878 290.694 223.184L294.089 158.554C294.141 157.741 294.025 156.926 293.747 156.16C293.47 155.394 293.038 154.693 292.477 154.102C291.917 153.51 291.241 153.041 290.491 152.723C289.741 152.404 288.933 152.244 288.118 152.252H202.715C201.011 152.261 199.374 152.916 198.136 154.086C196.897 155.257 196.15 156.854 196.045 158.554Z" fill="#F2F7FA"/>
<path d="M290.234 152.252H288.118C288.933 152.244 289.741 152.404 290.491 152.723C291.241 153.041 291.917 153.51 292.477 154.102C293.038 154.693 293.47 155.394 293.747 156.16C294.025 156.926 294.141 157.741 294.089 158.554L290.694 223.184C290.592 224.878 289.852 226.469 288.623 227.639C287.393 228.808 285.767 229.468 284.07 229.486H286.186C287.883 229.468 289.509 228.808 290.739 227.639C291.968 226.469 292.708 224.878 292.81 223.184L296.205 158.554C296.257 157.741 296.141 156.926 295.863 156.16C295.586 155.394 295.154 154.693 294.593 154.102C294.033 153.51 293.357 153.041 292.607 152.723C291.857 152.404 291.049 152.244 290.234 152.252Z" fill="#5CADF8"/>
<path d="M203.137 159.387L199.844 222.342H283.564L286.867 159.387H203.137ZM285.836 169.507H276.231L276.728 159.893H286.342L285.836 169.507ZM242.817 191.357L242.32 200.704H232.982L233.47 191.357H242.817ZM233.525 190.299L234.013 180.952H243.36L242.872 190.299H233.525ZM243.875 191.357H253.213L252.725 200.704H243.378L243.875 191.357ZM243.93 190.299L244.418 180.952H253.765L253.314 190.336L243.93 190.299ZM254.823 180.952H264.17L263.673 190.299H254.326L254.823 180.952ZM254.878 179.894L255.366 170.556H264.713L264.225 179.894H254.878ZM253.82 179.894H244.473L244.961 170.556H254.308L253.82 179.894ZM243.415 179.894H234.068L234.555 170.556H243.903L243.415 179.894ZM233.01 179.894H223.663L224.15 170.556H233.497L233.01 179.894ZM232.955 180.952L232.467 190.299H223.12L223.607 180.952H232.955ZM222.034 190.336H212.715L213.202 180.988H222.549L222.034 190.336ZM222.034 191.357L221.547 200.704H212.172L212.659 191.357H222.034ZM223.092 191.357H232.439L231.952 200.704H222.577L223.092 191.357ZM231.897 201.762L231.4 211.109H222.034L222.531 201.762H231.897ZM232.955 201.762H242.274L241.787 211.109H232.43L232.955 201.762ZM243.351 201.762H252.67L252.183 211.109H242.835L243.351 201.762ZM253.756 201.762H263.103L262.615 211.109H253.241L253.756 201.762ZM253.811 200.704L254.234 191.357H263.618L263.131 200.704H253.811ZM264.676 191.357H274.023L273.554 200.741H264.189L264.676 191.357ZM264.731 190.299L265.228 180.952H274.566L274.079 190.299H264.731ZM265.283 179.894L265.771 170.556H275.118L274.621 179.894H265.283ZM265.826 169.498L266.332 159.884H275.67L275.173 169.498H265.826ZM264.768 169.498H255.421L255.927 159.884H265.274L264.768 169.498ZM254.363 169.498H245.034L245.54 159.884H254.887L254.363 169.498ZM243.958 169.498H234.611L235.117 159.884H244.464L243.958 169.498ZM233.553 169.498H224.215L224.711 159.884H234.059L233.553 169.498ZM223.157 169.498H213.809L214.306 159.884H223.653L223.157 169.498ZM223.092 170.556L222.605 179.894H213.257L213.754 170.556H223.092ZM212.199 179.894H202.595L203.082 170.556H212.696L212.199 179.894ZM212.144 180.952L211.657 190.299H202.052L202.539 180.952H212.144ZM211.601 191.357L211.114 200.704H201.5L201.997 191.357H211.601ZM211.059 201.762L210.571 211.109H200.957L201.445 201.762H211.059ZM212.117 201.762H221.464L220.967 211.109H211.629L212.117 201.762ZM220.912 212.167L220.415 221.772H211.068L211.574 212.167H220.912ZM221.97 212.167H231.317L230.82 221.772H221.473L221.97 212.167ZM232.375 212.167H241.722L241.216 221.772H231.878L232.375 212.167ZM242.78 212.167H252.127L251.621 221.772H242.274L242.78 212.167ZM253.185 212.167H262.514L262.008 221.772H252.679L253.185 212.167ZM263.591 212.167H272.938L272.432 221.772H263.085L263.591 212.167ZM263.646 211.109L264.133 201.762H273.481L272.993 211.109H263.646ZM274.539 201.762H284.143L283.674 211.146H274.051L274.539 201.762ZM274.594 200.704L275.081 191.357H284.695L284.199 200.704H274.594ZM275.137 190.299L275.624 180.952H285.238L284.751 190.299H275.137ZM275.679 179.894L276.176 170.556H285.781L285.293 179.894H275.679ZM213.248 159.884L212.751 169.498H203.137L203.643 159.884H213.248ZM200.874 212.204H210.488L209.982 221.809H200.396L200.874 212.204ZM273.462 221.809L273.968 212.204H283.573L283.067 221.809H273.462Z" fill="#5CADF8"/>
<path opacity="0.25" d="M203.137 159.387L199.844 222.342H283.564L286.867 159.387H203.137ZM285.836 169.507H276.231L276.728 159.893H286.342L285.836 169.507ZM242.817 191.357L242.32 200.704H232.982L233.47 191.357H242.817ZM233.525 190.299L234.013 180.952H243.36L242.872 190.299H233.525ZM243.875 191.357H253.213L252.725 200.704H243.378L243.875 191.357ZM243.93 190.299L244.418 180.952H253.765L253.314 190.336L243.93 190.299ZM254.823 180.952H264.17L263.673 190.299H254.326L254.823 180.952ZM254.878 179.894L255.366 170.556H264.713L264.225 179.894H254.878ZM253.82 179.894H244.473L244.961 170.556H254.308L253.82 179.894ZM243.415 179.894H234.068L234.555 170.556H243.903L243.415 179.894ZM233.01 179.894H223.663L224.15 170.556H233.497L233.01 179.894ZM232.955 180.952L232.467 190.299H223.12L223.607 180.952H232.955ZM222.034 190.336H212.715L213.202 180.988H222.549L222.034 190.336ZM222.034 191.357L221.547 200.704H212.172L212.659 191.357H222.034ZM223.092 191.357H232.439L231.952 200.704H222.577L223.092 191.357ZM231.897 201.762L231.4 211.109H222.034L222.531 201.762H231.897ZM232.955 201.762H242.274L241.787 211.109H232.43L232.955 201.762ZM243.351 201.762H252.67L252.183 211.109H242.835L243.351 201.762ZM253.756 201.762H263.103L262.615 211.109H253.241L253.756 201.762ZM253.811 200.704L254.234 191.357H263.618L263.131 200.704H253.811ZM264.676 191.357H274.023L273.554 200.741H264.189L264.676 191.357ZM264.731 190.299L265.228 180.952H274.566L274.079 190.299H264.731ZM265.283 179.894L265.771 170.556H275.118L274.621 179.894H265.283ZM265.826 169.498L266.332 159.884H275.67L275.173 169.498H265.826ZM264.768 169.498H255.421L255.927 159.884H265.274L264.768 169.498ZM254.363 169.498H245.034L245.54 159.884H254.887L254.363 169.498ZM243.958 169.498H234.611L235.117 159.884H244.464L243.958 169.498ZM233.553 169.498H224.215L224.711 159.884H234.059L233.553 169.498ZM223.157 169.498H213.809L214.306 159.884H223.653L223.157 169.498ZM223.092 170.556L222.605 179.894H213.257L213.754 170.556H223.092ZM212.199 179.894H202.595L203.082 170.556H212.696L212.199 179.894ZM212.144 180.952L211.657 190.299H202.052L202.539 180.952H212.144ZM211.601 191.357L211.114 200.704H201.5L201.997 191.357H211.601ZM211.059 201.762L210.571 211.109H200.957L201.445 201.762H211.059ZM212.117 201.762H221.464L220.967 211.109H211.629L212.117 201.762ZM220.912 212.167L220.415 221.772H211.068L211.574 212.167H220.912ZM221.97 212.167H231.317L230.82 221.772H221.473L221.97 212.167ZM232.375 212.167H241.722L241.216 221.772H231.878L232.375 212.167ZM242.78 212.167H252.127L251.621 221.772H242.274L242.78 212.167ZM253.185 212.167H262.514L262.008 221.772H252.679L253.185 212.167ZM263.591 212.167H272.938L272.432 221.772H263.085L263.591 212.167ZM263.646 211.109L264.133 201.762H273.481L272.993 211.109H263.646ZM274.539 201.762H284.143L283.674 211.146H274.051L274.539 201.762ZM274.594 200.704L275.081 191.357H284.695L284.199 200.704H274.594ZM275.137 190.299L275.624 180.952H285.238L284.751 190.299H275.137ZM275.679 179.894L276.176 170.556H285.781L285.293 179.894H275.679ZM213.248 159.884L212.751 169.498H203.137L203.643 159.884H213.248ZM200.874 212.204H210.488L209.982 221.809H200.396L200.874 212.204ZM273.462 221.809L273.968 212.204H283.573L283.067 221.809H273.462Z" fill="#F2F7FA"/>
<path opacity="0.1" d="M269.813 195.864L245.037 193.316L268.23 184.704L268.488 179.865C263.888 173.03 254.292 168.365 242.912 168.365C226.609 168.365 212.883 177.952 212.267 189.774C212.267 190.114 212.267 190.454 212.267 190.795C212.267 191.135 212.046 194.272 212.027 194.613C211.411 206.444 224.125 216.021 240.437 216.021C253.823 216.021 265.461 209.581 269.546 200.712L269.813 195.864Z" fill="#132043"/>
<path opacity="0.1" d="M258.785 189.155L286.772 195.246C287.671 193.333 288.195 191.266 288.317 189.155C288.317 188.557 288.317 187.978 288.317 187.389C288.422 186.78 288.49 186.166 288.52 185.549C288.685 182.025 287.69 178.544 285.686 175.641L259.006 185.549L258.785 189.155Z" fill="#132043"/>
<path d="M267.812 193.751L243.064 191.202L266.258 182.591L266.515 177.752C261.915 170.916 252.32 166.252 240.939 166.252C224.637 166.252 210.91 175.838 210.294 187.66C210.294 188.001 210.294 188.341 210.294 188.682C210.294 189.022 210.073 192.159 210.055 192.5C209.438 204.331 222.153 213.908 238.464 213.908C251.85 213.908 263.488 207.468 267.573 198.599L267.812 193.751Z" fill="#5CADF8"/>
<path d="M239.815 187.68L266.495 177.771C261.895 170.936 252.299 166.271 240.919 166.271C224.616 166.271 210.89 175.858 210.273 187.68C209.657 199.502 222.371 209.088 238.674 209.088C252.069 209.088 263.707 202.648 267.792 193.77L239.815 187.68Z" fill="#F2F7FA"/>
<path d="M256.773 187.043L284.76 193.133C285.659 191.22 286.184 189.153 286.305 187.043C286.305 186.445 286.305 185.865 286.305 185.276C286.411 184.668 286.478 184.053 286.508 183.436C286.672 179.915 285.676 176.438 283.674 173.537L256.994 183.446L256.773 187.043Z" fill="#5CADF8"/>
<path d="M284.953 189.518C285.851 187.605 286.372 185.537 286.489 183.427C286.657 179.911 285.668 176.438 283.674 173.537L256.994 183.445L284.953 189.518Z" fill="#F2F7FA"/>
<path opacity="0.1" d="M206.94 199.54L209.424 152.252H202.717C201.02 152.27 199.392 152.929 198.161 154.099C196.931 155.268 196.188 156.86 196.084 158.554L192.698 223.184C192.645 223.997 192.76 224.813 193.037 225.58C193.314 226.346 193.746 227.048 194.307 227.639C194.868 228.231 195.544 228.701 196.295 229.018C197.046 229.336 197.854 229.495 198.669 229.486H239.149L239.765 217.811C239.845 216.48 239.65 215.147 239.193 213.894C238.736 212.641 238.027 211.495 237.109 210.527C236.192 209.56 235.085 208.791 233.858 208.268C232.631 207.745 231.31 207.48 229.977 207.489H202.938C204.112 206.507 205.072 205.295 205.76 203.928C206.448 202.561 206.85 201.068 206.94 199.54Z" fill="#132043"/>
<path d="M105.585 134.655L102.19 199.294C102.138 200.107 102.254 200.922 102.532 201.688C102.809 202.454 103.241 203.155 103.802 203.746C104.362 204.338 105.038 204.807 105.788 205.125C106.538 205.444 107.346 205.604 108.161 205.596H193.601C195.298 205.578 196.926 204.918 198.157 203.749C199.387 202.58 200.13 200.988 200.234 199.294L203.638 134.655C203.692 133.842 203.576 133.026 203.299 132.26C203.022 131.494 202.59 130.793 202.029 130.202C201.468 129.611 200.791 129.143 200.041 128.826C199.29 128.509 198.482 128.351 197.667 128.362H112.209C110.513 128.377 108.886 129.035 107.657 130.203C106.428 131.371 105.687 132.962 105.585 134.655Z" fill="#5CADF8"/>
<path opacity="0.5" d="M105.585 134.655L102.19 199.294C102.138 200.107 102.254 200.922 102.532 201.688C102.809 202.454 103.241 203.155 103.802 203.746C104.362 204.338 105.038 204.807 105.788 205.125C106.538 205.444 107.346 205.604 108.161 205.596H193.601C195.298 205.578 196.926 204.918 198.157 203.749C199.387 202.58 200.13 200.988 200.234 199.294L203.638 134.655C203.692 133.842 203.576 133.026 203.299 132.26C203.022 131.494 202.59 130.793 202.029 130.202C201.468 129.611 200.791 129.143 200.041 128.826C199.29 128.509 198.482 128.351 197.667 128.362H112.209C110.513 128.377 108.886 129.035 107.657 130.203C106.428 131.371 105.687 132.962 105.585 134.655Z" fill="#F2F7FA"/>
<path d="M199.767 128.362H197.651C198.467 128.349 199.277 128.505 200.03 128.821C200.783 129.136 201.462 129.604 202.025 130.196C202.587 130.787 203.021 131.489 203.299 132.256C203.578 133.024 203.693 133.84 203.64 134.655L200.254 199.294C200.15 200.988 199.408 202.58 198.177 203.749C196.946 204.919 195.318 205.578 193.621 205.596H195.737C197.435 205.578 199.062 204.919 200.293 203.749C201.524 202.58 202.266 200.988 202.37 199.294L205.756 134.655C205.809 133.84 205.693 133.024 205.415 132.256C205.137 131.489 204.703 130.787 204.141 130.196C203.578 129.604 202.899 129.136 202.146 128.821C201.393 128.505 200.583 128.349 199.767 128.362Z" fill="#5CADF8"/>
<path d="M112.678 135.508L109.375 198.454H193.141L196.435 135.508H112.678ZM195.377 145.628H185.763L186.269 136.014H195.883L195.377 145.628ZM152.348 167.496L151.861 176.834H142.513L143.001 167.496H152.348ZM143.065 166.438L143.553 157.091H152.9L152.403 166.438H143.065ZM153.406 167.496H162.753L162.238 176.853H152.919L153.406 167.496ZM153.461 166.438L153.958 157.091H163.296L162.809 166.438H153.461ZM164.354 157.091H173.701L173.214 166.438H163.867L164.354 157.091ZM164.409 156.033L164.906 146.686H174.253L173.757 156.033H164.409ZM163.351 156.033H154.013L154.501 146.686H163.848L163.351 156.033ZM152.955 156.033H143.608L144.096 146.686H153.443L152.955 156.033ZM142.55 156.033H133.203L133.691 146.686H143.038L142.55 156.033ZM142.495 157.091L141.998 166.457H132.66L133.148 157.109L142.495 157.091ZM131.602 166.457H122.255L122.743 157.109H132.09L131.602 166.457ZM131.547 167.515L131.05 176.853H121.758L122.246 167.515H131.547ZM132.605 167.515H141.943L141.455 176.853H132.108L132.605 167.515ZM141.4 177.911L140.913 187.258H131.565L132.053 177.911H141.4ZM142.458 177.911H151.805L151.318 187.258H141.998L142.458 177.911ZM152.863 177.911H162.238L161.751 187.258H152.376L152.863 177.911ZM163.269 177.911H172.616L172.119 187.258H162.781L163.269 177.911ZM163.324 176.853L163.811 167.515H173.159L172.671 176.853H163.324ZM174.198 167.515H183.545L183.058 176.853H173.729L174.198 167.515ZM174.253 166.457L174.741 157.109H184.088L183.601 166.457H174.253ZM174.796 156.051L175.293 146.704H184.631L184.143 156.051H174.796ZM175.348 145.646L175.845 136.032H185.238L184.732 145.646H175.348ZM174.29 145.646H164.998L165.495 136.032H174.842L174.29 145.646ZM163.885 145.646H154.556L155.062 136.032H164.4L163.885 145.646ZM153.48 145.646H144.151L144.657 136.032H154.004L153.48 145.646ZM143.075 145.646H133.718L134.224 136.032H143.571L143.075 145.646ZM132.669 145.646H123.341L123.847 136.032H133.194L132.669 145.646ZM132.614 146.704L132.127 156.051H122.798L123.285 146.704H132.614ZM121.758 156.051H112.135L112.623 146.704H122.227L121.758 156.051ZM121.703 157.109L121.215 166.457H111.583L112.071 157.109H121.703ZM121.16 167.515L120.673 176.853H111.04L111.528 167.515H121.16ZM120.617 177.911L120.121 187.258H110.497L110.985 177.911H120.617ZM121.675 177.911H130.958L130.471 187.258H121.16L121.675 177.911ZM130.471 188.316L129.965 197.93H120.608L121.105 188.316H130.471ZM131.529 188.316H140.876L140.37 197.93H131.004L131.529 188.316ZM141.934 188.316H151.281L150.775 197.93H141.409L141.934 188.316ZM152.339 188.316H161.686L161.18 197.93H151.815L152.339 188.316ZM162.744 188.316H172.082L171.585 197.93H162.238L162.744 188.316ZM173.14 188.316H182.478L181.981 197.93H172.625L173.14 188.316ZM173.195 187.258L173.692 177.911H183.039L182.543 187.258H173.195ZM184.097 177.911H193.702L193.215 187.258H183.582L184.097 177.911ZM184.153 176.853L184.64 167.515H194.245L193.757 176.853H184.153ZM184.695 166.457L185.183 157.109H194.797L194.3 166.457H184.695ZM185.238 156.051L185.726 146.704H195.358L194.871 156.051H185.238ZM122.789 136.032L122.283 145.646H112.678L113.184 136.032H122.789ZM110.442 188.316H120.047L119.55 197.93H109.936L110.442 188.316ZM183.03 197.93L183.527 188.316H193.141L192.598 197.93H183.03Z" fill="#5CADF8"/>
<path opacity="0.25" d="M112.678 135.508L109.375 198.454H193.141L196.435 135.508H112.678ZM195.377 145.628H185.763L186.269 136.014H195.883L195.377 145.628ZM152.348 167.496L151.861 176.834H142.513L143.001 167.496H152.348ZM143.065 166.438L143.553 157.091H152.9L152.403 166.438H143.065ZM153.406 167.496H162.753L162.238 176.853H152.919L153.406 167.496ZM153.461 166.438L153.958 157.091H163.296L162.809 166.438H153.461ZM164.354 157.091H173.701L173.214 166.438H163.867L164.354 157.091ZM164.409 156.033L164.906 146.686H174.253L173.757 156.033H164.409ZM163.351 156.033H154.013L154.501 146.686H163.848L163.351 156.033ZM152.955 156.033H143.608L144.096 146.686H153.443L152.955 156.033ZM142.55 156.033H133.203L133.691 146.686H143.038L142.55 156.033ZM142.495 157.091L141.998 166.457H132.66L133.148 157.109L142.495 157.091ZM131.602 166.457H122.255L122.743 157.109H132.09L131.602 166.457ZM131.547 167.515L131.05 176.853H121.758L122.246 167.515H131.547ZM132.605 167.515H141.943L141.455 176.853H132.108L132.605 167.515ZM141.4 177.911L140.913 187.258H131.565L132.053 177.911H141.4ZM142.458 177.911H151.805L151.318 187.258H141.998L142.458 177.911ZM152.863 177.911H162.238L161.751 187.258H152.376L152.863 177.911ZM163.269 177.911H172.616L172.119 187.258H162.781L163.269 177.911ZM163.324 176.853L163.811 167.515H173.159L172.671 176.853H163.324ZM174.198 167.515H183.545L183.058 176.853H173.729L174.198 167.515ZM174.253 166.457L174.741 157.109H184.088L183.601 166.457H174.253ZM174.796 156.051L175.293 146.704H184.631L184.143 156.051H174.796ZM175.348 145.646L175.845 136.032H185.238L184.732 145.646H175.348ZM174.29 145.646H164.998L165.495 136.032H174.842L174.29 145.646ZM163.885 145.646H154.556L155.062 136.032H164.4L163.885 145.646ZM153.48 145.646H144.151L144.657 136.032H154.004L153.48 145.646ZM143.075 145.646H133.718L134.224 136.032H143.571L143.075 145.646ZM132.669 145.646H123.341L123.847 136.032H133.194L132.669 145.646ZM132.614 146.704L132.127 156.051H122.798L123.285 146.704H132.614ZM121.758 156.051H112.135L112.623 146.704H122.227L121.758 156.051ZM121.703 157.109L121.215 166.457H111.583L112.071 157.109H121.703ZM121.16 167.515L120.673 176.853H111.04L111.528 167.515H121.16ZM120.617 177.911L120.121 187.258H110.497L110.985 177.911H120.617ZM121.675 177.911H130.958L130.471 187.258H121.16L121.675 177.911ZM130.471 188.316L129.965 197.93H120.608L121.105 188.316H130.471ZM131.529 188.316H140.876L140.37 197.93H131.004L131.529 188.316ZM141.934 188.316H151.281L150.775 197.93H141.409L141.934 188.316ZM152.339 188.316H161.686L161.18 197.93H151.815L152.339 188.316ZM162.744 188.316H172.082L171.585 197.93H162.238L162.744 188.316ZM173.14 188.316H182.478L181.981 197.93H172.625L173.14 188.316ZM173.195 187.258L173.692 177.911H183.039L182.543 187.258H173.195ZM184.097 177.911H193.702L193.215 187.258H183.582L184.097 177.911ZM184.153 176.853L184.64 167.515H194.245L193.757 176.853H184.153ZM184.695 166.457L185.183 157.109H194.797L194.3 166.457H184.695ZM185.238 156.051L185.726 146.704H195.358L194.871 156.051H185.238ZM122.789 136.032L122.283 145.646H112.678L113.184 136.032H122.789ZM110.442 188.316H120.047L119.55 197.93H109.936L110.442 188.316ZM183.03 197.93L183.527 188.316H193.141L192.598 197.93H183.03Z" fill="#F2F7FA"/>
<path opacity="0.1" d="M178.39 148.283L180.148 150.142L163.358 166.104L153.495 155.698L140.716 167.842L130.504 186.325L120.642 175.92L109.795 195.571L109.547 200.3H111.911L121.433 183.068L131.286 193.474L144.065 170.345L153.182 161.688L163.045 172.084L182.99 153.132L184.748 154.99L185.097 148.283H178.39Z" fill="#132043"/>
<path d="M178.509 146.17L180.257 148.028L163.467 163.99L153.605 153.585L140.826 165.729L130.614 184.212L120.751 173.816L109.905 193.458L109.656 198.196H112.021L121.543 180.955L131.396 191.36L144.175 168.232L153.292 159.565L163.154 169.97L183.1 151.018L184.857 152.877L185.207 146.17H178.509Z" fill="#F2F7FA"/>
<path d="M148.084 217.56L145.14 273.772C145.094 274.479 145.195 275.187 145.436 275.853C145.676 276.519 146.052 277.128 146.539 277.642C147.026 278.156 147.614 278.563 148.266 278.839C148.918 279.116 149.62 279.254 150.328 279.246H224.628C226.102 279.23 227.515 278.657 228.583 277.642C229.652 276.626 230.296 275.244 230.387 273.772L233.34 217.56C233.384 216.853 233.282 216.145 233.04 215.479C232.799 214.813 232.422 214.204 231.934 213.69C231.446 213.177 230.858 212.769 230.205 212.493C229.553 212.217 228.85 212.079 228.142 212.086H153.852C152.377 212.102 150.963 212.675 149.893 213.69C148.823 214.706 148.176 216.088 148.084 217.56Z" fill="#5CADF8"/>
<path opacity="0.5" d="M148.084 217.56L145.14 273.772C145.094 274.479 145.195 275.187 145.436 275.853C145.676 276.519 146.052 277.128 146.539 277.642C147.026 278.156 147.614 278.563 148.266 278.839C148.918 279.116 149.62 279.254 150.328 279.246H224.628C226.102 279.23 227.515 278.657 228.583 277.642C229.652 276.626 230.296 275.244 230.387 273.772L233.34 217.56C233.384 216.853 233.282 216.145 233.04 215.479C232.799 214.813 232.422 214.204 231.934 213.69C231.446 213.177 230.858 212.769 230.205 212.493C229.553 212.217 228.85 212.079 228.142 212.086H153.852C152.377 212.102 150.963 212.675 149.893 213.69C148.823 214.706 148.176 216.088 148.084 217.56Z" fill="#F2F7FA"/>
<path d="M229.981 212.086H228.141C228.85 212.079 229.552 212.217 230.205 212.493C230.857 212.769 231.446 213.177 231.933 213.69C232.421 214.204 232.798 214.813 233.04 215.479C233.282 216.145 233.384 216.853 233.339 217.56L230.386 273.772C230.296 275.244 229.651 276.626 228.583 277.642C227.514 278.657 226.101 279.23 224.627 279.246H226.467C227.941 279.23 229.354 278.657 230.423 277.642C231.491 276.626 232.136 275.244 232.226 273.772L235.179 217.56C235.224 216.853 235.122 216.145 234.88 215.479C234.638 214.813 234.261 214.204 233.773 213.69C233.286 213.177 232.697 212.769 232.045 212.493C231.392 212.217 230.69 212.079 229.981 212.086Z" fill="#5CADF8"/>
<path d="M154.253 218.299L151.383 273.039H224.219L227.08 218.299H154.253ZM226.16 227.112H217.807L218.239 218.759H226.639L226.16 227.112ZM188.753 246.129L188.321 254.252H180.197L180.62 246.129H188.753ZM180.666 245.209L181.099 237.085H189.222L188.799 245.209H180.666ZM189.673 246.129H197.797L197.374 254.252H189.241L189.673 246.129ZM189.719 245.209L190.142 237.085H198.266L197.843 245.209H189.719ZM199.186 237.085H207.319L206.886 245.209H198.763L199.186 237.085ZM199.241 236.165L199.664 228.032H207.788L207.365 236.165H199.241ZM198.321 236.165H190.188L190.621 228.032H198.744L198.321 236.165ZM189.268 236.165H181.145L181.568 228.032H189.701L189.268 236.165ZM180.225 236.165H172.101L172.524 228.032H180.639L180.225 236.165ZM180.179 237.085L179.746 245.209H171.623L172.046 237.085H180.179ZM170.703 245.209H162.579L163.002 237.085H171.126L170.703 245.209ZM170.703 246.129L170.28 254.252H162.147L162.579 246.129H170.703ZM171.623 246.129H179.719L179.296 254.252H171.172L171.623 246.129ZM179.277 255.172L178.799 263.305H170.675L171.098 255.172H179.277ZM180.197 255.172H188.321L187.898 263.305H179.719L180.197 255.172ZM189.241 255.172H197.364L196.941 263.305H188.818L189.241 255.172ZM198.284 255.172H206.399L205.966 263.305H197.843L198.284 255.172ZM198.34 254.252L198.763 246.129H206.886L206.463 254.252H198.34ZM207.806 246.129H215.939L215.507 254.252H207.319L207.806 246.129ZM207.806 245.209L208.239 237.085H216.362L215.939 245.209H207.806ZM208.285 236.165L208.708 228.032H216.841L216.408 236.165H208.285ZM208.763 227.112L209.196 218.759H217.319L216.887 227.112H208.763ZM207.843 227.112H199.71L200.152 218.759H208.239L207.843 227.112ZM198.79 227.112H190.667L191.099 218.759H199.232L198.79 227.112ZM189.747 227.112H181.623L182.056 218.759H190.179L189.747 227.112ZM180.703 227.112H172.57L173.012 218.759H181.136L180.703 227.112ZM171.65 227.112H163.527L163.959 218.759H172.092L171.65 227.112ZM171.65 228.032L171.227 236.165H163.094L163.527 228.032H171.65ZM162.174 236.165H153.775L154.198 228.032H162.561L162.174 236.165ZM162.174 237.085L161.751 245.209H153.388L153.821 237.085H162.174ZM161.705 246.129L161.273 254.252H152.919L153.342 246.129H161.705ZM161.227 255.172L160.804 263.305H152.441L152.873 255.172H161.227ZM162.147 255.172H170.27L169.847 263.305H161.724L162.147 255.172ZM169.801 264.225L169.36 272.579H161.236L161.668 264.225H169.801ZM170.721 264.225H178.799L178.366 272.579H170.234L170.721 264.225ZM179.765 264.225H187.888L187.456 272.579H179.332L179.765 264.225ZM188.808 264.225H196.941L196.5 272.579H188.376L188.808 264.225ZM197.861 264.225H205.985L205.552 272.579H197.42L197.861 264.225ZM206.905 264.225H215.028L214.596 272.579H206.399L206.905 264.225ZM206.951 263.305L207.383 255.172H215.507L215.084 263.305H206.951ZM216.427 255.172H224.78L224.357 263.305H216.004L216.427 255.172ZM216.473 254.252L216.905 246.129H225.259L224.836 254.252H216.473ZM216.951 245.209L217.374 237.085H225.728L225.305 245.209H216.951ZM217.42 236.165L217.853 228.032H226.206L225.719 236.165H217.42ZM163.14 218.759L162.708 227.112H154.354L154.787 218.759H163.14ZM152.303 264.225H160.656L160.224 272.579H151.87L152.303 264.225ZM215.424 272.579L215.856 264.225H224.219L223.778 272.579H215.424Z" fill="#5CADF8"/>
<path opacity="0.25" d="M154.253 218.299L151.383 273.039H224.219L227.08 218.299H154.253ZM226.16 227.112H217.807L218.239 218.759H226.639L226.16 227.112ZM188.753 246.129L188.321 254.252H180.197L180.62 246.129H188.753ZM180.666 245.209L181.099 237.085H189.222L188.799 245.209H180.666ZM189.673 246.129H197.797L197.374 254.252H189.241L189.673 246.129ZM189.719 245.209L190.142 237.085H198.266L197.843 245.209H189.719ZM199.186 237.085H207.319L206.886 245.209H198.763L199.186 237.085ZM199.241 236.165L199.664 228.032H207.788L207.365 236.165H199.241ZM198.321 236.165H190.188L190.621 228.032H198.744L198.321 236.165ZM189.268 236.165H181.145L181.568 228.032H189.701L189.268 236.165ZM180.225 236.165H172.101L172.524 228.032H180.639L180.225 236.165ZM180.179 237.085L179.746 245.209H171.623L172.046 237.085H180.179ZM170.703 245.209H162.579L163.002 237.085H171.126L170.703 245.209ZM170.703 246.129L170.28 254.252H162.147L162.579 246.129H170.703ZM171.623 246.129H179.719L179.296 254.252H171.172L171.623 246.129ZM179.277 255.172L178.799 263.305H170.675L171.098 255.172H179.277ZM180.197 255.172H188.321L187.898 263.305H179.719L180.197 255.172ZM189.241 255.172H197.364L196.941 263.305H188.818L189.241 255.172ZM198.284 255.172H206.399L205.966 263.305H197.843L198.284 255.172ZM198.34 254.252L198.763 246.129H206.886L206.463 254.252H198.34ZM207.806 246.129H215.939L215.507 254.252H207.319L207.806 246.129ZM207.806 245.209L208.239 237.085H216.362L215.939 245.209H207.806ZM208.285 236.165L208.708 228.032H216.841L216.408 236.165H208.285ZM208.763 227.112L209.196 218.759H217.319L216.887 227.112H208.763ZM207.843 227.112H199.71L200.152 218.759H208.239L207.843 227.112ZM198.79 227.112H190.667L191.099 218.759H199.232L198.79 227.112ZM189.747 227.112H181.623L182.056 218.759H190.179L189.747 227.112ZM180.703 227.112H172.57L173.012 218.759H181.136L180.703 227.112ZM171.65 227.112H163.527L163.959 218.759H172.092L171.65 227.112ZM171.65 228.032L171.227 236.165H163.094L163.527 228.032H171.65ZM162.174 236.165H153.775L154.198 228.032H162.561L162.174 236.165ZM162.174 237.085L161.751 245.209H153.388L153.821 237.085H162.174ZM161.705 246.129L161.273 254.252H152.919L153.342 246.129H161.705ZM161.227 255.172L160.804 263.305H152.441L152.873 255.172H161.227ZM162.147 255.172H170.27L169.847 263.305H161.724L162.147 255.172ZM169.801 264.225L169.36 272.579H161.236L161.668 264.225H169.801ZM170.721 264.225H178.799L178.366 272.579H170.234L170.721 264.225ZM179.765 264.225H187.888L187.456 272.579H179.332L179.765 264.225ZM188.808 264.225H196.941L196.5 272.579H188.376L188.808 264.225ZM197.861 264.225H205.985L205.552 272.579H197.42L197.861 264.225ZM206.905 264.225H215.028L214.596 272.579H206.399L206.905 264.225ZM206.951 263.305L207.383 255.172H215.507L215.084 263.305H206.951ZM216.427 255.172H224.78L224.357 263.305H216.004L216.427 255.172ZM216.473 254.252L216.905 246.129H225.259L224.836 254.252H216.473ZM216.951 245.209L217.374 237.085H225.728L225.305 245.209H216.951ZM217.42 236.165L217.853 228.032H226.206L225.719 236.165H217.42ZM163.14 218.759L162.708 227.112H154.354L154.787 218.759H163.14ZM152.303 264.225H160.656L160.224 272.579H151.87L152.303 264.225ZM215.424 272.579L215.856 264.225H224.219L223.778 272.579H215.424Z" fill="#F2F7FA"/>
<g opacity="0.1">
<path d="M161.049 274.421H156.734L157.7 255.947H162.024L161.049 274.421Z" fill="#132043"/>
<path d="M170.517 267.217H166.193L167.537 241.688H171.851L170.517 267.217Z" fill="#132043"/>
<path d="M180.049 258.769H175.725L176.967 235.023H181.291L180.049 258.769Z" fill="#132043"/>
<path d="M188.928 262.618H184.613L185.938 237.318H190.253L188.928 262.618Z" fill="#132043"/>
<path d="M198.345 256.293H194.021L195.374 230.523H199.689L198.345 256.293Z" fill="#132043"/>
<path d="M207.155 261.363H202.84L204.22 235.023H208.535L207.155 261.363Z" fill="#132043"/>
<path d="M216.606 254.454H212.291L213.781 226.035H218.096L216.606 254.454Z" fill="#132043"/>
<path d="M225.924 249.969H221.609L223.173 220.143H227.488L225.924 249.969Z" fill="#132043"/>
</g>
<path d="M160.226 272.577H155.902L156.878 254.104H161.192L160.226 272.577Z" fill="#F2F7FA"/>
<path d="M169.678 265.374H165.363L166.697 239.844H171.021L169.678 265.374Z" fill="#F2F7FA"/>
<path d="M179.209 256.915H174.895L176.137 233.17H180.451L179.209 256.915Z" fill="#F2F7FA"/>
<path d="M188.095 260.775H183.771L185.096 235.475H189.42L188.095 260.775Z" fill="#F2F7FA"/>
<path d="M197.514 254.441H193.199L194.552 228.672H198.866L197.514 254.441Z" fill="#F2F7FA"/>
<path d="M206.334 259.51H202.01L203.39 233.17H207.714L206.334 259.51Z" fill="#F2F7FA"/>
<path d="M215.783 252.6H211.459L212.949 224.182H217.273L215.783 252.6Z" fill="#F2F7FA"/>
<path d="M225.101 248.125H220.777L222.341 218.299H226.665L225.101 248.125Z" fill="#F2F7FA"/>
<path d="M263.338 142.258L262.345 161.256C262.331 161.494 262.366 161.733 262.448 161.957C262.531 162.181 262.658 162.386 262.823 162.558C262.988 162.731 263.187 162.868 263.407 162.96C263.627 163.053 263.863 163.099 264.102 163.096H284.232C284.728 163.09 285.205 162.898 285.566 162.557C285.927 162.216 286.147 161.752 286.182 161.256L287.176 142.258C287.191 142.02 287.157 141.782 287.075 141.558C286.994 141.334 286.868 141.129 286.703 140.956C286.539 140.784 286.341 140.647 286.122 140.554C285.902 140.461 285.666 140.415 285.428 140.418H265.28C264.784 140.426 264.31 140.62 263.951 140.96C263.591 141.301 263.373 141.764 263.338 142.258Z" fill="#5CADF8"/>
<path opacity="0.6" d="M263.338 142.258L262.345 161.256C262.331 161.494 262.366 161.733 262.448 161.957C262.531 162.181 262.658 162.386 262.823 162.558C262.988 162.731 263.187 162.868 263.407 162.96C263.627 163.053 263.863 163.099 264.102 163.096H284.232C284.728 163.09 285.205 162.898 285.566 162.557C285.927 162.216 286.147 161.752 286.182 161.256L287.176 142.258C287.191 142.02 287.157 141.782 287.075 141.558C286.994 141.334 286.868 141.129 286.703 140.956C286.539 140.784 286.341 140.647 286.122 140.554C285.902 140.461 285.666 140.415 285.428 140.418H265.28C264.784 140.426 264.31 140.62 263.951 140.96C263.591 141.301 263.373 141.764 263.338 142.258Z" fill="#F2F7FA"/>
<path d="M286.898 140.406H285.426C285.665 140.403 285.901 140.45 286.121 140.542C286.34 140.635 286.538 140.772 286.702 140.945C286.866 141.117 286.993 141.322 287.074 141.546C287.156 141.77 287.19 142.009 287.174 142.246L286.181 161.244C286.146 161.74 285.926 162.204 285.565 162.545C285.204 162.886 284.727 163.079 284.23 163.084H285.702C286.199 163.079 286.676 162.886 287.037 162.545C287.398 162.204 287.618 161.74 287.653 161.244L288.646 142.246C288.662 142.009 288.628 141.77 288.546 141.546C288.465 141.322 288.338 141.117 288.174 140.945C288.01 140.772 287.812 140.635 287.593 140.542C287.373 140.45 287.137 140.403 286.898 140.406Z" fill="#5CADF8"/>
<path opacity="0.2" d="M286.898 140.406H285.426C285.665 140.403 285.901 140.45 286.121 140.542C286.34 140.635 286.538 140.772 286.702 140.945C286.866 141.117 286.993 141.322 287.074 141.546C287.156 141.77 287.19 142.009 287.174 142.246L286.181 161.244C286.146 161.74 285.926 162.204 285.565 162.545C285.204 162.886 284.727 163.079 284.23 163.084H285.702C286.199 163.079 286.676 162.886 287.037 162.545C287.398 162.204 287.618 161.74 287.653 161.244L288.646 142.246C288.662 142.009 288.628 141.77 288.546 141.546C288.465 141.322 288.338 141.117 288.174 140.945C288.01 140.772 287.812 140.635 287.593 140.542C287.373 140.45 287.137 140.403 286.898 140.406Z" fill="#F2F7FA"/>
<path d="M267.916 148.008C267.915 147.567 268.002 147.13 268.173 146.723C268.343 146.316 268.594 145.948 268.91 145.64C269.225 145.332 269.6 145.09 270.011 144.93C270.422 144.769 270.861 144.693 271.302 144.705C271.742 144.69 272.181 144.765 272.591 144.925C273.002 145.085 273.376 145.326 273.69 145.635C274.004 145.944 274.252 146.314 274.419 146.722C274.585 147.13 274.667 147.567 274.66 148.008C274.615 148.872 274.24 149.685 273.612 150.281C272.985 150.876 272.153 151.208 271.288 151.208C270.423 151.208 269.591 150.876 268.963 150.281C268.336 149.685 267.961 148.872 267.916 148.008ZM278.312 146.729L279.6 147.465L270.796 157.199L269.508 156.444L278.312 146.729ZM272.332 148.008C272.327 147.804 272.261 147.606 272.144 147.439C272.027 147.272 271.863 147.143 271.674 147.068C271.484 146.993 271.276 146.976 271.077 147.019C270.877 147.061 270.694 147.161 270.551 147.307C270.408 147.452 270.311 147.637 270.272 147.837C270.233 148.037 270.254 148.245 270.332 148.433C270.41 148.622 270.542 148.783 270.711 148.897C270.88 149.011 271.079 149.073 271.283 149.075C271.423 149.075 271.56 149.047 271.689 148.993C271.817 148.94 271.934 148.861 272.031 148.761C272.129 148.662 272.206 148.544 272.258 148.415C272.309 148.285 272.334 148.147 272.332 148.008ZM274.853 155.515C274.838 154.845 275.024 154.185 275.385 153.621C275.747 153.056 276.268 152.612 276.883 152.345C277.498 152.077 278.179 151.999 278.838 152.121C279.498 152.242 280.106 152.556 280.586 153.025C281.066 153.493 281.396 154.093 281.533 154.75C281.671 155.406 281.609 156.088 281.358 156.71C281.106 157.331 280.675 157.863 280.119 158.239C279.564 158.614 278.909 158.816 278.238 158.818C277.795 158.829 277.353 158.751 276.94 158.587C276.528 158.424 276.152 158.179 275.836 157.867C275.52 157.556 275.27 157.183 275.101 156.773C274.932 156.362 274.848 155.922 274.853 155.478V155.515ZM279.269 155.515C279.269 155.239 279.159 154.975 278.964 154.78C278.769 154.585 278.505 154.475 278.229 154.475C277.954 154.475 277.689 154.585 277.494 154.78C277.299 154.975 277.19 155.239 277.19 155.515C277.183 155.654 277.205 155.792 277.255 155.922C277.304 156.052 277.379 156.171 277.475 156.27C277.572 156.37 277.687 156.449 277.815 156.503C277.944 156.557 278.081 156.584 278.22 156.582C278.363 156.582 278.504 156.554 278.635 156.497C278.766 156.441 278.884 156.359 278.982 156.256C279.08 156.152 279.156 156.03 279.205 155.897C279.255 155.763 279.276 155.621 279.269 155.478V155.515Z" fill="#5CADF8"/>
<path d="M210.359 132.337L209.614 146.459C209.603 146.637 209.628 146.815 209.689 146.983C209.749 147.151 209.844 147.304 209.967 147.434C210.089 147.563 210.237 147.666 210.401 147.736C210.565 147.806 210.742 147.841 210.92 147.839H225.898C226.269 147.835 226.624 147.69 226.892 147.434C227.161 147.178 227.321 146.829 227.342 146.459L228.088 132.337C228.099 132.159 228.074 131.981 228.013 131.813C227.952 131.645 227.858 131.492 227.735 131.362C227.612 131.233 227.464 131.13 227.3 131.06C227.136 130.991 226.96 130.955 226.781 130.957H211.804C211.433 130.961 211.077 131.106 210.809 131.362C210.541 131.618 210.38 131.967 210.359 132.337Z" fill="#5CADF8"/>
<path opacity="0.6" d="M210.359 132.337L209.614 146.459C209.603 146.637 209.628 146.815 209.689 146.983C209.749 147.151 209.844 147.304 209.967 147.434C210.089 147.563 210.237 147.666 210.401 147.736C210.565 147.806 210.742 147.841 210.92 147.839H225.898C226.269 147.835 226.624 147.69 226.892 147.434C227.161 147.178 227.321 146.829 227.342 146.459L228.088 132.337C228.099 132.159 228.074 131.981 228.013 131.813C227.952 131.645 227.858 131.492 227.735 131.362C227.612 131.233 227.464 131.13 227.3 131.06C227.136 130.991 226.96 130.955 226.781 130.957H211.804C211.433 130.961 211.077 131.106 210.809 131.362C210.541 131.618 210.38 131.967 210.359 132.337Z" fill="#F2F7FA"/>
<path d="M227.876 130.957H226.782C226.96 130.955 227.137 130.991 227.301 131.06C227.465 131.13 227.613 131.233 227.736 131.362C227.858 131.492 227.953 131.645 228.013 131.813C228.074 131.981 228.099 132.159 228.088 132.337L227.343 146.459C227.322 146.829 227.161 147.178 226.893 147.434C226.625 147.69 226.269 147.835 225.898 147.839H226.993C227.364 147.835 227.72 147.69 227.988 147.434C228.256 147.178 228.417 146.829 228.438 146.459L229.183 132.337C229.194 132.159 229.169 131.981 229.108 131.813C229.047 131.645 228.953 131.492 228.83 131.362C228.708 131.233 228.56 131.13 228.396 131.06C228.231 130.991 228.055 130.955 227.876 130.957Z" fill="#5CADF8"/>
<path opacity="0.2" d="M227.876 130.957H226.782C226.96 130.955 227.137 130.991 227.301 131.06C227.465 131.13 227.613 131.233 227.736 131.362C227.858 131.492 227.953 131.645 228.013 131.813C228.074 131.981 228.099 132.159 228.088 132.337L227.343 146.459C227.322 146.829 227.161 147.178 226.893 147.434C226.625 147.69 226.269 147.835 225.898 147.839H226.993C227.364 147.835 227.72 147.69 227.988 147.434C228.256 147.178 228.417 146.829 228.438 146.459L229.183 132.337C229.194 132.159 229.169 131.981 229.108 131.813C229.047 131.645 228.953 131.492 228.83 131.362C228.708 131.233 228.56 131.13 228.396 131.06C228.231 130.991 228.055 130.955 227.876 130.957Z" fill="#F2F7FA"/>
<path d="M224.133 141.004H220.453V144.684H217.233V141.004H213.553V137.793H217.233V134.113H220.453V137.793H224.133V141.004Z" fill="#5CADF8"/>
<path d="M239.281 235.683L238.545 249.814C238.535 249.991 238.561 250.169 238.623 250.335C238.684 250.502 238.779 250.654 238.901 250.783C239.024 250.911 239.171 251.013 239.335 251.082C239.498 251.151 239.674 251.186 239.851 251.185H254.829C255.198 251.181 255.553 251.037 255.821 250.783C256.088 250.529 256.25 250.183 256.273 249.814L257.019 235.683C257.03 235.505 257.005 235.326 256.944 235.159C256.883 234.991 256.789 234.838 256.666 234.708C256.544 234.579 256.396 234.476 256.231 234.406C256.067 234.336 255.891 234.301 255.712 234.303H240.735C240.363 234.307 240.006 234.451 239.737 234.707C239.467 234.963 239.304 235.312 239.281 235.683Z" fill="#5CADF8"/>
<path opacity="0.6" d="M239.281 235.683L238.545 249.814C238.535 249.991 238.561 250.169 238.623 250.335C238.684 250.502 238.779 250.654 238.901 250.783C239.024 250.911 239.171 251.013 239.335 251.082C239.498 251.151 239.674 251.186 239.851 251.185H254.829C255.198 251.181 255.553 251.037 255.821 250.783C256.088 250.529 256.25 250.183 256.273 249.814L257.019 235.683C257.03 235.505 257.005 235.326 256.944 235.159C256.883 234.991 256.789 234.838 256.666 234.708C256.544 234.579 256.396 234.476 256.231 234.406C256.067 234.336 255.891 234.301 255.712 234.303H240.735C240.363 234.307 240.006 234.451 239.737 234.707C239.467 234.963 239.304 235.312 239.281 235.683Z" fill="#F2F7FA"/>
<path d="M256.808 234.303H255.713C255.892 234.301 256.068 234.336 256.232 234.406C256.397 234.476 256.545 234.579 256.667 234.708C256.79 234.838 256.884 234.991 256.945 235.159C257.006 235.326 257.031 235.505 257.02 235.683L256.274 249.814C256.251 250.183 256.089 250.529 255.822 250.783C255.554 251.037 255.199 251.181 254.83 251.185H255.925C256.294 251.181 256.648 251.037 256.916 250.783C257.184 250.529 257.346 250.183 257.369 249.814L258.114 235.683C258.126 235.505 258.1 235.326 258.04 235.159C257.979 234.991 257.885 234.838 257.762 234.708C257.639 234.579 257.491 234.476 257.327 234.406C257.163 234.336 256.986 234.301 256.808 234.303Z" fill="#5CADF8"/>
<path opacity="0.2" d="M256.808 234.303H255.713C255.892 234.301 256.068 234.336 256.232 234.406C256.397 234.476 256.545 234.579 256.667 234.708C256.79 234.838 256.884 234.991 256.945 235.159C257.006 235.326 257.031 235.505 257.02 235.683L256.274 249.814C256.251 250.183 256.089 250.529 255.822 250.783C255.554 251.037 255.199 251.181 254.83 251.185H255.925C256.294 251.181 256.648 251.037 256.916 250.783C257.184 250.529 257.346 250.183 257.369 249.814L258.114 235.683C258.126 235.505 258.1 235.326 258.04 235.159C257.979 234.991 257.885 234.838 257.762 234.708C257.639 234.579 257.491 234.476 257.327 234.406C257.163 234.336 256.986 234.301 256.808 234.303Z" fill="#F2F7FA"/>
<path d="M252.512 244.348H243.045V241.137H252.512V244.348Z" fill="#5CADF8"/>
<path d="M142.406 228.026L141.403 247.024C141.39 247.262 141.427 247.5 141.509 247.723C141.592 247.946 141.72 248.151 141.884 248.323C142.049 248.495 142.247 248.632 142.466 248.725C142.686 248.818 142.922 248.865 143.16 248.864H163.299C163.795 248.86 164.272 248.668 164.632 248.326C164.992 247.985 165.21 247.519 165.24 247.024L166.243 228.026C166.255 227.788 166.219 227.55 166.136 227.326C166.054 227.103 165.926 226.899 165.761 226.726C165.597 226.554 165.399 226.417 165.179 226.324C164.96 226.231 164.724 226.184 164.486 226.186H144.347C143.85 226.189 143.374 226.381 143.013 226.723C142.653 227.064 142.436 227.53 142.406 228.026Z" fill="#5CADF8"/>
<path opacity="0.6" d="M142.406 228.026L141.403 247.024C141.39 247.262 141.427 247.5 141.509 247.723C141.592 247.946 141.72 248.151 141.884 248.323C142.049 248.495 142.247 248.632 142.466 248.725C142.686 248.818 142.922 248.865 143.16 248.864H163.299C163.795 248.86 164.272 248.668 164.632 248.326C164.992 247.985 165.21 247.519 165.24 247.024L166.243 228.026C166.255 227.788 166.219 227.55 166.136 227.326C166.054 227.103 165.926 226.899 165.761 226.726C165.597 226.554 165.399 226.417 165.179 226.324C164.96 226.231 164.724 226.184 164.486 226.186H144.347C143.85 226.189 143.374 226.381 143.013 226.723C142.653 227.064 142.436 227.53 142.406 228.026Z" fill="#F2F7FA"/>
<path d="M165.917 226.176H164.445C164.683 226.175 164.919 226.222 165.138 226.315C165.358 226.408 165.556 226.545 165.72 226.717C165.885 226.889 166.013 227.094 166.095 227.317C166.178 227.54 166.214 227.778 166.202 228.016L165.199 247.014C165.169 247.51 164.951 247.976 164.591 248.317C164.231 248.659 163.754 248.851 163.258 248.854H164.73C165.226 248.851 165.703 248.659 166.063 248.317C166.423 247.976 166.641 247.51 166.671 247.014L167.757 228.026C167.771 227.78 167.734 227.534 167.647 227.303C167.559 227.073 167.425 226.863 167.251 226.689C167.077 226.514 166.868 226.378 166.638 226.29C166.409 226.202 166.163 226.163 165.917 226.176Z" fill="#5CADF8"/>
<path opacity="0.2" d="M165.917 226.176H164.445C164.683 226.175 164.919 226.222 165.138 226.315C165.358 226.408 165.556 226.545 165.72 226.717C165.885 226.889 166.013 227.094 166.095 227.317C166.178 227.54 166.214 227.778 166.202 228.016L165.199 247.014C165.169 247.51 164.951 247.976 164.591 248.317C164.231 248.659 163.754 248.851 163.258 248.854H164.73C165.226 248.851 165.703 248.659 166.063 248.317C166.423 247.976 166.641 247.51 166.671 247.014L167.757 228.026C167.771 227.78 167.734 227.534 167.647 227.303C167.559 227.073 167.425 226.863 167.251 226.689C167.077 226.514 166.868 226.378 166.638 226.29C166.409 226.202 166.163 226.163 165.917 226.176Z" fill="#F2F7FA"/>
<path d="M154.691 243.957V245.521H153.439V243.976C152.542 243.968 151.668 243.69 150.931 243.178C150.194 242.666 149.629 241.944 149.309 241.105L151.756 239.679C151.879 240.055 152.1 240.391 152.396 240.653C152.692 240.915 153.052 241.093 153.439 241.17V238.723C153.375 238.723 153.283 238.667 153.209 238.631C151.664 238.014 149.824 237.14 149.824 234.767C149.824 233.802 150.203 232.875 150.879 232.187C151.555 231.499 152.475 231.103 153.439 231.087V229.541H154.691V231.123C155.452 231.196 156.179 231.474 156.795 231.928C157.411 232.381 157.892 232.994 158.187 233.699L155.795 235.098C155.717 234.833 155.577 234.591 155.386 234.391C155.196 234.191 154.96 234.039 154.7 233.948V236.34C156.245 237.002 158.334 237.591 158.334 240.176C158.325 242.403 156.797 243.709 154.691 243.957ZM153.439 235.76V233.92C153.222 233.955 153.024 234.068 152.882 234.237C152.74 234.406 152.664 234.62 152.667 234.84C152.667 235.116 152.823 235.401 153.439 235.76ZM155.482 240.213C155.482 239.771 155.224 239.505 154.691 239.238V241.133C154.912 241.102 155.114 240.991 155.259 240.822C155.405 240.653 155.484 240.436 155.482 240.213Z" fill="#5CADF8"/>
<path d="M163.556 124.686H177.981C178.69 124.686 178.791 123.582 178.073 123.582H163.648C162.939 123.582 162.838 124.686 163.556 124.686Z" fill="#5CADF8"/>
<path d="M183.26 124.686H187.41C188.118 124.686 188.219 123.582 187.502 123.582H183.398C182.681 123.582 182.589 124.686 183.297 124.686H183.26Z" fill="#5CADF8"/>
<path d="M211.691 283.596H197.266C196.548 283.596 196.456 284.7 197.164 284.7H211.59C212.298 284.7 212.4 283.596 211.691 283.596Z" fill="#5CADF8"/>
<path d="M191.976 283.596H187.836C187.118 283.596 187.026 284.7 187.735 284.7H191.884C192.592 284.7 192.684 283.596 191.976 283.596Z" fill="#5CADF8"/>
<path d="M254.475 413.487L253.472 421.123L245.229 420.691L245.762 412.264L254.475 413.487Z" fill="#FAB27B"/>
<path d="M241.083 421.013C240.016 421.013 238.912 420.774 238.562 420.314C238.463 420.181 238.41 420.02 238.41 419.854C238.41 419.688 238.463 419.527 238.562 419.394C238.713 419.161 238.946 418.993 239.215 418.925C240.66 418.566 243.631 420.342 243.815 420.415C243.852 420.437 243.881 420.471 243.897 420.511C243.914 420.55 243.917 420.594 243.907 420.636C243.9 420.676 243.88 420.713 243.85 420.741C243.82 420.769 243.782 420.787 243.742 420.792C242.864 420.949 241.974 421.023 241.083 421.013ZM239.749 419.311C239.615 419.308 239.482 419.324 239.353 419.357C239.27 419.372 239.191 419.404 239.121 419.452C239.051 419.499 238.993 419.561 238.948 419.633C238.792 419.882 238.847 420.01 238.902 420.075C239.289 420.645 241.469 420.7 243.07 420.535C242.051 419.919 240.924 419.504 239.749 419.311Z" fill="#5CADF8"/>
<path d="M243.693 420.816C243.68 420.822 243.666 420.826 243.652 420.826C243.637 420.826 243.623 420.822 243.61 420.816C242.589 420.337 240.556 418.424 240.758 417.458C240.758 417.228 240.961 416.942 241.522 416.906C241.726 416.885 241.931 416.908 242.126 416.971C242.321 417.034 242.5 417.137 242.653 417.274C243.739 418.194 243.923 420.53 243.932 420.632C243.932 420.667 243.924 420.703 243.908 420.735C243.892 420.766 243.869 420.794 243.84 420.816C243.793 420.834 243.74 420.834 243.693 420.816ZM241.651 417.283H241.54C241.172 417.283 241.145 417.448 241.126 417.504C241.062 418.083 242.396 419.574 243.445 420.264C243.361 419.285 242.982 418.355 242.359 417.596C242.163 417.425 241.911 417.33 241.651 417.329V417.283Z" fill="#5CADF8"/>
<path d="M244.637 419.629L254.049 419.813C254.221 419.814 254.388 419.875 254.521 419.986C254.653 420.097 254.743 420.25 254.775 420.42L256.33 428.111C256.369 428.295 256.365 428.485 256.321 428.668C256.276 428.851 256.191 429.021 256.072 429.167C255.953 429.312 255.803 429.429 255.632 429.509C255.462 429.589 255.276 429.63 255.088 429.629C251.703 429.5 248.648 429.261 244.462 429.187C239.476 429.086 240.727 429.712 234.867 429.675C231.334 429.675 230.763 425.627 232.263 425.461C239.135 424.735 239.89 422.701 242.576 420.273C243.161 419.813 243.894 419.584 244.637 419.629Z" fill="#132043"/>
<path opacity="0.2" d="M245.49 416.698H254.065L254.479 413.487L245.766 412.264L245.49 416.698Z" fill="#132043"/>
<path d="M247.329 351.508L243.916 411.289H256.502L266.465 351.508H247.329Z" fill="#132043"/>
<path opacity="0.3" d="M247.329 351.508L243.916 411.289H256.502L266.465 351.508H247.329Z" fill="#132043"/>
<path d="M257.58 410.32H242.419C242.108 410.904 241.982 411.568 242.056 412.224C242.13 412.881 242.4 413.5 242.833 414L257.488 414.166C257.488 414.166 258.841 413.264 257.58 410.32Z" fill="#5CADF8"/>
<path d="M295.406 258.287L294.854 264.874L305.01 264.479L304.376 256.539L295.406 258.287Z" fill="#FAB27B"/>
<path d="M312.77 266.439C312.77 266.439 319.605 266.439 325.944 287.489C326.947 290.801 330.627 300.516 330.627 300.516L315.088 298.676L313.588 281.518L312.77 266.439Z" fill="#132043"/>
<path d="M266.398 260.443C266.177 259.808 261.255 260.949 255.413 263.001C249.571 265.052 245.017 267.223 245.238 267.858C245.459 268.493 250.381 267.352 256.223 265.31C262.065 263.267 266.619 261.087 266.398 260.443Z" fill="#5CADF8"/>
<path d="M259.098 261.79L260.662 261.33L261.37 263.345L259.861 263.961L259.098 261.79Z" fill="#5CADF8"/>
<path opacity="0.5" d="M259.098 261.79L260.662 261.33L261.37 263.345L259.861 263.961L259.098 261.79Z" fill="#F2F7FA"/>
<path d="M264.742 260.053C265.165 258.838 259.93 260.402 259.627 260.513C259.323 260.623 259.093 260.053 259.461 259.933C259.829 259.813 266.195 257.707 265.321 260.209C265.202 260.568 264.613 260.421 264.742 260.053Z" fill="#5CADF8"/>
<g opacity="0.2">
<path d="M264.748 260.043C265.171 258.828 259.936 260.392 259.632 260.503C259.329 260.613 259.099 260.043 259.467 259.923C259.835 259.804 266.201 257.697 265.327 260.199C265.208 260.558 264.619 260.411 264.748 260.043Z" fill="#132043"/>
</g>
<path d="M258.264 285.961L256.13 276.494L259.157 271.425C259.417 270.991 259.53 270.484 259.479 269.981L259.295 268.27C259.257 267.902 259.304 267.53 259.433 267.184L259.828 266.163C260.002 265.71 260.031 265.214 259.911 264.745C259.791 264.275 259.527 263.854 259.157 263.541L258.577 263.053C258.289 262.805 257.945 262.632 257.574 262.549C257.204 262.465 256.818 262.474 256.452 262.575C254.207 263.21 249.561 265.132 248.365 270.34L250.205 276.651L252.597 287.902L258.264 285.961Z" fill="#FAB27B"/>
<path d="M258.384 283.891V279.549C255.205 280.17 252.359 281.922 250.371 284.48L251.705 288.74L258.384 283.891Z" fill="#5CADF8"/>
<path d="M288.721 267.779C289.481 266.429 290.564 265.289 291.872 264.459C293.18 263.629 294.674 263.136 296.219 263.023C301.398 262.774 308.657 263.023 308.657 263.023L309.917 269.288L288.721 267.779Z" fill="#132043"/>
<path d="M269.33 334.171C269.33 334.171 272.835 292.081 277.61 277.802C282.385 263.524 291.41 265.272 302.45 265.52C313.49 265.769 317.225 266.523 318.734 272.54C320.243 278.557 313.472 327.151 313.472 327.151L311.944 339.176L269.33 334.171Z" fill="#132043"/>
<path opacity="0.1" d="M269.33 334.171C269.33 334.171 272.835 292.081 277.61 277.802C282.385 263.524 291.41 265.272 302.45 265.52C313.49 265.769 317.225 266.523 318.734 272.54C320.243 278.557 313.472 327.151 313.472 327.151L311.944 339.176L269.33 334.171Z" fill="#F2F7FA"/>
<path d="M288.069 266.09C284.196 266.09 280.047 266.706 270.829 286.486C269.117 290.166 267.517 293.138 265.493 293.579C263.469 294.021 259.559 282.806 259.559 282.806C259.559 282.806 254.802 282.475 250.791 287.82C250.791 287.82 252.962 307.527 263.57 307.527C274.177 307.527 283.423 294.003 286.643 287.149C289.863 280.295 296.993 266.136 288.069 266.09Z" fill="#132043"/>
<path opacity="0.1" d="M288.069 266.09C284.196 266.09 280.047 266.706 270.829 286.486C269.117 290.166 267.517 293.138 265.493 293.579C263.469 294.021 259.559 282.806 259.559 282.806C259.559 282.806 254.802 282.475 250.791 287.82C250.791 287.82 252.962 307.527 263.57 307.527C274.177 307.527 283.423 294.003 286.643 287.149C289.863 280.295 296.993 266.136 288.069 266.09Z" fill="#132043"/>
<path opacity="0.2" d="M295.133 261.563C295.921 261.398 296.664 261.066 297.313 260.59C297.962 260.114 298.502 259.505 298.896 258.803L297.506 257.883L295.409 258.288L295.133 261.563Z" fill="#132043"/>
<path d="M289.892 239.541C289.681 240.084 289.791 240.627 290.15 240.765C290.509 240.903 291.015 240.572 291.208 240.038C291.401 239.505 291.318 238.953 290.95 238.815C290.582 238.677 290.122 239.008 289.892 239.541Z" fill="#132043"/>
<path d="M290.444 241.586L286.064 244.769C286.453 245.271 286.953 245.677 287.524 245.954C288.095 246.232 288.723 246.374 289.358 246.37L290.444 241.586Z" fill="#ED893E"/>
<path d="M312.139 245.645C309.582 252.922 308.652 256.068 303.74 258.837C296.784 261.137 287.722 258.35 287.998 250.456C288.247 243.354 292.387 232.663 300.685 231.67C303.488 231.322 306.315 232.092 308.554 233.814C310.793 235.536 312.262 238.071 312.645 240.87C312.855 242.479 312.682 244.115 312.139 245.645Z" fill="#FAB27B"/>
<path d="M292.167 234.861C292.211 234.885 292.248 234.919 292.275 234.961C292.303 235.003 292.319 235.051 292.324 235.1C292.343 235.481 292.454 235.852 292.646 236.182C292.838 236.512 293.106 236.791 293.428 236.996C293.498 237.033 293.551 237.096 293.575 237.172C293.599 237.247 293.592 237.329 293.557 237.4C293.514 237.473 293.445 237.525 293.365 237.548C293.284 237.57 293.198 237.56 293.124 237.52C292.714 237.271 292.37 236.925 292.123 236.513C291.876 236.101 291.733 235.635 291.707 235.156C291.702 235.115 291.706 235.073 291.718 235.034C291.729 234.994 291.75 234.958 291.776 234.927C291.803 234.895 291.836 234.87 291.874 234.852C291.911 234.835 291.951 234.825 291.993 234.824C292.053 234.823 292.113 234.836 292.167 234.861Z" fill="#132043"/>
<path d="M294.861 246.414L292.653 244.362C294.061 242.117 294.915 239.569 295.146 236.929C295.146 236.929 288.421 229.67 294.373 228.437C294.373 228.437 294.851 220.065 300.381 225.134C300.381 225.134 304.981 218.694 306.342 226.165C306.342 226.165 310.326 224.739 307.98 228.465C307.98 228.465 316.757 228.207 313.242 232.237C313.242 232.237 323.969 241.069 314.705 248.125C314.705 248.125 318.173 249.597 316.867 251.088C315.561 252.578 313.831 249.717 313.831 249.717C313.831 249.717 316.803 255.853 310.077 256.267C310.077 256.267 309.893 260.196 304.557 258.788C304.557 258.788 303.233 256.948 299.755 257.932C299.755 257.932 300.344 252.026 294.861 246.414Z" fill="#132043"/>
<path d="M296.338 243.054C295.625 243.389 294.986 243.863 294.457 244.447C293.928 245.032 293.52 245.715 293.256 246.458C292.576 248.436 294.37 249.549 296.338 249.108C298.123 248.703 300.607 247.176 300.432 245.133C300.258 243.091 298.123 242.235 296.338 243.054Z" fill="#FAB27B"/>
<path d="M282.647 333.962C282.647 333.962 236.84 326.602 231.072 345.002C225.303 363.402 216.352 389.833 216.352 389.833L227.097 395.077C227.097 395.077 244.669 362.564 245.976 356.796L270.889 357.063L279.804 346.023L282.647 333.962Z" fill="#132043"/>
<path d="M224.544 395.789L221.039 402.652L213.412 399.487L216.733 391.723L224.544 395.789Z" fill="#FAB27B"/>
<path d="M209.4 398.357C208.398 397.971 207.422 397.437 207.257 396.839C207.22 396.685 207.233 396.524 207.292 396.377C207.351 396.23 207.455 396.106 207.588 396.021C207.694 395.935 207.817 395.871 207.948 395.834C208.079 395.796 208.216 395.784 208.352 395.8C209.842 395.938 212.032 398.606 212.151 398.725C212.173 398.76 212.185 398.8 212.185 398.84C212.185 398.881 212.173 398.921 212.151 398.955C212.128 398.991 212.094 399.02 212.055 399.037C212.016 399.055 211.973 399.062 211.93 399.057C211.069 398.896 210.222 398.662 209.4 398.357ZM208.71 396.297C208.585 396.253 208.456 396.222 208.324 396.205C208.24 396.19 208.153 396.194 208.071 396.216C207.988 396.238 207.911 396.278 207.846 396.333C207.616 396.517 207.625 396.655 207.652 396.738C207.827 397.401 209.86 398.183 211.434 398.578C210.672 397.669 209.748 396.908 208.71 396.333V396.297Z" fill="#5CADF8"/>
<path d="M211.922 399.089C211.893 399.082 211.867 399.066 211.848 399.043C211.048 398.252 209.769 395.777 210.275 394.93C210.386 394.719 210.643 394.516 211.195 394.664C211.389 394.718 211.57 394.81 211.728 394.935C211.886 395.059 212.018 395.214 212.115 395.39C212.824 396.623 212.216 398.877 212.189 398.988C212.179 399.021 212.16 399.052 212.134 399.076C212.108 399.1 212.076 399.117 212.042 399.126C211.999 399.124 211.958 399.111 211.922 399.089ZM211.186 395.068L211.076 395.022C210.726 394.921 210.652 395.022 210.616 395.096C210.358 395.62 211.112 397.47 211.894 398.436C212.144 397.487 212.096 396.485 211.756 395.565C211.63 395.338 211.428 395.162 211.186 395.068Z" fill="#5CADF8"/>
<path d="M213.197 398.278L222.011 401.609C222.172 401.667 222.309 401.779 222.396 401.927C222.483 402.075 222.516 402.249 222.489 402.418L221.376 410.192C221.33 410.523 221.155 410.821 220.89 411.023C220.624 411.225 220.29 411.313 219.959 411.269C219.871 411.257 219.785 411.235 219.702 411.204C216.546 409.953 213.786 408.711 209.83 407.221C205.166 405.463 206.15 406.466 200.63 404.461C197.309 403.265 198.128 399.272 199.6 399.621C206.316 401.231 207.714 399.548 211.054 398.186C211.755 397.952 212.518 397.984 213.197 398.278Z" fill="#132043"/>
<path opacity="0.2" d="M222.754 399.276L224.539 395.789L216.728 391.723L215.127 395.476L222.754 399.276Z" fill="#132043"/>
<path d="M228.823 395.463L215.446 388.324C214.887 388.693 214.455 389.224 214.207 389.846C213.959 390.467 213.906 391.15 214.057 391.802L226.937 398.831C226.937 398.831 228.574 398.647 228.823 395.463Z" fill="#5CADF8"/>
<path d="M322.946 428.56L317.159 364.85C317.116 364.569 316.969 364.314 316.748 364.135C316.527 363.957 316.247 363.867 315.963 363.884H313.644C313.487 363.872 313.33 363.894 313.182 363.947C313.034 364.001 312.899 364.085 312.786 364.195C312.673 364.304 312.584 364.437 312.526 364.583C312.468 364.729 312.441 364.886 312.448 365.043L320.544 428.753C320.599 429.025 320.751 429.268 320.97 429.437C321.19 429.606 321.464 429.69 321.74 429.673C321.894 429.686 322.049 429.667 322.195 429.616C322.341 429.566 322.474 429.486 322.588 429.382C322.701 429.277 322.791 429.15 322.853 429.008C322.915 428.867 322.946 428.714 322.946 428.56Z" fill="#5CADF8"/>
<path d="M282.563 428.722L290.659 365.012C290.666 364.855 290.64 364.698 290.582 364.552C290.524 364.405 290.435 364.273 290.322 364.163C290.209 364.054 290.074 363.97 289.926 363.916C289.778 363.862 289.62 363.841 289.463 363.853H287.154C286.869 363.833 286.586 363.922 286.363 364.101C286.14 364.28 285.992 364.536 285.949 364.819L280.162 428.529C280.16 428.684 280.191 428.838 280.252 428.98C280.313 429.123 280.403 429.251 280.517 429.356C280.63 429.462 280.764 429.543 280.911 429.594C281.057 429.644 281.213 429.664 281.367 429.651C281.645 429.667 281.92 429.582 282.14 429.411C282.36 429.24 282.51 428.995 282.563 428.722Z" fill="#5CADF8"/>
<path d="M296.804 428.56L291.036 364.85C290.993 364.567 290.845 364.311 290.621 364.132C290.398 363.953 290.116 363.865 289.831 363.884H287.521C287.364 363.872 287.207 363.894 287.059 363.947C286.911 364.001 286.776 364.085 286.663 364.195C286.55 364.304 286.461 364.437 286.403 364.583C286.345 364.729 286.318 364.886 286.325 365.043L294.394 428.726C294.451 428.998 294.604 429.241 294.825 429.41C295.046 429.579 295.321 429.663 295.599 429.646C295.75 429.658 295.903 429.64 296.047 429.591C296.191 429.543 296.323 429.465 296.436 429.363C296.549 429.262 296.64 429.138 296.703 429C296.767 428.862 296.801 428.712 296.804 428.56Z" fill="#5CADF8"/>
<path opacity="0.3" d="M296.804 428.56L291.036 364.85C290.993 364.567 290.845 364.311 290.621 364.132C290.398 363.953 290.116 363.865 289.831 363.884H287.521C287.364 363.872 287.207 363.894 287.059 363.947C286.911 364.001 286.776 364.085 286.663 364.195C286.55 364.304 286.461 364.437 286.403 364.583C286.345 364.729 286.318 364.886 286.325 365.043L294.394 428.726C294.451 428.998 294.604 429.241 294.825 429.41C295.046 429.579 295.321 429.663 295.599 429.646C295.75 429.658 295.903 429.64 296.047 429.591C296.191 429.543 296.323 429.465 296.436 429.363C296.549 429.262 296.64 429.138 296.703 429C296.767 428.862 296.801 428.712 296.804 428.56Z" fill="#F2F7FA"/>
<path d="M256.429 428.722L264.525 365.012C264.532 364.855 264.505 364.698 264.447 364.552C264.389 364.405 264.3 364.273 264.187 364.163C264.074 364.054 263.939 363.97 263.791 363.916C263.643 363.862 263.486 363.841 263.329 363.853H261.01C260.726 363.836 260.446 363.925 260.225 364.104C260.004 364.283 259.857 364.538 259.814 364.819L254.027 428.529C254.026 428.684 254.056 428.838 254.117 428.98C254.178 429.123 254.268 429.251 254.382 429.356C254.495 429.462 254.63 429.543 254.776 429.594C254.923 429.644 255.078 429.664 255.233 429.651C255.511 429.667 255.785 429.582 256.005 429.411C256.225 429.24 256.376 428.995 256.429 428.722Z" fill="#5CADF8"/>
<path opacity="0.3" d="M256.429 428.722L264.525 365.012C264.532 364.855 264.505 364.698 264.447 364.552C264.389 364.405 264.3 364.273 264.187 364.163C264.074 364.054 263.939 363.97 263.791 363.916C263.643 363.862 263.486 363.841 263.329 363.853H261.01C260.726 363.836 260.446 363.925 260.225 364.104C260.004 364.283 259.857 364.538 259.814 364.819L254.027 428.529C254.026 428.684 254.056 428.838 254.117 428.98C254.178 429.123 254.268 429.251 254.382 429.356C254.495 429.462 254.63 429.543 254.776 429.594C254.923 429.644 255.078 429.664 255.233 429.651C255.511 429.667 255.785 429.582 256.005 429.411C256.225 429.24 256.376 428.995 256.429 428.722Z" fill="#F2F7FA"/>
<path d="M255.039 360.547H321.932V360.814C321.932 361.626 321.61 362.405 321.035 362.98C320.46 363.555 319.681 363.877 318.869 363.877H258.149C257.336 363.877 256.557 363.555 255.982 362.98C255.408 362.405 255.085 361.626 255.085 360.814V360.547H255.039Z" fill="#5CADF8"/>
<path opacity="0.3" d="M255.039 360.547H321.932V360.814C321.932 361.626 321.61 362.405 321.035 362.98C320.46 363.555 319.681 363.877 318.869 363.877H258.149C257.336 363.877 256.557 363.555 255.982 362.98C255.408 362.405 255.085 361.626 255.085 360.814V360.547H255.039Z" fill="#132043"/>
<path d="M317.527 293.566H311.611C306.799 293.567 302.109 295.087 298.212 297.911C294.315 300.734 291.409 304.716 289.909 309.289L277.949 345.694C276.977 348.66 275.092 351.243 272.564 353.074C270.036 354.904 266.994 355.889 263.873 355.887H244.884C243.648 355.89 242.464 356.382 241.591 357.257C240.719 358.131 240.229 359.316 240.229 360.552H322.55C326.673 360.55 330.641 358.974 333.641 356.146C336.642 353.318 338.45 349.451 338.696 345.335L340.334 317.735C340.514 314.628 340.058 311.518 338.994 308.594C337.929 305.67 336.278 302.995 334.143 300.732C332.007 298.469 329.432 296.666 326.575 295.434C323.717 294.202 320.639 293.566 317.527 293.566Z" fill="#5CADF8"/>
<path d="M56.6608 316.312L57.5808 328.943C57.5808 328.943 50.9568 350.158 50.2208 373.361C49.4756 395.809 49.3008 413.132 49.3008 413.132L57.4888 413.657L70.0928 333.157L72.6504 315.631L56.6608 316.312Z" fill="#FFC3BD"/>
<path d="M77.3469 170.631C77.3469 170.631 82.7933 168.552 85.5441 173.686C85.5441 173.686 79.1041 172.195 77.0801 175.259L77.3469 170.631Z" fill="#132043"/>
<path opacity="0.1" d="M77.3469 170.631C77.3469 170.631 82.7933 168.552 85.5441 173.686C85.5441 173.686 79.1041 172.195 77.0801 175.259L77.3469 170.631Z" fill="#F2F7FA"/>
<path d="M137.894 212.426L134.343 216.051C131.196 216.621 130.663 221.138 130.663 221.138C129.945 221.571 124.637 225.968 123.045 227.045L126.09 230.531C128.155 228.392 130.362 226.394 132.696 224.551C132.696 224.551 140.709 220.927 142.135 219.455C143.561 217.983 142.135 212.886 142.135 212.886L137.894 212.426Z" fill="#FFC3BD"/>
<path d="M127.445 222.272C122.109 225.492 114.215 230.451 114.215 230.451C110.653 225.739 106.855 221.21 102.835 216.881C100.352 214.07 97.4391 211.669 94.2051 209.77V224.95C97.8851 228.712 109.431 240.111 114.335 240.111C118.373 240.111 126.552 232.144 131.263 227.185L127.445 222.272Z" fill="#132043"/>
<path opacity="0.4" d="M102.436 232.769C100.164 228.068 97.1646 218.408 97.1646 218.408L95.0762 222.18L95.8674 226.615C97.5694 228.317 99.9062 230.571 102.436 232.769Z" fill="#132043"/>
<path d="M83.9746 319.117L86.2746 329.697C86.2746 329.697 83.7446 354.997 87.8846 377.077C92.0246 399.157 92.7146 412.727 92.7146 412.727L101.915 411.807L99.1546 331.997L99.3846 314.287L83.9746 319.117Z" fill="#FFC3BD"/>
<path d="M57.0904 216.052C58.1635 229.901 60.152 243.663 63.0428 257.249C63.0428 257.249 49.0128 283.239 50.6228 320.729C50.6228 320.729 64.8828 326.249 102.833 320.729L98.0028 257.019C98.0028 257.019 99.6128 215.849 95.2428 211.249C91.3696 207.174 74.4968 201.838 61.58 208.195C60.1368 208.912 58.9394 210.041 58.14 211.44C57.3405 212.84 56.9752 214.445 57.0904 216.052Z" fill="#5CADF8"/>
<path d="M75.0059 255.865C75.0059 255.865 86.2759 257.825 94.2063 255.865V260.695C94.2063 260.695 88.3091 261.551 75.0059 260.695V255.865Z" fill="#5CADF8"/>
<path opacity="0.5" d="M75.0059 255.865C75.0059 255.865 86.2759 257.825 94.2063 255.865V260.695C94.2063 260.695 88.3091 261.551 75.0059 260.695V255.865Z" fill="#132043"/>
<path d="M82.5982 257.078C82.6161 256.536 82.8272 256.019 83.1933 255.619C83.5595 255.219 84.0564 254.963 84.5946 254.898C85.9746 254.64 89.7834 254.714 89.8386 257.658C89.8938 260.602 90.4734 262.718 87.603 262.893C84.7326 263.067 82.4878 263.279 82.5706 261.053H87.7686L87.7226 256.683L82.5982 257.078Z" fill="#F2F7FA"/>
<path d="M68.4004 190.51C69.8908 194.769 71.8412 202.24 70.2404 206.555C70.0508 207.057 70.0387 207.609 70.206 208.12C70.3733 208.63 70.7101 209.068 71.1604 209.361C74.408 211.707 79.6888 213.602 83.6632 213.179C88.7692 212.627 87.4352 209.011 86.138 207.033C85.7884 206.499 85.218 205.754 84.62 205.644C79.606 204.797 78.6584 201.044 79.0448 197.226L68.4004 190.51Z" fill="#FFC3BD"/>
<path opacity="0.2" d="M72.7707 193.266L79.0819 197.203C78.9991 198.137 78.9991 199.076 79.0819 200.009C77.817 199.971 76.5806 199.625 75.4806 198.999C74.3805 198.374 73.4501 197.489 72.7707 196.421C72.0807 195.041 72.2555 193.514 72.7707 193.266Z" fill="#132043"/>
<path d="M66.4587 183.616C68.2987 190.167 69.0439 194.095 73.1287 196.772C79.2835 200.82 86.8275 195.99 86.9287 189.035C87.0575 182.733 84.0307 173.101 76.9559 171.859C75.3985 171.579 73.7956 171.703 72.2993 172.217C70.8031 172.732 69.4632 173.62 68.4068 174.798C67.3505 175.976 66.6128 177.405 66.2638 178.948C65.9148 180.491 65.966 182.098 66.4127 183.616H66.4587Z" fill="#FFC3BD"/>
<path d="M81.1484 182.674C82.1507 184.186 83.3582 185.551 84.7364 186.731C84.4228 187.075 84.0383 187.347 83.6095 187.528C83.1807 187.709 82.7177 187.795 82.2524 187.78L81.1484 182.674Z" fill="#ED847E"/>
<path d="M74.6221 181.248C74.5684 181.266 74.5102 181.266 74.4565 181.248C74.3779 181.211 74.3165 181.146 74.2856 181.065C74.2546 180.984 74.2565 180.895 74.2909 180.815C74.5036 180.348 74.8237 179.938 75.225 179.618C75.6263 179.299 76.0975 179.078 76.6001 178.975C76.6852 178.965 76.7712 178.987 76.8398 179.039C76.9085 179.09 76.9544 179.166 76.9681 179.251C76.9746 179.294 76.9726 179.337 76.9621 179.378C76.9517 179.42 76.9331 179.459 76.9074 179.493C76.8817 179.527 76.8494 179.556 76.8124 179.578C76.7755 179.6 76.7346 179.614 76.6921 179.619C76.2879 179.704 75.9099 179.884 75.5898 180.145C75.2697 180.406 75.0167 180.74 74.8521 181.119C74.8254 181.156 74.791 181.186 74.7513 181.209C74.7116 181.231 74.6675 181.244 74.6221 181.248Z" fill="#132043"/>
<path d="M84.9593 178.113C84.9124 178.142 84.8582 178.158 84.8029 178.158C84.7476 178.158 84.6933 178.142 84.6465 178.113C84.3008 177.904 83.9108 177.779 83.5081 177.749C83.1054 177.719 82.7012 177.783 82.3281 177.938C82.2499 177.977 82.1597 177.983 82.0771 177.955C81.9944 177.928 81.9259 177.869 81.8865 177.791C81.8663 177.753 81.8541 177.712 81.8506 177.669C81.8472 177.626 81.8525 177.583 81.8663 177.543C81.8801 177.502 81.9021 177.465 81.9309 177.433C81.9597 177.402 81.9947 177.376 82.0337 177.358C82.5025 177.158 83.0122 177.072 83.5208 177.107C84.0295 177.142 84.5225 177.298 84.9593 177.561C84.9956 177.58 85.0278 177.606 85.0536 177.638C85.0795 177.67 85.0986 177.707 85.1098 177.747C85.121 177.786 85.124 177.828 85.1187 177.869C85.1134 177.909 85.0998 177.949 85.0789 177.984C85.0517 178.037 85.0103 178.082 84.9593 178.113Z" fill="#132043"/>
<path d="M70.5129 204.43L83.5125 212.857V205.258L85.6837 205.754C85.9076 205.807 86.1124 205.921 86.2749 206.083C86.4375 206.246 86.5514 206.451 86.6037 206.674C87.3714 210.106 87.7784 213.609 87.8181 217.126C87.8181 217.126 86.7325 212.406 83.7425 214.246C83.7425 214.246 80.5501 211.606 78.0201 216.086C78.0201 216.086 71.8929 213.446 70.5129 210.226C69.1329 207.006 68.2129 205.267 68.2129 205.267L70.5129 204.43Z" fill="#F2F7FA"/>
<path d="M69.5555 204.43C72.8132 218.456 75.0364 232.702 76.2071 247.053C77.6883 268.37 77.9919 274.81 69.5555 273.89C61.1191 272.97 54.2283 271.893 55.4519 268.83C56.6755 265.766 61.2755 258.857 60.9719 255.333C60.6683 251.81 57.7519 224.366 57.4207 220.208C57.0895 216.049 54.5319 207.006 69.5555 204.43Z" fill="#132043"/>
<path opacity="0.3" d="M76.2068 247.056C76.078 245.17 75.9124 243.284 75.7284 241.416L60.0332 246.016C60.2816 248.38 60.5024 250.506 60.668 252.143L71.156 249.328L71.0364 248.537L76.2712 247.755C76.2344 247.488 76.2252 247.286 76.2068 247.056Z" fill="#132043"/>
<path d="M84.5957 205.26C84.5957 205.26 91.3393 218.462 91.7993 240.119C92.2593 261.775 91.3025 273.303 95.3229 273.975C99.3433 274.646 100.236 271.895 100.236 271.895C100.236 271.895 99.0397 260.129 99.0397 257.249C99.0397 254.369 100.309 237.009 99.0397 224.589C97.7701 212.169 99.0397 212.942 96.9513 211.553C93.1031 208.962 88.9541 206.849 84.5957 205.26Z" fill="#132043"/>
<path opacity="0.4" d="M59.7929 243.598L63.9421 219.881C63.9421 219.881 60.5197 223.358 57.9805 226.017C58.4681 230.829 59.2041 237.683 59.7929 243.598Z" fill="#132043"/>
<path d="M80.8536 233.989C79.3908 234.301 71.5984 239.279 71.5984 239.279C71.5984 239.279 67.3664 240.557 65.416 240.916L67.4768 245.645C69.1696 244.891 72.8404 243.805 72.8404 243.805C72.8404 243.805 75.9592 243.704 76.9988 243.492C76.9988 243.492 80.0072 244.32 81.7736 243.179C83.54 242.039 84.5336 239.233 84.5336 239.233C84.5336 239.233 82.3072 233.685 80.8536 233.989Z" fill="#FFC3BD"/>
<path d="M67.2935 239.928C63.1351 240.701 57.9831 240.793 57.9831 240.112C57.9831 239.073 61.9299 226.036 64.0735 221.252C65.4443 218.189 69.7131 210.553 64.9935 207.875C62.4911 206.449 54.6619 207.443 50.9819 223.663C47.3019 239.882 48.9947 245.743 52.5551 248.273C56.2995 250.931 64.7543 247.785 69.3451 245.743L67.2935 239.928Z" fill="#132043"/>
<path d="M76.9961 182.833C77.1065 183.385 77.4837 183.753 77.8425 183.698C78.2013 183.643 78.4037 183.128 78.2933 182.576C78.1829 182.024 77.8057 181.656 77.4561 181.72C77.1065 181.785 76.8949 182.281 76.9961 182.833Z" fill="#132043"/>
<path d="M83.1811 181.62C83.2915 182.163 83.6687 182.54 84.0183 182.485C84.3679 182.43 84.5795 181.914 84.4783 181.362C84.3771 180.81 83.9907 180.442 83.6411 180.498C83.2915 180.553 83.1167 181.068 83.1811 181.62Z" fill="#132043"/>
<path d="M83.4863 180.563L84.7283 179.928C84.7283 179.928 84.2499 181.087 83.4863 180.563Z" fill="#132043"/>
<path d="M77.3008 181.775L78.5428 181.141C78.5428 181.141 78.0644 182.3 77.3008 181.775Z" fill="#132043"/>
<path d="M80.7684 190.882C81.1569 190.88 81.5446 190.846 81.9275 190.781C81.9805 190.77 82.0272 190.739 82.058 190.694C82.0888 190.65 82.1014 190.595 82.0932 190.542C82.0821 190.49 82.0524 190.445 82.01 190.415C81.9675 190.384 81.9152 190.37 81.8632 190.376C81.0184 190.541 80.1466 190.507 79.3176 190.275C78.4885 190.044 77.7251 189.621 77.0884 189.042C77.0489 189.004 76.9961 188.982 76.9412 188.982C76.8862 188.982 76.8334 189.004 76.7939 189.042C76.7739 189.061 76.7579 189.084 76.747 189.109C76.7361 189.134 76.7305 189.162 76.7305 189.189C76.7305 189.217 76.7361 189.244 76.747 189.269C76.7579 189.295 76.7739 189.317 76.7939 189.336C77.8717 190.342 79.2944 190.895 80.7684 190.882Z" fill="#132043"/>
<path d="M68.7905 189.525C68.7905 189.525 70.3637 188.762 70.3269 185.266C71.2399 183.756 71.7423 182.034 71.7843 180.27C71.8262 178.506 71.4063 176.762 70.5661 175.21C70.5661 175.21 78.1561 174.621 79.7661 171.723C81.3761 168.825 85.3965 168.706 85.3965 168.706C85.3965 168.706 84.4765 165.256 77.6501 166.718C79.2237 165.67 81.0595 165.084 82.9493 165.026C82.9493 165.026 78.8185 161.198 72.6637 164.602C72.9413 164.003 73.3514 163.475 73.863 163.057C74.3746 162.64 74.9743 162.344 75.6169 162.192C75.6169 162.192 67.4841 160.269 61.0441 168.071C55.9841 174.198 60.1241 176.599 60.1241 176.599C60.1241 176.599 56.0025 175.964 56.8673 181.53L58.5325 178.908C58.5325 178.908 57.2077 182.441 61.1177 186.351C65.0277 190.261 68.7905 189.525 68.7905 189.525Z" fill="#132043"/>
<path d="M64.5569 190.512C65.1482 191.118 65.8531 191.601 66.6314 191.934C67.4097 192.267 68.246 192.444 69.0925 192.453C71.3649 192.453 71.8525 190.282 70.7669 188.46C69.7457 186.814 67.3353 184.836 65.3021 185.7C63.2689 186.565 63.0941 188.994 64.5569 190.512Z" fill="#FFC3BD"/>
<path d="M58.2797 411.461L48.5277 411.654C48.3494 411.657 48.1775 411.72 48.0403 411.834C47.9031 411.948 47.8089 412.105 47.7733 412.279L46.1725 420.256C46.1015 420.594 46.1671 420.946 46.355 421.235C46.5429 421.525 46.8378 421.729 47.1753 421.801H47.4513C50.9657 421.673 54.0937 421.415 58.4913 421.332C63.6525 421.24 62.3553 421.884 68.4273 421.847C72.1073 421.847 72.6777 417.652 71.1229 417.477C64.0021 416.723 63.2201 414.598 60.4325 412.105C59.8198 411.63 59.0523 411.4 58.2797 411.461Z" fill="#132043"/>
<path d="M102.091 411.461L92.3392 411.654C92.161 411.657 91.989 411.72 91.8518 411.834C91.7146 411.948 91.6204 412.105 91.5848 412.28L89.9748 420.256C89.9041 420.595 89.9709 420.948 90.1607 421.238C90.3505 421.528 90.6476 421.731 90.9868 421.802H91.2628C94.7772 421.673 97.9052 421.415 102.303 421.332C107.473 421.24 106.176 421.884 112.248 421.848C115.928 421.848 116.498 417.652 114.944 417.478C107.823 416.723 107.041 414.598 104.253 412.105C103.637 411.629 102.867 411.4 102.091 411.461Z" fill="#132043"/>
</g>
<defs>
<clipPath id="clip0_35_1857">
<rect width="375" height="517" fill="white"/>
</clipPath>
</defs>
</svg>
