<svg width="604" height="600" viewBox="0 0 604 600" fill="none" xmlns="http://www.w3.org/2000/svg">
<rect width="604" height="600" rx="16" fill="#F2F7FA"/>
<path d="M602 458.881H2V459.181H602V458.881Z" fill="#5CADF8" fill-opacity="0.5"/>
<path d="M541.88 478.188H510.404V478.488H541.88V478.188Z" fill="#5CADF8" fill-opacity="0.5"/>
<path d="M430.112 474.289H389.036V474.589H430.112V474.289Z" fill="#5CADF8" fill-opacity="0.5"/>
<path d="M500.924 467.053H469.196V467.353H500.924V467.053Z" fill="#5CADF8" fill-opacity="0.5"/>
<path d="M135.068 469.068H83.2402V469.368H135.068V469.068Z" fill="#5CADF8" fill-opacity="0.5"/>
<path d="M72.5482 469.068H64.9521V469.368H72.5482V469.068Z" fill="#5CADF8" fill-opacity="0.5"/>
<path d="M227.204 474.131H159.764V474.431H227.204V474.131Z" fill="#5CADF8" fill-opacity="0.5"/>
<path d="M286.4 405.36H54.6916C52.8764 405.357 51.1366 404.634 49.8542 403.349C48.5718 402.064 47.8516 400.323 47.8516 398.508V72.792C47.8674 70.9872 48.5946 69.2616 49.8753 67.9899C51.156 66.7181 52.8867 66.0031 54.6916 66H286.4C288.217 66 289.96 66.7219 291.245 68.0069C292.53 69.2919 293.252 71.0347 293.252 72.852V398.508C293.252 400.325 292.53 402.068 291.245 403.353C289.96 404.638 288.217 405.36 286.4 405.36ZM54.6916 66.24C52.9559 66.2432 51.2925 66.9349 50.0664 68.1633C48.8402 69.3917 48.1516 71.0564 48.1516 72.792V398.508C48.1516 400.244 48.8402 401.908 50.0664 403.137C51.2925 404.365 52.9559 405.057 54.6916 405.06H286.4C288.136 405.057 289.801 404.366 291.029 403.137C292.257 401.909 292.948 400.245 292.952 398.508V72.792C292.948 71.0553 292.257 69.3906 291.029 68.1625C289.801 66.9345 288.136 66.2432 286.4 66.24H54.6916Z" fill="#5CADF8" fill-opacity="0.5"/>
<path d="M545.972 405.36H314.252C312.436 405.357 310.695 404.634 309.411 403.35C308.127 402.065 307.404 400.324 307.4 398.508V72.792C307.419 70.9861 308.149 69.2605 309.432 67.9891C310.714 66.7177 312.446 66.0031 314.252 66H545.972C547.775 66.0062 549.503 66.7227 550.781 67.9941C552.059 69.2654 552.785 70.9893 552.8 72.792V398.508C552.8 400.321 552.082 402.06 550.802 403.345C549.522 404.629 547.785 405.354 545.972 405.36ZM314.252 66.24C312.516 66.2432 310.851 66.9345 309.623 68.1625C308.395 69.3906 307.704 71.0553 307.7 72.792V398.508C307.704 400.245 308.395 401.909 309.623 403.137C310.851 404.366 312.516 405.057 314.252 405.06H545.972C547.709 405.057 549.374 404.366 550.602 403.137C551.83 401.909 552.521 400.245 552.524 398.508V72.792C552.521 71.0553 551.83 69.3906 550.602 68.1625C549.374 66.9345 547.709 66.2432 545.972 66.24H314.252Z" fill="#5CADF8" fill-opacity="0.5"/>
<path d="M273.368 458.881H308.492V330.289H273.368V458.881Z" fill="#5CADF8" fill-opacity="0.5"/>
<path d="M281.659 458.88H273.367V435.312H290.347L281.659 458.88Z" fill="#5CADF8" fill-opacity="0.3"/>
<path d="M492.68 458.881H527.804V330.289H492.68V458.881Z" fill="#5CADF8" fill-opacity="0.5"/>
<path d="M273.368 447.277H499.904V330.289H273.368V447.277Z" fill="#5CADF8" fill-opacity="0.3"/>
<path d="M279.8 337.199H383.852V431.999H279.8V337.199Z" fill="#5CADF8" fill-opacity="0.5"/>
<path d="M389.42 337.199H493.472V431.999H389.42V337.199Z" fill="#5CADF8" fill-opacity="0.5"/>
<path d="M405.332 362.832C403.732 362.835 402.166 362.362 400.834 361.474C399.503 360.586 398.464 359.323 397.85 357.845C397.237 356.367 397.076 354.739 397.387 353.169C397.699 351.599 398.47 350.157 399.601 349.025C400.733 347.893 402.175 347.123 403.745 346.811C405.316 346.499 406.943 346.661 408.421 347.274C409.899 347.888 411.163 348.926 412.05 350.258C412.938 351.59 413.411 353.156 413.408 354.756C413.405 356.897 412.553 358.949 411.04 360.463C409.526 361.977 407.473 362.829 405.332 362.832ZM405.332 348.096C404.015 348.094 402.726 348.482 401.629 349.213C400.532 349.943 399.677 350.983 399.171 352.199C398.665 353.416 398.531 354.755 398.787 356.048C399.043 357.341 399.676 358.529 400.607 359.461C401.538 360.394 402.724 361.029 404.017 361.287C405.309 361.545 406.649 361.414 407.866 360.91C409.084 360.407 410.125 359.553 410.857 358.458C411.59 357.362 411.98 356.074 411.98 354.756C411.977 352.993 411.276 351.303 410.03 350.055C408.785 348.807 407.096 348.103 405.332 348.096Z" fill="#F2F7FA"/>
<path d="M368 362.832C366.4 362.835 364.834 362.362 363.502 361.474C362.171 360.586 361.132 359.323 360.518 357.845C359.905 356.367 359.744 354.739 360.055 353.169C360.367 351.599 361.137 350.157 362.269 349.025C363.401 347.893 364.843 347.123 366.413 346.811C367.983 346.499 369.611 346.661 371.089 347.274C372.567 347.888 373.83 348.926 374.718 350.258C375.606 351.59 376.079 353.156 376.076 354.756C376.073 356.897 375.221 358.949 373.707 360.463C372.194 361.977 370.141 362.829 368 362.832ZM368 348.096C366.683 348.094 365.394 348.482 364.297 349.213C363.2 349.943 362.345 350.983 361.839 352.199C361.333 353.416 361.199 354.755 361.455 356.048C361.71 357.341 362.344 358.529 363.275 359.461C364.206 360.394 365.392 361.029 366.685 361.287C367.977 361.545 369.317 361.414 370.534 360.91C371.752 360.407 372.793 359.553 373.525 358.458C374.257 357.362 374.648 356.074 374.648 354.756C374.645 352.993 373.944 351.303 372.698 350.055C371.453 348.807 369.764 348.103 368 348.096Z" fill="#F2F7FA"/>
<path d="M491.612 458.88H499.904V435.312H482.924L491.612 458.88Z" fill="#5CADF8" fill-opacity="0.3"/>
<path d="M468.62 312.851C470.648 310.871 468.5 308.159 471.224 306.251C473.948 304.343 471.608 301.451 471.716 298.775C471.824 296.099 475.376 295.691 476.396 292.595C476.69 291.089 476.402 289.529 475.592 288.227C475.237 287.507 474.713 286.884 474.064 286.412C473.416 285.939 472.662 285.631 471.869 285.513C471.075 285.395 470.264 285.471 469.506 285.735C468.749 285.998 468.066 286.442 467.516 287.027C467.406 287.149 467.302 287.277 467.204 287.411C465.176 290.111 467.204 292.715 464.912 294.539C462.62 296.363 458.6 296.735 458.732 299.771C458.864 302.807 455.804 303.071 454.16 305.411C453.164 306.863 453.932 309.251 454.664 310.883C455.192 312.03 456.136 312.935 457.304 313.415C460.016 314.507 465.344 316.043 468.62 312.851Z" fill="#5CADF8" fill-opacity="0.5"/>
<path d="M473.132 320.027C476.576 318.575 475.232 314.243 479.492 313.211C483.752 312.179 482.276 307.523 483.668 304.307C485.06 301.091 489.668 302.291 492.368 298.991C494.06 296.963 493.568 293.087 493.028 290.423C492.826 289.488 492.321 288.647 491.592 288.029C490.863 287.41 489.951 287.05 488.996 287.003C487.124 286.852 485.25 287.27 483.62 288.203C479.852 290.543 481.028 294.683 477.392 295.823C473.756 296.963 468.632 295.475 467.336 299.255C466.04 303.035 462.164 301.883 459.044 303.971C456.8 305.459 456.884 309.683 457.112 311.963C457.203 312.942 457.627 313.861 458.312 314.567C460.76 317.051 467.084 322.583 473.132 320.027Z" fill="#5CADF8" fill-opacity="0.3"/>
<path d="M470.384 302.615C472.64 300.887 475.004 303.407 477.296 300.983C479.588 298.559 482.096 301.283 484.748 301.571C487.4 301.859 488.348 298.391 491.552 297.827C493.081 297.754 494.58 298.26 495.752 299.243C496.411 299.702 496.949 300.313 497.32 301.025C497.691 301.736 497.885 302.527 497.885 303.329C497.885 304.132 497.691 304.922 497.32 305.634C496.949 306.345 496.411 306.956 495.752 307.415L495.32 307.679C492.356 309.287 490.064 306.947 487.94 308.879C485.816 310.811 484.856 314.807 481.868 314.243C478.88 313.679 478.172 316.643 475.628 317.951C474.056 318.731 471.8 317.627 470.288 316.667C469.228 315.981 468.468 314.917 468.164 313.691C467.504 310.883 466.748 305.399 470.384 302.615Z" fill="#5CADF8" fill-opacity="0.5"/>
<path d="M446 306.215C446 306.215 446.708 330.275 474.104 330.275C501.5 330.275 502.208 306.215 502.208 306.215H446Z" fill="#5CADF8" fill-opacity="0.5"/>
<path d="M527.972 106.691H332.264V215.987H527.972V106.691Z" fill="#5CADF8" fill-opacity="0.5"/>
<path d="M526.1 106.691H330.392V215.987H526.1V106.691Z" fill="#5CADF8" fill-opacity="0.5"/>
<path d="M518.48 208.357V114.312L338.024 114.313V208.357H518.48Z" fill="#F2F7FA"/>
<path d="M339.992 208.356V114.312H338V208.356H339.992Z" fill="#5CADF8" fill-opacity="0.5"/>
<path d="M91.8555 433.477H249.355L249.355 90.0726H91.8555L91.8555 433.477Z" fill="#5CADF8" fill-opacity="0.5"/>
<path d="M85.7602 433.477H248.492L248.492 90.0726H85.7602L85.7602 433.477Z" fill="#5CADF8" fill-opacity="0.3"/>
<path d="M91.8555 439.152H249.355V433.488H91.8555V439.152Z" fill="#5CADF8" fill-opacity="0.5"/>
<path d="M75.5961 439.152H238.328V433.488H75.5961V439.152Z" fill="#5CADF8" fill-opacity="0.3"/>
<path d="M239.96 424.955L239.96 98.6152L94.292 98.6152L94.292 424.955H239.96Z" fill="#F2F7FA"/>
<path d="M168.764 424.955L155.096 98.6152H131.456L145.124 424.955H168.764Z" fill="#F2F7FA"/>
<path d="M236 192.409C236.175 192.409 236.342 192.34 236.466 192.216C236.59 192.092 236.66 191.924 236.66 191.749V104.149C236.638 103.991 236.56 103.846 236.44 103.741C236.319 103.636 236.165 103.578 236.006 103.578C235.846 103.578 235.692 103.636 235.571 103.741C235.451 103.846 235.373 103.991 235.352 104.149V191.749C235.352 191.922 235.419 192.088 235.541 192.212C235.662 192.335 235.827 192.406 236 192.409Z" fill="#5CADF8" fill-opacity="0.3"/>
<path d="M140.036 424.955L126.38 98.6152H117.164L130.82 424.955H140.036Z" fill="#F2F7FA"/>
<path d="M95.3711 424.944L95.3711 98.6035H94.2911L94.2911 424.944H95.3711Z" fill="#5CADF8" fill-opacity="0.5"/>
<path opacity="0.5" d="M83.7441 109.752H243.224L244.016 101.928H84.5241L83.7441 109.752Z" fill="#5CADF8" fill-opacity="0.3"/>
<path opacity="0.5" d="M83.7441 122.605H243.224L244.016 114.793H84.5241L83.7441 122.605Z" fill="#5CADF8" fill-opacity="0.3"/>
<path opacity="0.5" d="M83.7441 135.455H243.224L244.016 127.643H84.5241L83.7441 135.455Z" fill="#5CADF8" fill-opacity="0.3"/>
<path opacity="0.5" d="M83.7441 148.32H243.224L244.016 140.496H84.5241L83.7441 148.32Z" fill="#5CADF8" fill-opacity="0.3"/>
<path opacity="0.5" d="M83.7441 161.172H243.224L244.016 153.348H84.5241L83.7441 161.172Z" fill="#5CADF8" fill-opacity="0.3"/>
<path opacity="0.5" d="M83.7441 174.023H243.224L244.016 166.199H84.5241L83.7441 174.023Z" fill="#5CADF8" fill-opacity="0.3"/>
<path d="M302.001 513.072C430.5 513.072 534.669 506.991 534.669 499.488C534.669 491.986 430.5 485.904 302.001 485.904C173.502 485.904 69.333 491.986 69.333 499.488C69.333 506.991 173.502 513.072 302.001 513.072Z" fill="#5CADF8" fill-opacity="0.5"/>
<path d="M352.1 168.936H355.544L326 492.984C325.979 493.309 325.834 493.615 325.596 493.838C325.357 494.061 325.043 494.184 324.716 494.184H321.812C321.633 494.184 321.455 494.148 321.291 494.076C321.127 494.004 320.98 493.898 320.859 493.766C320.738 493.634 320.646 493.478 320.589 493.308C320.532 493.138 320.511 492.958 320.528 492.78L349.904 171C349.946 170.443 350.195 169.923 350.601 169.541C351.008 169.159 351.542 168.943 352.1 168.936Z" fill="#132043"/>
<path d="M356.816 168.936H353.36L382.952 492.936C382.974 493.261 383.118 493.567 383.357 493.79C383.595 494.013 383.91 494.136 384.236 494.136H387.128C387.308 494.136 387.485 494.1 387.649 494.028C387.813 493.956 387.961 493.85 388.082 493.718C388.202 493.586 388.294 493.43 388.351 493.26C388.408 493.09 388.429 492.91 388.412 492.732L359.036 170.964C358.986 170.41 358.73 169.895 358.319 169.52C357.908 169.145 357.373 168.936 356.816 168.936Z" fill="#132043"/>
<path d="M493.4 271.368C493.321 271.362 493.244 271.34 493.173 271.304C493.103 271.268 493.04 271.219 492.989 271.159C492.938 271.098 492.899 271.028 492.875 270.953C492.85 270.878 492.841 270.799 492.848 270.72L494.048 253.044C494.052 252.965 494.072 252.888 494.107 252.817C494.141 252.746 494.19 252.682 494.249 252.63C494.308 252.577 494.377 252.537 494.451 252.511C494.526 252.486 494.605 252.475 494.684 252.48C494.844 252.492 494.993 252.567 495.099 252.688C495.204 252.809 495.258 252.967 495.248 253.128L494.048 270.804C494.043 270.884 494.023 270.962 493.988 271.034C493.952 271.106 493.903 271.17 493.843 271.222C493.782 271.275 493.712 271.315 493.636 271.34C493.56 271.365 493.48 271.374 493.4 271.368Z" fill="#5CADF8"/>
<path d="M495.427 242.064C495.27 242.052 495.124 241.978 495.021 241.859C494.918 241.74 494.865 241.585 494.875 241.428L497.563 202.5C497.578 202.344 497.653 202.2 497.771 202.097C497.889 201.994 498.043 201.941 498.199 201.948C498.278 201.952 498.355 201.973 498.426 202.007C498.497 202.042 498.561 202.09 498.613 202.149C498.666 202.208 498.706 202.277 498.732 202.351C498.757 202.426 498.768 202.505 498.763 202.584L496.075 241.5C496.071 241.58 496.05 241.658 496.015 241.73C495.98 241.802 495.93 241.866 495.87 241.918C495.81 241.971 495.739 242.011 495.663 242.036C495.587 242.061 495.507 242.07 495.427 242.064Z" fill="#5CADF8"/>
<path d="M482.132 173.194H231.116C227.221 173.258 223.489 174.767 220.644 177.428C217.799 180.089 216.044 183.712 215.72 187.594L202.88 373.198C202.726 375.044 202.959 376.902 203.565 378.652C204.171 380.402 205.136 382.007 206.398 383.362C207.66 384.718 209.191 385.795 210.893 386.524C212.596 387.254 214.432 387.62 216.284 387.598H467.3C471.195 387.534 474.927 386.025 477.772 383.364C480.617 380.703 482.372 377.08 482.696 373.198L495.536 187.57C495.686 185.726 495.45 183.871 494.843 182.124C494.236 180.377 493.27 178.775 492.009 177.422C490.747 176.069 489.217 174.994 487.516 174.266C485.816 173.538 483.982 173.173 482.132 173.194Z" fill="#F2F7FA"/>
<path d="M467.3 388.068H216.284C214.369 388.092 212.47 387.717 210.709 386.965C208.947 386.214 207.362 385.102 206.055 383.703C204.748 382.303 203.748 380.646 203.119 378.837C202.489 377.029 202.244 375.108 202.4 373.2L215.24 187.572C215.582 183.579 217.396 179.855 220.33 177.125C223.264 174.395 227.109 172.854 231.116 172.8H482.132C484.046 172.778 485.943 173.157 487.703 173.91C489.462 174.664 491.045 175.777 492.349 177.178C493.654 178.578 494.652 180.236 495.279 182.044C495.906 183.853 496.149 185.772 495.992 187.68L483.2 373.2C482.88 377.214 481.072 380.964 478.131 383.715C475.189 386.465 471.327 388.018 467.3 388.068ZM231.116 173.652C227.332 173.708 223.705 175.17 220.941 177.755C218.177 180.339 216.474 183.86 216.164 187.632L203.324 373.2C203.173 374.985 203.397 376.781 203.982 378.474C204.567 380.167 205.5 381.719 206.721 383.03C207.941 384.341 209.423 385.382 211.07 386.087C212.717 386.791 214.493 387.143 216.284 387.12H467.3C471.074 387.065 474.694 385.611 477.456 383.039C480.219 380.467 481.928 376.96 482.252 373.2L495.092 187.572C495.241 185.788 495.015 183.992 494.43 182.301C493.844 180.609 492.911 179.059 491.69 177.749C490.47 176.44 488.989 175.4 487.343 174.696C485.697 173.992 483.922 173.641 482.132 173.664L231.116 173.652Z" fill="#5CADF8"/>
<g opacity="0.2">
<path d="M335.766 333.602C346.677 323.062 347.549 306.264 337.713 296.083C327.878 285.901 311.06 286.192 300.149 296.732C289.238 307.272 288.367 324.07 298.202 334.251C308.038 344.433 324.856 344.142 335.766 333.602Z" fill="#5CADF8"/>
<path d="M332.207 329.919C340.939 321.483 341.639 308.041 333.77 299.895C325.9 291.749 312.442 291.984 303.71 300.419C294.977 308.855 294.278 322.297 302.147 330.443C310.016 338.589 323.475 338.354 332.207 329.919Z" fill="#F2F7FA"/>
<path d="M328.647 326.232C335.196 319.905 335.72 309.823 329.817 303.712C323.914 297.601 313.819 297.776 307.27 304.103C300.72 310.43 300.197 320.512 306.1 326.623C312.003 332.734 322.097 332.559 328.647 326.232Z" fill="#5CADF8"/>
<path d="M328.58 315.17C328.347 318.035 327.056 320.71 324.957 322.674C322.858 324.637 320.102 325.748 317.228 325.79C315.861 325.81 314.504 325.543 313.247 325.007C311.989 324.47 310.858 323.676 309.926 322.675C308.994 321.674 308.283 320.489 307.837 319.197C307.392 317.904 307.222 316.532 307.34 315.17C307.572 312.305 308.864 309.629 310.963 307.666C313.062 305.702 315.818 304.591 318.692 304.55C320.059 304.531 321.414 304.799 322.671 305.337C323.928 305.874 325.058 306.668 325.99 307.668C326.921 308.669 327.633 309.853 328.079 311.145C328.525 312.437 328.696 313.808 328.58 315.17Z" fill="#F2F7FA"/>
<path d="M323.264 315.172C323.147 316.604 322.501 317.941 321.452 318.921C320.402 319.902 319.024 320.456 317.588 320.476C316.905 320.485 316.229 320.351 315.601 320.083C314.974 319.814 314.41 319.418 313.945 318.918C313.48 318.418 313.126 317.827 312.903 317.181C312.681 316.536 312.597 315.852 312.656 315.172C312.77 313.739 313.415 312.4 314.465 311.419C315.515 310.437 316.895 309.884 318.332 309.868C319.014 309.858 319.691 309.992 320.318 310.261C320.946 310.529 321.51 310.926 321.975 311.425C322.439 311.925 322.794 312.517 323.016 313.162C323.238 313.807 323.323 314.492 323.264 315.172Z" fill="#5CADF8"/>
</g>
<path d="M250.4 354.408H237.2C236.282 354.428 235.388 354.108 234.691 353.51C233.993 352.913 233.541 352.078 233.42 351.168C232.908 346.987 231.478 342.971 229.232 339.408C225.845 334.135 224.169 327.945 224.432 321.684C224.903 315.863 227.524 310.425 231.786 306.432C236.048 302.438 241.644 300.175 247.484 300.084C250.266 300.046 253.024 300.59 255.583 301.682C258.142 302.773 260.444 304.388 262.341 306.422C264.239 308.456 265.69 310.865 266.601 313.493C267.512 316.122 267.863 318.912 267.632 321.684C266.961 328.148 264.463 334.287 260.432 339.384C257.721 342.883 255.738 346.89 254.6 351.168C254.356 352.096 253.812 352.917 253.052 353.503C252.292 354.09 251.36 354.408 250.4 354.408ZM247.472 301.32C241.948 301.405 236.653 303.539 232.615 307.309C228.577 311.079 226.084 316.215 225.62 321.72C225.371 327.731 226.98 333.672 230.228 338.736C232.574 342.441 234.066 346.622 234.596 350.976C234.684 351.596 234.997 352.162 235.474 352.567C235.952 352.972 236.562 353.187 237.188 353.172H250.388C251.065 353.171 251.724 352.949 252.263 352.54C252.802 352.13 253.193 351.556 253.376 350.904C254.545 346.474 256.585 342.321 259.376 338.688C263.27 333.784 265.692 327.875 266.36 321.648C266.592 319.034 266.273 316.4 265.422 313.916C264.572 311.433 263.21 309.157 261.423 307.234C259.637 305.311 257.467 303.784 255.053 302.753C252.64 301.722 250.036 301.209 247.412 301.248L247.472 301.32Z" fill="#5CADF8"/>
<path d="M257.732 322.452C257.06 322.2 255.98 322.308 254.552 324.468C252.896 327.258 251.644 330.267 250.832 333.408C250.313 333.456 249.791 333.456 249.272 333.408C248.565 333.4 247.868 333.238 247.229 332.933C246.591 332.628 246.027 332.188 245.576 331.644C246.668 330.132 247.472 327.54 247.556 323.34C247.628 319.644 247.16 317.916 246.032 317.928C244.424 317.928 243.296 321.972 243.044 324.672C242.687 327.064 243.107 329.508 244.244 331.644C243.612 332.293 242.75 332.668 241.844 332.688C241.368 332.713 240.892 332.672 240.428 332.568C240.176 328.152 239.312 325.104 237.836 323.46C237.4 322.94 236.845 322.534 236.218 322.275C235.591 322.016 234.911 321.912 234.236 321.972C231.836 322.116 231.512 323.772 231.512 324.456C231.512 327.252 235.364 332.04 239.444 333.396C239.696 339.036 239.024 347.652 236.648 360.792L236.564 361.284H237.632V360.924C239.756 349.236 240.716 340.128 240.476 333.672C240.92 333.742 241.37 333.77 241.82 333.756C242.93 333.718 243.986 333.269 244.784 332.496C245.321 333.106 245.979 333.597 246.717 333.937C247.455 334.278 248.255 334.462 249.068 334.476C249.527 334.512 249.988 334.512 250.448 334.476C247.904 343.824 246.668 355.908 248.684 361.284H249.884C247.688 356.424 249.02 343.812 251.636 334.344C253.28 334.023 254.801 333.246 256.025 332.103C257.249 330.959 258.128 329.494 258.56 327.876C259.328 325.296 258.968 322.968 257.732 322.452ZM232.532 324.396C232.532 323.856 232.712 323.124 234.188 323.028H234.464C234.953 323.019 235.438 323.123 235.881 323.331C236.324 323.539 236.714 323.846 237.02 324.228C238.064 325.428 239.012 327.756 239.336 332.256C236 330.804 232.58 326.688 232.592 324.396H232.532ZM244.904 330.708C244.377 329.597 244.071 328.395 244.004 327.168C243.74 323.16 245.264 319.236 245.864 318.996C245.864 318.996 246.5 319.416 246.428 323.4C246.518 325.917 246.016 328.42 244.964 330.708H244.904ZM257.6 327.6C257.247 328.94 256.546 330.163 255.568 331.145C254.591 332.127 253.37 332.833 252.032 333.192C252.795 330.31 253.954 327.547 255.476 324.984C256.268 323.784 256.868 323.388 257.192 323.388H257.324C257.816 323.664 258.212 325.416 257.6 327.6Z" fill="#5CADF8"/>
<path d="M250.399 362.95H235.999C235.791 362.955 235.585 362.915 235.393 362.834C235.201 362.754 235.029 362.634 234.886 362.482C234.744 362.331 234.635 362.151 234.566 361.955C234.497 361.758 234.47 361.55 234.487 361.343L234.607 359.603C234.646 359.167 234.843 358.761 235.162 358.462C235.481 358.163 235.898 357.993 236.335 357.983H250.735C250.944 357.98 251.15 358.021 251.342 358.103C251.534 358.185 251.706 358.306 251.849 358.459C251.991 358.611 252.1 358.792 252.169 358.989C252.237 359.186 252.264 359.395 252.247 359.603L252.127 361.343C252.089 361.777 251.891 362.181 251.572 362.478C251.253 362.775 250.835 362.943 250.399 362.95Z" fill="#5CADF8"/>
<path d="M250.401 363.6H236.001C235.711 363.605 235.423 363.548 235.156 363.435C234.89 363.321 234.65 363.152 234.453 362.94C234.255 362.727 234.103 362.475 234.008 362.2C233.913 361.925 233.877 361.634 233.901 361.344L234.021 359.604C234.076 359.022 234.342 358.48 234.768 358.08C235.195 357.68 235.752 357.45 236.337 357.432H250.737C251.027 357.429 251.315 357.488 251.582 357.603C251.849 357.719 252.088 357.89 252.285 358.104C252.483 358.314 252.635 358.564 252.73 358.837C252.825 359.11 252.862 359.4 252.837 359.688L252.717 361.428C252.662 362.01 252.396 362.552 251.969 362.951C251.543 363.351 250.985 363.582 250.401 363.6ZM236.277 358.632C235.995 358.647 235.727 358.761 235.52 358.954C235.314 359.147 235.182 359.407 235.149 359.688L235.029 361.428C235.014 361.682 235.101 361.932 235.269 362.124C235.355 362.214 235.46 362.285 235.576 362.333C235.691 362.38 235.816 362.403 235.941 362.4H250.341C250.623 362.385 250.891 362.271 251.097 362.077C251.304 361.884 251.435 361.624 251.469 361.344L251.589 359.604C251.596 359.48 251.579 359.355 251.538 359.238C251.496 359.12 251.432 359.012 251.349 358.92C251.263 358.828 251.159 358.755 251.043 358.705C250.927 358.656 250.803 358.631 250.677 358.632H236.277Z" fill="#5CADF8"/>
<path d="M430.147 273.202L416.035 258.046L424.087 253.078L435.643 265.498L430.147 273.202Z" fill="#5CADF8"/>
<path d="M426.777 271.417L417.597 261.553L426.573 254.809L434.097 262.885L426.777 271.417Z" fill="#5CADF8"/>
<path d="M436.952 239.484L426.38 248.736C425.766 249.307 425.034 249.736 424.235 249.991C423.436 250.246 422.591 250.322 421.76 250.212C419 249.684 413.504 251.58 413.504 251.58C417.992 246.96 423.512 235.332 436.952 239.484Z" fill="#5CADF8"/>
<path d="M450.068 253.582C450.068 253.582 444.728 258.898 440.132 263.506C439.519 264.079 439.041 264.781 438.732 265.561C438.423 266.341 438.29 267.181 438.344 268.018C438.68 270.814 436.4 276.19 436.4 276.19C441.308 272.026 453.272 267.298 450.068 253.582Z" fill="#5CADF8"/>
<path d="M458.552 246.144C466.352 238.02 469.352 229.188 465.92 225.564C462.488 221.94 453.56 224.28 444.932 231.564L423.536 249.564C423.12 249.893 422.774 250.302 422.519 250.767C422.265 251.233 422.107 251.745 422.056 252.273C422.004 252.8 422.06 253.333 422.219 253.839C422.379 254.345 422.639 254.813 422.984 255.216L433.508 266.532C433.885 266.907 434.334 267.201 434.828 267.396C435.322 267.592 435.851 267.684 436.382 267.668C436.914 267.653 437.436 267.529 437.918 267.305C438.399 267.08 438.83 266.76 439.184 266.364L458.552 246.144Z" fill="#F2F7FA"/>
<path d="M436.184 268.199C435.608 268.2 435.038 268.082 434.509 267.853C433.981 267.624 433.505 267.288 433.112 266.867L422.552 255.599C422.158 255.177 421.855 254.677 421.663 254.132C421.471 253.587 421.394 253.008 421.436 252.431C421.48 251.785 421.655 251.153 421.95 250.576C422.245 249.998 422.654 249.487 423.152 249.071L444.548 231.071C453.284 223.727 462.668 221.195 466.364 225.167C470.06 229.139 466.892 238.367 458.984 246.575L439.616 266.723C439.172 267.186 438.639 267.556 438.049 267.809C437.46 268.063 436.826 268.195 436.184 268.199ZM461.3 224.471C457.088 224.471 451.016 227.195 445.316 231.971L423.932 249.971C423.557 250.282 423.248 250.665 423.026 251.099C422.803 251.532 422.67 252.006 422.636 252.491C422.604 252.904 422.658 253.318 422.794 253.709C422.93 254.099 423.146 254.457 423.428 254.759L433.952 266.075C434.236 266.375 434.579 266.613 434.959 266.776C435.338 266.939 435.747 267.023 436.16 267.023C437.137 267.006 438.068 266.605 438.752 265.907L458.12 245.747C465.452 238.115 468.692 229.439 465.488 225.995C464.935 225.464 464.276 225.053 463.555 224.791C462.834 224.529 462.066 224.42 461.3 224.471Z" fill="#5CADF8"/>
<path d="M454.952 245.053C453.933 245.887 452.693 246.405 451.383 246.543C450.074 246.681 448.753 246.434 447.582 245.831C446.411 245.229 445.442 244.297 444.794 243.151C444.146 242.005 443.846 240.695 443.933 239.381C444.019 238.067 444.487 236.807 445.28 235.756C446.073 234.705 447.156 233.908 448.395 233.464C449.635 233.02 450.977 232.948 452.257 233.257C453.537 233.565 454.699 234.241 455.6 235.201C456.206 235.89 456.669 236.692 456.965 237.56C457.26 238.428 457.381 239.346 457.321 240.262C457.26 241.177 457.02 242.071 456.614 242.893C456.207 243.715 455.643 244.449 454.952 245.053Z" fill="#5CADF8"/>
<path opacity="0.3" d="M453.536 243.526C452.829 244.099 451.971 244.453 451.067 244.545C450.163 244.636 449.251 244.462 448.444 244.043C447.637 243.624 446.97 242.978 446.525 242.186C446.08 241.393 445.876 240.488 445.939 239.581C446.001 238.674 446.327 237.805 446.876 237.08C447.425 236.356 448.174 235.807 449.031 235.503C449.887 235.198 450.814 235.15 451.697 235.364C452.581 235.579 453.382 236.047 454.004 236.71C454.424 237.187 454.746 237.742 454.951 238.344C455.155 238.946 455.238 239.582 455.194 240.216C455.151 240.85 454.982 241.469 454.697 242.038C454.412 242.606 454.017 243.112 453.536 243.526Z" fill="#F2F7FA"/>
<path d="M399.674 353.281C408.921 344.348 409.661 330.113 401.327 321.485C392.992 312.858 378.74 313.105 369.492 322.038C360.245 330.971 359.505 345.207 367.84 353.834C376.174 362.462 390.427 362.214 399.674 353.281Z" fill="#5CADF8"/>
<path d="M404.793 337.655C404.54 341.058 403.474 344.35 401.685 347.255C399.757 350.447 397.048 353.094 393.812 354.946C390.576 356.798 386.921 357.794 383.193 357.839C379.639 357.891 376.145 356.922 373.126 355.045C370.107 353.169 367.691 350.465 366.165 347.255C364.755 344.261 364.144 340.955 364.389 337.655C364.83 332.203 367.288 327.112 371.282 323.375C375.276 319.638 380.52 317.525 385.989 317.447C388.589 317.412 391.167 317.923 393.558 318.945C395.949 319.967 398.099 321.479 399.871 323.382C401.642 325.286 402.995 327.539 403.843 329.997C404.69 332.456 405.014 335.064 404.793 337.655Z" fill="#F2F7FA"/>
<path opacity="0.6" d="M401.684 347.267C399.757 350.459 397.047 353.106 393.811 354.958C390.575 356.81 386.92 357.806 383.192 357.851C379.638 357.904 376.144 356.934 373.125 355.058C370.106 353.181 367.69 350.477 366.164 347.267C371.57 343.779 377.862 341.914 384.296 341.891C390.508 341.849 396.58 343.727 401.684 347.267Z" fill="#5CADF8"/>
<path opacity="0.6" d="M394.064 330.745C393.865 333.169 392.772 335.432 390.998 337.095C389.224 338.758 386.895 339.703 384.464 339.745C383.303 339.765 382.152 339.54 381.084 339.087C380.016 338.633 379.055 337.961 378.263 337.112C377.472 336.264 376.867 335.259 376.488 334.162C376.109 333.065 375.964 331.901 376.064 330.745C376.263 328.322 377.355 326.059 379.129 324.395C380.903 322.732 383.232 321.788 385.664 321.745C386.824 321.726 387.975 321.95 389.043 322.404C390.111 322.857 391.072 323.53 391.864 324.378C392.656 325.227 393.26 326.232 393.639 327.328C394.018 328.425 394.163 329.589 394.064 330.745Z" fill="#5CADF8"/>
<path d="M340.124 252.121C341.038 246.642 339.92 241.018 336.98 236.305L316.4 250.033L320.996 273.157C323.069 272.608 325.064 271.802 326.936 270.757C328.825 269.706 330.578 268.428 332.156 266.953C336.39 263.034 339.194 257.814 340.124 252.121Z" fill="#F2F7FA"/>
<path d="M336.596 238.007C338.914 242.259 339.758 247.158 338.996 251.939C338.107 257.366 335.439 262.343 331.412 266.087C329.9 267.484 328.224 268.693 326.42 269.687C325.012 270.476 323.528 271.123 321.992 271.619L317.804 250.559L336.644 237.983M337.028 236.279L316.4 250.031L320.996 273.155C323.069 272.607 325.064 271.8 326.936 270.755C328.825 269.705 330.578 268.427 332.156 266.951C336.383 263.026 339.179 257.802 340.1 252.107C341.014 246.628 339.896 241.004 336.956 236.291L337.028 236.279Z" fill="#5CADF8"/>
<path d="M316.4 250.032L295.4 239.916C296.763 237.376 298.535 235.077 300.644 233.112C310.568 223.824 325.844 223.824 334.496 233.112C335.395 234.098 336.199 235.167 336.896 236.304L316.4 250.032Z" fill="#5CADF8"/>
<path d="M316.4 250.032L320.996 273.156C317.008 274.284 312.788 274.303 308.79 273.212C304.792 272.121 301.167 269.961 298.304 266.964C291.692 259.86 290.528 248.964 295.4 239.916L316.4 250.032Z" fill="#5CADF8" fill-opacity="0.3"/>
<path d="M247.448 292.115C247.387 291.288 247.387 290.458 247.448 289.631H248.648C248.593 290.402 248.593 291.176 248.648 291.947L247.448 292.115Z" fill="#5CADF8"/>
<path d="M249.44 284.759L248.24 284.447C248.708 282.762 249.29 281.11 249.98 279.503L251.084 279.983C250.429 281.536 249.88 283.132 249.44 284.759ZM253.364 275.411L252.32 274.823C253.136 273.347 254.048 271.859 255.032 270.383L256.028 271.055C255.068 272.495 254.168 273.959 253.364 275.411ZM259.028 266.915L258.08 266.171C259.148 264.815 260.276 263.483 261.44 262.211L262.328 263.015C261.2 264.263 260.072 265.583 259.028 266.915ZM265.904 259.367L265.076 258.491C266.36 257.291 267.68 256.091 269 255.071L269.744 256.007C268.4 257.039 267.2 258.167 265.904 259.367ZM273.86 253.007L273.2 251.999C274.65 251.036 276.156 250.162 277.712 249.383L278.252 250.451C276.743 251.222 275.277 252.075 273.86 253.007Z" fill="#5CADF8"/>
<path d="M282.931 248.542L282.571 247.342C283.363 247.078 284.167 246.862 284.971 246.682L285.235 247.882C284.467 248.086 283.699 248.29 282.931 248.542Z" fill="#5CADF8"/>
<path d="M447.583 281.833C447.511 281.029 447.403 280.249 447.271 279.505L448.471 279.301C448.615 280.069 448.723 280.885 448.807 281.701L447.583 281.833Z" fill="#5CADF8"/>
<path d="M424.4 328.116L423.788 327.084C425.06 326.328 426.32 325.488 427.508 324.612L428.216 325.584C426.992 326.484 425.708 327.336 424.4 328.116ZM431.792 322.704L430.988 321.804C432.092 320.82 433.172 319.764 434.192 318.672L435.068 319.488C434 320.604 432.92 321.684 431.792 322.704ZM438.032 315.996L437.084 315.264C437.984 314.064 438.848 312.864 439.652 311.604L440.672 312.252C439.844 313.536 438.956 314.796 438.032 315.996ZM442.964 308.28L441.896 307.728C442.58 306.408 443.228 305.04 443.804 303.672L444.908 304.128C444.32 305.544 443.66 306.936 442.964 308.28ZM446.492 299.88L445.292 299.52C445.748 298.092 446.144 296.64 446.492 295.2L447.692 295.464C447.368 296.892 446.96 298.38 446.492 299.832V299.88ZM448.532 290.952L447.332 290.784C447.531 289.307 447.655 287.821 447.704 286.332H448.904C448.868 287.808 448.736 289.344 448.532 290.904V290.952Z" fill="#5CADF8"/>
<path d="M418.124 331.297L417.656 330.193C418.4 329.881 419.12 329.557 419.828 329.221L420.344 330.301C419.6 330.649 418.88 330.973 418.124 331.297Z" fill="#5CADF8"/>
<path d="M351.86 246.815C351.092 246.623 350.324 246.455 349.568 246.335L349.76 245.135C350.552 245.267 351.356 245.435 352.16 245.639L351.86 246.815Z" fill="#5CADF8"/>
<path d="M388.508 301.081L387.308 301.009C387.308 300.325 387.368 299.617 387.368 298.909C387.368 297.985 387.368 297.049 387.272 296.101L388.472 296.017C388.544 296.989 388.58 297.961 388.58 298.909C388.568 299.641 388.544 300.373 388.508 301.081ZM386.684 291.193C386.408 289.609 386.06 287.989 385.64 286.393L386.84 286.093C387.272 287.737 387.632 289.405 387.908 291.025L386.684 291.193ZM384.2 281.593C383.66 280.045 383.06 278.497 382.412 276.985L383.504 276.505C384.176 278.053 384.788 279.625 385.328 281.209L384.2 281.593ZM380.288 272.509C379.52 271.045 378.704 269.593 377.888 268.201L378.908 267.565C379.784 268.981 380.624 270.457 381.392 271.957L380.288 272.509ZM375.092 264.109C374.108 262.765 373.076 261.457 372.02 260.233L372.932 259.453C374.012 260.653 375.068 262.033 376.064 263.401L375.092 264.109ZM368.636 256.645C367.452 255.502 366.21 254.421 364.916 253.405L365.648 252.469C366.976 253.506 368.25 254.611 369.464 255.781L368.636 256.645ZM360.86 250.645C359.462 249.795 358.007 249.046 356.504 248.401L356.972 247.297C358.527 247.966 360.034 248.739 361.484 249.613L360.86 250.645Z" fill="#5CADF8"/>
<path d="M387.2 308.507L386.06 308.135C386.288 307.415 386.492 306.647 386.66 305.879L387.86 306.131C387.644 306.947 387.428 307.751 387.2 308.507Z" fill="#5CADF8"/>
<path opacity="0.2" d="M272.168 214.212C272.25 213.154 272.11 212.091 271.758 211.09C271.406 210.09 270.849 209.173 270.123 208.4C269.397 207.626 268.518 207.013 267.542 206.598C266.565 206.183 265.513 205.977 264.452 205.992C263.372 205.994 262.302 206.197 261.296 206.592C260.586 204.903 259.388 203.465 257.855 202.462C256.321 201.46 254.524 200.938 252.692 200.964C250.359 200.998 248.099 201.778 246.241 203.191C244.384 204.603 243.028 206.573 242.372 208.812C240.142 208.978 238.044 209.935 236.456 211.51C234.868 213.085 233.893 215.175 233.708 217.404C233.708 217.62 233.708 217.824 233.708 218.04C232.627 218.047 231.586 218.457 230.79 219.189C229.994 219.921 229.498 220.923 229.4 222C229.355 222.513 229.417 223.029 229.585 223.516C229.752 224.003 230.019 224.45 230.37 224.826C230.721 225.203 231.147 225.502 231.621 225.703C232.095 225.905 232.605 226.005 233.12 225.996H269.18C270.833 225.971 272.417 225.332 273.624 224.203C274.831 223.074 275.574 221.535 275.708 219.888C275.805 218.687 275.513 217.487 274.875 216.465C274.238 215.443 273.289 214.653 272.168 214.212Z" fill="#5CADF8"/>
<path opacity="0.2" d="M427.628 214.128C427.702 213.202 427.581 212.271 427.274 211.395C426.968 210.518 426.481 209.716 425.846 209.038C425.212 208.36 424.442 207.823 423.588 207.459C422.733 207.096 421.813 206.915 420.884 206.928C419.938 206.93 419.001 207.113 418.124 207.468C417.503 205.99 416.455 204.732 415.115 203.853C413.775 202.974 412.203 202.516 410.6 202.536C408.566 202.579 406.598 203.267 404.981 204.5C403.363 205.734 402.179 207.45 401.6 209.4C399.652 209.547 397.821 210.385 396.435 211.762C395.049 213.139 394.2 214.965 394.04 216.912C394.04 217.104 394.04 217.284 394.04 217.464C393.093 217.476 392.185 217.84 391.493 218.486C390.8 219.131 390.374 220.012 390.296 220.956C390.257 221.404 390.313 221.856 390.46 222.282C390.606 222.707 390.84 223.098 391.146 223.428C391.452 223.758 391.824 224.02 392.238 224.198C392.652 224.376 393.098 224.465 393.548 224.46H425.072C426.519 224.438 427.906 223.877 428.962 222.887C430.018 221.898 430.668 220.55 430.784 219.108C430.87 218.048 430.609 216.988 430.04 216.089C429.47 215.191 428.624 214.502 427.628 214.128Z" fill="#5CADF8"/>
<path opacity="0.1" d="M345.704 197.545C345.842 196.08 346.514 194.716 347.591 193.714C348.669 192.712 350.077 192.141 351.548 192.109C352.245 192.105 352.935 192.244 353.576 192.517C354.189 191.406 355.084 190.477 356.172 189.824C357.259 189.171 358.5 188.817 359.768 188.797C361.244 188.76 362.682 189.268 363.806 190.224C364.931 191.181 365.664 192.518 365.864 193.981C366.564 194.017 367.25 194.194 367.88 194.5C368.51 194.807 369.072 195.237 369.532 195.766C369.993 196.295 370.342 196.91 370.559 197.577C370.776 198.243 370.857 198.947 370.796 199.645C370.808 199.785 370.808 199.925 370.796 200.065C371.138 200.055 371.477 200.117 371.792 200.249C372.108 200.38 372.391 200.578 372.624 200.828C372.857 201.078 373.034 201.374 373.143 201.698C373.252 202.022 373.29 202.365 373.256 202.705C373.197 203.416 372.875 204.08 372.354 204.568C371.833 205.056 371.15 205.332 370.436 205.345H346.604C346.085 205.352 345.571 205.25 345.093 205.046C344.616 204.842 344.187 204.541 343.833 204.161C343.479 203.781 343.209 203.331 343.039 202.841C342.87 202.351 342.805 201.83 342.848 201.313C342.915 200.478 343.22 199.679 343.726 199.012C344.232 198.344 344.918 197.835 345.704 197.545Z" fill="#5CADF8"/>
<path d="M129.585 201.744C127.545 204.324 125.361 207.132 123.369 209.928C121.377 212.724 119.337 215.532 117.465 218.412C115.593 221.292 113.865 224.22 112.197 227.172C110.61 230.074 109.195 233.067 107.961 236.136L108.225 234.192C108.257 236.28 108.531 238.358 109.041 240.384C109.581 242.46 110.346 244.472 111.321 246.384C112.341 248.38 113.547 250.276 114.921 252.048C115.605 252.96 116.325 253.848 117.105 254.7C117.489 255.12 117.885 255.54 118.305 255.9C118.725 256.26 119.145 256.74 119.505 257.04L119.733 257.256C120.216 257.72 120.515 258.342 120.576 259.01C120.637 259.677 120.455 260.343 120.064 260.887C119.674 261.431 119.1 261.816 118.448 261.971C117.796 262.126 117.111 262.041 116.517 261.732C115.264 261.08 114.061 260.338 112.917 259.512C111.8 258.717 110.726 257.864 109.701 256.956C107.617 255.118 105.746 253.053 104.121 250.8C102.468 248.467 101.117 245.935 100.101 243.264C99.0604 240.537 98.3865 237.684 98.0966 234.78C98.0455 234.217 98.1066 233.65 98.2766 233.112L98.3606 232.836C99.5457 229.199 100.985 225.65 102.669 222.216C104.325 218.844 106.149 215.604 108.081 212.46C110.013 209.316 112.041 206.244 114.189 203.256C116.337 200.268 118.497 197.4 120.981 194.484C121.933 193.361 123.289 192.658 124.755 192.525C126.222 192.392 127.682 192.84 128.821 193.773C129.96 194.706 130.687 196.049 130.845 197.513C131.004 198.977 130.581 200.444 129.669 201.6L129.585 201.744Z" fill="#B55B52"/>
<path d="M117.201 255.9L127.545 260.364L117.441 265.164C117.441 265.164 111.525 261.132 112.029 256.668L117.201 255.9Z" fill="#B55B52"/>
<path d="M132.129 268.429L123.429 271.993L117.489 265.165L127.605 260.365L132.129 268.429Z" fill="#B55B52"/>
<path d="M138.405 168.385C139.677 174.949 140.949 186.925 136.377 191.113C140.075 197.214 145.558 202.032 152.085 204.913C160.821 199.753 156.657 191.809 156.657 191.809C149.385 189.829 149.577 184.441 150.849 179.425L138.405 168.385Z" fill="#B55B52"/>
<path d="M133.017 191.868C132.764 190.872 132.793 189.825 133.101 188.844C133.101 188.844 149.313 186.912 154.437 188.16C159.561 189.408 161.505 194.52 161.505 194.52L133.017 191.868Z" fill="#5CADF8" fill-opacity="0.3"/>
<path d="M164.42 159.12C164.42 160.008 164.9 160.74 165.476 160.752C166.052 160.764 166.52 160.068 166.508 159.168C166.496 158.268 166.04 157.548 165.464 157.524C164.888 157.5 164.42 158.22 164.42 159.12Z" fill="#132043"/>
<path d="M165.2 157.572L167.312 157.008C167.312 157.008 166.244 158.652 165.2 157.572Z" fill="#132043"/>
<path d="M164.648 161.16C165.443 163.216 166.509 165.157 167.816 166.932C167.363 167.244 166.845 167.452 166.301 167.539C165.757 167.626 165.201 167.591 164.672 167.436L164.648 161.16Z" fill="#A02724"/>
<path d="M161.948 154.272C161.814 154.275 161.683 154.232 161.576 154.152C161.469 154.063 161.4 153.936 161.384 153.797C161.369 153.658 161.407 153.519 161.492 153.408C161.985 152.758 162.631 152.24 163.372 151.899C164.112 151.558 164.926 151.404 165.74 151.452C165.879 151.47 166.006 151.541 166.093 151.651C166.181 151.761 166.222 151.9 166.208 152.04C166.204 152.107 166.186 152.172 166.155 152.232C166.125 152.291 166.082 152.344 166.031 152.387C165.979 152.43 165.919 152.461 165.855 152.48C165.79 152.499 165.723 152.504 165.656 152.496C165.011 152.467 164.369 152.596 163.786 152.872C163.202 153.148 162.695 153.563 162.308 154.08C162.264 154.135 162.21 154.18 162.148 154.213C162.086 154.246 162.018 154.266 161.948 154.272Z" fill="#132043"/>
<path d="M134.756 154.655C135.464 165.611 135.536 170.255 141.032 176.027C149.3 184.703 162.44 181.847 165.032 170.999C167.312 161.231 165.764 144.947 155.144 140.303C152.852 139.242 150.32 138.804 147.804 139.031C145.288 139.258 142.876 140.143 140.81 141.598C138.744 143.052 137.098 145.024 136.035 147.316C134.972 149.608 134.531 152.139 134.756 154.655Z" fill="#B55B52"/>
<path d="M135.201 142.656C130.965 143.664 125.505 152.664 126.801 158.976C128.181 165.576 116.001 175.128 125.349 178.284C135.717 181.788 135.273 187.404 147.573 184.644C154.029 183.204 172.473 185.1 163.293 170.184C155.421 157.416 159.525 152.184 159.525 152.184C160.743 152.191 161.947 151.931 163.052 151.421C164.158 150.91 165.137 150.163 165.921 149.232C168.609 146.04 166.185 131.76 157.413 136.68C149.757 140.892 129.909 132.936 135.201 142.656Z" fill="#132043"/>
<path d="M156.033 161.052C156.179 162.092 156.569 163.082 157.172 163.941C157.775 164.801 158.573 165.505 159.501 165.996C161.661 166.776 162.225 165.12 162.453 162.564C162.645 160.26 161.925 156.792 159.693 156.504C157.461 156.216 155.793 158.628 156.033 161.052Z" fill="#B55B52"/>
<path d="M163.52 259.738C163.52 259.738 169.82 341.614 170.456 376.462C170.483 377.854 170.37 379.245 170.12 380.614C159.428 438.826 147.404 487.618 147.404 487.618L141.476 485.998C141.476 485.998 142.772 418.702 150.404 375.982C142.88 338.662 135.2 259.738 135.2 259.738H163.52Z" fill="#B55B52"/>
<path d="M159.717 259.738C159.717 259.738 143.109 340.138 137.313 373.678C131.313 408.538 119.601 492.226 119.601 492.226H113.517C113.517 492.226 108.717 414.058 118.545 375.982C117.909 338.662 125.625 259.738 125.625 259.738H159.717Z" fill="#B55B52"/>
<path d="M174.609 200.771C174.483 198.715 173.667 196.761 172.293 195.226C170.919 193.69 169.067 192.664 167.037 192.311C163.437 191.711 158.781 191.003 154.401 190.607C147.658 190.121 140.889 190.121 134.145 190.607C131.553 190.763 129.033 190.955 126.753 191.219C125.412 191.371 124.12 191.81 122.963 192.505C121.806 193.201 120.813 194.137 120.049 195.249C119.286 196.362 118.77 197.626 118.538 198.956C118.305 200.285 118.361 201.649 118.701 202.955C125.901 232.439 125.529 243.311 125.397 259.739C107.901 286.619 114.357 313.451 112.029 351.455C130.497 354.911 152.061 351.347 171.417 353.783C175.893 308.387 170.301 267.959 168.117 259.739C172.569 225.311 175.041 208.799 174.609 200.771Z" fill="#132043"/>
<path d="M125.288 191.508C117.572 194.016 113.024 201.384 113.024 201.384C113.024 201.384 122.888 216.504 123.992 220.716C128.096 209.64 125.288 191.508 125.288 191.508Z" fill="#132043"/>
<path d="M166.257 346.116H166.173C165.552 346.107 164.94 345.963 164.381 345.694C163.821 345.424 163.327 345.036 162.933 344.556C162.631 344.165 162.244 343.847 161.801 343.627C161.358 343.407 160.871 343.29 160.377 343.284C159.318 343.306 158.307 343.736 157.557 344.484C157.106 344.938 156.569 345.297 155.978 345.54C155.386 345.783 154.752 345.905 154.113 345.9C153.495 345.893 152.885 345.751 152.327 345.484C151.77 345.216 151.277 344.83 150.885 344.352C150.582 343.962 150.195 343.644 149.752 343.424C149.31 343.204 148.823 343.086 148.329 343.08C147.273 343.102 146.266 343.532 145.521 344.28C145.075 344.744 144.537 345.111 143.943 345.356C143.348 345.602 142.708 345.722 142.065 345.708C141.446 345.698 140.836 345.554 140.279 345.284C139.721 345.015 139.229 344.627 138.837 344.148C138.535 343.757 138.148 343.439 137.705 343.219C137.262 342.999 136.775 342.882 136.281 342.876C135.757 342.878 135.238 342.986 134.755 343.192C134.273 343.398 133.837 343.699 133.473 344.076C132.576 344.961 131.373 345.468 130.113 345.492H130.029C129.41 345.487 128.8 345.346 128.242 345.078C127.684 344.811 127.192 344.423 126.801 343.944C126.498 343.554 126.111 343.236 125.668 343.016C125.226 342.796 124.739 342.678 124.245 342.672C123.719 342.673 123.198 342.78 122.713 342.986C122.229 343.192 121.791 343.494 121.425 343.872C120.511 344.785 119.273 345.298 117.981 345.3C117.362 345.291 116.752 345.147 116.194 344.877C115.637 344.608 115.145 344.22 114.753 343.74C114.454 343.349 114.069 343.031 113.628 342.813C113.187 342.594 112.701 342.481 112.209 342.48V341.496C112.828 341.505 113.438 341.649 113.996 341.919C114.553 342.188 115.045 342.577 115.437 343.056C115.731 343.462 116.114 343.794 116.558 344.027C117.001 344.261 117.492 344.388 117.993 344.4C119.05 344.385 120.059 343.954 120.801 343.2C121.697 342.313 122.9 341.806 124.161 341.784H124.245C124.863 341.791 125.473 341.933 126.031 342.2C126.588 342.468 127.081 342.854 127.473 343.332C127.776 343.723 128.163 344.04 128.606 344.26C129.048 344.48 129.535 344.598 130.029 344.604C130.553 344.6 131.071 344.492 131.553 344.286C132.035 344.08 132.472 343.78 132.837 343.404C133.284 342.941 133.822 342.576 134.416 342.33C135.011 342.084 135.65 341.964 136.293 341.976C136.912 341.985 137.522 342.129 138.08 342.399C138.637 342.668 139.129 343.056 139.521 343.536C139.823 343.927 140.21 344.245 140.653 344.465C141.096 344.685 141.583 344.803 142.077 344.808C143.134 344.79 144.142 344.36 144.885 343.608C145.782 342.723 146.985 342.216 148.245 342.192H148.401C149.02 342.197 149.63 342.339 150.188 342.606C150.746 342.874 151.238 343.261 151.629 343.74C151.932 344.131 152.319 344.448 152.762 344.668C153.204 344.888 153.691 345.006 154.185 345.012C155.243 344.985 156.252 344.556 157.005 343.812C157.449 343.348 157.984 342.982 158.577 342.736C159.17 342.49 159.807 342.371 160.449 342.384C161.07 342.393 161.682 342.537 162.241 342.807C162.801 343.076 163.295 343.464 163.689 343.944C163.992 344.335 164.379 344.652 164.822 344.872C165.264 345.092 165.751 345.21 166.245 345.216C166.772 345.218 167.294 345.113 167.779 344.907C168.263 344.7 168.701 344.397 169.065 344.016C169.514 343.557 170.053 343.195 170.647 342.951C171.241 342.708 171.879 342.588 172.521 342.6V343.572C171.995 343.575 171.474 343.682 170.99 343.888C170.506 344.094 170.068 344.395 169.701 344.772C169.244 345.213 168.705 345.558 168.114 345.789C167.522 346.02 166.891 346.131 166.257 346.116Z" fill="#F2F7FA"/>
<path opacity="0.2" d="M143.457 333.504L139.557 299.76L128.385 293.4L143.457 333.504Z" fill="#132043"/>
<path d="M123.08 263.376L169.148 267.348C169.784 267.348 170.276 266.508 170.348 265.248L170.528 257.58C170.528 256.032 169.904 254.604 169.136 254.532L124.928 250.932C124.292 250.932 123.8 251.772 123.728 253.032L121.676 260.4C121.64 261.876 122.3 263.316 123.08 263.376Z" fill="#5CADF8"/>
<path d="M175.185 199.476L177.813 219.876L179.229 230.016C179.733 233.376 180.237 236.724 180.813 240.036L180.717 239.652C181.095 240.953 181.606 242.211 182.241 243.408C182.925 244.764 183.741 246.156 184.641 247.536C186.381 250.308 188.301 253.068 190.305 255.792C192.309 258.516 194.361 261.252 196.497 263.928C198.633 266.604 200.769 269.316 202.893 271.968C203.316 272.511 203.524 273.191 203.477 273.878C203.43 274.565 203.131 275.21 202.637 275.69C202.144 276.17 201.491 276.452 200.803 276.48C200.115 276.508 199.44 276.282 198.909 275.844C196.197 273.54 193.653 271.152 191.109 268.716C188.565 266.28 186.153 263.724 183.753 261.108C181.353 258.492 179.037 255.768 176.865 252.828C175.773 251.352 174.705 249.828 173.697 248.172C172.579 246.377 171.669 244.461 170.985 242.46V242.364L170.913 242.088C169.281 235.188 167.961 228.336 166.881 221.46C166.329 218.028 165.789 214.596 165.321 211.152C164.853 207.708 164.409 204.276 164.121 200.772C163.952 199.292 164.379 197.805 165.306 196.64C166.233 195.474 167.585 194.724 169.065 194.556C170.545 194.387 172.031 194.813 173.197 195.74C174.363 196.667 175.112 198.02 175.281 199.5L175.185 199.476Z" fill="#B55B52"/>
<path d="M166.821 192.275C175.845 193.355 177.621 200.495 177.621 200.495C177.621 200.495 166.977 213.407 164.541 220.715C158.289 200.399 166.821 192.275 166.821 192.275Z" fill="#132043"/>
<path d="M293.121 231.588L196.521 284.7L195.249 282.372L292.485 230.412L293.121 231.588Z" fill="#132043"/>
<path d="M200.277 269.818L211.077 271.57L202.617 278.986C202.617 278.986 196.125 276.514 195.597 271.918L200.277 269.818Z" fill="#B55B52"/>
<path d="M203.204 269.413C203.444 269.746 203.582 270.143 203.6 270.553C203.618 270.964 203.516 271.371 203.306 271.724C203.096 272.078 202.788 272.362 202.419 272.543C202.05 272.724 201.636 272.793 201.228 272.742C200.82 272.691 200.436 272.522 200.123 272.256C199.809 271.99 199.581 271.638 199.464 271.244C199.348 270.85 199.349 270.43 199.468 270.037C199.586 269.643 199.817 269.293 200.132 269.029C200.591 268.674 201.172 268.515 201.747 268.587C202.323 268.659 202.847 268.956 203.204 269.413Z" fill="#132043"/>
<path d="M196.401 273.852C196.082 273.856 195.764 273.824 195.453 273.756C195.299 273.719 195.166 273.622 195.082 273.487C194.999 273.352 194.973 273.19 195.009 273.036C195.046 272.882 195.142 272.748 195.277 272.665C195.412 272.582 195.575 272.556 195.729 272.592C195.873 272.592 198.933 273.228 201.093 269.64C201.134 269.572 201.187 269.512 201.251 269.465C201.315 269.418 201.387 269.384 201.464 269.365C201.541 269.346 201.621 269.343 201.7 269.355C201.778 269.367 201.853 269.394 201.921 269.436C202.056 269.52 202.153 269.654 202.191 269.808C202.229 269.963 202.205 270.126 202.125 270.264C201.582 271.321 200.763 272.213 199.756 272.844C198.748 273.475 197.589 273.824 196.401 273.852Z" fill="#132043"/>
<path d="M214.461 280.536L211.653 282.732C211.102 283.169 210.423 283.413 209.721 283.426C209.018 283.439 208.331 283.22 207.765 282.804L202.593 278.988L211.053 271.572L214.869 275.868C215.161 276.196 215.383 276.579 215.522 276.996C215.66 277.413 215.712 277.853 215.674 278.29C215.636 278.728 215.508 279.153 215.3 279.539C215.091 279.925 214.806 280.265 214.461 280.536Z" fill="#B55B52"/>
<path d="M148.401 486.875L141.381 484.955C141.195 484.903 140.997 484.916 140.821 484.993C140.644 485.069 140.498 485.204 140.409 485.375L137.433 491.735C137.339 491.93 137.29 492.143 137.289 492.359C137.288 492.575 137.335 492.788 137.427 492.984C137.519 493.179 137.654 493.352 137.821 493.489C137.988 493.625 138.183 493.723 138.393 493.775C142.149 494.735 143.193 494.639 147.909 496.079C151.905 497.279 151.977 499.379 158.613 499.823C162.621 500.087 161.721 496.775 160.029 496.415C154.029 495.131 153.441 493.151 150.069 488.747C149.601 488.063 149.253 487.103 148.401 486.875Z" fill="#132043"/>
<path d="M120.501 490.331H113.301C113.11 490.323 112.923 490.389 112.779 490.513C112.634 490.638 112.542 490.813 112.521 491.003L111.645 497.999C111.618 498.216 111.637 498.438 111.702 498.647C111.766 498.857 111.875 499.051 112.02 499.215C112.166 499.38 112.344 499.511 112.544 499.602C112.744 499.692 112.961 499.739 113.181 499.739C117.021 499.667 115.785 499.739 120.621 499.739H127.521C131.541 499.739 130.269 496.619 128.565 496.235C125.205 495.503 124.269 494.315 122.565 491.711C122.359 491.33 122.063 491.006 121.703 490.765C121.344 490.525 120.931 490.376 120.501 490.331Z" fill="#132043"/>
</svg>
