<svg width="375" height="631" viewBox="0 0 375 631" fill="none" xmlns="http://www.w3.org/2000/svg">
<g clip-path="url(#clip0_45_13420)">
<rect width="375" height="630" transform="translate(0 0.515625)" fill="#F2F7FA"/>
<path d="M0 0.515625H375V630.516L187.965 316.554L0 0.515625Z" fill="#F2F7FA"/>
<g opacity="0.1" filter="url(#filter0_d_45_13420)">
<circle cx="342.5" cy="-56.9844" r="355.5" fill="#5CADF8" fill-opacity="0.5" shape-rendering="crispEdges"/>
</g>
<circle opacity="0.1" cx="375.5" cy="-168.984" r="355.5" fill="#5CADF8" fill-opacity="0.5"/>
<g clip-path="url(#clip1_45_13420)">
<path d="M436 478.809H-24V479.039H436V478.809Z" fill="#5CADF8" fill-opacity="0.3"/>
<path d="M389.909 493.609H359.438V493.839H389.909V493.609Z" fill="#5CADF8" fill-opacity="0.3"/>
<path d="M280.722 496.113H272.728V496.343H280.722V496.113Z" fill="#5CADF8" fill-opacity="0.3"/>
<path d="M358.518 485.074H340.863V485.304H358.518V485.074Z" fill="#5CADF8" fill-opacity="0.3"/>
<path d="M63.9985 486.619H24.2637V486.849H63.9985V486.619Z" fill="#5CADF8" fill-opacity="0.3"/>
<path d="M78.0189 486.619H72.1953V486.849H78.0189V486.619Z" fill="#5CADF8" fill-opacity="0.3"/>
<path d="M183.138 490.5H96.9521V490.73H183.138V490.5Z" fill="#5CADF8" fill-opacity="0.3"/>
<path d="M194.04 437.776H16.3973C15.0057 437.773 13.6719 437.219 12.6887 436.234C11.7055 435.249 11.1533 433.914 11.1533 432.522V182.807C11.1654 181.423 11.723 180.1 12.7048 179.125C13.6867 178.15 15.0136 177.602 16.3973 177.6H194.04C195.433 177.6 196.77 178.153 197.755 179.138C198.74 180.123 199.293 181.46 199.293 182.853V432.522C199.293 433.916 198.74 435.252 197.755 436.237C196.77 437.222 195.433 437.776 194.04 437.776ZM16.3973 177.784C15.0667 177.786 13.7914 178.316 12.8513 179.258C11.9113 180.2 11.3833 181.476 11.3833 182.807V432.522C11.3833 433.853 11.9113 435.129 12.8513 436.071C13.7914 437.013 15.0667 437.543 16.3973 437.546H194.04C195.372 437.543 196.648 437.013 197.589 436.072C198.531 435.13 199.061 433.854 199.063 432.522V182.807C199.061 181.475 198.531 180.199 197.589 179.258C196.648 178.316 195.372 177.786 194.04 177.784H16.3973Z" fill="#5CADF8" fill-opacity="0.3"/>
<path d="M393.046 437.776H215.394C214.001 437.773 212.667 437.219 211.682 436.234C210.697 435.25 210.143 433.915 210.141 432.522V182.807C210.155 181.422 210.715 180.099 211.698 179.125C212.681 178.15 214.009 177.602 215.394 177.6H393.046C394.428 177.604 395.752 178.154 396.732 179.128C397.712 180.103 398.269 181.425 398.281 182.807V432.522C398.281 433.912 397.73 435.246 396.749 436.23C395.767 437.215 394.436 437.771 393.046 437.776ZM215.394 177.784C214.062 177.786 212.786 178.316 211.845 179.258C210.903 180.199 210.373 181.475 210.371 182.807V432.522C210.373 433.854 210.903 435.13 211.845 436.072C212.786 437.013 214.062 437.543 215.394 437.546H393.046C394.377 437.543 395.654 437.013 396.595 436.072C397.537 435.13 398.067 433.854 398.069 432.522V182.807C398.067 181.475 397.537 180.199 396.595 179.258C395.654 178.316 394.377 177.786 393.046 177.784H215.394Z" fill="#5CADF8" fill-opacity="0.3"/>
<path d="M223.922 478.808H380.809L391.941 203.525H235.054L223.922 478.808Z" fill="#5CADF8" fill-opacity="0.5"/>
<path d="M220.085 478.808H376.973L388.105 203.525H231.217L220.085 478.808Z" fill="#F2F7FA"/>
<path d="M369.456 470.978L379.963 211.354H238.734L228.236 470.978H369.456Z" fill="#5CADF8" fill-opacity="0.3"/>
<path d="M71.1189 256.959L79.3253 277.199C79.0861 335.72 81.7357 339.097 81.7541 349.161H61.0357C60.2905 300.171 67.5493 311.184 71.1189 256.959Z" fill="#5CADF8" fill-opacity="0.3"/>
<path d="M82.7201 316.721C66.0037 270.795 27.6029 285.018 29.3601 301.799C31.1173 318.58 92.2789 343.134 82.7201 316.721Z" fill="#5CADF8" fill-opacity="0.3"/>
<path d="M76.3811 343.199C67.2731 313.602 43.0771 318.432 43.0771 332.03C43.0771 345.628 81.6159 360.228 76.3811 343.199Z" fill="#5CADF8" fill-opacity="0.3"/>
<path d="M75.7283 289.786C61.4407 250.226 25.8551 255.664 28.7255 272.362C31.5959 289.06 83.9439 312.538 75.7283 289.786Z" fill="#5CADF8" fill-opacity="0.3"/>
<path d="M75.8291 272.039C77.1539 245.083 50.4555 233.988 52.3047 250.097C54.1539 266.206 75.0655 287.541 75.8291 272.039Z" fill="#5CADF8" fill-opacity="0.3"/>
<path d="M73.8328 299.638C79.4724 266.426 113.678 253.785 109.86 272.59C106.042 291.395 70.5944 318.737 73.8328 299.638Z" fill="#5CADF8" fill-opacity="0.3"/>
<path d="M70.9531 280.861C64.3107 246.03 95.0387 230.555 95.9219 247.345C96.8051 264.135 74.7711 300.88 70.9531 280.861Z" fill="#5CADF8" fill-opacity="0.3"/>
<path d="M68.2848 320.2C81.864 286.638 110.936 294.964 108.001 310.236C105.066 325.508 60.474 339.52 68.2848 320.2Z" fill="#5CADF8" fill-opacity="0.3"/>
<path d="M74.9927 343.641C74.6891 321.984 94.3127 316.391 94.5704 328.921C94.828 341.451 75.1583 356.079 74.9927 343.641Z" fill="#5CADF8" fill-opacity="0.3"/>
<path d="M68.9848 369.879C63.8263 369.894 58.8175 368.145 54.7897 364.923C50.7618 361.7 47.9569 357.196 46.8404 352.16C46.3039 349.46 45.5312 346.813 44.5312 344.248L44.3564 343.834H93.5948L93.42 344.248C92.4201 346.813 91.6474 349.46 91.1108 352.16C89.9966 357.194 87.1949 361.696 83.1704 364.919C79.146 368.142 74.1407 369.892 68.9848 369.879Z" fill="#5CADF8" fill-opacity="0.5"/>
<path d="M21.4478 478.799H43.2979L43.2979 369.843H21.4478L21.4478 478.799Z" fill="#5CADF8" fill-opacity="0.5"/>
<path d="M28.0074 478.808H21.457V465.68H34.8706L28.0074 478.808Z" fill="#F2F7FA"/>
<path d="M171.224 478.799H193.074V369.843H171.224V478.799Z" fill="#5CADF8" fill-opacity="0.5"/>
<path d="M21.4477 474.428H176.928V369.842H21.4477V474.428Z" fill="#F2F7FA"/>
<path d="M170.387 478.808H176.937V465.68H163.515L170.387 478.808Z" fill="#F2F7FA"/>
<path d="M26.5356 419.053H171.85V377.202H26.5356V419.053Z" fill="#5CADF8" fill-opacity="0.5"/>
<path d="M65.7828 390.212H128.196C134.59 390.212 140.698 385.051 145.096 375.934H48.8916C53.28 385.051 59.398 390.212 65.7828 390.212Z" fill="#F2F7FA"/>
<path d="M26.5356 467.676H171.85V425.825H26.5356V467.676Z" fill="#5CADF8" fill-opacity="0.5"/>
<path d="M65.7828 438.823H128.196C134.59 438.823 140.698 433.662 145.096 424.545H48.8916C53.28 433.662 59.398 438.823 65.7828 438.823Z" fill="#F2F7FA"/>
<path d="M206.001 520.354C304.517 520.354 384.38 515.691 384.38 509.94C384.38 504.188 304.517 499.525 206.001 499.525C107.485 499.525 27.6221 504.188 27.6221 509.94C27.6221 515.691 107.485 520.354 206.001 520.354Z" fill="#5CADF8" fill-opacity="0.3"/>
<path d="M348.479 417.351H110.42C109.199 417.369 107.988 417.129 106.867 416.645C105.745 416.161 104.739 415.446 103.915 414.545C103.09 413.645 102.465 412.58 102.081 411.421C101.698 410.262 101.564 409.035 101.689 407.82L115.986 237.62C116.244 235.042 117.438 232.649 119.342 230.893C121.246 229.136 123.727 228.139 126.317 228.089H364.376C365.597 228.072 366.808 228.314 367.929 228.798C369.05 229.282 370.056 229.997 370.881 230.897C371.706 231.797 372.332 232.861 372.717 234.02C373.102 235.178 373.238 236.405 373.116 237.62L358.82 407.82C358.557 410.397 357.361 412.79 355.456 414.545C353.551 416.301 351.069 417.299 348.479 417.351Z" fill="#5CADF8"/>
<path opacity="0.7" d="M348.479 417.351H110.42C109.199 417.369 107.988 417.129 106.867 416.645C105.745 416.161 104.739 415.446 103.915 414.545C103.09 413.645 102.465 412.58 102.081 411.421C101.698 410.262 101.564 409.035 101.689 407.82L115.986 237.62C116.244 235.042 117.438 232.649 119.342 230.893C121.246 229.136 123.727 228.139 126.317 228.089H364.376C365.597 228.072 366.808 228.314 367.929 228.798C369.05 229.282 370.056 229.997 370.881 230.897C371.706 231.797 372.332 232.861 372.717 234.02C373.102 235.178 373.238 236.405 373.116 237.62L358.82 407.82C358.557 410.397 357.361 412.79 355.456 414.545C353.551 416.301 351.069 417.299 348.479 417.351Z" fill="#F2F7FA"/>
<path d="M110.732 413.671C109.982 413.684 109.238 413.538 108.548 413.242C107.859 412.946 107.24 412.506 106.733 411.953C106.226 411.4 105.842 410.746 105.607 410.033C105.372 409.32 105.29 408.566 105.369 407.82L119.666 237.62C119.823 236.036 120.557 234.565 121.727 233.487C122.897 232.408 124.422 231.797 126.014 231.768H364.064C364.814 231.755 365.559 231.902 366.249 232.198C366.939 232.494 367.558 232.933 368.066 233.486C368.574 234.039 368.958 234.693 369.195 235.406C369.431 236.118 369.513 236.873 369.436 237.62L355.14 407.82C354.982 409.403 354.249 410.874 353.078 411.952C351.908 413.031 350.383 413.643 348.792 413.671H110.732Z" fill="#F2F7FA"/>
<path d="M135.683 243.628H138.388C138.619 243.607 138.853 243.633 139.074 243.704C139.295 243.775 139.5 243.89 139.676 244.042C139.818 244.204 139.922 244.395 139.981 244.602C140.04 244.809 140.052 245.026 140.016 245.238C139.993 245.715 139.785 246.163 139.437 246.489C139.008 246.817 138.475 246.977 137.937 246.94H137.017L136.851 248.891H135.214L135.683 243.628ZM137.127 245.873H137.532C137.768 245.893 138.004 245.835 138.204 245.707C138.269 245.657 138.324 245.593 138.363 245.52C138.403 245.447 138.427 245.367 138.434 245.284C138.445 245.135 138.399 244.987 138.305 244.87C138.222 244.8 138.124 244.749 138.02 244.719C137.915 244.689 137.806 244.681 137.698 244.695H137.229L137.127 245.873Z" fill="#5CADF8"/>
<path d="M143.254 248.025H141.414L141.083 248.889H139.418L141.847 243.627H143.622L145.159 248.889H143.438L143.254 248.025ZM143.006 246.884L142.583 244.989L141.856 246.884H143.006Z" fill="#5CADF8"/>
<path d="M146.116 243.627H147.634L149.373 246.534L149.622 243.627H151.158L150.716 248.889H149.18L147.45 246.001L147.202 248.889H145.675L146.116 243.627Z" fill="#5CADF8"/>
<path d="M152.233 243.627H156.594L156.502 244.749H153.742L153.669 245.587H156.208L156.116 246.663H153.586L153.494 247.703H156.318L156.217 248.889H151.773L152.233 243.627Z" fill="#5CADF8"/>
<path d="M157.551 243.627H159.179L158.848 247.592H161.387L161.277 248.889H157.109L157.551 243.627Z" fill="#5CADF8"/>
<path opacity="0.1" d="M179.319 251.244H165.519C165.155 251.25 164.794 251.179 164.459 251.035C164.125 250.891 163.825 250.677 163.58 250.408C163.335 250.139 163.149 249.821 163.036 249.475C162.923 249.129 162.885 248.763 162.924 248.401L163.329 243.498C163.409 242.731 163.767 242.02 164.334 241.499C164.902 240.977 165.64 240.68 166.411 240.664H180.211C180.574 240.66 180.933 240.732 181.266 240.876C181.599 241.02 181.897 241.233 182.142 241.501C182.387 241.768 182.573 242.084 182.687 242.428C182.801 242.773 182.842 243.137 182.805 243.498L182.354 248.438C182.273 249.194 181.92 249.894 181.362 250.41C180.804 250.926 180.078 251.222 179.319 251.244Z" fill="#5CADF8"/>
<path opacity="0.1" d="M353.538 249.116C355.449 247.284 355.632 244.374 353.948 242.618C352.263 240.861 349.349 240.922 347.438 242.755C345.527 244.587 345.344 247.496 347.029 249.253C348.713 251.01 351.628 250.948 353.538 249.116Z" fill="#5CADF8"/>
<path opacity="0.1" d="M335.143 249.12C337.053 247.288 337.237 244.378 335.552 242.622C333.868 240.865 330.953 240.926 329.043 242.759C327.132 244.591 326.949 247.5 328.633 249.257C330.318 251.013 333.232 250.952 335.143 249.12Z" fill="#5CADF8"/>
<path opacity="0.1" d="M316.739 249.122C318.649 247.29 318.832 244.38 317.148 242.624C315.463 240.867 312.549 240.928 310.638 242.761C308.728 244.593 308.544 247.502 310.229 249.259C311.913 251.015 314.828 250.954 316.739 249.122Z" fill="#5CADF8"/>
<path opacity="0.1" d="M195.391 265.146H137.302C133.825 265.146 130.761 267.768 130.494 270.979L118.534 413.671H189.264L201.224 270.979C201.481 267.759 198.859 265.146 195.391 265.146Z" fill="#5CADF8"/>
<path d="M193.588 268.68H138.508C137.258 268.709 136.062 269.192 135.143 270.038C134.223 270.885 133.644 272.037 133.512 273.28L130.752 306.308C130.692 306.895 130.757 307.488 130.943 308.048C131.129 308.607 131.431 309.122 131.83 309.556C132.229 309.991 132.716 310.336 133.258 310.569C133.8 310.802 134.385 310.917 134.975 310.908H190.046C191.297 310.885 192.497 310.404 193.417 309.556C194.338 308.709 194.916 307.553 195.042 306.308L197.802 273.28C197.858 272.694 197.791 272.103 197.605 271.545C197.419 270.988 197.117 270.475 196.72 270.041C196.322 269.607 195.838 269.262 195.299 269.028C194.759 268.793 194.176 268.675 193.588 268.68Z" fill="#F2F7FA"/>
<path d="M189.622 315.903H134.542C133.292 315.929 132.095 316.412 131.175 317.258C130.255 318.105 129.676 319.259 129.546 320.503L126.786 353.531C126.726 354.117 126.792 354.71 126.977 355.27C127.163 355.83 127.466 356.344 127.865 356.779C128.263 357.213 128.75 357.559 129.292 357.792C129.834 358.025 130.419 358.14 131.009 358.131H186.08C187.331 358.108 188.531 357.627 189.451 356.779C190.372 355.931 190.95 354.776 191.076 353.531L193.836 320.503C193.893 319.917 193.826 319.326 193.639 318.768C193.453 318.21 193.151 317.698 192.754 317.264C192.356 316.83 191.872 316.485 191.333 316.25C190.793 316.016 190.21 315.897 189.622 315.903Z" fill="#F2F7FA"/>
<path d="M185.657 363.135H130.558C129.308 363.16 128.109 363.641 127.189 364.489C126.269 365.336 125.691 366.49 125.563 367.735L122.803 400.763C122.743 401.35 122.808 401.943 122.994 402.503C123.18 403.062 123.482 403.577 123.881 404.011C124.28 404.446 124.767 404.791 125.309 405.024C125.851 405.257 126.436 405.372 127.026 405.363H182.078C183.329 405.338 184.527 404.856 185.448 404.009C186.368 403.162 186.946 402.007 187.074 400.763L189.834 367.735C189.893 367.152 189.829 366.563 189.646 366.006C189.463 365.45 189.165 364.938 188.771 364.504C188.377 364.07 187.896 363.724 187.36 363.488C186.823 363.252 186.243 363.132 185.657 363.135Z" fill="#F2F7FA"/>
<path opacity="0.5" d="M148.793 287.226H139.05C138.78 287.23 138.512 287.177 138.265 287.07C138.017 286.963 137.794 286.805 137.612 286.606C137.429 286.407 137.291 286.172 137.206 285.916C137.121 285.659 137.091 285.388 137.118 285.119L137.937 275.377C137.997 274.807 138.263 274.279 138.685 273.891C139.106 273.503 139.655 273.282 140.228 273.27H149.961C150.231 273.266 150.499 273.319 150.747 273.426C150.995 273.533 151.217 273.691 151.4 273.89C151.582 274.089 151.721 274.324 151.806 274.58C151.891 274.837 151.921 275.108 151.893 275.377L151.075 285.119C151.016 285.688 150.752 286.216 150.332 286.604C149.912 286.992 149.365 287.213 148.793 287.226Z" fill="#5CADF8"/>
<path opacity="0.5" d="M190.404 294.817H137.302C137.175 294.817 137.049 294.791 136.932 294.74C136.815 294.69 136.71 294.615 136.624 294.522C136.537 294.428 136.471 294.318 136.43 294.198C136.388 294.078 136.372 293.95 136.382 293.823C136.409 293.554 136.533 293.303 136.731 293.119C136.929 292.934 137.188 292.828 137.458 292.82H190.561C190.689 292.82 190.816 292.846 190.933 292.897C191.05 292.949 191.156 293.024 191.242 293.118C191.329 293.213 191.395 293.324 191.436 293.446C191.477 293.567 191.492 293.696 191.481 293.823C191.452 294.091 191.327 294.339 191.129 294.522C190.931 294.705 190.674 294.809 190.404 294.817Z" fill="#5CADF8"/>
<path opacity="0.2" d="M183.376 279.203H158.95C158.747 279.206 158.545 279.165 158.359 279.084C158.172 279.003 158.004 278.883 157.867 278.733C157.73 278.583 157.626 278.405 157.562 278.212C157.498 278.019 157.476 277.814 157.497 277.612C157.542 277.184 157.741 276.787 158.058 276.495C158.375 276.204 158.787 276.038 159.217 276.029H183.643C183.846 276.027 184.047 276.068 184.233 276.148C184.419 276.229 184.586 276.347 184.723 276.497C184.86 276.646 184.964 276.822 185.028 277.014C185.093 277.207 185.116 277.41 185.097 277.612C185.054 278.042 184.856 278.441 184.539 278.734C184.222 279.027 183.808 279.194 183.376 279.203Z" fill="#132043"/>
<path opacity="0.2" d="M173.273 284.465H158.507C158.304 284.467 158.104 284.427 157.918 284.346C157.732 284.266 157.565 284.147 157.428 283.998C157.29 283.849 157.186 283.672 157.122 283.48C157.057 283.288 157.034 283.084 157.053 282.883C157.096 282.455 157.293 282.057 157.608 281.763C157.923 281.47 158.335 281.302 158.765 281.291H173.54C173.743 281.289 173.945 281.329 174.132 281.41C174.318 281.492 174.486 281.611 174.623 281.761C174.76 281.912 174.864 282.089 174.928 282.282C174.992 282.476 175.014 282.68 174.993 282.883C174.949 283.311 174.749 283.708 174.432 283.999C174.116 284.291 173.703 284.456 173.273 284.465Z" fill="#132043"/>
<path opacity="0.5" d="M144.827 334.459H135.084C134.814 334.463 134.547 334.409 134.299 334.302C134.051 334.196 133.828 334.037 133.646 333.839C133.463 333.64 133.325 333.404 133.24 333.148C133.155 332.892 133.125 332.62 133.152 332.352L133.971 322.609C134.03 322.038 134.295 321.509 134.717 321.121C135.139 320.733 135.689 320.513 136.262 320.502H145.996C146.266 320.498 146.533 320.551 146.781 320.658C147.029 320.765 147.252 320.923 147.434 321.122C147.617 321.321 147.755 321.557 147.84 321.813C147.925 322.069 147.955 322.34 147.928 322.609L147.118 332.352C147.06 332.922 146.794 333.452 146.372 333.84C145.95 334.228 145.401 334.448 144.827 334.459Z" fill="#5CADF8"/>
<path opacity="0.5" d="M186.439 342.049H133.318C133.19 342.05 133.063 342.023 132.946 341.972C132.829 341.921 132.723 341.845 132.637 341.751C132.55 341.657 132.484 341.545 132.443 341.424C132.402 341.303 132.387 341.174 132.398 341.046C132.427 340.779 132.552 340.53 132.75 340.348C132.948 340.165 133.205 340.06 133.475 340.053H186.577C186.704 340.052 186.83 340.078 186.947 340.129C187.064 340.18 187.169 340.254 187.255 340.348C187.342 340.441 187.408 340.551 187.449 340.672C187.491 340.792 187.507 340.919 187.497 341.046C187.471 341.313 187.349 341.561 187.155 341.745C186.961 341.929 186.707 342.037 186.439 342.049Z" fill="#5CADF8"/>
<path opacity="0.2" d="M179.411 326.436H154.975C154.773 326.437 154.572 326.395 154.386 326.314C154.201 326.232 154.034 326.112 153.898 325.962C153.762 325.812 153.659 325.635 153.596 325.442C153.532 325.25 153.51 325.046 153.531 324.844C153.575 324.418 153.774 324.022 154.089 323.731C154.403 323.44 154.813 323.273 155.242 323.262H179.677C179.88 323.26 180.081 323.3 180.267 323.381C180.453 323.461 180.62 323.58 180.757 323.729C180.894 323.878 180.998 324.055 181.063 324.247C181.127 324.439 181.15 324.642 181.131 324.844C181.088 325.274 180.89 325.673 180.573 325.966C180.256 326.26 179.842 326.427 179.411 326.436Z" fill="#132043"/>
<path opacity="0.2" d="M169.309 331.698H154.534C154.332 331.7 154.131 331.659 153.946 331.579C153.76 331.498 153.594 331.379 153.457 331.23C153.321 331.081 153.218 330.904 153.154 330.712C153.091 330.52 153.069 330.316 153.09 330.115C153.132 329.687 153.329 329.289 153.644 328.996C153.959 328.703 154.371 328.535 154.801 328.524H169.576C169.78 328.521 169.981 328.562 170.168 328.643C170.355 328.724 170.522 328.843 170.659 328.994C170.797 329.144 170.9 329.322 170.964 329.515C171.028 329.708 171.05 329.913 171.03 330.115C170.985 330.543 170.785 330.94 170.469 331.232C170.152 331.523 169.74 331.689 169.309 331.698Z" fill="#132043"/>
<path d="M165.519 346.649H184.728C185.029 346.643 185.328 346.702 185.605 346.82C185.881 346.939 186.13 347.115 186.333 347.337C186.537 347.559 186.691 347.821 186.785 348.107C186.88 348.393 186.912 348.695 186.881 348.995L186.596 352.426C186.533 353.063 186.239 353.654 185.769 354.088C185.299 354.522 184.687 354.769 184.047 354.782H164.801C164.5 354.786 164.201 354.726 163.924 354.606C163.647 354.487 163.399 354.31 163.196 354.087C162.992 353.865 162.838 353.602 162.744 353.316C162.65 353.029 162.617 352.726 162.648 352.426L162.933 348.995C162.999 348.354 163.3 347.76 163.777 347.327C164.254 346.894 164.874 346.652 165.519 346.649Z" fill="#5CADF8"/>
<path d="M166.982 351.783H165.859L165.657 352.308H164.654L166.126 349.115H167.203L168.123 352.308H167.092L166.982 351.783ZM166.835 351.093L166.586 349.943L166.135 351.093H166.835Z" fill="#F2F7FA"/>
<path d="M170.606 351.001L171.452 351.267C171.38 351.488 171.267 351.694 171.121 351.875C170.985 352.033 170.815 352.158 170.624 352.243C170.395 352.33 170.151 352.37 169.907 352.362C169.62 352.375 169.334 352.325 169.069 352.215C168.841 352.099 168.657 351.911 168.545 351.681C168.398 351.379 168.343 351.04 168.389 350.706C168.405 350.247 168.592 349.811 168.913 349.483C169.253 349.186 169.695 349.034 170.146 349.059C170.47 349.041 170.792 349.125 171.066 349.299C171.301 349.488 171.461 349.756 171.517 350.053L170.597 350.246C170.584 350.172 170.559 350.101 170.523 350.035C170.475 349.96 170.408 349.9 170.33 349.86C170.252 349.815 170.162 349.793 170.072 349.795C169.966 349.793 169.861 349.817 169.766 349.865C169.671 349.913 169.59 349.984 169.529 350.071C169.409 350.258 169.345 350.475 169.345 350.697C169.294 350.943 169.326 351.199 169.437 351.424C169.488 351.492 169.555 351.546 169.632 351.581C169.71 351.617 169.794 351.632 169.879 351.626C169.96 351.63 170.041 351.617 170.117 351.589C170.193 351.56 170.262 351.517 170.321 351.461C170.451 351.333 170.549 351.175 170.606 351.001Z" fill="#F2F7FA"/>
<path d="M174.084 351.001L174.931 351.267C174.858 351.488 174.746 351.694 174.6 351.875C174.463 352.033 174.294 352.158 174.103 352.243C173.874 352.33 173.63 352.37 173.385 352.362C173.099 352.375 172.813 352.325 172.548 352.215C172.32 352.099 172.136 351.911 172.024 351.681C171.876 351.379 171.822 351.04 171.867 350.706C171.883 350.247 172.07 349.811 172.392 349.483C172.732 349.186 173.174 349.034 173.624 349.059C173.948 349.042 174.27 349.126 174.544 349.299C174.777 349.491 174.936 349.757 174.995 350.053L174.075 350.246C174.062 350.172 174.037 350.101 174.002 350.035C173.951 349.962 173.885 349.903 173.808 349.86C173.727 349.814 173.635 349.791 173.542 349.795C173.437 349.794 173.333 349.818 173.24 349.866C173.147 349.914 173.067 349.985 173.008 350.071C172.888 350.258 172.821 350.475 172.815 350.697C172.77 350.944 172.805 351.199 172.916 351.424C172.966 351.492 173.033 351.547 173.11 351.583C173.188 351.618 173.273 351.633 173.358 351.626C173.437 351.632 173.517 351.623 173.593 351.597C173.669 351.572 173.739 351.532 173.799 351.479C173.933 351.346 174.031 351.181 174.084 351.001Z" fill="#F2F7FA"/>
<path d="M175.639 349.115H178.288L178.224 349.796H176.559L176.513 350.302H178.049L177.994 350.955H176.458L176.402 351.59H178.114L178.049 352.308H175.354L175.639 349.115Z" fill="#F2F7FA"/>
<path d="M178.813 349.116H180.459C180.6 349.103 180.743 349.119 180.877 349.163C181.012 349.207 181.136 349.279 181.241 349.373C181.325 349.473 181.386 349.59 181.42 349.715C181.455 349.84 181.463 349.972 181.444 350.1C181.437 350.243 181.402 350.384 181.341 350.514C181.279 350.643 181.192 350.759 181.085 350.855C180.821 351.054 180.494 351.149 180.165 351.121H179.622L179.521 352.308H178.527L178.813 349.116ZM179.733 350.477H179.981C180.123 350.487 180.265 350.452 180.386 350.376C180.423 350.347 180.455 350.311 180.479 350.27C180.502 350.229 180.518 350.184 180.524 350.137C180.53 350.09 180.526 350.042 180.514 349.996C180.501 349.95 180.479 349.908 180.45 349.87C180.4 349.827 180.341 349.795 180.278 349.776C180.214 349.757 180.148 349.752 180.082 349.76H179.797L179.733 350.477Z" fill="#F2F7FA"/>
<path d="M181.821 349.115H184.839L184.775 349.906H183.772L183.56 352.308H182.567L182.778 349.906H181.775L181.821 349.115Z" fill="#F2F7FA"/>
<path opacity="0.5" d="M140.853 381.691H131.119C130.849 381.694 130.581 381.64 130.333 381.532C130.085 381.424 129.863 381.265 129.681 381.065C129.498 380.865 129.36 380.629 129.275 380.373C129.19 380.116 129.16 379.844 129.187 379.575L130.006 369.878C130.064 369.31 130.328 368.781 130.749 368.394C131.169 368.006 131.716 367.784 132.288 367.772H142.031C142.301 367.768 142.568 367.821 142.816 367.928C143.064 368.035 143.287 368.193 143.469 368.392C143.652 368.591 143.79 368.826 143.875 369.082C143.96 369.339 143.99 369.61 143.963 369.878L143.144 379.612C143.076 380.176 142.806 380.697 142.386 381.078C141.965 381.46 141.421 381.678 140.853 381.691Z" fill="#5CADF8"/>
<path opacity="0.25" d="M182.464 389.282H129.371C129.243 389.282 129.116 389.256 128.999 389.205C128.881 389.153 128.776 389.078 128.689 388.984C128.603 388.889 128.537 388.778 128.496 388.656C128.455 388.535 128.439 388.406 128.451 388.279C128.48 388.011 128.605 387.763 128.803 387.58C129.001 387.397 129.258 387.293 129.527 387.285H182.63C182.757 387.285 182.883 387.311 183 387.362C183.116 387.412 183.221 387.487 183.308 387.58C183.394 387.673 183.46 387.784 183.502 387.904C183.544 388.024 183.56 388.152 183.55 388.279C183.523 388.55 183.397 388.801 183.197 388.986C182.997 389.171 182.736 389.276 182.464 389.282Z" fill="#5CADF8"/>
<path opacity="0.25" d="M172.188 389.282H129.371C129.243 389.282 129.116 389.256 128.999 389.205C128.881 389.153 128.776 389.078 128.689 388.984C128.603 388.889 128.537 388.778 128.496 388.656C128.455 388.535 128.439 388.406 128.451 388.279C128.48 388.011 128.605 387.763 128.803 387.58C129.001 387.397 129.258 387.293 129.527 387.285H172.344C172.471 387.285 172.597 387.311 172.714 387.362C172.831 387.412 172.936 387.487 173.022 387.58C173.109 387.673 173.175 387.784 173.216 387.904C173.258 388.024 173.274 388.152 173.264 388.279C173.237 388.548 173.113 388.799 172.915 388.983C172.717 389.168 172.458 389.274 172.188 389.282Z" fill="#5CADF8"/>
<path opacity="0.2" d="M175.445 373.661H151.01C150.807 373.663 150.607 373.623 150.421 373.542C150.236 373.462 150.069 373.343 149.933 373.194C149.796 373.044 149.693 372.868 149.63 372.675C149.566 372.483 149.544 372.28 149.565 372.079C149.608 371.651 149.805 371.255 150.121 370.963C150.436 370.671 150.847 370.505 151.276 370.496H175.712C175.915 370.493 176.116 370.532 176.303 370.612C176.49 370.692 176.657 370.811 176.795 370.96C176.932 371.11 177.036 371.287 177.1 371.48C177.164 371.673 177.186 371.877 177.165 372.079C177.122 372.508 176.923 372.906 176.606 373.197C176.289 373.489 175.876 373.654 175.445 373.661Z" fill="#132043"/>
<path opacity="0.2" d="M165.344 378.932H150.569C150.366 378.933 150.166 378.891 149.98 378.81C149.795 378.728 149.628 378.608 149.492 378.458C149.356 378.308 149.253 378.131 149.189 377.938C149.126 377.746 149.104 377.542 149.125 377.34C149.165 376.912 149.362 376.514 149.678 376.222C149.994 375.93 150.406 375.765 150.836 375.758H165.611C165.813 375.757 166.014 375.798 166.199 375.879C166.384 375.96 166.551 376.079 166.687 376.228C166.824 376.377 166.928 376.553 166.993 376.744C167.058 376.936 167.083 377.139 167.065 377.34C167.022 377.77 166.823 378.169 166.506 378.462C166.19 378.756 165.776 378.923 165.344 378.932Z" fill="#132043"/>
<path opacity="0.1" d="M271.318 265.146H213.184C209.715 265.146 206.652 267.768 206.385 270.979L194.425 413.671H265.145L277.105 270.979C277.372 267.759 274.75 265.146 271.318 265.146Z" fill="#5CADF8"/>
<path d="M269.478 268.68H214.397C213.147 268.707 211.95 269.189 211.03 270.036C210.11 270.883 209.531 272.036 209.402 273.28L206.642 306.308C206.582 306.894 206.647 307.486 206.832 308.045C207.017 308.605 207.319 309.118 207.717 309.553C208.115 309.987 208.6 310.333 209.141 310.566C209.682 310.8 210.266 310.916 210.855 310.908H265.936C267.186 310.883 268.385 310.402 269.305 309.554C270.225 308.707 270.803 307.552 270.931 306.308L273.691 273.28C273.75 272.694 273.684 272.103 273.498 271.544C273.312 270.985 273.01 270.472 272.613 270.038C272.215 269.604 271.73 269.259 271.19 269.025C270.65 268.791 270.066 268.673 269.478 268.68Z" fill="#F2F7FA"/>
<path d="M265.504 315.903H210.432C209.182 315.928 207.983 316.409 207.063 317.257C206.143 318.104 205.565 319.259 205.437 320.503L202.677 353.531C202.618 354.117 202.685 354.71 202.871 355.269C203.057 355.828 203.36 356.342 203.759 356.776C204.157 357.21 204.643 357.556 205.184 357.789C205.726 358.022 206.31 358.139 206.9 358.131H261.98C263.23 358.104 264.427 357.622 265.347 356.775C266.267 355.928 266.846 354.774 266.976 353.531L269.736 320.503C269.794 319.915 269.728 319.322 269.541 318.763C269.354 318.203 269.05 317.689 268.651 317.254C268.251 316.82 267.764 316.475 267.222 316.242C266.679 316.009 266.094 315.893 265.504 315.903Z" fill="#F2F7FA"/>
<path d="M261.54 363.135H206.469C205.217 363.158 204.018 363.639 203.097 364.487C202.177 365.335 201.599 366.49 201.473 367.735L198.713 400.763C198.655 401.35 198.721 401.942 198.907 402.502C199.094 403.061 199.396 403.574 199.795 404.009C200.193 404.443 200.679 404.788 201.221 405.022C201.762 405.255 202.346 405.372 202.936 405.363H258.016C259.266 405.337 260.463 404.854 261.383 404.007C262.303 403.161 262.882 402.007 263.012 400.763L265.772 367.735C265.832 367.148 265.766 366.554 265.58 365.994C265.393 365.433 265.09 364.918 264.69 364.484C264.29 364.049 263.803 363.704 263.26 363.472C262.717 363.239 262.13 363.125 261.54 363.135Z" fill="#F2F7FA"/>
<path opacity="0.5" d="M224.674 287.227H214.941C214.671 287.231 214.403 287.177 214.155 287.071C213.907 286.964 213.685 286.806 213.502 286.607C213.32 286.408 213.181 286.172 213.096 285.916C213.011 285.66 212.982 285.389 213.009 285.12L213.828 275.377C213.886 274.808 214.152 274.279 214.574 273.893C214.996 273.506 215.546 273.288 216.118 273.28H225.861C226.131 273.276 226.399 273.329 226.647 273.436C226.895 273.542 227.117 273.701 227.3 273.9C227.482 274.099 227.621 274.334 227.706 274.59C227.791 274.846 227.821 275.118 227.793 275.386L226.974 285.129C226.912 285.699 226.644 286.226 226.22 286.612C225.797 286.998 225.247 287.217 224.674 287.227Z" fill="#5CADF8"/>
<path opacity="0.25" d="M266.286 294.817H213.192C213.065 294.817 212.939 294.791 212.823 294.74C212.706 294.69 212.601 294.615 212.514 294.522C212.428 294.428 212.362 294.318 212.32 294.198C212.279 294.078 212.262 293.95 212.272 293.823C212.297 293.553 212.421 293.301 212.619 293.116C212.818 292.931 213.078 292.826 213.349 292.82H266.451C266.579 292.82 266.706 292.846 266.824 292.897C266.941 292.949 267.046 293.024 267.133 293.118C267.22 293.213 267.285 293.324 267.327 293.446C267.368 293.567 267.383 293.696 267.371 293.823C267.342 294.092 267.216 294.342 267.016 294.525C266.816 294.708 266.557 294.812 266.286 294.817Z" fill="#5CADF8"/>
<path opacity="0.25" d="M235.972 294.817H213.192C213.065 294.817 212.939 294.791 212.823 294.74C212.706 294.69 212.601 294.615 212.514 294.522C212.428 294.428 212.362 294.318 212.32 294.198C212.279 294.078 212.262 293.95 212.272 293.823C212.297 293.553 212.421 293.301 212.619 293.116C212.818 292.931 213.078 292.826 213.349 292.82H236.137C236.265 292.82 236.392 292.846 236.51 292.897C236.627 292.949 236.732 293.024 236.819 293.118C236.906 293.213 236.971 293.324 237.013 293.446C237.054 293.567 237.069 293.696 237.057 293.823C237.028 294.092 236.902 294.342 236.702 294.525C236.502 294.708 236.243 294.812 235.972 294.817Z" fill="#5CADF8"/>
<path opacity="0.2" d="M259.265 279.203H234.83C234.627 279.206 234.425 279.165 234.238 279.084C234.052 279.003 233.884 278.883 233.747 278.733C233.61 278.583 233.506 278.405 233.442 278.212C233.378 278.019 233.356 277.814 233.377 277.612C233.421 277.184 233.621 276.787 233.938 276.495C234.254 276.204 234.667 276.038 235.097 276.029H259.532C259.735 276.027 259.935 276.067 260.121 276.148C260.306 276.229 260.473 276.348 260.609 276.497C260.745 276.646 260.849 276.823 260.912 277.015C260.975 277.207 260.997 277.411 260.977 277.612C260.934 278.04 260.737 278.438 260.422 278.731C260.107 279.024 259.696 279.192 259.265 279.203Z" fill="#132043"/>
<path opacity="0.2" d="M249.165 284.465H234.39C234.187 284.467 233.986 284.427 233.8 284.346C233.614 284.266 233.447 284.147 233.31 283.998C233.173 283.849 233.069 283.672 233.005 283.48C232.94 283.288 232.917 283.084 232.936 282.883C232.979 282.453 233.178 282.054 233.495 281.76C233.812 281.467 234.225 281.3 234.657 281.291H249.432C249.635 281.29 249.835 281.332 250.021 281.413C250.206 281.495 250.373 281.615 250.509 281.765C250.645 281.915 250.748 282.092 250.812 282.285C250.875 282.477 250.897 282.681 250.876 282.883C250.832 283.309 250.634 283.705 250.319 283.996C250.004 284.287 249.594 284.454 249.165 284.465Z" fill="#132043"/>
<path opacity="0.5" d="M220.719 334.459H210.976C210.706 334.463 210.438 334.41 210.19 334.303C209.942 334.196 209.72 334.038 209.537 333.839C209.355 333.64 209.217 333.404 209.132 333.148C209.047 332.892 209.017 332.621 209.044 332.352L209.863 322.609C209.919 322.039 210.182 321.51 210.603 321.122C211.024 320.734 211.572 320.513 212.144 320.502H221.878C222.148 320.497 222.417 320.549 222.665 320.655C222.914 320.762 223.137 320.92 223.32 321.119C223.503 321.319 223.641 321.554 223.725 321.811C223.81 322.068 223.839 322.34 223.81 322.609L223 332.352C222.94 332.92 222.676 333.447 222.256 333.835C221.836 334.222 221.29 334.444 220.719 334.459Z" fill="#5CADF8"/>
<path opacity="0.25" d="M262.322 342.049H209.228C209.1 342.05 208.974 342.023 208.856 341.972C208.739 341.921 208.633 341.845 208.547 341.751C208.46 341.657 208.394 341.545 208.353 341.424C208.312 341.303 208.297 341.174 208.308 341.046C208.337 340.777 208.464 340.527 208.664 340.345C208.863 340.162 209.123 340.058 209.394 340.053H262.487C262.614 340.052 262.74 340.078 262.857 340.129C262.974 340.18 263.079 340.254 263.165 340.348C263.252 340.441 263.318 340.551 263.36 340.672C263.401 340.792 263.417 340.919 263.407 341.046C263.38 341.317 263.255 341.569 263.055 341.754C262.855 341.939 262.594 342.044 262.322 342.049Z" fill="#5CADF8"/>
<path opacity="0.25" d="M212.062 342.049H209.228C209.1 342.05 208.974 342.023 208.856 341.972C208.739 341.921 208.633 341.845 208.547 341.751C208.46 341.657 208.394 341.545 208.353 341.424C208.312 341.303 208.297 341.174 208.308 341.046C208.337 340.777 208.464 340.527 208.664 340.345C208.863 340.162 209.123 340.058 209.394 340.053H212.228C212.355 340.052 212.481 340.078 212.598 340.129C212.714 340.18 212.819 340.254 212.906 340.348C212.992 340.441 213.058 340.551 213.1 340.672C213.142 340.792 213.158 340.919 213.148 341.046C213.121 341.317 212.995 341.569 212.795 341.754C212.595 341.939 212.334 342.044 212.062 342.049Z" fill="#5CADF8"/>
<path opacity="0.2" d="M255.301 326.436H230.838C230.635 326.438 230.433 326.398 230.246 326.316C230.06 326.235 229.892 326.116 229.755 325.966C229.618 325.815 229.514 325.638 229.45 325.444C229.386 325.251 229.364 325.047 229.384 324.844C229.429 324.416 229.629 324.019 229.946 323.728C230.262 323.436 230.675 323.271 231.105 323.262H255.54C255.742 323.259 255.943 323.3 256.128 323.38C256.314 323.461 256.48 323.58 256.617 323.729C256.753 323.879 256.857 324.055 256.92 324.247C256.983 324.44 257.005 324.643 256.984 324.844C256.943 325.268 256.749 325.662 256.44 325.955C256.131 326.247 255.726 326.418 255.301 326.436Z" fill="#132043"/>
<path opacity="0.2" d="M245.199 331.698H230.424C230.221 331.7 230.021 331.659 229.835 331.579C229.649 331.498 229.482 331.38 229.345 331.23C229.207 331.081 229.103 330.905 229.039 330.713C228.974 330.52 228.951 330.317 228.97 330.115C229.013 329.685 229.212 329.286 229.529 328.993C229.846 328.7 230.259 328.533 230.691 328.524H245.457C245.66 328.521 245.862 328.562 246.049 328.643C246.235 328.724 246.403 328.843 246.54 328.994C246.677 329.144 246.781 329.322 246.845 329.515C246.909 329.708 246.931 329.913 246.91 330.115C246.866 330.542 246.668 330.937 246.353 331.229C246.038 331.52 245.628 331.686 245.199 331.698Z" fill="#132043"/>
<path opacity="0.5" d="M216.744 381.691H207.01C206.74 381.694 206.472 381.639 206.224 381.531C205.976 381.423 205.754 381.264 205.571 381.065C205.389 380.865 205.251 380.629 205.166 380.372C205.081 380.116 205.051 379.844 205.078 379.575L205.897 369.841C205.953 369.272 206.217 368.742 206.637 368.354C207.058 367.966 207.606 367.745 208.178 367.735H217.958C218.228 367.731 218.496 367.784 218.744 367.891C218.992 367.998 219.214 368.156 219.397 368.355C219.579 368.554 219.717 368.789 219.802 369.045C219.888 369.301 219.917 369.573 219.89 369.841L219.071 379.575C219.014 380.153 218.745 380.69 218.315 381.081C217.885 381.472 217.325 381.689 216.744 381.691Z" fill="#5CADF8"/>
<path opacity="0.5" d="M258.356 389.282H205.263C205.134 389.282 205.008 389.256 204.89 389.205C204.773 389.153 204.668 389.078 204.581 388.984C204.494 388.889 204.428 388.778 204.387 388.656C204.346 388.535 204.331 388.406 204.343 388.279C204.372 388.009 204.498 387.76 204.698 387.577C204.898 387.394 205.157 387.29 205.428 387.285H258.521C258.649 387.285 258.775 387.311 258.891 387.362C259.008 387.412 259.113 387.487 259.199 387.58C259.286 387.673 259.352 387.784 259.394 387.904C259.435 388.024 259.452 388.152 259.441 388.279C259.414 388.55 259.289 388.801 259.089 388.986C258.889 389.171 258.628 389.276 258.356 389.282Z" fill="#5CADF8"/>
<path opacity="0.2" d="M251.336 373.661H226.901C226.698 373.665 226.496 373.625 226.309 373.545C226.123 373.465 225.955 373.347 225.818 373.197C225.68 373.047 225.576 372.87 225.512 372.678C225.448 372.485 225.426 372.281 225.447 372.079C225.49 371.65 225.689 371.252 226.006 370.96C226.323 370.668 226.737 370.503 227.167 370.496H251.593C251.796 370.493 251.998 370.532 252.185 370.612C252.371 370.692 252.539 370.811 252.676 370.96C252.814 371.11 252.918 371.287 252.982 371.48C253.046 371.673 253.068 371.877 253.047 372.079C253.004 372.506 252.807 372.903 252.492 373.194C252.176 373.486 251.765 373.652 251.336 373.661Z" fill="#132043"/>
<path opacity="0.2" d="M241.225 378.932H226.459C226.256 378.934 226.054 378.894 225.867 378.813C225.681 378.731 225.513 378.612 225.376 378.462C225.239 378.311 225.135 378.134 225.071 377.941C225.007 377.747 224.985 377.543 225.006 377.34C225.05 376.912 225.25 376.515 225.567 376.224C225.883 375.932 226.296 375.767 226.726 375.758H241.492C241.695 375.756 241.895 375.796 242.081 375.877C242.267 375.957 242.434 376.076 242.572 376.225C242.709 376.374 242.813 376.551 242.877 376.743C242.942 376.935 242.965 377.139 242.946 377.34C242.903 377.77 242.704 378.169 242.387 378.463C242.07 378.756 241.657 378.923 241.225 378.932Z" fill="#132043"/>
<path d="M237.398 393.883H256.598C256.899 393.879 257.197 393.938 257.473 394.058C257.749 394.177 257.997 394.353 258.2 394.574C258.403 394.796 258.557 395.058 258.652 395.343C258.747 395.628 258.781 395.93 258.751 396.229L258.466 399.661C258.399 400.295 258.103 400.883 257.634 401.314C257.165 401.746 256.555 401.992 255.917 402.007H236.717C236.417 402.011 236.118 401.951 235.842 401.832C235.566 401.713 235.319 401.537 235.116 401.316C234.912 401.094 234.758 400.832 234.663 400.547C234.568 400.262 234.534 399.96 234.564 399.661L234.849 396.229C234.916 395.595 235.212 395.007 235.681 394.575C236.15 394.143 236.76 393.897 237.398 393.883Z" fill="#5CADF8"/>
<path d="M238.907 399.016H237.785L237.582 399.54H236.57L238.051 396.348H239.119L240.039 399.54H239.008L238.907 399.016ZM238.76 398.326L238.502 397.176L238.051 398.326H238.76Z" fill="#F2F7FA"/>
<path d="M242.532 398.235L243.369 398.493C243.305 398.718 243.195 398.928 243.047 399.109C242.911 399.267 242.741 399.393 242.55 399.477C242.318 399.565 242.071 399.606 241.823 399.596C241.537 399.609 241.251 399.558 240.986 399.449C240.76 399.331 240.576 399.144 240.462 398.916C240.308 398.551 240.262 398.151 240.329 397.761C240.395 397.371 240.572 397.009 240.839 396.717C241.179 396.42 241.621 396.269 242.072 396.294C242.395 396.278 242.716 396.361 242.992 396.533C243.221 396.726 243.377 396.993 243.433 397.287L242.513 397.481C242.495 397.407 242.467 397.335 242.43 397.269C242.386 397.195 242.322 397.135 242.246 397.094C242.165 397.048 242.073 397.026 241.98 397.03C241.876 397.027 241.773 397.05 241.679 397.097C241.586 397.143 241.506 397.212 241.446 397.296C241.328 397.488 241.261 397.707 241.253 397.931C241.204 398.178 241.24 398.434 241.354 398.658C241.404 398.725 241.469 398.778 241.545 398.814C241.62 398.849 241.703 398.865 241.786 398.861C241.868 398.866 241.949 398.854 242.025 398.825C242.101 398.797 242.17 398.752 242.228 398.695C242.369 398.572 242.474 398.413 242.532 398.235Z" fill="#F2F7FA"/>
<path d="M246 398.235L246.847 398.492C246.78 398.718 246.667 398.928 246.516 399.109C246.379 399.267 246.21 399.393 246.019 399.477C245.79 399.564 245.546 399.605 245.301 399.596C245.015 399.609 244.729 399.559 244.464 399.449C244.238 399.33 244.054 399.144 243.94 398.915C243.792 398.613 243.738 398.274 243.783 397.94C243.799 397.481 243.986 397.045 244.308 396.717C244.649 396.422 245.09 396.27 245.54 396.293C245.864 396.275 246.186 396.359 246.46 396.533C246.696 396.722 246.855 396.99 246.911 397.287L245.991 397.48C245.98 397.406 245.955 397.334 245.918 397.269C245.873 397.195 245.809 397.135 245.734 397.094C245.652 397.049 245.56 397.027 245.467 397.029C245.362 397.028 245.258 397.051 245.163 397.097C245.069 397.144 244.987 397.212 244.924 397.296C244.809 397.488 244.745 397.707 244.74 397.931C244.691 398.178 244.727 398.434 244.841 398.658C244.891 398.725 244.957 398.778 245.032 398.813C245.107 398.849 245.19 398.865 245.274 398.86C245.355 398.866 245.436 398.854 245.512 398.825C245.588 398.797 245.658 398.752 245.715 398.695C245.854 398.573 245.954 398.413 246 398.235Z" fill="#F2F7FA"/>
<path d="M247.509 396.348H250.158L250.103 397.028H248.438V397.534H249.974L249.919 398.188H248.318L248.263 398.822H249.965L249.901 399.54H247.205L247.509 396.348Z" fill="#F2F7FA"/>
<path d="M250.738 396.348H252.376C252.516 396.336 252.657 396.351 252.791 396.394C252.926 396.436 253.05 396.505 253.158 396.596C253.241 396.696 253.302 396.813 253.337 396.938C253.372 397.063 253.379 397.194 253.36 397.323C253.347 397.613 253.221 397.887 253.01 398.087C252.744 398.28 252.419 398.375 252.09 398.353H251.557L251.456 399.54H250.462L250.738 396.348ZM251.612 397.709H251.851C251.996 397.721 252.142 397.685 252.265 397.608C252.306 397.578 252.339 397.54 252.363 397.495C252.387 397.45 252.401 397.401 252.403 397.351C252.409 397.306 252.404 397.26 252.39 397.217C252.376 397.174 252.352 397.135 252.32 397.102C252.27 397.059 252.211 397.027 252.148 397.008C252.085 396.989 252.018 396.984 251.952 396.992H251.667L251.612 397.709Z" fill="#F2F7FA"/>
<path d="M253.737 396.348H256.745L256.681 397.139H255.678L255.466 399.54H254.482L254.694 397.139H253.682L253.737 396.348Z" fill="#F2F7FA"/>
<path opacity="0.1" d="M347.163 265.145H289.075C287.424 265.12 285.821 265.7 284.567 266.774C283.313 267.848 282.495 269.343 282.267 270.978L270.307 413.67H341.027L352.987 270.978C353.263 267.758 350.641 265.145 347.163 265.145Z" fill="#5CADF8"/>
<path d="M345.36 268.68H290.289C289.038 268.705 287.84 269.186 286.92 270.034C286 270.881 285.421 272.036 285.293 273.28L282.533 306.308C282.473 306.895 282.539 307.488 282.724 308.048C282.91 308.608 283.213 309.122 283.612 309.556C284.011 309.991 284.497 310.336 285.039 310.569C285.581 310.802 286.166 310.918 286.756 310.908H341.827C343.079 310.885 344.278 310.404 345.199 309.557C346.119 308.709 346.697 307.553 346.823 306.308L349.583 273.28C349.641 272.693 349.575 272.101 349.389 271.542C349.202 270.983 348.9 270.469 348.501 270.035C348.102 269.601 347.617 269.255 347.075 269.022C346.534 268.789 345.95 268.672 345.36 268.68Z" fill="#F2F7FA"/>
<path d="M341.395 315.903H286.324C285.073 315.928 283.875 316.409 282.955 317.256C282.035 318.104 281.456 319.258 281.328 320.503L278.568 353.531C278.509 354.117 278.574 354.71 278.76 355.27C278.945 355.83 279.248 356.344 279.647 356.779C280.046 357.214 280.532 357.559 281.074 357.792C281.616 358.025 282.201 358.14 282.791 358.131H337.862C339.114 358.108 340.313 357.627 341.234 356.779C342.154 355.931 342.732 354.776 342.858 353.531L345.618 320.503C345.675 319.916 345.608 319.325 345.421 318.766C345.234 318.207 344.931 317.694 344.533 317.26C344.135 316.827 343.649 316.481 343.109 316.247C342.568 316.013 341.984 315.896 341.395 315.903Z" fill="#F2F7FA"/>
<path d="M337.429 363.135H282.358C281.108 363.162 279.911 363.644 278.991 364.491C278.071 365.338 277.492 366.491 277.363 367.735L274.603 400.763C274.543 401.35 274.608 401.943 274.794 402.503C274.98 403.063 275.282 403.577 275.681 404.011C276.08 404.446 276.566 404.791 277.108 405.024C277.65 405.257 278.236 405.372 278.825 405.363H333.878C335.129 405.34 336.329 404.859 337.249 404.011C338.17 403.164 338.748 402.008 338.874 400.763L341.634 367.735C341.692 367.15 341.626 366.559 341.441 366.001C341.256 365.443 340.955 364.931 340.558 364.497C340.162 364.063 339.678 363.717 339.139 363.483C338.6 363.248 338.017 363.129 337.429 363.135Z" fill="#F2F7FA"/>
<path opacity="0.5" d="M300.565 287.226H290.832C290.561 287.232 290.293 287.179 290.044 287.073C289.795 286.967 289.572 286.809 289.39 286.609C289.207 286.41 289.068 286.174 288.984 285.917C288.9 285.66 288.871 285.388 288.899 285.119L289.709 275.377C289.769 274.807 290.035 274.279 290.457 273.891C290.879 273.503 291.427 273.282 292 273.27H301.734C302.003 273.266 302.271 273.319 302.519 273.426C302.767 273.533 302.99 273.691 303.172 273.89C303.355 274.089 303.493 274.324 303.578 274.58C303.663 274.837 303.693 275.108 303.666 275.377L302.847 285.119C302.79 285.689 302.527 286.218 302.106 286.607C301.686 286.995 301.137 287.215 300.565 287.226Z" fill="#5CADF8"/>
<path opacity="0.5" d="M342.158 294.817H289.074C288.947 294.817 288.821 294.791 288.704 294.74C288.588 294.69 288.483 294.615 288.396 294.522C288.31 294.428 288.244 294.318 288.202 294.198C288.16 294.078 288.144 293.95 288.154 293.823C288.181 293.552 288.307 293.3 288.507 293.116C288.707 292.931 288.968 292.826 289.24 292.82H342.342C342.47 292.82 342.597 292.846 342.715 292.897C342.832 292.949 342.937 293.024 343.024 293.118C343.111 293.213 343.177 293.324 343.218 293.446C343.259 293.567 343.274 293.696 343.262 293.823C343.235 294.096 343.107 294.35 342.902 294.533C342.698 294.717 342.433 294.818 342.158 294.817Z" fill="#5CADF8"/>
<path opacity="0.2" d="M335.148 279.203H310.722C310.518 279.206 310.317 279.165 310.13 279.084C309.943 279.003 309.776 278.883 309.639 278.733C309.501 278.583 309.397 278.405 309.334 278.212C309.27 278.019 309.248 277.814 309.268 277.612C309.313 277.184 309.513 276.787 309.829 276.495C310.146 276.204 310.558 276.038 310.989 276.029H335.415C335.617 276.027 335.818 276.068 336.004 276.148C336.19 276.229 336.357 276.347 336.494 276.497C336.631 276.646 336.735 276.822 336.8 277.014C336.864 277.207 336.888 277.41 336.868 277.612C336.826 278.042 336.627 278.441 336.31 278.734C335.993 279.027 335.58 279.194 335.148 279.203Z" fill="#132043"/>
<path opacity="0.2" d="M325.046 284.465H310.326C310.124 284.467 309.923 284.427 309.737 284.346C309.551 284.266 309.384 284.147 309.247 283.998C309.11 283.849 309.006 283.672 308.941 283.48C308.877 283.288 308.853 283.084 308.873 282.883C308.915 282.453 309.114 282.054 309.431 281.76C309.748 281.467 310.161 281.3 310.593 281.291H325.359C325.563 281.289 325.764 281.329 325.951 281.41C326.138 281.492 326.305 281.611 326.442 281.761C326.58 281.912 326.684 282.089 326.747 282.282C326.811 282.476 326.834 282.68 326.813 282.883C326.767 283.319 326.561 283.722 326.235 284.014C325.908 284.307 325.485 284.467 325.046 284.465Z" fill="#132043"/>
<path opacity="0.5" d="M296.601 334.459H286.858C286.588 334.463 286.32 334.409 286.072 334.302C285.824 334.196 285.602 334.037 285.419 333.839C285.237 333.64 285.098 333.404 285.013 333.148C284.928 332.892 284.899 332.62 284.926 332.352L285.745 322.609C285.805 322.039 286.071 321.511 286.492 321.123C286.914 320.735 287.463 320.515 288.035 320.502H297.769C298.039 320.498 298.307 320.551 298.555 320.658C298.803 320.765 299.025 320.923 299.208 321.122C299.39 321.321 299.528 321.557 299.613 321.813C299.698 322.069 299.728 322.34 299.701 322.609L298.919 332.352C298.862 332.928 298.593 333.462 298.165 333.851C297.737 334.24 297.179 334.457 296.601 334.459Z" fill="#5CADF8"/>
<path opacity="0.5" d="M338.211 342.049H285.118C284.99 342.05 284.863 342.023 284.746 341.972C284.628 341.921 284.523 341.845 284.436 341.751C284.35 341.657 284.284 341.545 284.243 341.424C284.202 341.303 284.187 341.174 284.198 341.046C284.227 340.779 284.352 340.53 284.55 340.348C284.748 340.165 285.005 340.06 285.274 340.053H338.377C338.504 340.052 338.63 340.078 338.747 340.129C338.864 340.18 338.968 340.254 339.055 340.348C339.141 340.441 339.208 340.551 339.249 340.672C339.291 340.792 339.307 340.919 339.297 341.046C339.27 341.317 339.145 341.569 338.944 341.754C338.744 341.939 338.484 342.044 338.211 342.049Z" fill="#5CADF8"/>
<path opacity="0.2" d="M331.183 326.436H306.757C306.554 326.438 306.352 326.397 306.165 326.316C305.978 326.235 305.811 326.116 305.674 325.966C305.537 325.815 305.433 325.638 305.369 325.444C305.305 325.251 305.283 325.047 305.303 324.844C305.348 324.416 305.548 324.019 305.864 323.728C306.181 323.436 306.594 323.271 307.024 323.262H331.45C331.652 323.26 331.853 323.3 332.039 323.381C332.225 323.461 332.392 323.58 332.529 323.729C332.666 323.878 332.771 324.055 332.835 324.247C332.9 324.439 332.923 324.642 332.903 324.844C332.861 325.274 332.662 325.673 332.345 325.966C332.028 326.26 331.615 326.427 331.183 326.436Z" fill="#132043"/>
<path opacity="0.2" d="M321.08 331.698H306.278C306.075 331.7 305.874 331.659 305.688 331.579C305.502 331.498 305.335 331.38 305.198 331.23C305.061 331.081 304.957 330.905 304.892 330.713C304.828 330.52 304.805 330.317 304.824 330.115C304.867 329.685 305.065 329.286 305.382 328.993C305.699 328.7 306.113 328.533 306.544 328.524H321.31C321.514 328.521 321.716 328.562 321.902 328.643C322.089 328.724 322.256 328.843 322.394 328.994C322.531 329.144 322.635 329.322 322.699 329.515C322.762 329.708 322.785 329.913 322.764 330.115C322.72 330.537 322.526 330.929 322.217 331.22C321.908 331.51 321.504 331.68 321.08 331.698Z" fill="#132043"/>
<path d="M317.253 346.649H336.472C336.773 346.645 337.071 346.704 337.347 346.823C337.623 346.942 337.87 347.118 338.074 347.34C338.277 347.561 338.431 347.823 338.526 348.108C338.621 348.393 338.655 348.696 338.625 348.995L338.33 352.426C338.269 353.063 337.976 353.656 337.506 354.09C337.036 354.525 336.422 354.771 335.782 354.781H316.572C316.271 354.786 315.972 354.726 315.695 354.606C315.419 354.487 315.171 354.31 314.967 354.087C314.764 353.865 314.61 353.602 314.515 353.315C314.421 353.029 314.388 352.726 314.42 352.426L314.705 348.995C314.772 348.361 315.067 347.773 315.537 347.341C316.006 346.909 316.616 346.663 317.253 346.649Z" fill="#5CADF8"/>
<path d="M318.754 351.783H317.631L317.429 352.308H316.398L317.87 349.115H318.956L319.876 352.308H318.846L318.754 351.783ZM318.606 351.093L318.358 349.943L317.907 351.093H318.606Z" fill="#F2F7FA"/>
<path d="M322.378 351L323.225 351.267C323.156 351.49 323.043 351.696 322.893 351.874C322.757 352.032 322.588 352.158 322.397 352.242C322.168 352.33 321.924 352.37 321.679 352.362C321.393 352.375 321.107 352.325 320.842 352.215C320.614 352.099 320.43 351.911 320.317 351.681C320.17 351.379 320.116 351.039 320.161 350.706C320.177 350.247 320.364 349.81 320.685 349.482C321.026 349.188 321.468 349.036 321.918 349.059C322.242 349.041 322.564 349.124 322.838 349.298C323.074 349.488 323.233 349.756 323.289 350.053L322.369 350.246C322.356 350.172 322.331 350.1 322.295 350.034C322.251 349.961 322.187 349.9 322.111 349.86C322.03 349.815 321.938 349.793 321.845 349.795C321.739 349.794 321.634 349.818 321.539 349.866C321.445 349.914 321.363 349.984 321.302 350.071C321.185 350.259 321.122 350.475 321.118 350.697C321.068 350.943 321.103 351.2 321.219 351.424C321.267 351.492 321.332 351.547 321.408 351.583C321.484 351.618 321.568 351.633 321.651 351.626C321.733 351.631 321.814 351.619 321.89 351.591C321.966 351.562 322.036 351.518 322.093 351.46C322.232 351.339 322.331 351.179 322.378 351Z" fill="#F2F7FA"/>
<path d="M325.856 351.001L326.702 351.267C326.63 351.488 326.517 351.694 326.371 351.875C326.235 352.033 326.065 352.158 325.874 352.243C325.645 352.33 325.401 352.37 325.157 352.362C324.87 352.375 324.584 352.325 324.319 352.215C324.091 352.099 323.907 351.911 323.795 351.681C323.648 351.379 323.593 351.04 323.639 350.706C323.655 350.247 323.842 349.811 324.163 349.483C324.503 349.186 324.945 349.034 325.396 349.059C325.72 349.041 326.042 349.125 326.316 349.299C326.551 349.488 326.711 349.756 326.767 350.053L325.847 350.246C325.834 350.172 325.809 350.101 325.773 350.035C325.725 349.96 325.658 349.9 325.58 349.86C325.502 349.815 325.412 349.793 325.322 349.795C325.216 349.793 325.111 349.817 325.016 349.865C324.921 349.913 324.84 349.984 324.779 350.071C324.659 350.258 324.595 350.475 324.595 350.697C324.544 350.943 324.576 351.199 324.687 351.424C324.738 351.492 324.805 351.546 324.882 351.581C324.96 351.617 325.044 351.632 325.129 351.626C325.213 351.636 325.299 351.628 325.379 351.603C325.46 351.578 325.535 351.535 325.598 351.479C325.722 351.343 325.81 351.179 325.856 351.001Z" fill="#F2F7FA"/>
<path d="M327.365 349.115H330.014L329.95 349.796H328.294L328.248 350.302H329.794L329.729 350.955H328.193L328.138 351.59H329.849L329.784 352.308H327.089L327.365 349.115Z" fill="#F2F7FA"/>
<path d="M330.585 349.116H332.232C332.373 349.103 332.515 349.119 332.65 349.163C332.784 349.207 332.908 349.279 333.014 349.373C333.1 349.471 333.163 349.588 333.198 349.714C333.234 349.839 333.24 349.972 333.216 350.1C333.21 350.243 333.175 350.384 333.113 350.514C333.051 350.643 332.964 350.759 332.857 350.855C332.595 351.056 332.267 351.151 331.937 351.121H331.395L331.293 352.308H330.3L330.585 349.116ZM331.505 350.477H331.744C331.887 350.489 332.029 350.453 332.149 350.376C332.187 350.347 332.218 350.311 332.242 350.27C332.266 350.229 332.281 350.184 332.287 350.137C332.293 350.09 332.289 350.042 332.277 349.996C332.264 349.95 332.243 349.908 332.213 349.87C332.163 349.827 332.104 349.795 332.041 349.776C331.978 349.757 331.911 349.752 331.845 349.76H331.56L331.505 350.477Z" fill="#F2F7FA"/>
<path d="M333.593 349.115H336.638L336.565 349.906H335.562L335.35 352.308H334.366L334.568 349.906H333.565L333.593 349.115Z" fill="#F2F7FA"/>
<path opacity="0.5" d="M292.635 381.691H282.892C282.622 381.694 282.354 381.639 282.106 381.531C281.858 381.423 281.635 381.264 281.453 381.065C281.271 380.865 281.133 380.629 281.048 380.372C280.963 380.116 280.933 379.844 280.96 379.575L281.779 369.841C281.839 369.272 282.105 368.743 282.527 368.356C282.948 367.968 283.497 367.747 284.07 367.735H293.803C294.073 367.731 294.341 367.784 294.589 367.891C294.837 367.998 295.059 368.156 295.242 368.355C295.424 368.554 295.562 368.789 295.648 369.045C295.733 369.301 295.762 369.573 295.735 369.841L294.916 379.575C294.858 380.145 294.595 380.674 294.175 381.063C293.755 381.453 293.207 381.676 292.635 381.691Z" fill="#5CADF8"/>
<path opacity="0.25" d="M334.247 389.282H281.144C281.016 389.282 280.89 389.256 280.772 389.205C280.655 389.153 280.549 389.078 280.463 388.984C280.376 388.889 280.31 388.778 280.269 388.656C280.228 388.535 280.213 388.406 280.224 388.279C280.253 388.011 280.378 387.763 280.576 387.58C280.774 387.397 281.032 387.293 281.301 387.285H334.403C334.531 387.285 334.656 387.311 334.773 387.362C334.89 387.412 334.995 387.487 335.081 387.58C335.168 387.673 335.234 387.784 335.276 387.904C335.317 388.024 335.333 388.152 335.323 388.279C335.297 388.548 335.172 388.799 334.974 388.983C334.776 389.168 334.518 389.274 334.247 389.282Z" fill="#5CADF8"/>
<path opacity="0.2" d="M327.217 373.661H302.791C302.588 373.665 302.387 373.625 302.2 373.545C302.013 373.465 301.846 373.347 301.708 373.197C301.571 373.047 301.467 372.87 301.403 372.678C301.339 372.485 301.317 372.281 301.338 372.079C301.38 371.651 301.578 371.255 301.893 370.963C302.208 370.671 302.62 370.505 303.049 370.496H327.484C327.687 370.493 327.889 370.532 328.075 370.612C328.262 370.692 328.43 370.811 328.567 370.96C328.704 371.11 328.809 371.287 328.872 371.48C328.936 371.673 328.959 371.877 328.938 372.079C328.895 372.508 328.696 372.906 328.379 373.197C328.062 373.489 327.648 373.654 327.217 373.661Z" fill="#132043"/>
<path opacity="0.2" d="M317.116 378.932H302.396C302.192 378.934 301.99 378.894 301.804 378.813C301.617 378.731 301.45 378.612 301.312 378.462C301.175 378.311 301.071 378.134 301.007 377.941C300.944 377.747 300.921 377.543 300.942 377.34C300.987 376.914 301.185 376.518 301.5 376.227C301.815 375.936 302.225 375.769 302.653 375.758H317.428C317.631 375.756 317.832 375.796 318.018 375.877C318.204 375.957 318.371 376.076 318.508 376.225C318.645 376.374 318.749 376.551 318.814 376.743C318.878 376.935 318.901 377.139 318.882 377.34C318.839 377.778 318.633 378.183 318.307 378.478C317.98 378.772 317.555 378.934 317.116 378.932Z" fill="#132043"/>
<path d="M82.6653 260.051C82.7573 265.571 83.0517 275.268 80.1445 278.672C86.8244 280.856 92.8161 284.751 97.5233 289.969C101.507 283.456 96.3181 279.96 96.3181 279.96C90.5773 278.12 91.7181 274.513 92.9049 270.539L82.6653 260.051Z" fill="#B55B52"/>
<path d="M77.6602 288.578L74.2746 295.092L70.935 301.615C69.8494 303.795 68.7822 305.966 67.7978 308.11C67.3102 309.186 66.8778 310.253 66.4546 311.284C66.0878 312.158 65.7805 313.055 65.5346 313.97V312.507C65.6506 313.834 65.894 315.147 66.2614 316.427C66.665 317.846 67.1504 319.24 67.715 320.603C68.2854 322.011 68.9386 323.419 69.6378 324.826C70.337 326.234 71.119 327.678 71.8182 328.994L71.9194 329.169C72.2204 329.723 72.3184 330.365 72.1964 330.983C72.0744 331.602 71.7401 332.159 71.2512 332.557C70.7623 332.955 70.1496 333.17 69.519 333.165C68.8884 333.159 68.2796 332.933 67.7978 332.527C66.4167 331.372 65.125 330.114 63.9338 328.764C62.7467 327.422 61.6466 326.005 60.6402 324.523C59.5893 322.981 58.6662 321.357 57.8802 319.665C57.0222 317.854 56.3799 315.949 55.9666 313.989C55.8979 313.593 55.8979 313.188 55.9666 312.793V312.526C56.1703 310.992 56.5027 309.478 56.9602 307.999C57.365 306.665 57.825 305.414 58.2942 304.172C59.2142 301.707 60.2354 299.342 61.2934 297.015C62.3514 294.687 63.4554 292.415 64.5962 290.124C65.737 287.833 66.9146 285.634 68.2026 283.389C68.9134 282.184 70.0643 281.302 71.4129 280.928C72.7614 280.555 74.2022 280.719 75.4318 281.387C76.6615 282.055 77.5838 283.174 78.0046 284.509C78.4255 285.843 78.3119 287.289 77.6878 288.541L77.6602 288.578Z" fill="#B55B52"/>
<path d="M75.1019 330.928L73.8507 330.137L70.2995 327.855L67.7695 331.627C68.6895 335.307 72.3695 337.065 72.3695 337.065L73.7771 337.387C74.2647 337.512 74.7817 337.446 75.2227 337.204C75.6637 336.961 75.9956 336.559 76.1507 336.08L76.5555 334.995C76.786 334.251 76.7689 333.452 76.5068 332.719C76.2447 331.986 75.7517 331.357 75.1019 330.928Z" fill="#B55B52"/>
<path d="M145.768 314.764L162.429 305.186C162.689 305.033 162.978 304.937 163.277 304.904C163.576 304.87 163.879 304.901 164.166 304.993C164.453 305.085 164.717 305.237 164.941 305.438C165.165 305.64 165.344 305.886 165.465 306.162L166.91 309.28C167.172 309.864 167.211 310.524 167.02 311.134C166.828 311.744 166.419 312.263 165.87 312.592L149.209 322.16C148.953 322.315 148.667 322.414 148.371 322.451C148.074 322.489 147.772 322.463 147.486 322.376C147.2 322.29 146.935 322.144 146.709 321.948C146.483 321.752 146.3 321.511 146.173 321.24L144.729 318.122C144.453 317.533 144.407 316.863 144.599 316.242C144.792 315.621 145.208 315.094 145.768 314.764Z" fill="#5CADF8"/>
<path d="M149.632 318.461L148.657 319.022L148.74 319.583L147.866 320.089L147.553 316.575L148.473 316.041L150.865 318.35L149.945 318.865L149.632 318.461ZM149.154 317.936L148.362 317.071L148.546 318.286L149.154 317.936Z" fill="#F2F7FA"/>
<path d="M152.383 315.986L153.247 315.792C153.288 316.021 153.288 316.254 153.247 316.482C153.205 316.685 153.12 316.876 152.999 317.044C152.845 317.236 152.654 317.395 152.438 317.513C152.193 317.667 151.916 317.764 151.628 317.798C151.373 317.811 151.121 317.74 150.911 317.596C150.633 317.409 150.418 317.143 150.294 316.832C150.078 316.425 150.022 315.953 150.138 315.507C150.293 315.086 150.598 314.735 150.993 314.523C151.265 314.341 151.588 314.254 151.913 314.274C152.209 314.324 152.478 314.474 152.677 314.698L152.005 315.314C151.953 315.258 151.895 315.209 151.831 315.167C151.756 315.123 151.669 315.103 151.582 315.112C151.491 315.113 151.403 315.139 151.325 315.185C151.229 315.233 151.148 315.305 151.089 315.394C151.029 315.482 150.993 315.585 150.984 315.691C150.98 315.913 151.034 316.132 151.141 316.326C151.219 316.565 151.375 316.772 151.582 316.915C151.66 316.946 151.744 316.958 151.827 316.95C151.91 316.942 151.99 316.914 152.061 316.869C152.205 316.793 152.314 316.664 152.364 316.51C152.416 316.34 152.422 316.159 152.383 315.986Z" fill="#F2F7FA"/>
<path d="M155.4 314.248L156.265 314.055C156.315 314.282 156.315 314.517 156.265 314.745C156.23 314.952 156.145 315.148 156.017 315.315C155.863 315.508 155.672 315.667 155.455 315.784C155.213 315.938 154.94 316.035 154.655 316.07C154.4 316.083 154.148 316.012 153.937 315.867C153.654 315.68 153.436 315.41 153.312 315.094C153.096 314.691 153.043 314.22 153.165 313.779C153.309 313.351 153.617 312.998 154.02 312.794C154.291 312.613 154.614 312.525 154.94 312.546C155.236 312.594 155.506 312.744 155.704 312.969L155.023 313.586C154.977 313.523 154.917 313.473 154.848 313.438C154.774 313.392 154.686 313.373 154.6 313.383C154.509 313.386 154.421 313.411 154.342 313.457C154.249 313.507 154.17 313.579 154.112 313.668C154.055 313.756 154.02 313.858 154.011 313.963C154.018 314.198 154.074 314.428 154.178 314.639C154.281 314.85 154.428 315.037 154.609 315.186C154.687 315.217 154.771 315.228 154.854 315.22C154.937 315.212 155.017 315.185 155.087 315.14C155.231 315.065 155.34 314.936 155.391 314.782C155.439 314.607 155.442 314.424 155.4 314.248Z" fill="#F2F7FA"/>
<path d="M155.759 311.866L158.059 310.541L158.344 311.167L156.909 311.995L157.12 312.455L158.454 311.691L158.73 312.28L157.396 313.043L157.663 313.623L159.144 312.767L159.448 313.43L157.111 314.773L155.759 311.866Z" fill="#F2F7FA"/>
<path d="M158.557 310.256L159.983 309.437C160.098 309.358 160.229 309.302 160.366 309.274C160.504 309.245 160.645 309.245 160.783 309.272C160.907 309.312 161.021 309.381 161.115 309.471C161.209 309.562 161.281 309.673 161.326 309.796C161.392 309.924 161.432 310.064 161.443 310.208C161.454 310.352 161.436 310.496 161.39 310.633C161.265 310.936 161.033 311.182 160.737 311.323L160.268 311.59L160.774 312.676L159.909 313.172L158.557 310.256ZM160.001 311.001L160.213 310.882C160.342 310.822 160.449 310.722 160.516 310.596C160.537 310.55 160.547 310.5 160.547 310.449C160.547 310.398 160.537 310.348 160.516 310.302C160.476 310.219 160.408 310.154 160.323 310.118C160.257 310.108 160.19 310.111 160.125 310.126C160.061 310.142 160 310.17 159.946 310.21L159.707 310.357L160.001 311.001Z" fill="#F2F7FA"/>
<path d="M161.159 308.754L163.772 307.264L164.103 307.981L163.183 308.478L164.204 310.677L163.349 311.164L162.328 308.975L161.408 309.472L161.159 308.754Z" fill="#F2F7FA"/>
<path d="M140.414 316.272L137.654 317.523C137.113 317.763 136.689 318.207 136.473 318.758C136.258 319.309 136.269 319.924 136.504 320.467L137.489 322.776C137.612 323.053 137.799 323.297 138.034 323.489C138.268 323.68 138.545 323.814 138.841 323.88C141.196 324.368 144.591 323.015 147.029 321.792C147.428 321.597 147.781 321.319 148.064 320.977C148.347 320.635 148.555 320.237 148.672 319.809C148.79 319.381 148.815 318.932 148.745 318.494C148.676 318.055 148.515 317.636 148.271 317.265L147.204 315.628C146.751 314.947 146.051 314.47 145.252 314.299C144.453 314.127 143.618 314.274 142.926 314.708L140.414 316.272Z" fill="#B55B52"/>
<path d="M72.923 279.113C68.0838 281.257 63.6586 286.363 60.043 295.802C61.2114 299.693 73.1714 306.078 73.1714 306.078C73.1714 306.078 88.0938 274.421 72.923 279.113Z" fill="#132043"/>
<path d="M112.868 291.201C112.822 294.716 118.628 302.839 111.948 307.55C111.369 314.643 110.578 321.626 109.06 333.264H73.3267C76.7215 320.384 73.7867 311.727 68.3403 289.104C68.0309 287.887 67.9878 286.618 68.214 285.383C68.4402 284.148 68.9304 282.976 69.651 281.948C70.3716 280.92 71.3057 280.06 72.3895 279.426C73.4732 278.792 74.681 278.4 75.9303 278.275C77.3471 278.128 78.8559 278.009 80.4015 277.935C85.8013 277.553 91.2214 277.553 96.6211 277.935C98.3783 278.101 100.191 278.321 101.93 278.561C104.969 278.997 107.75 280.516 109.759 282.838C111.769 285.161 112.873 288.13 112.868 291.201Z" fill="#132043"/>
<path d="M96.7588 276.822C88.5248 274.724 70.8884 274.982 67.6776 277.457C64.4668 279.931 71.2196 284.163 71.606 284.504C69.2784 285.801 71.606 292.517 81.2752 294.366C90.9444 296.215 93.0788 284.246 95.8756 281.735C97.3016 280.456 98.0836 278.478 96.7588 276.822Z" fill="#5CADF8"/>
<path opacity="0.2" d="M72.9229 284.218C77.7621 284.88 88.1029 282.58 91.6265 281.504C87.1185 283.914 75.5909 288.303 72.9229 284.218Z" fill="black"/>
<path d="M111.765 286.942C112.262 289.399 112.75 291.975 113.302 294.477C113.854 296.979 114.387 299.509 114.967 301.984C115.547 304.459 116.191 306.915 116.89 309.271C117.239 310.448 117.635 311.598 118.021 312.675C118.369 313.651 118.787 314.602 119.273 315.517L117.433 313.852C117.433 313.852 117.497 313.852 117.525 313.907C117.552 313.963 117.782 314.009 117.911 314.073L119.079 314.423C119.935 314.662 120.919 314.864 121.839 315.057C123.771 315.425 125.786 315.784 127.81 316.097L133.947 317.063C135.989 317.413 138.068 317.716 140.111 318.084C140.747 318.2 141.32 318.539 141.728 319.041C142.135 319.543 142.349 320.174 142.331 320.82C142.314 321.466 142.065 322.085 141.631 322.563C141.196 323.042 140.605 323.349 139.963 323.429C137.82 323.696 135.713 323.834 133.579 323.991C131.444 324.147 129.319 324.184 127.139 324.202C124.958 324.221 122.833 324.202 120.616 324.027C119.503 323.945 118.38 323.853 117.184 323.678C116.577 323.595 115.961 323.485 115.28 323.328C114.921 323.227 114.608 323.163 114.176 323.015C113.961 322.953 113.749 322.879 113.541 322.795L112.787 322.454C112.133 322.148 111.574 321.671 111.167 321.074L110.983 320.789C110.106 319.446 109.334 318.038 108.674 316.575C108.049 315.223 107.543 313.889 107.046 312.573C106.071 309.924 105.261 307.302 104.534 304.671C103.807 302.039 103.163 299.417 102.575 296.786C101.986 294.155 101.471 291.542 101.047 288.801C100.824 287.405 101.157 285.978 101.974 284.825C102.791 283.672 104.028 282.885 105.418 282.633C106.809 282.382 108.243 282.685 109.412 283.479C110.582 284.272 111.393 285.493 111.673 286.878L111.765 286.942Z" fill="#B55B52"/>
<path d="M104.976 279.372C109.382 281.561 113.752 285.812 115.565 295.545C114.424 299.4 98.6736 306.824 98.6736 306.824C98.6736 306.824 89.906 273.741 104.976 279.372Z" fill="#132043"/>
<path d="M104.349 255.8C104.266 256.499 104.569 257.125 105.029 257.189C105.489 257.254 105.949 256.757 106.023 256.058C106.097 255.359 105.802 254.733 105.342 254.659C104.882 254.586 104.441 255.101 104.349 255.8Z" fill="#132043"/>
<path d="M105.141 254.668L106.889 254.447C106.889 254.447 105.858 255.625 105.141 254.668Z" fill="#132043"/>
<path d="M104.552 256.564C104.981 258.264 105.637 259.898 106.502 261.422C106.106 261.621 105.67 261.73 105.227 261.743C104.784 261.755 104.343 261.671 103.936 261.496L104.552 256.564Z" fill="#A02724"/>
<path d="M105.987 250.98C106.091 250.978 106.191 250.935 106.263 250.86C106.34 250.781 106.382 250.676 106.382 250.566C106.382 250.456 106.34 250.351 106.263 250.272C105.79 249.791 105.21 249.431 104.57 249.219C103.93 249.008 103.249 248.953 102.583 249.057C102.53 249.069 102.48 249.091 102.436 249.123C102.392 249.155 102.354 249.195 102.326 249.241C102.298 249.288 102.279 249.339 102.271 249.393C102.263 249.447 102.266 249.501 102.28 249.554C102.306 249.662 102.374 249.756 102.468 249.814C102.563 249.873 102.677 249.892 102.786 249.867C103.31 249.797 103.843 249.851 104.343 250.023C104.843 250.196 105.295 250.482 105.665 250.86C105.707 250.903 105.757 250.935 105.813 250.956C105.869 250.977 105.928 250.985 105.987 250.98Z" fill="#132043"/>
<path d="M81.3309 249.884C80.7697 258.559 80.3557 262.212 84.0909 267.299C89.7121 274.935 100.356 274.015 103.411 265.744C106.171 258.302 106.64 245.366 98.7557 240.647C97.0596 239.598 95.1186 239.012 93.1257 238.946C91.1328 238.88 89.1572 239.336 87.3954 240.27C85.6336 241.204 84.1469 242.583 83.083 244.269C82.0191 245.956 81.415 247.891 81.3309 249.884Z" fill="#B55B52"/>
<path d="M98.3597 257.714C104.266 255.414 103.484 248.826 100.42 246.214C106.41 248.67 110.54 246.756 106.014 240.234C101.488 233.711 76.7213 232.34 80.1437 242.46C69.1037 238.909 72.3421 253.601 72.9217 263.234C64.9361 271.284 84.8081 278.266 97.3753 274.2C109.942 270.134 98.3597 257.714 98.3597 257.714Z" fill="#132043"/>
<path d="M96.0971 256.499C96.7871 258.707 97.0172 259.654 98.3604 260.712C100.366 262.304 102.712 261.448 102.648 259.194C102.592 257.161 101.479 253.895 99.2252 253.168C96.9712 252.442 95.4071 254.291 96.0971 256.499Z" fill="#B55B52"/>
<path d="M109.051 333.264C109.051 333.264 110.312 379.383 111.995 409.734C113.78 437.573 116.071 502.7 116.071 502.7L109.042 503.068C109.042 503.068 93.4663 448.273 94.1287 415.162C75.8483 368.849 82.4171 334.653 82.4171 334.653L109.051 333.264Z" fill="#B55B52"/>
<path d="M115.546 499.793C115.702 499.68 115.891 499.619 116.084 499.619C116.277 499.619 116.465 499.68 116.622 499.793C119.999 502.309 124.095 503.673 128.306 503.685C132.98 503.887 131.82 506.445 125.132 507.291C117.275 508.275 115.582 509.885 113.043 510.529C110.504 511.173 108.443 509.232 108.535 503.896C108.54 503.713 108.6 503.535 108.706 503.386C108.813 503.237 108.961 503.123 109.133 503.059C111.389 502.221 113.541 501.125 115.546 499.793Z" fill="#132043"/>
<path d="M99.7125 333.264C99.7125 333.264 86.8325 387.847 79.3713 413.248C71.5237 439.928 65.3137 500.814 65.3505 502.838H59.2693C59.2693 502.838 51.4033 453.489 61.1093 413.23C62.0293 347.91 73.2901 333.264 73.2901 333.264H99.7125Z" fill="#B55B52"/>
<path d="M65.5166 500.63C65.6756 500.562 65.8527 500.55 66.0194 500.595C66.1862 500.64 66.3331 500.74 66.4366 500.878C68.0098 502.911 69.1966 505.174 73.7966 507.162C77.633 508.808 75.517 511.053 69.491 510.225C62.4162 509.259 62.3242 510.409 59.9322 510.409C57.5402 510.409 56.427 508.036 58.1658 502.874C58.2224 502.703 58.324 502.551 58.46 502.432C58.596 502.314 58.7613 502.235 58.9386 502.203C61.1872 501.949 63.3963 501.42 65.5166 500.63Z" fill="#132043"/>
<path d="M58.9018 400.756C58.1842 407.499 56.8594 422.118 56.8594 422.118C56.8594 422.118 78.0194 426.461 115.114 424.28C114.921 419.827 114.884 413.387 114.884 413.387L58.9018 400.756Z" fill="#132043"/>
<path d="M109.05 333.078C114.192 362.801 116.542 392.939 116.07 423.1C95.9984 422.923 75.984 420.937 56.2695 417.166C56.2695 417.166 57.3551 353.999 73.3263 333.087C82.5539 330.907 108.838 332.369 109.05 333.078Z" fill="#5CADF8"/>
<path opacity="0.2" d="M71.8271 358.223C82.5635 366.355 90.7055 367.892 90.7055 367.892C90.7055 367.892 81.9195 371.001 71.8271 358.223Z" fill="black"/>
<path d="M314.431 493.565H314.376C314.346 493.56 314.319 493.548 314.294 493.532C314.269 493.515 314.248 493.494 314.231 493.469C314.215 493.444 314.204 493.416 314.199 493.387C314.193 493.357 314.194 493.327 314.201 493.298C318.976 470.915 316.74 449.672 307.568 430.14C301.935 417.996 293.799 407.18 283.694 398.4C283.672 398.38 283.654 398.355 283.642 398.327C283.63 398.299 283.624 398.27 283.624 398.239C283.624 398.209 283.63 398.179 283.642 398.152C283.654 398.124 283.672 398.099 283.694 398.078C283.738 398.036 283.798 398.012 283.859 398.012C283.921 398.012 283.98 398.036 284.025 398.078C294.177 406.89 302.353 417.747 308.019 429.938C317.219 449.552 319.482 470.906 314.689 493.418C314.67 493.469 314.634 493.512 314.587 493.539C314.539 493.566 314.484 493.575 314.431 493.565Z" fill="#132043"/>
<path d="M323.034 451.643C321.503 454.951 319.165 457.82 316.235 459.987C315.738 456.363 316.247 452.672 317.707 449.317C319.168 445.963 321.523 443.076 324.515 440.971C324.926 444.596 324.417 448.266 323.034 451.643Z" fill="#132043"/>
<path d="M301.606 423.82C304.595 425.905 307.012 428.708 308.635 431.971C304.978 431.829 301.431 430.681 298.385 428.654C295.338 426.626 292.91 423.798 291.366 420.48C295.006 420.713 298.528 421.862 301.606 423.82Z" fill="#132043"/>
<path d="M297.999 401.024C298.491 404.634 298.067 408.31 296.766 411.714C294.396 408.93 292.836 405.549 292.257 401.939C291.678 398.329 292.101 394.63 293.482 391.244C295.785 394.073 297.338 397.436 297.999 401.024Z" fill="#5CADF8"/>
<path d="M285.617 398.062C285.657 398.414 285.591 398.771 285.428 399.087C285.265 399.402 285.012 399.662 284.701 399.833C284.39 400.005 284.035 400.08 283.681 400.05C283.327 400.02 282.991 399.885 282.713 399.663C282.436 399.442 282.231 399.143 282.124 398.804C282.017 398.466 282.012 398.103 282.111 397.762C282.21 397.421 282.408 397.117 282.68 396.889C282.952 396.66 283.286 396.518 283.639 396.479C284.108 396.439 284.575 396.581 284.943 396.876C285.311 397.17 285.552 397.595 285.617 398.062Z" fill="#5CADF8"/>
<path d="M319.831 488.996C319.786 488.996 319.742 488.983 319.705 488.958C319.667 488.934 319.638 488.899 319.62 488.858C311.882 470.458 310.328 451.855 315.02 433.603C317.879 422.277 323.099 411.683 330.338 402.516C330.359 402.493 330.385 402.476 330.413 402.464C330.442 402.452 330.472 402.445 330.503 402.445C330.534 402.445 330.565 402.452 330.593 402.464C330.622 402.476 330.647 402.493 330.669 402.516C330.711 402.559 330.735 402.616 330.735 402.677C330.735 402.737 330.711 402.795 330.669 402.838C323.487 411.948 318.311 422.472 315.48 433.722C310.824 451.865 312.361 470.356 320.08 488.674C320.092 488.702 320.098 488.732 320.098 488.763C320.098 488.794 320.091 488.824 320.079 488.853C320.067 488.881 320.05 488.907 320.028 488.928C320.006 488.949 319.979 488.966 319.951 488.977L319.831 488.996Z" fill="#132043"/>
<path d="M309.307 469.13C310.763 470.655 312.579 471.787 314.588 472.424C314.185 470.347 313.217 468.42 311.79 466.857C310.363 465.294 308.533 464.155 306.501 463.564C306.954 465.626 307.919 467.54 309.307 469.13Z" fill="#5CADF8"/>
<path d="M315.995 434.577C314.705 436.562 313.936 438.84 313.76 441.201C315.923 440.221 317.775 438.665 319.114 436.703C320.452 434.742 321.226 432.45 321.35 430.078C319.216 431.104 317.374 432.652 315.995 434.577Z" fill="#5CADF8"/>
<path d="M315.627 420.794C315.796 422.729 316.451 424.59 317.531 426.204C318.438 424.476 318.851 422.531 318.724 420.583C318.598 418.636 317.937 416.76 316.814 415.164C315.947 416.91 315.539 418.847 315.627 420.794Z" fill="#5CADF8"/>
<path d="M327.163 409.111C325.54 410.18 324.214 411.642 323.309 413.361C325.256 413.334 327.159 412.771 328.807 411.734C330.456 410.697 331.788 409.226 332.656 407.482C330.717 407.552 328.827 408.112 327.163 409.111Z" fill="#5CADF8"/>
<path d="M328.967 402.782C328.99 403.089 329.104 403.382 329.293 403.624C329.483 403.867 329.741 404.048 330.033 404.143C330.326 404.239 330.64 404.246 330.937 404.163C331.233 404.08 331.498 403.911 331.699 403.677C331.899 403.444 332.025 403.155 332.062 402.85C332.098 402.544 332.043 402.234 331.903 401.96C331.763 401.686 331.545 401.459 331.276 401.309C331.007 401.159 330.7 401.092 330.393 401.116C329.984 401.149 329.604 401.343 329.337 401.655C329.07 401.967 328.937 402.372 328.967 402.782Z" fill="#5CADF8"/>
<path d="M334.597 503.972L333.732 503.65C334.313 502.036 334.6 500.332 334.579 498.617H335.499C335.52 500.441 335.214 502.255 334.597 503.972Z" fill="#5CADF8"/>
<path d="M333.879 493.805C332.911 490.51 330.991 487.575 328.359 485.369L328.948 484.66C331.708 486.988 333.718 490.08 334.726 493.547L333.879 493.805Z" fill="#5CADF8"/>
<path d="M323.76 485.057L325.6 477.412H308.838L310.678 485.057C308.12 486.283 305.961 488.206 304.449 490.605C302.937 493.005 302.133 495.782 302.131 498.618C302.131 506.898 308.874 509.943 317.191 509.943C325.508 509.943 332.252 506.935 332.252 498.618C332.254 495.788 331.459 493.015 329.957 490.616C328.455 488.217 326.307 486.291 323.76 485.057Z" fill="#5CADF8"/>
</g>
</g>
<defs>
<filter id="filter0_d_45_13420" x="-17" y="-412.484" width="719" height="719" filterUnits="userSpaceOnUse" color-interpolation-filters="sRGB">
<feFlood flood-opacity="0" result="BackgroundImageFix"/>
<feColorMatrix in="SourceAlpha" type="matrix" values="0 0 0 0 0 0 0 0 0 0 0 0 0 0 0 0 0 0 127 0" result="hardAlpha"/>
<feOffset dy="4"/>
<feGaussianBlur stdDeviation="2"/>
<feComposite in2="hardAlpha" operator="out"/>
<feColorMatrix type="matrix" values="0 0 0 0 0 0 0 0 0 0 0 0 0 0 0 0 0 0 0.25 0"/>
<feBlend mode="normal" in2="BackgroundImageFix" result="effect1_dropShadow_45_13420"/>
<feBlend mode="normal" in="SourceGraphic" in2="effect1_dropShadow_45_13420" result="shape"/>
</filter>
<clipPath id="clip0_45_13420">
<rect width="375" height="630" fill="white" transform="translate(0 0.515625)"/>
</clipPath>
<clipPath id="clip1_45_13420">
<rect width="460" height="460" fill="white" transform="translate(-24 127)"/>
</clipPath>
</defs>
</svg>
