<svg width="375" height="487" viewBox="0 0 375 487" fill="none" xmlns="http://www.w3.org/2000/svg">
<g clip-path="url(#clip0_35_8300)">
<rect width="375" height="487" rx="16" fill="#F2F7FA"/>
<g clip-path="url(#clip1_35_8300)">
<path d="M418 365.809H-42V366.039H418V365.809Z" fill="#5CADF8" fill-opacity="0.5"/>
<path d="M371.909 380.609H347.777V380.839H371.909V380.609Z" fill="#5CADF8" fill-opacity="0.5"/>
<path d="M286.22 377.621H254.729V377.851H286.22V377.621Z" fill="#5CADF8" fill-opacity="0.5"/>
<path d="M340.508 372.074H316.184V372.304H340.508V372.074Z" fill="#5CADF8" fill-opacity="0.5"/>
<path d="M60.019 373.619H20.2842V373.849H60.019V373.619Z" fill="#5CADF8" fill-opacity="0.5"/>
<path d="M12.0873 373.619H6.26367V373.849H12.0873V373.619Z" fill="#5CADF8" fill-opacity="0.5"/>
<path d="M130.656 377.5H78.9521V377.73H130.656V377.5Z" fill="#5CADF8" fill-opacity="0.5"/>
<path d="M176.04 324.776H-1.60268C-2.99432 324.773 -4.32813 324.219 -5.31131 323.234C-6.29448 322.249 -6.84668 320.914 -6.84668 319.522V69.8068C-6.83457 68.4232 -6.27702 67.1001 -5.29515 66.1252C-4.31328 65.1502 -2.98639 64.602 -1.60268 64.5996H176.04C177.433 64.5996 178.77 65.1531 179.755 66.1382C180.74 67.1234 181.293 68.4596 181.293 69.8528V319.522C181.293 320.916 180.74 322.252 179.755 323.237C178.77 324.222 177.433 324.776 176.04 324.776ZM-1.60268 64.7836C-2.93332 64.786 -4.20863 65.3163 -5.14867 66.2581C-6.08872 67.1999 -6.61668 68.4762 -6.61668 69.8068V319.522C-6.61668 320.853 -6.08872 322.129 -5.14867 323.071C-4.20863 324.013 -2.93332 324.543 -1.60268 324.546H176.04C177.372 324.543 178.648 324.013 179.589 323.072C180.531 322.13 181.061 320.854 181.063 319.522V69.8068C181.061 68.4753 180.531 67.1991 179.589 66.2576C178.648 65.3161 177.372 64.786 176.04 64.7836H-1.60268Z" fill="#5CADF8" fill-opacity="0.5"/>
<path d="M375.046 324.776H197.394C196.001 324.773 194.667 324.219 193.682 323.234C192.697 322.25 192.143 320.915 192.141 319.522V69.8068C192.155 68.4223 192.715 67.0993 193.698 66.1246C194.681 65.1499 196.009 64.602 197.394 64.5996H375.046C376.428 64.6044 377.752 65.1537 378.732 66.1284C379.712 67.1031 380.269 68.4247 380.281 69.8068V319.522C380.281 320.912 379.73 322.246 378.749 323.23C377.767 324.215 376.436 324.771 375.046 324.776ZM197.394 64.7836C196.062 64.786 194.786 65.3161 193.845 66.2576C192.903 67.1991 192.373 68.4753 192.371 69.8068V319.522C192.373 320.854 192.903 322.13 193.845 323.072C194.786 324.013 196.062 324.543 197.394 324.546H375.046C376.377 324.543 377.654 324.013 378.595 323.072C379.537 322.13 380.067 320.854 380.069 319.522V69.8068C380.067 68.4753 379.537 67.1991 378.595 66.2576C377.654 65.3161 376.377 64.786 375.046 64.7836H197.394Z" fill="#5CADF8" fill-opacity="0.5"/>
<path d="M166.048 365.809H192.977V267.221H166.048V365.809Z" fill="#5CADF8" fill-opacity="0.5"/>
<path d="M172.406 365.807H166.049V347.738H179.067L172.406 365.807Z" fill="#5CADF8" fill-opacity="0.3"/>
<path d="M334.189 365.809H361.117V267.221H334.189V365.809Z" fill="#5CADF8" fill-opacity="0.5"/>
<path d="M166.049 356.912H339.727V267.221H166.049V356.912Z" fill="#5CADF8" fill-opacity="0.3"/>
<path d="M170.98 272.52H250.754V345.2H170.98V272.52Z" fill="#5CADF8" fill-opacity="0.5"/>
<path d="M255.021 272.52H334.795V345.2H255.021V272.52Z" fill="#5CADF8" fill-opacity="0.5"/>
<path d="M267.222 292.171C265.995 292.173 264.794 291.811 263.773 291.13C262.752 290.449 261.956 289.481 261.485 288.348C261.015 287.214 260.891 285.967 261.13 284.763C261.369 283.559 261.96 282.453 262.828 281.586C263.696 280.718 264.801 280.127 266.005 279.888C267.209 279.649 268.456 279.773 269.59 280.243C270.723 280.714 271.691 281.51 272.372 282.531C273.053 283.552 273.415 284.752 273.413 285.98C273.411 287.621 272.758 289.194 271.597 290.355C270.437 291.516 268.863 292.169 267.222 292.171ZM267.222 280.874C266.211 280.872 265.223 281.17 264.382 281.73C263.542 282.29 262.886 283.086 262.498 284.019C262.11 284.952 262.008 285.979 262.204 286.97C262.399 287.961 262.885 288.872 263.599 289.587C264.313 290.302 265.222 290.789 266.213 290.987C267.204 291.184 268.231 291.084 269.164 290.698C270.098 290.312 270.896 289.657 271.457 288.817C272.019 287.977 272.319 286.99 272.319 285.98C272.316 284.628 271.779 283.332 270.824 282.375C269.869 281.418 268.574 280.878 267.222 280.874Z" fill="#F2F7FA"/>
<path d="M238.601 292.171C237.373 292.173 236.173 291.811 235.152 291.13C234.131 290.449 233.335 289.481 232.864 288.348C232.394 287.214 232.27 285.967 232.509 284.763C232.748 283.559 233.339 282.453 234.207 281.586C235.075 280.718 236.18 280.127 237.384 279.888C238.588 279.649 239.835 279.773 240.969 280.243C242.102 280.714 243.07 281.51 243.751 282.531C244.432 283.552 244.794 284.752 244.792 285.98C244.79 287.621 244.137 289.194 242.976 290.355C241.815 291.516 240.242 292.169 238.601 292.171ZM238.601 280.874C237.59 280.872 236.602 281.17 235.761 281.73C234.921 282.29 234.265 283.086 233.877 284.019C233.489 284.952 233.386 285.979 233.582 286.97C233.778 287.961 234.264 288.872 234.978 289.587C235.691 290.302 236.601 290.789 237.592 290.987C238.583 291.184 239.61 291.084 240.543 290.698C241.477 290.312 242.275 289.657 242.836 288.817C243.398 287.977 243.697 286.99 243.697 285.98C243.695 284.628 243.158 283.332 242.202 282.375C241.247 281.418 239.952 280.878 238.601 280.874Z" fill="#F2F7FA"/>
<path d="M333.37 365.807H339.727V347.738H326.709L333.37 365.807Z" fill="#5CADF8" fill-opacity="0.3"/>
<path d="M315.743 253.852C317.298 252.334 315.651 250.255 317.739 248.792C319.828 247.329 318.034 245.112 318.117 243.06C318.199 241.009 320.923 240.696 321.705 238.322C321.929 237.168 321.709 235.972 321.088 234.973C320.816 234.422 320.414 233.944 319.917 233.582C319.419 233.22 318.842 232.983 318.233 232.893C317.625 232.803 317.003 232.861 316.422 233.063C315.841 233.265 315.318 233.605 314.897 234.053C314.812 234.147 314.732 234.246 314.657 234.348C313.103 236.418 314.657 238.414 312.9 239.813C311.143 241.211 308.061 241.496 308.162 243.824C308.263 246.151 305.917 246.354 304.657 248.148C303.893 249.261 304.482 251.092 305.043 252.343C305.448 253.223 306.172 253.916 307.067 254.284C309.147 255.121 313.231 256.299 315.743 253.852Z" fill="#5CADF8" fill-opacity="0.5"/>
<path d="M319.201 259.353C321.841 258.24 320.811 254.919 324.077 254.128C327.343 253.336 326.211 249.767 327.278 247.301C328.345 244.836 331.878 245.756 333.948 243.226C335.245 241.671 334.868 238.699 334.454 236.657C334.299 235.94 333.912 235.295 333.353 234.821C332.794 234.347 332.095 234.071 331.363 234.035C329.928 233.919 328.491 234.24 327.241 234.955C324.353 236.749 325.254 239.923 322.467 240.797C319.679 241.671 315.751 240.53 314.757 243.428C313.763 246.326 310.792 245.443 308.4 247.044C306.679 248.184 306.744 251.423 306.919 253.171C306.988 253.922 307.313 254.626 307.839 255.167C309.715 257.072 314.564 261.313 319.201 259.353Z" fill="#5CADF8" fill-opacity="0.3"/>
<path d="M317.095 246.004C318.825 244.679 320.637 246.611 322.394 244.753C324.152 242.895 326.074 244.983 328.108 245.204C330.141 245.425 330.868 242.766 333.324 242.333C334.496 242.278 335.645 242.665 336.544 243.419C337.049 243.771 337.461 244.239 337.746 244.785C338.031 245.33 338.179 245.936 338.179 246.552C338.179 247.167 338.031 247.773 337.746 248.319C337.461 248.864 337.049 249.332 336.544 249.684L336.213 249.887C333.94 251.119 332.183 249.325 330.555 250.807C328.926 252.288 328.19 255.351 325.9 254.919C323.609 254.487 323.066 256.759 321.116 257.762C319.91 258.36 318.181 257.513 317.022 256.777C316.208 256.252 315.626 255.436 315.393 254.496C314.887 252.343 314.308 248.139 317.095 246.004Z" fill="#5CADF8" fill-opacity="0.5"/>
<path d="M298.4 248.764C298.4 248.764 298.943 267.21 319.947 267.21C340.95 267.21 341.493 248.764 341.493 248.764H298.4Z" fill="#5CADF8" fill-opacity="0.5"/>
<path d="M361.246 95.7969H211.203V179.59H361.246V95.7969Z" fill="#5CADF8" fill-opacity="0.5"/>
<path d="M359.81 95.7969H209.768V179.59H359.81V95.7969Z" fill="#5CADF8" fill-opacity="0.5"/>
<path d="M353.969 173.739V101.639L215.619 101.639V173.739H353.969Z" fill="#F2F7FA"/>
<path d="M217.127 173.739V101.639H215.6V173.739H217.127Z" fill="#5CADF8" fill-opacity="0.5"/>
<path d="M26.8887 346.332H147.639L147.639 83.0556H26.8887L26.8887 346.332Z" fill="#5CADF8" fill-opacity="0.5"/>
<path d="M22.2154 346.332H146.977L146.977 83.0556H22.2154L22.2154 346.332Z" fill="#5CADF8" fill-opacity="0.3"/>
<path d="M26.8887 350.684H147.639V346.341H26.8887V350.684Z" fill="#5CADF8" fill-opacity="0.5"/>
<path d="M14.4244 350.684H139.186V346.341H14.4244V350.684Z" fill="#5CADF8" fill-opacity="0.3"/>
<path d="M140.436 339.799L140.436 89.6055H28.7567L28.7567 339.799H140.436Z" fill="#F2F7FA"/>
<path d="M85.8518 339.799L75.373 89.6055H57.249L67.7278 339.799H85.8518Z" fill="#F2F7FA"/>
<path d="M137.399 161.514C137.533 161.514 137.662 161.461 137.757 161.366C137.852 161.271 137.905 161.142 137.905 161.008V93.8481C137.889 93.7268 137.829 93.6156 137.737 93.5351C137.644 93.4545 137.526 93.4102 137.404 93.4102C137.281 93.4102 137.163 93.4545 137.071 93.5351C136.979 93.6156 136.919 93.7268 136.902 93.8481V161.008C136.902 161.141 136.954 161.268 137.047 161.363C137.14 161.457 137.267 161.512 137.399 161.514Z" fill="#5CADF8" fill-opacity="0.3"/>
<path d="M63.8272 339.799L53.3576 89.6055H46.292L56.7616 339.799H63.8272Z" fill="#F2F7FA"/>
<path d="M29.585 339.79L29.585 89.5957H28.757L28.757 339.79H29.585Z" fill="#5CADF8" fill-opacity="0.5"/>
<path opacity="0.5" d="M20.6709 98.1429H142.939L143.546 92.1445H21.2689L20.6709 98.1429Z" fill="#5CADF8" fill-opacity="0.3"/>
<path opacity="0.5" d="M20.6709 107.997H142.939L143.546 102.008H21.2689L20.6709 107.997Z" fill="#5CADF8" fill-opacity="0.3"/>
<path opacity="0.5" d="M20.6709 117.849H142.939L143.546 111.859H21.2689L20.6709 117.849Z" fill="#5CADF8" fill-opacity="0.3"/>
<path opacity="0.5" d="M20.6699 127.711H142.938L143.545 121.713H21.2679L20.6699 127.711Z" fill="#5CADF8" fill-opacity="0.3"/>
<path opacity="0.5" d="M20.6709 137.565H142.939L143.546 131.566H21.2689L20.6709 137.565Z" fill="#5CADF8" fill-opacity="0.3"/>
<path opacity="0.5" d="M20.6709 147.418H142.939L143.546 141.42H21.2689L20.6709 147.418Z" fill="#5CADF8" fill-opacity="0.3"/>
<path d="M188.002 407.354C286.518 407.354 366.381 402.691 366.381 396.94C366.381 391.188 286.518 386.525 188.002 386.525C89.486 386.525 9.62305 391.188 9.62305 396.94C9.62305 402.691 89.486 407.354 188.002 407.354Z" fill="#5CADF8" fill-opacity="0.5"/>
<path d="M226.411 143.518H229.051L206.401 391.954C206.384 392.204 206.273 392.438 206.091 392.609C205.908 392.78 205.667 392.875 205.416 392.874H203.19C203.052 392.875 202.916 392.847 202.791 392.792C202.665 392.737 202.552 392.656 202.459 392.554C202.366 392.453 202.296 392.333 202.252 392.203C202.209 392.073 202.193 391.935 202.205 391.798L224.727 145.1C224.759 144.674 224.95 144.275 225.261 143.982C225.573 143.689 225.983 143.523 226.411 143.518Z" fill="#132043"/>
<path d="M230.027 143.518H227.377L250.064 391.918C250.081 392.167 250.191 392.402 250.374 392.572C250.557 392.743 250.798 392.838 251.049 392.838H253.266C253.403 392.838 253.539 392.81 253.665 392.755C253.791 392.7 253.904 392.619 253.997 392.518C254.089 392.416 254.16 392.296 254.203 392.166C254.247 392.036 254.263 391.898 254.25 391.761L231.729 145.072C231.69 144.648 231.493 144.253 231.179 143.965C230.864 143.678 230.453 143.518 230.027 143.518Z" fill="#132043"/>
<path d="M334.741 222.048C334.681 222.043 334.622 222.027 334.568 221.999C334.514 221.972 334.466 221.934 334.426 221.888C334.387 221.842 334.357 221.788 334.339 221.73C334.32 221.673 334.313 221.612 334.318 221.551L335.238 208C335.242 207.939 335.257 207.88 335.283 207.826C335.31 207.771 335.347 207.722 335.392 207.682C335.437 207.642 335.49 207.611 335.547 207.592C335.605 207.572 335.665 207.564 335.726 207.567C335.848 207.577 335.963 207.634 336.044 207.727C336.125 207.82 336.166 207.941 336.158 208.064L335.238 221.616C335.235 221.677 335.219 221.737 335.192 221.792C335.165 221.847 335.127 221.896 335.081 221.937C335.034 221.977 334.981 222.008 334.922 222.027C334.864 222.046 334.802 222.053 334.741 222.048Z" fill="#5CADF8"/>
<path d="M336.295 199.582C336.175 199.573 336.063 199.516 335.984 199.425C335.905 199.334 335.864 199.215 335.872 199.095L337.933 169.25C337.944 169.13 338.002 169.02 338.092 168.941C338.183 168.862 338.3 168.821 338.42 168.827C338.481 168.83 338.54 168.846 338.594 168.872C338.649 168.898 338.698 168.935 338.738 168.981C338.778 169.026 338.809 169.079 338.829 169.136C338.848 169.193 338.857 169.254 338.853 169.314L336.792 199.15C336.789 199.211 336.773 199.271 336.746 199.326C336.719 199.381 336.681 199.43 336.635 199.471C336.588 199.511 336.535 199.542 336.476 199.561C336.418 199.58 336.356 199.587 336.295 199.582Z" fill="#5CADF8"/>
<path d="M326.101 146.782H133.656C130.669 146.831 127.808 147.988 125.627 150.028C123.446 152.068 122.1 154.846 121.852 157.822L112.008 300.118C111.89 301.533 112.069 302.958 112.533 304.299C112.998 305.641 113.737 306.871 114.705 307.911C115.672 308.95 116.846 309.776 118.152 310.335C119.457 310.894 120.864 311.175 122.284 311.158H314.73C317.716 311.109 320.578 309.953 322.759 307.912C324.94 305.872 326.285 303.095 326.534 300.118L336.378 157.804C336.493 156.39 336.312 154.968 335.846 153.628C335.381 152.288 334.64 151.061 333.673 150.023C332.706 148.986 331.533 148.162 330.229 147.604C328.925 147.046 327.519 146.766 326.101 146.782Z" fill="#F2F7FA"/>
<path d="M314.73 311.518H122.285C120.817 311.537 119.361 311.249 118.01 310.673C116.66 310.096 115.445 309.245 114.443 308.171C113.441 307.098 112.674 305.828 112.191 304.441C111.709 303.055 111.521 301.583 111.64 300.119L121.484 157.804C121.747 154.743 123.138 151.888 125.387 149.795C127.636 147.702 130.584 146.52 133.656 146.479H326.102C327.569 146.463 329.024 146.753 330.372 147.331C331.721 147.909 332.935 148.762 333.935 149.836C334.935 150.909 335.7 152.18 336.181 153.567C336.662 154.953 336.848 156.425 336.728 157.887L326.92 300.119C326.675 303.197 325.289 306.072 323.034 308.181C320.779 310.289 317.817 311.48 314.73 311.518ZM133.656 147.132C130.755 147.175 127.974 148.297 125.855 150.278C123.736 152.259 122.43 154.959 122.193 157.85L112.349 300.119C112.233 301.488 112.405 302.865 112.854 304.163C113.302 305.461 114.017 306.651 114.953 307.656C115.889 308.661 117.025 309.459 118.287 309.999C119.55 310.539 120.912 310.809 122.285 310.791H314.73C317.624 310.749 320.399 309.634 322.517 307.663C324.635 305.691 325.945 303.002 326.194 300.119L336.038 157.804C336.152 156.437 335.979 155.06 335.53 153.763C335.081 152.467 334.365 151.278 333.43 150.274C332.494 149.27 331.359 148.472 330.097 147.933C328.835 147.394 327.474 147.124 326.102 147.142L133.656 147.132Z" fill="#5CADF8"/>
<g opacity="0.2">
<path d="M213.888 269.761C222.253 261.68 222.921 248.802 215.381 240.996C207.84 233.19 194.946 233.413 186.581 241.494C178.217 249.574 177.548 262.453 185.089 270.259C192.629 278.064 205.523 277.841 213.888 269.761Z" fill="#5CADF8"/>
<path d="M211.159 266.937C217.854 260.47 218.391 250.164 212.357 243.919C206.324 237.674 196.006 237.854 189.311 244.321C182.617 250.788 182.08 261.094 188.113 267.339C194.147 273.585 204.465 273.405 211.159 266.937Z" fill="#F2F7FA"/>
<path d="M208.43 264.111C213.451 259.26 213.853 251.53 209.327 246.845C204.801 242.16 197.062 242.295 192.041 247.145C187.02 251.996 186.618 259.726 191.144 264.41C195.67 269.095 203.409 268.961 208.43 264.111Z" fill="#5CADF8"/>
<path d="M208.378 255.631C208.2 257.827 207.209 259.879 205.6 261.384C203.991 262.89 201.878 263.741 199.675 263.773C198.627 263.788 197.587 263.584 196.623 263.173C195.658 262.761 194.791 262.152 194.077 261.385C193.362 260.618 192.817 259.709 192.475 258.718C192.134 257.727 192.004 256.675 192.094 255.631C192.272 253.435 193.263 251.383 194.872 249.878C196.481 248.372 198.594 247.521 200.797 247.489C201.845 247.475 202.884 247.68 203.848 248.092C204.812 248.504 205.678 249.113 206.392 249.88C207.106 250.647 207.652 251.555 207.994 252.545C208.336 253.536 208.467 254.587 208.378 255.631Z" fill="#F2F7FA"/>
<path d="M204.303 255.631C204.214 256.729 203.718 257.754 202.914 258.506C202.109 259.258 201.053 259.683 199.951 259.698C199.428 259.705 198.909 259.602 198.428 259.396C197.947 259.191 197.515 258.886 197.159 258.503C196.802 258.12 196.53 257.667 196.36 257.172C196.19 256.677 196.125 256.152 196.17 255.631C196.257 254.533 196.752 253.506 197.557 252.754C198.362 252.002 199.42 251.577 200.522 251.565C201.045 251.558 201.564 251.66 202.045 251.866C202.526 252.072 202.958 252.376 203.315 252.759C203.671 253.142 203.943 253.596 204.113 254.09C204.283 254.585 204.348 255.11 204.303 255.631Z" fill="#5CADF8"/>
</g>
<path d="M148.441 285.712H138.321C137.617 285.728 136.932 285.482 136.397 285.024C135.863 284.566 135.516 283.926 135.423 283.228C135.031 280.023 133.934 276.944 132.212 274.212C129.616 270.17 128.331 265.424 128.532 260.624C128.893 256.161 130.903 251.992 134.17 248.931C137.438 245.869 141.728 244.134 146.206 244.064C148.338 244.035 150.453 244.452 152.415 245.289C154.376 246.126 156.141 247.364 157.596 248.923C159.051 250.483 160.163 252.33 160.862 254.345C161.56 256.36 161.83 258.499 161.652 260.624C161.137 265.579 159.223 270.286 156.132 274.194C154.054 276.877 152.534 279.949 151.661 283.228C151.474 283.94 151.057 284.569 150.474 285.019C149.892 285.468 149.177 285.712 148.441 285.712ZM146.196 245.012C141.961 245.076 137.902 246.713 134.806 249.603C131.71 252.493 129.799 256.431 129.443 260.652C129.252 265.26 130.486 269.815 132.976 273.697C134.775 276.538 135.918 279.743 136.325 283.081C136.392 283.556 136.632 283.99 136.998 284.301C137.364 284.611 137.832 284.776 138.312 284.765H148.432C148.951 284.764 149.456 284.594 149.869 284.28C150.283 283.966 150.582 283.526 150.723 283.026C151.619 279.63 153.182 276.446 155.323 273.66C158.308 269.9 160.165 265.37 160.677 260.596C160.855 258.592 160.61 256.573 159.958 254.669C159.306 252.765 158.262 251.02 156.892 249.545C155.523 248.071 153.859 246.901 152.009 246.11C150.158 245.32 148.162 244.927 146.15 244.956L146.196 245.012Z" fill="#5CADF8"/>
<path d="M154.063 261.213C153.548 261.019 152.72 261.102 151.625 262.758C150.356 264.897 149.396 267.204 148.773 269.612C148.375 269.649 147.975 269.649 147.577 269.612C147.035 269.606 146.5 269.482 146.011 269.248C145.522 269.015 145.089 268.677 144.743 268.26C145.581 267.101 146.197 265.113 146.261 261.893C146.317 259.06 145.958 257.735 145.093 257.744C143.86 257.744 142.995 260.845 142.802 262.915C142.528 264.749 142.851 266.623 143.722 268.26C143.237 268.757 142.577 269.045 141.882 269.06C141.518 269.079 141.153 269.048 140.797 268.968C140.603 265.583 139.941 263.246 138.809 261.985C138.475 261.587 138.05 261.275 137.569 261.077C137.089 260.878 136.567 260.798 136.049 260.845C134.209 260.955 133.961 262.225 133.961 262.749C133.961 264.893 136.914 268.563 140.042 269.603C140.235 273.927 139.72 280.533 137.899 290.607L137.834 290.984H138.653V290.708C140.281 281.747 141.017 274.764 140.833 269.815C141.174 269.868 141.519 269.89 141.864 269.879C142.715 269.85 143.525 269.506 144.136 268.913C144.548 269.38 145.053 269.757 145.618 270.018C146.184 270.28 146.798 270.42 147.421 270.431C147.773 270.459 148.126 270.459 148.479 270.431C146.528 277.598 145.581 286.862 147.126 290.984H148.046C146.363 287.258 147.384 277.589 149.389 270.33C150.65 270.084 151.816 269.488 152.755 268.611C153.693 267.735 154.366 266.612 154.698 265.371C155.287 263.393 155.011 261.608 154.063 261.213ZM134.743 262.703C134.743 262.289 134.881 261.728 136.013 261.654H136.224C136.599 261.648 136.971 261.727 137.311 261.887C137.65 262.046 137.949 262.281 138.184 262.574C138.984 263.494 139.711 265.279 139.959 268.729C137.402 267.616 134.78 264.46 134.789 262.703H134.743ZM144.228 267.542C143.824 266.691 143.59 265.769 143.538 264.828C143.336 261.755 144.504 258.747 144.964 258.563C144.964 258.563 145.452 258.885 145.397 261.939C145.466 263.869 145.081 265.788 144.274 267.542H144.228ZM153.962 265.159C153.691 266.187 153.154 267.125 152.404 267.878C151.655 268.63 150.719 269.172 149.693 269.447C150.278 267.237 151.167 265.119 152.333 263.154C152.941 262.234 153.401 261.93 153.649 261.93H153.75C154.127 262.142 154.431 263.485 153.962 265.159Z" fill="#5CADF8"/>
<path d="M148.441 292.262H137.401C137.242 292.265 137.083 292.235 136.937 292.173C136.79 292.111 136.657 292.019 136.548 291.903C136.439 291.787 136.355 291.649 136.302 291.498C136.25 291.348 136.229 291.188 136.242 291.029L136.334 289.695C136.363 289.361 136.515 289.05 136.759 288.821C137.004 288.592 137.324 288.461 137.659 288.453H148.699C148.859 288.451 149.017 288.483 149.164 288.546C149.311 288.609 149.443 288.702 149.552 288.818C149.661 288.935 149.745 289.074 149.798 289.225C149.85 289.376 149.871 289.536 149.858 289.695L149.766 291.029C149.737 291.362 149.585 291.672 149.34 291.9C149.096 292.127 148.775 292.256 148.441 292.262Z" fill="#5CADF8"/>
<path d="M148.441 292.76H137.401C137.178 292.764 136.958 292.721 136.753 292.634C136.549 292.546 136.365 292.417 136.214 292.254C136.062 292.091 135.946 291.898 135.873 291.687C135.8 291.476 135.772 291.253 135.791 291.031L135.883 289.697C135.925 289.25 136.129 288.835 136.456 288.528C136.783 288.222 137.21 288.045 137.658 288.031H148.698C148.921 288.029 149.142 288.074 149.346 288.163C149.551 288.252 149.734 288.382 149.885 288.547C150.037 288.708 150.154 288.899 150.226 289.109C150.299 289.318 150.327 289.54 150.308 289.761L150.216 291.095C150.174 291.541 149.97 291.957 149.643 292.263C149.316 292.57 148.889 292.746 148.441 292.76ZM137.612 288.951C137.396 288.963 137.19 289.05 137.032 289.198C136.874 289.347 136.773 289.546 136.748 289.761L136.656 291.095C136.645 291.29 136.711 291.482 136.84 291.629C136.906 291.698 136.986 291.752 137.075 291.789C137.164 291.825 137.259 291.843 137.355 291.84H148.395C148.611 291.829 148.817 291.741 148.975 291.593C149.133 291.445 149.234 291.246 149.26 291.031L149.352 289.697C149.357 289.601 149.344 289.506 149.312 289.416C149.281 289.326 149.232 289.243 149.168 289.172C149.102 289.102 149.022 289.046 148.933 289.008C148.844 288.97 148.749 288.951 148.652 288.951H137.612Z" fill="#5CADF8"/>
<path d="M286.247 223.456L275.428 211.836L281.601 208.027L290.461 217.549L286.247 223.456Z" fill="#5CADF8"/>
<path d="M283.663 222.086L276.625 214.524L283.507 209.354L289.275 215.545L283.663 222.086Z" fill="#5CADF8"/>
<path d="M291.465 197.605L283.36 204.698C282.889 205.136 282.328 205.465 281.716 205.66C281.103 205.856 280.455 205.914 279.818 205.829C277.702 205.425 273.488 206.878 273.488 206.878C276.929 203.336 281.161 194.421 291.465 197.605Z" fill="#5CADF8"/>
<path d="M301.518 208.414C301.518 208.414 297.424 212.49 293.9 216.022C293.43 216.462 293.064 217 292.826 217.598C292.589 218.196 292.488 218.84 292.529 219.482C292.787 221.625 291.039 225.747 291.039 225.747C294.802 222.554 303.974 218.93 301.518 208.414Z" fill="#5CADF8"/>
<path d="M308.022 202.712C314.002 196.483 316.302 189.712 313.671 186.934C311.04 184.155 304.195 185.949 297.58 191.534L281.177 205.334C280.857 205.585 280.592 205.899 280.397 206.256C280.202 206.613 280.081 207.005 280.042 207.41C280.002 207.815 280.045 208.223 280.167 208.611C280.289 208.999 280.489 209.358 280.754 209.667L288.822 218.342C289.111 218.63 289.455 218.855 289.834 219.005C290.213 219.155 290.618 219.226 291.025 219.214C291.433 219.201 291.833 219.107 292.202 218.935C292.572 218.763 292.902 218.517 293.174 218.214L308.022 202.712Z" fill="#F2F7FA"/>
<path d="M290.874 219.621C290.432 219.621 289.995 219.531 289.59 219.355C289.185 219.179 288.82 218.922 288.519 218.599L280.423 209.961C280.121 209.636 279.889 209.253 279.742 208.835C279.594 208.418 279.535 207.974 279.567 207.532C279.601 207.036 279.735 206.552 279.961 206.109C280.187 205.666 280.501 205.274 280.883 204.956L297.286 191.156C303.984 185.525 311.178 183.584 314.012 186.629C316.845 189.675 314.417 196.749 308.354 203.042L293.505 218.489C293.164 218.844 292.756 219.127 292.304 219.321C291.852 219.516 291.366 219.617 290.874 219.621ZM310.129 186.096C306.9 186.096 302.245 188.184 297.875 191.846L281.481 205.646C281.193 205.884 280.957 206.178 280.786 206.51C280.615 206.842 280.513 207.205 280.487 207.578C280.462 207.894 280.504 208.212 280.608 208.511C280.713 208.81 280.878 209.085 281.094 209.317L289.163 217.992C289.381 218.222 289.643 218.405 289.934 218.529C290.225 218.654 290.539 218.719 290.855 218.719C291.605 218.706 292.318 218.399 292.843 217.863L307.692 202.407C313.313 196.556 315.797 189.905 313.34 187.264C312.916 186.857 312.411 186.542 311.858 186.341C311.305 186.14 310.717 186.056 310.129 186.096Z" fill="#5CADF8"/>
<path d="M305.262 201.874C304.481 202.513 303.53 202.91 302.526 203.016C301.522 203.122 300.509 202.932 299.612 202.47C298.714 202.009 297.971 201.294 297.474 200.416C296.977 199.537 296.748 198.532 296.814 197.525C296.88 196.518 297.239 195.552 297.847 194.746C298.455 193.94 299.285 193.329 300.235 192.989C301.186 192.649 302.215 192.593 303.196 192.83C304.178 193.066 305.068 193.585 305.759 194.321C306.223 194.849 306.579 195.463 306.805 196.129C307.032 196.795 307.124 197.499 307.078 198.2C307.032 198.902 306.848 199.588 306.536 200.218C306.225 200.848 305.792 201.411 305.262 201.874Z" fill="#5CADF8"/>
<path opacity="0.3" d="M304.176 200.704C303.635 201.143 302.977 201.415 302.284 201.485C301.59 201.555 300.892 201.422 300.273 201.1C299.654 200.779 299.143 200.284 298.802 199.677C298.461 199.069 298.304 198.375 298.352 197.679C298.4 196.984 298.65 196.318 299.071 195.762C299.492 195.207 300.066 194.787 300.723 194.553C301.379 194.319 302.09 194.282 302.767 194.447C303.444 194.611 304.059 194.97 304.535 195.479C304.858 195.844 305.105 196.27 305.261 196.731C305.418 197.193 305.481 197.68 305.448 198.167C305.415 198.653 305.285 199.127 305.067 199.563C304.848 199.999 304.546 200.387 304.176 200.704Z" fill="#F2F7FA"/>
<path d="M262.884 284.849C269.973 278.001 270.541 267.087 264.151 260.472C257.761 253.858 246.834 254.048 239.745 260.896C232.655 267.745 232.088 278.659 238.478 285.273C244.867 291.888 255.794 291.698 262.884 284.849Z" fill="#5CADF8"/>
<path d="M266.808 272.869C266.614 275.478 265.797 278.002 264.425 280.229C262.948 282.676 260.87 284.706 258.389 286.125C255.908 287.545 253.106 288.309 250.248 288.343C247.523 288.384 244.844 287.64 242.53 286.202C240.216 284.763 238.363 282.69 237.193 280.229C236.113 277.934 235.644 275.399 235.831 272.869C236.17 268.689 238.054 264.786 241.116 261.921C244.178 259.056 248.199 257.436 252.391 257.376C254.385 257.35 256.362 257.741 258.195 258.525C260.028 259.308 261.676 260.467 263.034 261.927C264.392 263.386 265.43 265.114 266.08 266.998C266.729 268.883 266.978 270.883 266.808 272.869Z" fill="#F2F7FA"/>
<path opacity="0.6" d="M264.423 280.239C262.946 282.686 260.868 284.716 258.387 286.136C255.907 287.556 253.104 288.319 250.246 288.354C247.522 288.394 244.843 287.65 242.528 286.212C240.214 284.773 238.361 282.7 237.191 280.239C241.336 277.565 246.16 276.135 251.093 276.118C255.855 276.085 260.511 277.525 264.423 280.239Z" fill="#5CADF8"/>
<path opacity="0.6" d="M258.583 267.571C258.43 269.429 257.593 271.164 256.233 272.439C254.873 273.714 253.087 274.438 251.223 274.471C250.334 274.486 249.451 274.314 248.632 273.966C247.813 273.618 247.077 273.102 246.47 272.452C245.863 271.802 245.399 271.031 245.108 270.19C244.818 269.35 244.707 268.457 244.783 267.571C244.936 265.713 245.773 263.978 247.133 262.703C248.494 261.427 250.279 260.703 252.143 260.671C253.033 260.656 253.915 260.828 254.734 261.176C255.553 261.523 256.29 262.039 256.897 262.689C257.504 263.34 257.967 264.11 258.258 264.951C258.548 265.792 258.659 266.684 258.583 267.571Z" fill="#5CADF8"/>
<path d="M217.227 207.294C217.928 203.093 217.071 198.781 214.817 195.168L199.039 205.693L202.563 223.421C204.152 223.001 205.682 222.382 207.117 221.581C208.564 220.776 209.908 219.796 211.119 218.665C214.364 215.66 216.514 211.658 217.227 207.294Z" fill="#F2F7FA"/>
<path d="M214.523 196.473C216.299 199.733 216.946 203.489 216.363 207.154C215.681 211.315 213.636 215.131 210.548 218.001C209.389 219.072 208.104 219.999 206.721 220.761C205.641 221.366 204.504 221.862 203.326 222.242L200.115 206.096L214.559 196.455M214.854 195.148L199.039 205.692L202.563 223.42C204.152 222.999 205.682 222.381 207.117 221.58C208.564 220.774 209.908 219.795 211.119 218.664C214.359 215.654 216.502 211.649 217.209 207.283C217.909 203.083 217.052 198.771 214.799 195.158L214.854 195.148Z" fill="#5CADF8"/>
<path d="M199.039 205.692L182.939 197.936C183.984 195.988 185.342 194.226 186.96 192.72C194.568 185.599 206.28 185.599 212.913 192.72C213.602 193.475 214.218 194.295 214.753 195.167L199.039 205.692Z" fill="#5CADF8"/>
<path d="M199.04 205.691L202.564 223.42C199.506 224.284 196.271 224.299 193.206 223.463C190.14 222.626 187.361 220.97 185.167 218.672C180.097 213.226 179.205 204.872 182.94 197.936L199.04 205.691Z" fill="#5CADF8" fill-opacity="0.3"/>
<path d="M146.176 237.955C146.129 237.321 146.129 236.685 146.176 236.051H147.096C147.054 236.642 147.054 237.235 147.096 237.826L146.176 237.955Z" fill="#5CADF8"/>
<path d="M147.705 232.315L146.785 232.076C147.144 230.784 147.59 229.517 148.119 228.285L148.966 228.653C148.463 229.844 148.042 231.067 147.705 232.315ZM150.714 225.148L149.913 224.697C150.539 223.566 151.238 222.425 151.992 221.293L152.756 221.809C152.02 222.913 151.33 224.035 150.714 225.148ZM155.056 218.635L154.329 218.064C155.148 217.025 156.013 216.003 156.905 215.028L157.586 215.645C156.721 216.601 155.856 217.613 155.056 218.635ZM160.328 212.848L159.693 212.176C160.677 211.256 161.689 210.336 162.701 209.554L163.272 210.272C162.241 211.063 161.321 211.928 160.328 212.848ZM166.427 207.972L165.921 207.199C167.032 206.461 168.188 205.791 169.38 205.193L169.794 206.012C168.637 206.604 167.513 207.258 166.427 207.972Z" fill="#5CADF8"/>
<path d="M173.381 204.549L173.105 203.629C173.713 203.427 174.329 203.261 174.945 203.123L175.148 204.043C174.559 204.199 173.97 204.356 173.381 204.549Z" fill="#5CADF8"/>
<path d="M299.614 230.072C299.559 229.456 299.476 228.858 299.375 228.287L300.295 228.131C300.405 228.72 300.488 229.345 300.553 229.971L299.614 230.072Z" fill="#5CADF8"/>
<path d="M281.84 265.556L281.371 264.765C282.346 264.185 283.312 263.541 284.223 262.869L284.766 263.615C283.827 264.305 282.843 264.958 281.84 265.556ZM287.508 261.407L286.891 260.717C287.737 259.962 288.566 259.153 289.348 258.315L290.019 258.941C289.2 259.797 288.372 260.625 287.508 261.407ZM292.291 256.264L291.565 255.703C292.255 254.783 292.917 253.863 293.533 252.897L294.316 253.393C293.681 254.378 293 255.344 292.291 256.264ZM296.073 250.348L295.254 249.925C295.778 248.913 296.275 247.864 296.717 246.815L297.563 247.165C297.112 248.251 296.606 249.318 296.073 250.348ZM298.778 243.908L297.858 243.632C298.207 242.537 298.511 241.424 298.778 240.32L299.698 240.523C299.449 241.617 299.136 242.758 298.778 243.871V243.908ZM300.341 237.063L299.421 236.935C299.574 235.802 299.669 234.663 299.707 233.521H300.627C300.599 234.653 300.498 235.831 300.341 237.027V237.063Z" fill="#5CADF8"/>
<path d="M277.029 267.994L276.67 267.148C277.24 266.908 277.792 266.66 278.335 266.402L278.731 267.23C278.16 267.497 277.608 267.746 277.029 267.994Z" fill="#5CADF8"/>
<path d="M226.226 203.225C225.637 203.078 225.048 202.949 224.469 202.858L224.616 201.938C225.223 202.039 225.84 202.167 226.456 202.324L226.226 203.225Z" fill="#5CADF8"/>
<path d="M254.323 244.828L253.403 244.773C253.403 244.249 253.45 243.706 253.45 243.163C253.45 242.455 253.449 241.737 253.376 241.01L254.296 240.946C254.351 241.691 254.379 242.436 254.379 243.163C254.369 243.724 254.351 244.285 254.323 244.828ZM252.925 237.247C252.714 236.033 252.447 234.791 252.125 233.567L253.045 233.337C253.376 234.598 253.652 235.877 253.863 237.119L252.925 237.247ZM251.021 229.887C250.607 228.701 250.147 227.514 249.65 226.355L250.487 225.987C251.002 227.173 251.472 228.379 251.885 229.593L251.021 229.887ZM248.021 222.923C247.433 221.801 246.807 220.687 246.181 219.62L246.963 219.133C247.635 220.218 248.279 221.35 248.868 222.5L248.021 222.923ZM244.038 216.483C243.284 215.453 242.492 214.45 241.683 213.511L242.382 212.913C243.21 213.833 244.019 214.891 244.783 215.94L244.038 216.483ZM239.088 210.761C238.18 209.885 237.228 209.056 236.236 208.277L236.798 207.559C237.816 208.354 238.793 209.202 239.723 210.098L239.088 210.761ZM233.127 206.161C232.055 205.509 230.939 204.934 229.787 204.44L230.146 203.594C231.338 204.106 232.494 204.7 233.605 205.369L233.127 206.161Z" fill="#5CADF8"/>
<path d="M253.319 250.523L252.445 250.237C252.62 249.685 252.777 249.097 252.905 248.508L253.825 248.701C253.66 249.327 253.494 249.943 253.319 250.523Z" fill="#5CADF8"/>
<path opacity="0.2" d="M165.13 178.23C165.193 177.419 165.086 176.604 164.816 175.837C164.546 175.069 164.119 174.367 163.562 173.774C163.006 173.181 162.331 172.71 161.583 172.393C160.834 172.075 160.028 171.916 159.214 171.928C158.386 171.929 157.566 172.085 156.795 172.388C156.25 171.093 155.331 169.991 154.156 169.222C152.981 168.453 151.603 168.053 150.198 168.073C148.41 168.099 146.677 168.697 145.253 169.78C143.829 170.863 142.789 172.373 142.286 174.09C140.576 174.217 138.968 174.951 137.75 176.158C136.533 177.366 135.786 178.968 135.644 180.677C135.644 180.843 135.644 180.999 135.644 181.165C134.815 181.17 134.017 181.484 133.407 182.045C132.796 182.607 132.416 183.375 132.341 184.201C132.306 184.594 132.354 184.99 132.483 185.363C132.611 185.736 132.816 186.079 133.085 186.368C133.354 186.656 133.68 186.886 134.044 187.04C134.407 187.195 134.798 187.271 135.193 187.264H162.839C164.106 187.245 165.321 186.755 166.246 185.89C167.171 185.024 167.741 183.844 167.844 182.581C167.918 181.661 167.694 180.741 167.205 179.957C166.717 179.174 165.989 178.568 165.13 178.23Z" fill="#5CADF8"/>
<path opacity="0.2" d="M284.316 178.165C284.372 177.455 284.28 176.742 284.045 176.07C283.81 175.398 283.437 174.782 282.95 174.263C282.463 173.743 281.874 173.331 281.218 173.052C280.563 172.774 279.857 172.635 279.145 172.645C278.42 172.646 277.702 172.787 277.029 173.059C276.553 171.926 275.75 170.961 274.723 170.288C273.695 169.614 272.49 169.262 271.261 169.278C269.702 169.311 268.193 169.838 266.953 170.784C265.713 171.73 264.805 173.045 264.361 174.54C262.868 174.653 261.464 175.296 260.401 176.351C259.339 177.407 258.688 178.807 258.565 180.299C258.565 180.447 258.565 180.585 258.565 180.723C257.839 180.732 257.143 181.011 256.612 181.506C256.081 182.001 255.754 182.676 255.695 183.4C255.665 183.744 255.708 184.09 255.82 184.416C255.932 184.743 256.112 185.042 256.346 185.295C256.581 185.548 256.866 185.749 257.183 185.885C257.501 186.022 257.843 186.09 258.188 186.086H282.356C283.466 186.069 284.529 185.639 285.339 184.881C286.148 184.122 286.646 183.089 286.735 181.983C286.802 181.17 286.601 180.358 286.165 179.669C285.728 178.98 285.079 178.452 284.316 178.165Z" fill="#5CADF8"/>
<path opacity="0.1" d="M221.506 165.45C221.612 164.327 222.127 163.282 222.953 162.514C223.779 161.745 224.859 161.307 225.987 161.283C226.521 161.28 227.05 161.386 227.542 161.596C228.011 160.744 228.698 160.032 229.532 159.531C230.365 159.03 231.316 158.759 232.289 158.744C233.42 158.715 234.523 159.105 235.385 159.838C236.247 160.571 236.809 161.597 236.962 162.718C237.499 162.746 238.025 162.881 238.508 163.116C238.991 163.351 239.422 163.681 239.775 164.087C240.127 164.492 240.395 164.964 240.562 165.475C240.728 165.986 240.79 166.525 240.743 167.06C240.752 167.168 240.752 167.275 240.743 167.382C241.005 167.375 241.266 167.423 241.507 167.524C241.749 167.624 241.966 167.776 242.145 167.967C242.324 168.159 242.459 168.386 242.543 168.635C242.626 168.883 242.656 169.146 242.63 169.406C242.584 169.952 242.338 170.461 241.938 170.835C241.539 171.209 241.015 171.421 240.468 171.43H222.196C221.798 171.436 221.404 171.358 221.038 171.201C220.672 171.045 220.343 170.814 220.072 170.523C219.801 170.232 219.593 169.887 219.463 169.511C219.333 169.135 219.283 168.736 219.317 168.339C219.368 167.699 219.602 167.087 219.99 166.575C220.378 166.063 220.904 165.673 221.506 165.45Z" fill="#5CADF8"/>
<path d="M55.8134 168.671C54.2494 170.649 52.575 172.802 51.0478 174.946C49.5206 177.089 47.9566 179.242 46.5214 181.45C45.0862 183.658 43.7614 185.903 42.4826 188.166C41.2661 190.391 40.1816 192.686 39.235 195.038L39.4374 193.548C39.4626 195.149 39.6725 196.742 40.063 198.295C40.4776 199.887 41.0637 201.43 41.811 202.895C42.5935 204.426 43.5175 205.879 44.571 207.238C45.0954 207.937 45.6474 208.618 46.2454 209.271C46.5398 209.593 46.8434 209.915 47.1654 210.191C47.4874 210.467 47.8094 210.835 48.0854 211.065L48.2602 211.23C48.6305 211.586 48.86 212.064 48.9068 212.575C48.9535 213.087 48.8143 213.598 48.5146 214.015C48.2149 214.432 47.7749 214.727 47.2753 214.846C46.7757 214.965 46.25 214.899 45.7946 214.662C44.8343 214.163 43.9118 213.594 43.0346 212.96C42.1784 212.351 41.3554 211.697 40.569 211C38.9718 209.591 37.537 208.008 36.291 206.281C35.0238 204.493 33.9882 202.551 33.209 200.503C32.4115 198.413 31.8949 196.225 31.6726 193.999C31.6334 193.568 31.6803 193.133 31.8106 192.72L31.875 192.508C32.7836 189.72 33.8872 187 35.1778 184.366C36.4474 181.781 37.8458 179.297 39.327 176.887C40.8082 174.476 42.363 172.121 44.0098 169.83C45.6566 167.54 47.3126 165.341 49.217 163.105C49.9475 162.245 50.9868 161.705 52.111 161.604C53.2351 161.502 54.3544 161.845 55.2276 162.561C56.1009 163.276 56.6584 164.305 56.78 165.428C56.9016 166.55 56.5776 167.675 55.8778 168.561L55.8134 168.671Z" fill="#B55B52"/>
<path d="M46.3196 210.191L54.25 213.614L46.5036 217.294C46.5036 217.294 41.968 214.203 42.3544 210.78L46.3196 210.191Z" fill="#B55B52"/>
<path d="M57.764 219.798L51.094 222.53L46.54 217.295L54.2956 213.615L57.764 219.798Z" fill="#B55B52"/>
<path d="M62.5763 143.096C63.5515 148.128 64.5267 157.31 61.0215 160.52C63.8563 165.198 68.0604 168.892 73.0643 171.1C79.7619 167.144 76.5695 161.054 76.5695 161.054C70.9943 159.536 71.1415 155.405 72.1167 151.56L62.5763 143.096Z" fill="#B55B52"/>
<path d="M58.4447 161.1C58.2513 160.336 58.2736 159.534 58.5091 158.782C58.5091 158.782 70.9383 157.301 74.8667 158.257C78.7951 159.214 80.2855 163.133 80.2855 163.133L58.4447 161.1Z" fill="#5CADF8" fill-opacity="0.3"/>
<path d="M82.5215 135.994C82.5215 136.674 82.8895 137.236 83.3311 137.245C83.7727 137.254 84.1315 136.72 84.1223 136.03C84.1131 135.34 83.7635 134.788 83.3219 134.77C82.8803 134.752 82.5215 135.304 82.5215 135.994Z" fill="#132043"/>
<path d="M83.1191 134.805L84.7383 134.373C84.7383 134.373 83.9195 135.633 83.1191 134.805Z" fill="#132043"/>
<path d="M82.6963 137.557C83.3056 139.133 84.1224 140.621 85.1251 141.982C84.7772 142.221 84.3804 142.38 83.9635 142.447C83.5465 142.514 83.1199 142.487 82.7147 142.368L82.6963 137.557Z" fill="#A02724"/>
<path d="M80.6263 132.276C80.5237 132.278 80.4233 132.246 80.3411 132.184C80.2587 132.116 80.206 132.018 80.194 131.912C80.182 131.805 80.2117 131.699 80.2767 131.614C80.6548 131.115 81.1496 130.718 81.7176 130.457C82.2856 130.195 82.9093 130.077 83.5335 130.114C83.6402 130.128 83.7372 130.183 83.8042 130.267C83.8712 130.351 83.9028 130.458 83.8923 130.565C83.889 130.616 83.8752 130.666 83.8517 130.712C83.8283 130.758 83.7958 130.798 83.7562 130.831C83.7165 130.864 83.6706 130.888 83.6213 130.902C83.5719 130.917 83.5201 130.921 83.4691 130.914C82.9747 130.892 82.4824 130.991 82.035 131.203C81.5876 131.415 81.1988 131.732 80.9023 132.129C80.8687 132.171 80.8269 132.205 80.7795 132.231C80.732 132.256 80.6799 132.271 80.6263 132.276Z" fill="#132043"/>
<path d="M59.7773 132.57C60.3201 140.97 60.3753 144.53 64.5889 148.955C70.9277 155.607 81.0017 153.417 82.9889 145.1C84.7369 137.612 83.5501 125.127 75.4081 121.567C73.6502 120.754 71.7094 120.417 69.7804 120.592C67.8514 120.766 66.0023 121.444 64.4185 122.559C62.8348 123.674 61.5722 125.186 60.7575 126.943C59.9429 128.7 59.6048 130.641 59.7773 132.57Z" fill="#B55B52"/>
<path d="M60.1199 123.371C56.8723 124.143 52.6863 131.043 53.6799 135.883C54.7379 140.943 45.3999 148.266 52.5667 150.685C60.5155 153.372 60.1751 157.677 69.6051 155.561C74.5547 154.457 88.6951 155.911 81.6571 144.475C75.6219 134.687 78.7683 130.675 78.7683 130.675C79.7017 130.681 80.6249 130.482 81.4724 130.09C82.3199 129.699 83.0708 129.126 83.6719 128.412C85.7327 125.965 83.8743 115.017 77.1491 118.789C71.2795 122.018 56.0627 115.919 60.1199 123.371Z" fill="#132043"/>
<path d="M76.0899 137.474C76.2016 138.271 76.5009 139.03 76.9631 139.689C77.4253 140.348 78.0373 140.887 78.7487 141.264C80.4047 141.862 80.8371 140.592 81.0119 138.633C81.1591 136.866 80.6071 134.208 78.8959 133.987C77.1847 133.766 75.9059 135.615 76.0899 137.474Z" fill="#B55B52"/>
<path d="M81.8311 213.135C81.8311 213.135 86.6611 275.906 87.1487 302.623C87.169 303.69 87.0827 304.757 86.8911 305.806C78.6939 350.436 69.4755 387.843 69.4755 387.843L64.9307 386.601C64.9307 386.601 65.9243 335.007 71.7755 302.255C66.0071 273.643 60.1191 213.135 60.1191 213.135H81.8311Z" fill="#B55B52"/>
<path d="M78.9142 213.135C78.9142 213.135 66.1814 274.775 61.7378 300.489C57.1378 327.215 48.1586 391.376 48.1586 391.376H43.4942C43.4942 391.376 39.8142 331.447 47.349 302.255C46.8614 273.643 52.777 213.135 52.777 213.135H78.9142Z" fill="#B55B52"/>
<path d="M90.3315 167.926C90.2347 166.349 89.6091 164.851 88.5556 163.674C87.5022 162.497 86.0826 161.71 84.5263 161.44C81.7663 160.98 78.1967 160.437 74.8387 160.133C69.6689 159.76 64.4789 159.76 59.3091 160.133C57.3219 160.253 55.3899 160.4 53.6419 160.602C52.6138 160.719 51.6228 161.056 50.7361 161.589C49.8493 162.122 49.0874 162.839 48.502 163.692C47.9167 164.546 47.5214 165.515 47.3432 166.534C47.1649 167.553 47.2077 168.599 47.4687 169.6C52.9887 192.204 52.7035 200.54 52.6023 213.134C39.1887 233.742 44.1383 254.314 42.3535 283.45C56.5123 286.1 73.0447 283.367 87.8843 285.235C91.3159 250.431 87.0287 219.436 85.3543 213.134C88.7675 186.74 90.6627 174.08 90.3315 167.926Z" fill="#132043"/>
<path d="M52.5196 160.824C46.604 162.747 43.1172 168.396 43.1172 168.396C43.1172 168.396 50.6796 179.988 51.526 183.217C54.6724 174.725 52.5196 160.824 52.5196 160.824Z" fill="#132043"/>
<path d="M83.928 279.356H83.8636C83.3875 279.35 82.9186 279.239 82.4896 279.033C82.0606 278.826 81.6818 278.528 81.3796 278.16C81.1477 277.861 80.851 277.617 80.5116 277.448C80.1723 277.279 79.7991 277.189 79.42 277.185C78.6078 277.202 77.8334 277.532 77.258 278.105C76.9124 278.453 76.5008 278.728 76.0474 278.915C75.5939 279.101 75.1078 279.195 74.6176 279.191C74.1435 279.186 73.6762 279.077 73.2487 278.872C72.8211 278.667 72.4437 278.371 72.1428 278.004C71.9105 277.705 71.6137 277.462 71.2744 277.293C70.9351 277.124 70.5621 277.034 70.1832 277.029C69.3736 277.045 68.6019 277.375 68.0304 277.949C67.6884 278.305 67.2764 278.586 66.8204 278.774C66.3643 278.962 65.8741 279.054 65.3808 279.044C64.9062 279.036 64.4389 278.925 64.0115 278.719C63.5841 278.512 63.2068 278.215 62.906 277.848C62.6741 277.548 62.3774 277.304 62.038 277.135C61.6987 276.966 61.3255 276.877 60.9464 276.872C60.5443 276.874 60.1466 276.956 59.7769 277.114C59.4071 277.272 59.0728 277.503 58.7936 277.792C58.1057 278.471 57.1836 278.859 56.2176 278.878H56.1532C55.6789 278.874 55.2112 278.766 54.7835 278.561C54.3557 278.356 53.9784 278.059 53.6784 277.691C53.4461 277.392 53.1493 277.149 52.81 276.98C52.4707 276.811 52.0977 276.721 51.7188 276.716C51.3152 276.717 50.916 276.799 50.5446 276.957C50.1732 277.115 49.8373 277.346 49.5568 277.636C48.8561 278.336 47.9067 278.729 46.9164 278.731C46.4417 278.724 45.9742 278.613 45.5467 278.407C45.1192 278.2 44.742 277.903 44.4416 277.535C44.2126 277.235 43.9175 276.992 43.5792 276.824C43.241 276.657 42.8687 276.569 42.4912 276.569V275.814C42.966 275.821 43.4335 275.932 43.861 276.139C44.2885 276.345 44.6656 276.643 44.966 277.01C45.1912 277.322 45.4853 277.576 45.8252 277.755C46.1651 277.934 46.5417 278.032 46.9256 278.041C47.7363 278.029 48.5098 277.699 49.0784 277.121C49.7653 276.441 50.688 276.052 51.6544 276.035H51.7188C52.193 276.04 52.6602 276.149 53.0877 276.354C53.5153 276.559 53.8928 276.856 54.1936 277.222C54.4259 277.521 54.7228 277.765 55.062 277.933C55.4013 278.102 55.7743 278.192 56.1532 278.197C56.5551 278.194 56.9523 278.111 57.3219 277.953C57.6914 277.795 58.0259 277.565 58.306 277.277C58.6487 276.922 59.0608 276.642 59.5167 276.454C59.9726 276.265 60.4624 276.173 60.9556 276.182C61.4304 276.189 61.8979 276.3 62.3254 276.507C62.7529 276.713 63.13 277.011 63.4304 277.378C63.6623 277.678 63.959 277.922 64.2984 278.091C64.6378 278.26 65.011 278.35 65.39 278.354C66.2003 278.34 66.973 278.01 67.5428 277.434C68.2308 276.755 69.1528 276.367 70.1188 276.348H70.2384C70.7128 276.352 71.1804 276.46 71.6082 276.665C72.0359 276.871 72.4132 277.167 72.7132 277.535C72.9455 277.834 73.2424 278.077 73.5816 278.246C73.9209 278.415 74.2939 278.505 74.6728 278.51C75.4842 278.489 76.2573 278.16 76.8348 277.59C77.1751 277.235 77.5855 276.954 78.04 276.765C78.4945 276.577 78.9833 276.485 79.4752 276.495C79.9513 276.502 80.4202 276.613 80.8492 276.819C81.2782 277.026 81.657 277.323 81.9592 277.691C82.1915 277.991 82.4884 278.234 82.8276 278.403C83.1669 278.571 83.5399 278.662 83.9188 278.666C84.3228 278.668 84.7229 278.587 85.0946 278.429C85.4663 278.271 85.8019 278.039 86.0808 277.746C86.4253 277.395 86.8379 277.117 87.2936 276.93C87.7492 276.744 88.2381 276.652 88.7304 276.661V277.406C88.327 277.408 87.928 277.49 87.5568 277.648C87.1856 277.806 86.8496 278.037 86.5684 278.326C86.2183 278.664 85.8046 278.929 85.3514 279.106C84.8982 279.283 84.4144 279.368 83.928 279.356Z" fill="#F2F7FA"/>
<path opacity="0.2" d="M66.4497 269.688L63.4597 243.817L54.8945 238.941L66.4497 269.688Z" fill="#132043"/>
<path d="M50.8265 215.923L86.1453 218.968C86.6329 218.968 87.0101 218.324 87.0653 217.358L87.2033 211.48C87.2033 210.293 86.7249 209.198 86.1361 209.143L52.2433 206.383C51.7557 206.383 51.3785 207.027 51.3233 207.993L49.7501 213.642C49.7225 214.773 50.2285 215.877 50.8265 215.923Z" fill="#5CADF8"/>
<path d="M90.7738 166.933L92.7886 182.573L93.8742 190.347C94.2606 192.923 94.647 195.489 95.0886 198.029L95.015 197.734C95.3046 198.732 95.6961 199.696 96.1834 200.614C96.7078 201.653 97.3334 202.721 98.0234 203.779C99.3574 205.904 100.829 208.02 102.366 210.108C103.902 212.197 105.475 214.294 107.113 216.346C108.751 218.397 110.388 220.477 112.017 222.51C112.341 222.926 112.5 223.448 112.464 223.974C112.428 224.501 112.199 224.996 111.821 225.364C111.442 225.732 110.941 225.947 110.414 225.969C109.886 225.991 109.369 225.817 108.962 225.481C106.883 223.715 104.933 221.884 102.982 220.017C101.032 218.149 99.1826 216.189 97.3426 214.184C95.5026 212.178 93.727 210.09 92.0618 207.836C91.2246 206.704 90.4058 205.536 89.633 204.266C88.7757 202.89 88.0781 201.421 87.5538 199.887V199.813L87.4986 199.602C86.2474 194.312 85.2354 189.059 84.4074 183.787C83.9842 181.156 83.5702 178.525 83.2114 175.884C82.8526 173.244 82.5122 170.613 82.2914 167.926C82.1621 166.792 82.4888 165.652 83.1996 164.758C83.9104 163.865 84.9472 163.29 86.0818 163.161C87.2164 163.031 88.3559 163.358 89.2496 164.069C90.1433 164.78 90.7181 165.816 90.8474 166.951L90.7738 166.933Z" fill="#B55B52"/>
<path d="M84.361 161.412C91.2794 162.24 92.641 167.714 92.641 167.714C92.641 167.714 84.4806 177.613 82.613 183.216C77.8198 167.641 84.361 161.412 84.361 161.412Z" fill="#132043"/>
<path d="M181.191 191.552L107.131 232.271L106.156 230.486L180.704 190.65L181.191 191.552Z" fill="#132043"/>
<path d="M110.01 220.861L118.29 222.205L111.804 227.89C111.804 227.89 106.827 225.995 106.422 222.471L110.01 220.861Z" fill="#B55B52"/>
<path d="M112.256 220.55C112.44 220.806 112.545 221.11 112.559 221.425C112.573 221.739 112.495 222.051 112.334 222.322C112.173 222.593 111.937 222.812 111.654 222.95C111.371 223.089 111.053 223.142 110.741 223.103C110.428 223.064 110.133 222.934 109.893 222.73C109.653 222.526 109.478 222.256 109.388 221.954C109.299 221.652 109.3 221.33 109.391 221.029C109.482 220.727 109.659 220.458 109.9 220.256C110.252 219.984 110.698 219.862 111.139 219.917C111.58 219.972 111.982 220.2 112.256 220.55Z" fill="#132043"/>
<path d="M107.04 223.955C106.796 223.958 106.552 223.933 106.313 223.882C106.195 223.853 106.093 223.779 106.029 223.676C105.966 223.572 105.945 223.448 105.973 223.33C106.001 223.211 106.075 223.109 106.179 223.045C106.282 222.982 106.407 222.961 106.525 222.989C106.635 222.989 108.981 223.477 110.637 220.726C110.669 220.674 110.71 220.628 110.759 220.592C110.808 220.556 110.863 220.53 110.922 220.515C110.981 220.501 111.043 220.498 111.103 220.507C111.163 220.517 111.22 220.538 111.272 220.57C111.376 220.634 111.45 220.737 111.479 220.855C111.508 220.974 111.49 221.099 111.429 221.204C111.012 222.015 110.385 222.698 109.612 223.182C108.84 223.667 107.951 223.933 107.04 223.955Z" fill="#132043"/>
<path d="M120.886 229.079L118.733 230.763C118.311 231.098 117.791 231.285 117.252 231.295C116.713 231.305 116.186 231.137 115.752 230.818L111.787 227.893L118.273 222.207L121.199 225.501C121.423 225.752 121.593 226.046 121.699 226.365C121.806 226.685 121.845 227.022 121.816 227.358C121.787 227.693 121.689 228.019 121.529 228.315C121.369 228.611 121.15 228.871 120.886 229.079Z" fill="#B55B52"/>
<path d="M70.2389 387.271L64.8569 385.799C64.7146 385.759 64.5629 385.77 64.4272 385.828C64.2915 385.887 64.1801 385.99 64.1117 386.121L61.8301 390.997C61.7582 391.147 61.7205 391.31 61.7197 391.476C61.719 391.641 61.7552 391.805 61.8257 391.955C61.8962 392.105 61.9993 392.237 62.1273 392.342C62.2554 392.447 62.4053 392.522 62.5661 392.561C65.4457 393.297 66.2461 393.224 69.8617 394.328C72.9253 395.248 72.9805 396.858 78.0681 397.198C81.1409 397.401 80.4509 394.861 79.1537 394.585C74.5537 393.601 74.1029 392.083 71.5177 388.707C71.1589 388.182 70.8921 387.446 70.2389 387.271Z" fill="#132043"/>
<path d="M48.8495 389.922H43.3295C43.1832 389.917 43.0402 389.967 42.9293 390.062C42.8184 390.158 42.7477 390.292 42.7315 390.438L42.0599 395.801C42.0391 395.968 42.0539 396.138 42.1036 396.298C42.1532 396.459 42.2365 396.608 42.3479 396.734C42.4592 396.86 42.5961 396.961 42.7495 397.03C42.9029 397.099 43.0693 397.135 43.2375 397.135C46.1815 397.08 45.2339 397.135 48.9415 397.135H54.2315C57.3135 397.135 56.3383 394.743 55.0319 394.449C52.4559 393.888 51.7383 392.977 50.4319 390.98C50.2739 390.689 50.0472 390.44 49.7715 390.256C49.4958 390.071 49.1794 389.957 48.8495 389.922Z" fill="#132043"/>
</g>
</g>
<defs>
<clipPath id="clip0_35_8300">
<rect width="375" height="487" rx="16" fill="white"/>
</clipPath>
<clipPath id="clip1_35_8300">
<rect width="460" height="460" fill="white" transform="translate(-42 14)"/>
</clipPath>
</defs>
</svg>
