<svg width="375" height="630" viewBox="0 0 375 630" fill="none" xmlns="http://www.w3.org/2000/svg">
<g clip-path="url(#clip0_35_6314)">
<rect width="375" height="630" fill="#F2F7FA"/>
<path d="M0 0H375V630L187.965 316.038L0 0Z" fill="#F2F7FA"/>
<g opacity="0.1" filter="url(#filter0_d_35_6314)">
<circle cx="342.5" cy="-57.5" r="355.5" fill="#5CADF8" fill-opacity="0.5" shape-rendering="crispEdges"/>
</g>
<circle opacity="0.1" cx="375.5" cy="-169.5" r="355.5" fill="#5CADF8" fill-opacity="0.5"/>
<g clip-path="url(#clip1_35_6314)">
<path d="M447 487.252H-13V487.482H447V487.252Z" fill="#5CADF8" fill-opacity="0.5"/>
<path d="M334.447 496.996H302.799V497.226H334.447V496.996Z" fill="#5CADF8" fill-opacity="0.5"/>
<path d="M89.1569 497.105H71.3457V497.335H89.1569V497.105Z" fill="#5CADF8" fill-opacity="0.5"/>
<path d="M217.919 496.572H181.818V496.802H217.919V496.572Z" fill="#5CADF8" fill-opacity="0.5"/>
<path d="M180.899 493.297H164.762V493.527H180.899V493.297Z" fill="#5CADF8" fill-opacity="0.5"/>
<path d="M377.596 493.406H328.845V493.636H377.596V493.406Z" fill="#5CADF8" fill-opacity="0.5"/>
<path d="M205.04 446.22H27.3973C26.0057 446.218 24.6719 445.663 23.6887 444.678C22.7055 443.693 22.1533 442.359 22.1533 440.967V191.252C22.1654 189.868 22.723 188.545 23.7048 187.57C24.6867 186.596 26.0136 186.047 27.3973 186.045H205.04C206.433 186.045 207.77 186.598 208.755 187.584C209.74 188.569 210.293 189.905 210.293 191.298V440.967C210.293 442.36 209.74 443.696 208.755 444.682C207.77 445.667 206.433 446.22 205.04 446.22ZM27.3973 186.229C26.0667 186.231 24.7914 186.762 23.8513 187.703C22.9113 188.645 22.3833 189.921 22.3833 191.252V440.967C22.3833 442.298 22.9113 443.574 23.8513 444.516C24.7914 445.458 26.0667 445.988 27.3973 445.99H205.04C206.372 445.988 207.648 445.458 208.589 444.516C209.531 443.575 210.061 442.299 210.063 440.967V191.252C210.061 189.921 209.531 188.644 208.589 187.703C207.648 186.761 206.372 186.231 205.04 186.229H27.3973Z" fill="#5CADF8" fill-opacity="0.5"/>
<path d="M404.046 446.22H226.394C225.001 446.218 223.667 445.664 222.682 444.679C221.697 443.694 221.143 442.36 221.141 440.967V191.252C221.155 189.868 221.715 188.545 222.698 187.57C223.681 186.595 225.009 186.047 226.394 186.045H404.046C405.428 186.05 406.752 186.599 407.732 187.574C408.712 188.548 409.269 189.87 409.281 191.252V440.967C409.281 442.357 408.73 443.69 407.749 444.675C406.767 445.66 405.436 446.215 404.046 446.22ZM226.394 186.229C225.062 186.231 223.786 186.761 222.845 187.703C221.903 188.644 221.373 189.921 221.371 191.252V440.967C221.373 442.299 221.903 443.575 222.845 444.516C223.786 445.458 225.062 445.988 226.394 445.99H404.046C405.377 445.988 406.654 445.458 407.595 444.516C408.537 443.575 409.067 442.299 409.069 440.967V191.252C409.067 189.921 408.537 188.644 407.595 187.703C406.654 186.761 405.377 186.231 404.046 186.229H226.394Z" fill="#5CADF8" fill-opacity="0.5"/>
<path d="M376.187 203.186H250.81V349.281H376.187V203.186Z" fill="#5CADF8" fill-opacity="0.3"/>
<path d="M379.592 203.186H252.402V349.281H379.592V203.186Z" fill="#5CADF8" fill-opacity="0.5"/>
<path d="M376.187 349.271H250.81V357.459H376.187V349.271Z" fill="#5CADF8" fill-opacity="0.3"/>
<path d="M395.176 349.271H275.438V357.459H395.176V349.271Z" fill="#5CADF8" fill-opacity="0.5"/>
<path d="M374.825 343.078V209.375H257.176V343.078H374.825Z" fill="#5CADF8" fill-opacity="0.3"/>
<path d="M274.095 343.078L302.1 209.375H338.808L310.803 343.078H274.095Z" fill="#F2F7FA"/>
<path d="M316.746 343.078L344.742 209.375H361.32L333.324 343.078H316.746Z" fill="#F2F7FA"/>
<path d="M247.231 202.972V254.988H261.031C261.031 254.988 285.752 238.861 291.391 205.676C291.525 204.886 291.485 204.076 291.274 203.303C291.063 202.53 290.686 201.812 290.169 201.199C289.653 200.586 289.009 200.093 288.283 199.754C287.556 199.415 286.765 199.239 285.963 199.236H251.003C250.51 199.233 250.021 199.327 249.564 199.513C249.107 199.699 248.692 199.973 248.341 200.32C247.991 200.667 247.712 201.08 247.522 201.535C247.331 201.99 247.233 202.478 247.231 202.972Z" fill="#5CADF8" fill-opacity="0.3"/>
<path d="M247.231 338.37V259.186H261.031C261.031 259.186 268.943 275.175 276.828 293.557C278.925 298.447 279.775 303.782 279.302 309.082C278.829 314.383 277.048 319.483 274.118 323.925C271.188 328.367 267.201 332.012 262.515 334.533C257.828 337.054 252.59 338.372 247.268 338.37H247.231Z" fill="#5CADF8" fill-opacity="0.3"/>
<path d="M260.59 254.99H247.737C246.975 254.99 246.357 255.608 246.357 256.37V257.805C246.357 258.568 246.975 259.185 247.737 259.185H260.59C261.352 259.185 261.97 258.568 261.97 257.805V256.37C261.97 255.608 261.352 254.99 260.59 254.99Z" fill="#5CADF8" fill-opacity="0.5"/>
<path d="M383.519 202.972V254.988H369.719C369.719 254.988 344.99 238.861 339.359 205.676C339.226 204.887 339.266 204.078 339.476 203.305C339.687 202.533 340.063 201.815 340.579 201.202C341.094 200.59 341.737 200.097 342.462 199.757C343.187 199.418 343.978 199.24 344.778 199.237H379.738C380.232 199.232 380.722 199.325 381.18 199.51C381.638 199.695 382.055 199.97 382.407 200.317C382.758 200.664 383.037 201.077 383.228 201.533C383.419 201.989 383.518 202.478 383.519 202.972Z" fill="#5CADF8" fill-opacity="0.3"/>
<path d="M383.612 338.387V259.203H369.812C369.812 259.203 361.9 275.183 354.007 293.574C351.924 298.466 351.085 303.798 351.565 309.094C352.045 314.389 353.829 319.483 356.757 323.921C359.685 328.359 363.667 332.003 368.347 334.527C373.027 337.052 378.259 338.378 383.576 338.387H383.612Z" fill="#5CADF8" fill-opacity="0.3"/>
<path d="M370.134 259.186H382.986C383.748 259.186 384.366 258.568 384.366 257.806V256.37C384.366 255.608 383.748 254.99 382.986 254.99H370.134C369.372 254.99 368.754 255.608 368.754 256.37V257.806C368.754 258.568 369.372 259.186 370.134 259.186Z" fill="#5CADF8" fill-opacity="0.5"/>
<path d="M171.819 267.549H116.592V328.002H171.819V267.549Z" fill="#5CADF8" fill-opacity="0.3"/>
<path d="M179.584 267.549H119.582V328.002H179.584V267.549Z" fill="#5CADF8" fill-opacity="0.3"/>
<path d="M173.392 321.819V273.74H125.763V321.819H173.392Z" fill="#F2F7FA"/>
<path d="M136.96 297.779C136.962 294.767 138.161 291.879 140.291 289.75C142.422 287.622 145.31 286.426 148.322 286.426H150.88C153.89 286.428 156.776 287.625 158.905 289.754C161.033 291.882 162.23 294.768 162.232 297.779C162.232 299.269 161.939 300.746 161.368 302.123C160.798 303.5 159.961 304.752 158.907 305.806C157.853 306.86 156.601 307.697 155.224 308.267C153.847 308.838 152.37 309.131 150.88 309.131H148.322C146.83 309.133 145.353 308.84 143.975 308.27C142.596 307.7 141.344 306.864 140.288 305.809C139.233 304.755 138.396 303.503 137.825 302.125C137.254 300.747 136.96 299.27 136.96 297.779Z" fill="#5CADF8" fill-opacity="0.5"/>
<path d="M71.8609 281.974C64.1749 281.974 56.8037 278.92 51.3689 273.486C45.9341 268.051 42.8809 260.68 42.8809 252.994C42.8809 245.308 45.9341 237.936 51.3689 232.502C56.8037 227.067 64.1749 224.014 71.8609 224.014H77.0957V281.974H71.8609Z" fill="#5CADF8" fill-opacity="0.3"/>
<path d="M77.0954 281.974C93.0904 281.974 106.057 269.007 106.057 253.012C106.057 237.017 93.0904 224.051 77.0954 224.051C61.1003 224.051 48.1338 237.017 48.1338 253.012C48.1338 269.007 61.1003 281.974 77.0954 281.974Z" fill="#5CADF8" fill-opacity="0.3"/>
<path d="M77.0957 274.853C89.158 274.853 98.9365 265.075 98.9365 253.013C98.9365 240.95 89.158 231.172 77.0957 231.172C65.0333 231.172 55.2549 240.95 55.2549 253.013C55.2549 265.075 65.0333 274.853 77.0957 274.853Z" fill="#F2F7FA"/>
<path d="M86.0934 261.181L75.3662 253.692L78.7702 237.15L81.8062 237.776L78.8162 252.321L87.869 258.632L86.0934 261.181Z" fill="#5CADF8" fill-opacity="0.3"/>
<path d="M311.152 383.846H271.675V490.51H311.152V383.846Z" fill="#5CADF8" fill-opacity="0.3"/>
<path d="M300.61 490.51H311.153V472.846H289.561L300.61 490.51Z" fill="#5CADF8" fill-opacity="0.3"/>
<path d="M74.4821 383.846H35.0049V490.51H74.4821V383.846Z" fill="#5CADF8" fill-opacity="0.3"/>
<path d="M311.162 383.846H65.2832V484.429H311.162V383.846Z" fill="#5CADF8" fill-opacity="0.3"/>
<path d="M75.8264 490.51H65.2832V472.846H86.8756L75.8264 490.51Z" fill="#5CADF8" fill-opacity="0.3"/>
<path d="M302.983 392.492H73.4619V429.513H302.983V392.492Z" fill="#5CADF8" fill-opacity="0.3"/>
<path d="M302.983 438.463H73.4619V475.484H302.983V438.463Z" fill="#5CADF8" fill-opacity="0.3"/>
<path d="M269.33 392.492H73.4619V429.513H269.33V392.492Z" fill="#5CADF8" fill-opacity="0.3"/>
<path d="M133.777 397.488H121.863C121.863 397.488 123.933 404.637 123.933 408.841C123.933 413.045 114.871 429.523 127.824 429.523C140.778 429.523 131.707 413.045 131.707 408.841C131.707 404.637 133.777 397.488 133.777 397.488Z" fill="#5CADF8" fill-opacity="0.3"/>
<path d="M86.875 409.908V416.413C86.875 423.625 93.8486 429.523 102.368 429.523H110.05C118.569 429.523 125.543 423.625 125.543 416.413V409.908H86.875Z" fill="#5CADF8" fill-opacity="0.3"/>
<path d="M269.33 438.463H73.4619V475.484H269.33V438.463Z" fill="#5CADF8" fill-opacity="0.3"/>
<path d="M183.466 474.814H201.811V444.261H183.466V474.814Z" fill="#F2F7FA"/>
<path d="M198.95 475.293H200.201V444.74H198.95V475.293Z" fill="#5CADF8" fill-opacity="0.5"/>
<path d="M200.292 475.523H203.494C203.738 475.523 203.936 475.326 203.936 475.082V444.943C203.936 444.699 203.738 444.501 203.494 444.501H200.292C200.048 444.501 199.851 444.699 199.851 444.943V475.082C199.851 475.326 200.048 475.523 200.292 475.523Z" fill="#F2F7FA"/>
<path d="M199.851 458.832H203.936V451.582H199.851V458.832Z" fill="#F2F7FA"/>
<path d="M199.851 465.541H203.936V461.07H199.851V465.541Z" fill="#F2F7FA"/>
<path d="M182.528 475.523H199.06C199.304 475.523 199.502 475.326 199.502 475.082V444.943C199.502 444.699 199.304 444.501 199.06 444.501H182.528C182.284 444.501 182.086 444.699 182.086 444.943V475.082C182.086 475.326 182.284 475.523 182.528 475.523Z" fill="#F2F7FA"/>
<path d="M174.515 474.74H194.755V441.032H174.515V474.74Z" fill="#F2F7FA"/>
<path d="M191.617 475.264H192.988V441.555H191.617V475.264Z" fill="#5CADF8" fill-opacity="0.5"/>
<path d="M193.089 475.523H196.622C196.891 475.523 197.109 475.305 197.109 475.036V441.787C197.109 441.518 196.891 441.3 196.622 441.3H193.089C192.82 441.3 192.601 441.518 192.601 441.787V475.036C192.601 475.305 192.82 475.523 193.089 475.523Z" fill="#5CADF8" fill-opacity="0.3"/>
<path d="M192.601 453.369H197.109V452.201H192.601V453.369Z" fill="#F2F7FA"/>
<path d="M192.601 456.754H197.109V455.586H192.601V456.754Z" fill="#F2F7FA"/>
<path d="M192.601 460.131H197.109V458.962H192.601V460.131Z" fill="#F2F7FA"/>
<path d="M173.493 475.523H191.727C191.997 475.523 192.215 475.305 192.215 475.036V441.787C192.215 441.518 191.997 441.3 191.727 441.3H173.493C173.224 441.3 173.005 441.518 173.005 441.787V475.036C173.005 475.305 173.224 475.523 173.493 475.523Z" fill="#5CADF8" fill-opacity="0.3"/>
<path d="M149.583 463.783C149.584 464.81 149.282 465.814 148.713 466.668C148.144 467.523 147.334 468.189 146.386 468.583C145.438 468.978 144.394 469.082 143.387 468.882C142.38 468.683 141.455 468.19 140.728 467.465C140.002 466.739 139.506 465.815 139.305 464.808C139.105 463.801 139.207 462.757 139.599 461.809C139.992 460.86 140.657 460.049 141.51 459.479C142.364 458.908 143.367 458.604 144.394 458.604C145.768 458.604 147.087 459.149 148.06 460.12C149.032 461.091 149.58 462.409 149.583 463.783Z" fill="#5CADF8" fill-opacity="0.3"/>
<path d="M140.741 466.258C140.741 467.061 140.503 467.845 140.058 468.512C139.612 469.18 138.978 469.7 138.237 470.007C137.495 470.314 136.68 470.394 135.893 470.238C135.106 470.081 134.383 469.695 133.815 469.127C133.248 468.56 132.861 467.837 132.705 467.05C132.548 466.263 132.629 465.447 132.936 464.706C133.243 463.964 133.763 463.331 134.43 462.885C135.097 462.439 135.882 462.201 136.684 462.201C137.759 462.204 138.79 462.632 139.55 463.392C140.311 464.153 140.739 465.183 140.741 466.258Z" fill="#5CADF8" fill-opacity="0.3"/>
<path d="M158.46 466.257C158.46 467.283 158.155 468.287 157.585 469.14C157.015 469.993 156.205 470.658 155.257 471.051C154.308 471.444 153.265 471.546 152.259 471.346C151.252 471.146 150.327 470.652 149.602 469.926C148.876 469.201 148.382 468.276 148.182 467.269C147.982 466.263 148.084 465.22 148.477 464.271C148.87 463.323 149.535 462.513 150.388 461.943C151.241 461.373 152.245 461.068 153.271 461.068C154.646 461.071 155.965 461.618 156.937 462.591C157.91 463.563 158.457 464.882 158.46 466.257Z" fill="#5CADF8" fill-opacity="0.3"/>
<path d="M166.962 464.74C166.962 465.766 166.657 466.769 166.087 467.622C165.517 468.476 164.707 469.141 163.758 469.533C162.81 469.926 161.767 470.029 160.761 469.829C159.754 469.628 158.829 469.134 158.104 468.409C157.378 467.683 156.884 466.758 156.684 465.752C156.483 464.745 156.586 463.702 156.979 462.754C157.372 461.806 158.037 460.995 158.89 460.425C159.743 459.855 160.747 459.551 161.773 459.551C163.149 459.551 164.469 460.097 165.442 461.071C166.415 462.044 166.962 463.363 166.962 464.74Z" fill="#5CADF8" fill-opacity="0.3"/>
<path d="M122.405 465.412C122.405 465.412 123.114 475.532 150.41 475.532C177.706 475.532 178.415 465.412 178.415 465.412H122.405Z" fill="#5CADF8" fill-opacity="0.5"/>
<path d="M198.949 419.404C198.949 419.404 200.081 429.524 243.339 429.524C286.598 429.524 287.72 419.404 287.72 419.404H198.949Z" fill="#F2F7FA"/>
<path d="M217.001 528.799C315.517 528.799 395.38 524.137 395.38 518.385C395.38 512.633 315.517 507.971 217.001 507.971C118.485 507.971 38.6221 512.633 38.6221 518.385C38.6221 524.137 118.485 528.799 217.001 528.799Z" fill="#5CADF8" fill-opacity="0.5"/>
<path d="M122.168 380.465C141.627 361.007 141.627 329.458 122.168 309.999C102.709 290.541 71.1606 290.541 51.7019 309.999C32.2432 329.458 32.2432 361.007 51.7019 380.465C71.1606 399.924 102.709 399.924 122.168 380.465Z" fill="#5CADF8"/>
<path opacity="0.4" d="M122.168 380.465C141.627 361.007 141.627 329.458 122.168 309.999C102.709 290.541 71.1606 290.541 51.7019 309.999C32.2432 329.458 32.2432 361.007 51.7019 380.465C71.1606 399.924 102.709 399.924 122.168 380.465Z" fill="#132043"/>
<path opacity="0.2" d="M128.184 352.269C132.07 329.489 116.753 307.873 93.974 303.987C71.1946 300.102 49.5783 315.418 45.6927 338.198C41.8071 360.977 57.1236 382.593 79.9031 386.479C102.683 390.364 124.299 375.048 128.184 352.269Z" fill="#132043"/>
<path d="M130.185 349.241C131.738 327.058 115.013 307.816 92.8297 306.263C70.6459 304.71 51.4036 321.434 49.8508 343.618C48.2979 365.802 65.0225 385.044 87.2063 386.597C109.39 388.15 128.632 371.425 130.185 349.241Z" fill="#5CADF8"/>
<path opacity="0.4" d="M130.185 349.241C131.738 327.058 115.013 307.816 92.8297 306.263C70.6459 304.71 51.4036 321.434 49.8508 343.618C48.2979 365.802 65.0225 385.044 87.2063 386.597C109.39 388.15 128.632 371.425 130.185 349.241Z" fill="#132043"/>
<path d="M103.481 341.396L106.103 352.758C106.215 353.191 106.235 353.644 106.162 354.086C106.089 354.527 105.925 354.949 105.68 355.324C105.442 355.708 105.13 356.04 104.762 356.3C104.394 356.561 103.977 356.745 103.537 356.842L93.5455 359.152L95.3855 367.146C95.4937 367.578 95.5103 368.028 95.4343 368.467C95.3582 368.906 95.1912 369.324 94.9439 369.695C94.7062 370.072 94.3931 370.396 94.0242 370.646C93.6553 370.896 93.2385 371.067 92.8003 371.148C92.3613 371.258 91.9047 371.279 91.4575 371.21C91.0103 371.14 90.5815 370.982 90.1967 370.744C89.8132 370.518 89.481 370.215 89.2212 369.854C88.9615 369.493 88.7798 369.081 88.6879 368.646L86.8479 360.559L76.9395 362.85C76.5125 362.953 76.069 362.969 75.6358 362.896C75.2026 362.823 74.7886 362.664 74.4187 362.427C74.0342 362.201 73.7008 361.898 73.4395 361.537C73.1782 361.176 72.9947 360.765 72.9007 360.329C72.796 359.899 72.7796 359.453 72.8523 359.016C72.9251 358.58 73.0855 358.163 73.3239 357.79C73.5513 357.409 73.855 357.079 74.216 356.821C74.577 356.563 74.9874 356.382 75.4215 356.29L98.6055 350.945L97.5199 346.226L74.4003 351.552C73.9723 351.662 73.5266 351.683 73.0901 351.615C72.6537 351.547 72.2356 351.391 71.8611 351.157C71.477 350.926 71.1453 350.618 70.8871 350.252C70.6289 349.886 70.4499 349.471 70.3615 349.032L67.7487 337.716C67.5476 336.846 67.7001 335.932 68.1728 335.174C68.6456 334.417 69.3997 333.878 70.2695 333.677L80.1319 331.404L78.2919 323.401C78.1852 322.977 78.1644 322.537 78.2308 322.106C78.2971 321.674 78.4493 321.261 78.6783 320.889C78.9209 320.486 79.2467 320.14 79.6338 319.874C80.0209 319.607 80.4605 319.426 80.9231 319.343C81.3485 319.24 81.7906 319.224 82.2223 319.297C82.6541 319.37 83.0666 319.529 83.4347 319.767C83.8125 319.999 84.1393 320.305 84.3955 320.667C84.6516 321.029 84.8318 321.44 84.9251 321.873L86.7651 329.868L96.8851 327.55C97.3229 327.444 97.7776 327.427 98.2219 327.502C98.6661 327.576 99.0908 327.739 99.4703 327.982C99.8541 328.203 100.188 328.501 100.451 328.857C100.714 329.213 100.9 329.62 100.997 330.052C101.191 330.942 101.029 331.872 100.546 332.644C100.063 333.416 99.2972 333.968 98.4123 334.183L75.2283 339.528L76.2403 344.22L99.3415 338.893C99.7793 338.787 100.234 338.771 100.678 338.845C101.123 338.92 101.547 339.083 101.927 339.326C102.317 339.542 102.657 339.838 102.925 340.195C103.193 340.552 103.382 340.961 103.481 341.396Z" fill="#5CADF8"/>
<g opacity="0.7">
<path d="M103.482 341.4L106.104 352.762C106.216 353.195 106.236 353.648 106.163 354.089C106.09 354.531 105.926 354.953 105.681 355.328C105.443 355.712 105.131 356.044 104.763 356.304C104.395 356.565 103.978 356.749 103.538 356.846L93.5464 359.156L95.3864 367.15C95.4947 367.582 95.5113 368.032 95.4353 368.471C95.3592 368.91 95.1922 369.328 94.9448 369.699C94.7072 370.076 94.3941 370.4 94.0252 370.65C93.6562 370.9 93.2395 371.071 92.8012 371.152C92.3622 371.262 91.9056 371.283 91.4584 371.214C91.0112 371.144 90.5825 370.986 90.1976 370.747C89.8142 370.522 89.482 370.219 89.2222 369.858C88.9624 369.497 88.7808 369.085 88.6888 368.65L86.8488 360.563L76.9404 362.854C76.5134 362.957 76.07 362.973 75.6368 362.9C75.2036 362.827 74.7895 362.668 74.4196 362.431C74.0352 362.205 73.7018 361.902 73.4405 361.541C73.1792 361.18 72.9957 360.769 72.9016 360.333C72.797 359.903 72.7806 359.457 72.8533 359.02C72.926 358.584 73.0864 358.167 73.3248 357.794C73.5523 357.413 73.856 357.083 74.217 356.825C74.5779 356.567 74.9883 356.386 75.4224 356.294L98.6064 350.949L97.5208 346.23L74.4012 351.556C73.9732 351.666 73.5275 351.687 73.0911 351.619C72.6546 351.551 72.2365 351.395 71.862 351.161C71.478 350.93 71.1463 350.622 70.8881 350.256C70.6299 349.89 70.4509 349.475 70.3624 349.036L67.7496 337.72C67.5485 336.85 67.7011 335.936 68.1738 335.178C68.6465 334.421 69.4007 333.882 70.2704 333.681L80.1328 331.408L78.2928 323.404C78.1862 322.981 78.1654 322.541 78.2317 322.109C78.2981 321.678 78.4503 321.264 78.6792 320.893C78.9219 320.49 79.2477 320.144 79.6348 319.878C80.0219 319.611 80.4614 319.43 80.924 319.347C81.3495 319.244 81.7915 319.228 82.2233 319.301C82.6551 319.374 83.0675 319.533 83.4356 319.77C83.8134 320.003 84.1403 320.309 84.3964 320.671C84.6526 321.033 84.8327 321.444 84.926 321.877L86.766 329.872L96.886 327.554C97.3238 327.448 97.7786 327.431 98.2228 327.506C98.6671 327.58 99.0918 327.743 99.4712 327.986C99.8551 328.207 100.189 328.505 100.452 328.861C100.715 329.217 100.901 329.624 100.998 330.056C101.192 330.946 101.03 331.876 100.547 332.648C100.064 333.42 99.2982 333.972 98.4132 334.187L75.2292 339.532L76.2412 344.224L99.3424 338.897C99.7802 338.791 100.235 338.775 100.679 338.849C101.124 338.923 101.548 339.087 101.928 339.33C102.318 339.546 102.658 339.842 102.926 340.199C103.194 340.556 103.383 340.965 103.482 341.4Z" fill="#F2F7FA"/>
</g>
<path d="M193.262 305.606C205.659 290.937 203.817 268.995 189.147 256.598C174.477 244.202 152.536 246.044 140.139 260.714C127.742 275.383 129.584 297.325 144.254 309.722C158.924 322.119 180.866 320.276 193.262 305.606Z" fill="#5CADF8"/>
<path opacity="0.4" d="M193.262 305.606C205.659 290.937 203.817 268.995 189.147 256.598C174.477 244.202 152.536 246.044 140.139 260.714C127.742 275.383 129.584 297.325 144.254 309.722C158.924 322.119 180.866 320.276 193.262 305.606Z" fill="#132043"/>
<path opacity="0.2" d="M189.209 301.74C199.485 289.31 197.739 270.904 185.309 260.628C172.879 250.353 154.473 252.099 144.197 264.529C133.922 276.959 135.668 295.365 148.098 305.641C160.528 315.916 178.934 314.17 189.209 301.74Z" fill="#132043"/>
<path d="M190.09 302.046C199.492 289.745 197.141 272.152 184.84 262.751C172.54 253.35 154.947 255.701 145.546 268.001C136.145 280.302 138.495 297.895 150.796 307.296C163.096 316.697 180.689 314.346 190.09 302.046Z" fill="#5CADF8"/>
<path opacity="0.4" d="M190.09 302.046C199.492 289.745 197.141 272.152 184.84 262.751C172.54 253.35 154.947 255.701 145.546 268.001C136.145 280.302 138.495 297.895 150.796 307.296C163.096 316.697 180.689 314.346 190.09 302.046Z" fill="#132043"/>
<path d="M178.196 286.015L176.218 293.908C176.146 294.208 176.012 294.49 175.825 294.736C175.638 294.981 175.402 295.185 175.132 295.334C174.859 295.5 174.555 295.609 174.239 295.655C173.923 295.701 173.601 295.683 173.292 295.601L166.401 293.862L165.003 299.382C164.932 299.684 164.798 299.967 164.611 300.214C164.425 300.461 164.188 300.667 163.917 300.817C163.656 300.979 163.365 301.086 163.061 301.132C162.758 301.178 162.448 301.162 162.151 301.084C161.845 301.012 161.556 300.88 161.302 300.695C161.047 300.51 160.833 300.277 160.67 300.008C160.504 299.745 160.393 299.451 160.346 299.144C160.298 298.837 160.315 298.523 160.394 298.223L161.801 292.611L154.901 290.927C154.602 290.856 154.321 290.724 154.074 290.541C153.828 290.357 153.621 290.126 153.466 289.86C153.3 289.599 153.189 289.307 153.142 289.001C153.094 288.696 153.111 288.383 153.19 288.085C153.259 287.782 153.389 287.497 153.573 287.247C153.756 286.997 153.989 286.787 154.257 286.631C154.522 286.469 154.816 286.363 155.123 286.319C155.43 286.275 155.743 286.293 156.042 286.373L172.142 290.412L172.97 287.137L156.916 283.107C156.615 283.04 156.332 282.911 156.083 282.729C155.835 282.547 155.626 282.316 155.472 282.049C155.305 281.787 155.196 281.492 155.151 281.185C155.107 280.877 155.128 280.563 155.214 280.265L157.183 272.399C157.257 272.099 157.39 271.817 157.574 271.568C157.757 271.32 157.989 271.111 158.254 270.953C158.519 270.794 158.813 270.69 159.119 270.646C159.424 270.602 159.736 270.619 160.035 270.697L166.861 272.408L168.26 266.888C168.327 266.576 168.459 266.282 168.646 266.024C168.833 265.765 169.071 265.549 169.346 265.387C169.621 265.225 169.926 265.122 170.242 265.085C170.559 265.047 170.88 265.075 171.185 265.167C171.482 265.236 171.761 265.366 172.005 265.548C172.249 265.73 172.452 265.961 172.602 266.225C172.765 266.488 172.872 266.78 172.918 267.086C172.964 267.391 172.947 267.702 172.869 268.001L171.47 273.521L178.462 275.278C178.769 275.351 179.058 275.486 179.311 275.674C179.564 275.863 179.776 276.1 179.934 276.373C180.102 276.631 180.215 276.922 180.265 277.226C180.316 277.529 180.304 277.84 180.229 278.139C180.152 278.446 180.015 278.734 179.825 278.987C179.636 279.239 179.398 279.452 179.125 279.611C178.853 279.78 178.55 279.892 178.233 279.94C177.917 279.987 177.594 279.969 177.285 279.887L161.176 275.849L160.366 279.105L176.411 283.126C176.718 283.199 177.006 283.334 177.259 283.522C177.512 283.71 177.724 283.948 177.883 284.221C178.06 284.48 178.18 284.774 178.234 285.084C178.288 285.393 178.275 285.711 178.196 286.015Z" fill="#5CADF8"/>
<g opacity="0.7">
<path d="M178.196 286.015L176.218 293.908C176.146 294.208 176.012 294.49 175.825 294.736C175.638 294.981 175.402 295.185 175.132 295.334C174.859 295.5 174.555 295.609 174.239 295.655C173.923 295.701 173.601 295.683 173.292 295.601L166.401 293.862L165.003 299.382C164.932 299.684 164.798 299.967 164.611 300.214C164.425 300.461 164.188 300.667 163.917 300.817C163.656 300.979 163.365 301.086 163.061 301.132C162.758 301.178 162.448 301.162 162.151 301.084C161.845 301.012 161.556 300.88 161.302 300.695C161.047 300.51 160.833 300.277 160.67 300.008C160.504 299.745 160.393 299.451 160.346 299.144C160.298 298.837 160.315 298.523 160.394 298.223L161.801 292.611L154.901 290.927C154.602 290.856 154.321 290.724 154.074 290.541C153.828 290.357 153.621 290.126 153.466 289.86C153.3 289.599 153.189 289.307 153.142 289.001C153.094 288.696 153.111 288.383 153.19 288.085C153.259 287.782 153.389 287.497 153.573 287.247C153.756 286.997 153.989 286.787 154.257 286.631C154.522 286.469 154.816 286.363 155.123 286.319C155.43 286.275 155.743 286.293 156.042 286.373L172.142 290.412L172.97 287.137L156.916 283.107C156.615 283.04 156.332 282.911 156.083 282.729C155.835 282.547 155.626 282.316 155.472 282.049C155.305 281.787 155.196 281.492 155.151 281.185C155.107 280.877 155.128 280.563 155.214 280.265L157.183 272.399C157.257 272.099 157.39 271.817 157.574 271.568C157.757 271.32 157.989 271.111 158.254 270.953C158.519 270.794 158.813 270.69 159.119 270.646C159.424 270.602 159.736 270.619 160.035 270.697L166.861 272.408L168.26 266.888C168.327 266.576 168.459 266.282 168.646 266.024C168.833 265.765 169.071 265.549 169.346 265.387C169.621 265.225 169.926 265.122 170.242 265.085C170.559 265.047 170.88 265.075 171.185 265.167C171.482 265.236 171.761 265.366 172.005 265.548C172.249 265.73 172.452 265.961 172.602 266.225C172.765 266.488 172.872 266.78 172.918 267.086C172.964 267.391 172.947 267.702 172.869 268.001L171.47 273.521L178.462 275.278C178.769 275.351 179.058 275.486 179.311 275.674C179.564 275.863 179.776 276.1 179.934 276.373C180.102 276.631 180.215 276.922 180.265 277.226C180.316 277.529 180.304 277.84 180.229 278.139C180.152 278.446 180.015 278.734 179.825 278.987C179.636 279.239 179.398 279.452 179.125 279.611C178.853 279.78 178.55 279.892 178.233 279.94C177.917 279.987 177.594 279.969 177.285 279.887L161.176 275.849L160.366 279.105L176.411 283.126C176.718 283.199 177.006 283.334 177.259 283.522C177.512 283.71 177.724 283.948 177.883 284.221C178.06 284.48 178.18 284.774 178.234 285.084C178.288 285.393 178.275 285.711 178.196 286.015Z" fill="#F2F7FA"/>
</g>
<path d="M81.9991 493.295H81.0791V503.682H81.9991V493.295Z" fill="#5CADF8"/>
<path opacity="0.1" d="M81.9991 493.295H81.0791V503.682H81.9991V493.295Z" fill="#132043"/>
<path d="M352.921 411.002H352.001V425.234H352.921V411.002Z" fill="#5CADF8"/>
<path d="M352.921 432.705H352.001V440.424H352.921V432.705Z" fill="#5CADF8"/>
<path opacity="0.1" d="M352.921 411.002H352.001V425.234H352.921V411.002Z" fill="#132043"/>
<path opacity="0.1" d="M352.921 432.705H352.001V440.424H352.921V432.705Z" fill="#132043"/>
<path d="M335.864 349.289H98.1448C90.4979 349.289 84.2988 355.488 84.2988 363.135V502.285C84.2988 509.932 90.4979 516.131 98.1448 516.131H335.864C343.511 516.131 349.71 509.932 349.71 502.285V363.135C349.71 355.488 343.511 349.289 335.864 349.289Z" fill="#5CADF8"/>
<path opacity="0.2" d="M335.864 349.289H98.1448C90.4979 349.289 84.2988 355.488 84.2988 363.135V502.285C84.2988 509.932 90.4979 516.131 98.1448 516.131H335.864C343.511 516.131 349.71 509.932 349.71 502.285V363.135C349.71 355.488 343.511 349.289 335.864 349.289Z" fill="#132043"/>
<path d="M306.746 407.388C311.301 407.388 315.67 405.578 318.891 402.357C322.113 399.136 323.922 394.767 323.922 390.212C323.922 385.656 322.113 381.287 318.891 378.066C315.67 374.845 311.301 373.035 306.746 373.035H284.574C280.018 373.035 275.65 374.845 272.428 378.066C269.207 381.287 267.397 385.656 267.397 390.212C267.397 394.767 269.207 399.136 272.428 402.357C275.65 405.578 280.018 407.388 284.574 407.388H306.746Z" fill="#5CADF8"/>
<path d="M156.961 407.379H116.049C112.756 407.379 110.087 410.048 110.087 413.34V440.085C110.087 443.377 112.756 446.046 116.049 446.046H156.961C160.253 446.046 162.923 443.377 162.923 440.085V413.34C162.923 410.048 160.253 407.379 156.961 407.379Z" fill="#5CADF8"/>
<path opacity="0.3" d="M156.961 407.379H116.049C112.756 407.379 110.087 410.048 110.087 413.34V440.085C110.087 443.377 112.756 446.046 116.049 446.046H156.961C160.253 446.046 162.923 443.377 162.923 440.085V413.34C162.923 410.048 160.253 407.379 156.961 407.379Z" fill="#F2F7FA"/>
<path d="M185.269 368.812H114.31C111.978 368.812 110.087 370.701 110.087 373.031C110.087 375.36 111.978 377.249 114.31 377.249H185.269C187.602 377.249 189.492 375.36 189.492 373.031C189.492 370.701 187.602 368.812 185.269 368.812Z" fill="#5CADF8"/>
<path opacity="0.3" d="M185.269 368.812H114.31C111.978 368.812 110.087 370.701 110.087 373.031C110.087 375.36 111.978 377.249 114.31 377.249H185.269C187.602 377.249 189.492 375.36 189.492 373.031C189.492 370.701 187.602 368.812 185.269 368.812Z" fill="#F2F7FA"/>
<path d="M148.193 465.234H116.279C112.859 465.234 110.087 468.006 110.087 471.426V477.213C110.087 480.632 112.859 483.404 116.279 483.404H148.193C151.613 483.404 154.385 480.632 154.385 477.213V471.426C154.385 468.006 151.613 465.234 148.193 465.234Z" fill="#5CADF8"/>
<path opacity="0.3" d="M148.193 465.234H116.279C112.859 465.234 110.087 468.006 110.087 471.426V477.213C110.087 480.632 112.859 483.404 116.279 483.404H148.193C151.613 483.404 154.385 480.632 154.385 477.213V471.426C154.385 468.006 151.613 465.234 148.193 465.234Z" fill="#F2F7FA"/>
<path d="M204.699 465.234H172.784C169.365 465.234 166.593 468.006 166.593 471.426V477.213C166.593 480.632 169.365 483.404 172.784 483.404H204.699C208.119 483.404 210.891 480.632 210.891 477.213V471.426C210.891 468.006 208.119 465.234 204.699 465.234Z" fill="#5CADF8"/>
<path opacity="0.3" d="M204.699 465.234H172.784C169.365 465.234 166.593 468.006 166.593 471.426V477.213C166.593 480.632 169.365 483.404 172.784 483.404H204.699C208.119 483.404 210.891 480.632 210.891 477.213V471.426C210.891 468.006 208.119 465.234 204.699 465.234Z" fill="#F2F7FA"/>
<path d="M261.215 465.234H229.3C225.88 465.234 223.108 468.006 223.108 471.426V477.213C223.108 480.632 225.88 483.404 229.3 483.404H261.215C264.634 483.404 267.406 480.632 267.406 477.213V471.426C267.406 468.006 264.634 465.234 261.215 465.234Z" fill="#5CADF8"/>
<path opacity="0.3" d="M261.215 465.234H229.3C225.88 465.234 223.108 468.006 223.108 471.426V477.213C223.108 480.632 225.88 483.404 229.3 483.404H261.215C264.634 483.404 267.406 480.632 267.406 477.213V471.426C267.406 468.006 264.634 465.234 261.215 465.234Z" fill="#F2F7FA"/>
<path d="M317.722 465.234H285.807C282.387 465.234 279.615 468.006 279.615 471.426V477.213C279.615 480.632 282.387 483.404 285.807 483.404H317.722C321.141 483.404 323.913 480.632 323.913 477.213V471.426C323.913 468.006 321.141 465.234 317.722 465.234Z" fill="#5CADF8"/>
<path opacity="0.3" d="M317.722 465.234H285.807C282.387 465.234 279.615 468.006 279.615 471.426V477.213C279.615 480.632 282.387 483.404 285.807 483.404H317.722C321.141 483.404 323.913 480.632 323.913 477.213V471.426C323.913 468.006 321.141 465.234 317.722 465.234Z" fill="#F2F7FA"/>
<path d="M256.559 288.919C254.378 295.073 251.959 301.026 249.392 306.978C246.794 313.031 243.813 318.913 240.468 324.587C240.017 325.314 239.548 326.041 239.06 326.767L238.702 327.31L238.214 327.982C237.883 328.405 237.57 328.773 237.294 329.132C236.135 330.424 234.906 331.653 233.614 332.812C231.158 335.084 228.655 337.145 226.125 339.178C221.047 343.208 215.858 346.98 210.485 350.559L207.274 346.575L220.798 333.244C223.034 331.027 225.251 328.791 227.321 326.556C228.342 325.443 229.336 324.302 230.155 323.253C230.357 322.995 230.532 322.738 230.688 322.517L230.882 322.204L231.148 321.726C231.507 321.091 231.884 320.475 232.234 319.821C235.049 314.531 237.533 308.781 239.925 302.949C242.317 297.116 244.617 291.237 246.825 285.404L256.559 288.919Z" fill="#E4897B"/>
<path d="M259.144 284.486C261.233 290.594 248.96 308.562 248.96 308.562L237.239 302.039C239.236 296.433 241.597 290.963 244.305 285.663C248.408 277.898 256.854 277.779 259.144 284.486Z" fill="#5CADF8"/>
<path opacity="0.7" d="M259.144 284.486C261.233 290.594 248.96 308.562 248.96 308.562L237.239 302.039C239.236 296.433 241.597 290.963 244.305 285.663C248.408 277.898 256.854 277.779 259.144 284.486Z" fill="#F2F7FA"/>
<path opacity="0.31" d="M259.319 285.25C256.688 283.99 253.661 285.048 250.468 290.089C247.276 295.131 244.562 303.549 244.268 305.95L248.969 308.554C248.969 308.554 260.294 291.957 259.319 285.25Z" fill="#5CADF8"/>
<path d="M251.205 279.811C251.205 279.811 242.447 300.41 248.758 338.765H285.236C285.687 333.162 283.111 305.847 289.431 279.462C285.415 278.68 281.352 278.164 277.269 277.916C272.105 277.622 266.93 277.622 261.767 277.916C258.203 278.278 254.672 278.912 251.205 279.811Z" fill="#5CADF8"/>
<path opacity="0.7" d="M251.205 279.811C251.205 279.811 242.447 300.41 248.758 338.765H285.236C285.687 333.162 283.111 305.847 289.431 279.462C285.415 278.68 281.352 278.164 277.269 277.916C272.105 277.622 266.93 277.622 261.767 277.916C258.203 278.278 254.672 278.912 251.205 279.811Z" fill="#F2F7FA"/>
<path d="M298.152 502.176L292.752 507.015L282.457 496.306L287.867 491.467L298.152 502.176Z" fill="#E4897B"/>
<path d="M279.633 512.249H272.816L271.933 496.453H278.75L279.633 512.249Z" fill="#E4897B"/>
<path d="M282.467 496.306L287.766 501.826L293.176 496.987L287.876 491.467L282.467 496.306Z" fill="#CE6F64"/>
<path d="M278.75 496.463H271.933L272.393 504.605H279.21L278.75 496.463Z" fill="#CE6F64"/>
<path d="M248.758 338.764C248.758 338.764 241.573 388.499 239.126 415.565C237.157 437.286 284.123 502.045 284.123 502.045L293.203 493.498C293.203 493.498 258.906 435.437 261.546 411.26C264.104 387.846 272.77 338.736 272.77 338.736L248.758 338.764Z" fill="#5CADF8"/>
<path opacity="0.7" d="M248.758 338.764C248.758 338.764 241.573 388.499 239.126 415.565C237.157 437.286 284.123 502.045 284.123 502.045L293.203 493.498C293.203 493.498 258.906 435.437 261.546 411.26C264.104 387.846 272.77 338.736 272.77 338.736L248.758 338.764Z" fill="#132043"/>
<path opacity="0.2" d="M261.545 411.288C262.861 399.226 265.805 380.33 268.335 364.855C267.01 362.261 263.293 357.008 263.293 357.008C259.963 368.517 252.722 411.904 263.054 470.499C273.818 487.85 284.122 502.073 284.122 502.073L285.53 479.699C275.584 460.986 259.714 428.004 261.545 411.288Z" fill="#132043"/>
<path d="M261.73 338.764C261.73 338.764 261.086 390.882 262.19 410.413C263.395 431.794 269.467 502.634 269.467 502.634H281.96C281.96 502.634 281.583 433.523 282.319 412.363C283.138 389.364 285.254 338.764 285.254 338.764H261.73Z" fill="#5CADF8"/>
<path opacity="0.7" d="M261.73 338.764C261.73 338.764 261.086 390.882 262.19 410.413C263.395 431.794 269.467 502.634 269.467 502.634H281.96C281.96 502.634 281.583 433.523 282.319 412.363C283.138 389.364 285.254 338.764 285.254 338.764H261.73Z" fill="#132043"/>
<path d="M272.457 511.467H280.12C280.248 511.462 280.373 511.508 280.468 511.594C280.562 511.68 280.619 511.799 280.626 511.927L281.004 517.99C281.005 518.148 280.975 518.305 280.915 518.452C280.856 518.599 280.768 518.732 280.657 518.845C280.546 518.958 280.414 519.047 280.268 519.109C280.122 519.171 279.966 519.203 279.808 519.204C277.14 519.158 275.861 519.002 272.494 519.002C270.424 519.002 261.61 519.223 258.749 519.223C255.888 519.223 255.989 516.389 257.176 516.132C262.613 514.982 269.356 513.372 271.288 511.881C271.622 511.618 272.032 511.472 272.457 511.467Z" fill="#132043"/>
<path d="M291.262 505.082L297.831 500.657C297.938 500.572 298.071 500.525 298.208 500.525C298.345 500.525 298.478 500.572 298.585 500.657L303.608 505.726C303.706 505.837 303.779 505.969 303.82 506.111C303.862 506.254 303.871 506.404 303.848 506.55C303.826 506.697 303.771 506.837 303.688 506.96C303.605 507.083 303.496 507.186 303.369 507.262C299.174 510.492 296.147 512.93 293.755 515.616C290.995 518.753 289.505 519.204 283.065 519.204C280.084 519.204 278.4 516.692 279.615 516.306C290.342 512.911 287.471 511.43 290.084 506.453C290.357 505.905 290.761 505.434 291.262 505.082Z" fill="#132043"/>
<path d="M208.821 345.721L201.709 345.969L203.199 351.544C203.199 351.544 210.633 352.207 211.295 349.962L208.821 345.721Z" fill="#E4897B"/>
<path d="M194.036 349.29L199.023 352.197L203.199 351.544L201.709 345.969L194.036 349.29Z" fill="#E4897B"/>
<path opacity="0.31" d="M281.279 285.976C280.525 290.318 281.527 300.696 285.253 312.711C285.545 302.417 286.743 292.168 288.832 282.084V282.029C286.44 281.79 282.006 281.9 281.279 285.976Z" fill="#5CADF8"/>
<path d="M276.339 260.455C275.189 265.441 273.892 274.586 277.259 277.935C277.259 277.935 275.806 282.066 266.532 282.066C256.338 282.066 261.757 277.935 261.757 277.935C267.369 276.61 267.369 272.479 266.532 268.606L276.339 260.455Z" fill="#E4897B"/>
<path d="M266.274 282.049L263.514 284.984L264.866 287.817L267.065 287.918L268.942 285.214L266.274 282.049Z" fill="#5CADF8"/>
<path d="M272.346 263.775L266.541 268.578C266.75 269.485 266.879 270.408 266.927 271.338C269.062 271.034 272.061 268.697 272.365 266.471C272.527 265.579 272.521 264.665 272.346 263.775Z" fill="#CE6F64"/>
<path d="M264.241 243.546C260.755 244.733 257.967 253.979 262.033 256.426C266.1 258.873 270.865 241.292 264.241 243.546Z" fill="#132043"/>
<path d="M278.52 255.23C276.441 261.67 275.558 265.562 271.363 268.202C270.009 269.072 268.444 269.555 266.836 269.6C265.227 269.644 263.638 269.248 262.239 268.454C260.839 267.66 259.684 266.499 258.897 265.096C258.11 263.692 257.722 262.101 257.774 260.493C257.857 254.301 261.243 244.77 268.373 243.574C269.909 243.277 271.497 243.39 272.977 243.9C274.456 244.41 275.776 245.299 276.803 246.48C277.831 247.66 278.531 249.09 278.832 250.626C279.133 252.161 279.026 253.749 278.52 255.23Z" fill="#E4897B"/>
<path d="M283.671 244.465C281.592 249.488 286.431 245.293 285.18 251.255C284.37 255.137 277.36 264.438 274.655 263.592C271.95 262.745 271.978 256.149 275.428 251.485C277.415 248.807 273.119 245.771 263.468 246.093C253.817 246.415 247.984 240.987 260.809 237.004C260.809 237.004 256.08 239.764 258.886 240.684C262.861 242.165 287.839 234.4 283.671 244.465Z" fill="#132043"/>
<path d="M281.831 246.764C281.73 246.764 283.993 246.203 285.199 242.164C285.199 242.228 284.803 248.181 281.831 246.764Z" fill="#132043"/>
<path d="M263.772 237.896C257.838 239.736 260.295 241.806 262.751 242.322L268.381 240.114C259.825 241.245 263.772 237.896 263.772 237.896Z" fill="#132043"/>
<path d="M279.66 263.096C278.427 264.295 276.781 264.977 275.06 265.001C272.788 265.001 272.3 262.848 273.524 261.045C274.61 259.426 277.094 257.475 279.099 258.349C281.105 259.223 281.169 261.615 279.66 263.096Z" fill="#E4897B"/>
<path d="M268.041 254.87C267.903 255.404 267.508 255.79 267.121 255.698C266.735 255.606 266.597 255.119 266.735 254.585C266.873 254.051 267.268 253.665 267.655 253.766C268.041 253.867 268.179 254.337 268.041 254.87Z" fill="#132043"/>
<path d="M261.969 253.537C261.831 254.071 261.435 254.457 261.049 254.365C260.663 254.273 260.525 253.795 260.663 253.261C260.801 252.728 261.187 252.342 261.583 252.434C261.978 252.526 262.079 253.004 261.969 253.537Z" fill="#132043"/>
<path d="M263.827 254.227C262.781 255.716 261.544 257.062 260.147 258.229C260.455 258.57 260.833 258.84 261.256 259.02C261.679 259.199 262.136 259.284 262.595 259.268L263.827 254.227Z" fill="#DE5753"/>
<path d="M264.84 261.209C264.459 261.208 264.079 261.165 263.708 261.08C263.667 261.069 263.632 261.043 263.61 261.007C263.588 260.971 263.58 260.928 263.588 260.887C263.599 260.846 263.625 260.811 263.661 260.789C263.697 260.766 263.74 260.759 263.782 260.767C264.459 260.918 265.162 260.914 265.837 260.754C266.513 260.595 267.144 260.285 267.682 259.847C267.713 259.817 267.754 259.801 267.797 259.801C267.84 259.801 267.881 259.817 267.912 259.847C267.942 259.878 267.959 259.919 267.959 259.962C267.959 260.005 267.942 260.046 267.912 260.077C267.058 260.813 265.967 261.215 264.84 261.209Z" fill="#132043"/>
<path d="M270.452 253.333C270.389 253.334 270.328 253.316 270.275 253.281C270.223 253.247 270.182 253.197 270.158 253.139C270.007 252.77 269.769 252.443 269.465 252.185C269.16 251.927 268.798 251.747 268.41 251.658C268.367 251.653 268.326 251.639 268.289 251.617C268.252 251.595 268.22 251.567 268.194 251.532C268.169 251.498 268.15 251.459 268.14 251.417C268.129 251.376 268.127 251.333 268.134 251.29C268.147 251.206 268.193 251.129 268.262 251.078C268.331 251.026 268.416 251.004 268.502 251.014C268.997 251.115 269.461 251.336 269.852 251.656C270.243 251.977 270.55 252.388 270.746 252.854C270.765 252.893 270.775 252.935 270.776 252.977C270.777 253.02 270.77 253.062 270.755 253.102C270.739 253.141 270.716 253.177 270.686 253.207C270.656 253.238 270.62 253.261 270.581 253.277C270.542 253.305 270.498 253.324 270.452 253.333Z" fill="#132043"/>
<path d="M259.917 250.894C259.843 250.894 259.772 250.868 259.715 250.821C259.649 250.765 259.607 250.686 259.598 250.6C259.59 250.514 259.615 250.428 259.669 250.361C259.993 249.958 260.405 249.634 260.874 249.416C261.343 249.197 261.856 249.089 262.374 249.1C262.416 249.104 262.457 249.116 262.495 249.135C262.533 249.155 262.566 249.181 262.594 249.214C262.621 249.246 262.642 249.284 262.654 249.325C262.667 249.365 262.672 249.408 262.668 249.45C262.666 249.493 262.655 249.535 262.636 249.573C262.617 249.611 262.59 249.645 262.557 249.673C262.524 249.701 262.486 249.721 262.445 249.734C262.404 249.746 262.361 249.749 262.318 249.744C261.905 249.74 261.495 249.831 261.122 250.009C260.749 250.188 260.422 250.45 260.166 250.775C260.136 250.812 260.098 250.843 260.055 250.863C260.012 250.884 259.965 250.895 259.917 250.894Z" fill="#132043"/>
<path d="M291.197 284.162C291.915 285.275 292.513 286.26 293.12 287.327C293.727 288.394 294.307 289.425 294.877 290.492C296 292.617 297.058 294.788 298.024 297.005C300.05 301.544 301.571 306.292 302.559 311.164L302.651 311.633L302.697 311.863L302.762 312.25C302.84 312.764 302.88 313.284 302.881 313.804C302.872 314.676 302.78 315.545 302.605 316.399C302.294 317.807 301.844 319.182 301.262 320.502C300.229 322.815 298.998 325.035 297.582 327.135C294.906 331.13 291.863 334.866 288.492 338.295L284.49 335.084C286.717 331.202 288.934 327.172 290.792 323.225C291.706 321.338 292.487 319.389 293.129 317.392C293.392 316.56 293.57 315.703 293.663 314.835C293.695 314.551 293.695 314.264 293.663 313.979C293.663 313.896 293.663 313.823 293.608 313.814C293.552 313.804 293.608 313.814 293.608 313.768L293.552 313.584L293.442 313.206C292.861 311.177 292.17 309.181 291.372 307.226C290.562 305.23 289.661 303.243 288.713 301.265C287.766 299.287 286.744 297.336 285.696 295.386C285.18 294.411 284.638 293.445 284.095 292.488L282.476 289.728L291.197 284.162Z" fill="#E4897B"/>
<path d="M270.046 512.643C269.587 512.69 269.127 512.561 268.758 512.285C268.654 512.169 268.581 512.029 268.546 511.878C268.51 511.727 268.514 511.569 268.556 511.42C268.576 511.319 268.621 511.225 268.687 511.147C268.753 511.068 268.838 511.007 268.933 510.969C269.77 510.638 271.693 511.963 271.914 512.11C271.941 512.127 271.962 512.152 271.974 512.182C271.985 512.212 271.987 512.245 271.978 512.275C271.973 512.306 271.959 512.335 271.938 512.358C271.917 512.381 271.889 512.397 271.859 512.404C271.264 512.547 270.657 512.627 270.046 512.643ZM269.246 511.236C269.182 511.225 269.117 511.225 269.053 511.236C269.006 511.253 268.965 511.282 268.934 511.321C268.903 511.36 268.883 511.407 268.878 511.457C268.844 511.553 268.837 511.656 268.856 511.757C268.876 511.857 268.921 511.95 268.988 512.027C269.301 512.34 270.193 512.377 271.417 512.137C270.766 511.686 270.026 511.382 269.246 511.245V511.236Z" fill="#F2F7FA"/>
<path d="M271.822 512.414H271.739C271.058 512.009 270.046 510.574 270.203 509.838C270.23 509.703 270.302 509.581 270.407 509.493C270.512 509.404 270.645 509.354 270.782 509.351C270.904 509.335 271.027 509.346 271.143 509.385C271.259 509.423 271.366 509.487 271.454 509.571C272.144 510.243 271.988 512.202 271.988 512.285C271.984 512.313 271.974 512.339 271.958 512.361C271.942 512.384 271.92 512.402 271.896 512.414H271.822ZM270.902 509.654H270.828C270.598 509.654 270.543 509.792 270.525 509.884C270.424 510.372 271.095 511.448 271.684 511.945C271.769 511.199 271.614 510.445 271.242 509.792C271.196 509.747 271.141 509.712 271.081 509.688C271.021 509.664 270.957 509.653 270.893 509.654H270.902Z" fill="#F2F7FA"/>
<path d="M286.846 508.781C286.676 508.786 286.507 508.755 286.35 508.689C286.228 508.64 286.121 508.563 286.036 508.464C285.951 508.364 285.891 508.246 285.862 508.118C285.838 508.041 285.835 507.959 285.853 507.88C285.871 507.801 285.909 507.728 285.963 507.668C286.58 506.922 289.809 507.143 290.177 507.171C290.211 507.172 290.244 507.184 290.271 507.206C290.297 507.227 290.316 507.257 290.324 507.29C290.331 507.324 290.328 507.358 290.315 507.389C290.301 507.421 290.279 507.447 290.25 507.465C289.223 508.142 288.062 508.591 286.846 508.781ZM288.797 507.438C287.665 507.438 286.478 507.548 286.212 507.87C286.196 507.895 286.188 507.924 286.188 507.953C286.188 507.982 286.196 508.011 286.212 508.036C286.227 508.115 286.262 508.19 286.313 508.252C286.365 508.315 286.431 508.364 286.506 508.394C287.021 508.606 288.18 508.256 289.643 507.474L288.797 507.438Z" fill="#F2F7FA"/>
<path d="M290.167 507.492C289.247 507.492 287.177 506.783 287.021 506.047C287.021 505.863 287.021 505.606 287.462 505.394C289.045 504.649 290.268 507.151 290.323 507.234C290.334 507.26 290.34 507.289 290.34 507.317C290.34 507.346 290.334 507.374 290.323 507.4C290.308 507.428 290.286 507.452 290.258 507.468C290.23 507.484 290.199 507.492 290.167 507.492ZM288.042 505.587C287.886 505.586 287.731 505.62 287.591 505.689C287.398 505.781 287.306 505.882 287.324 505.974C287.416 506.406 288.907 507.013 289.882 507.142C289.587 506.645 288.879 505.587 288.042 505.587Z" fill="#F2F7FA"/>
<path d="M286.312 333.595L279.56 332.408L283.046 340.274C283.046 340.274 289.238 340.274 288.962 337.036L286.312 333.595Z" fill="#E4897B"/>
<path d="M274.454 336.355L277.647 342.712L283.01 340.265L279.523 332.408L274.454 336.355Z" fill="#E4897B"/>
<path d="M293.755 493.004L283.571 502.599L280.286 499.076L291.943 488.459L293.755 493.004Z" fill="#5CADF8"/>
<path opacity="0.6" d="M293.755 493.004L283.571 502.599L280.286 499.076L291.943 488.459L293.755 493.004Z" fill="#F2F7FA"/>
<path d="M282.457 502.634H268.961L268.216 497.896L283.111 498.632L282.457 502.634Z" fill="#5CADF8"/>
<path opacity="0.6" d="M282.457 502.634H268.961L268.216 497.896L283.111 498.632L282.457 502.634Z" fill="#F2F7FA"/>
<path d="M289.43 279.462C295.87 280.382 302.467 302.756 302.467 302.756L288.667 310.411C288.667 310.411 283.064 299.776 280.387 291.882C277.581 283.611 282.54 278.45 289.43 279.462Z" fill="#5CADF8"/>
<path opacity="0.7" d="M289.43 279.462C295.87 280.382 302.467 302.756 302.467 302.756L288.667 310.411C288.667 310.411 283.064 299.776 280.387 291.882C277.581 283.611 282.54 278.45 289.43 279.462Z" fill="#F2F7FA"/>
<path opacity="0.2" d="M266.274 282.049L263.514 284.984L264.866 287.817L267.065 287.918L268.942 285.214L266.274 282.049Z" fill="#132043"/>
<path d="M265.107 287.309C265.107 287.309 259.872 308.993 259.669 313.501C259.384 319.702 261.979 330.291 261.979 330.291C261.979 330.291 265.659 321.487 266.413 313.308C267.167 305.129 266.606 291.899 266.947 287.309H265.107Z" fill="#5CADF8"/>
<path opacity="0.2" d="M265.107 287.309C265.107 287.309 259.872 308.993 259.669 313.501C259.384 319.702 261.979 330.291 261.979 330.291C261.979 330.291 265.659 321.487 266.413 313.308C267.167 305.129 266.606 291.899 266.947 287.309H265.107Z" fill="#132043"/>
<path d="M266.274 282.048C267.323 283.745 267.93 285.678 268.041 287.669C268.041 287.669 279.522 283.621 278.98 277.687C278.98 277.687 277.351 276.721 276.321 275.939C276.321 275.939 275.934 279.675 266.274 282.048Z" fill="#5CADF8"/>
<path opacity="0.6" d="M266.274 282.048C267.323 283.745 267.93 285.678 268.041 287.669C268.041 287.669 279.522 283.621 278.98 277.687C278.98 277.687 277.351 276.721 276.321 275.939C276.321 275.939 275.934 279.675 266.274 282.048Z" fill="#F2F7FA"/>
<path d="M266.275 282.046C265.219 283.653 264.459 285.435 264.03 287.308C264.03 287.308 258.832 283.794 260.396 277.934C261.348 277.55 262.33 277.242 263.331 277.014C263.331 277.014 262.65 280.804 266.275 282.046Z" fill="#5CADF8"/>
<path opacity="0.6" d="M266.275 282.046C265.219 283.653 264.459 285.435 264.03 287.308C264.03 287.308 258.832 283.794 260.396 277.934C261.348 277.55 262.33 277.242 263.331 277.014C263.331 277.014 262.65 280.804 266.275 282.046Z" fill="#F2F7FA"/>
</g>
</g>
<defs>
<filter id="filter0_d_35_6314" x="-17" y="-413" width="719" height="719" filterUnits="userSpaceOnUse" color-interpolation-filters="sRGB">
<feFlood flood-opacity="0" result="BackgroundImageFix"/>
<feColorMatrix in="SourceAlpha" type="matrix" values="0 0 0 0 0 0 0 0 0 0 0 0 0 0 0 0 0 0 127 0" result="hardAlpha"/>
<feOffset dy="4"/>
<feGaussianBlur stdDeviation="2"/>
<feComposite in2="hardAlpha" operator="out"/>
<feColorMatrix type="matrix" values="0 0 0 0 0 0 0 0 0 0 0 0 0 0 0 0 0 0 0.25 0"/>
<feBlend mode="normal" in2="BackgroundImageFix" result="effect1_dropShadow_35_6314"/>
<feBlend mode="normal" in="SourceGraphic" in2="effect1_dropShadow_35_6314" result="shape"/>
</filter>
<clipPath id="clip0_35_6314">
<rect width="375" height="630" fill="white"/>
</clipPath>
<clipPath id="clip1_35_6314">
<rect width="460" height="342.8" fill="white" transform="translate(-13 186)"/>
</clipPath>
</defs>
</svg>
