<svg width="604" height="600" viewBox="0 0 604 600" fill="none" xmlns="http://www.w3.org/2000/svg">
<g clip-path="url(#clip0_9_449)">
<rect width="604" height="600" rx="16" fill="#F2F7FA"/>
<path d="M0 0L604.5 -1V606L303 303.5L0 0Z" fill="#F2F7FA"/>
<circle opacity="0.1" cx="693.5" cy="-164.5" r="355.5" fill="#5CADF8"/>
<g opacity="0.1" filter="url(#filter0_d_9_449)">
<circle cx="610.5" cy="-101.5" r="355.5" fill="#5CADF8"/>
</g>
<g clip-path="url(#clip1_9_449)">
<path d="M602 468.939H2V469.239H602V468.939Z" fill="#5CADF8" fill-opacity="0.5"/>
<path d="M455.192 481.648H413.912V481.948H455.192V481.648Z" fill="#5CADF8" fill-opacity="0.5"/>
<path d="M135.248 481.791H112.016V482.091H135.248V481.791Z" fill="#5CADF8" fill-opacity="0.5"/>
<path d="M303.199 481.096H256.111V481.396H303.199V481.096Z" fill="#5CADF8" fill-opacity="0.5"/>
<path d="M254.911 476.824H233.863V477.124H254.911V476.824Z" fill="#5CADF8" fill-opacity="0.5"/>
<path d="M511.473 476.967H447.885V477.267H511.473V476.967Z" fill="#5CADF8" fill-opacity="0.5"/>
<path d="M286.4 415.42H54.6916C52.8764 415.417 51.1366 414.694 49.8542 413.409C48.5718 412.124 47.8516 410.383 47.8516 408.568V82.8525C47.8674 81.0478 48.5946 79.3221 49.8753 78.0504C51.156 76.7787 52.8867 76.0636 54.6916 76.0605H286.4C288.217 76.0605 289.96 76.7825 291.245 78.0674C292.53 79.3524 293.252 81.0953 293.252 82.9125V408.568C293.252 410.385 292.53 412.128 291.245 413.413C289.96 414.698 288.217 415.42 286.4 415.42ZM54.6916 76.3005C52.9559 76.3037 51.2925 76.9954 50.0664 78.2238C48.8402 79.4522 48.1516 81.1169 48.1516 82.8525V408.568C48.1516 410.304 48.8402 411.968 50.0664 413.197C51.2925 414.425 52.9559 415.117 54.6916 415.12H286.4C288.136 415.117 289.801 414.426 291.029 413.197C292.257 411.969 292.948 410.305 292.952 408.568V82.8525C292.948 81.1158 292.257 79.4511 291.029 78.2231C289.801 76.995 288.136 76.3037 286.4 76.3005H54.6916Z" fill="#5CADF8" fill-opacity="0.5"/>
<path d="M545.972 415.42H314.252C312.436 415.417 310.695 414.694 309.411 413.41C308.127 412.125 307.404 410.384 307.4 408.568V82.8525C307.419 81.0467 308.149 79.321 309.432 78.0497C310.714 76.7783 312.446 76.0636 314.252 76.0605H545.972C547.775 76.0668 549.503 76.7832 550.781 78.0546C552.059 79.326 552.785 81.0498 552.8 82.8525V408.568C552.8 410.381 552.082 412.12 550.802 413.405C549.522 414.689 547.785 415.414 545.972 415.42ZM314.252 76.3005C312.516 76.3037 310.851 76.995 309.623 78.2231C308.395 79.4511 307.704 81.1158 307.7 82.8525V408.568C307.704 410.305 308.395 411.969 309.623 413.197C310.851 414.426 312.516 415.117 314.252 415.12H545.972C547.709 415.117 549.374 414.426 550.602 413.197C551.83 411.969 552.521 410.305 552.524 408.568V82.8525C552.521 81.1158 551.83 79.4511 550.602 78.2231C549.374 76.995 547.709 76.3037 545.972 76.3005H314.252Z" fill="#5CADF8" fill-opacity="0.5"/>
<path d="M509.636 98.418H346.1V288.978H509.636V98.418Z" fill="#5CADF8" fill-opacity="0.3"/>
<path d="M514.077 98.418H348.177V288.978H514.077V98.418Z" fill="#5CADF8" fill-opacity="0.5"/>
<path d="M509.636 288.965H346.1V299.645H509.636V288.965Z" fill="#5CADF8" fill-opacity="0.3"/>
<path d="M534.404 288.965H378.224V299.645H534.404V288.965Z" fill="#5CADF8" fill-opacity="0.5"/>
<path d="M507.859 280.888V106.492L354.403 106.492V280.888H507.859Z" fill="#5CADF8" fill-opacity="0.3"/>
<path d="M376.472 280.888L413 106.492H460.88L424.352 280.888H376.472Z" fill="#F2F7FA"/>
<path d="M432.104 280.888L468.62 106.492H490.243L453.728 280.888H432.104Z" fill="#F2F7FA"/>
<path d="M341.433 98.1397V165.988H359.433C359.433 165.988 391.677 144.952 399.033 101.668C399.207 100.637 399.155 99.5805 398.879 98.5719C398.604 97.5634 398.112 96.6269 397.439 95.8275C396.765 95.0281 395.925 94.3851 394.978 93.943C394.03 93.501 392.998 93.2705 391.953 93.2677H346.353C345.709 93.263 345.071 93.3854 344.475 93.628C343.879 93.8705 343.337 94.2285 342.88 94.6812C342.423 95.1339 342.06 95.6725 341.811 96.266C341.563 96.8595 341.434 97.4963 341.433 98.1397Z" fill="#5CADF8" fill-opacity="0.3"/>
<path d="M341.433 274.745V171.461H359.433C359.433 171.461 369.753 192.317 380.037 216.293C382.772 222.672 383.881 229.63 383.264 236.544C382.647 243.457 380.323 250.109 376.502 255.903C372.68 261.697 367.479 266.452 361.367 269.74C355.255 273.029 348.422 274.748 341.481 274.745H341.433Z" fill="#5CADF8" fill-opacity="0.3"/>
<path d="M358.856 165.988H342.092C341.098 165.988 340.292 166.794 340.292 167.788V169.66C340.292 170.654 341.098 171.46 342.092 171.46H358.856C359.85 171.46 360.656 170.654 360.656 169.66V167.788C360.656 166.794 359.85 165.988 358.856 165.988Z" fill="#5CADF8" fill-opacity="0.5"/>
<path d="M519.2 98.1398V165.988H501.2C501.2 165.988 468.944 144.952 461.6 101.668C461.426 100.638 461.478 99.5826 461.752 98.5749C462.027 97.5672 462.517 96.6313 463.19 95.8321C463.862 95.033 464.701 94.3897 465.646 93.9469C466.592 93.5041 467.623 93.2724 468.668 93.2678H514.268C514.912 93.2615 515.551 93.3827 516.149 93.6246C516.746 93.8664 517.29 94.2241 517.748 94.677C518.207 95.1299 518.571 95.669 518.82 96.2633C519.069 96.8576 519.198 97.4954 519.2 98.1398Z" fill="#5CADF8" fill-opacity="0.3"/>
<path d="M519.32 274.768V171.484H501.32C501.32 171.484 491 192.328 480.704 216.316C477.987 222.697 476.893 229.652 477.519 236.559C478.145 243.466 480.472 250.111 484.291 255.899C488.111 261.688 493.304 266.441 499.408 269.733C505.512 273.026 512.337 274.756 519.272 274.768H519.32Z" fill="#5CADF8" fill-opacity="0.3"/>
<path d="M501.74 171.461H518.504C519.498 171.461 520.304 170.655 520.304 169.661V167.789C520.304 166.795 519.498 165.989 518.504 165.989H501.74C500.746 165.989 499.94 166.795 499.94 167.789V169.661C499.94 170.655 500.746 171.461 501.74 171.461Z" fill="#5CADF8" fill-opacity="0.5"/>
<path d="M243.068 182.369H171.032V261.221H243.068V182.369Z" fill="#5CADF8" fill-opacity="0.3"/>
<path d="M253.197 182.369H174.933V261.221H253.197V182.369Z" fill="#5CADF8" fill-opacity="0.3"/>
<path d="M245.119 253.157V190.445H182.995V253.157H245.119Z" fill="#F2F7FA"/>
<path d="M197.6 221.8C197.603 217.872 199.166 214.105 201.945 211.329C204.723 208.552 208.491 206.992 212.42 206.992H215.756C219.682 206.995 223.447 208.557 226.223 211.333C228.999 214.109 230.56 217.874 230.564 221.8C230.564 223.745 230.181 225.67 229.436 227.467C228.692 229.264 227.601 230.896 226.226 232.271C224.851 233.646 223.219 234.737 221.422 235.481C219.626 236.225 217.7 236.608 215.756 236.608H212.42C210.474 236.61 208.547 236.228 206.749 235.484C204.951 234.741 203.317 233.65 201.941 232.275C200.565 230.9 199.473 229.267 198.728 227.47C197.983 225.672 197.6 223.746 197.6 221.8Z" fill="#5CADF8" fill-opacity="0.5"/>
<path d="M112.689 201.184C102.663 201.184 93.0489 197.201 85.96 190.113C78.8712 183.024 74.8887 173.409 74.8887 163.384C74.8887 153.359 78.8712 143.744 85.96 136.655C93.0489 129.566 102.663 125.584 112.689 125.584H119.517V201.184H112.689Z" fill="#5CADF8" fill-opacity="0.3"/>
<path d="M119.516 201.185C140.379 201.185 157.292 184.272 157.292 163.409C157.292 142.546 140.379 125.633 119.516 125.633C98.6531 125.633 81.7402 142.546 81.7402 163.409C81.7402 184.272 98.6531 201.185 119.516 201.185Z" fill="#5CADF8" fill-opacity="0.3"/>
<path d="M119.516 191.898C135.25 191.898 148.004 179.143 148.004 163.41C148.004 147.676 135.25 134.922 119.516 134.922C103.783 134.922 91.0283 147.676 91.0283 163.41C91.0283 179.143 103.783 191.898 119.516 191.898Z" fill="#F2F7FA"/>
<path d="M131.252 174.065L117.26 164.297L121.7 142.721L125.66 143.537L121.76 162.509L133.568 170.741L131.252 174.065Z" fill="#5CADF8" fill-opacity="0.3"/>
<path d="M424.807 334.061H373.315V473.188H424.807V334.061Z" fill="#5CADF8" fill-opacity="0.3"/>
<path d="M411.056 473.188H424.808V450.148H396.644L411.056 473.188Z" fill="#5CADF8" fill-opacity="0.3"/>
<path d="M116.107 334.061H64.6152V473.188H116.107V334.061Z" fill="#5CADF8" fill-opacity="0.3"/>
<path d="M424.82 334.061H104.108V465.256H424.82V334.061Z" fill="#5CADF8" fill-opacity="0.3"/>
<path d="M117.86 473.188H104.108V450.148H132.272L117.86 473.188Z" fill="#5CADF8" fill-opacity="0.3"/>
<path d="M414.152 345.34H114.776V393.628H414.152V345.34Z" fill="#5CADF8" fill-opacity="0.3"/>
<path d="M414.152 405.303H114.776V453.591H414.152V405.303Z" fill="#5CADF8" fill-opacity="0.3"/>
<path d="M370.256 345.34H114.776V393.628H370.256V345.34Z" fill="#5CADF8" fill-opacity="0.3"/>
<path d="M193.448 351.855H177.908C177.908 351.855 180.608 361.179 180.608 366.663C180.608 372.147 168.788 393.639 185.684 393.639C202.58 393.639 190.748 372.147 190.748 366.663C190.748 361.179 193.448 351.855 193.448 351.855Z" fill="#5CADF8" fill-opacity="0.3"/>
<path d="M132.271 368.057V376.541C132.271 385.949 141.367 393.641 152.479 393.641H162.499C173.611 393.641 182.707 385.949 182.707 376.541V368.057H132.271Z" fill="#5CADF8" fill-opacity="0.3"/>
<path d="M370.256 405.303H114.776V453.591H370.256V405.303Z" fill="#5CADF8" fill-opacity="0.3"/>
<path d="M258.26 452.717H282.188V412.865H258.26V452.717Z" fill="#F2F7FA"/>
<path d="M278.456 453.34H280.088V413.488H278.456V453.34Z" fill="#5CADF8" fill-opacity="0.5"/>
<path d="M280.208 453.641H284.384C284.702 453.641 284.96 453.383 284.96 453.065V413.753C284.96 413.435 284.702 413.177 284.384 413.177H280.208C279.89 413.177 279.632 413.435 279.632 413.753V453.065C279.632 453.383 279.89 453.641 280.208 453.641Z" fill="#F2F7FA"/>
<path d="M279.632 431.871H284.96V422.415H279.632V431.871Z" fill="#F2F7FA"/>
<path d="M279.632 440.621H284.96V434.789H279.632V440.621Z" fill="#F2F7FA"/>
<path d="M257.037 453.641H278.601C278.919 453.641 279.177 453.383 279.177 453.065V413.753C279.177 413.435 278.919 413.177 278.601 413.177H257.037C256.719 413.177 256.461 413.435 256.461 413.753V453.065C256.461 453.383 256.719 453.641 257.037 453.641Z" fill="#F2F7FA"/>
<path d="M246.584 452.621H272.984V408.653H246.584V452.621Z" fill="#F2F7FA"/>
<path d="M268.893 453.303H270.681V409.335H268.893V453.303Z" fill="#5CADF8" fill-opacity="0.5"/>
<path d="M270.812 453.641H275.42C275.771 453.641 276.056 453.356 276.056 453.005V409.637C276.056 409.285 275.771 409.001 275.42 409.001H270.812C270.46 409.001 270.176 409.285 270.176 409.637V453.005C270.176 453.356 270.46 453.641 270.812 453.641Z" fill="#5CADF8" fill-opacity="0.3"/>
<path d="M270.176 424.744H276.056V423.22H270.176V424.744Z" fill="#F2F7FA"/>
<path d="M270.176 429.16H276.056V427.636H270.176V429.16Z" fill="#F2F7FA"/>
<path d="M270.176 433.564H276.056V432.04H270.176V433.564Z" fill="#F2F7FA"/>
<path d="M245.252 453.641H269.036C269.387 453.641 269.672 453.356 269.672 453.005V409.637C269.672 409.285 269.387 409.001 269.036 409.001H245.252C244.901 409.001 244.616 409.285 244.616 409.637V453.005C244.616 453.356 244.901 453.641 245.252 453.641Z" fill="#5CADF8" fill-opacity="0.3"/>
<path d="M214.064 438.328C214.067 439.667 213.672 440.977 212.93 442.092C212.187 443.206 211.131 444.076 209.895 444.59C208.658 445.104 207.297 445.239 205.983 444.98C204.67 444.72 203.463 444.076 202.515 443.13C201.567 442.184 200.921 440.978 200.659 439.665C200.397 438.352 200.53 436.99 201.042 435.753C201.554 434.516 202.422 433.458 203.535 432.714C204.648 431.969 205.957 431.572 207.296 431.572C209.089 431.572 210.809 432.284 212.078 433.55C213.347 434.817 214.061 436.535 214.064 438.328Z" fill="#5CADF8" fill-opacity="0.3"/>
<path d="M202.532 441.556C202.532 442.602 202.222 443.625 201.64 444.496C201.059 445.366 200.232 446.044 199.265 446.445C198.298 446.845 197.234 446.95 196.208 446.746C195.181 446.542 194.238 446.038 193.498 445.298C192.758 444.558 192.254 443.615 192.05 442.588C191.846 441.562 191.951 440.497 192.351 439.53C192.752 438.564 193.43 437.737 194.3 437.156C195.17 436.574 196.194 436.264 197.24 436.264C198.643 436.267 199.987 436.825 200.979 437.817C201.971 438.809 202.529 440.153 202.532 441.556Z" fill="#5CADF8" fill-opacity="0.3"/>
<path d="M225.643 441.555C225.643 442.894 225.247 444.202 224.503 445.315C223.759 446.428 222.702 447.296 221.465 447.808C220.229 448.32 218.868 448.454 217.555 448.193C216.242 447.932 215.036 447.287 214.09 446.341C213.143 445.394 212.499 444.188 212.237 442.875C211.976 441.563 212.11 440.202 212.623 438.965C213.135 437.728 214.002 436.671 215.115 435.928C216.228 435.184 217.537 434.787 218.875 434.787C220.669 434.79 222.389 435.504 223.658 436.773C224.926 438.041 225.64 439.761 225.643 441.555Z" fill="#5CADF8" fill-opacity="0.3"/>
<path d="M236.732 439.575C236.732 440.913 236.335 442.222 235.592 443.335C234.848 444.448 233.791 445.315 232.554 445.827C231.318 446.34 229.957 446.474 228.644 446.213C227.331 445.951 226.125 445.307 225.179 444.36C224.232 443.414 223.587 442.208 223.326 440.895C223.065 439.582 223.199 438.221 223.711 436.985C224.224 435.748 225.091 434.691 226.204 433.947C227.317 433.204 228.626 432.807 229.964 432.807C231.759 432.807 233.481 433.52 234.75 434.789C236.019 436.058 236.732 437.78 236.732 439.575Z" fill="#5CADF8" fill-opacity="0.3"/>
<path d="M178.615 440.453C178.615 440.453 179.539 453.653 215.143 453.653C250.747 453.653 251.671 440.453 251.671 440.453H178.615Z" fill="#5CADF8" fill-opacity="0.5"/>
<path d="M278.456 380.441C278.456 380.441 279.932 393.641 336.356 393.641C392.78 393.641 394.244 380.441 394.244 380.441H278.456Z" fill="#F2F7FA"/>
<path d="M302.001 523.131C430.5 523.131 534.669 517.049 534.669 509.547C534.669 502.045 430.5 495.963 302.001 495.963C173.502 495.963 69.333 502.045 69.333 509.547C69.333 517.049 173.502 523.131 302.001 523.131Z" fill="#5CADF8" fill-opacity="0.5"/>
<path d="M178.306 329.65C203.687 304.269 203.687 263.118 178.306 237.737C152.925 212.356 111.775 212.356 86.3938 237.737C61.0128 263.118 61.0128 304.269 86.3938 329.65C111.775 355.03 152.925 355.03 178.306 329.65Z" fill="#5CADF8"/>
<path opacity="0.4" d="M178.306 329.65C203.687 304.269 203.687 263.118 178.306 237.737C152.925 212.356 111.775 212.356 86.3938 237.737C61.0128 263.118 61.0128 304.269 86.3938 329.65C111.775 355.03 152.925 355.03 178.306 329.65Z" fill="#132043"/>
<path opacity="0.2" d="M186.154 292.871C191.222 263.159 171.244 234.963 141.531 229.895C111.819 224.827 83.6238 244.805 78.5556 274.518C73.4875 304.23 93.4655 332.425 123.178 337.493C152.89 342.561 181.085 322.583 186.154 292.871Z" fill="#132043"/>
<path d="M188.763 288.921C190.788 259.986 168.974 234.888 140.038 232.862C111.103 230.837 86.0044 252.651 83.979 281.587C81.9535 310.522 103.768 335.62 132.704 337.646C161.639 339.671 186.737 317.857 188.763 288.921Z" fill="#5CADF8"/>
<path opacity="0.4" d="M188.763 288.921C190.788 259.986 168.974 234.888 140.038 232.862C111.103 230.837 86.0044 252.651 83.979 281.587C81.9535 310.522 103.768 335.62 132.704 337.646C161.639 339.671 186.737 317.857 188.763 288.921Z" fill="#132043"/>
<path d="M153.933 278.69L157.353 293.51C157.498 294.076 157.524 294.665 157.429 295.242C157.334 295.818 157.12 296.368 156.801 296.858C156.491 297.358 156.083 297.791 155.603 298.131C155.123 298.471 154.579 298.711 154.005 298.838L140.973 301.85L143.373 312.278C143.514 312.841 143.536 313.428 143.436 314.001C143.337 314.573 143.119 315.118 142.797 315.602C142.487 316.094 142.078 316.516 141.597 316.842C141.116 317.169 140.572 317.392 140.001 317.498C139.428 317.641 138.833 317.668 138.249 317.578C137.666 317.487 137.107 317.28 136.605 316.97C136.105 316.675 135.671 316.28 135.333 315.809C134.994 315.338 134.757 314.801 134.637 314.234L132.237 303.686L119.313 306.674C118.756 306.808 118.177 306.829 117.612 306.734C117.047 306.639 116.507 306.431 116.025 306.122C115.523 305.828 115.089 305.432 114.748 304.962C114.407 304.491 114.168 303.954 114.045 303.386C113.908 302.825 113.887 302.242 113.982 301.673C114.077 301.104 114.286 300.56 114.597 300.074C114.893 299.577 115.29 299.147 115.76 298.81C116.231 298.473 116.767 298.238 117.333 298.118L147.573 291.146L146.157 284.99L116.001 291.938C115.443 292.08 114.861 292.108 114.292 292.019C113.723 291.931 113.177 291.727 112.689 291.422C112.188 291.121 111.755 290.719 111.418 290.242C111.082 289.765 110.848 289.222 110.733 288.65L107.325 273.89C107.062 272.755 107.262 271.563 107.878 270.575C108.495 269.587 109.478 268.885 110.613 268.622L123.477 265.658L121.077 255.218C120.938 254.666 120.911 254.091 120.997 253.529C121.084 252.966 121.282 252.426 121.581 251.942C121.897 251.417 122.322 250.965 122.827 250.618C123.332 250.27 123.905 250.034 124.509 249.926C125.064 249.791 125.64 249.77 126.204 249.865C126.767 249.96 127.305 250.169 127.785 250.478C128.278 250.781 128.704 251.181 129.038 251.653C129.372 252.125 129.607 252.66 129.729 253.226L132.129 263.654L145.329 260.63C145.9 260.492 146.493 260.47 147.072 260.567C147.652 260.664 148.206 260.877 148.701 261.194C149.201 261.482 149.637 261.87 149.98 262.335C150.323 262.8 150.566 263.33 150.693 263.894C150.946 265.054 150.734 266.268 150.104 267.275C149.474 268.281 148.475 269.002 147.321 269.282L117.081 276.254L118.401 282.374L148.533 275.426C149.104 275.288 149.697 275.266 150.276 275.363C150.856 275.46 151.41 275.673 151.905 275.99C152.414 276.272 152.857 276.658 153.207 277.124C153.556 277.589 153.803 278.122 153.933 278.69Z" fill="#5CADF8"/>
<g opacity="0.7">
<path d="M153.933 278.692L157.353 293.512C157.498 294.078 157.524 294.667 157.429 295.244C157.334 295.82 157.12 296.37 156.801 296.86C156.491 297.36 156.083 297.793 155.603 298.133C155.123 298.473 154.579 298.713 154.005 298.84L140.973 301.852L143.373 312.28C143.514 312.843 143.536 313.43 143.436 314.003C143.337 314.575 143.119 315.12 142.797 315.604C142.487 316.096 142.078 316.518 141.597 316.844C141.116 317.171 140.572 317.394 140.001 317.5C139.428 317.643 138.833 317.67 138.249 317.58C137.666 317.489 137.107 317.282 136.605 316.972C136.105 316.677 135.671 316.282 135.333 315.811C134.994 315.34 134.757 314.803 134.637 314.236L132.237 303.688L119.313 306.676C118.756 306.81 118.177 306.831 117.612 306.736C117.047 306.641 116.507 306.433 116.025 306.124C115.523 305.83 115.089 305.434 114.748 304.963C114.407 304.493 114.168 303.956 114.045 303.388C113.908 302.827 113.887 302.244 113.982 301.675C114.077 301.106 114.286 300.562 114.597 300.076C114.893 299.579 115.29 299.148 115.76 298.812C116.231 298.475 116.767 298.24 117.333 298.12L147.573 291.148L146.157 284.992L116.001 291.94C115.443 292.082 114.861 292.11 114.292 292.021C113.723 291.932 113.177 291.729 112.689 291.424C112.188 291.123 111.755 290.721 111.418 290.244C111.082 289.767 110.848 289.224 110.733 288.652L107.325 273.892C107.062 272.757 107.262 271.565 107.878 270.577C108.495 269.589 109.478 268.887 110.613 268.624L123.477 265.66L121.077 255.22C120.938 254.668 120.911 254.093 120.997 253.531C121.084 252.968 121.282 252.428 121.581 251.944C121.897 251.419 122.322 250.967 122.827 250.62C123.332 250.272 123.905 250.036 124.509 249.928C125.064 249.793 125.64 249.772 126.204 249.867C126.767 249.962 127.305 250.17 127.785 250.48C128.278 250.783 128.704 251.183 129.038 251.655C129.372 252.127 129.607 252.662 129.729 253.228L132.129 263.656L145.329 260.632C145.9 260.493 146.493 260.472 147.072 260.569C147.652 260.666 148.206 260.879 148.701 261.196C149.201 261.484 149.637 261.872 149.98 262.337C150.323 262.802 150.566 263.332 150.693 263.896C150.946 265.056 150.734 266.27 150.104 267.277C149.474 268.283 148.475 269.004 147.321 269.284L117.081 276.256L118.401 282.376L148.533 275.428C149.104 275.289 149.697 275.268 150.276 275.365C150.856 275.462 151.41 275.675 151.905 275.992C152.414 276.274 152.857 276.66 153.207 277.126C153.556 277.591 153.803 278.124 153.933 278.692Z" fill="#F2F7FA"/>
</g>
<path d="M271.038 232.008C287.208 212.873 284.805 184.254 265.67 168.084C246.536 151.914 217.916 154.318 201.747 173.452C185.577 192.586 187.98 221.206 207.115 237.376C226.249 253.545 254.869 251.142 271.038 232.008Z" fill="#5CADF8"/>
<path opacity="0.4" d="M271.038 232.008C287.208 212.873 284.805 184.254 265.67 168.084C246.536 151.914 217.916 154.318 201.747 173.452C185.577 192.586 187.98 221.206 207.115 237.376C226.249 253.545 254.869 251.142 271.038 232.008Z" fill="#132043"/>
<path opacity="0.2" d="M265.752 226.963C279.155 210.751 276.877 186.742 260.664 173.34C244.451 159.937 220.443 162.215 207.04 178.427C193.638 194.64 195.915 218.648 212.128 232.051C228.341 245.454 252.349 243.176 265.752 226.963Z" fill="#132043"/>
<path d="M266.9 227.363C279.163 211.319 276.097 188.372 260.053 176.109C244.008 163.847 221.061 166.913 208.799 182.957C196.536 199.001 199.602 221.948 215.647 234.211C231.691 246.473 254.638 243.407 266.9 227.363Z" fill="#5CADF8"/>
<path opacity="0.4" d="M266.9 227.363C279.163 211.319 276.097 188.372 260.053 176.109C244.008 163.847 221.061 166.913 208.799 182.957C196.536 199.001 199.602 221.948 215.647 234.211C231.691 246.473 254.638 243.407 266.9 227.363Z" fill="#132043"/>
<path d="M251.385 206.452L248.805 216.748C248.712 217.139 248.538 217.507 248.294 217.827C248.05 218.148 247.742 218.414 247.389 218.608C247.033 218.824 246.637 218.967 246.225 219.027C245.813 219.087 245.392 219.062 244.989 218.956L236.001 216.688L234.177 223.888C234.085 224.281 233.911 224.651 233.667 224.973C233.423 225.296 233.115 225.564 232.761 225.76C232.421 225.971 232.041 226.111 231.645 226.171C231.249 226.231 230.845 226.209 230.457 226.108C230.058 226.014 229.682 225.842 229.35 225.601C229.018 225.359 228.738 225.055 228.525 224.704C228.309 224.361 228.165 223.978 228.103 223.577C228.041 223.177 228.062 222.768 228.165 222.376L230.001 215.056L221.001 212.86C220.611 212.767 220.244 212.595 219.923 212.356C219.601 212.117 219.331 211.815 219.129 211.468C218.912 211.128 218.768 210.746 218.706 210.348C218.645 209.949 218.666 209.542 218.769 209.152C218.859 208.757 219.029 208.385 219.268 208.059C219.508 207.733 219.812 207.46 220.161 207.256C220.507 207.045 220.891 206.907 221.291 206.849C221.691 206.791 222.099 206.816 222.489 206.92L243.489 212.188L244.569 207.916L223.629 202.66C223.237 202.572 222.867 202.404 222.543 202.167C222.219 201.929 221.947 201.627 221.745 201.28C221.528 200.938 221.386 200.553 221.328 200.152C221.27 199.751 221.298 199.342 221.409 198.952L223.977 188.692C224.074 188.301 224.247 187.933 224.487 187.609C224.727 187.285 225.028 187.013 225.374 186.806C225.72 186.6 226.104 186.464 226.502 186.406C226.901 186.349 227.307 186.371 227.697 186.472L236.601 188.704L238.425 181.504C238.514 181.098 238.685 180.714 238.929 180.377C239.173 180.04 239.484 179.757 239.842 179.547C240.201 179.336 240.599 179.201 241.012 179.152C241.425 179.103 241.843 179.14 242.241 179.26C242.628 179.35 242.992 179.519 243.31 179.756C243.628 179.994 243.894 180.295 244.089 180.64C244.302 180.982 244.442 181.364 244.502 181.762C244.562 182.16 244.54 182.567 244.437 182.956L242.613 190.156L251.733 192.448C252.133 192.544 252.51 192.719 252.84 192.965C253.17 193.21 253.447 193.52 253.653 193.876C253.872 194.213 254.019 194.592 254.085 194.988C254.151 195.384 254.135 195.79 254.037 196.18C253.937 196.58 253.758 196.955 253.511 197.285C253.264 197.615 252.953 197.892 252.597 198.1C252.243 198.32 251.847 198.466 251.435 198.528C251.022 198.59 250.601 198.567 250.197 198.46L229.185 193.192L228.129 197.44L249.057 202.684C249.457 202.78 249.834 202.955 250.164 203.201C250.494 203.446 250.771 203.756 250.977 204.112C251.209 204.45 251.365 204.834 251.435 205.238C251.505 205.641 251.489 206.055 251.385 206.452Z" fill="#5CADF8"/>
<g opacity="0.7">
<path d="M251.384 206.454L248.804 216.75C248.711 217.141 248.537 217.509 248.293 217.829C248.049 218.15 247.741 218.415 247.388 218.61C247.032 218.826 246.636 218.969 246.224 219.029C245.812 219.088 245.391 219.064 244.988 218.958L236 216.69L234.176 223.89C234.084 224.283 233.91 224.653 233.666 224.975C233.422 225.298 233.114 225.566 232.76 225.762C232.42 225.973 232.04 226.113 231.644 226.173C231.248 226.233 230.844 226.211 230.456 226.11C230.057 226.016 229.681 225.844 229.349 225.602C229.017 225.361 228.737 225.057 228.524 224.706C228.308 224.363 228.164 223.98 228.102 223.579C228.04 223.179 228.061 222.77 228.164 222.378L230 215.058L221 212.862C220.61 212.769 220.243 212.597 219.922 212.358C219.6 212.119 219.33 211.816 219.128 211.47C218.911 211.13 218.767 210.748 218.706 210.35C218.644 209.951 218.665 209.544 218.768 209.154C218.858 208.759 219.028 208.387 219.267 208.061C219.507 207.735 219.811 207.462 220.16 207.258C220.506 207.047 220.89 206.909 221.29 206.851C221.69 206.793 222.098 206.818 222.488 206.922L243.488 212.19L244.568 207.918L223.628 202.662C223.236 202.574 222.866 202.406 222.542 202.169C222.218 201.931 221.946 201.629 221.744 201.282C221.527 200.94 221.385 200.555 221.327 200.154C221.269 199.753 221.297 199.344 221.408 198.954L223.976 188.694C224.073 188.303 224.246 187.935 224.486 187.611C224.726 187.287 225.027 187.014 225.373 186.808C225.719 186.602 226.103 186.466 226.501 186.408C226.9 186.351 227.306 186.373 227.696 186.474L236.6 188.706L238.424 181.506C238.513 181.1 238.684 180.716 238.928 180.379C239.172 180.042 239.483 179.759 239.841 179.548C240.2 179.338 240.598 179.203 241.011 179.154C241.424 179.105 241.842 179.141 242.24 179.262C242.627 179.352 242.991 179.52 243.309 179.758C243.627 179.996 243.893 180.297 244.088 180.642C244.301 180.984 244.441 181.366 244.501 181.764C244.561 182.162 244.539 182.569 244.436 182.958L242.612 190.158L251.732 192.45C252.133 192.545 252.509 192.721 252.839 192.967C253.169 193.212 253.446 193.522 253.652 193.878C253.871 194.215 254.018 194.594 254.084 194.99C254.15 195.386 254.134 195.792 254.036 196.182C253.936 196.582 253.757 196.957 253.51 197.287C253.263 197.617 252.952 197.894 252.596 198.102C252.242 198.322 251.846 198.468 251.434 198.53C251.021 198.592 250.6 198.569 250.196 198.462L229.184 193.194L228.128 197.442L249.056 202.686C249.457 202.781 249.833 202.957 250.163 203.203C250.493 203.448 250.77 203.758 250.976 204.114C251.208 204.452 251.364 204.836 251.434 205.24C251.504 205.643 251.488 206.057 251.384 206.454Z" fill="#F2F7FA"/>
</g>
<path d="M125.912 476.822H124.712V490.37H125.912V476.822Z" fill="#5CADF8"/>
<path opacity="0.1" d="M125.912 476.822H124.712V490.37H125.912V476.822Z" fill="#132043"/>
<path d="M479.289 369.484H478.089V388.048H479.289V369.484Z" fill="#5CADF8"/>
<path d="M479.289 397.793H478.089V407.861H479.289V397.793Z" fill="#5CADF8"/>
<path opacity="0.1" d="M479.289 369.484H478.089V388.048H479.289V369.484Z" fill="#132043"/>
<path opacity="0.1" d="M479.289 397.793H478.089V407.861H479.289V397.793Z" fill="#132043"/>
<path d="M457.04 288.988H146.972C136.998 288.988 128.912 297.074 128.912 307.048V488.548C128.912 498.522 136.998 506.608 146.972 506.608H457.04C467.014 506.608 475.1 498.522 475.1 488.548V307.048C475.1 297.074 467.014 288.988 457.04 288.988Z" fill="#5CADF8"/>
<path opacity="0.2" d="M457.04 288.988H146.972C136.998 288.988 128.912 297.074 128.912 307.048V488.548C128.912 498.522 136.998 506.608 146.972 506.608H457.04C467.014 506.608 475.1 498.522 475.1 488.548V307.048C475.1 297.074 467.014 288.988 457.04 288.988Z" fill="#132043"/>
<path d="M419.059 364.769C425.001 364.769 430.7 362.408 434.901 358.207C439.103 354.005 441.463 348.307 441.463 342.365C441.463 336.423 439.103 330.724 434.901 326.523C430.7 322.321 425.001 319.961 419.059 319.961H390.139C384.197 319.961 378.499 322.321 374.297 326.523C370.096 330.724 367.735 336.423 367.735 342.365C367.735 348.307 370.096 354.005 374.297 358.207C378.499 362.408 384.197 364.769 390.139 364.769H419.059Z" fill="#5CADF8"/>
<path d="M223.688 364.758H170.324C166.029 364.758 162.548 368.239 162.548 372.534V407.418C162.548 411.712 166.029 415.194 170.324 415.194H223.688C227.982 415.194 231.464 411.712 231.464 407.418V372.534C231.464 368.239 227.982 364.758 223.688 364.758Z" fill="#5CADF8"/>
<path opacity="0.3" d="M223.688 364.758H170.324C166.029 364.758 162.548 368.239 162.548 372.534V407.418C162.548 411.712 166.029 415.194 170.324 415.194H223.688C227.982 415.194 231.464 411.712 231.464 407.418V372.534C231.464 368.239 227.982 364.758 223.688 364.758Z" fill="#F2F7FA"/>
<path d="M260.612 314.453H168.056C165.014 314.453 162.548 316.916 162.548 319.955C162.548 322.994 165.014 325.457 168.056 325.457H260.612C263.654 325.457 266.12 322.994 266.12 319.955C266.12 316.916 263.654 314.453 260.612 314.453Z" fill="#5CADF8"/>
<path opacity="0.3" d="M260.612 314.453H168.056C165.014 314.453 162.548 316.916 162.548 319.955C162.548 322.994 165.014 325.457 168.056 325.457H260.612C263.654 325.457 266.12 322.994 266.12 319.955C266.12 316.916 263.654 314.453 260.612 314.453Z" fill="#F2F7FA"/>
<path d="M212.252 440.223H170.624C166.164 440.223 162.548 443.838 162.548 448.299V455.847C162.548 460.307 166.164 463.923 170.624 463.923H212.252C216.712 463.923 220.328 460.307 220.328 455.847V448.299C220.328 443.838 216.712 440.223 212.252 440.223Z" fill="#5CADF8"/>
<path opacity="0.3" d="M212.252 440.223H170.624C166.164 440.223 162.548 443.838 162.548 448.299V455.847C162.548 460.307 166.164 463.923 170.624 463.923H212.252C216.712 463.923 220.328 460.307 220.328 455.847V448.299C220.328 443.838 216.712 440.223 212.252 440.223Z" fill="#F2F7FA"/>
<path d="M285.956 440.223H244.328C239.868 440.223 236.252 443.838 236.252 448.299V455.847C236.252 460.307 239.868 463.923 244.328 463.923H285.956C290.416 463.923 294.032 460.307 294.032 455.847V448.299C294.032 443.838 290.416 440.223 285.956 440.223Z" fill="#5CADF8"/>
<path opacity="0.3" d="M285.956 440.223H244.328C239.868 440.223 236.252 443.838 236.252 448.299V455.847C236.252 460.307 239.868 463.923 244.328 463.923H285.956C290.416 463.923 294.032 460.307 294.032 455.847V448.299C294.032 443.838 290.416 440.223 285.956 440.223Z" fill="#F2F7FA"/>
<path d="M359.672 440.223H318.044C313.583 440.223 309.968 443.838 309.968 448.299V455.847C309.968 460.307 313.583 463.923 318.044 463.923H359.672C364.132 463.923 367.748 460.307 367.748 455.847V448.299C367.748 443.838 364.132 440.223 359.672 440.223Z" fill="#5CADF8"/>
<path opacity="0.3" d="M359.672 440.223H318.044C313.583 440.223 309.968 443.838 309.968 448.299V455.847C309.968 460.307 313.583 463.923 318.044 463.923H359.672C364.132 463.923 367.748 460.307 367.748 455.847V448.299C367.748 443.838 364.132 440.223 359.672 440.223Z" fill="#F2F7FA"/>
<path d="M433.376 440.223H391.748C387.288 440.223 383.672 443.838 383.672 448.299V455.847C383.672 460.307 387.288 463.923 391.748 463.923H433.376C437.836 463.923 441.452 460.307 441.452 455.847V448.299C441.452 443.838 437.836 440.223 433.376 440.223Z" fill="#5CADF8"/>
<path opacity="0.3" d="M433.376 440.223H391.748C387.288 440.223 383.672 443.838 383.672 448.299V455.847C383.672 460.307 387.288 463.923 391.748 463.923H433.376C437.836 463.923 441.452 460.307 441.452 455.847V448.299C441.452 443.838 437.836 440.223 433.376 440.223Z" fill="#F2F7FA"/>
<path d="M353.599 210.242C350.755 218.27 347.599 226.034 344.251 233.798C340.863 241.693 336.975 249.365 332.611 256.766C332.023 257.714 331.411 258.662 330.775 259.61L330.307 260.318L329.671 261.194C329.239 261.746 328.831 262.226 328.471 262.694C326.959 264.38 325.357 265.982 323.671 267.494C320.467 270.458 317.203 273.146 313.903 275.798C307.279 281.054 300.511 285.974 293.503 290.642L289.315 285.446L306.955 268.058C309.871 265.166 312.763 262.25 315.463 259.334C316.795 257.882 318.091 256.394 319.159 255.026C319.423 254.69 319.651 254.354 319.855 254.066L320.107 253.658L320.455 253.034C320.923 252.206 321.415 251.402 321.871 250.55C325.543 243.65 328.783 236.15 331.903 228.542C335.023 220.934 338.023 213.266 340.903 205.658L353.599 210.242Z" fill="#E4897B"/>
<path d="M356.971 204.459C359.695 212.427 343.687 235.863 343.687 235.863L328.399 227.355C331.004 220.043 334.083 212.908 337.615 205.995C342.967 195.867 353.983 195.712 356.971 204.459Z" fill="#5CADF8"/>
<path opacity="0.7" d="M356.971 204.459C359.695 212.427 343.687 235.863 343.687 235.863L328.399 227.355C331.004 220.043 334.083 212.908 337.615 205.995C342.967 195.867 353.983 195.712 356.971 204.459Z" fill="#F2F7FA"/>
<path opacity="0.31" d="M357.199 205.456C353.767 203.812 349.819 205.192 345.655 211.768C341.491 218.344 337.951 229.324 337.567 232.456L343.699 235.852C343.699 235.852 358.471 214.204 357.199 205.456Z" fill="#5CADF8"/>
<path d="M346.616 198.364C346.616 198.364 335.192 225.232 343.424 275.26H391.004C391.592 267.952 388.232 232.324 396.476 197.908C391.238 196.888 385.939 196.215 380.612 195.892C373.878 195.507 367.127 195.507 360.392 195.892C355.744 196.364 351.139 197.19 346.616 198.364Z" fill="#5CADF8"/>
<path opacity="0.7" d="M346.616 198.364C346.616 198.364 335.192 225.232 343.424 275.26H391.004C391.592 267.952 388.232 232.324 396.476 197.908C391.238 196.888 385.939 196.215 380.612 195.892C373.878 195.507 367.127 195.507 360.392 195.892C355.744 196.364 351.139 197.19 346.616 198.364Z" fill="#F2F7FA"/>
<path d="M407.852 488.404L400.808 494.716L387.38 480.748L394.436 474.436L407.852 488.404Z" fill="#E4897B"/>
<path d="M383.695 501.543H374.803L373.651 480.939H382.543L383.695 501.543Z" fill="#E4897B"/>
<path d="M387.392 480.748L394.304 487.948L401.36 481.636L394.448 474.436L387.392 480.748Z" fill="#CE6F64"/>
<path d="M382.543 480.951H373.651L374.251 491.571H383.143L382.543 480.951Z" fill="#CE6F64"/>
<path d="M343.424 275.259C343.424 275.259 334.052 340.131 330.86 375.435C328.292 403.766 389.552 488.234 389.552 488.234L401.396 477.086C401.396 477.086 356.66 401.354 360.104 369.818C363.44 339.279 374.744 275.223 374.744 275.223L343.424 275.259Z" fill="#5CADF8"/>
<path opacity="0.7" d="M343.424 275.259C343.424 275.259 334.052 340.131 330.86 375.435C328.292 403.766 389.552 488.234 389.552 488.234L401.396 477.086C401.396 477.086 356.66 401.354 360.104 369.818C363.44 339.279 374.744 275.223 374.744 275.223L343.424 275.259Z" fill="#132043"/>
<path opacity="0.2" d="M360.103 369.855C361.819 354.123 365.659 329.475 368.959 309.291C367.231 305.907 362.383 299.055 362.383 299.055C358.039 314.067 348.595 370.659 362.071 447.086C376.111 469.718 389.551 488.27 389.551 488.27L391.387 459.086C378.415 434.678 357.715 391.659 360.103 369.855Z" fill="#132043"/>
<path d="M360.344 275.258C360.344 275.258 359.504 343.238 360.944 368.714C362.516 396.602 370.436 489.001 370.436 489.001H386.732C386.732 489.001 386.24 398.858 387.2 371.258C388.268 341.258 391.028 275.258 391.028 275.258H360.344Z" fill="#5CADF8"/>
<path opacity="0.7" d="M360.344 275.258C360.344 275.258 359.504 343.238 360.944 368.714C362.516 396.602 370.436 489.001 370.436 489.001H386.732C386.732 489.001 386.24 398.858 387.2 371.258C388.268 341.258 391.028 275.258 391.028 275.258H360.344Z" fill="#132043"/>
<path d="M374.336 500.524H384.332C384.499 500.517 384.662 500.577 384.785 500.689C384.908 500.801 384.983 500.957 384.992 501.124L385.484 509.032C385.486 509.238 385.447 509.443 385.369 509.634C385.292 509.826 385.177 510 385.032 510.147C384.887 510.294 384.715 510.411 384.525 510.492C384.335 510.572 384.131 510.614 383.924 510.616C380.444 510.556 378.776 510.352 374.384 510.352C371.684 510.352 360.188 510.64 356.456 510.64C352.724 510.64 352.856 506.944 354.404 506.608C361.496 505.108 370.292 503.008 372.812 501.064C373.247 500.721 373.783 500.531 374.336 500.524Z" fill="#132043"/>
<path d="M398.864 492.195L407.432 486.423C407.572 486.312 407.746 486.252 407.924 486.252C408.103 486.252 408.276 486.312 408.416 486.423L414.968 493.035C415.096 493.181 415.19 493.352 415.245 493.538C415.299 493.724 415.311 493.919 415.282 494.11C415.252 494.302 415.18 494.484 415.072 494.644C414.964 494.805 414.822 494.94 414.656 495.039C409.184 499.251 405.236 502.431 402.116 505.935C398.516 510.027 396.572 510.615 388.172 510.615C384.284 510.615 382.088 507.339 383.672 506.835C397.664 502.407 393.92 500.475 397.328 493.983C397.684 493.269 398.212 492.654 398.864 492.195Z" fill="#132043"/>
<path d="M291.332 284.332L282.056 284.656L284 291.928C284 291.928 293.696 292.792 294.56 289.864L291.332 284.332Z" fill="#E4897B"/>
<path d="M272.048 288.986L278.552 292.778L284 291.926L282.056 284.654L272.048 288.986Z" fill="#E4897B"/>
<path opacity="0.31" d="M385.843 206.403C384.859 212.067 386.167 225.603 391.027 241.275C391.408 227.848 392.97 214.48 395.695 201.327V201.255C392.575 200.943 386.791 201.087 385.843 206.403Z" fill="#5CADF8"/>
<path d="M379.4 173.115C377.9 179.619 376.208 191.547 380.6 195.915C380.6 195.915 378.704 201.303 366.608 201.303C353.312 201.303 360.38 195.915 360.38 195.915C367.7 194.187 367.7 188.799 366.608 183.747L379.4 173.115Z" fill="#E4897B"/>
<path d="M366.271 201.281L362.671 205.109L364.435 208.805L367.303 208.937L369.751 205.409L366.271 201.281Z" fill="#5CADF8"/>
<path d="M374.191 177.447L366.619 183.711C366.892 184.894 367.06 186.099 367.123 187.311C369.907 186.915 373.819 183.867 374.215 180.963C374.427 179.8 374.419 178.607 374.191 177.447Z" fill="#CE6F64"/>
<path d="M363.619 151.06C359.071 152.608 355.435 164.668 360.739 167.86C366.043 171.052 372.259 148.12 363.619 151.06Z" fill="#132043"/>
<path d="M382.245 166.3C379.533 174.7 378.381 179.776 372.909 183.22C371.144 184.354 369.102 184.985 367.004 185.043C364.906 185.101 362.833 184.584 361.008 183.548C359.183 182.513 357.675 180.998 356.649 179.168C355.623 177.337 355.116 175.261 355.185 173.164C355.293 165.088 359.709 152.656 369.009 151.096C371.013 150.709 373.084 150.856 375.014 151.521C376.944 152.186 378.665 153.346 380.006 154.886C381.346 156.426 382.258 158.29 382.651 160.294C383.044 162.297 382.904 164.368 382.245 166.3Z" fill="#E4897B"/>
<path d="M388.964 152.259C386.252 158.811 392.564 153.339 390.932 161.115C389.876 166.179 380.732 178.311 377.204 177.207C373.676 176.103 373.712 167.499 378.212 161.415C380.804 157.923 375.2 153.963 362.612 154.383C350.024 154.803 342.416 147.723 359.144 142.527C359.144 142.527 352.976 146.127 356.636 147.327C361.82 149.259 394.4 139.131 388.964 152.259Z" fill="#132043"/>
<path d="M386.564 155.258C386.432 155.258 389.384 154.526 390.956 149.258C390.956 149.342 390.44 157.106 386.564 155.258Z" fill="#132043"/>
<path d="M363.008 143.691C355.268 146.091 358.472 148.791 361.676 149.463L369.02 146.583C357.86 148.059 363.008 143.691 363.008 143.691Z" fill="#132043"/>
<path d="M383.732 176.56C382.122 178.124 379.975 179.013 377.732 179.044C374.768 179.044 374.132 176.236 375.728 173.884C377.144 171.772 380.384 169.228 383 170.368C385.616 171.508 385.7 174.628 383.732 176.56Z" fill="#E4897B"/>
<path d="M368.576 165.832C368.396 166.528 367.88 167.032 367.376 166.912C366.872 166.792 366.692 166.156 366.872 165.46C367.052 164.764 367.568 164.26 368.072 164.392C368.576 164.524 368.756 165.136 368.576 165.832Z" fill="#132043"/>
<path d="M360.656 164.092C360.476 164.788 359.96 165.292 359.456 165.172C358.952 165.052 358.772 164.428 358.952 163.732C359.132 163.036 359.636 162.532 360.152 162.652C360.668 162.772 360.8 163.396 360.656 164.092Z" fill="#132043"/>
<path d="M363.08 164.992C361.716 166.935 360.102 168.69 358.28 170.212C358.681 170.658 359.175 171.01 359.726 171.244C360.277 171.478 360.873 171.589 361.472 171.568L363.08 164.992Z" fill="#DE5753"/>
<path d="M364.4 174.098C363.903 174.098 363.408 174.041 362.924 173.93C362.871 173.916 362.825 173.882 362.796 173.835C362.767 173.788 362.757 173.732 362.768 173.678C362.782 173.625 362.816 173.579 362.863 173.55C362.91 173.521 362.966 173.511 363.02 173.522C363.904 173.719 364.82 173.713 365.702 173.506C366.583 173.298 367.405 172.893 368.108 172.322C368.148 172.283 368.202 172.262 368.258 172.262C368.314 172.262 368.368 172.283 368.408 172.322C368.447 172.363 368.469 172.416 368.469 172.472C368.469 172.528 368.447 172.582 368.408 172.622C367.294 173.582 365.87 174.106 364.4 174.098Z" fill="#132043"/>
<path d="M371.72 163.826C371.638 163.828 371.558 163.804 371.489 163.759C371.421 163.714 371.368 163.65 371.336 163.574C371.139 163.093 370.829 162.666 370.432 162.33C370.035 161.993 369.563 161.758 369.056 161.642C369.001 161.635 368.948 161.616 368.899 161.588C368.851 161.56 368.809 161.522 368.775 161.478C368.742 161.433 368.718 161.382 368.704 161.328C368.69 161.274 368.688 161.217 368.696 161.162C368.714 161.052 368.774 160.952 368.864 160.885C368.953 160.818 369.065 160.788 369.176 160.802C369.823 160.934 370.427 161.221 370.937 161.64C371.448 162.058 371.848 162.594 372.104 163.202C372.128 163.252 372.141 163.307 372.143 163.362C372.145 163.418 372.135 163.473 372.115 163.525C372.095 163.576 372.064 163.623 372.025 163.663C371.986 163.702 371.94 163.733 371.888 163.754C371.838 163.79 371.781 163.815 371.72 163.826Z" fill="#132043"/>
<path d="M357.98 160.646C357.883 160.645 357.79 160.611 357.716 160.55C357.629 160.477 357.575 160.374 357.564 160.262C357.552 160.15 357.585 160.038 357.656 159.95C358.078 159.424 358.616 159.002 359.228 158.717C359.84 158.432 360.509 158.291 361.184 158.306C361.239 158.31 361.293 158.326 361.342 158.351C361.391 158.376 361.435 158.411 361.471 158.454C361.506 158.496 361.533 158.545 361.55 158.598C361.567 158.651 361.573 158.707 361.568 158.762C361.565 158.818 361.55 158.872 361.526 158.922C361.501 158.972 361.466 159.017 361.423 159.053C361.38 159.089 361.331 159.116 361.277 159.132C361.223 159.148 361.167 159.152 361.112 159.146C360.572 159.14 360.038 159.258 359.551 159.491C359.065 159.724 358.638 160.066 358.304 160.49C358.265 160.539 358.216 160.578 358.16 160.605C358.104 160.632 358.042 160.646 357.98 160.646Z" fill="#132043"/>
<path d="M398.78 204.039C399.716 205.491 400.496 206.775 401.288 208.167C402.08 209.559 402.836 210.903 403.58 212.295C405.044 215.067 406.424 217.899 407.684 220.791C410.327 226.712 412.311 232.905 413.6 239.259L413.72 239.871L413.78 240.171L413.864 240.675C413.966 241.346 414.018 242.024 414.02 242.703C414.008 243.84 413.888 244.973 413.66 246.087C413.254 247.924 412.667 249.717 411.908 251.439C410.561 254.456 408.955 257.351 407.108 260.091C403.618 265.301 399.648 270.174 395.252 274.647L390.032 270.459C392.936 265.395 395.828 260.139 398.252 254.991C399.444 252.529 400.462 249.987 401.3 247.383C401.643 246.297 401.876 245.179 401.996 244.047C402.038 243.676 402.038 243.302 401.996 242.931C401.996 242.823 401.996 242.727 401.924 242.715C401.852 242.703 401.924 242.715 401.924 242.655L401.852 242.415L401.708 241.923C400.95 239.276 400.049 236.672 399.008 234.123C397.952 231.519 396.776 228.927 395.54 226.347C394.304 223.767 392.972 221.223 391.604 218.679C390.932 217.407 390.224 216.147 389.516 214.899L387.404 211.299L398.78 204.039Z" fill="#E4897B"/>
<path d="M371.192 502.058C370.593 502.118 369.993 501.951 369.512 501.59C369.376 501.439 369.281 501.257 369.235 501.06C369.189 500.862 369.193 500.657 369.248 500.462C369.274 500.331 369.333 500.208 369.419 500.105C369.505 500.003 369.615 499.923 369.74 499.874C370.832 499.442 373.34 501.17 373.628 501.362C373.663 501.384 373.691 501.417 373.706 501.456C373.721 501.495 373.723 501.538 373.712 501.578C373.706 501.618 373.687 501.656 373.66 501.686C373.632 501.716 373.596 501.737 373.556 501.746C372.781 501.932 371.989 502.037 371.192 502.058ZM370.148 500.222C370.064 500.208 369.979 500.208 369.896 500.222C369.835 500.244 369.781 500.282 369.741 500.333C369.7 500.384 369.675 500.445 369.668 500.51C369.624 500.635 369.615 500.77 369.64 500.901C369.665 501.032 369.724 501.153 369.812 501.254C370.22 501.662 371.384 501.71 372.98 501.398C372.131 500.809 371.165 500.412 370.148 500.234V500.222Z" fill="#F2F7FA"/>
<path d="M373.508 501.759H373.4C372.512 501.231 371.192 499.359 371.396 498.399C371.431 498.223 371.525 498.064 371.663 497.948C371.8 497.833 371.973 497.767 372.152 497.763C372.31 497.742 372.471 497.757 372.623 497.807C372.774 497.857 372.913 497.94 373.028 498.051C373.928 498.927 373.724 501.483 373.724 501.591C373.72 501.627 373.706 501.661 373.686 501.69C373.665 501.719 373.637 501.743 373.604 501.759H373.508ZM372.308 498.159H372.212C371.912 498.159 371.84 498.339 371.816 498.459C371.684 499.095 372.56 500.499 373.328 501.147C373.439 500.173 373.237 499.19 372.752 498.339C372.692 498.28 372.62 498.234 372.542 498.203C372.464 498.172 372.38 498.157 372.296 498.159H372.308Z" fill="#F2F7FA"/>
<path d="M393.104 497.019C392.882 497.026 392.661 496.985 392.456 496.899C392.298 496.836 392.158 496.735 392.047 496.605C391.936 496.476 391.858 496.321 391.82 496.155C391.79 496.054 391.786 495.947 391.809 495.844C391.832 495.741 391.881 495.645 391.952 495.567C392.756 494.595 396.968 494.883 397.448 494.919C397.493 494.92 397.536 494.936 397.571 494.965C397.605 494.993 397.63 495.032 397.64 495.075C397.649 495.118 397.645 495.163 397.628 495.204C397.611 495.245 397.582 495.279 397.544 495.303C396.204 496.186 394.69 496.771 393.104 497.019ZM395.648 495.267C394.172 495.267 392.624 495.411 392.276 495.831C392.256 495.863 392.245 495.901 392.245 495.939C392.245 495.977 392.256 496.015 392.276 496.047C392.296 496.151 392.342 496.248 392.409 496.33C392.476 496.411 392.562 496.475 392.66 496.515C393.332 496.791 394.844 496.335 396.752 495.315L395.648 495.267Z" fill="#F2F7FA"/>
<path d="M397.436 495.338C396.236 495.338 393.536 494.414 393.332 493.454C393.332 493.214 393.332 492.878 393.908 492.602C395.972 491.63 397.568 494.894 397.64 495.002C397.655 495.037 397.662 495.073 397.662 495.11C397.662 495.148 397.655 495.184 397.64 495.218C397.62 495.255 397.591 495.286 397.555 495.307C397.519 495.328 397.478 495.339 397.436 495.338ZM394.664 492.854C394.46 492.852 394.259 492.897 394.076 492.986C393.824 493.106 393.704 493.238 393.728 493.358C393.848 493.922 395.792 494.714 397.064 494.882C396.68 494.234 395.756 492.854 394.664 492.854Z" fill="#F2F7FA"/>
<path d="M392.408 268.515L383.6 266.967L388.148 277.227C388.148 277.227 396.224 277.227 395.864 273.003L392.408 268.515Z" fill="#E4897B"/>
<path d="M376.94 272.115L381.104 280.407L388.1 277.215L383.552 266.967L376.94 272.115Z" fill="#E4897B"/>
<path d="M402.116 476.44L388.832 488.956L384.548 484.36L399.752 470.512L402.116 476.44Z" fill="#5CADF8"/>
<path opacity="0.6" d="M402.116 476.44L388.832 488.956L384.548 484.36L399.752 470.512L402.116 476.44Z" fill="#F2F7FA"/>
<path d="M387.38 489.002H369.776L368.804 482.822L388.232 483.782L387.38 489.002Z" fill="#5CADF8"/>
<path opacity="0.6" d="M387.38 489.002H369.776L368.804 482.822L388.232 483.782L387.38 489.002Z" fill="#F2F7FA"/>
<path d="M396.476 197.909C404.876 199.109 413.48 228.293 413.48 228.293L395.48 238.277C395.48 238.277 388.172 224.405 384.68 214.109C381.02 203.321 387.488 196.589 396.476 197.909Z" fill="#5CADF8"/>
<path opacity="0.7" d="M396.476 197.909C404.876 199.109 413.48 228.293 413.48 228.293L395.48 238.277C395.48 238.277 388.172 224.405 384.68 214.109C381.02 203.321 387.488 196.589 396.476 197.909Z" fill="#F2F7FA"/>
<path opacity="0.2" d="M366.271 201.281L362.671 205.109L364.435 208.805L367.303 208.937L369.751 205.409L366.271 201.281Z" fill="#132043"/>
<path d="M364.749 208.143C364.749 208.143 357.92 236.427 357.656 242.307C357.284 250.394 360.669 264.206 360.669 264.206C360.669 264.206 365.468 252.722 366.452 242.055C367.436 231.387 366.705 214.131 367.149 208.143H364.749Z" fill="#5CADF8"/>
<path opacity="0.2" d="M364.749 208.143C364.749 208.143 357.92 236.427 357.656 242.307C357.284 250.394 360.669 264.206 360.669 264.206C360.669 264.206 365.468 252.722 366.452 242.055C367.436 231.387 366.705 214.131 367.149 208.143H364.749Z" fill="#132043"/>
<path d="M366.271 201.28C367.639 203.494 368.431 206.015 368.576 208.612C368.576 208.612 383.551 203.332 382.843 195.592C382.843 195.592 380.72 194.332 379.376 193.312C379.376 193.312 378.871 198.184 366.271 201.28Z" fill="#5CADF8"/>
<path opacity="0.6" d="M366.271 201.28C367.639 203.494 368.431 206.015 368.576 208.612C368.576 208.612 383.551 203.332 382.843 195.592C382.843 195.592 380.72 194.332 379.376 193.312C379.376 193.312 378.871 198.184 366.271 201.28Z" fill="#F2F7FA"/>
<path d="M366.272 201.279C364.896 203.374 363.904 205.699 363.344 208.143C363.344 208.143 356.564 203.559 358.604 195.915C359.847 195.414 361.127 195.013 362.432 194.715C362.432 194.715 361.544 199.659 366.272 201.279Z" fill="#5CADF8"/>
<path opacity="0.6" d="M366.272 201.279C364.896 203.374 363.904 205.699 363.344 208.143C363.344 208.143 356.564 203.559 358.604 195.915C359.847 195.414 361.127 195.013 362.432 194.715C362.432 194.715 361.544 199.659 366.272 201.279Z" fill="#F2F7FA"/>
</g>
</g>
<defs>
<filter id="filter0_d_9_449" x="251" y="-457" width="719" height="719" filterUnits="userSpaceOnUse" color-interpolation-filters="sRGB">
<feFlood flood-opacity="0" result="BackgroundImageFix"/>
<feColorMatrix in="SourceAlpha" type="matrix" values="0 0 0 0 0 0 0 0 0 0 0 0 0 0 0 0 0 0 127 0" result="hardAlpha"/>
<feOffset dy="4"/>
<feGaussianBlur stdDeviation="2"/>
<feComposite in2="hardAlpha" operator="out"/>
<feColorMatrix type="matrix" values="0 0 0 0 0 0 0 0 0 0 0 0 0 0 0 0 0 0 0.25 0"/>
<feBlend mode="normal" in2="BackgroundImageFix" result="effect1_dropShadow_9_449"/>
<feBlend mode="normal" in="SourceGraphic" in2="effect1_dropShadow_9_449" result="shape"/>
</filter>
<clipPath id="clip0_9_449">
<rect width="604" height="600" rx="16" fill="white"/>
</clipPath>
<clipPath id="clip1_9_449">
<rect width="600" height="447.131" fill="white" transform="translate(2 76)"/>
</clipPath>
</defs>
</svg>
