<svg width="64" height="64" viewBox="0 0 64 64" fill="none" xmlns="http://www.w3.org/2000/svg">
<rect x="6" y="6" width="52" height="52" rx="26" fill="#4DDD96"/>
<path d="M27.5 24.5C27.5 23.1193 28.6193 22 30 22C31.3807 22 32.5 23.1193 32.5 24.5V26H33.5C34.8978 26 35.5967 26 36.1481 26.2284C36.8831 26.5328 37.4672 27.1169 37.7716 27.852C38 28.4033 38 29.1022 38 30.5H39.5C40.8807 30.5 42 31.6193 42 33C42 34.3807 40.8807 35.5 39.5 35.5H38V37.2C38 38.8802 38 39.7202 37.673 40.362C37.3854 40.9265 36.9265 41.3854 36.362 41.673C35.7202 42 34.8802 42 33.2 42H32.5V40.25C32.5 39.0074 31.4926 38 30.25 38C29.0074 38 28 39.0074 28 40.25V42H26.8C25.1198 42 24.2798 42 23.638 41.673C23.0735 41.3854 22.6146 40.9265 22.327 40.362C22 39.7202 22 38.8802 22 37.2V35.5H23.5C24.8807 35.5 26 34.3807 26 33C26 31.6193 24.8807 30.5 23.5 30.5H22C22 29.1022 22 28.4033 22.2284 27.852C22.5328 27.1169 23.1169 26.5328 23.8519 26.2284C24.4033 26 25.1022 26 26.5 26H27.5V24.5Z" stroke="white" stroke-width="2" stroke-linecap="round" stroke-linejoin="round"/>
<rect x="6" y="6" width="52" height="52" rx="26" stroke="#EAF7F4" stroke-width="12"/>
</svg>
