<svg width="1320" height="704" viewBox="0 0 1320 704" fill="none" xmlns="http://www.w3.org/2000/svg">
<rect x="115" y="433" width="72" height="72" rx="36" fill="#5CADF8"/>
<path d="M161.5 473.667H161.523M130 452.667V485.333C130 487.911 132.089 490 134.667 490H167.333C169.911 490 172 487.911 172 485.333V462C172 459.423 169.911 457.333 167.333 457.333H134.667C132.089 457.333 130 455.244 130 452.667ZM130 452.667C130 450.089 132.089 448 134.667 448H162.667M162.667 473.667C162.667 474.311 162.144 474.833 161.5 474.833C160.856 474.833 160.333 474.311 160.333 473.667C160.333 473.022 160.856 472.5 161.5 472.5C162.144 472.5 162.667 473.022 162.667 473.667Z" stroke="white" stroke-width="4" stroke-linecap="round" stroke-linejoin="round"/>
<rect x="109" y="427" width="84" height="84" rx="42" stroke="#5CADF8" stroke-opacity="0.3" stroke-width="12"/>
<rect x="1056" y="577" width="40" height="40" rx="20" fill="#5CADF8"/>
<g clip-path="url(#clip0_82_1225)">
<path d="M1077.75 590.202C1078.9 589.408 1080.31 588.188 1080.92 586.663C1081.24 585.864 1080.6 585 1079.74 585H1072.26C1071.4 585 1070.77 585.864 1071.08 586.663C1071.69 588.188 1073.1 589.408 1074.25 590.202C1069.11 591.39 1065 597.585 1065 602.75C1065 606.196 1067.8 609 1071.25 609H1080.75C1084.2 609 1087 606.196 1087 602.75C1087 597.585 1082.89 591.39 1077.75 590.202ZM1080.75 606H1071.25C1069.46 606 1068 604.542 1068 602.75C1068 598.194 1072.26 593 1076 593C1079.74 593 1084 598.194 1084 602.75C1084 604.542 1082.54 606 1080.75 606Z" fill="#F2F7FA"/>
</g>
<rect x="1050" y="571" width="52" height="52" rx="26" stroke="#5CADF8" stroke-opacity="0.3" stroke-width="12"/>
<rect x="356" y="67" width="40" height="40" rx="20" fill="#5CADF8"/>
<path d="M369 84V92M373.5 84V92M378.5 84V92M383 84V92M367 93.6L367 94.4C367 94.9601 367 95.2401 367.109 95.454C367.205 95.6422 367.358 95.7952 367.546 95.891C367.76 96 368.04 96 368.6 96H383.4C383.96 96 384.24 96 384.454 95.891C384.642 95.7952 384.795 95.6422 384.891 95.454C385 95.2401 385 94.9601 385 94.4V93.6C385 93.04 385 92.7599 384.891 92.546C384.795 92.3579 384.642 92.2049 384.454 92.109C384.24 92 383.96 92 383.4 92H368.6C368.04 92 367.76 92 367.546 92.109C367.358 92.2049 367.205 92.3579 367.109 92.546C367 92.7599 367 93.04 367 93.6ZM375.653 78.0772L368.253 79.7216C367.806 79.8209 367.582 79.8706 367.415 79.9908C367.268 80.0969 367.153 80.2409 367.081 80.4076C367 80.5965 367 80.8255 367 81.2835L367 82.4C367 82.9601 367 83.2401 367.109 83.454C367.205 83.6422 367.358 83.7952 367.546 83.891C367.76 84 368.04 84 368.6 84H383.4C383.96 84 384.24 84 384.454 83.891C384.642 83.7952 384.795 83.6422 384.891 83.454C385 83.2401 385 82.9601 385 82.4V81.2835C385 80.8255 385 80.5965 384.919 80.4076C384.847 80.2409 384.732 80.0969 384.585 79.9908C384.418 79.8706 384.194 79.8209 383.747 79.7216L376.347 78.0772C376.218 78.0484 376.153 78.034 376.087 78.0282C376.029 78.0231 375.971 78.0231 375.913 78.0282C375.847 78.034 375.782 78.0484 375.653 78.0772Z" stroke="white" stroke-width="2" stroke-linecap="round" stroke-linejoin="round"/>
<rect x="350" y="61" width="52" height="52" rx="26" stroke="#5CADF8" stroke-opacity="0.3" stroke-width="12"/>
<rect x="176" y="267" width="40" height="40" rx="20" fill="#5CADF8"/>
<path d="M196 297C201.523 297 206 292.523 206 287C206 281.477 201.523 277 196 277C190.477 277 186 281.477 186 287C186 292.523 190.477 297 196 297Z" stroke="white" stroke-width="2" stroke-linecap="round" stroke-linejoin="round"/>
<path d="M195.997 284.068C194.997 282.899 193.33 282.585 192.077 283.655C190.825 284.725 190.648 286.514 191.632 287.78C192.262 288.591 193.876 290.094 194.954 291.07C195.313 291.395 195.492 291.557 195.707 291.622C195.891 291.678 196.102 291.678 196.287 291.622C196.501 291.557 196.681 291.395 197.039 291.07C198.118 290.094 199.731 288.591 200.361 287.78C201.345 286.514 201.19 284.714 199.916 283.655C198.642 282.596 196.996 282.899 195.997 284.068Z" stroke="white" stroke-width="2" stroke-linecap="round" stroke-linejoin="round"/>
<rect x="170" y="261" width="52" height="52" rx="26" stroke="#5CADF8" stroke-opacity="0.3" stroke-width="12"/>
<rect x="14" y="598" width="40" height="40" rx="20" fill="#5CADF8"/>
<path d="M31 621L36.6569 615.343M44 618C44 623.523 39.5228 628 34 628C28.4772 628 24 623.523 24 618C24 612.477 28.4772 608 34 608C39.5228 608 44 612.477 44 618Z" stroke="#FAFAFA" stroke-width="2" stroke-linecap="round"/>
<path d="M30 615C30 615.552 30.4477 616 31 616C31.5523 616 32 615.552 32 615C32 614.448 31.5523 614 31 614C30.4477 614 30 614.448 30 615Z" fill="#FAFAFA"/>
<path d="M36 621C36 621.552 36.4477 622 37 622C37.5523 622 38 621.552 38 621C38 620.448 37.5523 620 37 620C36.4477 620 36 620.448 36 621Z" fill="#FAFAFA"/>
<rect x="8" y="592" width="52" height="52" rx="26" stroke="#5CADF8" stroke-opacity="0.3" stroke-width="12"/>
<rect x="1253" y="621" width="54" height="54" rx="27" fill="#5CADF8"/>
<path d="M1288.71 639.292L1271.29 656.708M1274.46 645.625V639.292M1271.29 642.458H1277.63M1282.38 653.542H1288.71M1273.35 662.25H1286.65C1289.31 662.25 1290.64 662.25 1291.66 661.732C1292.55 661.277 1293.28 660.55 1293.73 659.656C1294.25 658.64 1294.25 657.31 1294.25 654.65V641.35C1294.25 638.69 1294.25 637.36 1293.73 636.344C1293.28 635.45 1292.55 634.723 1291.66 634.268C1290.64 633.75 1289.31 633.75 1286.65 633.75H1273.35C1270.69 633.75 1269.36 633.75 1268.34 634.268C1267.45 634.723 1266.72 635.45 1266.27 636.344C1265.75 637.36 1265.75 638.69 1265.75 641.35V654.65C1265.75 657.31 1265.75 658.64 1266.27 659.656C1266.72 660.55 1267.45 661.277 1268.34 661.732C1269.36 662.25 1270.69 662.25 1273.35 662.25Z" stroke="white" stroke-width="2" stroke-linecap="round" stroke-linejoin="round"/>
<rect x="1247" y="615" width="66" height="66" rx="33" stroke="#5CADF8" stroke-opacity="0.3" stroke-width="12"/>
<rect x="1088" y="367" width="72" height="72" rx="36" fill="#5CADF8"/>
<path d="M1126.55 396.919C1125.59 397.6 1124.43 398 1123.17 398C1119.94 398 1117.33 395.388 1117.33 392.166C1117.33 388.945 1119.94 386.333 1123.17 386.333C1125.25 386.333 1127.09 387.43 1128.12 389.08M1114 416.478H1118.35C1118.92 416.478 1119.48 416.546 1120.03 416.681L1124.63 417.798C1125.63 418.041 1126.66 418.064 1127.67 417.869L1132.75 416.88C1134.1 416.618 1135.33 415.975 1136.3 415.034L1139.9 411.536C1140.92 410.539 1140.92 408.92 1139.9 407.922C1138.97 407.022 1137.51 406.921 1136.46 407.684L1132.27 410.741C1131.67 411.18 1130.94 411.416 1130.19 411.416H1126.14H1128.72C1130.17 411.416 1131.35 410.272 1131.35 408.86V408.348C1131.35 407.176 1130.53 406.153 1129.36 405.87L1125.38 404.903C1124.73 404.746 1124.07 404.666 1123.4 404.666C1121.8 404.666 1118.89 405.998 1118.89 405.998L1114 408.041M1137.33 393.833C1137.33 397.055 1134.72 399.666 1131.5 399.666C1128.28 399.666 1125.67 397.055 1125.67 393.833C1125.67 390.611 1128.28 388 1131.5 388C1134.72 388 1137.33 390.611 1137.33 393.833ZM1107.33 407.333V417C1107.33 417.933 1107.33 418.4 1107.51 418.756C1107.67 419.07 1107.93 419.325 1108.24 419.485C1108.6 419.666 1109.07 419.666 1110 419.666H1111.33C1112.27 419.666 1112.73 419.666 1113.09 419.485C1113.4 419.325 1113.66 419.07 1113.82 418.756C1114 418.4 1114 417.933 1114 417V407.333C1114 406.4 1114 405.933 1113.82 405.576C1113.66 405.263 1113.4 405.008 1113.09 404.848C1112.73 404.666 1112.27 404.666 1111.33 404.666H1110C1109.07 404.666 1108.6 404.666 1108.24 404.848C1107.93 405.008 1107.67 405.263 1107.51 405.576C1107.33 405.933 1107.33 406.4 1107.33 407.333Z" stroke="white" stroke-width="3" stroke-linecap="round" stroke-linejoin="round"/>
<rect x="1082" y="361" width="84" height="84" rx="42" stroke="#5CADF8" stroke-opacity="0.3" stroke-width="12"/>
<rect x="1000" y="102" width="54" height="54" rx="27" fill="#5CADF8"/>
<g clip-path="url(#clip1_82_1225)">
<path d="M1020.58 121.667C1020.58 120.907 1021.2 120.292 1021.96 120.292H1022.87V119.375C1022.87 118.615 1023.49 118 1024.25 118C1025.01 118 1025.62 118.615 1025.62 119.375V120.292H1026.54C1027.3 120.292 1027.92 120.907 1027.92 121.667C1027.92 122.427 1027.3 123.042 1026.54 123.042H1025.62V123.958C1025.62 124.718 1025.01 125.333 1024.25 125.333C1023.49 125.333 1022.87 124.718 1022.87 123.958V123.042H1021.96C1021.2 123.042 1020.58 122.427 1020.58 121.667ZM1037.1 131.262L1032.33 136.71C1030.51 138.801 1027.87 140 1025.09 140H1020.12C1017.85 140 1016 138.149 1016 135.875V132.208C1016 129.934 1017.85 128.083 1020.12 128.083H1027.33C1028.19 128.083 1028.98 128.413 1029.57 128.953L1031.81 126.497C1032.45 125.794 1033.33 125.381 1034.27 125.337C1035.22 125.292 1036.13 125.621 1036.84 126.261C1038.27 127.569 1038.39 129.813 1037.1 131.261V131.262ZM1034.99 128.294C1034.83 128.148 1034.61 128.072 1034.4 128.084C1034.19 128.094 1033.99 128.188 1033.84 128.348L1030.64 131.872C1030.44 133.324 1029.28 134.515 1027.8 134.727L1023.07 135.403C1022.32 135.505 1021.62 134.988 1021.51 134.236C1021.41 133.484 1021.93 132.788 1022.68 132.68L1027.41 132.005C1027.7 131.964 1027.92 131.713 1027.92 131.422C1027.92 131.097 1027.65 130.833 1027.33 130.833H1020.12C1019.37 130.833 1018.75 131.45 1018.75 132.208V135.875C1018.75 136.633 1019.37 137.25 1020.12 137.25H1025.09C1027.07 137.25 1028.96 136.393 1030.26 134.901L1035.04 129.442C1035.34 129.102 1035.31 128.592 1034.99 128.294Z" fill="#F2F7FA"/>
</g>
<rect x="994" y="96" width="66" height="66" rx="33" stroke="#5CADF8" stroke-opacity="0.3" stroke-width="12"/>
<rect x="1216" y="235" width="40" height="40" rx="20" fill="#5CADF8"/>
<g clip-path="url(#clip2_82_1225)">
<path d="M1230.5 259C1231.33 259 1232 258.328 1232 257.5C1232 256.672 1231.33 256 1230.5 256C1229.67 256 1229 256.672 1229 257.5C1229 258.328 1229.67 259 1230.5 259Z" fill="#F2F7FA"/>
<path d="M1242.5 246H1229.5C1228.04 246.002 1226.64 246.582 1225.61 247.613C1224.58 248.644 1224 250.042 1224 251.5V258.5C1224 259.958 1224.58 261.356 1225.61 262.387C1226.64 263.418 1228.04 263.998 1229.5 264H1242.5C1243.96 263.998 1245.36 263.418 1246.39 262.387C1247.42 261.356 1248 259.958 1248 258.5V251.5C1248 250.042 1247.42 248.644 1246.39 247.613C1245.36 246.582 1243.96 246.002 1242.5 246ZM1229.5 249H1242.5C1243.08 249 1243.63 249.199 1244.08 249.564C1244.53 249.928 1244.83 250.435 1244.95 251H1227.05C1227.17 250.435 1227.47 249.928 1227.92 249.564C1228.37 249.199 1228.92 249 1229.5 249ZM1242.5 261H1229.5C1228.84 261 1228.2 260.737 1227.73 260.268C1227.26 259.799 1227 259.163 1227 258.5V254H1245V258.5C1245 259.163 1244.74 259.799 1244.27 260.268C1243.8 260.737 1243.16 261 1242.5 261Z" fill="#F2F7FA"/>
</g>
<rect x="1210" y="229" width="52" height="52" rx="26" stroke="#5CADF8" stroke-opacity="0.3" stroke-width="12"/>
<rect x="1113" y="89" width="40" height="40" rx="20" fill="#5CADF8"/>
<g clip-path="url(#clip3_82_1225)">
<path d="M1132 117.5C1132 118.33 1131.33 119 1130.5 119H1126.5C1123.47 119 1121 116.53 1121 113.5V102.5C1121 99.47 1123.47 97 1126.5 97H1137.5C1140.53 97 1143 99.47 1143 102.5C1143 103.33 1142.33 104 1141.5 104C1140.67 104 1140 103.33 1140 102.5C1140 101.12 1138.88 100 1137.5 100H1126.5C1125.12 100 1124 101.12 1124 102.5V113.5C1124 114.88 1125.12 116 1126.5 116H1130.5C1131.33 116 1132 116.67 1132 117.5ZM1130.5 111H1129V106.62L1131.06 104.56C1131.49 104.13 1131.62 103.49 1131.39 102.93C1131.16 102.37 1130.61 102 1130 102H1127.5C1126.67 102 1126 102.67 1126 103.5V111.5C1126 112.88 1127.12 114 1128.5 114H1130.5C1131.33 114 1132 113.33 1132 112.5C1132 111.67 1131.33 111 1130.5 111ZM1135.5 105C1136.33 105 1137 104.33 1137 103.5C1137 102.67 1136.33 102 1135.5 102H1134.5C1133.67 102 1133 102.67 1133 103.5C1133 104.33 1133.67 105 1134.5 105H1135.5ZM1145 115V118C1145 119.66 1143.66 121 1142 121H1137C1135.34 121 1134 119.66 1134 118V115C1134 114.11 1134.39 113.31 1135 112.76V110.5C1135 108.02 1137.02 106 1139.5 106C1141.98 106 1144 108.02 1144 110.5V112.76C1144.61 113.31 1145 114.11 1145 115ZM1138 110.5V112H1141V110.5C1141 109.67 1140.33 109 1139.5 109C1138.67 109 1138 109.67 1138 110.5ZM1141 116.5C1141 115.67 1140.33 115 1139.5 115C1138.67 115 1138 115.67 1138 116.5C1138 117.33 1138.67 118 1139.5 118C1140.33 118 1141 117.33 1141 116.5Z" fill="#F2F7FA"/>
</g>
<rect x="1107" y="83" width="52" height="52" rx="26" stroke="#5CADF8" stroke-opacity="0.3" stroke-width="12"/>
<rect x="53" y="115" width="54" height="54" rx="27" fill="#5CADF8"/>
<g clip-path="url(#clip4_82_1225)">
<path d="M89.546 130H81V133H86.879L68 151.879L70.121 154L89 135.121V141H92V132.454C91.9992 131.803 91.7404 131.18 91.2804 130.72C90.8203 130.26 90.1966 130.001 89.546 130Z" fill="#F2F7FA"/>
<path d="M74.5 141C75.39 141 76.26 140.736 77.0001 140.242C77.7401 139.747 78.3169 139.044 78.6575 138.222C78.9981 137.4 79.0872 136.495 78.9135 135.622C78.7399 134.749 78.3113 133.947 77.682 133.318C77.0526 132.689 76.2508 132.26 75.3779 132.086C74.505 131.913 73.6002 132.002 72.7779 132.343C71.9557 132.683 71.2529 133.26 70.7584 134C70.2639 134.74 70 135.61 70 136.5C70.0013 137.693 70.4759 138.837 71.3195 139.681C72.1631 140.524 73.3069 140.999 74.5 141ZM74.5 135C74.7967 135 75.0867 135.088 75.3334 135.253C75.58 135.418 75.7723 135.652 75.8858 135.926C75.9994 136.2 76.0291 136.502 75.9712 136.793C75.9133 137.084 75.7704 137.351 75.5607 137.561C75.3509 137.77 75.0836 137.913 74.7926 137.971C74.5017 138.029 74.2001 137.999 73.926 137.886C73.6519 137.772 73.4176 137.58 73.2528 137.333C73.088 137.087 73 136.797 73 136.5C73 136.102 73.158 135.721 73.4393 135.439C73.7206 135.158 74.1022 135 74.5 135Z" fill="#F2F7FA"/>
<path d="M85.5 143C84.61 143 83.74 143.264 82.9999 143.758C82.2599 144.253 81.6831 144.956 81.3425 145.778C81.0019 146.6 80.9128 147.505 81.0865 148.378C81.2601 149.251 81.6887 150.053 82.318 150.682C82.9474 151.311 83.7492 151.74 84.6221 151.914C85.495 152.087 86.3998 151.998 87.2221 151.657C88.0443 151.317 88.7471 150.74 89.2416 150C89.7361 149.26 90 148.39 90 147.5C89.9987 146.307 89.5241 145.163 88.6805 144.319C87.8369 143.476 86.6931 143.001 85.5 143ZM85.5 149C85.2033 149 84.9133 148.912 84.6666 148.747C84.42 148.582 84.2277 148.348 84.1142 148.074C84.0007 147.8 83.9709 147.498 84.0288 147.207C84.0867 146.916 84.2296 146.649 84.4393 146.439C84.6491 146.23 84.9164 146.087 85.2074 146.029C85.4983 145.971 85.7999 146.001 86.074 146.114C86.3481 146.228 86.5824 146.42 86.7472 146.667C86.912 146.913 87 147.203 87 147.5C87 147.898 86.842 148.279 86.5607 148.561C86.2794 148.842 85.8978 149 85.5 149Z" fill="#F2F7FA"/>
</g>
<rect x="47" y="109" width="66" height="66" rx="33" stroke="#5CADF8" stroke-opacity="0.3" stroke-width="12"/>
<path d="M344.81 86.915C331.909 86.915 319.089 86.2065 306.234 86.2065C293.402 86.2065 280.569 86.2065 267.737 86.2065C260.243 86.2065 253.208 86.7225 245.772 87.4661C238.475 88.1958 231.439 90.1152 224.201 91.0088C212.267 92.4821 199.287 95.1408 187.829 98.9602C182.327 100.794 176.56 101.559 171.06 103.369C166.455 104.885 161.926 106.547 157.204 107.62C150.958 109.04 143.039 113.525 137.916 117.225C132.909 120.841 127.461 122.877 123.036 127.302" stroke="white" stroke-width="3" stroke-linecap="round" stroke-dasharray="8 8"/>
<path d="M210.896 337.739C215.093 341.936 217.047 350.572 217.823 356.161C219.395 367.477 219.744 378.131 217.627 389.424C215.484 400.85 210.204 411.466 204.125 421.308C201.937 424.851 199.179 428.208 196.725 431.582C195.801 432.852 193.89 433.973 193.89 435.518" stroke="white" stroke-width="3" stroke-linecap="round" stroke-dasharray="8 8"/>
<path d="M125.5 514.671C114.137 516.064 101.573 522.783 92.5074 529.58C85.0046 535.206 79.127 542.851 71.6911 548.708C63.6551 555.038 55.4347 564.926 51.2692 574.292C49.4749 578.326 48.3354 582.586 46.6789 586.672" stroke="white" stroke-width="3" stroke-linecap="round" stroke-dasharray="8 8"/>
<path d="M1236.19 635.746C1233.23 635.207 1230.76 632.037 1228.53 630.265C1221.06 624.328 1212.94 618.611 1204.61 614.008C1187.8 604.722 1168.74 598.074 1149.8 594.778C1139.29 592.951 1129.05 591.489 1118.35 590.598C1113.52 590.195 1109.5 590.598 1104.93 590.598" stroke="white" stroke-width="3" stroke-linecap="round" stroke-dasharray="8 8"/>
<path d="M107.448 174.066C119.99 174.066 128.385 178.318 138.9 184.97C148.527 191.061 158.788 199.077 165.903 208.037C171.947 215.648 177.807 223.929 180.035 233.427C181.929 241.502 182.346 249.548 183.971 257.674" stroke="white" stroke-width="3" stroke-linecap="round" stroke-dasharray="8 8"/>
<path d="M1060.62 113.198C1062.84 111.42 1069.97 110.801 1072.97 110.69C1076.26 110.568 1079.38 109.854 1082.77 109.854C1085.82 109.854 1088.87 109.854 1091.92 109.854C1094.55 109.854 1096.4 111.526 1099.07 111.526" stroke="white" stroke-width="3" stroke-linecap="round" stroke-dasharray="8 8"/>
<path d="M1153.42 129.919C1153.42 141.016 1156.54 152.003 1160.11 162.526C1162.22 168.745 1166.13 174.667 1169.49 180.269C1172.45 185.201 1176.51 188.851 1179.52 193.647C1186.04 204.02 1196.97 213.405 1206.56 220.866C1209.56 223.203 1211.88 227.38 1215.48 228.762C1217.59 229.573 1217.98 231.92 1220.31 231.92" stroke="white" stroke-width="3" stroke-linecap="round" stroke-dasharray="8 8"/>
<path d="M1222.81 290.446C1221.07 290.665 1217.89 294.924 1216.5 296.113C1211.63 300.27 1206.39 304.692 1202.38 309.676C1196.36 317.141 1189.54 323.986 1183.57 331.461C1179.19 336.935 1172.59 344.035 1170.14 350.644C1168.63 354.734 1165.47 358.094 1164.34 362.256C1163.85 364.037 1163.41 365.778 1162.62 367.365" stroke="white" stroke-width="3" stroke-linecap="round" stroke-dasharray="8 8"/>
<path d="M1159.27 439.268C1163.19 441.445 1165.62 445.118 1169.12 447.814C1174.9 452.265 1180.59 457.69 1185.56 463.003C1195.56 473.689 1204.77 484.433 1213.62 496.121C1218.11 502.059 1222.94 507.522 1227.18 513.678C1232.69 521.681 1235.44 529.795 1239.54 538.436C1243.43 546.63 1246.85 555.349 1248.32 564.308C1250.55 577.944 1254.64 591.03 1256.26 604.811" stroke="white" stroke-width="3" stroke-linecap="round" stroke-dasharray="8 8"/>
<defs>
<clipPath id="clip0_82_1225">
<rect width="24" height="24" fill="white" transform="translate(1064 585)"/>
</clipPath>
<clipPath id="clip1_82_1225">
<rect width="22" height="22" fill="white" transform="translate(1016 118)"/>
</clipPath>
<clipPath id="clip2_82_1225">
<rect width="24" height="24" fill="white" transform="translate(1224 243)"/>
</clipPath>
<clipPath id="clip3_82_1225">
<rect width="24" height="24" fill="white" transform="translate(1121 97)"/>
</clipPath>
<clipPath id="clip4_82_1225">
<rect width="24" height="24" fill="white" transform="translate(68 130)"/>
</clipPath>
</defs>
</svg>
