<svg width="352" height="649" viewBox="0 0 352 649" fill="none" xmlns="http://www.w3.org/2000/svg">
<rect x="68" y="77" width="52" height="52" rx="26" fill="#5CADF8"/>
<g clip-path="url(#clip0_53_1919)">
<path d="M103.546 91H95V94H100.879L82 112.879L84.121 115L103 96.121V102H106V93.454C105.999 92.8034 105.74 92.1797 105.28 91.7196C104.82 91.2596 104.197 91.0008 103.546 91Z" fill="#F2F7FA"/>
<path d="M88.5 102C89.39 102 90.26 101.736 91.0001 101.242C91.7401 100.747 92.3169 100.044 92.6575 99.2221C92.9981 98.3998 93.0872 97.495 92.9135 96.6221C92.7399 95.7492 92.3113 94.9474 91.682 94.318C91.0526 93.6887 90.2508 93.2601 89.3779 93.0865C88.505 92.9128 87.6002 93.0019 86.7779 93.3425C85.9557 93.6831 85.2529 94.2599 84.7584 94.9999C84.2639 95.74 84 96.61 84 97.5C84.0013 98.6931 84.4759 99.8369 85.3195 100.681C86.1631 101.524 87.3069 101.999 88.5 102ZM88.5 96C88.7967 96 89.0867 96.088 89.3334 96.2528C89.58 96.4176 89.7723 96.6519 89.8858 96.926C89.9994 97.2001 90.0291 97.5017 89.9712 97.7926C89.9133 98.0836 89.7704 98.3509 89.5607 98.5607C89.3509 98.7704 89.0836 98.9133 88.7926 98.9712C88.5017 99.0291 88.2001 98.9994 87.926 98.8858C87.6519 98.7723 87.4176 98.58 87.2528 98.3334C87.088 98.0867 87 97.7967 87 97.5C87 97.1022 87.158 96.7206 87.4393 96.4393C87.7206 96.158 88.1022 96 88.5 96Z" fill="#F2F7FA"/>
<path d="M99.5 104C98.61 104 97.74 104.264 96.9999 104.758C96.2599 105.253 95.6831 105.956 95.3425 106.778C95.0019 107.6 94.9128 108.505 95.0865 109.378C95.2601 110.251 95.6887 111.053 96.318 111.682C96.9474 112.311 97.7492 112.74 98.6221 112.914C99.495 113.087 100.4 112.998 101.222 112.657C102.044 112.317 102.747 111.74 103.242 111C103.736 110.26 104 109.39 104 108.5C103.999 107.307 103.524 106.163 102.681 105.319C101.837 104.476 100.693 104.001 99.5 104ZM99.5 110C99.2033 110 98.9133 109.912 98.6666 109.747C98.42 109.582 98.2277 109.348 98.1142 109.074C98.0007 108.8 97.9709 108.498 98.0288 108.207C98.0867 107.916 98.2296 107.649 98.4393 107.439C98.6491 107.23 98.9164 107.087 99.2074 107.029C99.4983 106.971 99.7999 107.001 100.074 107.114C100.348 107.228 100.582 107.42 100.747 107.667C100.912 107.913 101 108.203 101 108.5C101 108.898 100.842 109.279 100.561 109.561C100.279 109.842 99.8978 110 99.5 110Z" fill="#F2F7FA"/>
</g>
<rect x="64" y="73" width="60" height="60" rx="30" stroke="#5CADF8" stroke-opacity="0.3" stroke-width="8"/>
<rect x="62" y="498" width="32" height="32" rx="16" fill="#5CADF8"/>
<g clip-path="url(#clip1_53_1919)">
<path d="M73.3333 508.667C73.3333 508.114 73.7807 507.667 74.3333 507.667H75V507C75 506.447 75.4473 506 76 506C76.5527 506 77 506.447 77 507V507.667H77.6667C78.2193 507.667 78.6667 508.114 78.6667 508.667C78.6667 509.219 78.2193 509.667 77.6667 509.667H77V510.333C77 510.886 76.5527 511.333 76 511.333C75.4473 511.333 75 510.886 75 510.333V509.667H74.3333C73.7807 509.667 73.3333 509.219 73.3333 508.667ZM85.3427 515.645L81.8793 519.607C80.55 521.128 78.6293 522 76.6093 522H73C71.346 522 70 520.654 70 519V516.333C70 514.679 71.346 513.333 73 513.333H78.2387C78.8667 513.333 79.44 513.573 79.872 513.966L81.4973 512.179C81.9627 511.668 82.6 511.368 83.2907 511.336C83.9807 511.303 84.6433 511.543 85.1547 512.008C86.1987 512.959 86.2827 514.591 85.3427 515.645V515.645ZM83.808 513.487C83.6913 513.381 83.538 513.325 83.384 513.334C83.2267 513.341 83.082 513.409 82.976 513.526L80.644 516.089C80.4987 517.145 79.6607 518.011 78.582 518.165L75.1413 518.657C74.5947 518.731 74.088 518.355 74.01 517.808C73.932 517.261 74.312 516.755 74.8587 516.677L78.2993 516.185C78.5087 516.155 78.6667 515.973 78.6667 515.761C78.6667 515.525 78.4747 515.333 78.2387 515.333H73C72.4487 515.333 72 515.782 72 516.333V519C72 519.551 72.4487 520 73 520H76.6093C78.052 520 79.424 519.377 80.3733 518.291L83.844 514.321C84.0647 514.074 84.0453 513.703 83.808 513.487Z" fill="#F2F7FA"/>
</g>
<rect x="58" y="494" width="40" height="40" rx="20" stroke="#5CADF8" stroke-opacity="0.3" stroke-width="8"/>
<rect x="308" y="122" width="32" height="32" rx="16" fill="#5CADF8"/>
<path d="M321.6 140.4L326.125 135.875M332 138C332 142.418 328.418 146 324 146C319.582 146 316 142.418 316 138C316 133.582 319.582 130 324 130C328.418 130 332 133.582 332 138Z" stroke="#FAFAFA" stroke-width="2" stroke-linecap="round"/>
<path d="M320.8 135.6C320.8 136.042 321.158 136.4 321.6 136.4C322.042 136.4 322.4 136.042 322.4 135.6C322.4 135.158 322.042 134.8 321.6 134.8C321.158 134.8 320.8 135.158 320.8 135.6Z" fill="#FAFAFA"/>
<path d="M325.6 140.4C325.6 140.842 325.958 141.2 326.4 141.2C326.842 141.2 327.2 140.842 327.2 140.4C327.2 139.958 326.842 139.6 326.4 139.6C325.958 139.6 325.6 139.958 325.6 140.4Z" fill="#FAFAFA"/>
<rect x="304" y="118" width="40" height="40" rx="20" stroke="#5CADF8" stroke-opacity="0.3" stroke-width="8"/>
<rect x="183" y="104" width="32" height="32" rx="16" fill="#5CADF8"/>
<path d="M199 128C203.418 128 207 124.418 207 120C207 115.582 203.418 112 199 112C194.582 112 191 115.582 191 120C191 124.418 194.582 128 199 128Z" stroke="white" stroke-width="1.6" stroke-linecap="round" stroke-linejoin="round"/>
<path d="M198.997 117.654C198.198 116.719 196.864 116.468 195.862 117.324C194.86 118.18 194.719 119.611 195.506 120.624C196.01 121.273 197.3 122.475 198.163 123.256C198.45 123.516 198.594 123.645 198.765 123.697C198.913 123.742 199.082 123.742 199.229 123.697C199.401 123.645 199.544 123.516 199.831 123.256C200.694 122.475 201.985 121.273 202.489 120.624C203.276 119.611 203.152 118.171 202.133 117.324C201.113 116.477 199.797 116.719 198.997 117.654Z" stroke="white" stroke-width="1.6" stroke-linecap="round" stroke-linejoin="round"/>
<rect x="179" y="100" width="40" height="40" rx="20" stroke="#5CADF8" stroke-opacity="0.3" stroke-width="8"/>
<rect x="8" y="8" width="32" height="32" rx="16" fill="#5CADF8"/>
<path d="M19.3333 22.0003V27.3337M22.3333 22.0003V27.3337M25.6667 22.0003V27.3337M28.6667 22.0003V27.3337M18 28.4003L18 28.9337C18 29.307 18 29.4937 18.0727 29.6363C18.1366 29.7618 18.2386 29.8638 18.364 29.9277C18.5066 30.0003 18.6933 30.0003 19.0667 30.0003H28.9333C29.3067 30.0003 29.4934 30.0003 29.636 29.9277C29.7614 29.8638 29.8634 29.7618 29.9273 29.6363C30 29.4937 30 29.307 30 28.9337V28.4003C30 28.027 30 27.8403 29.9273 27.6977C29.8634 27.5722 29.7614 27.4703 29.636 27.4063C29.4934 27.3337 29.3067 27.3337 28.9333 27.3337H19.0667C18.6933 27.3337 18.5066 27.3337 18.364 27.4063C18.2386 27.4703 18.1366 27.5722 18.0727 27.6977C18 27.8403 18 28.027 18 28.4003ZM23.7686 18.0518L18.8353 19.1481C18.5372 19.2143 18.3882 19.2474 18.277 19.3275C18.1789 19.3982 18.1018 19.4943 18.0541 19.6054C18 19.7314 18 19.884 18 20.1893L18 20.9337C18 21.307 18 21.4937 18.0727 21.6363C18.1366 21.7618 18.2386 21.8638 18.364 21.9277C18.5066 22.0003 18.6933 22.0003 19.0667 22.0003H28.9333C29.3067 22.0003 29.4934 22.0003 29.636 21.9277C29.7614 21.8638 29.8634 21.7618 29.9273 21.6363C30 21.4937 30 21.307 30 20.9337V20.1893C30 19.884 30 19.7314 29.9459 19.6054C29.8982 19.4943 29.8211 19.3982 29.723 19.3275C29.6118 19.2474 29.4628 19.2143 29.1647 19.1481L24.2314 18.0518C24.145 18.0326 24.1019 18.023 24.0582 18.0192C24.0195 18.0158 23.9805 18.0158 23.9418 18.0192C23.8981 18.023 23.855 18.0326 23.7686 18.0518Z" stroke="white" stroke-linecap="round" stroke-linejoin="round"/>
<rect x="4" y="4" width="40" height="40" rx="20" stroke="#5CADF8" stroke-opacity="0.3" stroke-width="8"/>
<rect x="16" y="597" width="40" height="40" rx="20" fill="#5CADF8"/>
<g clip-path="url(#clip2_53_1919)">
<path d="M35 625.5C35 626.33 34.33 627 33.5 627H29.5C26.47 627 24 624.53 24 621.5V610.5C24 607.47 26.47 605 29.5 605H40.5C43.53 605 46 607.47 46 610.5C46 611.33 45.33 612 44.5 612C43.67 612 43 611.33 43 610.5C43 609.12 41.88 608 40.5 608H29.5C28.12 608 27 609.12 27 610.5V621.5C27 622.88 28.12 624 29.5 624H33.5C34.33 624 35 624.67 35 625.5ZM33.5 619H32V614.62L34.06 612.56C34.49 612.13 34.62 611.49 34.39 610.93C34.16 610.37 33.61 610 33 610H30.5C29.67 610 29 610.67 29 611.5V619.5C29 620.88 30.12 622 31.5 622H33.5C34.33 622 35 621.33 35 620.5C35 619.67 34.33 619 33.5 619ZM38.5 613C39.33 613 40 612.33 40 611.5C40 610.67 39.33 610 38.5 610H37.5C36.67 610 36 610.67 36 611.5C36 612.33 36.67 613 37.5 613H38.5ZM48 623V626C48 627.66 46.66 629 45 629H40C38.34 629 37 627.66 37 626V623C37 622.11 37.39 621.31 38 620.76V618.5C38 616.02 40.02 614 42.5 614C44.98 614 47 616.02 47 618.5V620.76C47.61 621.31 48 622.11 48 623ZM41 618.5V620H44V618.5C44 617.67 43.33 617 42.5 617C41.67 617 41 617.67 41 618.5ZM44 624.5C44 623.67 43.33 623 42.5 623C41.67 623 41 623.67 41 624.5C41 625.33 41.67 626 42.5 626C43.33 626 44 625.33 44 624.5Z" fill="#F2F7FA"/>
</g>
<rect x="12" y="593" width="48" height="48" rx="24" stroke="#5CADF8" stroke-opacity="0.3" stroke-width="8"/>
<rect x="151" y="514" width="52" height="52" rx="26" fill="#5CADF8"/>
<g clip-path="url(#clip3_53_1919)">
<path d="M168.75 546C169.993 546 171 544.993 171 543.75C171 542.507 169.993 541.5 168.75 541.5C167.507 541.5 166.5 542.507 166.5 543.75C166.5 544.993 167.507 546 168.75 546Z" fill="#F2F7FA"/>
<path d="M186.75 526.5H167.25C165.063 526.502 162.966 527.372 161.419 528.919C159.872 530.466 159.002 532.563 159 534.75V545.25C159.002 547.437 159.872 549.534 161.419 551.081C162.966 552.628 165.063 553.498 167.25 553.5H186.75C188.937 553.498 191.034 552.628 192.581 551.081C194.128 549.534 194.998 547.437 195 545.25V534.75C194.998 532.563 194.128 530.466 192.581 528.919C191.034 527.372 188.937 526.502 186.75 526.5ZM167.25 531H186.75C187.614 531 188.452 531.299 189.121 531.845C189.791 532.392 190.251 533.153 190.424 534H163.576C163.749 533.153 164.209 532.392 164.879 531.845C165.548 531.299 166.386 531 167.25 531ZM186.75 549H167.25C166.255 549 165.302 548.605 164.598 547.902C163.895 547.198 163.5 546.245 163.5 545.25V538.5H190.5V545.25C190.5 546.245 190.105 547.198 189.402 547.902C188.698 548.605 187.745 549 186.75 549Z" fill="#F2F7FA"/>
</g>
<rect x="147" y="510" width="60" height="60" rx="30" stroke="#5CADF8" stroke-opacity="0.3" stroke-width="8"/>
<rect x="290" y="460" width="40" height="40" rx="20" fill="#5CADF8"/>
<g clip-path="url(#clip4_53_1919)">
<path d="M311.747 473.202C312.902 472.408 314.31 471.188 314.917 469.663C315.235 468.864 314.597 468 313.738 468H306.263C305.403 468 304.766 468.864 305.084 469.663C305.691 471.188 307.099 472.408 308.254 473.202C303.112 474.39 299 480.585 299 485.75C299 489.196 301.804 492 305.25 492H314.75C318.196 492 321 489.196 321 485.75C321 480.585 316.888 474.39 311.747 473.202ZM314.75 489H305.25C303.458 489 302 487.542 302 485.75C302 481.194 306.262 476 310 476C313.738 476 318 481.194 318 485.75C318 487.542 316.542 489 314.75 489Z" fill="#F2F7FA"/>
</g>
<rect x="286" y="456" width="48" height="48" rx="24" stroke="#5CADF8" stroke-opacity="0.3" stroke-width="8"/>
<rect x="231" y="597" width="32" height="32" rx="16" fill="#5CADF8"/>
<g clip-path="url(#clip5_53_1919)">
<path d="M248.019 610.568C247.638 610.84 247.171 611 246.666 611C245.378 611 244.333 609.955 244.333 608.666C244.333 607.378 245.378 606.333 246.666 606.333C247.502 606.333 248.234 606.772 248.647 607.432M243 618.391H244.74C244.967 618.391 245.192 618.418 245.412 618.472L247.251 618.919C247.65 619.016 248.066 619.026 248.469 618.947L250.502 618.552C251.039 618.447 251.533 618.19 251.92 617.813L253.358 616.414C253.769 616.015 253.769 615.368 253.358 614.968C252.988 614.609 252.403 614.568 251.984 614.873L250.308 616.096C250.068 616.272 249.776 616.366 249.475 616.366H247.857H248.887C249.468 616.366 249.938 615.909 249.938 615.344V615.139C249.938 614.67 249.61 614.261 249.142 614.148L247.552 613.761C247.293 613.698 247.028 613.666 246.762 613.666C246.119 613.666 244.954 614.199 244.954 614.199L243 615.016M252.333 609.333C252.333 610.622 251.288 611.666 250 611.666C248.711 611.666 247.666 610.622 247.666 609.333C247.666 608.044 248.711 607 250 607C251.288 607 252.333 608.044 252.333 609.333ZM240.333 614.733V618.6C240.333 618.973 240.333 619.16 240.406 619.302C240.47 619.428 240.572 619.53 240.697 619.594C240.84 619.666 241.026 619.666 241.4 619.666H241.933C242.306 619.666 242.493 619.666 242.636 619.594C242.761 619.53 242.863 619.428 242.927 619.302C243 619.16 243 618.973 243 618.6V614.733C243 614.36 243 614.173 242.927 614.03C242.863 613.905 242.761 613.803 242.636 613.739C242.493 613.666 242.306 613.666 241.933 613.666H241.4C241.026 613.666 240.84 613.666 240.697 613.739C240.572 613.803 240.47 613.905 240.406 614.03C240.333 614.173 240.333 614.36 240.333 614.733Z" stroke="white" stroke-linecap="round" stroke-linejoin="round"/>
</g>
<rect x="227" y="593" width="40" height="40" rx="20" stroke="#5CADF8" stroke-opacity="0.3" stroke-width="8"/>
<rect x="312" y="534" width="32" height="32" rx="16" fill="#5CADF8"/>
<path d="M331.667 546.333L324.333 553.667M325.667 549V546.333M324.333 547.667H327M329 552.333H331.667M325.2 556H330.8C331.92 556 332.48 556 332.908 555.782C333.284 555.59 333.59 555.284 333.782 554.908C334 554.48 334 553.92 334 552.8V547.2C334 546.08 334 545.52 333.782 545.092C333.59 544.716 333.284 544.41 332.908 544.218C332.48 544 331.92 544 330.8 544H325.2C324.08 544 323.52 544 323.092 544.218C322.716 544.41 322.41 544.716 322.218 545.092C322 545.52 322 546.08 322 547.2V552.8C322 553.92 322 554.48 322.218 554.908C322.41 555.284 322.716 555.59 323.092 555.782C323.52 556 324.08 556 325.2 556Z" stroke="white" stroke-width="1.5" stroke-linecap="round" stroke-linejoin="round"/>
<rect x="308" y="530" width="40" height="40" rx="20" stroke="#5CADF8" stroke-opacity="0.3" stroke-width="8"/>
<rect x="258" y="14" width="52" height="52" rx="26" fill="#5CADF8"/>
<path d="M290.75 43H290.765M270.5 29.5V50.5C270.5 52.1569 271.843 53.5 273.5 53.5H294.5C296.157 53.5 297.5 52.1569 297.5 50.5V35.5C297.5 33.8431 296.157 32.5 294.5 32.5H273.5C271.843 32.5 270.5 31.1569 270.5 29.5ZM270.5 29.5C270.5 27.8431 271.843 26.5 273.5 26.5H291.5M291.5 43C291.5 43.4142 291.164 43.75 290.75 43.75C290.336 43.75 290 43.4142 290 43C290 42.5858 290.336 42.25 290.75 42.25C291.164 42.25 291.5 42.5858 291.5 43Z" stroke="white" stroke-width="3.55556" stroke-linecap="round" stroke-linejoin="round"/>
<rect x="254" y="10" width="60" height="60" rx="30" stroke="#5CADF8" stroke-opacity="0.3" stroke-width="8"/>
<path d="M172.933 120.18C170.758 122.355 166.282 123.368 163.385 123.77C157.521 124.585 151.999 124.765 146.147 123.668C140.225 122.558 134.724 119.821 129.623 116.671C127.787 115.537 126.047 114.107 124.298 112.836C123.64 112.357 123.059 111.367 122.258 111.367" stroke="white" stroke-width="2" stroke-linecap="round" stroke-dasharray="6 6"/>
<path d="M74.5221 77.2177C74.5221 71.2847 71.8574 64.398 68.9324 59.3063C66.5115 55.0922 62.9492 51.5869 60.4051 47.3926C57.6557 42.8599 53.0874 38.008 48.5321 35.2749C46.57 34.0976 44.4502 33.2428 42.4529 32.1332C41.9744 31.8674 40.5179 31.6857 40.9841 31.3988C41.7348 30.9368 43.5307 31.3172 44.4113 31.3172" stroke="white" stroke-width="2" stroke-linecap="round" stroke-dasharray="6 6"/>
<path d="M51.6926 604.121C51.9723 602.583 53.617 601.3 54.5364 600.145C57.6169 596.272 60.583 592.057 62.9713 587.733C67.7892 579.011 71.2389 569.126 72.9486 559.296C73.8966 553.844 74.6551 548.529 75.1175 542.98C75.3264 540.474 75.1175 538.386 75.1175 536.015" stroke="#CDE5FC" stroke-width="2" stroke-linecap="round" stroke-dasharray="6 6"/>
<path d="M258 67C258 73.3918 255.762 77.6706 252.262 83.0293C249.056 87.9359 244.838 93.1653 240.122 96.7917C236.117 99.872 231.759 102.858 226.761 103.994C222.511 104.959 218.277 105.172 214 106" stroke="white" stroke-width="2" stroke-linecap="round" stroke-dasharray="6 6"/>
<path d="M323 513C324.063 514.155 324.434 517.865 324.5 519.425C324.573 521.134 325 522.758 325 524.522C325 526.108 325 527.694 325 529.28C325 530.648 324 531.611 324 533" stroke="#CDE5FC" stroke-width="2" stroke-linecap="round" stroke-dasharray="6 6"/>
<path d="M314 561C308.234 561 302.525 562.632 297.057 564.5C293.826 565.604 290.749 567.651 287.838 569.41C285.275 570.958 283.379 573.084 280.887 574.66C275.497 578.068 270.62 583.786 266.744 588.806C265.53 590.378 263.359 591.593 262.641 593.472C262.219 594.576 261 594.782 261 596" stroke="#CDE5FC" stroke-width="2" stroke-linecap="round" stroke-dasharray="6 6"/>
<path d="M231 597C230.886 596.101 228.672 594.464 228.053 593.747C225.891 591.242 223.592 588.543 221 586.475C217.118 583.379 213.558 579.867 209.671 576.788C206.824 574.532 203.132 571.135 199.696 569.875C197.568 569.095 195.822 567.47 193.657 566.885C192.731 566.635 191.826 566.409 191 566" stroke="#CDE5FC" stroke-width="2" stroke-linecap="round" stroke-dasharray="6 6"/>
<path d="M154 564C152.869 566.061 150.961 567.338 149.56 569.178C147.248 572.216 144.43 575.211 141.669 577.825C136.118 583.082 130.537 587.926 124.465 592.578C121.38 594.941 118.542 597.479 115.343 599.71C111.186 602.609 106.971 604.051 102.482 606.207C98.2253 608.252 93.6955 610.052 89.0415 610.823C81.9573 611.997 75.1589 614.147 68 615" stroke="#CDE5FC" stroke-width="2" stroke-linecap="round" stroke-dasharray="6 6"/>
<path d="M279.033 77C279.033 78.9611 278.959 80.9379 279.033 82.8976C279.118 85.1405 280.687 87.6982 281.524 89.7656C283.787 95.3558 286.769 101.512 291.103 105.891C296.336 111.178 300.772 117.653 308 120" stroke="white" stroke-width="2" stroke-linecap="round" stroke-dasharray="6 6"/>
<defs>
<clipPath id="clip0_53_1919">
<rect width="24" height="24" fill="white" transform="translate(82 91)"/>
</clipPath>
<clipPath id="clip1_53_1919">
<rect width="16" height="16" fill="white" transform="translate(70 506)"/>
</clipPath>
<clipPath id="clip2_53_1919">
<rect width="24" height="24" fill="white" transform="translate(24 605)"/>
</clipPath>
<clipPath id="clip3_53_1919">
<rect width="36" height="36" fill="white" transform="translate(159 522)"/>
</clipPath>
<clipPath id="clip4_53_1919">
<rect width="24" height="24" fill="white" transform="translate(298 468)"/>
</clipPath>
<clipPath id="clip5_53_1919">
<rect width="16" height="16" fill="white" transform="translate(239 605)"/>
</clipPath>
</defs>
</svg>
