<svg width="848" height="911" viewBox="0 0 848 911" fill="none" xmlns="http://www.w3.org/2000/svg">
<path d="M819.718 726.049H759.373V726.504H819.718V726.049Z" fill="#5CADF8" fill-opacity="0.5"/>
<path d="M603.483 731.004H587.649V731.459H603.483V731.004Z" fill="#5CADF8" fill-opacity="0.5"/>
<path d="M757.551 709.141H722.587V709.596H757.551V709.141Z" fill="#5CADF8" fill-opacity="0.5"/>
<path d="M174.274 712.201H95.582V712.657H174.274V712.201Z" fill="#5CADF8" fill-opacity="0.5"/>
<path d="M202.042 712.201H190.509V712.657H202.042V712.201Z" fill="#5CADF8" fill-opacity="0.5"/>
<path d="M410.223 719.891H239.538V720.346H410.223V719.891Z" fill="#5CADF8" fill-opacity="0.5"/>
<path d="M911 696.732H0V697.188H911V696.732Z" fill="#5CADF8" fill-opacity="0.5"/>
<path d="M402.662 516.7H414.851V693.726C414.851 694.301 414.623 694.852 414.216 695.259C413.809 695.665 413.258 695.894 412.683 695.894H404.812C404.237 695.894 403.685 695.665 403.279 695.259C402.872 694.852 402.644 694.301 402.644 693.726V516.7H402.662Z" fill="#5CADF8" fill-opacity="0.3"/>
<path d="M779.871 500.776H674.268V516.701H779.871V500.776Z" fill="#5CADF8" fill-opacity="0.5"/>
<path d="M478.184 516.7H490.373V693.726C490.373 694.301 490.144 694.852 489.738 695.259C489.331 695.665 488.78 695.894 488.205 695.894H480.352C479.777 695.894 479.225 695.665 478.819 695.259C478.412 694.852 478.184 694.301 478.184 693.726V516.7Z" fill="#5CADF8" fill-opacity="0.5"/>
<path d="M760.631 516.7H772.82V693.726C772.82 694.301 772.592 694.852 772.185 695.259C771.778 695.665 771.227 695.894 770.652 695.894H762.799C762.224 695.894 761.673 695.665 761.266 695.259C760.859 694.852 760.631 694.301 760.631 693.726V516.7Z" fill="#5CADF8" fill-opacity="0.5"/>
<path d="M704.386 500.776H395.666V516.701H704.386V500.776Z" fill="#F5F5F5"/>
<path d="M685.072 516.7H697.261V693.726C697.261 694.301 697.033 694.852 696.626 695.259C696.219 695.665 695.668 695.894 695.093 695.894H687.222C686.647 695.894 686.095 695.665 685.689 695.259C685.282 694.852 685.054 694.301 685.054 693.726V516.7H685.072Z" fill="#5CADF8" fill-opacity="0.3"/>
<path d="M756.987 500.776H728.982V498.28C728.983 497.124 729.219 495.98 729.676 494.918C730.133 493.856 730.801 492.898 731.639 492.102C732.478 491.306 733.469 490.689 734.553 490.289C735.638 489.888 736.792 489.712 737.947 489.771L748.879 490.372C751.055 490.489 753.104 491.437 754.603 493.02C756.101 494.603 756.935 496.701 756.932 498.881L756.987 500.776Z" fill="#5CADF8" fill-opacity="0.3"/>
<path d="M681.428 442.873C681.376 441.811 680.918 440.81 680.147 440.077C679.377 439.344 678.355 438.936 677.292 438.938H648.923C647.86 438.936 646.837 439.344 646.067 440.077C645.297 440.81 644.839 441.811 644.787 442.873L651.51 501.869H693.762L681.428 442.873Z" fill="#5CADF8" fill-opacity="0.3"/>
<path d="M758.244 352.174H747.695L735.852 463.59H746.383C747.25 463.567 748.081 463.235 748.726 462.653C749.371 462.072 749.787 461.28 749.899 460.419L761.068 355.29C761.115 354.894 761.077 354.493 760.955 354.113C760.834 353.734 760.633 353.385 760.365 353.089C760.098 352.794 759.77 352.56 759.404 352.402C759.038 352.244 758.642 352.166 758.244 352.174Z" fill="#5CADF8" fill-opacity="0.3"/>
<path d="M741.937 463.589H583.86C583.457 463.598 583.056 463.519 582.686 463.358C582.315 463.197 581.984 462.958 581.716 462.656C581.447 462.355 581.247 461.998 581.13 461.612C581.013 461.226 580.981 460.818 581.036 460.419L592.15 355.289C592.262 354.432 592.676 353.642 593.317 353.061C593.958 352.48 594.784 352.146 595.649 352.119H753.725C754.129 352.11 754.53 352.188 754.9 352.349C755.27 352.511 755.601 352.75 755.87 353.052C756.138 353.353 756.338 353.709 756.456 354.096C756.573 354.482 756.605 354.889 756.55 355.289L745.381 460.364C745.282 461.222 744.882 462.018 744.251 462.609C743.62 463.2 742.8 463.547 741.937 463.589Z" fill="#5CADF8" fill-opacity="0.5"/>
<path d="M738.985 453.295H589.909C589.559 453.301 589.212 453.231 588.892 453.09C588.571 452.95 588.284 452.742 588.051 452.481C587.818 452.22 587.643 451.912 587.539 451.578C587.436 451.244 587.405 450.891 587.449 450.544L597.197 358.934C597.289 358.181 597.649 357.487 598.211 356.978C598.773 356.47 599.5 356.181 600.258 356.164H749.316C749.668 356.159 750.018 356.229 750.34 356.371C750.663 356.512 750.952 356.721 751.187 356.984C751.422 357.246 751.598 357.556 751.702 357.893C751.807 358.229 751.838 358.584 751.794 358.934L742.028 450.617C741.917 451.35 741.551 452.02 740.994 452.51C740.438 453 739.726 453.278 738.985 453.295Z" fill="#F2F7FA"/>
<path d="M695.348 497.278H643.385C643.083 497.276 642.783 497.334 642.503 497.448C642.224 497.563 641.97 497.732 641.756 497.945C641.542 498.159 641.373 498.413 641.259 498.693C641.144 498.972 641.087 499.272 641.089 499.574C641.089 500.183 641.331 500.767 641.761 501.197C642.192 501.628 642.776 501.87 643.385 501.87H695.348C695.956 501.865 696.537 501.622 696.966 501.192C697.396 500.763 697.639 500.182 697.644 499.574C697.644 498.965 697.402 498.381 696.971 497.951C696.541 497.52 695.957 497.278 695.348 497.278Z" fill="#5CADF8" fill-opacity="0.3"/>
<path d="M679.679 494.217H591.53V500.776H679.679V494.217Z" fill="#5CADF8" fill-opacity="0.5"/>
<path d="M550.808 523.934H421.082V696.568H550.808V523.934Z" fill="#F5F5F5"/>
<path d="M575.57 523.934H550.827V696.568H575.57V523.934Z" fill="#5CADF8" fill-opacity="0.5"/>
<path d="M542.409 536.742H430.174V578.666H542.409V536.742Z" fill="#F2F7FA"/>
<path d="M542.409 583.24H430.174V625.164H542.409V583.24Z" fill="#F2F7FA"/>
<path d="M542.409 629.756H430.174V671.68H542.409V629.756Z" fill="#F2F7FA"/>
<path d="M490.974 557.714C490.974 558.64 490.7 559.545 490.185 560.315C489.671 561.085 488.939 561.685 488.084 562.04C487.228 562.394 486.287 562.487 485.378 562.306C484.47 562.126 483.636 561.68 482.981 561.025C482.326 560.37 481.88 559.536 481.699 558.627C481.519 557.719 481.611 556.778 481.966 555.922C482.32 555.066 482.92 554.335 483.69 553.82C484.46 553.306 485.366 553.031 486.292 553.031C487.534 553.031 488.725 553.525 489.603 554.403C490.481 555.281 490.974 556.472 490.974 557.714Z" fill="#5CADF8" fill-opacity="0.5"/>
<path d="M490.974 604.212C490.974 605.138 490.7 606.043 490.185 606.813C489.671 607.583 488.939 608.184 488.084 608.538C487.228 608.892 486.287 608.985 485.378 608.804C484.47 608.624 483.636 608.178 482.981 607.523C482.326 606.868 481.88 606.034 481.699 605.125C481.519 604.217 481.611 603.276 481.966 602.42C482.32 601.564 482.92 600.833 483.69 600.319C484.46 599.804 485.366 599.529 486.292 599.529C486.907 599.527 487.517 599.646 488.087 599.881C488.656 600.115 489.173 600.46 489.608 600.895C490.044 601.331 490.388 601.848 490.623 602.417C490.857 602.986 490.977 603.596 490.974 604.212Z" fill="#5CADF8" fill-opacity="0.5"/>
<path d="M490.974 650.708C490.974 651.634 490.7 652.539 490.185 653.309C489.671 654.079 488.939 654.68 488.084 655.034C487.228 655.388 486.287 655.481 485.378 655.3C484.47 655.12 483.636 654.674 482.981 654.019C482.326 653.364 481.88 652.53 481.699 651.621C481.519 650.713 481.611 649.772 481.966 648.916C482.32 648.06 482.92 647.329 483.69 646.815C484.46 646.3 485.366 646.025 486.292 646.025C487.534 646.025 488.725 646.519 489.603 647.397C490.481 648.275 490.974 649.466 490.974 650.708Z" fill="#5CADF8" fill-opacity="0.5"/>
<path d="M337.489 243.729H159.315V692.633H337.489V243.729Z" fill="#5CADF8" fill-opacity="0.3"/>
<path d="M337.489 239.793V696.568H370.285V239.793H337.489Z" fill="#5CADF8" fill-opacity="0.3"/>
<path d="M128.068 239.793V696.568H160.864V239.793H128.068Z" fill="#5CADF8" fill-opacity="0.5"/>
<path d="M122.493 239.793V696.568H341.425V239.793H122.493ZM333.554 247.664V329.654H130.364V247.664H333.554ZM130.364 509.139V427.149H333.554V509.139H130.364ZM333.554 517.01V598.909H130.364V517.01H333.554ZM130.364 419.351V337.452H333.554V419.351H130.364ZM130.364 688.697V606.726H333.554V688.716L130.364 688.697Z" fill="#5CADF8" fill-opacity="0.3"/>
<path d="M262.55 509.887H270.13V446.335H262.55V509.887Z" fill="#5CADF8" fill-opacity="0.5"/>
<path d="M270.148 509.887H277.728V446.335H270.148V509.887Z" fill="#5CADF8" fill-opacity="0.3"/>
<path d="M247.409 509.887H262.55V450.799H247.409V509.887Z" fill="#5CADF8" fill-opacity="0.5"/>
<path d="M230.064 509.887H239.848V446.335H230.064V509.887Z" fill="#5CADF8" fill-opacity="0.3"/>
<path d="M239.83 509.887H247.409V446.335H239.83V509.887Z" fill="#5CADF8" fill-opacity="0.5"/>
<path d="M172.635 509.887H182.419V446.335H172.635V509.887Z" fill="#5CADF8" fill-opacity="0.5"/>
<path d="M182.4 509.887H189.979V446.335H182.4V509.887Z" fill="#5CADF8" fill-opacity="0.5"/>
<path d="M205.139 509.887H214.923V446.335H205.139V509.887Z" fill="#5CADF8" fill-opacity="0.5"/>
<path d="M214.923 509.887H222.503V446.335H214.923V509.887Z" fill="#5CADF8" fill-opacity="0.3"/>
<path d="M157.475 509.887H172.616V447.848H157.475V509.887Z" fill="#5CADF8" fill-opacity="0.5"/>
<path d="M149.896 509.887H157.476V447.848H149.896V509.887Z" fill="#5CADF8" fill-opacity="0.3"/>
<path d="M195.027 509.887H205.121V447.848H195.027V509.887Z" fill="#5CADF8" fill-opacity="0.3"/>
<path d="M189.98 509.887H195.027V447.848H189.98V509.887Z" fill="#5CADF8" fill-opacity="0.3"/>
<path d="M214.923 509.887H230.063V450.799H214.923V509.887Z" fill="#F5F5F5"/>
<path d="M300.43 509.887H310.214V446.335H300.43V509.887Z" fill="#5CADF8" fill-opacity="0.5"/>
<path d="M310.213 509.887H317.793V446.335H310.213V509.887Z" fill="#5CADF8" fill-opacity="0.5"/>
<path d="M285.289 509.887H300.43V447.848H285.289V509.887Z" fill="#5CADF8" fill-opacity="0.3"/>
<path d="M277.71 509.887H285.289V447.848H277.71V509.887Z" fill="#5CADF8" fill-opacity="0.5"/>
<path d="M322.84 509.887H332.934V447.848H322.84V509.887Z" fill="#5CADF8" fill-opacity="0.5"/>
<path d="M317.793 509.887H322.84V447.848H317.793V509.887Z" fill="#F2F7FA"/>
<path d="M220.28 536.906H212.7V600.458H220.28V536.906Z" fill="#5CADF8" fill-opacity="0.5"/>
<path d="M212.701 536.906H205.121V600.458H212.701V536.906Z" fill="#5CADF8" fill-opacity="0.3"/>
<path d="M235.421 536.906H220.28V595.994H235.421V536.906Z" fill="#5CADF8" fill-opacity="0.5"/>
<path d="M252.766 536.906H242.981V600.458H252.766V536.906Z" fill="#5CADF8" fill-opacity="0.3"/>
<path d="M243 536.906H235.421V600.458H243V536.906Z" fill="#5CADF8" fill-opacity="0.5"/>
<path d="M310.214 536.906H300.43V600.458H310.214V536.906Z" fill="#5CADF8" fill-opacity="0.5"/>
<path d="M300.429 536.906H292.85V600.458H300.429V536.906Z" fill="#5CADF8" fill-opacity="0.5"/>
<path d="M277.709 536.906H267.925V600.458H277.709V536.906Z" fill="#5CADF8" fill-opacity="0.5"/>
<path d="M267.925 536.906H260.346V600.458H267.925V536.906Z" fill="#5CADF8" fill-opacity="0.3"/>
<path d="M325.355 536.906H310.214V598.945H325.355V536.906Z" fill="#5CADF8" fill-opacity="0.5"/>
<path d="M332.934 536.906H325.354V598.945H332.934V536.906Z" fill="#5CADF8" fill-opacity="0.3"/>
<path d="M287.803 536.906H277.709V598.945H287.803V536.906Z" fill="#5CADF8" fill-opacity="0.3"/>
<path d="M292.85 536.906H287.803V598.945H292.85V536.906Z" fill="#5CADF8" fill-opacity="0.3"/>
<path d="M267.925 536.906H252.784V595.994H267.925V536.906Z" fill="#F5F5F5"/>
<path d="M182.4 536.906H172.616V600.458H182.4V536.906Z" fill="#5CADF8" fill-opacity="0.5"/>
<path d="M172.634 536.906H165.055V600.458H172.634V536.906Z" fill="#5CADF8" fill-opacity="0.5"/>
<path d="M197.541 536.906H182.4V598.945H197.541V536.906Z" fill="#5CADF8" fill-opacity="0.3"/>
<path d="M205.139 536.906H197.56V598.945H205.139V536.906Z" fill="#5CADF8" fill-opacity="0.5"/>
<path d="M159.989 536.906H149.896V598.945H159.989V536.906Z" fill="#5CADF8" fill-opacity="0.5"/>
<path d="M165.037 536.906H159.99V598.945H165.037V536.906Z" fill="#F2F7FA"/>
<path d="M262.55 691.029H270.13V627.478H262.55V691.029Z" fill="#5CADF8" fill-opacity="0.5"/>
<path d="M270.148 691.029H277.728V627.478H270.148V691.029Z" fill="#5CADF8" fill-opacity="0.3"/>
<path d="M247.409 691.029H262.55V631.942H247.409V691.029Z" fill="#5CADF8" fill-opacity="0.5"/>
<path d="M230.064 691.029H239.848V627.478H230.064V691.029Z" fill="#5CADF8" fill-opacity="0.3"/>
<path d="M239.83 691.029H247.409V627.478H239.83V691.029Z" fill="#5CADF8" fill-opacity="0.5"/>
<path d="M172.635 691.029H182.419V627.478H172.635V691.029Z" fill="#5CADF8" fill-opacity="0.5"/>
<path d="M182.4 691.029H189.979V627.478H182.4V691.029Z" fill="#5CADF8" fill-opacity="0.5"/>
<path d="M205.139 691.029H214.923V627.478H205.139V691.029Z" fill="#5CADF8" fill-opacity="0.5"/>
<path d="M214.923 691.029H222.503V627.478H214.923V691.029Z" fill="#5CADF8" fill-opacity="0.3"/>
<path d="M157.475 691.012H172.616V628.973H157.475V691.012Z" fill="#5CADF8" fill-opacity="0.5"/>
<path d="M149.896 691.012H157.476V628.973H149.896V691.012Z" fill="#5CADF8" fill-opacity="0.3"/>
<path d="M195.027 691.012H205.121V628.973H195.027V691.012Z" fill="#5CADF8" fill-opacity="0.3"/>
<path d="M189.98 691.012H195.027V628.973H189.98V691.012Z" fill="#5CADF8" fill-opacity="0.3"/>
<path d="M214.923 691.029H230.063V631.942H214.923V691.029Z" fill="#F5F5F5"/>
<path d="M300.43 691.029H310.214V627.478H300.43V691.029Z" fill="#5CADF8" fill-opacity="0.5"/>
<path d="M310.213 691.029H317.793V627.478H310.213V691.029Z" fill="#5CADF8" fill-opacity="0.5"/>
<path d="M285.289 691.012H300.43V628.973H285.289V691.012Z" fill="#5CADF8" fill-opacity="0.3"/>
<path d="M277.71 691.012H285.289V628.973H277.71V691.012Z" fill="#5CADF8" fill-opacity="0.5"/>
<path d="M322.84 691.012H332.934V628.973H322.84V691.012Z" fill="#5CADF8" fill-opacity="0.5"/>
<path d="M317.793 691.012H322.84V628.973H317.793V691.012Z" fill="#F2F7FA"/>
<path d="M219.843 330.565L216.399 291.301H266.213L269.638 330.565H219.843Z" fill="#5CADF8" fill-opacity="0.3"/>
<path d="M219.843 330.565L216.399 291.301H213.721L217.164 330.565H219.843Z" fill="#5CADF8" fill-opacity="0.3"/>
<path d="M224.561 326.575L221.828 295.31H261.475L264.208 326.575H224.561Z" fill="#F2F7FA"/>
<path d="M227.605 323.987L225.327 297.878H258.433L260.729 323.987H227.605Z" fill="#5CADF8" fill-opacity="0.5"/>
<path d="M163.688 330.565H213.72L208.163 267.123H158.149L163.688 330.565Z" fill="#5CADF8" fill-opacity="0.5"/>
<path d="M163.688 330.565H161.302L155.763 267.123H158.15L163.688 330.565Z" fill="#5CADF8" fill-opacity="0.3"/>
<path d="M168.226 324.097H208.055L203.645 273.591H163.816L168.226 324.097Z" fill="#5CADF8" fill-opacity="0.3"/>
<path d="M171.14 319.943H204.41L200.73 277.745H167.46L171.14 319.943Z" fill="#F2F7FA"/>
<path d="M182.517 285.797L176.99 291.324C174.727 293.587 174.727 297.255 176.99 299.518L182.517 305.045C184.779 307.308 188.448 307.308 190.71 305.045L196.237 299.518C198.5 297.255 198.5 293.587 196.237 291.324L190.71 285.797C188.448 283.534 184.779 283.534 182.517 285.797Z" fill="#5CADF8" fill-opacity="0.5"/>
<path d="M185.844 299.567L181.966 303.445C179.703 305.708 179.703 309.376 181.966 311.639L185.844 315.517C188.107 317.78 191.775 317.78 194.038 315.517L197.916 311.639C200.179 309.376 200.179 305.708 197.916 303.445L194.038 299.567C191.775 297.304 188.107 297.304 185.844 299.567Z" fill="#5CADF8" fill-opacity="0.5"/>
<path d="M279.058 330.565L303.564 306.06L328.069 330.565H279.058Z" fill="#F5F5F5"/>
<path d="M303.564 306.06L279.058 330.565H303.564V306.06Z" fill="#5CADF8" fill-opacity="0.5"/>
<path d="M205.434 393.288C214.513 384.209 214.513 369.488 205.434 360.409C196.355 351.33 181.635 351.33 172.556 360.409C163.476 369.488 163.476 384.209 172.556 393.288C181.635 402.367 196.355 402.367 205.434 393.288Z" fill="#5CADF8" fill-opacity="0.3"/>
<path d="M190.617 417.93H187.374V402.534H188.996C195.809 402.534 202.343 399.828 207.161 395.01C211.979 390.192 214.686 383.658 214.686 376.844C214.686 370.031 211.979 363.496 207.161 358.678C202.343 353.861 195.809 351.154 188.996 351.154V348.002C196.503 348.041 203.701 350.996 209.07 356.243C214.438 361.491 217.557 368.619 217.768 376.124C217.978 383.628 215.264 390.92 210.198 396.46C205.131 402 198.11 405.354 190.617 405.814V417.93Z" fill="#5CADF8" fill-opacity="0.5"/>
<path d="M202.661 418.294H175.003C175.003 416.649 175.655 415.072 176.816 413.907C177.977 412.743 179.553 412.086 181.198 412.081H196.448C198.096 412.081 199.676 412.736 200.841 413.901C202.006 415.066 202.661 416.646 202.661 418.294Z" fill="#5CADF8" fill-opacity="0.5"/>
<path d="M249.14 417.237V401.131C248.73 401.131 248.336 400.967 248.045 400.677C247.755 400.387 247.592 399.993 247.592 399.582C247.592 399.171 247.755 398.777 248.045 398.487C248.336 398.196 248.73 398.033 249.14 398.033C255.262 398.033 261.421 398.033 267.561 398.033V420.389H249.14C248.723 420.389 248.322 420.223 248.026 419.928C247.731 419.632 247.564 419.231 247.564 418.813C247.564 418.395 247.731 417.994 248.026 417.699C248.322 417.403 248.723 417.237 249.14 417.237Z" fill="#5CADF8" fill-opacity="0.5"/>
<path d="M263.462 401.131H249.141V417.219H263.462V401.131Z" fill="#F5F5F5"/>
<path d="M260.437 418.768H310.068C313.475 418.768 316.244 414.486 316.244 409.184C316.244 403.882 313.475 399.582 310.068 399.582H260.437V418.768Z" fill="#F2F7FA"/>
<path d="M260.436 398.034C276.689 398.034 292.959 397.742 309.193 398.034C320.326 398.234 320.927 419.57 310.013 420.317C302.397 420.845 294.581 420.317 286.965 420.317H260.436C260.057 420.276 259.706 420.096 259.451 419.811C259.196 419.527 259.055 419.159 259.055 418.777C259.055 418.396 259.196 418.027 259.451 417.743C259.706 417.459 260.057 417.279 260.436 417.238H306.624C310.268 417.238 312.746 417.238 314.113 412.992C315.315 409.348 314.932 401.933 310.068 401.131C309.51 401.086 308.949 401.086 308.391 401.131H260.436C260.026 401.131 259.632 400.968 259.341 400.678C259.051 400.387 258.888 399.993 258.888 399.583C258.888 399.172 259.051 398.778 259.341 398.487C259.632 398.197 260.026 398.034 260.436 398.034Z" fill="#5CADF8" fill-opacity="0.5"/>
<path d="M249.14 395.1V378.976C248.761 378.934 248.41 378.754 248.155 378.47C247.9 378.186 247.76 377.818 247.76 377.436C247.76 377.054 247.9 376.686 248.155 376.402C248.41 376.118 248.761 375.938 249.14 375.896C255.262 375.896 261.421 375.896 267.561 375.896V398.252H249.14C248.723 398.252 248.322 398.086 248.026 397.791C247.731 397.495 247.564 397.094 247.564 396.676C247.564 396.258 247.731 395.858 248.026 395.562C248.322 395.266 248.723 395.1 249.14 395.1Z" fill="#5CADF8" fill-opacity="0.5"/>
<path d="M263.462 378.994H249.141V395.082H263.462V378.994Z" fill="#F5F5F5"/>
<path d="M260.437 396.649H310.068C313.475 396.649 316.244 392.349 316.244 387.047C316.244 381.745 313.475 377.445 310.068 377.445H260.437V396.649Z" fill="#F2F7FA"/>
<path d="M260.437 375.915C276.689 375.915 292.959 375.623 309.193 375.915C320.326 376.115 320.927 397.433 310.013 398.18C302.397 398.708 294.581 398.18 286.965 398.18H260.437C260.057 398.138 259.706 397.958 259.452 397.674C259.197 397.39 259.056 397.022 259.056 396.64C259.056 396.258 259.197 395.89 259.452 395.606C259.706 395.322 260.057 395.142 260.437 395.1H306.624C310.268 395.1 312.746 395.1 314.113 390.855C315.315 387.211 314.933 379.796 310.068 378.994C309.51 378.948 308.949 378.948 308.392 378.994H260.437C260.057 378.953 259.706 378.773 259.452 378.488C259.197 378.204 259.056 377.836 259.056 377.454C259.056 377.073 259.197 376.704 259.452 376.42C259.706 376.136 260.057 375.956 260.437 375.915Z" fill="#5CADF8" fill-opacity="0.5"/>
<path d="M557.733 606.453C557.733 606.453 536.471 589.709 518.888 605.706L525.958 606.636L515.39 609.405C513.922 611.188 512.594 613.083 511.418 615.071C509.869 617.659 508.466 620.064 507.136 622.359L514.206 623.817L503.274 628.919C492.178 648.469 490.319 654.427 490.319 654.427C497.393 654.41 504.445 653.659 511.363 652.186L517.613 635.933L518.888 650.291C526.456 648.147 533.582 644.673 539.932 640.033L537.181 625.457L545.617 634.968C550.416 629.945 553.907 623.819 555.784 617.13L551.01 612.539L556.64 613.687C557.173 611.304 557.539 608.887 557.733 606.453Z" fill="#5CADF8"/>
<path opacity="0.2" d="M557.733 606.453C557.733 606.453 536.471 589.709 518.888 605.706L525.958 606.636L515.39 609.405C513.922 611.188 512.594 613.083 511.418 615.071C509.869 617.659 508.466 620.064 507.136 622.359L514.206 623.817L503.274 628.919C492.178 648.469 490.319 654.427 490.319 654.427C497.393 654.41 504.445 653.659 511.363 652.186L517.613 635.933L518.888 650.291C526.456 648.147 533.582 644.673 539.932 640.033L537.181 625.457L545.617 634.968C550.416 629.945 553.907 623.819 555.784 617.13L551.01 612.539L556.64 613.687C557.173 611.304 557.539 608.887 557.733 606.453Z" fill="#F2F7FA"/>
<path d="M599.548 593.972C599.548 593.972 627.024 572.327 649.744 593.007L640.634 594.209L654.281 597.853C656.17 600.153 657.888 602.589 659.419 605.141C661.405 608.475 663.245 611.591 664.885 614.525L655.775 616.347L669.768 622.924C684.107 648.195 686.512 655.884 686.512 655.884C677.368 655.869 668.251 654.898 659.309 652.987L651.256 631.979L649.635 650.454C639.854 647.694 630.643 643.215 622.432 637.227L626.076 618.46L615.144 630.74C608.944 624.249 604.433 616.335 602.008 607.692L608.184 601.752L600.896 603.246C600.232 600.19 599.781 597.091 599.548 593.972Z" fill="#5CADF8"/>
<path opacity="0.3" d="M599.548 593.972C599.548 593.972 627.024 572.327 649.744 593.007L640.634 594.209L654.281 597.853C656.17 600.153 657.888 602.589 659.419 605.141C661.405 608.475 663.245 611.591 664.885 614.525L655.775 616.347L669.768 622.924C684.107 648.195 686.512 655.884 686.512 655.884C677.368 655.869 668.251 654.898 659.309 652.987L651.256 631.979L649.635 650.454C639.854 647.694 630.643 643.215 622.432 637.227L626.076 618.46L615.144 630.74C608.944 624.249 604.433 616.335 602.008 607.692L608.184 601.752L600.896 603.246C600.232 600.19 599.781 597.091 599.548 593.972Z" fill="#F2F7FA"/>
<path d="M588.306 554.271C588.306 554.271 584.188 589.017 553.506 590.456L559.118 583.168L546.947 590.328C543.967 590.03 541.014 589.512 538.11 588.78C534.357 587.832 530.822 586.958 527.579 586.047L532.68 578.267L518.104 583.514C490.1 575.771 482.958 572.054 482.958 572.054C489.433 565.595 496.566 559.83 504.239 554.854L524.791 563.964L512.839 549.698C521.705 544.73 531.385 541.38 541.426 539.804L552.176 555.601L551.228 539.203C560.177 539.417 568.936 541.826 576.736 546.218L576.572 554.781L580.654 548.586C583.339 550.294 585.896 552.194 588.306 554.271Z" fill="#5CADF8"/>
<path opacity="0.5" d="M588.306 554.271C588.306 554.271 584.188 589.017 553.506 590.456L559.118 583.168L546.947 590.328C543.967 590.03 541.014 589.512 538.11 588.78C534.357 587.832 530.822 586.958 527.579 586.047L532.68 578.267L518.104 583.514C490.1 575.771 482.958 572.054 482.958 572.054C489.433 565.595 496.566 559.83 504.239 554.854L524.791 563.964L512.839 549.698C521.705 544.73 531.385 541.38 541.426 539.804L552.176 555.601L551.228 539.203C560.177 539.417 568.936 541.826 576.736 546.218L576.572 554.781L580.654 548.586C583.339 550.294 585.896 552.194 588.306 554.271Z" fill="#F2F7FA"/>
<path d="M521.384 621.867C521.384 621.867 568.373 555.801 583.459 653.205H577.993C577.993 653.205 572.946 608.548 555.036 605.268C537.126 601.989 521.384 621.867 521.384 621.867Z" fill="#5CADF8"/>
<path d="M637.937 609.77C637.937 609.77 592.624 518.159 578.066 653.206H583.259C583.259 653.206 588.215 591.258 605.469 586.74C622.724 582.221 637.937 609.77 637.937 609.77Z" fill="#5CADF8"/>
<path d="M530.312 569.084C530.312 569.084 599.074 558.48 588.306 654.554H593.772C593.772 654.554 607 558.844 530.312 569.084Z" fill="#5CADF8"/>
<path d="M538.729 646.811L556.949 749.243H615.837L634.057 646.811H538.729Z" fill="#132043"/>
<path opacity="0.5" d="M538.729 646.811L556.949 749.243H615.837L634.057 646.811H538.729Z" fill="#F2F7FA"/>
<path d="M325.409 466.195V493.762C325.414 498.893 327.454 503.811 331.082 507.439C334.71 511.067 339.628 513.107 344.759 513.112H608.548C613.673 513.102 618.586 511.059 622.207 507.432C625.828 503.804 627.861 498.888 627.861 493.762V466.195H325.409Z" fill="#5CADF8"/>
<path d="M608.512 289.644H344.759C334.072 289.644 325.409 298.307 325.409 308.993V490.118C325.409 500.805 334.072 509.468 344.759 509.468H608.512C619.198 509.468 627.861 500.805 627.861 490.118V308.993C627.861 298.307 619.198 289.644 608.512 289.644Z" fill="#5CADF8"/>
<path opacity="0.8" d="M608.512 289.644H344.759C334.072 289.644 325.409 298.307 325.409 308.993V490.118C325.409 500.805 334.072 509.468 344.759 509.468H608.512C619.198 509.468 627.861 500.805 627.861 490.118V308.993C627.861 298.307 619.198 289.644 608.512 289.644Z" fill="#F2F7FA"/>
<path d="M444.331 467.38H439.758V464.61H452.202V467.307H447.629V478.895H444.331V467.38Z" fill="#132043"/>
<path d="M463.08 478.967L460.329 474.977H457.322V478.967H454.024V464.61H460.201C461.333 464.587 462.457 464.804 463.499 465.248C464.376 465.635 465.123 466.268 465.649 467.07C466.165 467.893 466.425 468.85 466.396 469.821C466.424 470.794 466.157 471.753 465.631 472.572C465.104 473.38 464.349 474.014 463.462 474.394L466.669 478.986L463.08 478.967ZM462.242 468.035C461.588 467.562 460.787 467.336 459.982 467.398H457.322V472.372H460.019C460.826 472.428 461.627 472.196 462.278 471.716C462.52 471.478 462.713 471.195 462.844 470.882C462.976 470.569 463.044 470.233 463.044 469.894C463.044 469.555 462.976 469.219 462.844 468.906C462.713 468.593 462.52 468.309 462.278 468.072L462.242 468.035Z" fill="#132043"/>
<path d="M480.042 476.308V478.968H468.982V464.61H479.769V467.252H472.262V470.368H478.894V472.937H472.262V476.235L480.042 476.308Z" fill="#132043"/>
<path d="M495.766 464.61V478.895H493.051L485.927 470.222V478.895H482.666V464.61H485.399L492.505 473.283V464.61H495.766Z" fill="#132043"/>
<path d="M499.228 464.61H505.714C507.137 464.582 508.548 464.888 509.832 465.503C510.976 466.051 511.938 466.917 512.601 467.999C513.258 469.141 513.604 470.435 513.604 471.752C513.604 473.07 513.258 474.364 512.601 475.506C511.938 476.588 510.976 477.454 509.832 478.002C508.548 478.617 507.137 478.923 505.714 478.895H499.228V464.61ZM505.55 476.18C506.805 476.244 508.035 475.812 508.975 474.977C509.372 474.572 509.682 474.09 509.886 473.56C510.09 473.031 510.183 472.465 510.16 471.898C510.191 471.298 510.093 470.698 509.873 470.138C509.653 469.579 509.316 469.073 508.884 468.655C507.937 467.834 506.711 467.41 505.459 467.471H502.452V476.326L505.55 476.18Z" fill="#132043"/>
<path d="M386.082 429.628H358.897V442.345H386.082V429.628Z" fill="#5CADF8"/>
<path d="M427.751 418.222H400.566V442.363H427.751V418.222Z" fill="#132043"/>
<path d="M469.402 414.924H442.218V442.363H469.402V414.924Z" fill="#5CADF8"/>
<path d="M511.071 393.789H483.887V442.364H511.071V393.789Z" fill="#132043"/>
<path d="M552.722 361.74H525.538V442.346H552.722V361.74Z" fill="#5CADF8"/>
<path d="M594.373 334.337H567.188V442.363H594.373V334.337Z" fill="#132043"/>
<path d="M458.779 175.623C453.083 169.696 446.247 164.981 438.682 161.762C431.118 158.544 422.981 156.887 414.76 156.893V195.155C419.393 195.155 423.976 196.109 428.223 197.959C432.471 199.808 436.292 202.513 439.448 205.904L458.779 186.573V175.623Z" fill="#5CADF8"/>
<path opacity="0.3" d="M458.779 175.623C453.083 169.696 446.247 164.981 438.682 161.762C431.118 158.544 422.981 156.887 414.76 156.893V195.155C419.393 195.155 423.976 196.109 428.223 197.959C432.471 199.808 436.292 202.513 439.448 205.904L458.779 186.573V175.623Z" fill="#F2F7FA"/>
<path d="M439.448 194.954L458.779 175.623C453.083 169.696 446.247 164.981 438.682 161.762C431.118 158.544 422.981 156.887 414.76 156.893V184.223C419.391 184.22 423.973 185.172 428.221 187.018C432.468 188.865 436.29 191.566 439.448 194.954Z" fill="#5CADF8"/>
<path d="M435.804 216.818C440.387 221.705 443.412 227.844 444.495 234.455C443.208 242.38 439.143 249.589 433.028 254.791C426.912 259.994 419.145 262.851 411.116 262.851C403.087 262.851 395.32 259.994 389.205 254.791C383.089 249.589 379.024 242.38 377.737 234.455C379.026 226.53 383.091 219.321 389.206 214.117C395.321 208.914 403.087 206.054 411.116 206.05V167.788C394.89 167.788 379.328 174.234 367.854 185.708C356.38 197.182 349.934 212.744 349.934 228.971C349.934 230.793 350.043 232.615 350.189 234.437C350.043 236.259 349.934 238.081 349.934 239.903C350.21 255.944 356.777 271.235 368.219 282.481C379.662 293.728 395.063 300.03 411.107 300.03C427.151 300.03 442.553 293.728 453.995 282.481C465.437 271.235 472.004 255.944 472.281 239.903C472.281 238.081 472.281 236.259 472.026 234.437C472.19 232.615 472.281 230.793 472.281 228.971C472.306 213.128 466.156 197.9 455.136 186.518L435.804 205.886V216.818Z" fill="#5CADF8"/>
<path opacity="0.3" d="M435.804 216.818C440.387 221.705 443.412 227.844 444.495 234.455C443.208 242.38 439.143 249.589 433.028 254.791C426.912 259.994 419.145 262.851 411.116 262.851C403.087 262.851 395.32 259.994 389.205 254.791C383.089 249.589 379.024 242.38 377.737 234.455C379.026 226.53 383.091 219.321 389.206 214.117C395.321 208.914 403.087 206.054 411.116 206.05V167.788C394.89 167.788 379.328 174.234 367.854 185.708C356.38 197.182 349.934 212.744 349.934 228.971C349.934 230.793 350.043 232.615 350.189 234.437C350.043 236.259 349.934 238.081 349.934 239.903C350.21 255.944 356.777 271.235 368.219 282.481C379.662 293.728 395.063 300.03 411.107 300.03C427.151 300.03 442.553 293.728 453.995 282.481C465.437 271.235 472.004 255.944 472.281 239.903C472.281 238.081 472.281 236.259 472.026 234.437C472.19 232.615 472.281 230.793 472.281 228.971C472.306 213.128 466.156 197.9 455.136 186.518L435.804 205.886V216.818Z" fill="#F2F7FA"/>
<path opacity="0.6" d="M455.136 186.555L435.804 205.886C441.112 211.574 444.298 218.917 444.825 226.679C445.352 234.441 443.188 242.147 438.698 248.5C434.207 254.853 427.665 259.465 420.172 261.558C412.679 263.651 404.694 263.098 397.561 259.993C390.428 256.887 384.583 251.418 381.011 244.506C377.439 237.595 376.358 229.664 377.949 222.049C379.541 214.434 383.708 207.6 389.749 202.698C395.79 197.796 403.336 195.126 411.116 195.137V167.807C396.998 167.794 383.31 172.661 372.37 181.584C361.43 190.507 353.909 202.937 351.083 216.768C348.256 230.6 350.297 244.984 356.859 257.483C363.422 269.983 374.102 279.83 387.093 285.358C400.084 290.885 414.585 291.753 428.142 287.814C441.699 283.875 453.478 275.372 461.485 263.744C469.491 252.116 473.232 238.079 472.075 224.008C470.918 209.938 464.934 196.701 455.136 186.537V186.555Z" fill="#F2F7FA"/>
<path d="M397.05 237.971V241.342H383.549V238.682L390.437 232.177C391.026 231.656 391.525 231.04 391.912 230.355C392.16 229.896 392.292 229.383 392.295 228.861C392.314 228.55 392.257 228.238 392.13 227.953C392.004 227.667 391.81 227.417 391.566 227.222C390.94 226.798 390.188 226.599 389.434 226.657C388.707 226.648 387.986 226.798 387.321 227.094C386.686 227.401 386.141 227.865 385.736 228.442L382.729 226.493C383.453 225.44 384.448 224.603 385.608 224.069C386.925 223.454 388.364 223.149 389.817 223.177C391.016 223.152 392.207 223.375 393.315 223.833C394.243 224.21 395.045 224.842 395.629 225.655C396.187 226.476 396.473 227.45 396.449 228.442C396.454 229.387 396.248 230.32 395.848 231.175C395.238 232.275 394.436 233.256 393.479 234.072L389.362 237.953L397.05 237.971Z" fill="#132043"/>
<path d="M402.407 240.504C401.209 239.729 400.265 238.621 399.692 237.315C398.38 234.142 398.38 230.577 399.692 227.404C400.265 226.098 401.209 224.99 402.407 224.215C403.593 223.48 404.965 223.1 406.36 223.122C407.756 223.1 409.128 223.48 410.314 224.215C411.501 225.001 412.442 226.106 413.029 227.404C414.341 230.577 414.341 234.142 413.029 237.315C412.447 238.616 411.505 239.722 410.314 240.504C409.128 241.239 407.756 241.619 406.36 241.597C404.965 241.619 403.593 241.239 402.407 240.504ZM408.911 236.696C409.524 235.332 409.84 233.854 409.84 232.36C409.84 230.865 409.524 229.387 408.911 228.023C408.638 227.594 408.261 227.241 407.815 226.997C407.369 226.752 406.869 226.624 406.36 226.624C405.852 226.624 405.352 226.752 404.906 226.997C404.46 227.241 404.083 227.594 403.81 228.023C403.197 229.387 402.881 230.865 402.881 232.36C402.881 233.854 403.197 235.332 403.81 236.696C404.083 237.125 404.46 237.478 404.906 237.722C405.352 237.967 405.852 238.095 406.36 238.095C406.869 238.095 407.369 237.967 407.815 237.722C408.261 237.478 408.638 237.125 408.911 236.696Z" fill="#132043"/>
<path d="M416.947 231.795C416.143 230.771 415.706 229.507 415.706 228.206C415.706 226.904 416.143 225.64 416.947 224.616C417.354 224.177 417.852 223.831 418.405 223.602C418.959 223.372 419.555 223.265 420.154 223.286C420.75 223.264 421.343 223.371 421.894 223.601C422.445 223.83 422.939 224.177 423.342 224.616C424.134 225.645 424.563 226.907 424.563 228.206C424.563 229.504 424.134 230.766 423.342 231.795C422.939 232.234 422.445 232.581 421.894 232.81C421.343 233.04 420.75 233.147 420.154 233.125C419.555 233.146 418.959 233.039 418.405 232.809C417.852 232.58 417.354 232.234 416.947 231.795ZM421.52 230.319C421.843 229.661 422.011 228.938 422.011 228.206C422.011 227.473 421.843 226.75 421.52 226.092C421.37 225.87 421.167 225.689 420.931 225.563C420.694 225.438 420.43 225.372 420.163 225.372C419.895 225.372 419.631 225.438 419.394 225.563C419.158 225.689 418.955 225.87 418.805 226.092C418.428 226.723 418.25 227.453 418.295 228.187C418.246 228.927 418.424 229.665 418.805 230.301C418.958 230.519 419.161 230.697 419.398 230.82C419.634 230.943 419.896 231.007 420.163 231.007C420.429 231.007 420.691 230.943 420.928 230.82C421.164 230.697 421.367 230.519 421.52 230.301V230.319ZM430.794 223.487H433.819L421.629 241.342H418.605L430.794 223.487ZM429.992 240.941C429.311 240.539 428.765 239.943 428.425 239.229C428.053 238.411 427.86 237.522 427.86 236.623C427.86 235.724 428.053 234.836 428.425 234.018C428.765 233.304 429.311 232.707 429.992 232.305C430.681 231.898 431.47 231.69 432.27 231.704C432.868 231.682 433.465 231.79 434.018 232.019C434.571 232.249 435.069 232.595 435.477 233.034C436.28 234.058 436.717 235.322 436.717 236.623C436.717 237.925 436.28 239.189 435.477 240.212C435.069 240.651 434.571 240.997 434.018 241.227C433.465 241.456 432.868 241.564 432.27 241.543C431.47 241.556 430.681 241.348 429.992 240.941ZM433.636 238.737C434.002 238.095 434.173 237.36 434.128 236.623C434.179 235.891 434.008 235.161 433.636 234.528C433.493 234.297 433.291 234.108 433.051 233.98C432.811 233.852 432.542 233.79 432.27 233.799C432.003 233.795 431.74 233.857 431.505 233.982C431.269 234.106 431.068 234.287 430.922 234.51C430.586 235.164 430.411 235.888 430.411 236.623C430.411 237.358 430.586 238.083 430.922 238.737C431.074 238.955 431.278 239.133 431.514 239.256C431.75 239.378 432.013 239.443 432.279 239.443C432.545 239.443 432.808 239.378 433.044 239.256C433.28 239.133 433.483 238.955 433.636 238.737Z" fill="#132043"/>
<path d="M455.135 407.618C454.955 407.621 454.776 407.587 454.609 407.519C454.442 407.452 454.291 407.351 454.163 407.224C454.036 407.096 453.935 406.945 453.868 406.778C453.8 406.611 453.766 406.432 453.769 406.252V384.716C453.77 382.366 452.84 380.112 451.181 378.448L413.32 340.587C412.241 339.515 411.384 338.241 410.8 336.837C410.215 335.433 409.914 333.927 409.913 332.406V311.654C409.918 311.293 410.063 310.948 410.319 310.693C410.574 310.437 410.919 310.292 411.28 310.287C411.642 310.287 411.99 310.431 412.246 310.687C412.502 310.944 412.646 311.291 412.646 311.654V332.406C412.644 333.569 412.874 334.72 413.321 335.793C413.768 336.866 414.425 337.839 415.252 338.656L453.113 376.517C454.192 377.591 455.047 378.869 455.628 380.277C456.21 381.684 456.507 383.193 456.502 384.716V406.306C456.488 406.659 456.337 406.993 456.083 407.238C455.828 407.482 455.488 407.619 455.135 407.618Z" fill="#132043"/>
<path d="M540.934 219.078H538.019V222.831H533.992V219.078H524.372V216.29L532.79 204.976H537.126L529.328 215.707H534.12V212.373H538.019V215.707H540.934V219.078Z" fill="#132043"/>
<path d="M553.888 213.175C554.483 213.659 554.957 214.275 555.273 214.973C555.589 215.672 555.739 216.435 555.71 217.201C555.722 218.249 555.438 219.278 554.89 220.171C554.293 221.111 553.431 221.853 552.412 222.303C551.114 222.886 549.7 223.166 548.277 223.123C547.045 223.113 545.82 222.942 544.633 222.612C543.524 222.334 542.475 221.859 541.535 221.21L543.157 218.039C543.866 218.566 544.662 218.966 545.507 219.224C546.392 219.5 547.313 219.641 548.24 219.643C549.096 219.691 549.946 219.482 550.682 219.041C550.965 218.857 551.196 218.602 551.353 218.302C551.509 218.002 551.585 217.667 551.574 217.329C551.62 216.967 551.555 216.6 551.39 216.275C551.224 215.95 550.965 215.683 550.645 215.507C549.642 215.024 548.529 214.817 547.42 214.905H542.847L543.776 204.866H554.708V208.182H547.256L546.965 211.571H548.422C550.375 211.46 552.305 212.027 553.888 213.175Z" fill="#132043"/>
<path d="M557.951 213.266C557.149 212.245 556.713 210.984 556.713 209.686C556.713 208.387 557.149 207.126 557.951 206.105C558.359 205.667 558.857 205.321 559.41 205.091C559.963 204.862 560.559 204.754 561.158 204.775C561.754 204.753 562.348 204.86 562.899 205.09C563.449 205.32 563.943 205.666 564.347 206.105C565.137 207.132 565.566 208.39 565.566 209.686C565.566 210.981 565.137 212.24 564.347 213.266C563.944 213.708 563.451 214.057 562.9 214.29C562.35 214.522 561.755 214.633 561.158 214.614C560.558 214.632 559.962 214.521 559.408 214.289C558.855 214.056 558.358 213.707 557.951 213.266ZM562.525 211.808C562.899 211.17 563.071 210.433 563.017 209.695C563.071 208.957 562.899 208.219 562.525 207.581C562.381 207.351 562.179 207.162 561.939 207.034C561.699 206.906 561.43 206.843 561.158 206.852C560.89 206.85 560.626 206.916 560.39 207.043C560.154 207.171 559.955 207.356 559.81 207.581C559.429 208.217 559.251 208.955 559.3 209.695C559.254 210.429 559.432 211.159 559.81 211.79C559.951 212.019 560.149 212.207 560.386 212.335C560.623 212.463 560.889 212.527 561.158 212.519C561.428 212.528 561.695 212.468 561.935 212.343C562.174 212.219 562.377 212.034 562.525 211.808ZM571.799 204.976H574.823L562.634 222.831H559.609L571.799 204.976ZM570.997 222.431C570.316 222.028 569.77 221.432 569.43 220.718C569.057 219.9 568.865 219.011 568.865 218.112C568.865 217.214 569.057 216.325 569.43 215.507C569.755 214.754 570.301 214.119 570.997 213.685C571.691 213.292 572.477 213.091 573.274 213.102C573.873 213.08 574.469 213.188 575.023 213.418C575.576 213.647 576.073 213.993 576.481 214.432C577.352 215.439 577.797 216.746 577.72 218.076C577.763 218.735 577.676 219.396 577.463 220.021C577.25 220.646 576.917 221.224 576.481 221.72C576.074 222.161 575.578 222.51 575.024 222.743C574.471 222.975 573.874 223.086 573.274 223.068C572.471 223.071 571.682 222.85 570.997 222.431ZM574.641 220.208C575.012 219.575 575.184 218.844 575.133 218.112C575.18 217.375 575.008 216.64 574.641 215.999C574.495 215.771 574.292 215.584 574.053 215.456C573.814 215.329 573.546 215.265 573.274 215.27C573.006 215.262 572.739 215.326 572.502 215.454C572.266 215.582 572.067 215.77 571.926 215.999C571.545 216.635 571.367 217.372 571.416 218.112C571.367 218.852 571.545 219.59 571.926 220.226C572.076 220.448 572.279 220.629 572.515 220.755C572.752 220.88 573.016 220.946 573.284 220.946C573.551 220.946 573.815 220.88 574.052 220.755C574.288 220.629 574.491 220.448 574.641 220.226V220.208Z" fill="#132043"/>
<path d="M599.857 240.505L576.171 226.821C572.877 233.12 567.683 238.221 561.326 241.401C554.969 244.58 547.772 245.677 540.757 244.536C533.741 243.395 527.263 240.073 522.242 235.042C517.221 230.011 513.912 223.527 512.784 216.509C513.629 211.443 515.613 206.635 518.586 202.447C521.559 198.259 525.443 194.8 529.947 192.331V181.399L516.3 157.713C506.811 163.022 498.909 170.766 493.41 180.147C487.911 189.528 485.013 200.205 485.017 211.079C485.017 212.901 485.108 214.723 485.272 216.545C485.126 218.367 485.017 220.189 485.017 222.011C485.04 235.578 489.573 248.752 497.901 259.462C506.229 270.172 517.881 277.81 531.024 281.175C544.167 284.54 558.056 283.441 570.506 278.051C582.956 272.662 593.262 263.286 599.803 251.4L599.857 240.505Z" fill="#132043"/>
<path opacity="0.6" d="M546.2 245.06C538.678 245.056 531.372 242.548 525.433 237.932C519.494 233.317 515.261 226.855 513.4 219.568C511.54 212.28 512.158 204.58 515.157 197.682C518.157 190.784 523.367 185.081 529.966 181.472L516.319 157.786C508.05 162.414 500.969 168.901 495.636 176.734C490.303 184.566 486.862 193.531 485.586 202.921C484.309 212.311 485.232 221.869 488.282 230.841C491.331 239.813 496.423 247.954 503.157 254.622C509.89 261.289 518.081 266.301 527.083 269.261C536.085 272.222 545.651 273.051 555.028 271.682C564.405 270.313 573.335 266.784 581.115 261.374C588.895 255.963 595.311 248.819 599.858 240.505L576.172 226.822C573.317 232.308 569.015 236.909 563.731 240.124C558.448 243.339 552.385 245.046 546.2 245.06Z" fill="#F2F7FA"/>
<path opacity="0.6" d="M599.857 240.505L576.171 226.821C572.877 233.12 567.683 238.221 561.326 241.401C554.969 244.58 547.772 245.677 540.757 244.536C533.741 243.395 527.263 240.073 522.242 235.042C517.221 230.011 513.912 223.527 512.784 216.509C513.629 211.443 515.613 206.635 518.586 202.447C521.559 198.259 525.443 194.8 529.947 192.331V181.399L516.3 157.713C506.811 163.022 498.909 170.766 493.41 180.147C487.911 189.528 485.013 200.205 485.017 211.079C485.017 212.901 485.108 214.723 485.272 216.545C485.126 218.367 485.017 220.189 485.017 222.011C485.04 235.578 489.573 248.752 497.901 259.462C506.229 270.172 517.881 277.81 531.024 281.175C544.167 284.54 558.056 283.441 570.506 278.051C582.956 272.662 593.262 263.286 599.803 251.4L599.857 240.505Z" fill="#F2F7FA"/>
<path d="M583.477 230.538L607.163 244.221C612.112 235.217 614.701 225.107 614.688 214.832C614.688 213.01 614.579 211.188 614.415 209.366C614.579 207.544 614.688 205.722 614.688 203.9C614.687 193.227 611.894 182.739 606.587 173.478C601.279 164.218 593.64 156.507 584.43 151.112C575.221 145.717 564.759 142.825 554.086 142.723C543.413 142.622 532.899 145.315 523.588 150.534V161.466L537.235 185.152C541.991 182.546 547.304 181.123 552.726 181.002C558.147 180.88 563.519 182.065 568.387 184.455C573.255 186.845 577.477 190.371 580.696 194.735C583.915 199.099 586.038 204.174 586.884 209.53C586.294 213.078 585.144 216.51 583.477 219.697V230.538Z" fill="#132043"/>
<path opacity="0.4" d="M583.477 230.538L607.163 244.221C612.112 235.217 614.701 225.107 614.688 214.832C614.688 213.01 614.579 211.188 614.415 209.366C614.579 207.544 614.688 205.722 614.688 203.9C614.687 193.227 611.894 182.739 606.587 173.478C601.279 164.218 593.64 156.507 584.43 151.112C575.221 145.717 564.759 142.825 554.086 142.723C543.413 142.622 532.899 145.315 523.588 150.534V161.466L537.235 185.152C541.991 182.546 547.304 181.123 552.726 181.002C558.147 180.88 563.519 182.065 568.387 184.455C573.255 186.845 577.477 190.371 580.696 194.735C583.915 199.099 586.038 204.174 586.884 209.53C586.294 213.078 585.144 216.51 583.477 219.697V230.538Z" fill="#F2F7FA"/>
<path d="M553.487 142.735C543.021 142.715 532.728 145.401 523.606 150.534L537.253 174.22C543.629 170.733 550.959 169.39 558.157 170.39C565.355 171.391 572.04 174.681 577.224 179.775C582.407 184.869 585.814 191.495 586.94 198.675C588.066 205.854 586.852 213.206 583.477 219.642L607.163 233.325C612.267 224.01 614.857 213.526 614.678 202.905C614.499 192.285 611.557 181.894 606.142 172.756C600.727 163.618 593.026 156.047 583.797 150.79C574.567 145.532 564.127 142.769 553.505 142.772L553.487 142.735Z" fill="#132043"/>
<path d="M497.407 386.629C497.046 386.625 496.701 386.479 496.445 386.224C496.19 385.969 496.045 385.624 496.04 385.263V369.175C496.044 366.098 497.27 363.149 499.447 360.976L537.308 323.133C538.966 321.468 539.897 319.214 539.896 316.865V294.29C539.9 293.929 540.046 293.585 540.301 293.329C540.556 293.074 540.901 292.929 541.262 292.924C541.623 292.929 541.968 293.074 542.223 293.329C542.478 293.585 542.624 293.929 542.629 294.29V316.865C542.623 319.938 541.405 322.884 539.24 325.064L501.378 362.907C500.551 363.727 499.894 364.703 499.447 365.779C499 366.855 498.771 368.009 498.773 369.175V385.263C498.773 385.625 498.629 385.973 498.373 386.229C498.117 386.485 497.769 386.629 497.407 386.629Z" fill="#132043"/>
<path d="M682.284 460.273C683.19 460.707 683.959 461.381 684.507 462.223C685.061 463.1 685.347 464.119 685.327 465.156C685.342 466.266 685.031 467.355 684.434 468.29C683.822 469.19 682.979 469.907 681.993 470.367C680.921 470.867 679.75 471.116 678.567 471.096C677.482 471.157 676.396 470.983 675.384 470.587C674.372 470.191 673.457 469.581 672.701 468.8C671.181 466.966 670.425 464.618 670.587 462.241C670.539 460.437 670.933 458.648 671.735 457.03C672.446 455.643 673.557 454.501 674.923 453.751C676.387 452.977 678.024 452.588 679.679 452.621C680.606 452.617 681.53 452.727 682.43 452.949C683.216 453.118 683.968 453.42 684.653 453.842L683.122 456.885C682.128 456.253 680.965 455.941 679.788 455.992C679.122 455.947 678.453 456.042 677.826 456.272C677.198 456.501 676.625 456.858 676.144 457.322C675.183 458.368 674.667 459.746 674.705 461.166C675.295 460.619 675.99 460.196 676.748 459.924C677.505 459.651 678.31 459.535 679.114 459.581C680.21 459.56 681.296 459.797 682.284 460.273ZM680.462 467.288C680.741 467.053 680.962 466.756 681.108 466.421C681.253 466.086 681.319 465.722 681.3 465.357C681.319 464.989 681.253 464.623 681.108 464.285C680.963 463.947 680.742 463.646 680.462 463.407C679.847 462.893 679.059 462.632 678.258 462.678C677.456 462.648 676.671 462.914 676.053 463.426C675.771 463.661 675.547 463.957 675.395 464.291C675.244 464.626 675.17 464.99 675.178 465.357C675.179 465.703 675.254 466.045 675.399 466.359C675.543 466.674 675.754 466.953 676.017 467.179C676.666 467.696 677.483 467.956 678.312 467.908C679.087 467.976 679.859 467.755 680.481 467.288H680.462Z" fill="#132043"/>
<path d="M690.538 470.076C689.346 469.295 688.404 468.188 687.823 466.888C686.511 463.714 686.511 460.15 687.823 456.976C688.392 455.639 689.334 454.494 690.538 453.678C691.724 452.943 693.096 452.563 694.491 452.585C695.887 452.563 697.259 452.943 698.445 453.678C699.637 454.459 700.579 455.566 701.16 456.867C702.472 460.04 702.472 463.605 701.16 466.778C700.586 468.084 699.642 469.192 698.445 469.967C697.259 470.702 695.887 471.082 694.491 471.06C693.107 471.115 691.735 470.773 690.538 470.076ZM697.06 466.268C697.673 464.904 697.989 463.427 697.989 461.932C697.989 460.437 697.673 458.959 697.06 457.595C696.787 457.166 696.41 456.813 695.964 456.569C695.518 456.324 695.018 456.196 694.51 456.196C694.001 456.196 693.501 456.324 693.055 456.569C692.609 456.813 692.232 457.166 691.959 457.595C691.346 458.959 691.03 460.437 691.03 461.932C691.03 463.427 691.346 464.904 691.959 466.268C692.232 466.697 692.609 467.05 693.055 467.295C693.501 467.539 694.001 467.667 694.51 467.667C695.018 467.667 695.518 467.539 695.964 467.295C696.41 467.05 696.787 466.697 697.06 466.268Z" fill="#132043"/>
<path d="M705.114 461.239C704.31 460.215 703.873 458.951 703.873 457.649C703.873 456.348 704.31 455.084 705.114 454.06C705.532 453.638 706.03 453.302 706.579 453.073C707.128 452.844 707.717 452.727 708.311 452.727C708.906 452.727 709.495 452.844 710.044 453.073C710.592 453.302 711.091 453.638 711.509 454.06C712.301 455.089 712.73 456.351 712.73 457.649C712.73 458.948 712.301 460.21 711.509 461.239C711.091 461.661 710.592 461.997 710.044 462.226C709.495 462.455 708.906 462.572 708.311 462.572C707.717 462.572 707.128 462.455 706.579 462.226C706.03 461.997 705.532 461.661 705.114 461.239ZM709.687 459.763C710.01 459.105 710.178 458.382 710.178 457.649C710.178 456.917 710.01 456.194 709.687 455.536C709.536 455.314 709.332 455.132 709.094 455.008C708.855 454.884 708.589 454.821 708.321 454.825C708.049 454.82 707.781 454.884 707.542 455.012C707.303 455.139 707.1 455.326 706.954 455.554C706.583 456.187 706.411 456.917 706.462 457.649C706.418 458.387 706.589 459.121 706.954 459.763C707.109 459.981 707.314 460.159 707.552 460.282C707.789 460.404 708.053 460.468 708.321 460.468C708.588 460.468 708.852 460.404 709.089 460.282C709.327 460.159 709.532 459.981 709.687 459.763ZM718.961 452.93H721.986L709.796 470.786H706.754L718.961 452.93ZM718.141 470.385C717.469 469.973 716.926 469.379 716.574 468.673C716.214 467.851 716.028 466.964 716.028 466.067C716.028 465.17 716.214 464.283 716.574 463.462C716.926 462.755 717.469 462.162 718.141 461.749C718.837 461.343 719.631 461.135 720.437 461.148C721.033 461.125 721.627 461.233 722.177 461.462C722.728 461.692 723.222 462.038 723.625 462.478C724.429 463.502 724.866 464.765 724.866 466.067C724.866 467.369 724.429 468.633 723.625 469.656C723.222 470.096 722.728 470.442 722.177 470.672C721.627 470.902 721.033 471.009 720.437 470.987C719.619 471.006 718.811 470.798 718.105 470.385H718.141ZM721.785 468.181C722.151 467.539 722.322 466.804 722.277 466.067C722.328 465.335 722.156 464.605 721.785 463.972C721.639 463.744 721.436 463.557 721.197 463.429C720.958 463.302 720.69 463.237 720.419 463.243C720.152 463.237 719.888 463.299 719.652 463.423C719.416 463.548 719.216 463.73 719.07 463.954C718.723 464.604 718.541 465.33 718.541 466.067C718.541 466.804 718.723 467.53 719.07 468.181C719.216 468.404 719.416 468.587 719.652 468.711C719.888 468.835 720.152 468.897 720.419 468.891C720.678 468.901 720.936 468.848 721.17 468.737C721.405 468.626 721.61 468.46 721.767 468.254L721.785 468.181Z" fill="#132043"/>
<path d="M646.081 435.659L669.767 449.324C673.057 443.022 678.249 437.918 684.605 434.735C690.962 431.553 698.159 430.455 705.176 431.597C712.192 432.739 718.67 436.062 723.689 441.096C728.709 446.129 732.014 452.617 733.136 459.636C732.307 464.7 730.337 469.51 727.376 473.702C724.416 477.893 720.541 481.357 716.046 483.832V494.764L729.693 518.45C739.18 513.138 747.08 505.394 752.578 496.013C758.077 486.633 760.976 475.957 760.976 465.084C760.976 463.262 760.885 461.349 760.721 459.527C760.867 457.705 760.976 455.883 760.976 454.152C760.953 440.585 756.42 427.411 748.092 416.701C739.764 405.991 728.112 398.353 714.969 394.988C701.826 391.623 687.937 392.722 675.487 398.112C663.037 403.502 652.731 412.877 646.19 424.763L646.081 435.659Z" fill="#5CADF8"/>
<path d="M662.479 445.68L638.793 432.015C633.858 441.023 631.276 451.132 631.286 461.404C631.286 463.226 631.286 465.047 631.559 466.869C631.395 468.691 631.286 470.513 631.286 472.335C631.287 483.009 634.08 493.497 639.388 502.758C644.695 512.018 652.334 519.729 661.544 525.124C670.753 530.519 681.215 533.411 691.888 533.513C702.561 533.614 713.075 530.921 722.386 525.702V514.77L708.739 491.084C703.986 493.677 698.681 495.092 693.268 495.21C687.855 495.328 682.492 494.146 677.63 491.763C672.768 489.381 668.549 485.867 665.326 481.516C662.103 477.165 659.971 472.105 659.108 466.76C659.696 463.206 660.846 459.768 662.515 456.575L662.479 445.68Z" fill="#5CADF8"/>
<path opacity="0.3" d="M646.081 435.659L669.767 449.324C673.057 443.022 678.249 437.918 684.605 434.735C690.962 431.553 698.159 430.455 705.176 431.597C712.192 432.739 718.67 436.062 723.689 441.096C728.709 446.129 732.014 452.617 733.136 459.636C732.307 464.7 730.337 469.51 727.376 473.702C724.416 477.893 720.541 481.357 716.046 483.832V494.764L729.693 518.45C739.18 513.138 747.08 505.394 752.578 496.013C758.077 486.633 760.976 475.957 760.976 465.084C760.976 463.262 760.885 461.349 760.721 459.527C760.867 457.705 760.976 455.883 760.976 454.152C760.953 440.585 756.42 427.411 748.092 416.701C739.764 405.991 728.112 398.353 714.969 394.988C701.826 391.623 687.937 392.722 675.487 398.112C663.037 403.502 652.731 412.877 646.19 424.763L646.081 435.659Z" fill="#F2F7FA"/>
<path opacity="0.3" d="M662.479 445.68L638.793 432.015C633.858 441.023 631.276 451.132 631.286 461.404C631.286 463.226 631.286 465.047 631.559 466.869C631.395 468.691 631.286 470.513 631.286 472.335C631.287 483.009 634.08 493.497 639.388 502.758C644.695 512.018 652.334 519.729 661.544 525.124C670.753 530.519 681.215 533.411 691.888 533.513C702.561 533.614 713.075 530.921 722.386 525.702V514.77L708.739 491.084C703.986 493.677 698.681 495.092 693.268 495.21C687.855 495.328 682.492 494.146 677.63 491.763C672.768 489.381 668.549 485.867 665.326 481.516C662.103 477.165 659.971 472.105 659.108 466.76C659.696 463.206 660.846 459.768 662.515 456.575L662.479 445.68Z" fill="#F2F7FA"/>
<path d="M699.757 420.244C707.279 420.248 714.585 422.756 720.524 427.372C726.463 431.987 730.696 438.449 732.557 445.736C734.417 453.024 733.799 460.724 730.8 467.622C727.8 474.52 722.59 480.223 715.991 483.832L729.638 507.518C737.909 502.888 744.991 496.401 750.326 488.566C755.661 480.732 759.103 471.765 760.38 462.373C761.657 452.981 760.735 443.421 757.686 434.446C754.636 425.472 749.544 417.328 742.809 410.658C736.075 403.988 727.883 398.974 718.879 396.012C709.875 393.049 700.307 392.219 690.928 393.587C681.548 394.954 672.615 398.482 664.832 403.893C657.05 409.303 650.631 416.447 646.081 424.763L669.767 438.428C672.629 432.947 676.937 428.355 682.224 425.149C687.511 421.944 693.574 420.247 699.757 420.244Z" fill="#5CADF8"/>
<path opacity="0.6" d="M692.469 522.567C702.934 522.579 713.225 519.893 722.35 514.769L708.703 491.083C702.325 494.575 694.992 495.92 687.79 494.92C680.588 493.92 673.9 490.628 668.714 485.531C663.529 480.433 660.123 473.802 659 466.618C657.877 459.434 659.097 452.079 662.479 445.643L638.793 431.978C633.694 441.295 631.109 451.78 631.291 462.399C631.474 473.019 634.418 483.409 639.834 492.546C645.25 501.683 652.951 509.252 662.18 514.51C671.409 519.767 681.848 522.532 692.469 522.531V522.567Z" fill="#F2F7FA"/>
<path d="M618.733 471.169H562.998C559.925 471.163 556.979 469.946 554.799 467.78L539.166 452.129C538.91 451.873 538.767 451.525 538.767 451.163C538.767 450.801 538.91 450.454 539.166 450.197C539.422 449.942 539.77 449.798 540.132 449.798C540.494 449.798 540.841 449.942 541.098 450.197L556.73 465.848C558.396 467.505 560.649 468.435 562.998 468.436H618.769C619.132 468.436 619.479 468.58 619.736 468.836C619.992 469.092 620.136 469.44 620.136 469.802C620.139 469.985 620.104 470.167 620.034 470.337C619.964 470.506 619.86 470.659 619.729 470.787C619.597 470.915 619.441 471.015 619.27 471.081C619.099 471.146 618.916 471.176 618.733 471.169Z" fill="#132043"/>
<path d="M267.834 303.363C280.843 298.681 278.475 276.908 274.685 260.564C272.717 252.129 283.558 245.988 275.979 233.672C268.891 221.792 227.258 210.223 226.183 231.704C211.607 235.913 211.17 249.049 212.609 269.966C212.609 270.021 192.203 330.584 267.834 303.363Z" fill="#132043"/>
<path d="M309.521 360.41L318.249 332.88L318.777 327.414C318.813 327.073 318.887 326.736 318.996 326.411L322.184 316.463C322.542 315.367 323.276 314.433 324.256 313.826C325.237 313.219 326.4 312.979 327.541 313.147C328.429 313.287 329.261 313.668 329.945 314.25C330.63 314.832 331.141 315.592 331.422 316.445L333.517 322.822C333.768 323.563 333.833 324.355 333.705 325.127C333.578 325.899 333.263 326.628 332.788 327.25L325.938 336.36L319.779 365.73L309.521 360.41Z" fill="#B97964"/>
<path d="M283.977 301.305C283.977 301.305 291.01 310.178 295.601 329.163C300.193 348.148 303.09 362.214 306.224 362.524C309.357 362.834 308.446 355.236 308.446 355.236L320.089 360.702C320.089 360.702 316.099 381.509 305.094 381.509C289.17 381.509 285.617 362.724 283.977 354.27C281.444 341.261 276.015 314.168 283.977 301.305Z" fill="#5CADF8"/>
<path opacity="0.2" d="M283.977 354.251C284.998 359.572 286.801 368.991 291.958 375.223C292.267 329.363 285.417 311.872 281.864 305.896C277.145 319.816 281.718 342.645 283.977 354.251Z" fill="#132043"/>
<path d="M285.89 451.856L342.117 735.906L328.652 739.55C328.652 739.55 294.235 656.831 282.41 607.054C280.97 601.024 279.877 595.466 279.221 590.656C278.332 583.951 276.376 577.431 273.427 571.343C271.915 568.228 270.129 564.401 268.235 559.992C262.1 545.632 257.152 530.794 253.44 515.626C253.44 515.626 233.106 485.017 236.186 455.628L285.89 451.856Z" fill="#B97964"/>
<path d="M256.757 488.625L256.429 744.488H241.014C241.014 744.488 221.41 641.855 223.487 599.785V598.564C224.053 589.181 222.886 579.775 220.043 570.815C219.132 567.954 218.221 564.711 217.274 561.122C213.217 545.032 211.064 528.521 210.86 511.928V480.043L256.757 488.625Z" fill="#B97964"/>
<path d="M255.7 739.331L239.63 739.659C239.289 739.668 238.962 739.792 238.701 740.01C238.44 740.229 238.26 740.529 238.19 740.862L235.129 756.021C235.053 756.383 235.059 756.758 235.147 757.117C235.234 757.477 235.401 757.812 235.635 758.099C235.869 758.385 236.165 758.616 236.5 758.773C236.835 758.931 237.201 759.011 237.571 759.009C244.239 758.772 250.197 758.298 258.506 758.152C268.344 757.989 265.794 759.209 277.418 759.155C284.378 759.155 285.508 751.192 282.556 750.846C269.018 749.389 265.046 745.38 259.744 740.607C258.6 739.697 257.159 739.242 255.7 739.331Z" fill="#132043"/>
<path d="M342.791 732.334L327.031 735.431C326.699 735.497 326.399 735.674 326.181 735.932C325.962 736.19 325.838 736.515 325.828 736.853L325.409 752.321C325.397 752.647 325.449 752.971 325.562 753.277C325.676 753.582 325.848 753.862 326.07 754.101C326.291 754.339 326.558 754.532 326.854 754.667C327.15 754.803 327.47 754.879 327.796 754.89H328.324C334.865 753.487 340.641 751.993 348.822 750.426C358.46 748.604 356.237 750.19 367.606 748.149C374.475 746.91 374.202 738.893 371.25 739.039C357.677 739.95 353.03 736.634 347.018 732.881C345.725 732.182 344.219 731.987 342.791 732.334Z" fill="#132043"/>
<path opacity="0.1" d="M256.665 555.418V528.599L212.536 535.668C213.585 544.132 215.155 552.523 217.237 560.793C230.531 560.379 243.745 558.577 256.665 555.418Z" fill="#132043"/>
<path opacity="0.1" d="M301.541 530.931L259.544 536.816C261.694 543.302 263.899 549.242 266.03 554.526C279.234 554.306 292.376 552.65 305.222 549.588L301.541 530.931Z" fill="#132043"/>
<path d="M211.534 457.322C211.534 457.322 202.971 488.752 211.534 556.895L310.706 545.07L289.061 442.746L265.812 427.241L236.186 439.102L211.534 457.322Z" fill="#132043"/>
<path opacity="0.5" d="M264.044 481.883C264.044 481.883 253.895 504.658 257.048 551.538L264.591 550.645C261.43 527.845 261.247 504.73 264.044 481.883Z" fill="#132043"/>
<path d="M265.611 443.621L272.425 465.722C279.495 464.574 287.184 463.244 295.601 461.677C295.601 461.677 281.517 408.42 285.799 375.369C290.081 342.318 283.977 301.305 283.977 301.305C283.977 301.305 249.086 297.023 201.331 308.046C201.331 308.046 224.598 369.867 220.918 404.758C217.237 439.649 204.392 472.172 204.392 472.172C204.392 472.172 218.749 473.775 260.601 467.635L265.611 443.621Z" fill="#5CADF8"/>
<path d="M285.525 402.771C285.288 399.71 285.143 396.649 285.052 393.661C263.188 400.348 230.719 400.949 221.282 401.095C221.282 402.352 221.118 403.573 220.99 404.739C220.862 405.905 220.698 407.308 220.553 408.602C253.494 409.64 274.666 405.705 285.525 402.771Z" fill="#132043"/>
<path d="M270.475 401.988C270.694 405.213 267.56 408.037 263.497 408.292C259.434 408.547 255.954 406.179 255.735 402.954C255.517 399.729 258.651 396.905 262.732 396.65C266.813 396.395 270.275 398.763 270.475 401.988Z" fill="#132043"/>
<path opacity="0.6" d="M270.475 401.988C270.694 405.213 267.56 408.037 263.497 408.292C259.434 408.547 255.954 406.179 255.735 402.954C255.517 399.729 258.651 396.905 262.732 396.65C266.813 396.395 270.275 398.763 270.475 401.988Z" fill="#F2F7FA"/>
<path d="M239.083 398.636L239.903 410.679H242.964L242.144 397.615L239.083 398.636Z" fill="#5CADF8"/>
<path d="M278.056 394.153L278.457 406.688H281.517L281.117 393.133L278.056 394.153Z" fill="#5CADF8"/>
<path d="M241.014 298.662C241.014 298.662 220.098 293.561 222.357 316.409C222.357 316.409 224.999 308.246 235.822 313.348L233.362 319.871C241.081 320.116 248.639 322.143 255.445 325.792C255.445 325.792 263.771 320.071 264.555 313.949L259.854 310.086C259.854 310.086 259.854 304.165 268.964 309.267C269.073 309.267 262.951 290.081 241.014 298.662Z" fill="#5CADF8"/>
<path opacity="0.6" d="M241.014 298.662C241.014 298.662 220.098 293.561 222.357 316.409C222.357 316.409 224.999 308.246 235.822 313.348L233.362 319.871C241.081 320.116 248.639 322.143 255.445 325.792C255.445 325.792 263.771 320.071 264.555 313.949L259.854 310.086C259.854 310.086 259.854 304.165 268.964 309.267C269.073 309.267 262.951 290.081 241.014 298.662Z" fill="#F2F7FA"/>
<path opacity="0.2" d="M206.232 322.275C208.874 330.383 212.154 341.26 214.978 352.939C214.577 328.251 209.968 318.431 209.968 318.431L206.232 322.275Z" fill="#132043"/>
<path d="M253.003 322.112C261.839 321.438 258.669 307.791 256.392 300.667C248.94 300.94 240.23 301.56 230.501 302.817C233.908 308.538 243.383 322.859 253.003 322.112Z" fill="#B97964"/>
<path d="M201.331 308.046C201.331 308.046 191.948 314.168 186.227 346.599C180.505 379.031 187.575 397.615 205.011 393.133C206.961 392.623 212.755 390.874 212.755 390.874V374.567C212.755 374.567 207.052 376.808 203.772 372.927C200.803 369.393 203.044 356.912 210.313 335.522C212.646 328.689 212.354 313.949 201.331 308.046Z" fill="#5CADF8"/>
<path d="M275.559 339.949L241.761 334.392C241.761 334.392 234.473 355.49 236.587 389.762L269.784 385.863C269.784 385.863 268.253 369.629 275.559 339.949Z" fill="#132043"/>
<path opacity="0.7" d="M275.559 339.949L241.761 334.392C241.761 334.392 234.473 355.49 236.587 389.762L269.784 385.863C269.784 385.863 268.253 369.629 275.559 339.949Z" fill="#F2F7FA"/>
<path d="M239.52 387.266C239.52 387.266 236.222 348.603 252.128 332.971L286.509 339.238C286.509 339.238 268.289 364.746 274.156 388.706L239.52 387.266Z" fill="#132043"/>
<path opacity="0.8" d="M239.52 387.266C239.52 387.266 236.222 348.603 252.128 332.971L286.509 339.238C286.509 339.238 268.289 364.746 274.156 388.706L239.52 387.266Z" fill="#F2F7FA"/>
<path d="M244.952 378.994L244.865 380.412L266.87 381.758L266.957 380.339L244.952 378.994Z" fill="#132043"/>
<path d="M245.176 371.216L245.061 372.633L267.07 374.423L267.186 373.007L245.176 371.216Z" fill="#132043"/>
<path d="M243.847 364.322L243.705 365.729L266.18 367.999L266.322 366.592L243.847 364.322Z" fill="#132043"/>
<path d="M247.069 355.556L246.897 356.967L270.356 359.818L270.528 358.407L247.069 355.556Z" fill="#132043"/>
<path d="M252.173 340.297L251.945 341.7L276.711 345.711L276.939 344.309L252.173 340.297Z" fill="#132043"/>
<path d="M249.08 347.866L248.881 349.273L273.198 352.721L273.398 351.314L249.08 347.866Z" fill="#132043"/>
<path d="M210.915 377.154L232.542 371.852L237.534 364.2C238.062 363.377 238.882 362.784 239.83 362.542L246.608 360.72C247.158 360.573 247.734 360.549 248.294 360.65C248.855 360.751 249.386 360.974 249.851 361.303C250.518 361.767 251.024 362.426 251.301 363.189C251.579 363.952 251.613 364.783 251.4 365.566L248.904 374.512C248.734 375.127 248.419 375.692 247.984 376.158C247.55 376.624 247.009 376.979 246.407 377.191L234.182 381.4L208.674 390.892L210.915 377.154Z" fill="#B97964"/>
<path d="M206.833 373.128V382.11H210.914L206.833 385.372V395.575L214.996 392.113V373.128H206.833Z" fill="#5CADF8"/>
<path opacity="0.6" d="M206.833 373.128V382.11H210.914L206.833 385.372V395.575L214.996 392.113V373.128H206.833Z" fill="#F2F7FA"/>
<path d="M303.199 359.918L311.143 364.127L313.056 360.519L314.022 365.658L323.041 370.431L323.806 361.594L307.025 352.703L303.199 359.918Z" fill="#5CADF8"/>
<path opacity="0.6" d="M303.199 359.918L311.143 364.127L313.056 360.519L314.022 365.658L323.041 370.431L323.806 361.594L307.025 352.703L303.199 359.918Z" fill="#F2F7FA"/>
<path d="M231.612 303.072L233.07 304.365L251.928 318.431L256.027 317.684L256.246 301.687C250.47 298.626 248.612 291.247 249.832 285.289L233.434 272.535C235.347 281.062 236.532 296.185 231.612 303.072Z" fill="#B97964"/>
<path opacity="0.1" d="M249.887 292.704C249.388 290.3 249.388 287.82 249.887 285.416L233.489 272.662C233.978 274.791 234.355 276.944 234.619 279.112C235.994 282.37 238.078 285.28 240.719 287.631C243.36 289.982 246.492 291.715 249.887 292.704Z" fill="#132043"/>
<path d="M229.062 254.15C230.246 269.146 230.428 275.523 238.172 283.102C249.796 294.471 267.98 289.771 271.296 274.703C274.284 261.147 271.842 238.955 257.029 233.143C253.767 231.867 250.232 231.447 246.762 231.922C243.291 232.397 239.999 233.751 237.199 235.856C234.399 237.96 232.183 240.746 230.762 243.948C229.341 247.15 228.762 250.662 229.08 254.15H229.062Z" fill="#B97964"/>
<path d="M239.411 231.704C258.925 238.099 222.576 266.322 223.013 282.811C215.16 263.443 218.003 224.689 239.411 231.704Z" fill="#132043"/>
<path d="M233.361 256.191C233.361 256.191 240.121 270.385 236.513 282.811C231.94 298.644 241.633 307.554 241.633 307.554C237.955 307.009 234.564 305.252 231.996 302.563C229.429 299.873 227.832 296.404 227.458 292.704C225.946 279.367 223.213 262.477 223.213 262.477L233.361 256.191Z" fill="#132043"/>
<path d="M260.272 260.655C261.526 263.73 263.207 266.613 265.265 269.219C264.583 269.731 263.797 270.086 262.963 270.259C262.128 270.432 261.265 270.419 260.436 270.221L260.272 260.655Z" fill="#A24E3F"/>
<path d="M256.319 277.236C257.083 277.242 257.845 277.175 258.596 277.035C258.7 277.017 258.792 276.96 258.853 276.874C258.915 276.789 258.94 276.684 258.924 276.58C258.906 276.476 258.849 276.384 258.764 276.323C258.678 276.261 258.573 276.236 258.469 276.252C256.814 276.577 255.106 276.509 253.483 276.053C251.859 275.597 250.366 274.767 249.122 273.628C249.049 273.548 248.948 273.501 248.841 273.496C248.733 273.49 248.628 273.528 248.548 273.601C248.468 273.673 248.421 273.774 248.415 273.882C248.41 273.99 248.448 274.095 248.521 274.175C250.626 276.167 253.421 277.264 256.319 277.236Z" fill="#132043"/>
<path d="M231.394 231.686C225.363 242.727 242.781 236.441 256.793 241.014C269.783 245.223 276.361 253.659 275.013 241.415C273.3 226.329 240.941 214.304 231.394 231.686Z" fill="#132043"/>
<path d="M244.695 254.716C244.802 254.697 244.904 254.657 244.994 254.597C245.085 254.538 245.163 254.46 245.223 254.37C245.756 253.526 246.481 252.82 247.34 252.31C248.198 251.8 249.165 251.501 250.161 251.436C250.374 251.4 250.564 251.284 250.693 251.111C250.822 250.938 250.88 250.721 250.853 250.507C250.824 250.336 250.741 250.178 250.617 250.057C250.492 249.936 250.333 249.858 250.161 249.833C248.9 249.892 247.672 250.254 246.581 250.888C245.49 251.523 244.568 252.411 243.893 253.477C243.78 253.652 243.74 253.864 243.781 254.068C243.822 254.272 243.94 254.452 244.112 254.57C244.193 254.634 244.288 254.679 244.388 254.704C244.488 254.729 244.593 254.733 244.695 254.716Z" fill="#132043"/>
<path d="M269 252.074C269.102 252.068 269.202 252.04 269.293 251.993C269.384 251.946 269.464 251.88 269.528 251.8C269.595 251.719 269.645 251.625 269.676 251.524C269.707 251.424 269.718 251.318 269.708 251.213C269.697 251.108 269.667 251.006 269.617 250.913C269.568 250.82 269.5 250.737 269.419 250.671C268.453 249.853 267.307 249.275 266.076 248.983C264.844 248.692 263.561 248.696 262.331 248.994C262.133 249.069 261.97 249.215 261.876 249.404C261.781 249.594 261.761 249.812 261.821 250.015C261.852 250.113 261.902 250.204 261.968 250.283C262.035 250.361 262.116 250.426 262.207 250.474C262.298 250.521 262.398 250.55 262.501 250.559C262.603 250.567 262.707 250.556 262.805 250.525C263.784 250.292 264.805 250.298 265.782 250.542C266.758 250.787 267.662 251.262 268.417 251.928C268.497 251.994 268.59 252.042 268.691 252.067C268.792 252.092 268.898 252.095 269 252.074Z" fill="#132043"/>
<path d="M249.796 260.436C249.887 261.621 250.597 262.532 251.381 262.477C252.164 262.422 252.711 261.42 252.602 260.218C252.492 259.015 251.8 258.123 251.035 258.177C250.269 258.232 249.705 259.252 249.796 260.436Z" fill="#132043"/>
<path d="M263.224 259.398C263.315 260.583 264.026 261.494 264.791 261.439C265.556 261.384 266.121 260.382 266.03 259.18C265.939 257.977 265.247 257.084 264.481 257.139C263.716 257.194 263.133 258.214 263.224 259.398Z" fill="#132043"/>
<path d="M264.189 257.23L266.977 256.191C266.977 256.191 265.629 258.542 264.189 257.23Z" fill="#132043"/>
<path d="M250.707 258.269L253.495 257.23C253.495 257.23 252.201 259.563 250.707 258.269Z" fill="#132043"/>
</svg>
