<svg width="16" height="16" viewBox="0 0 16 16" fill="none" xmlns="http://www.w3.org/2000/svg">
<g id="twitter 1">
<path id="Vector" d="M5.026 15.0007C11.064 15.0007 14.367 9.99769 14.367 5.66669C14.367 5.52669 14.367 5.38469 14.361 5.24469C15.0041 4.77918 15.5591 4.20284 16 3.54269C15.3993 3.80754 14.7628 3.9821 14.111 4.06069C14.7975 3.65033 15.3117 3.00466 15.558 2.24369C14.913 2.62582 14.207 2.89407 13.471 3.03669C12.9762 2.50972 12.3214 2.16061 11.6081 2.04345C10.8948 1.92629 10.1627 2.04761 9.52534 2.38863C8.88796 2.72965 8.38081 3.27132 8.08245 3.92975C7.78409 4.58818 7.71118 5.32663 7.875 6.03069C6.56974 5.96524 5.29282 5.62616 4.12704 5.03544C2.96127 4.44471 1.93268 3.61554 1.108 2.60169C0.68934 3.32478 0.561574 4.18009 0.750646 4.99396C0.939718 5.80782 1.43145 6.51922 2.126 6.98369C1.60554 6.96601 1.09652 6.82625 0.64 6.57569V6.62069C0.640897 7.37817 0.903307 8.11211 1.38287 8.69845C1.86244 9.28479 2.52975 9.68757 3.272 9.83869C2.99026 9.91631 2.69923 9.955 2.407 9.95369C2.20098 9.95432 1.99538 9.93523 1.793 9.89669C2.00279 10.5487 2.41127 11.1189 2.96125 11.5272C3.51122 11.9355 4.17513 12.1615 4.86 12.1737C3.69656 13.0875 2.2594 13.5831 0.78 13.5807C0.519321 13.5818 0.258823 13.5668 0 13.5357C1.50151 14.493 3.2453 15.0012 5.026 15.0007Z" fill="#D0D5DD"/>
</g>
</svg>
